%TF.GenerationSoftware,KiCad,Pcbnew,9.0.1*%
%TF.CreationDate,2026-07-09T21:46:01-05:00*%
%TF.ProjectId,VikFader4530,56696b46-6164-4657-9234-3533302e6b69,rev?*%
%TF.SameCoordinates,Original*%
%TF.FileFunction,Legend,Bot*%
%TF.FilePolarity,Positive*%
%FSLAX46Y46*%
G04 Gerber Fmt 4.6, Leading zero omitted, Abs format (unit mm)*
G04 Created by KiCad (PCBNEW 9.0.1) date 2026-07-09 21:46:01*
%MOMM*%
%LPD*%
G01*
G04 APERTURE LIST*
G04 Aperture macros list*
%AMRoundRect*
0 Rectangle with rounded corners*
0 $1 Rounding radius*
0 $2 $3 $4 $5 $6 $7 $8 $9 X,Y pos of 4 corners*
0 Add a 4 corners polygon primitive as box body*
4,1,4,$2,$3,$4,$5,$6,$7,$8,$9,$2,$3,0*
0 Add four circle primitives for the rounded corners*
1,1,$1+$1,$2,$3*
1,1,$1+$1,$4,$5*
1,1,$1+$1,$6,$7*
1,1,$1+$1,$8,$9*
0 Add four rect primitives between the rounded corners*
20,1,$1+$1,$2,$3,$4,$5,0*
20,1,$1+$1,$4,$5,$6,$7,0*
20,1,$1+$1,$6,$7,$8,$9,0*
20,1,$1+$1,$8,$9,$2,$3,0*%
%AMFreePoly0*
4,1,23,0.500000,-0.750000,0.000000,-0.750000,0.000000,-0.745722,-0.065263,-0.745722,-0.191342,-0.711940,-0.304381,-0.646677,-0.396677,-0.554381,-0.461940,-0.441342,-0.495722,-0.315263,-0.495722,-0.250000,-0.500000,-0.250000,-0.500000,0.250000,-0.495722,0.250000,-0.495722,0.315263,-0.461940,0.441342,-0.396677,0.554381,-0.304381,0.646677,-0.191342,0.711940,-0.065263,0.745722,0.000000,0.745722,
0.000000,0.750000,0.500000,0.750000,0.500000,-0.750000,0.500000,-0.750000,$1*%
%AMFreePoly1*
4,1,23,0.000000,0.745722,0.065263,0.745722,0.191342,0.711940,0.304381,0.646677,0.396677,0.554381,0.461940,0.441342,0.495722,0.315263,0.495722,0.250000,0.500000,0.250000,0.500000,-0.250000,0.495722,-0.250000,0.495722,-0.315263,0.461940,-0.441342,0.396677,-0.554381,0.304381,-0.646677,0.191342,-0.711940,0.065263,-0.745722,0.000000,-0.745722,0.000000,-0.750000,-0.500000,-0.750000,
-0.500000,0.750000,0.000000,0.750000,0.000000,0.745722,0.000000,0.745722,$1*%
%AMFreePoly2*
4,1,47,1.555255,2.102555,1.569900,2.067200,1.569640,2.062111,1.529740,1.672111,1.528238,1.664044,1.378238,1.114044,1.375957,1.107504,1.255957,0.827504,1.254721,0.824839,1.144721,0.604839,1.142059,0.600162,0.872059,0.180162,0.865355,0.171845,0.505355,-0.188155,0.501785,-0.191397,0.161785,-0.471397,0.154566,-0.476349,-0.235434,-0.696349,-0.241823,-0.699379,-0.651823,-0.859379,
-0.656463,-0.860933,-0.976463,-0.950933,-0.980194,-0.951829,-1.130194,-0.981829,-1.133533,-0.982380,-1.363533,-1.012380,-1.366674,-1.012689,-1.516674,-1.022689,-1.552925,-1.010429,-1.569889,-0.976126,-1.570000,-0.972800,-1.570000,-0.172800,-1.555355,-0.137445,-1.524975,-0.123048,-1.229758,-0.093526,-0.837751,0.024075,-0.583722,0.141319,-0.171905,0.396254,0.140480,0.728164,0.357960,1.064269,
0.493729,1.277620,0.620989,1.747504,0.670462,2.074676,0.690228,2.107444,0.719900,2.117200,1.519900,2.117200,1.555255,2.102555,1.555255,2.102555,$1*%
%AMFreePoly3*
4,1,47,-1.514899,1.026039,-1.124899,0.986039,-1.116842,0.984538,-0.566942,0.834538,-0.560410,0.832260,-0.280310,0.712260,-0.277631,0.711017,-0.057731,0.601017,-0.053067,0.598362,0.367033,0.328362,0.375355,0.321655,0.735355,-0.038345,0.738602,-0.041921,1.018502,-0.381921,1.023444,-0.389125,1.243544,-0.779125,1.246583,-0.785533,1.406483,-1.195533,1.408033,-1.200163,1.498033,-1.520163,
1.498929,-1.523894,1.528929,-1.673894,1.529477,-1.677212,1.559577,-1.907212,1.559889,-1.910372,1.569889,-2.060272,1.557630,-2.096524,1.523328,-2.113489,1.520000,-2.113600,0.719900,-2.113600,0.684545,-2.098955,0.670148,-2.068575,0.640626,-1.773355,0.523122,-1.381351,0.405787,-1.127434,0.150845,-0.715605,-0.181069,-0.403214,-0.517000,-0.185783,-0.730420,-0.049970,-1.200310,0.077291,
-1.527490,0.126864,-1.560253,0.146640,-1.570000,0.176300,-1.570000,0.976300,-1.555355,1.011655,-1.520000,1.026300,-1.514899,1.026039,-1.514899,1.026039,$1*%
%AMFreePoly4*
4,1,47,1.553025,1.010229,1.569989,0.975926,1.570100,0.972600,1.570100,0.172600,1.555455,0.137245,1.525075,0.122848,1.229855,0.093326,0.837846,-0.024178,0.583832,-0.141513,0.172005,-0.396454,-0.140380,-0.728364,-0.357860,-1.064469,-0.493629,-1.277820,-0.620891,-1.747710,-0.670464,-2.074890,-0.690240,-2.107653,-0.719900,-2.117400,-1.519900,-2.117400,-1.555255,-2.102755,-1.569900,-2.067400,
-1.569639,-2.062300,-1.529639,-1.672200,-1.528138,-1.664142,-1.378138,-1.114242,-1.375857,-1.107704,-1.255857,-0.827704,-1.254621,-0.825039,-1.144621,-0.605039,-1.141959,-0.600362,-0.871959,-0.180362,-0.865255,-0.172045,-0.505255,0.187955,-0.501685,0.191197,-0.161685,0.471197,-0.154466,0.476149,0.235534,0.696149,0.241923,0.699179,0.651923,0.859179,0.656563,0.860733,0.976563,0.950733,
0.980294,0.951629,1.130294,0.981629,1.133633,0.982180,1.363633,1.012180,1.366774,1.012489,1.516774,1.022489,1.553025,1.010229,1.553025,1.010229,$1*%
%AMFreePoly5*
4,1,47,-0.684645,2.098955,-0.670248,2.068575,-0.640726,1.773358,-0.523125,1.381356,-0.405881,1.127423,-0.150945,0.715605,0.180964,0.403219,0.517069,0.185739,0.730420,0.049970,1.200310,-0.077291,1.527490,-0.126864,1.560253,-0.146640,1.570000,-0.176300,1.570000,-0.976300,1.555355,-1.011655,1.520000,-1.026300,1.514899,-1.026039,1.124899,-0.986039,1.116844,-0.984538,0.566844,-0.834538,
0.560304,-0.832257,0.280304,-0.712257,0.277639,-0.711021,0.057639,-0.601021,0.052962,-0.598359,-0.367038,-0.328359,-0.375355,-0.321655,-0.735355,0.038345,-0.738597,0.041915,-1.018597,0.381915,-1.023549,0.389134,-1.243549,0.779134,-1.246579,0.785523,-1.406579,1.195523,-1.408133,1.200163,-1.498133,1.520163,-1.499029,1.523894,-1.529029,1.673894,-1.529580,1.677233,-1.559580,1.907233,
-1.559889,1.910372,-1.569889,2.060272,-1.557630,2.096524,-1.523328,2.113489,-1.520000,2.113600,-0.720000,2.113600,-0.684645,2.098955,-0.684645,2.098955,$1*%
G04 Aperture macros list end*
%ADD10C,0.120000*%
%ADD11C,0.150000*%
%ADD12C,0.254000*%
%ADD13C,0.128000*%
%ADD14C,2.000000*%
%ADD15FreePoly0,0.000000*%
%ADD16FreePoly1,0.000000*%
%ADD17FreePoly0,180.000000*%
%ADD18FreePoly1,180.000000*%
%ADD19RoundRect,0.102000X-0.900000X0.900000X-0.900000X-0.900000X0.900000X-0.900000X0.900000X0.900000X0*%
%ADD20C,2.004000*%
%ADD21C,2.754000*%
%ADD22RoundRect,0.225000X0.225000X0.250000X-0.225000X0.250000X-0.225000X-0.250000X0.225000X-0.250000X0*%
%ADD23RoundRect,0.250000X-0.450000X0.262500X-0.450000X-0.262500X0.450000X-0.262500X0.450000X0.262500X0*%
%ADD24R,1.250000X0.280000*%
%ADD25R,2.000000X1.800000*%
%ADD26RoundRect,0.200000X-0.200000X-0.275000X0.200000X-0.275000X0.200000X0.275000X-0.200000X0.275000X0*%
%ADD27RoundRect,0.225000X-0.225000X-0.250000X0.225000X-0.250000X0.225000X0.250000X-0.225000X0.250000X0*%
%ADD28C,4.250000*%
%ADD29FreePoly2,180.000000*%
%ADD30FreePoly3,180.000000*%
%ADD31FreePoly4,180.000000*%
%ADD32FreePoly5,180.000000*%
%ADD33RoundRect,0.150000X0.150000X-0.587500X0.150000X0.587500X-0.150000X0.587500X-0.150000X-0.587500X0*%
%ADD34RoundRect,0.200000X-0.275000X0.200000X-0.275000X-0.200000X0.275000X-0.200000X0.275000X0.200000X0*%
%ADD35R,0.250000X1.100000*%
%ADD36R,1.700000X1.700000*%
%ADD37C,1.700000*%
G04 APERTURE END LIST*
D10*
X201572093Y-59567994D02*
X201572093Y-59948947D01*
X201762569Y-59758470D02*
X201381617Y-59758470D01*
X201262569Y-60139423D02*
X201262569Y-60448947D01*
X201262569Y-60448947D02*
X201453045Y-60282280D01*
X201453045Y-60282280D02*
X201453045Y-60353709D01*
X201453045Y-60353709D02*
X201476855Y-60401328D01*
X201476855Y-60401328D02*
X201500664Y-60425137D01*
X201500664Y-60425137D02*
X201548283Y-60448947D01*
X201548283Y-60448947D02*
X201667331Y-60448947D01*
X201667331Y-60448947D02*
X201714950Y-60425137D01*
X201714950Y-60425137D02*
X201738760Y-60401328D01*
X201738760Y-60401328D02*
X201762569Y-60353709D01*
X201762569Y-60353709D02*
X201762569Y-60210852D01*
X201762569Y-60210852D02*
X201738760Y-60163233D01*
X201738760Y-60163233D02*
X201714950Y-60139423D01*
X201429236Y-60615613D02*
X201762569Y-60734661D01*
X201762569Y-60734661D02*
X201429236Y-60853708D01*
X201262569Y-60996565D02*
X201262569Y-61306089D01*
X201262569Y-61306089D02*
X201453045Y-61139422D01*
X201453045Y-61139422D02*
X201453045Y-61210851D01*
X201453045Y-61210851D02*
X201476855Y-61258470D01*
X201476855Y-61258470D02*
X201500664Y-61282279D01*
X201500664Y-61282279D02*
X201548283Y-61306089D01*
X201548283Y-61306089D02*
X201667331Y-61306089D01*
X201667331Y-61306089D02*
X201714950Y-61282279D01*
X201714950Y-61282279D02*
X201738760Y-61258470D01*
X201738760Y-61258470D02*
X201762569Y-61210851D01*
X201762569Y-61210851D02*
X201762569Y-61067994D01*
X201762569Y-61067994D02*
X201738760Y-61020375D01*
X201738760Y-61020375D02*
X201714950Y-60996565D01*
X201396379Y-62679899D02*
X201372569Y-62632280D01*
X201372569Y-62632280D02*
X201372569Y-62560851D01*
X201372569Y-62560851D02*
X201396379Y-62489423D01*
X201396379Y-62489423D02*
X201443998Y-62441804D01*
X201443998Y-62441804D02*
X201491617Y-62417994D01*
X201491617Y-62417994D02*
X201586855Y-62394185D01*
X201586855Y-62394185D02*
X201658283Y-62394185D01*
X201658283Y-62394185D02*
X201753521Y-62417994D01*
X201753521Y-62417994D02*
X201801140Y-62441804D01*
X201801140Y-62441804D02*
X201848760Y-62489423D01*
X201848760Y-62489423D02*
X201872569Y-62560851D01*
X201872569Y-62560851D02*
X201872569Y-62608470D01*
X201872569Y-62608470D02*
X201848760Y-62679899D01*
X201848760Y-62679899D02*
X201824950Y-62703708D01*
X201824950Y-62703708D02*
X201658283Y-62703708D01*
X201658283Y-62703708D02*
X201658283Y-62608470D01*
X201872569Y-62917994D02*
X201372569Y-62917994D01*
X201372569Y-62917994D02*
X201872569Y-63203708D01*
X201872569Y-63203708D02*
X201372569Y-63203708D01*
X201872569Y-63441804D02*
X201372569Y-63441804D01*
X201372569Y-63441804D02*
X201372569Y-63560852D01*
X201372569Y-63560852D02*
X201396379Y-63632280D01*
X201396379Y-63632280D02*
X201443998Y-63679899D01*
X201443998Y-63679899D02*
X201491617Y-63703709D01*
X201491617Y-63703709D02*
X201586855Y-63727518D01*
X201586855Y-63727518D02*
X201658283Y-63727518D01*
X201658283Y-63727518D02*
X201753521Y-63703709D01*
X201753521Y-63703709D02*
X201801140Y-63679899D01*
X201801140Y-63679899D02*
X201848760Y-63632280D01*
X201848760Y-63632280D02*
X201872569Y-63560852D01*
X201872569Y-63560852D02*
X201872569Y-63441804D01*
X201838760Y-67654185D02*
X201862569Y-67725613D01*
X201862569Y-67725613D02*
X201862569Y-67844661D01*
X201862569Y-67844661D02*
X201838760Y-67892280D01*
X201838760Y-67892280D02*
X201814950Y-67916089D01*
X201814950Y-67916089D02*
X201767331Y-67939899D01*
X201767331Y-67939899D02*
X201719712Y-67939899D01*
X201719712Y-67939899D02*
X201672093Y-67916089D01*
X201672093Y-67916089D02*
X201648283Y-67892280D01*
X201648283Y-67892280D02*
X201624474Y-67844661D01*
X201624474Y-67844661D02*
X201600664Y-67749423D01*
X201600664Y-67749423D02*
X201576855Y-67701804D01*
X201576855Y-67701804D02*
X201553045Y-67677994D01*
X201553045Y-67677994D02*
X201505426Y-67654185D01*
X201505426Y-67654185D02*
X201457807Y-67654185D01*
X201457807Y-67654185D02*
X201410188Y-67677994D01*
X201410188Y-67677994D02*
X201386379Y-67701804D01*
X201386379Y-67701804D02*
X201362569Y-67749423D01*
X201362569Y-67749423D02*
X201362569Y-67868470D01*
X201362569Y-67868470D02*
X201386379Y-67939899D01*
X201814950Y-68439898D02*
X201838760Y-68416089D01*
X201838760Y-68416089D02*
X201862569Y-68344660D01*
X201862569Y-68344660D02*
X201862569Y-68297041D01*
X201862569Y-68297041D02*
X201838760Y-68225613D01*
X201838760Y-68225613D02*
X201791140Y-68177994D01*
X201791140Y-68177994D02*
X201743521Y-68154184D01*
X201743521Y-68154184D02*
X201648283Y-68130375D01*
X201648283Y-68130375D02*
X201576855Y-68130375D01*
X201576855Y-68130375D02*
X201481617Y-68154184D01*
X201481617Y-68154184D02*
X201433998Y-68177994D01*
X201433998Y-68177994D02*
X201386379Y-68225613D01*
X201386379Y-68225613D02*
X201362569Y-68297041D01*
X201362569Y-68297041D02*
X201362569Y-68344660D01*
X201362569Y-68344660D02*
X201386379Y-68416089D01*
X201386379Y-68416089D02*
X201410188Y-68439898D01*
X201862569Y-68892279D02*
X201862569Y-68654184D01*
X201862569Y-68654184D02*
X201362569Y-68654184D01*
X201872569Y-70343708D02*
X201634474Y-70177042D01*
X201872569Y-70057994D02*
X201372569Y-70057994D01*
X201372569Y-70057994D02*
X201372569Y-70248470D01*
X201372569Y-70248470D02*
X201396379Y-70296089D01*
X201396379Y-70296089D02*
X201420188Y-70319899D01*
X201420188Y-70319899D02*
X201467807Y-70343708D01*
X201467807Y-70343708D02*
X201539236Y-70343708D01*
X201539236Y-70343708D02*
X201586855Y-70319899D01*
X201586855Y-70319899D02*
X201610664Y-70296089D01*
X201610664Y-70296089D02*
X201634474Y-70248470D01*
X201634474Y-70248470D02*
X201634474Y-70057994D01*
X201872569Y-70557994D02*
X201372569Y-70557994D01*
X201372569Y-70557994D02*
X201372569Y-70677042D01*
X201372569Y-70677042D02*
X201396379Y-70748470D01*
X201396379Y-70748470D02*
X201443998Y-70796089D01*
X201443998Y-70796089D02*
X201491617Y-70819899D01*
X201491617Y-70819899D02*
X201586855Y-70843708D01*
X201586855Y-70843708D02*
X201658283Y-70843708D01*
X201658283Y-70843708D02*
X201753521Y-70819899D01*
X201753521Y-70819899D02*
X201801140Y-70796089D01*
X201801140Y-70796089D02*
X201848760Y-70748470D01*
X201848760Y-70748470D02*
X201872569Y-70677042D01*
X201872569Y-70677042D02*
X201872569Y-70557994D01*
X201634474Y-71153232D02*
X201872569Y-71153232D01*
X201372569Y-70986566D02*
X201634474Y-71153232D01*
X201634474Y-71153232D02*
X201372569Y-71319899D01*
X201848760Y-64974185D02*
X201872569Y-65045613D01*
X201872569Y-65045613D02*
X201872569Y-65164661D01*
X201872569Y-65164661D02*
X201848760Y-65212280D01*
X201848760Y-65212280D02*
X201824950Y-65236089D01*
X201824950Y-65236089D02*
X201777331Y-65259899D01*
X201777331Y-65259899D02*
X201729712Y-65259899D01*
X201729712Y-65259899D02*
X201682093Y-65236089D01*
X201682093Y-65236089D02*
X201658283Y-65212280D01*
X201658283Y-65212280D02*
X201634474Y-65164661D01*
X201634474Y-65164661D02*
X201610664Y-65069423D01*
X201610664Y-65069423D02*
X201586855Y-65021804D01*
X201586855Y-65021804D02*
X201563045Y-64997994D01*
X201563045Y-64997994D02*
X201515426Y-64974185D01*
X201515426Y-64974185D02*
X201467807Y-64974185D01*
X201467807Y-64974185D02*
X201420188Y-64997994D01*
X201420188Y-64997994D02*
X201396379Y-65021804D01*
X201396379Y-65021804D02*
X201372569Y-65069423D01*
X201372569Y-65069423D02*
X201372569Y-65188470D01*
X201372569Y-65188470D02*
X201396379Y-65259899D01*
X201872569Y-65474184D02*
X201372569Y-65474184D01*
X201372569Y-65474184D02*
X201372569Y-65593232D01*
X201372569Y-65593232D02*
X201396379Y-65664660D01*
X201396379Y-65664660D02*
X201443998Y-65712279D01*
X201443998Y-65712279D02*
X201491617Y-65736089D01*
X201491617Y-65736089D02*
X201586855Y-65759898D01*
X201586855Y-65759898D02*
X201658283Y-65759898D01*
X201658283Y-65759898D02*
X201753521Y-65736089D01*
X201753521Y-65736089D02*
X201801140Y-65712279D01*
X201801140Y-65712279D02*
X201848760Y-65664660D01*
X201848760Y-65664660D02*
X201872569Y-65593232D01*
X201872569Y-65593232D02*
X201872569Y-65474184D01*
X201729712Y-65950375D02*
X201729712Y-66188470D01*
X201872569Y-65902756D02*
X201372569Y-66069422D01*
X201372569Y-66069422D02*
X201872569Y-66236089D01*
X201600664Y-72824661D02*
X201600664Y-72657994D01*
X201862569Y-72657994D02*
X201362569Y-72657994D01*
X201362569Y-72657994D02*
X201362569Y-72896089D01*
X201600664Y-73086565D02*
X201600664Y-73253232D01*
X201862569Y-73324660D02*
X201862569Y-73086565D01*
X201862569Y-73086565D02*
X201362569Y-73086565D01*
X201362569Y-73086565D02*
X201362569Y-73324660D01*
X201362569Y-73467518D02*
X201362569Y-73753232D01*
X201862569Y-73610375D02*
X201362569Y-73610375D01*
D11*
X199763333Y-57154819D02*
X199763333Y-57869104D01*
X199763333Y-57869104D02*
X199810952Y-58011961D01*
X199810952Y-58011961D02*
X199906190Y-58107200D01*
X199906190Y-58107200D02*
X200049047Y-58154819D01*
X200049047Y-58154819D02*
X200144285Y-58154819D01*
X199382380Y-57154819D02*
X198763333Y-57154819D01*
X198763333Y-57154819D02*
X199096666Y-57535771D01*
X199096666Y-57535771D02*
X198953809Y-57535771D01*
X198953809Y-57535771D02*
X198858571Y-57583390D01*
X198858571Y-57583390D02*
X198810952Y-57631009D01*
X198810952Y-57631009D02*
X198763333Y-57726247D01*
X198763333Y-57726247D02*
X198763333Y-57964342D01*
X198763333Y-57964342D02*
X198810952Y-58059580D01*
X198810952Y-58059580D02*
X198858571Y-58107200D01*
X198858571Y-58107200D02*
X198953809Y-58154819D01*
X198953809Y-58154819D02*
X199239523Y-58154819D01*
X199239523Y-58154819D02*
X199334761Y-58107200D01*
X199334761Y-58107200D02*
X199382380Y-58059580D01*
X199763333Y-60394819D02*
X199763333Y-61109104D01*
X199763333Y-61109104D02*
X199810952Y-61251961D01*
X199810952Y-61251961D02*
X199906190Y-61347200D01*
X199906190Y-61347200D02*
X200049047Y-61394819D01*
X200049047Y-61394819D02*
X200144285Y-61394819D01*
X198858571Y-60728152D02*
X198858571Y-61394819D01*
X199096666Y-60347200D02*
X199334761Y-61061485D01*
X199334761Y-61061485D02*
X198715714Y-61061485D01*
X196948571Y-79244819D02*
X196853333Y-79244819D01*
X196853333Y-79244819D02*
X196758095Y-79292438D01*
X196758095Y-79292438D02*
X196710476Y-79340057D01*
X196710476Y-79340057D02*
X196662857Y-79435295D01*
X196662857Y-79435295D02*
X196615238Y-79625771D01*
X196615238Y-79625771D02*
X196615238Y-79863866D01*
X196615238Y-79863866D02*
X196662857Y-80054342D01*
X196662857Y-80054342D02*
X196710476Y-80149580D01*
X196710476Y-80149580D02*
X196758095Y-80197200D01*
X196758095Y-80197200D02*
X196853333Y-80244819D01*
X196853333Y-80244819D02*
X196948571Y-80244819D01*
X196948571Y-80244819D02*
X197043809Y-80197200D01*
X197043809Y-80197200D02*
X197091428Y-80149580D01*
X197091428Y-80149580D02*
X197139047Y-80054342D01*
X197139047Y-80054342D02*
X197186666Y-79863866D01*
X197186666Y-79863866D02*
X197186666Y-79625771D01*
X197186666Y-79625771D02*
X197139047Y-79435295D01*
X197139047Y-79435295D02*
X197091428Y-79340057D01*
X197091428Y-79340057D02*
X197043809Y-79292438D01*
X197043809Y-79292438D02*
X196948571Y-79244819D01*
X196281904Y-80244819D02*
X195758095Y-79578152D01*
X196281904Y-79578152D02*
X195758095Y-80244819D01*
X194948571Y-79578152D02*
X194948571Y-80244819D01*
X195186666Y-79197200D02*
X195424761Y-79911485D01*
X195424761Y-79911485D02*
X194805714Y-79911485D01*
X194091428Y-79721009D02*
X193948571Y-79768628D01*
X193948571Y-79768628D02*
X193900952Y-79816247D01*
X193900952Y-79816247D02*
X193853333Y-79911485D01*
X193853333Y-79911485D02*
X193853333Y-80054342D01*
X193853333Y-80054342D02*
X193900952Y-80149580D01*
X193900952Y-80149580D02*
X193948571Y-80197200D01*
X193948571Y-80197200D02*
X194043809Y-80244819D01*
X194043809Y-80244819D02*
X194424761Y-80244819D01*
X194424761Y-80244819D02*
X194424761Y-79244819D01*
X194424761Y-79244819D02*
X194091428Y-79244819D01*
X194091428Y-79244819D02*
X193996190Y-79292438D01*
X193996190Y-79292438D02*
X193948571Y-79340057D01*
X193948571Y-79340057D02*
X193900952Y-79435295D01*
X193900952Y-79435295D02*
X193900952Y-79530533D01*
X193900952Y-79530533D02*
X193948571Y-79625771D01*
X193948571Y-79625771D02*
X193996190Y-79673390D01*
X193996190Y-79673390D02*
X194091428Y-79721009D01*
X194091428Y-79721009D02*
X194424761Y-79721009D01*
X196897142Y-76814819D02*
X196801904Y-76814819D01*
X196801904Y-76814819D02*
X196706666Y-76862438D01*
X196706666Y-76862438D02*
X196659047Y-76910057D01*
X196659047Y-76910057D02*
X196611428Y-77005295D01*
X196611428Y-77005295D02*
X196563809Y-77195771D01*
X196563809Y-77195771D02*
X196563809Y-77433866D01*
X196563809Y-77433866D02*
X196611428Y-77624342D01*
X196611428Y-77624342D02*
X196659047Y-77719580D01*
X196659047Y-77719580D02*
X196706666Y-77767200D01*
X196706666Y-77767200D02*
X196801904Y-77814819D01*
X196801904Y-77814819D02*
X196897142Y-77814819D01*
X196897142Y-77814819D02*
X196992380Y-77767200D01*
X196992380Y-77767200D02*
X197039999Y-77719580D01*
X197039999Y-77719580D02*
X197087618Y-77624342D01*
X197087618Y-77624342D02*
X197135237Y-77433866D01*
X197135237Y-77433866D02*
X197135237Y-77195771D01*
X197135237Y-77195771D02*
X197087618Y-77005295D01*
X197087618Y-77005295D02*
X197039999Y-76910057D01*
X197039999Y-76910057D02*
X196992380Y-76862438D01*
X196992380Y-76862438D02*
X196897142Y-76814819D01*
X196230475Y-77814819D02*
X195706666Y-77148152D01*
X196230475Y-77148152D02*
X195706666Y-77814819D01*
X194897142Y-77148152D02*
X194897142Y-77814819D01*
X195135237Y-76767200D02*
X195373332Y-77481485D01*
X195373332Y-77481485D02*
X194754285Y-77481485D01*
X194420951Y-77529104D02*
X193944761Y-77529104D01*
X194516189Y-77814819D02*
X194182856Y-76814819D01*
X194182856Y-76814819D02*
X193849523Y-77814819D01*
X196984761Y-74274819D02*
X196889523Y-74274819D01*
X196889523Y-74274819D02*
X196794285Y-74322438D01*
X196794285Y-74322438D02*
X196746666Y-74370057D01*
X196746666Y-74370057D02*
X196699047Y-74465295D01*
X196699047Y-74465295D02*
X196651428Y-74655771D01*
X196651428Y-74655771D02*
X196651428Y-74893866D01*
X196651428Y-74893866D02*
X196699047Y-75084342D01*
X196699047Y-75084342D02*
X196746666Y-75179580D01*
X196746666Y-75179580D02*
X196794285Y-75227200D01*
X196794285Y-75227200D02*
X196889523Y-75274819D01*
X196889523Y-75274819D02*
X196984761Y-75274819D01*
X196984761Y-75274819D02*
X197079999Y-75227200D01*
X197079999Y-75227200D02*
X197127618Y-75179580D01*
X197127618Y-75179580D02*
X197175237Y-75084342D01*
X197175237Y-75084342D02*
X197222856Y-74893866D01*
X197222856Y-74893866D02*
X197222856Y-74655771D01*
X197222856Y-74655771D02*
X197175237Y-74465295D01*
X197175237Y-74465295D02*
X197127618Y-74370057D01*
X197127618Y-74370057D02*
X197079999Y-74322438D01*
X197079999Y-74322438D02*
X196984761Y-74274819D01*
X196318094Y-75274819D02*
X195794285Y-74608152D01*
X196318094Y-74608152D02*
X195794285Y-75274819D01*
X194984761Y-74608152D02*
X194984761Y-75274819D01*
X195222856Y-74227200D02*
X195460951Y-74941485D01*
X195460951Y-74941485D02*
X194841904Y-74941485D01*
X194413332Y-75274819D02*
X194222856Y-75274819D01*
X194222856Y-75274819D02*
X194127618Y-75227200D01*
X194127618Y-75227200D02*
X194079999Y-75179580D01*
X194079999Y-75179580D02*
X193984761Y-75036723D01*
X193984761Y-75036723D02*
X193937142Y-74846247D01*
X193937142Y-74846247D02*
X193937142Y-74465295D01*
X193937142Y-74465295D02*
X193984761Y-74370057D01*
X193984761Y-74370057D02*
X194032380Y-74322438D01*
X194032380Y-74322438D02*
X194127618Y-74274819D01*
X194127618Y-74274819D02*
X194318094Y-74274819D01*
X194318094Y-74274819D02*
X194413332Y-74322438D01*
X194413332Y-74322438D02*
X194460951Y-74370057D01*
X194460951Y-74370057D02*
X194508570Y-74465295D01*
X194508570Y-74465295D02*
X194508570Y-74703390D01*
X194508570Y-74703390D02*
X194460951Y-74798628D01*
X194460951Y-74798628D02*
X194413332Y-74846247D01*
X194413332Y-74846247D02*
X194318094Y-74893866D01*
X194318094Y-74893866D02*
X194127618Y-74893866D01*
X194127618Y-74893866D02*
X194032380Y-74846247D01*
X194032380Y-74846247D02*
X193984761Y-74798628D01*
X193984761Y-74798628D02*
X193937142Y-74703390D01*
X196964761Y-71754819D02*
X196869523Y-71754819D01*
X196869523Y-71754819D02*
X196774285Y-71802438D01*
X196774285Y-71802438D02*
X196726666Y-71850057D01*
X196726666Y-71850057D02*
X196679047Y-71945295D01*
X196679047Y-71945295D02*
X196631428Y-72135771D01*
X196631428Y-72135771D02*
X196631428Y-72373866D01*
X196631428Y-72373866D02*
X196679047Y-72564342D01*
X196679047Y-72564342D02*
X196726666Y-72659580D01*
X196726666Y-72659580D02*
X196774285Y-72707200D01*
X196774285Y-72707200D02*
X196869523Y-72754819D01*
X196869523Y-72754819D02*
X196964761Y-72754819D01*
X196964761Y-72754819D02*
X197059999Y-72707200D01*
X197059999Y-72707200D02*
X197107618Y-72659580D01*
X197107618Y-72659580D02*
X197155237Y-72564342D01*
X197155237Y-72564342D02*
X197202856Y-72373866D01*
X197202856Y-72373866D02*
X197202856Y-72135771D01*
X197202856Y-72135771D02*
X197155237Y-71945295D01*
X197155237Y-71945295D02*
X197107618Y-71850057D01*
X197107618Y-71850057D02*
X197059999Y-71802438D01*
X197059999Y-71802438D02*
X196964761Y-71754819D01*
X196298094Y-72754819D02*
X195774285Y-72088152D01*
X196298094Y-72088152D02*
X195774285Y-72754819D01*
X194964761Y-72088152D02*
X194964761Y-72754819D01*
X195202856Y-71707200D02*
X195440951Y-72421485D01*
X195440951Y-72421485D02*
X194821904Y-72421485D01*
X194298094Y-72183390D02*
X194393332Y-72135771D01*
X194393332Y-72135771D02*
X194440951Y-72088152D01*
X194440951Y-72088152D02*
X194488570Y-71992914D01*
X194488570Y-71992914D02*
X194488570Y-71945295D01*
X194488570Y-71945295D02*
X194440951Y-71850057D01*
X194440951Y-71850057D02*
X194393332Y-71802438D01*
X194393332Y-71802438D02*
X194298094Y-71754819D01*
X194298094Y-71754819D02*
X194107618Y-71754819D01*
X194107618Y-71754819D02*
X194012380Y-71802438D01*
X194012380Y-71802438D02*
X193964761Y-71850057D01*
X193964761Y-71850057D02*
X193917142Y-71945295D01*
X193917142Y-71945295D02*
X193917142Y-71992914D01*
X193917142Y-71992914D02*
X193964761Y-72088152D01*
X193964761Y-72088152D02*
X194012380Y-72135771D01*
X194012380Y-72135771D02*
X194107618Y-72183390D01*
X194107618Y-72183390D02*
X194298094Y-72183390D01*
X194298094Y-72183390D02*
X194393332Y-72231009D01*
X194393332Y-72231009D02*
X194440951Y-72278628D01*
X194440951Y-72278628D02*
X194488570Y-72373866D01*
X194488570Y-72373866D02*
X194488570Y-72564342D01*
X194488570Y-72564342D02*
X194440951Y-72659580D01*
X194440951Y-72659580D02*
X194393332Y-72707200D01*
X194393332Y-72707200D02*
X194298094Y-72754819D01*
X194298094Y-72754819D02*
X194107618Y-72754819D01*
X194107618Y-72754819D02*
X194012380Y-72707200D01*
X194012380Y-72707200D02*
X193964761Y-72659580D01*
X193964761Y-72659580D02*
X193917142Y-72564342D01*
X193917142Y-72564342D02*
X193917142Y-72373866D01*
X193917142Y-72373866D02*
X193964761Y-72278628D01*
X193964761Y-72278628D02*
X194012380Y-72231009D01*
X194012380Y-72231009D02*
X194107618Y-72183390D01*
X198515000Y-49387735D02*
X198550714Y-49423450D01*
X198550714Y-49423450D02*
X198657857Y-49459164D01*
X198657857Y-49459164D02*
X198729285Y-49459164D01*
X198729285Y-49459164D02*
X198836428Y-49423450D01*
X198836428Y-49423450D02*
X198907857Y-49352021D01*
X198907857Y-49352021D02*
X198943571Y-49280592D01*
X198943571Y-49280592D02*
X198979285Y-49137735D01*
X198979285Y-49137735D02*
X198979285Y-49030592D01*
X198979285Y-49030592D02*
X198943571Y-48887735D01*
X198943571Y-48887735D02*
X198907857Y-48816307D01*
X198907857Y-48816307D02*
X198836428Y-48744878D01*
X198836428Y-48744878D02*
X198729285Y-48709164D01*
X198729285Y-48709164D02*
X198657857Y-48709164D01*
X198657857Y-48709164D02*
X198550714Y-48744878D01*
X198550714Y-48744878D02*
X198515000Y-48780592D01*
X197800714Y-49459164D02*
X198229285Y-49459164D01*
X198015000Y-49459164D02*
X198015000Y-48709164D01*
X198015000Y-48709164D02*
X198086428Y-48816307D01*
X198086428Y-48816307D02*
X198157857Y-48887735D01*
X198157857Y-48887735D02*
X198229285Y-48923450D01*
X212014819Y-55663333D02*
X211538628Y-55330000D01*
X212014819Y-55091905D02*
X211014819Y-55091905D01*
X211014819Y-55091905D02*
X211014819Y-55472857D01*
X211014819Y-55472857D02*
X211062438Y-55568095D01*
X211062438Y-55568095D02*
X211110057Y-55615714D01*
X211110057Y-55615714D02*
X211205295Y-55663333D01*
X211205295Y-55663333D02*
X211348152Y-55663333D01*
X211348152Y-55663333D02*
X211443390Y-55615714D01*
X211443390Y-55615714D02*
X211491009Y-55568095D01*
X211491009Y-55568095D02*
X211538628Y-55472857D01*
X211538628Y-55472857D02*
X211538628Y-55091905D01*
X211110057Y-56044286D02*
X211062438Y-56091905D01*
X211062438Y-56091905D02*
X211014819Y-56187143D01*
X211014819Y-56187143D02*
X211014819Y-56425238D01*
X211014819Y-56425238D02*
X211062438Y-56520476D01*
X211062438Y-56520476D02*
X211110057Y-56568095D01*
X211110057Y-56568095D02*
X211205295Y-56615714D01*
X211205295Y-56615714D02*
X211300533Y-56615714D01*
X211300533Y-56615714D02*
X211443390Y-56568095D01*
X211443390Y-56568095D02*
X212014819Y-55996667D01*
X212014819Y-55996667D02*
X212014819Y-56615714D01*
X215409585Y-63373173D02*
X215409585Y-62908887D01*
X215409585Y-62908887D02*
X215123871Y-63158887D01*
X215123871Y-63158887D02*
X215123871Y-63051744D01*
X215123871Y-63051744D02*
X215088157Y-62980316D01*
X215088157Y-62980316D02*
X215052442Y-62944601D01*
X215052442Y-62944601D02*
X214981014Y-62908887D01*
X214981014Y-62908887D02*
X214802442Y-62908887D01*
X214802442Y-62908887D02*
X214731014Y-62944601D01*
X214731014Y-62944601D02*
X214695300Y-62980316D01*
X214695300Y-62980316D02*
X214659585Y-63051744D01*
X214659585Y-63051744D02*
X214659585Y-63266030D01*
X214659585Y-63266030D02*
X214695300Y-63337458D01*
X214695300Y-63337458D02*
X214731014Y-63373173D01*
X215159585Y-62658887D02*
X214659585Y-62480315D01*
X214659585Y-62480315D02*
X215159585Y-62301744D01*
X215409585Y-62087458D02*
X215409585Y-61623172D01*
X215409585Y-61623172D02*
X215123871Y-61873172D01*
X215123871Y-61873172D02*
X215123871Y-61766029D01*
X215123871Y-61766029D02*
X215088157Y-61694601D01*
X215088157Y-61694601D02*
X215052442Y-61658886D01*
X215052442Y-61658886D02*
X214981014Y-61623172D01*
X214981014Y-61623172D02*
X214802442Y-61623172D01*
X214802442Y-61623172D02*
X214731014Y-61658886D01*
X214731014Y-61658886D02*
X214695300Y-61694601D01*
X214695300Y-61694601D02*
X214659585Y-61766029D01*
X214659585Y-61766029D02*
X214659585Y-61980315D01*
X214659585Y-61980315D02*
X214695300Y-62051743D01*
X214695300Y-62051743D02*
X214731014Y-62087458D01*
G36*
X207557819Y-69225746D02*
G01*
X206185891Y-69225746D01*
X206185891Y-68473446D01*
X206297002Y-68473446D01*
X206298260Y-68478058D01*
X206298260Y-68482839D01*
X206302077Y-68492054D01*
X206304702Y-68501678D01*
X206307629Y-68505458D01*
X206309459Y-68509875D01*
X206316509Y-68516925D01*
X206322619Y-68524815D01*
X206328751Y-68529167D01*
X206330151Y-68530567D01*
X206331525Y-68531136D01*
X206334609Y-68533325D01*
X207089402Y-68964635D01*
X206371819Y-68964635D01*
X206357187Y-68966076D01*
X206330151Y-68977275D01*
X206309459Y-68997967D01*
X206298260Y-69025003D01*
X206298260Y-69054267D01*
X206309459Y-69081303D01*
X206330151Y-69101995D01*
X206357187Y-69113194D01*
X206371819Y-69114635D01*
X207371819Y-69114635D01*
X207375582Y-69114264D01*
X207377058Y-69114452D01*
X207378968Y-69113930D01*
X207386451Y-69113194D01*
X207395666Y-69109376D01*
X207405290Y-69106752D01*
X207409070Y-69103824D01*
X207413487Y-69101995D01*
X207420537Y-69094944D01*
X207428427Y-69088835D01*
X207430800Y-69084681D01*
X207434179Y-69081303D01*
X207437995Y-69072090D01*
X207442946Y-69063426D01*
X207443548Y-69058682D01*
X207445378Y-69054267D01*
X207445378Y-69044292D01*
X207446636Y-69034396D01*
X207445378Y-69029783D01*
X207445378Y-69025003D01*
X207441560Y-69015786D01*
X207438936Y-69006165D01*
X207436009Y-69002385D01*
X207434179Y-68997967D01*
X207427127Y-68990915D01*
X207421019Y-68983027D01*
X207414884Y-68978672D01*
X207413487Y-68977275D01*
X207412114Y-68976706D01*
X207409030Y-68974517D01*
X206654236Y-68543207D01*
X207371819Y-68543207D01*
X207386451Y-68541766D01*
X207413487Y-68530567D01*
X207434179Y-68509875D01*
X207445378Y-68482839D01*
X207445378Y-68453575D01*
X207434179Y-68426539D01*
X207413487Y-68405847D01*
X207386451Y-68394648D01*
X207371819Y-68393207D01*
X206371819Y-68393207D01*
X206368055Y-68393577D01*
X206366580Y-68393390D01*
X206364669Y-68393911D01*
X206357187Y-68394648D01*
X206347971Y-68398465D01*
X206338348Y-68401090D01*
X206334567Y-68404017D01*
X206330151Y-68405847D01*
X206323100Y-68412897D01*
X206315211Y-68419007D01*
X206312837Y-68423160D01*
X206309459Y-68426539D01*
X206305642Y-68435751D01*
X206300692Y-68444416D01*
X206300089Y-68449159D01*
X206298260Y-68453575D01*
X206298260Y-68463549D01*
X206297002Y-68473446D01*
X206185891Y-68473446D01*
X206185891Y-67977385D01*
X206298260Y-67977385D01*
X206298260Y-68006649D01*
X206309459Y-68033685D01*
X206330151Y-68054377D01*
X206357187Y-68065576D01*
X206371819Y-68067017D01*
X207371819Y-68067017D01*
X207386451Y-68065576D01*
X207413487Y-68054377D01*
X207434179Y-68033685D01*
X207445378Y-68006649D01*
X207445378Y-67977385D01*
X207434179Y-67950349D01*
X207413487Y-67929657D01*
X207386451Y-67918458D01*
X207371819Y-67917017D01*
X206371819Y-67917017D01*
X206357187Y-67918458D01*
X206330151Y-67929657D01*
X206309459Y-67950349D01*
X206298260Y-67977385D01*
X206185891Y-67977385D01*
X206185891Y-66215480D01*
X206298260Y-66215480D01*
X206298260Y-66244744D01*
X206309459Y-66271780D01*
X206330151Y-66292472D01*
X206357187Y-66303671D01*
X206371819Y-66305112D01*
X206762181Y-66305112D01*
X206318786Y-66748507D01*
X206309459Y-66759872D01*
X206298260Y-66786909D01*
X206298260Y-66816171D01*
X206309459Y-66843208D01*
X206330151Y-66863900D01*
X206357188Y-66875099D01*
X206386450Y-66875099D01*
X206413487Y-66863900D01*
X206424852Y-66854573D01*
X206807427Y-66471997D01*
X207326819Y-66861540D01*
X207339389Y-66869167D01*
X207367738Y-66876429D01*
X207396706Y-66872290D01*
X207421887Y-66857381D01*
X207439446Y-66833970D01*
X207446708Y-66805622D01*
X207442570Y-66776653D01*
X207427660Y-66751472D01*
X207416819Y-66741540D01*
X206914570Y-66364854D01*
X206974313Y-66305112D01*
X207371819Y-66305112D01*
X207386451Y-66303671D01*
X207413487Y-66292472D01*
X207434179Y-66271780D01*
X207445378Y-66244744D01*
X207445378Y-66215480D01*
X207434179Y-66188444D01*
X207413487Y-66167752D01*
X207386451Y-66156553D01*
X207371819Y-66155112D01*
X206371819Y-66155112D01*
X206357187Y-66156553D01*
X206330151Y-66167752D01*
X206309459Y-66188444D01*
X206298260Y-66215480D01*
X206185891Y-66215480D01*
X206185891Y-65739290D01*
X206298260Y-65739290D01*
X206298260Y-65768554D01*
X206309459Y-65795590D01*
X206330151Y-65816282D01*
X206357187Y-65827481D01*
X206371819Y-65828922D01*
X207371819Y-65828922D01*
X207386451Y-65827481D01*
X207413487Y-65816282D01*
X207434179Y-65795590D01*
X207445378Y-65768554D01*
X207445378Y-65739290D01*
X207434179Y-65712254D01*
X207413487Y-65691562D01*
X207386451Y-65680363D01*
X207371819Y-65678922D01*
X206371819Y-65678922D01*
X206357187Y-65680363D01*
X206330151Y-65691562D01*
X206309459Y-65712254D01*
X206298260Y-65739290D01*
X206185891Y-65739290D01*
X206185891Y-64744542D01*
X206297408Y-64744542D01*
X206299483Y-64773732D01*
X206312569Y-64799905D01*
X206334676Y-64819079D01*
X206348102Y-64825073D01*
X207134648Y-65087255D01*
X206348102Y-65349437D01*
X206334676Y-65355431D01*
X206312569Y-65374605D01*
X206299483Y-65400778D01*
X206297408Y-65429968D01*
X206306662Y-65457731D01*
X206325836Y-65479838D01*
X206352009Y-65492924D01*
X206381199Y-65494999D01*
X206395536Y-65491739D01*
X207395536Y-65158406D01*
X207408961Y-65152412D01*
X207413008Y-65148901D01*
X207417802Y-65146505D01*
X207423966Y-65139397D01*
X207431068Y-65133238D01*
X207433463Y-65128446D01*
X207436976Y-65124397D01*
X207439950Y-65115474D01*
X207444155Y-65107065D01*
X207444534Y-65101720D01*
X207446230Y-65096635D01*
X207445563Y-65087255D01*
X207446230Y-65077875D01*
X207444534Y-65072789D01*
X207444155Y-65067445D01*
X207439950Y-65059035D01*
X207436976Y-65050113D01*
X207433463Y-65046063D01*
X207431068Y-65041272D01*
X207423966Y-65035112D01*
X207417802Y-65028005D01*
X207413008Y-65025608D01*
X207408961Y-65022098D01*
X207395536Y-65016104D01*
X206395536Y-64682771D01*
X206381199Y-64679511D01*
X206352009Y-64681586D01*
X206325836Y-64694672D01*
X206306662Y-64716779D01*
X206297408Y-64744542D01*
X206185891Y-64744542D01*
X206185891Y-64568400D01*
X207557819Y-64568400D01*
X207557819Y-69225746D01*
G37*
X210084819Y-55673333D02*
X209608628Y-55340000D01*
X210084819Y-55101905D02*
X209084819Y-55101905D01*
X209084819Y-55101905D02*
X209084819Y-55482857D01*
X209084819Y-55482857D02*
X209132438Y-55578095D01*
X209132438Y-55578095D02*
X209180057Y-55625714D01*
X209180057Y-55625714D02*
X209275295Y-55673333D01*
X209275295Y-55673333D02*
X209418152Y-55673333D01*
X209418152Y-55673333D02*
X209513390Y-55625714D01*
X209513390Y-55625714D02*
X209561009Y-55578095D01*
X209561009Y-55578095D02*
X209608628Y-55482857D01*
X209608628Y-55482857D02*
X209608628Y-55101905D01*
X209084819Y-56006667D02*
X209084819Y-56625714D01*
X209084819Y-56625714D02*
X209465771Y-56292381D01*
X209465771Y-56292381D02*
X209465771Y-56435238D01*
X209465771Y-56435238D02*
X209513390Y-56530476D01*
X209513390Y-56530476D02*
X209561009Y-56578095D01*
X209561009Y-56578095D02*
X209656247Y-56625714D01*
X209656247Y-56625714D02*
X209894342Y-56625714D01*
X209894342Y-56625714D02*
X209989580Y-56578095D01*
X209989580Y-56578095D02*
X210037200Y-56530476D01*
X210037200Y-56530476D02*
X210084819Y-56435238D01*
X210084819Y-56435238D02*
X210084819Y-56149524D01*
X210084819Y-56149524D02*
X210037200Y-56054286D01*
X210037200Y-56054286D02*
X209989580Y-56006667D01*
X198746666Y-48114819D02*
X199079999Y-47638628D01*
X199318094Y-48114819D02*
X199318094Y-47114819D01*
X199318094Y-47114819D02*
X198937142Y-47114819D01*
X198937142Y-47114819D02*
X198841904Y-47162438D01*
X198841904Y-47162438D02*
X198794285Y-47210057D01*
X198794285Y-47210057D02*
X198746666Y-47305295D01*
X198746666Y-47305295D02*
X198746666Y-47448152D01*
X198746666Y-47448152D02*
X198794285Y-47543390D01*
X198794285Y-47543390D02*
X198841904Y-47591009D01*
X198841904Y-47591009D02*
X198937142Y-47638628D01*
X198937142Y-47638628D02*
X199318094Y-47638628D01*
X197889523Y-47448152D02*
X197889523Y-48114819D01*
X198127618Y-47067200D02*
X198365713Y-47781485D01*
X198365713Y-47781485D02*
X197746666Y-47781485D01*
X193415000Y-71097735D02*
X193450714Y-71133450D01*
X193450714Y-71133450D02*
X193557857Y-71169164D01*
X193557857Y-71169164D02*
X193629285Y-71169164D01*
X193629285Y-71169164D02*
X193736428Y-71133450D01*
X193736428Y-71133450D02*
X193807857Y-71062021D01*
X193807857Y-71062021D02*
X193843571Y-70990592D01*
X193843571Y-70990592D02*
X193879285Y-70847735D01*
X193879285Y-70847735D02*
X193879285Y-70740592D01*
X193879285Y-70740592D02*
X193843571Y-70597735D01*
X193843571Y-70597735D02*
X193807857Y-70526307D01*
X193807857Y-70526307D02*
X193736428Y-70454878D01*
X193736428Y-70454878D02*
X193629285Y-70419164D01*
X193629285Y-70419164D02*
X193557857Y-70419164D01*
X193557857Y-70419164D02*
X193450714Y-70454878D01*
X193450714Y-70454878D02*
X193415000Y-70490592D01*
X193129285Y-70490592D02*
X193093571Y-70454878D01*
X193093571Y-70454878D02*
X193022143Y-70419164D01*
X193022143Y-70419164D02*
X192843571Y-70419164D01*
X192843571Y-70419164D02*
X192772143Y-70454878D01*
X192772143Y-70454878D02*
X192736428Y-70490592D01*
X192736428Y-70490592D02*
X192700714Y-70562021D01*
X192700714Y-70562021D02*
X192700714Y-70633450D01*
X192700714Y-70633450D02*
X192736428Y-70740592D01*
X192736428Y-70740592D02*
X193165000Y-71169164D01*
X193165000Y-71169164D02*
X192700714Y-71169164D01*
X213904819Y-55593333D02*
X213428628Y-55260000D01*
X213904819Y-55021905D02*
X212904819Y-55021905D01*
X212904819Y-55021905D02*
X212904819Y-55402857D01*
X212904819Y-55402857D02*
X212952438Y-55498095D01*
X212952438Y-55498095D02*
X213000057Y-55545714D01*
X213000057Y-55545714D02*
X213095295Y-55593333D01*
X213095295Y-55593333D02*
X213238152Y-55593333D01*
X213238152Y-55593333D02*
X213333390Y-55545714D01*
X213333390Y-55545714D02*
X213381009Y-55498095D01*
X213381009Y-55498095D02*
X213428628Y-55402857D01*
X213428628Y-55402857D02*
X213428628Y-55021905D01*
X213904819Y-56069524D02*
X213904819Y-56260000D01*
X213904819Y-56260000D02*
X213857200Y-56355238D01*
X213857200Y-56355238D02*
X213809580Y-56402857D01*
X213809580Y-56402857D02*
X213666723Y-56498095D01*
X213666723Y-56498095D02*
X213476247Y-56545714D01*
X213476247Y-56545714D02*
X213095295Y-56545714D01*
X213095295Y-56545714D02*
X213000057Y-56498095D01*
X213000057Y-56498095D02*
X212952438Y-56450476D01*
X212952438Y-56450476D02*
X212904819Y-56355238D01*
X212904819Y-56355238D02*
X212904819Y-56164762D01*
X212904819Y-56164762D02*
X212952438Y-56069524D01*
X212952438Y-56069524D02*
X213000057Y-56021905D01*
X213000057Y-56021905D02*
X213095295Y-55974286D01*
X213095295Y-55974286D02*
X213333390Y-55974286D01*
X213333390Y-55974286D02*
X213428628Y-56021905D01*
X213428628Y-56021905D02*
X213476247Y-56069524D01*
X213476247Y-56069524D02*
X213523866Y-56164762D01*
X213523866Y-56164762D02*
X213523866Y-56355238D01*
X213523866Y-56355238D02*
X213476247Y-56450476D01*
X213476247Y-56450476D02*
X213428628Y-56498095D01*
X213428628Y-56498095D02*
X213333390Y-56545714D01*
X213546666Y-48204819D02*
X213879999Y-47728628D01*
X214118094Y-48204819D02*
X214118094Y-47204819D01*
X214118094Y-47204819D02*
X213737142Y-47204819D01*
X213737142Y-47204819D02*
X213641904Y-47252438D01*
X213641904Y-47252438D02*
X213594285Y-47300057D01*
X213594285Y-47300057D02*
X213546666Y-47395295D01*
X213546666Y-47395295D02*
X213546666Y-47538152D01*
X213546666Y-47538152D02*
X213594285Y-47633390D01*
X213594285Y-47633390D02*
X213641904Y-47681009D01*
X213641904Y-47681009D02*
X213737142Y-47728628D01*
X213737142Y-47728628D02*
X214118094Y-47728628D01*
X212689523Y-47204819D02*
X212879999Y-47204819D01*
X212879999Y-47204819D02*
X212975237Y-47252438D01*
X212975237Y-47252438D02*
X213022856Y-47300057D01*
X213022856Y-47300057D02*
X213118094Y-47442914D01*
X213118094Y-47442914D02*
X213165713Y-47633390D01*
X213165713Y-47633390D02*
X213165713Y-48014342D01*
X213165713Y-48014342D02*
X213118094Y-48109580D01*
X213118094Y-48109580D02*
X213070475Y-48157200D01*
X213070475Y-48157200D02*
X212975237Y-48204819D01*
X212975237Y-48204819D02*
X212784761Y-48204819D01*
X212784761Y-48204819D02*
X212689523Y-48157200D01*
X212689523Y-48157200D02*
X212641904Y-48109580D01*
X212641904Y-48109580D02*
X212594285Y-48014342D01*
X212594285Y-48014342D02*
X212594285Y-47776247D01*
X212594285Y-47776247D02*
X212641904Y-47681009D01*
X212641904Y-47681009D02*
X212689523Y-47633390D01*
X212689523Y-47633390D02*
X212784761Y-47585771D01*
X212784761Y-47585771D02*
X212975237Y-47585771D01*
X212975237Y-47585771D02*
X213070475Y-47633390D01*
X213070475Y-47633390D02*
X213118094Y-47681009D01*
X213118094Y-47681009D02*
X213165713Y-47776247D01*
X205350057Y-51364761D02*
X205302438Y-51269523D01*
X205302438Y-51269523D02*
X205207200Y-51174285D01*
X205207200Y-51174285D02*
X205064342Y-51031428D01*
X205064342Y-51031428D02*
X205016723Y-50936190D01*
X205016723Y-50936190D02*
X205016723Y-50840952D01*
X205254819Y-50888571D02*
X205207200Y-50793333D01*
X205207200Y-50793333D02*
X205111961Y-50698095D01*
X205111961Y-50698095D02*
X204921485Y-50650476D01*
X204921485Y-50650476D02*
X204588152Y-50650476D01*
X204588152Y-50650476D02*
X204397676Y-50698095D01*
X204397676Y-50698095D02*
X204302438Y-50793333D01*
X204302438Y-50793333D02*
X204254819Y-50888571D01*
X204254819Y-50888571D02*
X204254819Y-51079047D01*
X204254819Y-51079047D02*
X204302438Y-51174285D01*
X204302438Y-51174285D02*
X204397676Y-51269523D01*
X204397676Y-51269523D02*
X204588152Y-51317142D01*
X204588152Y-51317142D02*
X204921485Y-51317142D01*
X204921485Y-51317142D02*
X205111961Y-51269523D01*
X205111961Y-51269523D02*
X205207200Y-51174285D01*
X205207200Y-51174285D02*
X205254819Y-51079047D01*
X205254819Y-51079047D02*
X205254819Y-50888571D01*
X205254819Y-52269523D02*
X205254819Y-51698095D01*
X205254819Y-51983809D02*
X204254819Y-51983809D01*
X204254819Y-51983809D02*
X204397676Y-51888571D01*
X204397676Y-51888571D02*
X204492914Y-51793333D01*
X204492914Y-51793333D02*
X204540533Y-51698095D01*
X207094819Y-56003333D02*
X206618628Y-55670000D01*
X207094819Y-55431905D02*
X206094819Y-55431905D01*
X206094819Y-55431905D02*
X206094819Y-55812857D01*
X206094819Y-55812857D02*
X206142438Y-55908095D01*
X206142438Y-55908095D02*
X206190057Y-55955714D01*
X206190057Y-55955714D02*
X206285295Y-56003333D01*
X206285295Y-56003333D02*
X206428152Y-56003333D01*
X206428152Y-56003333D02*
X206523390Y-55955714D01*
X206523390Y-55955714D02*
X206571009Y-55908095D01*
X206571009Y-55908095D02*
X206618628Y-55812857D01*
X206618628Y-55812857D02*
X206618628Y-55431905D01*
X206094819Y-56336667D02*
X206094819Y-57003333D01*
X206094819Y-57003333D02*
X207094819Y-56574762D01*
X208634819Y-55993333D02*
X208158628Y-55660000D01*
X208634819Y-55421905D02*
X207634819Y-55421905D01*
X207634819Y-55421905D02*
X207634819Y-55802857D01*
X207634819Y-55802857D02*
X207682438Y-55898095D01*
X207682438Y-55898095D02*
X207730057Y-55945714D01*
X207730057Y-55945714D02*
X207825295Y-55993333D01*
X207825295Y-55993333D02*
X207968152Y-55993333D01*
X207968152Y-55993333D02*
X208063390Y-55945714D01*
X208063390Y-55945714D02*
X208111009Y-55898095D01*
X208111009Y-55898095D02*
X208158628Y-55802857D01*
X208158628Y-55802857D02*
X208158628Y-55421905D01*
X208063390Y-56564762D02*
X208015771Y-56469524D01*
X208015771Y-56469524D02*
X207968152Y-56421905D01*
X207968152Y-56421905D02*
X207872914Y-56374286D01*
X207872914Y-56374286D02*
X207825295Y-56374286D01*
X207825295Y-56374286D02*
X207730057Y-56421905D01*
X207730057Y-56421905D02*
X207682438Y-56469524D01*
X207682438Y-56469524D02*
X207634819Y-56564762D01*
X207634819Y-56564762D02*
X207634819Y-56755238D01*
X207634819Y-56755238D02*
X207682438Y-56850476D01*
X207682438Y-56850476D02*
X207730057Y-56898095D01*
X207730057Y-56898095D02*
X207825295Y-56945714D01*
X207825295Y-56945714D02*
X207872914Y-56945714D01*
X207872914Y-56945714D02*
X207968152Y-56898095D01*
X207968152Y-56898095D02*
X208015771Y-56850476D01*
X208015771Y-56850476D02*
X208063390Y-56755238D01*
X208063390Y-56755238D02*
X208063390Y-56564762D01*
X208063390Y-56564762D02*
X208111009Y-56469524D01*
X208111009Y-56469524D02*
X208158628Y-56421905D01*
X208158628Y-56421905D02*
X208253866Y-56374286D01*
X208253866Y-56374286D02*
X208444342Y-56374286D01*
X208444342Y-56374286D02*
X208539580Y-56421905D01*
X208539580Y-56421905D02*
X208587200Y-56469524D01*
X208587200Y-56469524D02*
X208634819Y-56564762D01*
X208634819Y-56564762D02*
X208634819Y-56755238D01*
X208634819Y-56755238D02*
X208587200Y-56850476D01*
X208587200Y-56850476D02*
X208539580Y-56898095D01*
X208539580Y-56898095D02*
X208444342Y-56945714D01*
X208444342Y-56945714D02*
X208253866Y-56945714D01*
X208253866Y-56945714D02*
X208158628Y-56898095D01*
X208158628Y-56898095D02*
X208111009Y-56850476D01*
X208111009Y-56850476D02*
X208063390Y-56755238D01*
X194281428Y-63431664D02*
X194281428Y-64038807D01*
X194281428Y-64038807D02*
X194245714Y-64110235D01*
X194245714Y-64110235D02*
X194210000Y-64145950D01*
X194210000Y-64145950D02*
X194138571Y-64181664D01*
X194138571Y-64181664D02*
X193995714Y-64181664D01*
X193995714Y-64181664D02*
X193924285Y-64145950D01*
X193924285Y-64145950D02*
X193888571Y-64110235D01*
X193888571Y-64110235D02*
X193852857Y-64038807D01*
X193852857Y-64038807D02*
X193852857Y-63431664D01*
X193102857Y-64181664D02*
X193531428Y-64181664D01*
X193317143Y-64181664D02*
X193317143Y-63431664D01*
X193317143Y-63431664D02*
X193388571Y-63538807D01*
X193388571Y-63538807D02*
X193460000Y-63610235D01*
X193460000Y-63610235D02*
X193531428Y-63645950D01*
X213375000Y-49607735D02*
X213410714Y-49643450D01*
X213410714Y-49643450D02*
X213517857Y-49679164D01*
X213517857Y-49679164D02*
X213589285Y-49679164D01*
X213589285Y-49679164D02*
X213696428Y-49643450D01*
X213696428Y-49643450D02*
X213767857Y-49572021D01*
X213767857Y-49572021D02*
X213803571Y-49500592D01*
X213803571Y-49500592D02*
X213839285Y-49357735D01*
X213839285Y-49357735D02*
X213839285Y-49250592D01*
X213839285Y-49250592D02*
X213803571Y-49107735D01*
X213803571Y-49107735D02*
X213767857Y-49036307D01*
X213767857Y-49036307D02*
X213696428Y-48964878D01*
X213696428Y-48964878D02*
X213589285Y-48929164D01*
X213589285Y-48929164D02*
X213517857Y-48929164D01*
X213517857Y-48929164D02*
X213410714Y-48964878D01*
X213410714Y-48964878D02*
X213375000Y-49000592D01*
X213125000Y-48929164D02*
X212660714Y-48929164D01*
X212660714Y-48929164D02*
X212910714Y-49214878D01*
X212910714Y-49214878D02*
X212803571Y-49214878D01*
X212803571Y-49214878D02*
X212732143Y-49250592D01*
X212732143Y-49250592D02*
X212696428Y-49286307D01*
X212696428Y-49286307D02*
X212660714Y-49357735D01*
X212660714Y-49357735D02*
X212660714Y-49536307D01*
X212660714Y-49536307D02*
X212696428Y-49607735D01*
X212696428Y-49607735D02*
X212732143Y-49643450D01*
X212732143Y-49643450D02*
X212803571Y-49679164D01*
X212803571Y-49679164D02*
X213017857Y-49679164D01*
X213017857Y-49679164D02*
X213089285Y-49643450D01*
X213089285Y-49643450D02*
X213125000Y-49607735D01*
X203773333Y-57504819D02*
X203773333Y-58219104D01*
X203773333Y-58219104D02*
X203820952Y-58361961D01*
X203820952Y-58361961D02*
X203916190Y-58457200D01*
X203916190Y-58457200D02*
X204059047Y-58504819D01*
X204059047Y-58504819D02*
X204154285Y-58504819D01*
X203344761Y-57600057D02*
X203297142Y-57552438D01*
X203297142Y-57552438D02*
X203201904Y-57504819D01*
X203201904Y-57504819D02*
X202963809Y-57504819D01*
X202963809Y-57504819D02*
X202868571Y-57552438D01*
X202868571Y-57552438D02*
X202820952Y-57600057D01*
X202820952Y-57600057D02*
X202773333Y-57695295D01*
X202773333Y-57695295D02*
X202773333Y-57790533D01*
X202773333Y-57790533D02*
X202820952Y-57933390D01*
X202820952Y-57933390D02*
X203392380Y-58504819D01*
X203392380Y-58504819D02*
X202773333Y-58504819D01*
D10*
%TO.C,JP4*%
X197430000Y-79570000D02*
X197430000Y-80170000D01*
X198130000Y-80870000D02*
X199530000Y-80870000D01*
X199530000Y-78870000D02*
X198130000Y-78870000D01*
X200230000Y-80170000D02*
X200230000Y-79570000D01*
X198130000Y-80870000D02*
G75*
G02*
X197430000Y-80170000I-1J699999D01*
G01*
X197430000Y-79570000D02*
G75*
G02*
X198130000Y-78870000I699999J1D01*
G01*
X200230000Y-80170000D02*
G75*
G02*
X199530000Y-80870000I-700000J0D01*
G01*
X199530000Y-78870000D02*
G75*
G02*
X200230000Y-79570000I0J-700000D01*
G01*
%TO.C,JP3*%
X197430000Y-77070000D02*
X197430000Y-77670000D01*
X198130000Y-78370000D02*
X199530000Y-78370000D01*
X199530000Y-76370000D02*
X198130000Y-76370000D01*
X200230000Y-77670000D02*
X200230000Y-77070000D01*
X198130000Y-78370000D02*
G75*
G02*
X197430000Y-77670000I-1J699999D01*
G01*
X197430000Y-77070000D02*
G75*
G02*
X198130000Y-76370000I699999J1D01*
G01*
X200230000Y-77670000D02*
G75*
G02*
X199530000Y-78370000I-700000J0D01*
G01*
X199530000Y-76370000D02*
G75*
G02*
X200230000Y-77070000I0J-700000D01*
G01*
%TO.C,JP2*%
X197430000Y-74570000D02*
X197430000Y-75170000D01*
X198130000Y-75870000D02*
X199530000Y-75870000D01*
X199530000Y-73870000D02*
X198130000Y-73870000D01*
X200230000Y-75170000D02*
X200230000Y-74570000D01*
X198130000Y-75870000D02*
G75*
G02*
X197430000Y-75170000I-1J699999D01*
G01*
X197430000Y-74570000D02*
G75*
G02*
X198130000Y-73870000I699999J1D01*
G01*
X200230000Y-75170000D02*
G75*
G02*
X199530000Y-75870000I-700000J0D01*
G01*
X199530000Y-73870000D02*
G75*
G02*
X200230000Y-74570000I0J-700000D01*
G01*
%TO.C,JP1*%
X200230000Y-72660000D02*
X200230000Y-72060000D01*
X199530000Y-71360000D02*
X198130000Y-71360000D01*
X198130000Y-73360000D02*
X199530000Y-73360000D01*
X197430000Y-72060000D02*
X197430000Y-72660000D01*
X199530000Y-71360000D02*
G75*
G02*
X200230000Y-72060000I1J-699999D01*
G01*
X200230000Y-72660000D02*
G75*
G02*
X199530000Y-73360000I-699999J-1D01*
G01*
X197430000Y-72060000D02*
G75*
G02*
X198130000Y-71360000I700000J0D01*
G01*
X198130000Y-73360000D02*
G75*
G02*
X197430000Y-72660000I0J700000D01*
G01*
%TO.C,C1*%
X196275580Y-48600000D02*
X195994420Y-48600000D01*
X196275580Y-49620000D02*
X195994420Y-49620000D01*
%TO.C,R2*%
X210745000Y-58202936D02*
X210745000Y-58657064D01*
X212215000Y-58202936D02*
X212215000Y-58657064D01*
D12*
%TO.C,J1*%
X207877000Y-61210000D02*
X207877000Y-72210000D01*
X207877000Y-61210000D02*
X210260000Y-61210000D01*
X207877000Y-72210000D02*
X210260000Y-72210000D01*
X212711000Y-61210000D02*
X214372000Y-61210000D01*
X212711000Y-72210000D02*
X214372000Y-72210000D01*
X214372000Y-61210000D02*
X214372000Y-63579000D01*
X214372000Y-72210000D02*
X214372000Y-69841000D01*
X215007000Y-70139000D02*
G75*
G02*
X214753000Y-70139000I-127000J0D01*
G01*
X214753000Y-70139000D02*
G75*
G02*
X215007000Y-70139000I127000J0D01*
G01*
D10*
%TO.C,R3*%
X208785000Y-58212936D02*
X208785000Y-58667064D01*
X210255000Y-58212936D02*
X210255000Y-58667064D01*
%TO.C,R4*%
X195902742Y-47067500D02*
X196377258Y-47067500D01*
X195902742Y-48112500D02*
X196377258Y-48112500D01*
%TO.C,C2*%
X195239420Y-70280000D02*
X195520580Y-70280000D01*
X195239420Y-71300000D02*
X195520580Y-71300000D01*
D13*
%TO.C,H1*%
X198340700Y-53744200D02*
G75*
G02*
X191840900Y-53744200I-3249900J0D01*
G01*
X191840900Y-53744200D02*
G75*
G02*
X198340700Y-53744200I3249900J0D01*
G01*
D10*
%TO.C,R9*%
X212705000Y-58202936D02*
X212705000Y-58657064D01*
X214175000Y-58202936D02*
X214175000Y-58657064D01*
%TO.C,R6*%
X210682742Y-47147500D02*
X211157258Y-47147500D01*
X210682742Y-48192500D02*
X211157258Y-48192500D01*
%TO.C,Q1*%
X202152500Y-53230000D02*
X202152500Y-52580000D01*
X202152500Y-53230000D02*
X202152500Y-53880000D01*
X205272500Y-53230000D02*
X205272500Y-52580000D01*
X205272500Y-53230000D02*
X205272500Y-53880000D01*
X205552500Y-54632500D02*
X205222500Y-54392500D01*
X205552500Y-54152500D01*
X205552500Y-54632500D01*
G36*
X205552500Y-54632500D02*
G01*
X205222500Y-54392500D01*
X205552500Y-54152500D01*
X205552500Y-54632500D01*
G37*
D13*
%TO.C,H4*%
X215106500Y-79490800D02*
G75*
G02*
X208606700Y-79490800I-3249900J0D01*
G01*
X208606700Y-79490800D02*
G75*
G02*
X215106500Y-79490800I3249900J0D01*
G01*
D10*
%TO.C,R7*%
X206077500Y-53542742D02*
X206077500Y-54017258D01*
X207122500Y-53542742D02*
X207122500Y-54017258D01*
%TO.C,R8*%
X207607500Y-53547742D02*
X207607500Y-54022258D01*
X208652500Y-53547742D02*
X208652500Y-54022258D01*
D11*
%TO.C,U1*%
X193275000Y-65437500D02*
X193275000Y-68687500D01*
X193275000Y-65437500D02*
X193500000Y-65437500D01*
X193275000Y-68687500D02*
X193500000Y-68687500D01*
X196525000Y-65437500D02*
X196300000Y-65437500D01*
X196525000Y-65437500D02*
X196525000Y-68687500D01*
X196525000Y-68687500D02*
X196300000Y-68687500D01*
D10*
X193500000Y-64962500D02*
X193170000Y-65202500D01*
X193170000Y-64722500D01*
X193500000Y-64962500D01*
G36*
X193500000Y-64962500D02*
G01*
X193170000Y-65202500D01*
X193170000Y-64722500D01*
X193500000Y-64962500D01*
G37*
%TO.C,C3*%
X211065580Y-48740000D02*
X210784420Y-48740000D01*
X211065580Y-49760000D02*
X210784420Y-49760000D01*
%TO.C,J2*%
X202060000Y-61700000D02*
X202060000Y-74510000D01*
X204820000Y-59050000D02*
X203440000Y-59050000D01*
X204820000Y-60430000D02*
X204820000Y-59050000D01*
X204820000Y-61700000D02*
X202060000Y-61700000D01*
X204820000Y-61700000D02*
X204820000Y-74510000D01*
X204820000Y-74510000D02*
X202060000Y-74510000D01*
%TD*%
%LPC*%
%TO.C,JP4*%
G36*
X198680000Y-80620000D02*
G01*
X198980000Y-80620000D01*
X198980000Y-79120000D01*
X198680000Y-79120000D01*
X198680000Y-80620000D01*
G37*
%TO.C,JP3*%
G36*
X198680000Y-78120000D02*
G01*
X198980000Y-78120000D01*
X198980000Y-76620000D01*
X198680000Y-76620000D01*
X198680000Y-78120000D01*
G37*
%TO.C,JP2*%
G36*
X198680000Y-75620000D02*
G01*
X198980000Y-75620000D01*
X198980000Y-74120000D01*
X198680000Y-74120000D01*
X198680000Y-75620000D01*
G37*
%TO.C,JP1*%
G36*
X198980000Y-71610000D02*
G01*
X198680000Y-71610000D01*
X198680000Y-73110000D01*
X198980000Y-73110000D01*
X198980000Y-71610000D01*
G37*
%TD*%
D14*
%TO.C,J3*%
X199430000Y-60600000D03*
%TD*%
%TO.C,J4*%
X199430000Y-63840000D03*
%TD*%
D15*
%TO.C,JP4*%
X198180000Y-79870000D03*
D16*
X199480000Y-79870000D03*
%TD*%
D15*
%TO.C,JP3*%
X198180000Y-77370000D03*
D16*
X199480000Y-77370000D03*
%TD*%
D15*
%TO.C,JP2*%
X198180000Y-74870000D03*
D16*
X199480000Y-74870000D03*
%TD*%
D17*
%TO.C,JP1*%
X199480000Y-72360000D03*
D18*
X198180000Y-72360000D03*
%TD*%
D19*
%TO.C,R1*%
X212740000Y-45312500D03*
D20*
X209240000Y-45312500D03*
D21*
X206740000Y-49462500D03*
X215240000Y-50662500D03*
X215240000Y-83462500D03*
X206740000Y-84662500D03*
D20*
X212740000Y-88812500D03*
%TD*%
D19*
%TO.C,R5*%
X197650000Y-45312500D03*
D20*
X194150000Y-45312500D03*
D21*
X191650000Y-49462500D03*
X200150000Y-50662500D03*
X200150000Y-83462500D03*
X191650000Y-84662500D03*
D20*
X197650000Y-88812500D03*
%TD*%
D22*
%TO.C,C1*%
X196910000Y-49110000D03*
X195360000Y-49110000D03*
%TD*%
D23*
%TO.C,R2*%
X211480000Y-57517500D03*
X211480000Y-59342500D03*
%TD*%
D24*
%TO.C,J1*%
X214210000Y-69460000D03*
X214210000Y-68960000D03*
X214210000Y-68460000D03*
X214210000Y-67960000D03*
X214210000Y-67460000D03*
X214210000Y-66960000D03*
X214210000Y-66460000D03*
X214210000Y-65960000D03*
X214210000Y-65460000D03*
X214210000Y-64960000D03*
X214210000Y-64460000D03*
X214210000Y-63960000D03*
D25*
X211486000Y-62160000D03*
X211486000Y-71260000D03*
%TD*%
D23*
%TO.C,R3*%
X209520000Y-57527500D03*
X209520000Y-59352500D03*
%TD*%
D26*
%TO.C,R4*%
X195315000Y-47590000D03*
X196965000Y-47590000D03*
%TD*%
D27*
%TO.C,C2*%
X194605000Y-70790000D03*
X196155000Y-70790000D03*
%TD*%
D28*
%TO.C,H1*%
X195090800Y-53744200D03*
D29*
X193477600Y-51600700D03*
D30*
X193484200Y-55913400D03*
D31*
X196724000Y-55908300D03*
D32*
X196710000Y-51570000D03*
%TD*%
D23*
%TO.C,R9*%
X213440000Y-57517500D03*
X213440000Y-59342500D03*
%TD*%
D26*
%TO.C,R6*%
X210095000Y-47670000D03*
X211745000Y-47670000D03*
%TD*%
D33*
%TO.C,Q1*%
X204662500Y-54167500D03*
X202762500Y-54167500D03*
X203712500Y-52292500D03*
%TD*%
D28*
%TO.C,H4*%
X211856600Y-79490800D03*
D29*
X210243400Y-77347300D03*
D30*
X210250000Y-81660000D03*
D31*
X213489800Y-81654900D03*
D32*
X213475800Y-77316600D03*
%TD*%
D34*
%TO.C,R7*%
X206600000Y-52955000D03*
X206600000Y-54605000D03*
%TD*%
%TO.C,R8*%
X208130000Y-52960000D03*
X208130000Y-54610000D03*
%TD*%
D35*
%TO.C,U1*%
X193900000Y-64912500D03*
X194400000Y-64912500D03*
X194900000Y-64912500D03*
X195400000Y-64912500D03*
X195900000Y-64912500D03*
X195900000Y-69212500D03*
X195400000Y-69212500D03*
X194900000Y-69212500D03*
X194400000Y-69212500D03*
X193900000Y-69212500D03*
%TD*%
D22*
%TO.C,C3*%
X211700000Y-49250000D03*
X210150000Y-49250000D03*
%TD*%
D36*
%TO.C,J2*%
X203440000Y-60430000D03*
D37*
X203440000Y-62970000D03*
X203440000Y-65510000D03*
X203440000Y-68050000D03*
X203440000Y-70590000D03*
X203440000Y-73130000D03*
%TD*%
%LPD*%
M02*
