M48
; DRILL file {KiCad 9.0.1} date 2026-07-09T21:46:01-0500
; FORMAT={-:-/ absolute / inch / decimal}
; #@! TF.CreationDate,2026-07-09T21:46:01-05:00
; #@! TF.GenerationSoftware,Kicad,Pcbnew,9.0.1
; #@! TF.FileFunction,Plated,1,2,PTH
FMAT,2
INCH
; #@! TA.AperFunction,Plated,PTH,ViaDrill
T1C0.0118
; #@! TA.AperFunction,Plated,PTH,ComponentDrill
T2C0.0394
; #@! TA.AperFunction,Plated,PTH,ComponentDrill
T3C0.0472
; #@! TA.AperFunction,Plated,PTH,ComponentDrill
T4C0.0669
%
G90
G05
T1
X7.6287Y-1.8965
X7.6681Y-2.4937
X7.674Y-2.6819
X7.7002Y-2.8544
X7.7018Y-2.8229
X7.7134Y-2.6024
X7.7134Y-2.6339
X7.737Y-2.4224
X7.7638Y-2.7874
X7.9039Y-2.8488
X7.9039Y-2.9441
X7.9039Y-3.1469
X7.9043Y-2.6819
X7.9079Y-2.5165
X7.9079Y-3.039
X7.9146Y-2.3886
X7.9173Y-2.7114
X8.072Y-2.3055
X8.0957Y-2.1524
X8.2268Y-1.9079
X8.2953Y-2.5067
X8.3Y-2.6362
X8.3031Y-1.8549
X8.3244Y-2.1512
X8.3571Y-2.5201
X8.4524Y-2.3215
T2
X8.0094Y-2.3791
X8.0094Y-2.4791
X8.0094Y-2.5791
X8.0094Y-2.6791
X8.0094Y-2.7791
X8.0094Y-2.8791
T3
X7.6437Y-1.784
X7.7815Y-1.784
X7.7815Y-3.4966
X8.2378Y-1.784
X8.3756Y-1.784
X8.3756Y-3.4966
T4
X7.5453Y-1.9473
X7.5453Y-3.3332
X7.8799Y-1.9946
X7.8799Y-3.2859
X8.1394Y-1.9473
X8.1394Y-3.3332
X8.474Y-1.9946
X8.474Y-3.2859
M30
