%TF.GenerationSoftware,KiCad,Pcbnew,9.0.1*%
%TF.CreationDate,2026-07-09T21:46:01-05:00*%
%TF.ProjectId,VikFader4530,56696b46-6164-4657-9234-3533302e6b69,rev?*%
%TF.SameCoordinates,Original*%
%TF.FileFunction,Copper,L2,Bot*%
%TF.FilePolarity,Positive*%
%FSLAX46Y46*%
G04 Gerber Fmt 4.6, Leading zero omitted, Abs format (unit mm)*
G04 Created by KiCad (PCBNEW 9.0.1) date 2026-07-09 21:46:01*
%MOMM*%
%LPD*%
G01*
G04 APERTURE LIST*
G04 Aperture macros list*
%AMRoundRect*
0 Rectangle with rounded corners*
0 $1 Rounding radius*
0 $2 $3 $4 $5 $6 $7 $8 $9 X,Y pos of 4 corners*
0 Add a 4 corners polygon primitive as box body*
4,1,4,$2,$3,$4,$5,$6,$7,$8,$9,$2,$3,0*
0 Add four circle primitives for the rounded corners*
1,1,$1+$1,$2,$3*
1,1,$1+$1,$4,$5*
1,1,$1+$1,$6,$7*
1,1,$1+$1,$8,$9*
0 Add four rect primitives between the rounded corners*
20,1,$1+$1,$2,$3,$4,$5,0*
20,1,$1+$1,$4,$5,$6,$7,0*
20,1,$1+$1,$6,$7,$8,$9,0*
20,1,$1+$1,$8,$9,$2,$3,0*%
%AMFreePoly0*
4,1,23,0.500000,-0.750000,0.000000,-0.750000,0.000000,-0.745722,-0.065263,-0.745722,-0.191342,-0.711940,-0.304381,-0.646677,-0.396677,-0.554381,-0.461940,-0.441342,-0.495722,-0.315263,-0.495722,-0.250000,-0.500000,-0.250000,-0.500000,0.250000,-0.495722,0.250000,-0.495722,0.315263,-0.461940,0.441342,-0.396677,0.554381,-0.304381,0.646677,-0.191342,0.711940,-0.065263,0.745722,0.000000,0.745722,
0.000000,0.750000,0.500000,0.750000,0.500000,-0.750000,0.500000,-0.750000,$1*%
%AMFreePoly1*
4,1,23,0.000000,0.745722,0.065263,0.745722,0.191342,0.711940,0.304381,0.646677,0.396677,0.554381,0.461940,0.441342,0.495722,0.315263,0.495722,0.250000,0.500000,0.250000,0.500000,-0.250000,0.495722,-0.250000,0.495722,-0.315263,0.461940,-0.441342,0.396677,-0.554381,0.304381,-0.646677,0.191342,-0.711940,0.065263,-0.745722,0.000000,-0.745722,0.000000,-0.750000,-0.500000,-0.750000,
-0.500000,0.750000,0.000000,0.750000,0.000000,0.745722,0.000000,0.745722,$1*%
%AMFreePoly2*
4,1,25,1.480000,1.677200,1.330000,1.127200,1.210000,0.847200,1.100000,0.627200,0.830000,0.207200,0.470000,-0.152800,0.130000,-0.432800,-0.260000,-0.652800,-0.670000,-0.812800,-0.990000,-0.902800,-1.140000,-0.932800,-1.370000,-0.962800,-1.520000,-0.972800,-1.520000,-0.172800,-1.220000,-0.142800,-0.820000,-0.022800,-0.560000,0.097200,-0.140000,0.357200,0.180000,0.697200,0.400000,1.037200,
0.540000,1.257200,0.670000,1.737200,0.719900,2.067200,1.519900,2.067200,1.480000,1.677200,1.480000,1.677200,$1*%
%AMFreePoly3*
4,1,25,-1.130000,0.936300,-0.580100,0.786300,-0.300000,0.666300,-0.080100,0.556300,0.340000,0.286300,0.700000,-0.073700,0.979900,-0.413700,1.200000,-0.803700,1.359900,-1.213700,1.449900,-1.533700,1.479900,-1.683700,1.510000,-1.913700,1.520000,-2.063600,0.719900,-2.063600,0.689900,-1.763600,0.570000,-1.363600,0.449900,-1.103700,0.189900,-0.683700,-0.150100,-0.363700,-0.490000,-0.143700,
-0.710000,-0.003700,-1.190000,0.126300,-1.520000,0.176300,-1.520000,0.976300,-1.130000,0.936300,-1.130000,0.936300,$1*%
%AMFreePoly4*
4,1,25,1.520100,0.172600,1.220100,0.142600,0.820100,0.022700,0.560100,-0.097400,0.140100,-0.357400,-0.179900,-0.697400,-0.399900,-1.037400,-0.539900,-1.257400,-0.669900,-1.737400,-0.719900,-2.067400,-1.519900,-2.067400,-1.479900,-1.677300,-1.329900,-1.127400,-1.209900,-0.847400,-1.099900,-0.627400,-0.829900,-0.207400,-0.469900,0.152600,-0.129900,0.432600,0.260100,0.652600,0.670100,0.812600,
0.990100,0.902600,1.140100,0.932600,1.370100,0.962600,1.520100,0.972600,1.520100,0.172600,1.520100,0.172600,$1*%
%AMFreePoly5*
4,1,25,-0.690000,1.763600,-0.570000,1.363600,-0.450000,1.103700,-0.190000,0.683700,0.150000,0.363700,0.490000,0.143700,0.710000,0.003700,1.190000,-0.126300,1.520000,-0.176300,1.520000,-0.976300,1.130000,-0.936300,0.580000,-0.786300,0.300000,-0.666300,0.080000,-0.556300,-0.340000,-0.286300,-0.700000,0.073700,-0.980000,0.413700,-1.200000,0.803700,-1.360000,1.213700,-1.450000,1.533700,
-1.480000,1.683700,-1.510000,1.913700,-1.520000,2.063600,-0.720000,2.063600,-0.690000,1.763600,-0.690000,1.763600,$1*%
G04 Aperture macros list end*
%TA.AperFunction,EtchedComponent*%
%ADD10C,0.000000*%
%TD*%
%TA.AperFunction,ConnectorPad*%
%ADD11C,2.000000*%
%TD*%
%TA.AperFunction,SMDPad,CuDef*%
%ADD12FreePoly0,0.000000*%
%TD*%
%TA.AperFunction,SMDPad,CuDef*%
%ADD13FreePoly1,0.000000*%
%TD*%
%TA.AperFunction,SMDPad,CuDef*%
%ADD14FreePoly0,180.000000*%
%TD*%
%TA.AperFunction,SMDPad,CuDef*%
%ADD15FreePoly1,180.000000*%
%TD*%
%TA.AperFunction,ComponentPad*%
%ADD16R,1.800000X1.800000*%
%TD*%
%TA.AperFunction,ComponentPad*%
%ADD17C,1.800000*%
%TD*%
%TA.AperFunction,ComponentPad*%
%ADD18C,2.550000*%
%TD*%
%TA.AperFunction,SMDPad,CuDef*%
%ADD19RoundRect,0.225000X0.225000X0.250000X-0.225000X0.250000X-0.225000X-0.250000X0.225000X-0.250000X0*%
%TD*%
%TA.AperFunction,SMDPad,CuDef*%
%ADD20RoundRect,0.250000X-0.450000X0.262500X-0.450000X-0.262500X0.450000X-0.262500X0.450000X0.262500X0*%
%TD*%
%TA.AperFunction,SMDPad,CuDef*%
%ADD21R,1.250000X0.280000*%
%TD*%
%TA.AperFunction,SMDPad,CuDef*%
%ADD22R,2.000000X1.800000*%
%TD*%
%TA.AperFunction,SMDPad,CuDef*%
%ADD23RoundRect,0.200000X-0.200000X-0.275000X0.200000X-0.275000X0.200000X0.275000X-0.200000X0.275000X0*%
%TD*%
%TA.AperFunction,SMDPad,CuDef*%
%ADD24RoundRect,0.225000X-0.225000X-0.250000X0.225000X-0.250000X0.225000X0.250000X-0.225000X0.250000X0*%
%TD*%
%TA.AperFunction,SMDPad,CuDef*%
%ADD25FreePoly2,180.000000*%
%TD*%
%TA.AperFunction,SMDPad,CuDef*%
%ADD26FreePoly3,180.000000*%
%TD*%
%TA.AperFunction,SMDPad,CuDef*%
%ADD27FreePoly4,180.000000*%
%TD*%
%TA.AperFunction,SMDPad,CuDef*%
%ADD28FreePoly5,180.000000*%
%TD*%
%TA.AperFunction,SMDPad,CuDef*%
%ADD29RoundRect,0.150000X0.150000X-0.587500X0.150000X0.587500X-0.150000X0.587500X-0.150000X-0.587500X0*%
%TD*%
%TA.AperFunction,SMDPad,CuDef*%
%ADD30RoundRect,0.200000X-0.275000X0.200000X-0.275000X-0.200000X0.275000X-0.200000X0.275000X0.200000X0*%
%TD*%
%TA.AperFunction,SMDPad,CuDef*%
%ADD31R,0.250000X1.100000*%
%TD*%
%TA.AperFunction,ComponentPad*%
%ADD32R,1.700000X1.700000*%
%TD*%
%TA.AperFunction,ComponentPad*%
%ADD33C,1.700000*%
%TD*%
%TA.AperFunction,ViaPad*%
%ADD34C,0.600000*%
%TD*%
%TA.AperFunction,Conductor*%
%ADD35C,0.200000*%
%TD*%
G04 APERTURE END LIST*
D10*
%TA.AperFunction,EtchedComponent*%
%TO.C,JP1*%
G36*
X199080000Y-72660000D02*
G01*
X198580000Y-72660000D01*
X198580000Y-72060000D01*
X199080000Y-72060000D01*
X199080000Y-72660000D01*
G37*
%TD.AperFunction*%
%TD*%
D11*
%TO.P,J3,1,Pin_1*%
%TO.N,AIN2*%
X199430000Y-60600000D03*
%TD*%
%TO.P,J4,1,Pin_1*%
%TO.N,AIN3*%
X199430000Y-63840000D03*
%TD*%
D12*
%TO.P,JP4,1,A*%
%TO.N,Net-(JP1-B)*%
X198180000Y-79870000D03*
D13*
%TO.P,JP4,2,B*%
%TO.N,SDA*%
X199480000Y-79870000D03*
%TD*%
D12*
%TO.P,JP3,1,A*%
%TO.N,Net-(JP1-B)*%
X198180000Y-77370000D03*
D13*
%TO.P,JP3,2,B*%
%TO.N,SCL*%
X199480000Y-77370000D03*
%TD*%
D12*
%TO.P,JP2,1,A*%
%TO.N,Net-(JP1-B)*%
X198180000Y-74870000D03*
D13*
%TO.P,JP2,2,B*%
%TO.N,+3V3*%
X199480000Y-74870000D03*
%TD*%
D14*
%TO.P,JP1,1,A*%
%TO.N,GND*%
X199480000Y-72360000D03*
D15*
%TO.P,JP1,2,B*%
%TO.N,Net-(JP1-B)*%
X198180000Y-72360000D03*
%TD*%
D16*
%TO.P,R1,1*%
%TO.N,FET-OUT*%
X212740000Y-45312500D03*
D17*
%TO.P,R1,2*%
%TO.N,POT-OUT1*%
X209240000Y-45312500D03*
D18*
%TO.P,R1,3*%
%TO.N,GND*%
X206740000Y-49462500D03*
X215240000Y-50662500D03*
X215240000Y-83462500D03*
X206740000Y-84662500D03*
D17*
X212740000Y-88812500D03*
%TD*%
D16*
%TO.P,R5,1*%
%TO.N,FET-OUT*%
X197650000Y-45312500D03*
D17*
%TO.P,R5,2*%
%TO.N,POT-OUT0*%
X194150000Y-45312500D03*
D18*
%TO.P,R5,3*%
%TO.N,GND*%
X191650000Y-49462500D03*
X200150000Y-50662500D03*
X200150000Y-83462500D03*
X191650000Y-84662500D03*
D17*
X197650000Y-88812500D03*
%TD*%
D19*
%TO.P,C1,1*%
%TO.N,POT-IN0*%
X196910000Y-49110000D03*
%TO.P,C1,2*%
%TO.N,GND*%
X195360000Y-49110000D03*
%TD*%
D20*
%TO.P,R2,1*%
%TO.N,+3V3*%
X211480000Y-57517500D03*
%TO.P,R2,2*%
%TO.N,SDA*%
X211480000Y-59342500D03*
%TD*%
D21*
%TO.P,J1,1,SCLK*%
%TO.N,SCLK*%
X214210000Y-69460000D03*
%TO.P,J1,2,MISO*%
%TO.N,MISO*%
X214210000Y-68960000D03*
%TO.P,J1,3,SPI_CS*%
%TO.N,CS*%
X214210000Y-68460000D03*
%TO.P,J1,4,GP_AD2*%
%TO.N,GP2*%
X214210000Y-67960000D03*
%TO.P,J1,5,MOSI*%
%TO.N,MOSI*%
X214210000Y-67460000D03*
%TO.P,J1,6,GP_AD1*%
%TO.N,GP1*%
X214210000Y-66960000D03*
%TO.P,J1,7,5V*%
%TO.N,5v*%
X214210000Y-66460000D03*
%TO.P,J1,8,RGB_DO*%
%TO.N,RGB*%
X214210000Y-65960000D03*
%TO.P,J1,9,SCL*%
%TO.N,SCL*%
X214210000Y-65460000D03*
%TO.P,J1,10,SDA*%
%TO.N,SDA*%
X214210000Y-64960000D03*
%TO.P,J1,11,GND*%
%TO.N,GND*%
X214210000Y-64460000D03*
%TO.P,J1,12,3V3*%
%TO.N,+3V3*%
X214210000Y-63960000D03*
D22*
%TO.P,J1,13*%
%TO.N,N/C*%
X211486000Y-62160000D03*
%TO.P,J1,14*%
X211486000Y-71260000D03*
%TD*%
D20*
%TO.P,R3,1*%
%TO.N,+3V3*%
X209520000Y-57527500D03*
%TO.P,R3,2*%
%TO.N,SCL*%
X209520000Y-59352500D03*
%TD*%
D23*
%TO.P,R4,1*%
%TO.N,POT-OUT0*%
X195315000Y-47590000D03*
%TO.P,R4,2*%
%TO.N,POT-IN0*%
X196965000Y-47590000D03*
%TD*%
D24*
%TO.P,C2,1*%
%TO.N,+3V3*%
X194605000Y-70790000D03*
%TO.P,C2,2*%
%TO.N,GND*%
X196155000Y-70790000D03*
%TD*%
D25*
%TO.P,H1,1,1*%
%TO.N,unconnected-(H1-Pad1)*%
X193477600Y-51600700D03*
D26*
%TO.P,H1,2*%
%TO.N,N/C*%
X193484200Y-55913400D03*
D27*
%TO.P,H1,3*%
X196724000Y-55908300D03*
D28*
%TO.P,H1,4*%
X196710000Y-51570000D03*
%TD*%
D20*
%TO.P,R9,1*%
%TO.N,+3V3*%
X213440000Y-57517500D03*
%TO.P,R9,2*%
%TO.N,GP1*%
X213440000Y-59342500D03*
%TD*%
D23*
%TO.P,R6,1*%
%TO.N,POT-OUT1*%
X210095000Y-47670000D03*
%TO.P,R6,2*%
%TO.N,POT-IN1*%
X211745000Y-47670000D03*
%TD*%
D29*
%TO.P,Q1,1,G*%
%TO.N,Net-(Q1-G)*%
X204662500Y-54167500D03*
%TO.P,Q1,2,S*%
%TO.N,+3V3*%
X202762500Y-54167500D03*
%TO.P,Q1,3,D*%
%TO.N,FET-OUT*%
X203712500Y-52292500D03*
%TD*%
D25*
%TO.P,H4,1,1*%
%TO.N,unconnected-(H4-Pad1)*%
X210243400Y-77347300D03*
D26*
%TO.P,H4,2*%
%TO.N,N/C*%
X210250000Y-81660000D03*
D27*
%TO.P,H4,3*%
X213489800Y-81654900D03*
D28*
%TO.P,H4,4*%
X213475800Y-77316600D03*
%TD*%
D30*
%TO.P,R7,1*%
%TO.N,Net-(Q1-G)*%
X206600000Y-52955000D03*
%TO.P,R7,2*%
%TO.N,GP2*%
X206600000Y-54605000D03*
%TD*%
%TO.P,R8,1*%
%TO.N,Net-(Q1-G)*%
X208130000Y-52960000D03*
%TO.P,R8,2*%
%TO.N,+3V3*%
X208130000Y-54610000D03*
%TD*%
D31*
%TO.P,U1,1,ADDR*%
%TO.N,Net-(JP1-B)*%
X193900000Y-64912500D03*
%TO.P,U1,2,ALERT/RDY*%
%TO.N,GP1*%
X194400000Y-64912500D03*
%TO.P,U1,3,GND*%
%TO.N,GND*%
X194900000Y-64912500D03*
%TO.P,U1,4,AIN0*%
%TO.N,POT-IN0*%
X195400000Y-64912500D03*
%TO.P,U1,5,AIN1*%
%TO.N,POT-IN1*%
X195900000Y-64912500D03*
%TO.P,U1,6,AIN2*%
%TO.N,AIN2*%
X195900000Y-69212500D03*
%TO.P,U1,7,AIN3*%
%TO.N,AIN3*%
X195400000Y-69212500D03*
%TO.P,U1,8,VDD*%
%TO.N,+3V3*%
X194900000Y-69212500D03*
%TO.P,U1,9,SDA*%
%TO.N,SDA*%
X194400000Y-69212500D03*
%TO.P,U1,10,SCL*%
%TO.N,SCL*%
X193900000Y-69212500D03*
%TD*%
D19*
%TO.P,C3,1*%
%TO.N,POT-IN1*%
X211700000Y-49250000D03*
%TO.P,C3,2*%
%TO.N,GND*%
X210150000Y-49250000D03*
%TD*%
D32*
%TO.P,J2,1,Pin_1*%
%TO.N,+3V3*%
X203440000Y-60430000D03*
D33*
%TO.P,J2,2,Pin_2*%
%TO.N,GND*%
X203440000Y-62970000D03*
%TO.P,J2,3,Pin_3*%
%TO.N,SDA*%
X203440000Y-65510000D03*
%TO.P,J2,4,Pin_4*%
%TO.N,SCL*%
X203440000Y-68050000D03*
%TO.P,J2,5,Pin_5*%
%TO.N,GP1*%
X203440000Y-70590000D03*
%TO.P,J2,6,Pin_6*%
%TO.N,GP2*%
X203440000Y-73130000D03*
%TD*%
D34*
%TO.N,AIN2*%
X201030000Y-60670000D03*
X201099000Y-68870000D03*
%TO.N,AIN3*%
X200860000Y-63920000D03*
X200770000Y-68120000D03*
%TO.N,SDA*%
X200760000Y-79930000D03*
%TO.N,SCL*%
X200860000Y-77190000D03*
%TO.N,+3V3*%
X200760000Y-74780000D03*
%TO.N,GND*%
X200760000Y-72360000D03*
X194770000Y-63340000D03*
X193770000Y-48170000D03*
X212270000Y-64010000D03*
X208960000Y-48460000D03*
X197200000Y-70800000D03*
%TO.N,+3V3*%
X214690000Y-58966500D03*
X195625474Y-71702529D03*
X196520000Y-61530000D03*
X211440000Y-54640000D03*
%TO.N,SDA*%
X194920000Y-68120000D03*
X195920000Y-66900000D03*
%TO.N,SCL*%
X205030000Y-58560000D03*
%TO.N,GP1*%
X195586296Y-72501572D03*
X195920000Y-66099997D03*
X210820000Y-66960000D03*
X210700000Y-63670000D03*
%TO.N,GP2*%
X205630000Y-54670000D03*
%TO.N,POT-OUT1*%
X210899873Y-47113499D03*
%TD*%
D35*
%TO.N,AIN2*%
X199500000Y-60670000D02*
X199430000Y-60600000D01*
X201030000Y-60670000D02*
X199500000Y-60670000D01*
X196242500Y-68870000D02*
X201099000Y-68870000D01*
X195900000Y-69212500D02*
X196242500Y-68870000D01*
%TO.N,AIN3*%
X199510000Y-63920000D02*
X199430000Y-63840000D01*
X200860000Y-63920000D02*
X199510000Y-63920000D01*
X196180000Y-67921000D02*
X200571000Y-67921000D01*
X200571000Y-67921000D02*
X200770000Y-68120000D01*
%TO.N,GND*%
X200760000Y-72360000D02*
X199480000Y-72360000D01*
%TO.N,AIN3*%
X195968943Y-67921000D02*
X196180000Y-67921000D01*
X195400000Y-68489943D02*
X195968943Y-67921000D01*
X195400000Y-69212500D02*
X195400000Y-68489943D01*
%TO.N,SDA*%
X194400000Y-68435500D02*
X194400000Y-69212500D01*
X194713485Y-68122015D02*
X194400000Y-68435500D01*
X194917985Y-68122015D02*
X194713485Y-68122015D01*
X194920000Y-68120000D02*
X194917985Y-68122015D01*
X200700000Y-79870000D02*
X200760000Y-79930000D01*
X199480000Y-79870000D02*
X200700000Y-79870000D01*
%TO.N,SCL*%
X200680000Y-77370000D02*
X200860000Y-77190000D01*
X199480000Y-77370000D02*
X200680000Y-77370000D01*
%TO.N,+3V3*%
X200670000Y-74870000D02*
X200760000Y-74780000D01*
X199480000Y-74870000D02*
X200670000Y-74870000D01*
%TO.N,Net-(JP1-B)*%
X198180000Y-72360000D02*
X198180000Y-79870000D01*
X197437428Y-73102572D02*
X198180000Y-72360000D01*
X195337353Y-73102572D02*
X197437428Y-73102572D01*
X193474000Y-67246000D02*
X193474000Y-71239219D01*
X193474000Y-71239219D02*
X195337353Y-73102572D01*
X193900000Y-66820000D02*
X193474000Y-67246000D01*
X193900000Y-64912500D02*
X193900000Y-66820000D01*
%TO.N,GP1*%
X198560144Y-70590000D02*
X203440000Y-70590000D01*
X196648572Y-72501572D02*
X198560144Y-70590000D01*
X195586296Y-72501572D02*
X196648572Y-72501572D01*
%TO.N,+3V3*%
X195517529Y-71702529D02*
X194605000Y-70790000D01*
X195625474Y-71702529D02*
X195517529Y-71702529D01*
%TO.N,GND*%
X194900000Y-63470000D02*
X194770000Y-63340000D01*
X194900000Y-64912500D02*
X194900000Y-63470000D01*
%TO.N,Net-(JP1-B)*%
X198180000Y-72360000D02*
X198180000Y-71780000D01*
%TO.N,GND*%
X210150000Y-49250000D02*
X209750000Y-49250000D01*
X195360000Y-49110000D02*
X194710000Y-49110000D01*
X194710000Y-49110000D02*
X193770000Y-48170000D01*
X196155000Y-70790000D02*
X197190000Y-70790000D01*
X192353500Y-49110000D02*
X192001000Y-49462500D01*
X209750000Y-49250000D02*
X208960000Y-48460000D01*
X195900000Y-70535000D02*
X196155000Y-70790000D01*
X214210000Y-64460000D02*
X212720000Y-64460000D01*
X197190000Y-70790000D02*
X197200000Y-70800000D01*
X212720000Y-64460000D02*
X212270000Y-64010000D01*
%TO.N,POT-IN0*%
X198650000Y-52220000D02*
X199460000Y-53030000D01*
X196910000Y-49110000D02*
X196910000Y-49960000D01*
X196910000Y-49960000D02*
X198650000Y-51700000D01*
X196965000Y-49055000D02*
X196910000Y-49110000D01*
X198650000Y-51700000D02*
X198650000Y-52220000D01*
X199460000Y-53030000D02*
X199460000Y-55420000D01*
X196965000Y-47590000D02*
X196965000Y-49055000D01*
X199460000Y-55420000D02*
X195400000Y-59480000D01*
X195400000Y-59480000D02*
X195400000Y-64912500D01*
%TO.N,+3V3*%
X203440000Y-57537500D02*
X203450000Y-57527500D01*
X196520000Y-61530000D02*
X200522500Y-57527500D01*
X214889000Y-58966500D02*
X213440000Y-57517500D01*
X194900000Y-70495000D02*
X194605000Y-70790000D01*
X194900000Y-69212500D02*
X194900000Y-70495000D01*
X214889000Y-63281000D02*
X214889000Y-58966500D01*
X200522500Y-57527500D02*
X203450000Y-57527500D01*
X213440000Y-57517500D02*
X209530000Y-57517500D01*
X209530000Y-57517500D02*
X209520000Y-57527500D01*
X204575000Y-55980000D02*
X210100000Y-55980000D01*
X211410000Y-54610000D02*
X211440000Y-54640000D01*
X203450000Y-57527500D02*
X209520000Y-57527500D01*
X208130000Y-54610000D02*
X211410000Y-54610000D01*
X214210000Y-63960000D02*
X214889000Y-63281000D01*
X203440000Y-60430000D02*
X203440000Y-57537500D01*
X202762500Y-54167500D02*
X204575000Y-55980000D01*
X210100000Y-55980000D02*
X211440000Y-54640000D01*
%TO.N,SDA*%
X209240000Y-64960000D02*
X203990000Y-64960000D01*
X203990000Y-64960000D02*
X203440000Y-65510000D01*
X209240000Y-61582500D02*
X209240000Y-64960000D01*
X202050000Y-66900000D02*
X195920000Y-66900000D01*
X203440000Y-65510000D02*
X202050000Y-66900000D01*
X214210000Y-64960000D02*
X209240000Y-64960000D01*
X211480000Y-59342500D02*
X209240000Y-61582500D01*
%TO.N,SCL*%
X203440000Y-68050000D02*
X202910000Y-67520000D01*
X194350000Y-67520000D02*
X193900000Y-67970000D01*
X209520000Y-59352500D02*
X205822500Y-59352500D01*
X214210000Y-65460000D02*
X206030000Y-65460000D01*
X206030000Y-65460000D02*
X203440000Y-68050000D01*
X193900000Y-67970000D02*
X193900000Y-69212500D01*
X205822500Y-59352500D02*
X205030000Y-58560000D01*
X202910000Y-67520000D02*
X194350000Y-67520000D01*
%TO.N,POT-IN1*%
X211700000Y-52180000D02*
X212600000Y-53080000D01*
X212600000Y-55320000D02*
X211450000Y-56470000D01*
X212600000Y-53080000D02*
X212600000Y-55320000D01*
X211700000Y-49250000D02*
X211700000Y-52180000D01*
X211450000Y-56470000D02*
X200620000Y-56470000D01*
X211745000Y-47670000D02*
X211745000Y-49205000D01*
X195900000Y-61190000D02*
X195900000Y-64912500D01*
X200620000Y-56470000D02*
X195900000Y-61190000D01*
X211745000Y-49205000D02*
X211700000Y-49250000D01*
%TO.N,GP1*%
X211480000Y-63670000D02*
X211741000Y-63409000D01*
X213440000Y-62708000D02*
X213440000Y-59342500D01*
X207070000Y-66960000D02*
X203440000Y-70590000D01*
X194400000Y-65720000D02*
X194610000Y-65930000D01*
X194400000Y-64912500D02*
X194400000Y-65720000D01*
X214210000Y-66960000D02*
X210820000Y-66960000D01*
X194610000Y-65930000D02*
X195417500Y-65930000D01*
X212739000Y-63409000D02*
X213440000Y-62708000D01*
X195417500Y-65930000D02*
X195587497Y-66099997D01*
X211741000Y-63409000D02*
X212739000Y-63409000D01*
X210820000Y-66960000D02*
X207070000Y-66960000D01*
X210700000Y-63670000D02*
X211480000Y-63670000D01*
X195587497Y-66099997D02*
X195920000Y-66099997D01*
%TO.N,GP2*%
X205630000Y-54670000D02*
X206535000Y-54670000D01*
X208610000Y-67960000D02*
X203440000Y-73130000D01*
X206535000Y-54670000D02*
X206600000Y-54605000D01*
X214210000Y-67960000D02*
X208610000Y-67960000D01*
%TO.N,FET-OUT*%
X203712500Y-50261199D02*
X203712500Y-49437500D01*
X203712500Y-52292500D02*
X203712500Y-50261199D01*
X211539000Y-46513500D02*
X212740000Y-45312500D01*
X199622500Y-45312500D02*
X197650000Y-45312500D01*
X206636500Y-46513500D02*
X211539000Y-46513500D01*
X203712500Y-49437500D02*
X206636500Y-46513500D01*
X203712500Y-50261199D02*
X203712500Y-49402500D01*
X203712500Y-49402500D02*
X199622500Y-45312500D01*
%TO.N,POT-OUT1*%
X210651501Y-47113499D02*
X210095000Y-47670000D01*
X210899873Y-47113499D02*
X210651501Y-47113499D01*
%TO.N,POT-OUT0*%
X195315000Y-46477500D02*
X195315000Y-47590000D01*
X194150000Y-45312500D02*
X195315000Y-46477500D01*
%TO.N,Net-(Q1-G)*%
X204662500Y-54167500D02*
X205875000Y-52955000D01*
X208125000Y-52955000D02*
X208130000Y-52960000D01*
X205875000Y-52955000D02*
X206600000Y-52955000D01*
X206600000Y-52955000D02*
X208125000Y-52955000D01*
%TD*%
%TA.AperFunction,Conductor*%
%TO.N,GND*%
G36*
X192105703Y-55813611D02*
G01*
X192120231Y-55828511D01*
X192179512Y-55900521D01*
X192330250Y-56083626D01*
X192393933Y-56160982D01*
X192426758Y-56197142D01*
X192786758Y-56557142D01*
X192870893Y-56624945D01*
X193290993Y-56894945D01*
X193291025Y-56894963D01*
X193338129Y-56921780D01*
X193338136Y-56921783D01*
X193338151Y-56921792D01*
X193558051Y-57031792D01*
X193563290Y-57034222D01*
X193585130Y-57044353D01*
X193865224Y-57164350D01*
X193865229Y-57164352D01*
X193865234Y-57164354D01*
X193931272Y-57187382D01*
X194481172Y-57337382D01*
X194562624Y-57352562D01*
X194952624Y-57392562D01*
X194952633Y-57392561D01*
X194952635Y-57392562D01*
X195076140Y-57390055D01*
X195092405Y-57385279D01*
X195100592Y-57382874D01*
X195144971Y-57378211D01*
X195237525Y-57385280D01*
X195387525Y-57375280D01*
X195419281Y-57372154D01*
X195649281Y-57342154D01*
X195683037Y-57336584D01*
X195833037Y-57306584D01*
X195870762Y-57297520D01*
X196190762Y-57207520D01*
X196237671Y-57191812D01*
X196647671Y-57031812D01*
X196668112Y-57022117D01*
X196737119Y-57011177D01*
X196801087Y-57039282D01*
X196839706Y-57097509D01*
X196840714Y-57167371D01*
X196808926Y-57221838D01*
X194919481Y-59111282D01*
X194919477Y-59111287D01*
X194893524Y-59156242D01*
X194893523Y-59156244D01*
X194840423Y-59248215D01*
X194799499Y-59400943D01*
X194799499Y-59400945D01*
X194799499Y-59569046D01*
X194799500Y-59569059D01*
X194799500Y-63743340D01*
X194779815Y-63810379D01*
X194727011Y-63856134D01*
X194688751Y-63866630D01*
X194665593Y-63869119D01*
X194639088Y-63869119D01*
X194629818Y-63868122D01*
X194572873Y-63862000D01*
X194572865Y-63862000D01*
X194227130Y-63862000D01*
X194227120Y-63862001D01*
X194163248Y-63868867D01*
X194136742Y-63868867D01*
X194132483Y-63868409D01*
X194072873Y-63862000D01*
X194072865Y-63862000D01*
X193727130Y-63862000D01*
X193727123Y-63862001D01*
X193667516Y-63868408D01*
X193532671Y-63918702D01*
X193532664Y-63918706D01*
X193417455Y-64004952D01*
X193417452Y-64004955D01*
X193331206Y-64120164D01*
X193331202Y-64120171D01*
X193280908Y-64255017D01*
X193274872Y-64311164D01*
X193274501Y-64314623D01*
X193274500Y-64314635D01*
X193274500Y-65510370D01*
X193274501Y-65510376D01*
X193280908Y-65569981D01*
X193280909Y-65569983D01*
X193290285Y-65595122D01*
X193291682Y-65598866D01*
X193299500Y-65642200D01*
X193299500Y-66519902D01*
X193279815Y-66586941D01*
X193263181Y-66607583D01*
X192993481Y-66877282D01*
X192993479Y-66877284D01*
X192980472Y-66899815D01*
X192969107Y-66919500D01*
X192914423Y-67014215D01*
X192873499Y-67166943D01*
X192873499Y-67166945D01*
X192873499Y-67335046D01*
X192873500Y-67335059D01*
X192873500Y-71152549D01*
X192873499Y-71152567D01*
X192873499Y-71318273D01*
X192873498Y-71318273D01*
X192914423Y-71471004D01*
X192927148Y-71493044D01*
X192993477Y-71607931D01*
X192993481Y-71607936D01*
X193112349Y-71726804D01*
X193112355Y-71726809D01*
X194852492Y-73466946D01*
X194852502Y-73466957D01*
X194856832Y-73471287D01*
X194856833Y-73471288D01*
X194968637Y-73583092D01*
X195052873Y-73631725D01*
X195105568Y-73662149D01*
X195258296Y-73703072D01*
X195416410Y-73703072D01*
X197350759Y-73703072D01*
X197350775Y-73703073D01*
X197375575Y-73703073D01*
X197442614Y-73722758D01*
X197488369Y-73775562D01*
X197498313Y-73844720D01*
X197469288Y-73908276D01*
X197463256Y-73914754D01*
X197422464Y-73955545D01*
X197422455Y-73955555D01*
X197342132Y-74060232D01*
X197342120Y-74060250D01*
X197276303Y-74174248D01*
X197276302Y-74174249D01*
X197225800Y-74296170D01*
X197191724Y-74423341D01*
X197174500Y-74554166D01*
X197174500Y-75185833D01*
X197188253Y-75290292D01*
X197191725Y-75316662D01*
X197225800Y-75443829D01*
X197269669Y-75549738D01*
X197276302Y-75565750D01*
X197276303Y-75565751D01*
X197342120Y-75679749D01*
X197342132Y-75679767D01*
X197398406Y-75753103D01*
X197422459Y-75784449D01*
X197475447Y-75837437D01*
X197515553Y-75877543D01*
X197530986Y-75889385D01*
X197572189Y-75945812D01*
X197579500Y-75987761D01*
X197579500Y-76252238D01*
X197559815Y-76319277D01*
X197530990Y-76350611D01*
X197515556Y-76362454D01*
X197515549Y-76362460D01*
X197422464Y-76455545D01*
X197422455Y-76455555D01*
X197342132Y-76560232D01*
X197342120Y-76560250D01*
X197276303Y-76674248D01*
X197276302Y-76674249D01*
X197225800Y-76796170D01*
X197191724Y-76923341D01*
X197174500Y-77054166D01*
X197174500Y-77685833D01*
X197188323Y-77790823D01*
X197191725Y-77816662D01*
X197225800Y-77943829D01*
X197248456Y-77998526D01*
X197276302Y-78065750D01*
X197276303Y-78065751D01*
X197342120Y-78179749D01*
X197342132Y-78179767D01*
X197369601Y-78215564D01*
X197422459Y-78284449D01*
X197470839Y-78332829D01*
X197515553Y-78377543D01*
X197530986Y-78389385D01*
X197572189Y-78445812D01*
X197579500Y-78487761D01*
X197579500Y-78752238D01*
X197559815Y-78819277D01*
X197530990Y-78850611D01*
X197515556Y-78862454D01*
X197515549Y-78862460D01*
X197422464Y-78955545D01*
X197422455Y-78955555D01*
X197342132Y-79060232D01*
X197342120Y-79060250D01*
X197276303Y-79174248D01*
X197276302Y-79174249D01*
X197225800Y-79296170D01*
X197191724Y-79423341D01*
X197174500Y-79554166D01*
X197174500Y-80185833D01*
X197191724Y-80316658D01*
X197191725Y-80316662D01*
X197211667Y-80391084D01*
X197225800Y-80443829D01*
X197276302Y-80565750D01*
X197276303Y-80565751D01*
X197342120Y-80679749D01*
X197342132Y-80679767D01*
X197422455Y-80784444D01*
X197422459Y-80784449D01*
X197515551Y-80877541D01*
X197515555Y-80877544D01*
X197620232Y-80957867D01*
X197620236Y-80957869D01*
X197620243Y-80957875D01*
X197620250Y-80957879D01*
X197734248Y-81023696D01*
X197734249Y-81023697D01*
X197734252Y-81023698D01*
X197734257Y-81023701D01*
X197856171Y-81074200D01*
X197983338Y-81108275D01*
X198114174Y-81125500D01*
X198114181Y-81125500D01*
X198680000Y-81125500D01*
X198751940Y-81120355D01*
X198789259Y-81109396D01*
X198841841Y-81105636D01*
X198980000Y-81125500D01*
X198980003Y-81125500D01*
X199545819Y-81125500D01*
X199545826Y-81125500D01*
X199676662Y-81108275D01*
X199803829Y-81074200D01*
X199925743Y-81023701D01*
X200039757Y-80957875D01*
X200144449Y-80877541D01*
X200237541Y-80784449D01*
X200298636Y-80704828D01*
X200355064Y-80663627D01*
X200424810Y-80659472D01*
X200444457Y-80665752D01*
X200526503Y-80699737D01*
X200654981Y-80725293D01*
X200681153Y-80730499D01*
X200681156Y-80730500D01*
X200681158Y-80730500D01*
X200838844Y-80730500D01*
X200838845Y-80730499D01*
X200993497Y-80699737D01*
X201139179Y-80639394D01*
X201270289Y-80551789D01*
X201325800Y-80496278D01*
X201967320Y-80496278D01*
X202322289Y-80851247D01*
X202677257Y-80496279D01*
X203381534Y-80496279D01*
X203736502Y-80851247D01*
X204091471Y-80496279D01*
X204795748Y-80496279D01*
X205150716Y-80851247D01*
X205505684Y-80496279D01*
X206209962Y-80496279D01*
X206564930Y-80851247D01*
X206919898Y-80496279D01*
X206919897Y-80496278D01*
X207624174Y-80496278D01*
X207965653Y-80837757D01*
X207953527Y-80806663D01*
X207952465Y-80803838D01*
X207949355Y-80795252D01*
X207948355Y-80792384D01*
X207929785Y-80736910D01*
X207928859Y-80734026D01*
X207926171Y-80725293D01*
X207925315Y-80722387D01*
X207832136Y-80391084D01*
X207830936Y-80386480D01*
X207818518Y-80334794D01*
X207817495Y-80330144D01*
X207812964Y-80307489D01*
X207624174Y-80496278D01*
X206919897Y-80496278D01*
X206564930Y-80141311D01*
X206209962Y-80496279D01*
X205505684Y-80496279D01*
X205150716Y-80141311D01*
X204795748Y-80496279D01*
X204091471Y-80496279D01*
X203736502Y-80141310D01*
X203381534Y-80496279D01*
X202677257Y-80496279D01*
X202322288Y-80141310D01*
X201967320Y-80496278D01*
X201325800Y-80496278D01*
X201381789Y-80440289D01*
X201469394Y-80309179D01*
X201529737Y-80163497D01*
X201560500Y-80008842D01*
X201560500Y-79851158D01*
X201560500Y-79851155D01*
X201560499Y-79851153D01*
X201548170Y-79789172D01*
X202674428Y-79789172D01*
X203029396Y-80144140D01*
X203384364Y-79789172D01*
X204088641Y-79789172D01*
X204443609Y-80144140D01*
X204798577Y-79789172D01*
X205502855Y-79789172D01*
X205857823Y-80144140D01*
X206212791Y-79789172D01*
X206917068Y-79789172D01*
X207272036Y-80144140D01*
X207627004Y-79789172D01*
X207272036Y-79434203D01*
X206917068Y-79789172D01*
X206212791Y-79789172D01*
X205857823Y-79434204D01*
X205502855Y-79789172D01*
X204798577Y-79789172D01*
X204443609Y-79434204D01*
X204088641Y-79789172D01*
X203384364Y-79789172D01*
X203029396Y-79434204D01*
X202674428Y-79789172D01*
X201548170Y-79789172D01*
X201529737Y-79696503D01*
X201470780Y-79554166D01*
X201469397Y-79550827D01*
X201469390Y-79550814D01*
X201381789Y-79419711D01*
X201381786Y-79419707D01*
X201270292Y-79308213D01*
X201270288Y-79308210D01*
X201139185Y-79220609D01*
X201139172Y-79220602D01*
X200993501Y-79160264D01*
X200993489Y-79160261D01*
X200838845Y-79129500D01*
X200838842Y-79129500D01*
X200681158Y-79129500D01*
X200681155Y-79129500D01*
X200526511Y-79160260D01*
X200526501Y-79160263D01*
X200505207Y-79169084D01*
X200435737Y-79176553D01*
X200373258Y-79145277D01*
X200350368Y-79116523D01*
X200330474Y-79082065D01*
X201967321Y-79082065D01*
X202322289Y-79437033D01*
X202677257Y-79082065D01*
X203381534Y-79082065D01*
X203736502Y-79437033D01*
X204091471Y-79082065D01*
X204795748Y-79082065D01*
X205150716Y-79437033D01*
X205505684Y-79082065D01*
X206209962Y-79082065D01*
X206564930Y-79437033D01*
X206919898Y-79082065D01*
X207624175Y-79082065D01*
X207737209Y-79195099D01*
X207762973Y-78943266D01*
X207624175Y-79082065D01*
X206919898Y-79082065D01*
X206564930Y-78727097D01*
X206209962Y-79082065D01*
X205505684Y-79082065D01*
X205150716Y-78727097D01*
X204795748Y-79082065D01*
X204091471Y-79082065D01*
X203736502Y-78727096D01*
X203381534Y-79082065D01*
X202677257Y-79082065D01*
X202322289Y-78727097D01*
X201967321Y-79082065D01*
X200330474Y-79082065D01*
X200317878Y-79060249D01*
X200317875Y-79060243D01*
X200237541Y-78955551D01*
X200144449Y-78862459D01*
X200144444Y-78862455D01*
X200039767Y-78782132D01*
X200039761Y-78782128D01*
X200039757Y-78782125D01*
X199944948Y-78727387D01*
X199896732Y-78676820D01*
X199883509Y-78608213D01*
X199909477Y-78543348D01*
X199944948Y-78512613D01*
X199945816Y-78512111D01*
X200039757Y-78457875D01*
X200097360Y-78413674D01*
X201298930Y-78413674D01*
X201615182Y-78729926D01*
X201970150Y-78374958D01*
X202674428Y-78374958D01*
X203029396Y-78729926D01*
X203384364Y-78374958D01*
X204088641Y-78374958D01*
X204443609Y-78729926D01*
X204798577Y-78374958D01*
X205502855Y-78374958D01*
X205857823Y-78729926D01*
X206212791Y-78374958D01*
X206917068Y-78374958D01*
X207272036Y-78729926D01*
X207627004Y-78374958D01*
X207272036Y-78019989D01*
X206917068Y-78374958D01*
X206212791Y-78374958D01*
X205857823Y-78019990D01*
X205502855Y-78374958D01*
X204798577Y-78374958D01*
X204443609Y-78019990D01*
X204088641Y-78374958D01*
X203384364Y-78374958D01*
X203029396Y-78019990D01*
X202674428Y-78374958D01*
X201970150Y-78374958D01*
X201740774Y-78145582D01*
X201713782Y-78172576D01*
X201709367Y-78176779D01*
X201700271Y-78185022D01*
X201695670Y-78188991D01*
X201676764Y-78204507D01*
X201671963Y-78208253D01*
X201662105Y-78215564D01*
X201657131Y-78219067D01*
X201505685Y-78320261D01*
X201500535Y-78323522D01*
X201490004Y-78329833D01*
X201484715Y-78332829D01*
X201463145Y-78344358D01*
X201457709Y-78347094D01*
X201446615Y-78352341D01*
X201441051Y-78354807D01*
X201298930Y-78413674D01*
X200097360Y-78413674D01*
X200144449Y-78377541D01*
X200237541Y-78284449D01*
X200317875Y-78179757D01*
X200383701Y-78065743D01*
X200391444Y-78047048D01*
X200435284Y-77992645D01*
X200501578Y-77970579D01*
X200506006Y-77970500D01*
X200593331Y-77970500D01*
X200593347Y-77970501D01*
X200600943Y-77970501D01*
X200668406Y-77970501D01*
X200692596Y-77972883D01*
X200720929Y-77978519D01*
X200781156Y-77990500D01*
X200781158Y-77990500D01*
X200938844Y-77990500D01*
X200938845Y-77990499D01*
X201093497Y-77959737D01*
X201239179Y-77899394D01*
X201370289Y-77811789D01*
X201443352Y-77738726D01*
X202038195Y-77738726D01*
X202322289Y-78022820D01*
X202677257Y-77667851D01*
X203381534Y-77667851D01*
X203736502Y-78022820D01*
X204091471Y-77667851D01*
X204795747Y-77667851D01*
X205150716Y-78022820D01*
X205505684Y-77667851D01*
X206209961Y-77667851D01*
X206564930Y-78022820D01*
X206919898Y-77667851D01*
X207624174Y-77667851D01*
X207979142Y-78022819D01*
X208042243Y-77959717D01*
X208113203Y-77794149D01*
X208114687Y-77790823D01*
X208131805Y-77753915D01*
X208133386Y-77750634D01*
X208227888Y-77561628D01*
X207979142Y-77312883D01*
X207624174Y-77667851D01*
X206919898Y-77667851D01*
X206564930Y-77312883D01*
X206209961Y-77667851D01*
X205505684Y-77667851D01*
X205150716Y-77312883D01*
X204795747Y-77667851D01*
X204091471Y-77667851D01*
X203736502Y-77312883D01*
X203381534Y-77667851D01*
X202677257Y-77667851D01*
X202322288Y-77312883D01*
X202119073Y-77516098D01*
X202115782Y-77532648D01*
X202114446Y-77538598D01*
X202111462Y-77550506D01*
X202109841Y-77556361D01*
X202102741Y-77579766D01*
X202100832Y-77585547D01*
X202096698Y-77597100D01*
X202094508Y-77602775D01*
X202038195Y-77738726D01*
X201443352Y-77738726D01*
X201481789Y-77700289D01*
X201569394Y-77569179D01*
X201629737Y-77423497D01*
X201660500Y-77268842D01*
X201660500Y-77111158D01*
X201660500Y-77111155D01*
X201660499Y-77111153D01*
X201649165Y-77054174D01*
X201630581Y-76960745D01*
X202674428Y-76960745D01*
X203029396Y-77315713D01*
X203384364Y-76960745D01*
X204088641Y-76960745D01*
X204443609Y-77315713D01*
X204798577Y-76960745D01*
X205502855Y-76960745D01*
X205857823Y-77315713D01*
X206212791Y-76960745D01*
X206917068Y-76960745D01*
X207272036Y-77315713D01*
X207627004Y-76960745D01*
X208331282Y-76960745D01*
X208496146Y-77125609D01*
X208572880Y-77006246D01*
X208574710Y-77003481D01*
X208578475Y-76997955D01*
X208580377Y-76995242D01*
X208588173Y-76984432D01*
X208590155Y-76981761D01*
X208594216Y-76976437D01*
X208596263Y-76973826D01*
X208672397Y-76879365D01*
X208674513Y-76876810D01*
X208678840Y-76871726D01*
X208681010Y-76869244D01*
X208689914Y-76859329D01*
X208692183Y-76856870D01*
X208696794Y-76852006D01*
X208699103Y-76849635D01*
X208814605Y-76734132D01*
X208686250Y-76605777D01*
X208331282Y-76960745D01*
X207627004Y-76960745D01*
X207272036Y-76605776D01*
X206917068Y-76960745D01*
X206212791Y-76960745D01*
X205857823Y-76605777D01*
X205502855Y-76960745D01*
X204798577Y-76960745D01*
X204443609Y-76605777D01*
X204088641Y-76960745D01*
X203384364Y-76960745D01*
X203029396Y-76605777D01*
X202674428Y-76960745D01*
X201630581Y-76960745D01*
X201629737Y-76956503D01*
X201597786Y-76879365D01*
X201569397Y-76810827D01*
X201569390Y-76810814D01*
X201481789Y-76679711D01*
X201481786Y-76679707D01*
X201370292Y-76568213D01*
X201370288Y-76568210D01*
X201239185Y-76480609D01*
X201239172Y-76480602D01*
X201093501Y-76420264D01*
X201093489Y-76420261D01*
X200938845Y-76389500D01*
X200938842Y-76389500D01*
X200781158Y-76389500D01*
X200781155Y-76389500D01*
X200626510Y-76420261D01*
X200626498Y-76420264D01*
X200480827Y-76480602D01*
X200480809Y-76480612D01*
X200429271Y-76515049D01*
X200362594Y-76535927D01*
X200295214Y-76517442D01*
X200262006Y-76487434D01*
X200237544Y-76455555D01*
X200237541Y-76455551D01*
X200144449Y-76362459D01*
X200144444Y-76362455D01*
X200039767Y-76282132D01*
X200039761Y-76282128D01*
X200039757Y-76282125D01*
X199990416Y-76253638D01*
X201967321Y-76253638D01*
X202322289Y-76608606D01*
X202677257Y-76253638D01*
X203381534Y-76253638D01*
X203736502Y-76608606D01*
X204091471Y-76253638D01*
X204795748Y-76253638D01*
X205150716Y-76608606D01*
X205505684Y-76253638D01*
X206209962Y-76253638D01*
X206564930Y-76608606D01*
X206919898Y-76253638D01*
X207624175Y-76253638D01*
X207979143Y-76608606D01*
X208334111Y-76253638D01*
X209038389Y-76253638D01*
X209173389Y-76388638D01*
X209481807Y-76134647D01*
X209486089Y-76131276D01*
X209499190Y-76121420D01*
X209503590Y-76118257D01*
X209568449Y-76073762D01*
X209393357Y-75898670D01*
X209038389Y-76253638D01*
X208334111Y-76253638D01*
X207979143Y-75898670D01*
X207624175Y-76253638D01*
X206919898Y-76253638D01*
X206564930Y-75898670D01*
X206209962Y-76253638D01*
X205505684Y-76253638D01*
X205150716Y-75898670D01*
X204795748Y-76253638D01*
X204091471Y-76253638D01*
X203736502Y-75898669D01*
X203381534Y-76253638D01*
X202677257Y-76253638D01*
X202322289Y-75898670D01*
X201967321Y-76253638D01*
X199990416Y-76253638D01*
X199944948Y-76227387D01*
X199896732Y-76176820D01*
X199883509Y-76108213D01*
X199909477Y-76043348D01*
X199944948Y-76012613D01*
X199945816Y-76012111D01*
X200039757Y-75957875D01*
X200144449Y-75877541D01*
X200199153Y-75822837D01*
X201536520Y-75822837D01*
X201615182Y-75901499D01*
X201970150Y-75546531D01*
X202674428Y-75546531D01*
X203029396Y-75901499D01*
X203384364Y-75546531D01*
X204088641Y-75546531D01*
X204443609Y-75901499D01*
X204798577Y-75546531D01*
X205502855Y-75546531D01*
X205857823Y-75901499D01*
X206212791Y-75546531D01*
X206917068Y-75546531D01*
X207272036Y-75901499D01*
X207627004Y-75546531D01*
X208331282Y-75546531D01*
X208686250Y-75901499D01*
X209041218Y-75546531D01*
X209041217Y-75546530D01*
X209745495Y-75546530D01*
X210016164Y-75817199D01*
X210019984Y-75815133D01*
X210031737Y-75809041D01*
X210035666Y-75807092D01*
X210112205Y-75770794D01*
X210116190Y-75768989D01*
X210128339Y-75763744D01*
X210132408Y-75762073D01*
X210308678Y-75693283D01*
X210455431Y-75546530D01*
X210342157Y-75433256D01*
X212687196Y-75433256D01*
X213166095Y-75563866D01*
X213170221Y-75565069D01*
X213182601Y-75568911D01*
X213186682Y-75570255D01*
X213241141Y-75589248D01*
X213283857Y-75546531D01*
X213988136Y-75546531D01*
X214343104Y-75901499D01*
X214491500Y-75753103D01*
X214491500Y-75339959D01*
X214343104Y-75191563D01*
X213988136Y-75546531D01*
X213283857Y-75546531D01*
X213283858Y-75546530D01*
X212928890Y-75191562D01*
X212687196Y-75433256D01*
X210342157Y-75433256D01*
X210323350Y-75414449D01*
X211291790Y-75414449D01*
X211489466Y-75388665D01*
X211493358Y-75388219D01*
X211536864Y-75383937D01*
X211540762Y-75383616D01*
X211696356Y-75373242D01*
X211514677Y-75191563D01*
X211291790Y-75414449D01*
X210323350Y-75414449D01*
X210100463Y-75191562D01*
X209745495Y-75546530D01*
X209041217Y-75546530D01*
X208686250Y-75191563D01*
X208331282Y-75546531D01*
X207627004Y-75546531D01*
X207272036Y-75191562D01*
X206917068Y-75546531D01*
X206212791Y-75546531D01*
X205857823Y-75191563D01*
X205502855Y-75546531D01*
X204798577Y-75546531D01*
X204443609Y-75191563D01*
X204088641Y-75546531D01*
X203384364Y-75546531D01*
X203029396Y-75191563D01*
X202674428Y-75546531D01*
X201970150Y-75546531D01*
X201873855Y-75450236D01*
X201789067Y-75577131D01*
X201785564Y-75582105D01*
X201778253Y-75591963D01*
X201774507Y-75596764D01*
X201758991Y-75615670D01*
X201755022Y-75620271D01*
X201746779Y-75629367D01*
X201742576Y-75633781D01*
X201613781Y-75762576D01*
X201609367Y-75766779D01*
X201600271Y-75775022D01*
X201595670Y-75778991D01*
X201576764Y-75794507D01*
X201571963Y-75798253D01*
X201562105Y-75805564D01*
X201557130Y-75809067D01*
X201536520Y-75822837D01*
X200199153Y-75822837D01*
X200237541Y-75784449D01*
X200317875Y-75679757D01*
X200364347Y-75599264D01*
X200414912Y-75551051D01*
X200483519Y-75537827D01*
X200519184Y-75546705D01*
X200526503Y-75549737D01*
X200526506Y-75549737D01*
X200526511Y-75549739D01*
X200681153Y-75580499D01*
X200681156Y-75580500D01*
X200681158Y-75580500D01*
X200838844Y-75580500D01*
X200838845Y-75580499D01*
X200993497Y-75549737D01*
X201139179Y-75489394D01*
X201270289Y-75401789D01*
X201381789Y-75290289D01*
X201469394Y-75159179D01*
X201529737Y-75013497D01*
X201547100Y-74926209D01*
X202054106Y-74926209D01*
X202322289Y-75194392D01*
X202538181Y-74978500D01*
X203520610Y-74978500D01*
X203736502Y-75194392D01*
X204058100Y-74872794D01*
X203900834Y-74923894D01*
X203896170Y-74925309D01*
X203886723Y-74927973D01*
X203882021Y-74929199D01*
X203862998Y-74933767D01*
X203858235Y-74934813D01*
X203848602Y-74936729D01*
X203843810Y-74937584D01*
X203614534Y-74973898D01*
X203609706Y-74974566D01*
X203599961Y-74975719D01*
X203595127Y-74976195D01*
X203575625Y-74977731D01*
X203570761Y-74978018D01*
X203560944Y-74978404D01*
X203556072Y-74978500D01*
X203520610Y-74978500D01*
X202538181Y-74978500D01*
X202677257Y-74839424D01*
X204795748Y-74839424D01*
X205150716Y-75194392D01*
X205505684Y-74839424D01*
X206209962Y-74839424D01*
X206564930Y-75194392D01*
X206919898Y-74839424D01*
X207624175Y-74839424D01*
X207979143Y-75194392D01*
X208334111Y-74839424D01*
X209038389Y-74839424D01*
X209393357Y-75194392D01*
X209748325Y-74839424D01*
X210452602Y-74839424D01*
X210807570Y-75194392D01*
X211162538Y-74839424D01*
X211866816Y-74839424D01*
X212221784Y-75194392D01*
X212576752Y-74839424D01*
X213281029Y-74839424D01*
X213635997Y-75194392D01*
X213990965Y-74839424D01*
X213635997Y-74484455D01*
X213281029Y-74839424D01*
X212576752Y-74839424D01*
X212221784Y-74484456D01*
X211866816Y-74839424D01*
X211162538Y-74839424D01*
X210807570Y-74484456D01*
X210452602Y-74839424D01*
X209748325Y-74839424D01*
X209393357Y-74484456D01*
X209038389Y-74839424D01*
X208334111Y-74839424D01*
X207979143Y-74484456D01*
X207624175Y-74839424D01*
X206919898Y-74839424D01*
X206564930Y-74484456D01*
X206209962Y-74839424D01*
X205505684Y-74839424D01*
X205150716Y-74484456D01*
X204795748Y-74839424D01*
X202677257Y-74839424D01*
X202629463Y-74791630D01*
X202497382Y-74724332D01*
X202493090Y-74722038D01*
X202484524Y-74717241D01*
X202480321Y-74714777D01*
X202463642Y-74704556D01*
X202459547Y-74701935D01*
X202451382Y-74696480D01*
X202447382Y-74693692D01*
X202259574Y-74557243D01*
X202255685Y-74554299D01*
X202253873Y-74552871D01*
X202058500Y-74748245D01*
X202058500Y-74871070D01*
X202058351Y-74877153D01*
X202057749Y-74889410D01*
X202057301Y-74895479D01*
X202054904Y-74919820D01*
X202054159Y-74925859D01*
X202054106Y-74926209D01*
X201547100Y-74926209D01*
X201560500Y-74858842D01*
X201560500Y-74701158D01*
X201560500Y-74701155D01*
X201560499Y-74701153D01*
X201531873Y-74557243D01*
X201529737Y-74546503D01*
X201514381Y-74509429D01*
X201469397Y-74400827D01*
X201469390Y-74400814D01*
X201381789Y-74269711D01*
X201381786Y-74269707D01*
X201281877Y-74169798D01*
X201910586Y-74169798D01*
X201914358Y-74176855D01*
X201917094Y-74182291D01*
X201918083Y-74184383D01*
X201919878Y-74182588D01*
X201910586Y-74169798D01*
X201281877Y-74169798D01*
X201270292Y-74158213D01*
X201270288Y-74158210D01*
X201139185Y-74070609D01*
X201139172Y-74070602D01*
X200993501Y-74010264D01*
X200993489Y-74010261D01*
X200838845Y-73979500D01*
X200838842Y-73979500D01*
X200681158Y-73979500D01*
X200681155Y-73979500D01*
X200526510Y-74010261D01*
X200526498Y-74010264D01*
X200426995Y-74051480D01*
X200357526Y-74058949D01*
X200295047Y-74027674D01*
X200281168Y-74012406D01*
X200237544Y-73955555D01*
X200237541Y-73955551D01*
X200144449Y-73862459D01*
X200144444Y-73862455D01*
X200047988Y-73788440D01*
X201604091Y-73788440D01*
X201609367Y-73793221D01*
X201613781Y-73797424D01*
X201742576Y-73926219D01*
X201746779Y-73930633D01*
X201755022Y-73939729D01*
X201758991Y-73944330D01*
X201774507Y-73963236D01*
X201778253Y-73968037D01*
X201785564Y-73977895D01*
X201789067Y-73982869D01*
X201834851Y-74051390D01*
X201778369Y-73940537D01*
X201615181Y-73777349D01*
X201604091Y-73788440D01*
X200047988Y-73788440D01*
X200039767Y-73782132D01*
X200039749Y-73782120D01*
X199925751Y-73716303D01*
X199925750Y-73716302D01*
X199893810Y-73703072D01*
X199803829Y-73665800D01*
X199676662Y-73631725D01*
X199676661Y-73631724D01*
X199676658Y-73631724D01*
X199545833Y-73614500D01*
X199545826Y-73614500D01*
X199176435Y-73614500D01*
X199109396Y-73594815D01*
X199063641Y-73542011D01*
X199053697Y-73472853D01*
X199075454Y-73425211D01*
X200553107Y-73425211D01*
X200613789Y-73485893D01*
X200614141Y-73485841D01*
X200620180Y-73485096D01*
X200644521Y-73482699D01*
X200650590Y-73482251D01*
X200662847Y-73481649D01*
X200668930Y-73481500D01*
X200851070Y-73481500D01*
X200857153Y-73481649D01*
X200869410Y-73482251D01*
X200875479Y-73482699D01*
X200899820Y-73485096D01*
X200905859Y-73485841D01*
X200918003Y-73487642D01*
X200924003Y-73488683D01*
X201102648Y-73524218D01*
X201108598Y-73525554D01*
X201120506Y-73528538D01*
X201126361Y-73530159D01*
X201149766Y-73537259D01*
X201150689Y-73537563D01*
X201263042Y-73425210D01*
X200949334Y-73111502D01*
X200848210Y-73131617D01*
X200846536Y-73131781D01*
X200553107Y-73425211D01*
X199075454Y-73425211D01*
X199082722Y-73409297D01*
X199105254Y-73383294D01*
X199165024Y-73252416D01*
X199185500Y-73110000D01*
X199185500Y-72832834D01*
X201374944Y-72832834D01*
X201591500Y-73049390D01*
X201591500Y-73013928D01*
X201591596Y-73009056D01*
X201591982Y-72999239D01*
X201592269Y-72994375D01*
X201593805Y-72974873D01*
X201594281Y-72970039D01*
X201595434Y-72960294D01*
X201596102Y-72955466D01*
X201632416Y-72726190D01*
X201633271Y-72721398D01*
X201635187Y-72711765D01*
X201636233Y-72707002D01*
X201640801Y-72687979D01*
X201642027Y-72683277D01*
X201644691Y-72673830D01*
X201646106Y-72669166D01*
X201713573Y-72461527D01*
X201615182Y-72363136D01*
X201531781Y-72446536D01*
X201531617Y-72448210D01*
X201506638Y-72573789D01*
X201499582Y-72597051D01*
X201450583Y-72715343D01*
X201439125Y-72736780D01*
X201374944Y-72832834D01*
X199185500Y-72832834D01*
X199185500Y-71610000D01*
X199180355Y-71538060D01*
X199139819Y-71400008D01*
X199127949Y-71381538D01*
X199108265Y-71314502D01*
X199127949Y-71247462D01*
X199180752Y-71201706D01*
X199232265Y-71190500D01*
X202154281Y-71190500D01*
X202221320Y-71210185D01*
X202264765Y-71258205D01*
X202284947Y-71297814D01*
X202284948Y-71297815D01*
X202409890Y-71469786D01*
X202560213Y-71620109D01*
X202732182Y-71745050D01*
X202740946Y-71749516D01*
X202791742Y-71797491D01*
X202808536Y-71865312D01*
X202785998Y-71931447D01*
X202740946Y-71970484D01*
X202732182Y-71974949D01*
X202560213Y-72099890D01*
X202409890Y-72250213D01*
X202284951Y-72422179D01*
X202188444Y-72611585D01*
X202122753Y-72813760D01*
X202094147Y-72994375D01*
X202089500Y-73023713D01*
X202089500Y-73236287D01*
X202092054Y-73252414D01*
X202119422Y-73425210D01*
X202122754Y-73446243D01*
X202186018Y-73640950D01*
X202188444Y-73648414D01*
X202284951Y-73837820D01*
X202409890Y-74009786D01*
X202560213Y-74160109D01*
X202732179Y-74285048D01*
X202732181Y-74285049D01*
X202732184Y-74285051D01*
X202921588Y-74381557D01*
X203123757Y-74447246D01*
X203333713Y-74480500D01*
X203333714Y-74480500D01*
X203546286Y-74480500D01*
X203546287Y-74480500D01*
X203756243Y-74447246D01*
X203958412Y-74381557D01*
X204147816Y-74285051D01*
X204169789Y-74269086D01*
X204319786Y-74160109D01*
X204319788Y-74160106D01*
X204319792Y-74160104D01*
X204347578Y-74132318D01*
X205502855Y-74132318D01*
X205857823Y-74487286D01*
X206212791Y-74132318D01*
X206917068Y-74132318D01*
X207272036Y-74487286D01*
X207627004Y-74132318D01*
X208331282Y-74132318D01*
X208686250Y-74487286D01*
X209041218Y-74132318D01*
X209745495Y-74132318D01*
X210100463Y-74487286D01*
X210455432Y-74132318D01*
X211159709Y-74132318D01*
X211514677Y-74487286D01*
X211869645Y-74132318D01*
X212573923Y-74132318D01*
X212928891Y-74487286D01*
X213283859Y-74132318D01*
X213988136Y-74132318D01*
X214343104Y-74487286D01*
X214491500Y-74338890D01*
X214491500Y-73925746D01*
X214343104Y-73777350D01*
X213988136Y-74132318D01*
X213283859Y-74132318D01*
X212928891Y-73777350D01*
X212573923Y-74132318D01*
X211869645Y-74132318D01*
X211514677Y-73777350D01*
X211159709Y-74132318D01*
X210455432Y-74132318D01*
X210100463Y-73777349D01*
X209745495Y-74132318D01*
X209041218Y-74132318D01*
X208686250Y-73777350D01*
X208331282Y-74132318D01*
X207627004Y-74132318D01*
X207272036Y-73777349D01*
X206917068Y-74132318D01*
X206212791Y-74132318D01*
X205857823Y-73777350D01*
X205502855Y-74132318D01*
X204347578Y-74132318D01*
X204470104Y-74009792D01*
X204470106Y-74009788D01*
X204470109Y-74009786D01*
X204595048Y-73837820D01*
X204595047Y-73837820D01*
X204595051Y-73837816D01*
X204640764Y-73748100D01*
X205182794Y-73748100D01*
X205505684Y-73425211D01*
X206209962Y-73425211D01*
X206564930Y-73780179D01*
X206919898Y-73425211D01*
X207624175Y-73425211D01*
X207979143Y-73780179D01*
X208334111Y-73425211D01*
X209038389Y-73425211D01*
X209393357Y-73780179D01*
X209748325Y-73425211D01*
X209748324Y-73425210D01*
X210452601Y-73425210D01*
X210807570Y-73780179D01*
X211162538Y-73425211D01*
X211162537Y-73425210D01*
X211866815Y-73425210D01*
X212221784Y-73780179D01*
X212576752Y-73425211D01*
X213281029Y-73425211D01*
X213635997Y-73780179D01*
X213990965Y-73425211D01*
X213635997Y-73070242D01*
X213281029Y-73425211D01*
X212576752Y-73425211D01*
X212310040Y-73158499D01*
X212133527Y-73158499D01*
X211866815Y-73425210D01*
X211162537Y-73425210D01*
X210895826Y-73158499D01*
X210719313Y-73158499D01*
X210452601Y-73425210D01*
X209748324Y-73425210D01*
X209393357Y-73070243D01*
X209038389Y-73425211D01*
X208334111Y-73425211D01*
X207979143Y-73070243D01*
X207624175Y-73425211D01*
X206919898Y-73425211D01*
X206564930Y-73070243D01*
X206209962Y-73425211D01*
X205505684Y-73425211D01*
X205288500Y-73208027D01*
X205288500Y-73246072D01*
X205288404Y-73250944D01*
X205288018Y-73260761D01*
X205287731Y-73265625D01*
X205286195Y-73285127D01*
X205285719Y-73289961D01*
X205284566Y-73299706D01*
X205283898Y-73304534D01*
X205247584Y-73533810D01*
X205246729Y-73538602D01*
X205244813Y-73548235D01*
X205243767Y-73552998D01*
X205239199Y-73572021D01*
X205237973Y-73576723D01*
X205235309Y-73586170D01*
X205233894Y-73590834D01*
X205182794Y-73748100D01*
X204640764Y-73748100D01*
X204691557Y-73648412D01*
X204757246Y-73446243D01*
X204790500Y-73236287D01*
X204790500Y-73023713D01*
X204757246Y-72813757D01*
X204743506Y-72771473D01*
X204741982Y-72718104D01*
X205502855Y-72718104D01*
X205857823Y-73073072D01*
X206212791Y-72718104D01*
X206917068Y-72718104D01*
X207272036Y-73073072D01*
X207627004Y-72718104D01*
X208331282Y-72718104D01*
X208686250Y-73073072D01*
X208695425Y-73063897D01*
X212919716Y-73063897D01*
X212928891Y-73073072D01*
X212953969Y-73047993D01*
X212951379Y-73049408D01*
X212943463Y-73053371D01*
X212927218Y-73060790D01*
X212919716Y-73063897D01*
X208695425Y-73063897D01*
X209041218Y-72718104D01*
X213988136Y-72718104D01*
X214343104Y-73073072D01*
X214491500Y-72924676D01*
X214491500Y-72511532D01*
X214343104Y-72363136D01*
X213988136Y-72718104D01*
X209041218Y-72718104D01*
X208686250Y-72363136D01*
X208331282Y-72718104D01*
X207627004Y-72718104D01*
X207272036Y-72363135D01*
X206917068Y-72718104D01*
X206212791Y-72718104D01*
X205857823Y-72363136D01*
X205502855Y-72718104D01*
X204741982Y-72718104D01*
X204741512Y-72701635D01*
X204773755Y-72645478D01*
X205408236Y-72010997D01*
X206209962Y-72010997D01*
X206564930Y-72365965D01*
X206919898Y-72010997D01*
X207624175Y-72010997D01*
X207979143Y-72365965D01*
X208334111Y-72010997D01*
X209038389Y-72010997D01*
X209393356Y-72365964D01*
X209491116Y-72268204D01*
X209489640Y-72254465D01*
X209489330Y-72251168D01*
X209488792Y-72244488D01*
X209488569Y-72241154D01*
X209487857Y-72227838D01*
X209487724Y-72224538D01*
X209487545Y-72217856D01*
X209487501Y-72214535D01*
X209487500Y-71750172D01*
X209393357Y-71656029D01*
X209038389Y-72010997D01*
X208334111Y-72010997D01*
X207979143Y-71656029D01*
X207624175Y-72010997D01*
X206919898Y-72010997D01*
X206564930Y-71656029D01*
X206209962Y-72010997D01*
X205408236Y-72010997D01*
X206115343Y-71303890D01*
X206917067Y-71303890D01*
X207272036Y-71658859D01*
X207627004Y-71303890D01*
X208331281Y-71303890D01*
X208686250Y-71658859D01*
X209041218Y-71303890D01*
X208686250Y-70948922D01*
X208331281Y-71303890D01*
X207627004Y-71303890D01*
X207272036Y-70948922D01*
X206917067Y-71303890D01*
X206115343Y-71303890D01*
X206822450Y-70596784D01*
X207624175Y-70596784D01*
X207979143Y-70951752D01*
X208334111Y-70596784D01*
X209038389Y-70596784D01*
X209393356Y-70951751D01*
X209487500Y-70857608D01*
X209487500Y-70335959D01*
X209463676Y-70312135D01*
X209985500Y-70312135D01*
X209985500Y-72207870D01*
X209985501Y-72207876D01*
X209991908Y-72267483D01*
X210042202Y-72402328D01*
X210042206Y-72402335D01*
X210128452Y-72517544D01*
X210128455Y-72517547D01*
X210243664Y-72603793D01*
X210243671Y-72603797D01*
X210378517Y-72654091D01*
X210378516Y-72654091D01*
X210385444Y-72654835D01*
X210438127Y-72660500D01*
X212533872Y-72660499D01*
X212593483Y-72654091D01*
X212728331Y-72603796D01*
X212843546Y-72517546D01*
X212929796Y-72402331D01*
X212980091Y-72267483D01*
X212986500Y-72207873D01*
X212986500Y-71807526D01*
X213484499Y-71807526D01*
X213484499Y-72214467D01*
X213635997Y-72365965D01*
X213990965Y-72010997D01*
X213635996Y-71656028D01*
X213484499Y-71807526D01*
X212986500Y-71807526D01*
X212986499Y-71303890D01*
X213988135Y-71303890D01*
X214343104Y-71658859D01*
X214491500Y-71510463D01*
X214491500Y-71097318D01*
X214343104Y-70948922D01*
X213988135Y-71303890D01*
X212986499Y-71303890D01*
X212986499Y-70800254D01*
X213484499Y-70800254D01*
X213635997Y-70951752D01*
X213989250Y-70598499D01*
X213530455Y-70598500D01*
X213527125Y-70598455D01*
X213520424Y-70598275D01*
X213517115Y-70598142D01*
X213503798Y-70597428D01*
X213500479Y-70597205D01*
X213493814Y-70596668D01*
X213490517Y-70596359D01*
X213484499Y-70595711D01*
X213484499Y-70800254D01*
X212986499Y-70800254D01*
X212986499Y-70312128D01*
X212980091Y-70252517D01*
X212979173Y-70250057D01*
X212929797Y-70117671D01*
X212929793Y-70117664D01*
X212843547Y-70002455D01*
X212843544Y-70002452D01*
X212728335Y-69916206D01*
X212728328Y-69916202D01*
X212593482Y-69865908D01*
X212593483Y-69865908D01*
X212533883Y-69859501D01*
X212533881Y-69859500D01*
X212533873Y-69859500D01*
X212533864Y-69859500D01*
X210438129Y-69859500D01*
X210438123Y-69859501D01*
X210378516Y-69865908D01*
X210243671Y-69916202D01*
X210243664Y-69916206D01*
X210128455Y-70002452D01*
X210128452Y-70002455D01*
X210042206Y-70117664D01*
X210042202Y-70117671D01*
X209991908Y-70252517D01*
X209985501Y-70312116D01*
X209985501Y-70312123D01*
X209985500Y-70312135D01*
X209463676Y-70312135D01*
X209393357Y-70241816D01*
X209038389Y-70596784D01*
X208334111Y-70596784D01*
X207979143Y-70241816D01*
X207624175Y-70596784D01*
X206822450Y-70596784D01*
X207529557Y-69889677D01*
X208331282Y-69889677D01*
X208686250Y-70244645D01*
X209041218Y-69889677D01*
X208686250Y-69534709D01*
X208331282Y-69889677D01*
X207529557Y-69889677D01*
X208236665Y-69182570D01*
X209038389Y-69182570D01*
X209393357Y-69537538D01*
X209748325Y-69182570D01*
X210452602Y-69182570D01*
X210631532Y-69361500D01*
X210983607Y-69361500D01*
X211162536Y-69182570D01*
X211866816Y-69182570D01*
X212045746Y-69361500D01*
X212397821Y-69361500D01*
X212576751Y-69182569D01*
X212452682Y-69058500D01*
X211990886Y-69058500D01*
X211866816Y-69182570D01*
X211162536Y-69182570D01*
X211162537Y-69182569D01*
X211038468Y-69058500D01*
X210576672Y-69058500D01*
X210452602Y-69182570D01*
X209748325Y-69182570D01*
X209624255Y-69058500D01*
X209162459Y-69058500D01*
X209038389Y-69182570D01*
X208236665Y-69182570D01*
X208822416Y-68596819D01*
X208883739Y-68563334D01*
X208910097Y-68560500D01*
X212963724Y-68560500D01*
X213030763Y-68580185D01*
X213076518Y-68632989D01*
X213087014Y-68671248D01*
X213089755Y-68696748D01*
X213089755Y-68723250D01*
X213084500Y-68772127D01*
X213084500Y-68772132D01*
X213084500Y-68772133D01*
X213084500Y-69147869D01*
X213084501Y-69147874D01*
X213089755Y-69196746D01*
X213089755Y-69223250D01*
X213084500Y-69272127D01*
X213084500Y-69272132D01*
X213084500Y-69272133D01*
X213084500Y-69647869D01*
X213084501Y-69647876D01*
X213090908Y-69707483D01*
X213141202Y-69842328D01*
X213141206Y-69842335D01*
X213227452Y-69957544D01*
X213227455Y-69957547D01*
X213342664Y-70043793D01*
X213342671Y-70043797D01*
X213477517Y-70094091D01*
X213477516Y-70094091D01*
X213484444Y-70094835D01*
X213537127Y-70100500D01*
X214865500Y-70100499D01*
X214932539Y-70120184D01*
X214978294Y-70172987D01*
X214989500Y-70224499D01*
X214989500Y-77237557D01*
X214969815Y-77304596D01*
X214917011Y-77350351D01*
X214847853Y-77360295D01*
X214784297Y-77331270D01*
X214769781Y-77316385D01*
X214612671Y-77125609D01*
X214566011Y-77068950D01*
X214533242Y-77032858D01*
X214357254Y-76856870D01*
X214173255Y-76672870D01*
X214173239Y-76672855D01*
X214122788Y-76632193D01*
X214089153Y-76605084D01*
X213711738Y-76362460D01*
X213669166Y-76335092D01*
X213669167Y-76335092D01*
X213621860Y-76308163D01*
X213621858Y-76308162D01*
X213401860Y-76198164D01*
X213374938Y-76185677D01*
X213094937Y-76065676D01*
X213088950Y-76063588D01*
X213028806Y-76042612D01*
X212478806Y-75892612D01*
X212478804Y-75892611D01*
X212478802Y-75892611D01*
X212448996Y-75887057D01*
X212397376Y-75877438D01*
X212007376Y-75837438D01*
X212007374Y-75837438D01*
X212007364Y-75837437D01*
X211883858Y-75839944D01*
X211792262Y-75866840D01*
X211747886Y-75871503D01*
X211729780Y-75870120D01*
X211729762Y-75870120D01*
X211579793Y-75880118D01*
X211547995Y-75883248D01*
X211318038Y-75913243D01*
X211318022Y-75913245D01*
X211318019Y-75913246D01*
X211313283Y-75914027D01*
X211284258Y-75918816D01*
X211134263Y-75948816D01*
X211096538Y-75957879D01*
X210776539Y-76047879D01*
X210729634Y-76063586D01*
X210319636Y-76223585D01*
X210319632Y-76223586D01*
X210319629Y-76223588D01*
X210287333Y-76238904D01*
X210255030Y-76254223D01*
X209865048Y-76474213D01*
X209865046Y-76474214D01*
X209865038Y-76474219D01*
X209865037Y-76474220D01*
X209792050Y-76524289D01*
X209792044Y-76524293D01*
X209792038Y-76524298D01*
X209452054Y-76804285D01*
X209415969Y-76837047D01*
X209415945Y-76837070D01*
X209055970Y-77197044D01*
X209055955Y-77197060D01*
X208988186Y-77281144D01*
X208718192Y-77701133D01*
X208691263Y-77748439D01*
X208691262Y-77748441D01*
X208581264Y-77968439D01*
X208568777Y-77995361D01*
X208448776Y-78275362D01*
X208425712Y-78341493D01*
X208275710Y-78891499D01*
X208260525Y-78973046D01*
X208260524Y-78973050D01*
X208220625Y-79363047D01*
X208220624Y-79363067D01*
X208223144Y-79486438D01*
X208223145Y-79486445D01*
X208227421Y-79501007D01*
X208232083Y-79545374D01*
X208225621Y-79630038D01*
X208225621Y-79630058D01*
X208235621Y-79779959D01*
X208238771Y-79811868D01*
X208238774Y-79811895D01*
X208264549Y-80008844D01*
X208268877Y-80041916D01*
X208274414Y-80075430D01*
X208304415Y-80225432D01*
X208313479Y-80263161D01*
X208403482Y-80583169D01*
X208403483Y-80583175D01*
X208419146Y-80629965D01*
X208579042Y-81039956D01*
X208579048Y-81039969D01*
X208579049Y-81039971D01*
X208609769Y-81104748D01*
X208612393Y-81109397D01*
X208758012Y-81367424D01*
X208829869Y-81494748D01*
X208879833Y-81567582D01*
X208879839Y-81567589D01*
X208879841Y-81567592D01*
X209003554Y-81717869D01*
X209159733Y-81907582D01*
X209192558Y-81943742D01*
X209552558Y-82303742D01*
X209636693Y-82371545D01*
X210056793Y-82641545D01*
X210056825Y-82641563D01*
X210103929Y-82668380D01*
X210103936Y-82668383D01*
X210103951Y-82668392D01*
X210323851Y-82778392D01*
X210329090Y-82780822D01*
X210350930Y-82790953D01*
X210631024Y-82910950D01*
X210631029Y-82910952D01*
X210631034Y-82910954D01*
X210697072Y-82933982D01*
X211246972Y-83083982D01*
X211328424Y-83099162D01*
X211718424Y-83139162D01*
X211718433Y-83139161D01*
X211718435Y-83139162D01*
X211841940Y-83136655D01*
X211858205Y-83131879D01*
X211866392Y-83129474D01*
X211910771Y-83124811D01*
X212003325Y-83131880D01*
X212153325Y-83121880D01*
X212185081Y-83118754D01*
X212415081Y-83088754D01*
X212448837Y-83083184D01*
X212598837Y-83053184D01*
X212636562Y-83044120D01*
X212956562Y-82954120D01*
X213003471Y-82938412D01*
X213377522Y-82792440D01*
X213447128Y-82786407D01*
X213508949Y-82818964D01*
X213543354Y-82879776D01*
X213542374Y-82940050D01*
X213495369Y-83115473D01*
X213465000Y-83346159D01*
X213465000Y-83578840D01*
X213495369Y-83809524D01*
X213555592Y-84034279D01*
X213644632Y-84249240D01*
X213644636Y-84249250D01*
X213760970Y-84450748D01*
X213820551Y-84528394D01*
X214485884Y-83863061D01*
X214486740Y-83865126D01*
X214579762Y-84004344D01*
X214698156Y-84122738D01*
X214837374Y-84215760D01*
X214839437Y-84216614D01*
X214174104Y-84881946D01*
X214174104Y-84881947D01*
X214251752Y-84941529D01*
X214453249Y-85057863D01*
X214453259Y-85057867D01*
X214668220Y-85146907D01*
X214896894Y-85208181D01*
X214896406Y-85210000D01*
X214951573Y-85238834D01*
X214986167Y-85299539D01*
X214989500Y-85328095D01*
X214989500Y-88955538D01*
X214988720Y-88969423D01*
X214978540Y-89059764D01*
X214972362Y-89086833D01*
X214944648Y-89166037D01*
X214932600Y-89191055D01*
X214887957Y-89262104D01*
X214870644Y-89283813D01*
X214811313Y-89343144D01*
X214789604Y-89360457D01*
X214718555Y-89405100D01*
X214693537Y-89417148D01*
X214614333Y-89444862D01*
X214587264Y-89451040D01*
X214507075Y-89460076D01*
X214496921Y-89461220D01*
X214483038Y-89462000D01*
X214171683Y-89462000D01*
X214104644Y-89442315D01*
X214058889Y-89389511D01*
X214048945Y-89320353D01*
X214053752Y-89299682D01*
X214105526Y-89140335D01*
X214140000Y-88922681D01*
X214140000Y-88702318D01*
X214105526Y-88484664D01*
X214037432Y-88275089D01*
X213937388Y-88078743D01*
X213891065Y-88014985D01*
X213304612Y-88601439D01*
X213299111Y-88580909D01*
X213220119Y-88444092D01*
X213108408Y-88332381D01*
X212971591Y-88253389D01*
X212951057Y-88247887D01*
X213537513Y-87661432D01*
X213473756Y-87615111D01*
X213277410Y-87515067D01*
X213067835Y-87446973D01*
X212850181Y-87412500D01*
X212629819Y-87412500D01*
X212412164Y-87446973D01*
X212202589Y-87515067D01*
X212006233Y-87615116D01*
X211942485Y-87661431D01*
X211942485Y-87661432D01*
X212528940Y-88247887D01*
X212508409Y-88253389D01*
X212371592Y-88332381D01*
X212259881Y-88444092D01*
X212180889Y-88580909D01*
X212175387Y-88601440D01*
X211588932Y-88014985D01*
X211588931Y-88014985D01*
X211542616Y-88078733D01*
X211442567Y-88275089D01*
X211374473Y-88484664D01*
X211340000Y-88702318D01*
X211340000Y-88922681D01*
X211374473Y-89140335D01*
X211426248Y-89299682D01*
X211428243Y-89369523D01*
X211392163Y-89429356D01*
X211329462Y-89460184D01*
X211308317Y-89462000D01*
X199081683Y-89462000D01*
X199014644Y-89442315D01*
X198968889Y-89389511D01*
X198958945Y-89320353D01*
X198963752Y-89299682D01*
X199015526Y-89140335D01*
X199043456Y-88964000D01*
X199546287Y-88964000D01*
X199831270Y-88964000D01*
X200570667Y-88964000D01*
X201245483Y-88964000D01*
X201984881Y-88964000D01*
X202659697Y-88964000D01*
X203399094Y-88964000D01*
X204073911Y-88964000D01*
X204813308Y-88964000D01*
X205488124Y-88964000D01*
X206227522Y-88964000D01*
X206902338Y-88964000D01*
X207641735Y-88964000D01*
X208316551Y-88964000D01*
X209055949Y-88964000D01*
X209730765Y-88964000D01*
X210470162Y-88964000D01*
X210843713Y-88964000D01*
X210842769Y-88952020D01*
X210842482Y-88947156D01*
X210842096Y-88937339D01*
X210842000Y-88932467D01*
X210842000Y-88692533D01*
X210842096Y-88687661D01*
X210842482Y-88677844D01*
X210842769Y-88672980D01*
X210843585Y-88662607D01*
X210807570Y-88626592D01*
X210470162Y-88964000D01*
X209730765Y-88964000D01*
X209393357Y-88626592D01*
X209055949Y-88964000D01*
X208316551Y-88964000D01*
X207979143Y-88626592D01*
X207641735Y-88964000D01*
X206902338Y-88964000D01*
X206564930Y-88626592D01*
X206227522Y-88964000D01*
X205488124Y-88964000D01*
X205150716Y-88626592D01*
X204813308Y-88964000D01*
X204073911Y-88964000D01*
X203736502Y-88626591D01*
X203399094Y-88964000D01*
X202659697Y-88964000D01*
X202322289Y-88626592D01*
X201984881Y-88964000D01*
X201245483Y-88964000D01*
X200908075Y-88626592D01*
X200570667Y-88964000D01*
X199831270Y-88964000D01*
X199547616Y-88680346D01*
X199547904Y-88687661D01*
X199548000Y-88692533D01*
X199548000Y-88932467D01*
X199547904Y-88937339D01*
X199547518Y-88947156D01*
X199547231Y-88952020D01*
X199546287Y-88964000D01*
X199043456Y-88964000D01*
X199050000Y-88922681D01*
X199050000Y-88702318D01*
X199015526Y-88484664D01*
X198947432Y-88275089D01*
X198947108Y-88274453D01*
X199846001Y-88274453D01*
X200200969Y-88629421D01*
X200555937Y-88274453D01*
X201260214Y-88274453D01*
X201615182Y-88629421D01*
X201970150Y-88274453D01*
X202674428Y-88274453D01*
X203029396Y-88629421D01*
X203384364Y-88274453D01*
X204088641Y-88274453D01*
X204443609Y-88629421D01*
X204798577Y-88274453D01*
X205502855Y-88274453D01*
X205857823Y-88629421D01*
X206212791Y-88274453D01*
X206917068Y-88274453D01*
X207272036Y-88629421D01*
X207627004Y-88274453D01*
X208331282Y-88274453D01*
X208686250Y-88629421D01*
X209041218Y-88274453D01*
X209745495Y-88274453D01*
X210100463Y-88629421D01*
X210455432Y-88274453D01*
X210100463Y-87919484D01*
X209745495Y-88274453D01*
X209041218Y-88274453D01*
X208686250Y-87919485D01*
X208331282Y-88274453D01*
X207627004Y-88274453D01*
X207272036Y-87919484D01*
X206917068Y-88274453D01*
X206212791Y-88274453D01*
X205857823Y-87919485D01*
X205502855Y-88274453D01*
X204798577Y-88274453D01*
X204443609Y-87919485D01*
X204088641Y-88274453D01*
X203384364Y-88274453D01*
X203029396Y-87919485D01*
X202674428Y-88274453D01*
X201970150Y-88274453D01*
X201615182Y-87919485D01*
X201260214Y-88274453D01*
X200555937Y-88274453D01*
X200200969Y-87919485D01*
X199846001Y-88274453D01*
X198947108Y-88274453D01*
X198847388Y-88078743D01*
X198801065Y-88014985D01*
X198214612Y-88601439D01*
X198209111Y-88580909D01*
X198130119Y-88444092D01*
X198018408Y-88332381D01*
X197881591Y-88253389D01*
X197861057Y-88247887D01*
X198447513Y-87661432D01*
X198383756Y-87615111D01*
X198290013Y-87567346D01*
X199138893Y-87567346D01*
X199493862Y-87922314D01*
X199848830Y-87567346D01*
X200553106Y-87567346D01*
X200908075Y-87922314D01*
X201263043Y-87567346D01*
X201967320Y-87567346D01*
X202322289Y-87922314D01*
X202677257Y-87567346D01*
X203381534Y-87567346D01*
X203736502Y-87922314D01*
X204091471Y-87567346D01*
X204795747Y-87567346D01*
X205150716Y-87922314D01*
X205505684Y-87567346D01*
X206209961Y-87567346D01*
X206564930Y-87922314D01*
X206919898Y-87567346D01*
X207624174Y-87567346D01*
X207979143Y-87922314D01*
X208334111Y-87567346D01*
X209038388Y-87567346D01*
X209393357Y-87922314D01*
X209748325Y-87567346D01*
X210452601Y-87567346D01*
X210807570Y-87922314D01*
X211162538Y-87567346D01*
X210807570Y-87212378D01*
X210452601Y-87567346D01*
X209748325Y-87567346D01*
X209393357Y-87212378D01*
X209038388Y-87567346D01*
X208334111Y-87567346D01*
X207979143Y-87212378D01*
X207624174Y-87567346D01*
X206919898Y-87567346D01*
X206564930Y-87212378D01*
X206209961Y-87567346D01*
X205505684Y-87567346D01*
X205150716Y-87212378D01*
X204795747Y-87567346D01*
X204091471Y-87567346D01*
X203736502Y-87212377D01*
X203381534Y-87567346D01*
X202677257Y-87567346D01*
X202322289Y-87212378D01*
X201967320Y-87567346D01*
X201263043Y-87567346D01*
X200908075Y-87212378D01*
X200553106Y-87567346D01*
X199848830Y-87567346D01*
X199493862Y-87212378D01*
X199138893Y-87567346D01*
X198290013Y-87567346D01*
X198187410Y-87515067D01*
X197977835Y-87446973D01*
X197760181Y-87412500D01*
X197539819Y-87412500D01*
X197322164Y-87446973D01*
X197112589Y-87515067D01*
X196916233Y-87615116D01*
X196852485Y-87661431D01*
X196852485Y-87661432D01*
X197438940Y-88247887D01*
X197418409Y-88253389D01*
X197281592Y-88332381D01*
X197169881Y-88444092D01*
X197090889Y-88580909D01*
X197085387Y-88601440D01*
X196498932Y-88014985D01*
X196498931Y-88014985D01*
X196452616Y-88078733D01*
X196352567Y-88275089D01*
X196284473Y-88484664D01*
X196250000Y-88702318D01*
X196250000Y-88922681D01*
X196284473Y-89140335D01*
X196336248Y-89299682D01*
X196338243Y-89369523D01*
X196302163Y-89429356D01*
X196239462Y-89460184D01*
X196218317Y-89462000D01*
X192406962Y-89462000D01*
X192393078Y-89461220D01*
X192380553Y-89459808D01*
X192302735Y-89451040D01*
X192275666Y-89444862D01*
X192196462Y-89417148D01*
X192171444Y-89405100D01*
X192100395Y-89360457D01*
X192078686Y-89343144D01*
X192019355Y-89283813D01*
X192002042Y-89262104D01*
X191957399Y-89191055D01*
X191945351Y-89166037D01*
X191917637Y-89086833D01*
X191911459Y-89059763D01*
X191901280Y-88969422D01*
X191900500Y-88955538D01*
X191900500Y-88650886D01*
X192398500Y-88650886D01*
X192398500Y-88934539D01*
X192401482Y-88961015D01*
X192427970Y-88964000D01*
X192760202Y-88964000D01*
X193499599Y-88964000D01*
X194174416Y-88964000D01*
X194913813Y-88964000D01*
X195588629Y-88964000D01*
X195251221Y-88626592D01*
X194913813Y-88964000D01*
X194174416Y-88964000D01*
X193837007Y-88626591D01*
X193499599Y-88964000D01*
X192760202Y-88964000D01*
X192422794Y-88626592D01*
X192398500Y-88650886D01*
X191900500Y-88650886D01*
X191900500Y-88274453D01*
X192774933Y-88274453D01*
X193129901Y-88629421D01*
X193484869Y-88274453D01*
X194189146Y-88274453D01*
X194544114Y-88629421D01*
X194899082Y-88274453D01*
X195603360Y-88274453D01*
X195784819Y-88455912D01*
X195794134Y-88397104D01*
X195794989Y-88392315D01*
X195796903Y-88382691D01*
X195797946Y-88377935D01*
X195802512Y-88358913D01*
X195803743Y-88354196D01*
X195806410Y-88344740D01*
X195807823Y-88340082D01*
X195881965Y-88111893D01*
X195883562Y-88107288D01*
X195886962Y-88098073D01*
X195888736Y-88093541D01*
X195896223Y-88075467D01*
X195898176Y-88071002D01*
X195902286Y-88062088D01*
X195904408Y-88057713D01*
X195969265Y-87930422D01*
X195958328Y-87919485D01*
X195603360Y-88274453D01*
X194899082Y-88274453D01*
X194544114Y-87919485D01*
X194189146Y-88274453D01*
X193484869Y-88274453D01*
X193129901Y-87919485D01*
X192774933Y-88274453D01*
X191900500Y-88274453D01*
X191900500Y-87236672D01*
X192398500Y-87236672D01*
X192398500Y-87898019D01*
X192422794Y-87922314D01*
X192777762Y-87567346D01*
X193482039Y-87567346D01*
X193837007Y-87922314D01*
X194191976Y-87567346D01*
X194896252Y-87567346D01*
X195251221Y-87922314D01*
X195606189Y-87567346D01*
X195251221Y-87212378D01*
X194896252Y-87567346D01*
X194191976Y-87567346D01*
X193837007Y-87212377D01*
X193482039Y-87567346D01*
X192777762Y-87567346D01*
X192422794Y-87212378D01*
X192398500Y-87236672D01*
X191900500Y-87236672D01*
X191900500Y-86860240D01*
X192774933Y-86860240D01*
X193129901Y-87215208D01*
X193484869Y-86860240D01*
X194189146Y-86860240D01*
X194544114Y-87215208D01*
X194899082Y-86860240D01*
X195603360Y-86860240D01*
X195958328Y-87215208D01*
X196313296Y-86860240D01*
X197017573Y-86860240D01*
X197139899Y-86982566D01*
X197177583Y-86970323D01*
X197182240Y-86968910D01*
X197191696Y-86966243D01*
X197196413Y-86965012D01*
X197215435Y-86960446D01*
X197220191Y-86959403D01*
X197229815Y-86957489D01*
X197234604Y-86956634D01*
X197471571Y-86919102D01*
X197476399Y-86918434D01*
X197486144Y-86917281D01*
X197490978Y-86916805D01*
X197510480Y-86915269D01*
X197515344Y-86914982D01*
X197525161Y-86914596D01*
X197530033Y-86914500D01*
X197673250Y-86914500D01*
X197727509Y-86860240D01*
X198431787Y-86860240D01*
X198786755Y-87215208D01*
X199141723Y-86860240D01*
X199846001Y-86860240D01*
X200200969Y-87215208D01*
X200555937Y-86860240D01*
X201260214Y-86860240D01*
X201615182Y-87215208D01*
X201970150Y-86860240D01*
X202674428Y-86860240D01*
X203029396Y-87215208D01*
X203384364Y-86860240D01*
X204088641Y-86860240D01*
X204443609Y-87215208D01*
X204798577Y-86860240D01*
X204798576Y-86860239D01*
X205502854Y-86860239D01*
X205857823Y-87215208D01*
X206149554Y-86923476D01*
X206980304Y-86923476D01*
X207272036Y-87215208D01*
X207627003Y-86860240D01*
X208331282Y-86860240D01*
X208686250Y-87215208D01*
X209041218Y-86860240D01*
X209745495Y-86860240D01*
X210100463Y-87215208D01*
X210455432Y-86860240D01*
X211159709Y-86860240D01*
X211514677Y-87215208D01*
X211869645Y-86860240D01*
X212573923Y-86860240D01*
X212628183Y-86914500D01*
X212859967Y-86914500D01*
X212864839Y-86914596D01*
X212874656Y-86914982D01*
X212879520Y-86915269D01*
X212899022Y-86916805D01*
X212903856Y-86917281D01*
X212913601Y-86918434D01*
X212918429Y-86919102D01*
X213155396Y-86956634D01*
X213160185Y-86957489D01*
X213169809Y-86959403D01*
X213174565Y-86960446D01*
X213181893Y-86962205D01*
X213283857Y-86860240D01*
X213988136Y-86860240D01*
X214343104Y-87215208D01*
X214491500Y-87066812D01*
X214491500Y-86653668D01*
X214343104Y-86505272D01*
X213988136Y-86860240D01*
X213283857Y-86860240D01*
X213283858Y-86860239D01*
X212928891Y-86505272D01*
X212573923Y-86860240D01*
X211869645Y-86860240D01*
X211514677Y-86505272D01*
X211159709Y-86860240D01*
X210455432Y-86860240D01*
X210100463Y-86505271D01*
X209745495Y-86860240D01*
X209041218Y-86860240D01*
X208686250Y-86505272D01*
X208331282Y-86860240D01*
X207627003Y-86860240D01*
X207627004Y-86860239D01*
X207552849Y-86786084D01*
X207494829Y-86810118D01*
X207491044Y-86811613D01*
X207483390Y-86814493D01*
X207479590Y-86815853D01*
X207464155Y-86821094D01*
X207460276Y-86822340D01*
X207452442Y-86824716D01*
X207448546Y-86825829D01*
X207208049Y-86890270D01*
X207204114Y-86891255D01*
X207196146Y-86893113D01*
X207192177Y-86893971D01*
X207176189Y-86897151D01*
X207172200Y-86897876D01*
X207164127Y-86899209D01*
X207160111Y-86899805D01*
X206980304Y-86923476D01*
X206149554Y-86923476D01*
X206201609Y-86871421D01*
X206031455Y-86825829D01*
X206027558Y-86824716D01*
X206019724Y-86822340D01*
X206015845Y-86821094D01*
X206000410Y-86815853D01*
X205996610Y-86814493D01*
X205988956Y-86811613D01*
X205985172Y-86810118D01*
X205755144Y-86714837D01*
X205751424Y-86713224D01*
X205743966Y-86709845D01*
X205740291Y-86708107D01*
X205725672Y-86700897D01*
X205722065Y-86699044D01*
X205714855Y-86695190D01*
X205711310Y-86693220D01*
X205685040Y-86678053D01*
X205502854Y-86860239D01*
X204798576Y-86860239D01*
X204443609Y-86505272D01*
X204088641Y-86860240D01*
X203384364Y-86860240D01*
X203029396Y-86505272D01*
X202674428Y-86860240D01*
X201970150Y-86860240D01*
X201615182Y-86505272D01*
X201260214Y-86860240D01*
X200555937Y-86860240D01*
X200200969Y-86505272D01*
X199846001Y-86860240D01*
X199141723Y-86860240D01*
X198786755Y-86505272D01*
X198431787Y-86860240D01*
X197727509Y-86860240D01*
X197372541Y-86505271D01*
X197017573Y-86860240D01*
X196313296Y-86860240D01*
X195958328Y-86505272D01*
X195603360Y-86860240D01*
X194899082Y-86860240D01*
X194544114Y-86505272D01*
X194189146Y-86860240D01*
X193484869Y-86860240D01*
X193129901Y-86505272D01*
X192774933Y-86860240D01*
X191900500Y-86860240D01*
X191900500Y-86528095D01*
X191920185Y-86461056D01*
X191972989Y-86415301D01*
X191993260Y-86408757D01*
X191993106Y-86408181D01*
X192221779Y-86346907D01*
X192436740Y-86257867D01*
X192436750Y-86257863D01*
X192618148Y-86153133D01*
X193482039Y-86153133D01*
X193837007Y-86508101D01*
X194191976Y-86153133D01*
X194896253Y-86153133D01*
X195251221Y-86508101D01*
X195606189Y-86153133D01*
X196310467Y-86153133D01*
X196665435Y-86508101D01*
X197020403Y-86153133D01*
X197724680Y-86153133D01*
X198079648Y-86508101D01*
X198434616Y-86153133D01*
X199138894Y-86153133D01*
X199493862Y-86508101D01*
X199848830Y-86153133D01*
X200553107Y-86153133D01*
X200908075Y-86508101D01*
X201263043Y-86153133D01*
X201967321Y-86153133D01*
X202322289Y-86508101D01*
X202677257Y-86153133D01*
X203381534Y-86153133D01*
X203736502Y-86508101D01*
X204091471Y-86153133D01*
X204091470Y-86153132D01*
X204795747Y-86153132D01*
X205150715Y-86508100D01*
X205267612Y-86391203D01*
X205249657Y-86370041D01*
X205198752Y-86274802D01*
X205184377Y-86224461D01*
X205183987Y-86218512D01*
X205178038Y-86218123D01*
X205127695Y-86203747D01*
X205032457Y-86152842D01*
X204992534Y-86118970D01*
X204921926Y-86026953D01*
X204795747Y-86153132D01*
X204091470Y-86153132D01*
X203736502Y-85798164D01*
X203381534Y-86153133D01*
X202677257Y-86153133D01*
X202322289Y-85798165D01*
X201967321Y-86153133D01*
X201263043Y-86153133D01*
X200908075Y-85798165D01*
X200553107Y-86153133D01*
X199848830Y-86153133D01*
X199493862Y-85798165D01*
X199138894Y-86153133D01*
X198434616Y-86153133D01*
X198079648Y-85798165D01*
X197724680Y-86153133D01*
X197020403Y-86153133D01*
X196665435Y-85798165D01*
X196310467Y-86153133D01*
X195606189Y-86153133D01*
X195251221Y-85798165D01*
X194896253Y-86153133D01*
X194191976Y-86153133D01*
X193837007Y-85798164D01*
X193482039Y-86153133D01*
X192618148Y-86153133D01*
X192638255Y-86141524D01*
X192715894Y-86081947D01*
X192715894Y-86081946D01*
X192050562Y-85416614D01*
X192052626Y-85415760D01*
X192191844Y-85322738D01*
X192310238Y-85204344D01*
X192403260Y-85065126D01*
X192404114Y-85063062D01*
X193069446Y-85728394D01*
X193069447Y-85728394D01*
X193129024Y-85650755D01*
X193245363Y-85449250D01*
X193245367Y-85449240D01*
X193246698Y-85446026D01*
X194189146Y-85446026D01*
X194544114Y-85800994D01*
X194899082Y-85446026D01*
X195603360Y-85446026D01*
X195958328Y-85800994D01*
X196313296Y-85446026D01*
X197017573Y-85446026D01*
X197372541Y-85800994D01*
X197727509Y-85446026D01*
X197727508Y-85446025D01*
X198431786Y-85446025D01*
X198786755Y-85800994D01*
X199104331Y-85483417D01*
X199039704Y-85446105D01*
X201260293Y-85446105D01*
X201615182Y-85800994D01*
X201970150Y-85446026D01*
X202674428Y-85446026D01*
X203029396Y-85800994D01*
X203384364Y-85446026D01*
X204088641Y-85446026D01*
X204443608Y-85800993D01*
X204661180Y-85583421D01*
X204592382Y-85417328D01*
X204590887Y-85413544D01*
X204588007Y-85405890D01*
X204586647Y-85402090D01*
X204581406Y-85386655D01*
X204580160Y-85382776D01*
X204577784Y-85374942D01*
X204576671Y-85371046D01*
X204522892Y-85170341D01*
X204443609Y-85091058D01*
X204088641Y-85446026D01*
X203384364Y-85446026D01*
X203029396Y-85091058D01*
X202674428Y-85446026D01*
X201970150Y-85446026D01*
X201659089Y-85134965D01*
X201640343Y-85170038D01*
X201606472Y-85209961D01*
X201434951Y-85341578D01*
X201431691Y-85343995D01*
X201425029Y-85348769D01*
X201421680Y-85351087D01*
X201408125Y-85360142D01*
X201404727Y-85362333D01*
X201397788Y-85366648D01*
X201394306Y-85368735D01*
X201260293Y-85446105D01*
X199039704Y-85446105D01*
X198905689Y-85368732D01*
X198902206Y-85366645D01*
X198895256Y-85362323D01*
X198891846Y-85360123D01*
X198878292Y-85351066D01*
X198874961Y-85348761D01*
X198868311Y-85343996D01*
X198865048Y-85341577D01*
X198693529Y-85209965D01*
X198681741Y-85196071D01*
X198431786Y-85446025D01*
X197727508Y-85446025D01*
X197372541Y-85091057D01*
X197017573Y-85446026D01*
X196313296Y-85446026D01*
X195958328Y-85091058D01*
X195603360Y-85446026D01*
X194899082Y-85446026D01*
X194544114Y-85091058D01*
X194189146Y-85446026D01*
X193246698Y-85446026D01*
X193334407Y-85234279D01*
X193387087Y-85037674D01*
X193893220Y-85037674D01*
X194191976Y-84738919D01*
X194896253Y-84738919D01*
X195251221Y-85093887D01*
X195606189Y-84738919D01*
X196310467Y-84738919D01*
X196665435Y-85093887D01*
X197020403Y-84738919D01*
X197724680Y-84738919D01*
X198079647Y-85093886D01*
X198338289Y-84835244D01*
X198270923Y-84747452D01*
X198268504Y-84744189D01*
X198263739Y-84737539D01*
X198261434Y-84734208D01*
X198252377Y-84720654D01*
X198250177Y-84717244D01*
X198245855Y-84710294D01*
X198243768Y-84706811D01*
X198119280Y-84491190D01*
X198117310Y-84487645D01*
X198113456Y-84480435D01*
X198111603Y-84476828D01*
X198104393Y-84462209D01*
X198102655Y-84458534D01*
X198099276Y-84451076D01*
X198097663Y-84447356D01*
X198073815Y-84389783D01*
X197724680Y-84738919D01*
X197020403Y-84738919D01*
X196665435Y-84383951D01*
X196310467Y-84738919D01*
X195606189Y-84738919D01*
X195251221Y-84383951D01*
X194896253Y-84738919D01*
X194191976Y-84738919D01*
X193916392Y-84463335D01*
X193919803Y-84489240D01*
X193920267Y-84493268D01*
X193921069Y-84501409D01*
X193921401Y-84505457D01*
X193922467Y-84521723D01*
X193922665Y-84525771D01*
X193922933Y-84533949D01*
X193923000Y-84538010D01*
X193923000Y-84786990D01*
X193922933Y-84791051D01*
X193922665Y-84799229D01*
X193922467Y-84803277D01*
X193921401Y-84819543D01*
X193921069Y-84823591D01*
X193920267Y-84831732D01*
X193919803Y-84835760D01*
X193893220Y-85037674D01*
X193387087Y-85037674D01*
X193394630Y-85009524D01*
X193425000Y-84778840D01*
X193425000Y-84546159D01*
X193394630Y-84315475D01*
X193334407Y-84090720D01*
X193310006Y-84031812D01*
X194189145Y-84031812D01*
X194544114Y-84386781D01*
X194899082Y-84031812D01*
X195603359Y-84031812D01*
X195958328Y-84386781D01*
X196313296Y-84031812D01*
X197017572Y-84031812D01*
X197372541Y-84386781D01*
X197727509Y-84031812D01*
X197372541Y-83676844D01*
X197017572Y-84031812D01*
X196313296Y-84031812D01*
X195958328Y-83676844D01*
X195603359Y-84031812D01*
X194899082Y-84031812D01*
X194544114Y-83676844D01*
X194189145Y-84031812D01*
X193310006Y-84031812D01*
X193245367Y-83875759D01*
X193245363Y-83875749D01*
X193129029Y-83674252D01*
X193069447Y-83596604D01*
X193069446Y-83596604D01*
X192404114Y-84261936D01*
X192403260Y-84259874D01*
X192310238Y-84120656D01*
X192191844Y-84002262D01*
X192052626Y-83909240D01*
X192050561Y-83908384D01*
X192637912Y-83321033D01*
X193485711Y-83321033D01*
X193509934Y-83352601D01*
X193837007Y-83679674D01*
X194191976Y-83324706D01*
X194896253Y-83324706D01*
X195251221Y-83679674D01*
X195606189Y-83324706D01*
X196310467Y-83324706D01*
X196665435Y-83679674D01*
X197020403Y-83324706D01*
X197724680Y-83324706D01*
X197877000Y-83477026D01*
X197877000Y-83346159D01*
X198375000Y-83346159D01*
X198375000Y-83578840D01*
X198405369Y-83809524D01*
X198465592Y-84034279D01*
X198554632Y-84249240D01*
X198554636Y-84249250D01*
X198670970Y-84450748D01*
X198730551Y-84528394D01*
X199395884Y-83863060D01*
X199396740Y-83865126D01*
X199489762Y-84004344D01*
X199608156Y-84122738D01*
X199747374Y-84215760D01*
X199749437Y-84216614D01*
X199084104Y-84881946D01*
X199084104Y-84881947D01*
X199161752Y-84941529D01*
X199363249Y-85057863D01*
X199363259Y-85057867D01*
X199578220Y-85146907D01*
X199802975Y-85207130D01*
X200033659Y-85237500D01*
X200266341Y-85237500D01*
X200497024Y-85207130D01*
X200721779Y-85146907D01*
X200936740Y-85057867D01*
X200936750Y-85057863D01*
X201138255Y-84941524D01*
X201215894Y-84881947D01*
X201215894Y-84881946D01*
X201111514Y-84777566D01*
X202005968Y-84777566D01*
X202322289Y-85093887D01*
X202677257Y-84738919D01*
X203381534Y-84738919D01*
X203736502Y-85093887D01*
X204091471Y-84738919D01*
X203898711Y-84546159D01*
X204965000Y-84546159D01*
X204965000Y-84778840D01*
X204995369Y-85009524D01*
X205055592Y-85234279D01*
X205144632Y-85449240D01*
X205144636Y-85449250D01*
X205260970Y-85650748D01*
X205320551Y-85728394D01*
X205985884Y-85063060D01*
X205986740Y-85065126D01*
X206079762Y-85204344D01*
X206198156Y-85322738D01*
X206337374Y-85415760D01*
X206339437Y-85416614D01*
X205674104Y-86081946D01*
X205674104Y-86081947D01*
X205751752Y-86141529D01*
X205953249Y-86257863D01*
X205953259Y-86257867D01*
X206168220Y-86346907D01*
X206392975Y-86407130D01*
X206623659Y-86437500D01*
X206856341Y-86437500D01*
X207087024Y-86407130D01*
X207311779Y-86346907D01*
X207526740Y-86257867D01*
X207526750Y-86257863D01*
X207708148Y-86153133D01*
X209038389Y-86153133D01*
X209393357Y-86508101D01*
X209748325Y-86153133D01*
X210452602Y-86153133D01*
X210807570Y-86508101D01*
X211162538Y-86153133D01*
X211866816Y-86153133D01*
X212221784Y-86508101D01*
X212576752Y-86153133D01*
X213281029Y-86153133D01*
X213635997Y-86508101D01*
X213990965Y-86153133D01*
X213635997Y-85798164D01*
X213281029Y-86153133D01*
X212576752Y-86153133D01*
X212221784Y-85798165D01*
X211866816Y-86153133D01*
X211162538Y-86153133D01*
X210807570Y-85798165D01*
X210452602Y-86153133D01*
X209748325Y-86153133D01*
X209393357Y-85798165D01*
X209038389Y-86153133D01*
X207708148Y-86153133D01*
X207728255Y-86141524D01*
X207805894Y-86081947D01*
X207805894Y-86081946D01*
X207475079Y-85751131D01*
X208736112Y-85751131D01*
X209041218Y-85446026D01*
X209745495Y-85446026D01*
X210100463Y-85800994D01*
X210455432Y-85446026D01*
X211159709Y-85446026D01*
X211514677Y-85800994D01*
X211869645Y-85446026D01*
X212573923Y-85446026D01*
X212928891Y-85800994D01*
X213283859Y-85446026D01*
X213283858Y-85446025D01*
X213988135Y-85446025D01*
X214343104Y-85800994D01*
X214491500Y-85652598D01*
X214491500Y-85612570D01*
X214488956Y-85611613D01*
X214485172Y-85610118D01*
X214255144Y-85514837D01*
X214251424Y-85513224D01*
X214243966Y-85509845D01*
X214240291Y-85508107D01*
X214225672Y-85500897D01*
X214222065Y-85499044D01*
X214214855Y-85495190D01*
X214211310Y-85493220D01*
X214039902Y-85394258D01*
X213988135Y-85446025D01*
X213283858Y-85446025D01*
X212928891Y-85091058D01*
X212573923Y-85446026D01*
X211869645Y-85446026D01*
X211514677Y-85091058D01*
X211159709Y-85446026D01*
X210455432Y-85446026D01*
X210100463Y-85091057D01*
X209745495Y-85446026D01*
X209041218Y-85446026D01*
X208916623Y-85321431D01*
X208903329Y-85371046D01*
X208902216Y-85374942D01*
X208899840Y-85382776D01*
X208898594Y-85386655D01*
X208893353Y-85402090D01*
X208891993Y-85405890D01*
X208889113Y-85413544D01*
X208887618Y-85417328D01*
X208792337Y-85647356D01*
X208790724Y-85651076D01*
X208787345Y-85658534D01*
X208785607Y-85662209D01*
X208778397Y-85676828D01*
X208776544Y-85680435D01*
X208772690Y-85687645D01*
X208770720Y-85691190D01*
X208736112Y-85751131D01*
X207475079Y-85751131D01*
X207140562Y-85416614D01*
X207142626Y-85415760D01*
X207281844Y-85322738D01*
X207400238Y-85204344D01*
X207493260Y-85065126D01*
X207494114Y-85063062D01*
X208159446Y-85728394D01*
X208159447Y-85728394D01*
X208219024Y-85650755D01*
X208335363Y-85449250D01*
X208335367Y-85449240D01*
X208424407Y-85234279D01*
X208484630Y-85009524D01*
X208515000Y-84778840D01*
X208515000Y-84738919D01*
X209038389Y-84738919D01*
X209393357Y-85093887D01*
X209748325Y-84738919D01*
X210452602Y-84738919D01*
X210807570Y-85093887D01*
X211162538Y-84738919D01*
X211866816Y-84738919D01*
X212221784Y-85093887D01*
X212576752Y-84738919D01*
X212576751Y-84738918D01*
X213281028Y-84738918D01*
X213635997Y-85093887D01*
X213689051Y-85040832D01*
X213684377Y-85024461D01*
X213683987Y-85018512D01*
X213678038Y-85018123D01*
X213627695Y-85003747D01*
X213532457Y-84952842D01*
X213492534Y-84918970D01*
X213360923Y-84747452D01*
X213358504Y-84744189D01*
X213353739Y-84737539D01*
X213351434Y-84734208D01*
X213342377Y-84720654D01*
X213340177Y-84717244D01*
X213335855Y-84710294D01*
X213333768Y-84706811D01*
X213326216Y-84693731D01*
X213281028Y-84738918D01*
X212576751Y-84738918D01*
X212221784Y-84383951D01*
X211866816Y-84738919D01*
X211162538Y-84738919D01*
X210807570Y-84383951D01*
X210452602Y-84738919D01*
X209748325Y-84738919D01*
X209393357Y-84383951D01*
X209038389Y-84738919D01*
X208515000Y-84738919D01*
X208515000Y-84546159D01*
X208484630Y-84315475D01*
X208424407Y-84090720D01*
X208335367Y-83875759D01*
X208335363Y-83875749D01*
X208324758Y-83857381D01*
X208866786Y-83857381D01*
X208887618Y-83907672D01*
X208889113Y-83911456D01*
X208891993Y-83919110D01*
X208893353Y-83922910D01*
X208898594Y-83938345D01*
X208899840Y-83942224D01*
X208902216Y-83950058D01*
X208903329Y-83953954D01*
X208948921Y-84124108D01*
X209041217Y-84031812D01*
X209745495Y-84031812D01*
X210100463Y-84386781D01*
X210455432Y-84031812D01*
X211159708Y-84031812D01*
X211514677Y-84386781D01*
X211869645Y-84031812D01*
X212573922Y-84031812D01*
X212928890Y-84386780D01*
X213094128Y-84221543D01*
X213092382Y-84217328D01*
X213090887Y-84213544D01*
X213088007Y-84205890D01*
X213086647Y-84202090D01*
X213081406Y-84186655D01*
X213080160Y-84182776D01*
X213077784Y-84174942D01*
X213076671Y-84171046D01*
X213012230Y-83930549D01*
X213011245Y-83926614D01*
X213009387Y-83918646D01*
X213008529Y-83914677D01*
X213005349Y-83898689D01*
X213004624Y-83894700D01*
X213003291Y-83886627D01*
X213002695Y-83882611D01*
X212982688Y-83730641D01*
X212928891Y-83676844D01*
X212573922Y-84031812D01*
X211869645Y-84031812D01*
X211514677Y-83676844D01*
X211159708Y-84031812D01*
X210455432Y-84031812D01*
X210100463Y-83676844D01*
X209745495Y-84031812D01*
X209041217Y-84031812D01*
X208866786Y-83857381D01*
X208324758Y-83857381D01*
X208219029Y-83674252D01*
X208159447Y-83596604D01*
X208159446Y-83596604D01*
X207494114Y-84261936D01*
X207493260Y-84259874D01*
X207400238Y-84120656D01*
X207281844Y-84002262D01*
X207142626Y-83909240D01*
X207140560Y-83908384D01*
X207724239Y-83324706D01*
X209038389Y-83324706D01*
X209393357Y-83679674D01*
X209669349Y-83403682D01*
X210531578Y-83403682D01*
X210807569Y-83679673D01*
X210964200Y-83523043D01*
X210559774Y-83412725D01*
X210555653Y-83411524D01*
X210543289Y-83407687D01*
X210539214Y-83406345D01*
X210531578Y-83403682D01*
X209669349Y-83403682D01*
X209748325Y-83324706D01*
X209393357Y-82969738D01*
X209038389Y-83324706D01*
X207724239Y-83324706D01*
X207805894Y-83243051D01*
X207728248Y-83183470D01*
X207526750Y-83067136D01*
X207526740Y-83067132D01*
X207311779Y-82978092D01*
X207087024Y-82917869D01*
X206856341Y-82887500D01*
X206623659Y-82887500D01*
X206392975Y-82917869D01*
X206168220Y-82978092D01*
X205953259Y-83067132D01*
X205953249Y-83067136D01*
X205751747Y-83183473D01*
X205674104Y-83243050D01*
X205674104Y-83243051D01*
X206339438Y-83908385D01*
X206337374Y-83909240D01*
X206198156Y-84002262D01*
X206079762Y-84120656D01*
X205986740Y-84259874D01*
X205985885Y-84261938D01*
X205320551Y-83596604D01*
X205320550Y-83596604D01*
X205260973Y-83674247D01*
X205144636Y-83875749D01*
X205144632Y-83875759D01*
X205055592Y-84090720D01*
X204995369Y-84315475D01*
X204965000Y-84546159D01*
X203898711Y-84546159D01*
X203736502Y-84383950D01*
X203381534Y-84738919D01*
X202677257Y-84738919D01*
X202322288Y-84383950D01*
X202133825Y-84572413D01*
X202056235Y-84706806D01*
X202054148Y-84710288D01*
X202049833Y-84717227D01*
X202047642Y-84720625D01*
X202038587Y-84734180D01*
X202036269Y-84737529D01*
X202031495Y-84744191D01*
X202029077Y-84747452D01*
X202005968Y-84777566D01*
X201111514Y-84777566D01*
X200550562Y-84216614D01*
X200552626Y-84215760D01*
X200691844Y-84122738D01*
X200810238Y-84004344D01*
X200903260Y-83865126D01*
X200904114Y-83863062D01*
X201569446Y-84528394D01*
X201569447Y-84528394D01*
X201629024Y-84450755D01*
X201745363Y-84249250D01*
X201745367Y-84249240D01*
X201834407Y-84034279D01*
X201835068Y-84031812D01*
X202674427Y-84031812D01*
X203029396Y-84386781D01*
X203384364Y-84031812D01*
X204088640Y-84031812D01*
X204443608Y-84386780D01*
X204489761Y-84340626D01*
X204502695Y-84242388D01*
X204503291Y-84238373D01*
X204504624Y-84230300D01*
X204505349Y-84226311D01*
X204508529Y-84210323D01*
X204509387Y-84206354D01*
X204511245Y-84198386D01*
X204512230Y-84194451D01*
X204576671Y-83953954D01*
X204577784Y-83950058D01*
X204580160Y-83942224D01*
X204581406Y-83938345D01*
X204586647Y-83922910D01*
X204588007Y-83919110D01*
X204590887Y-83911456D01*
X204592382Y-83907672D01*
X204616415Y-83849650D01*
X204443609Y-83676844D01*
X204088640Y-84031812D01*
X203384364Y-84031812D01*
X203029396Y-83676844D01*
X202674427Y-84031812D01*
X201835068Y-84031812D01*
X201894630Y-83809524D01*
X201925000Y-83578840D01*
X201925000Y-83346159D01*
X201894630Y-83115475D01*
X201872618Y-83033324D01*
X202385875Y-83033324D01*
X202386709Y-83038373D01*
X202387305Y-83042389D01*
X202419803Y-83289240D01*
X202420267Y-83293268D01*
X202421069Y-83301409D01*
X202421401Y-83305457D01*
X202422467Y-83321723D01*
X202422665Y-83325771D01*
X202422933Y-83333949D01*
X202423000Y-83338010D01*
X202423000Y-83578963D01*
X202677257Y-83324706D01*
X203381534Y-83324706D01*
X203736502Y-83679674D01*
X204091471Y-83324706D01*
X204795748Y-83324706D01*
X204855727Y-83384685D01*
X204858506Y-83380809D01*
X204860922Y-83377551D01*
X204992532Y-83206031D01*
X205032455Y-83172159D01*
X205127694Y-83121253D01*
X205178036Y-83106877D01*
X205183986Y-83106486D01*
X205184377Y-83100536D01*
X205198753Y-83050194D01*
X205210045Y-83029067D01*
X205150716Y-82969738D01*
X204795748Y-83324706D01*
X204091471Y-83324706D01*
X203736502Y-82969737D01*
X203381534Y-83324706D01*
X202677257Y-83324706D01*
X202385875Y-83033324D01*
X201872618Y-83033324D01*
X201834407Y-82890720D01*
X201745367Y-82675759D01*
X201745363Y-82675749D01*
X201711790Y-82617599D01*
X202674428Y-82617599D01*
X203029396Y-82972567D01*
X203384364Y-82617599D01*
X204088641Y-82617599D01*
X204443609Y-82972567D01*
X204798577Y-82617599D01*
X205502855Y-82617599D01*
X205588144Y-82702888D01*
X205711311Y-82631779D01*
X205714855Y-82629810D01*
X205722065Y-82625956D01*
X205725672Y-82624103D01*
X205738860Y-82617599D01*
X208331282Y-82617599D01*
X208686250Y-82972567D01*
X209041218Y-82617599D01*
X208686250Y-82262631D01*
X208331282Y-82617599D01*
X205738860Y-82617599D01*
X205740291Y-82616893D01*
X205743966Y-82615155D01*
X205751424Y-82611776D01*
X205755144Y-82610163D01*
X205985172Y-82514882D01*
X205988956Y-82513387D01*
X205996610Y-82510507D01*
X206000410Y-82509147D01*
X206015845Y-82503906D01*
X206019724Y-82502660D01*
X206027558Y-82500284D01*
X206031454Y-82499171D01*
X206081068Y-82485876D01*
X206014495Y-82419303D01*
X207115363Y-82419303D01*
X207160111Y-82425195D01*
X207164127Y-82425791D01*
X207172200Y-82427124D01*
X207176189Y-82427849D01*
X207192177Y-82431029D01*
X207196146Y-82431887D01*
X207204114Y-82433745D01*
X207208049Y-82434730D01*
X207448546Y-82499171D01*
X207452442Y-82500284D01*
X207460276Y-82502660D01*
X207464155Y-82503906D01*
X207479590Y-82509147D01*
X207483390Y-82510507D01*
X207491044Y-82513387D01*
X207494828Y-82514882D01*
X207545118Y-82535713D01*
X207272036Y-82262630D01*
X207115363Y-82419303D01*
X206014495Y-82419303D01*
X205857823Y-82262631D01*
X205502855Y-82617599D01*
X204798577Y-82617599D01*
X204443609Y-82262631D01*
X204088641Y-82617599D01*
X203384364Y-82617599D01*
X203029396Y-82262631D01*
X202674428Y-82617599D01*
X201711790Y-82617599D01*
X201629029Y-82474252D01*
X201569447Y-82396604D01*
X201569446Y-82396604D01*
X200904114Y-83061936D01*
X200903260Y-83059874D01*
X200810238Y-82920656D01*
X200691844Y-82802262D01*
X200552626Y-82709240D01*
X200550560Y-82708384D01*
X201215894Y-82043051D01*
X201138248Y-81983470D01*
X201011845Y-81910492D01*
X201967321Y-81910492D01*
X202322289Y-82265460D01*
X202677257Y-81910492D01*
X203381534Y-81910492D01*
X203736502Y-82265460D01*
X204091471Y-81910492D01*
X204795748Y-81910492D01*
X205150716Y-82265460D01*
X205505684Y-81910492D01*
X206209962Y-81910492D01*
X206564930Y-82265460D01*
X206919898Y-81910492D01*
X207624175Y-81910492D01*
X207979143Y-82265460D01*
X208334111Y-81910492D01*
X207979143Y-81555524D01*
X207624175Y-81910492D01*
X206919898Y-81910492D01*
X206564930Y-81555524D01*
X206209962Y-81910492D01*
X205505684Y-81910492D01*
X205150716Y-81555524D01*
X204795748Y-81910492D01*
X204091471Y-81910492D01*
X203736502Y-81555523D01*
X203381534Y-81910492D01*
X202677257Y-81910492D01*
X202322289Y-81555524D01*
X201967321Y-81910492D01*
X201011845Y-81910492D01*
X200936750Y-81867136D01*
X200936740Y-81867132D01*
X200721779Y-81778092D01*
X200497024Y-81717869D01*
X200266341Y-81687500D01*
X200033659Y-81687500D01*
X199802975Y-81717869D01*
X199578220Y-81778092D01*
X199363259Y-81867132D01*
X199363249Y-81867136D01*
X199161747Y-81983473D01*
X199084104Y-82043050D01*
X199084104Y-82043051D01*
X199749438Y-82708385D01*
X199747374Y-82709240D01*
X199608156Y-82802262D01*
X199489762Y-82920656D01*
X199396740Y-83059874D01*
X199395885Y-83061938D01*
X198730551Y-82396604D01*
X198730550Y-82396604D01*
X198670973Y-82474247D01*
X198554636Y-82675749D01*
X198554632Y-82675759D01*
X198465592Y-82890720D01*
X198405369Y-83115475D01*
X198375000Y-83346159D01*
X197877000Y-83346159D01*
X197877000Y-83338010D01*
X197877067Y-83333949D01*
X197877335Y-83325771D01*
X197877533Y-83321723D01*
X197878599Y-83305457D01*
X197878931Y-83301409D01*
X197879733Y-83293268D01*
X197880197Y-83289240D01*
X197898397Y-83150988D01*
X197724680Y-83324706D01*
X197020403Y-83324706D01*
X196665435Y-82969738D01*
X196310467Y-83324706D01*
X195606189Y-83324706D01*
X195251221Y-82969738D01*
X194896253Y-83324706D01*
X194191976Y-83324706D01*
X193837007Y-82969737D01*
X193485711Y-83321033D01*
X192637912Y-83321033D01*
X192715894Y-83243051D01*
X192638248Y-83183470D01*
X192436750Y-83067136D01*
X192436740Y-83067132D01*
X192221779Y-82978092D01*
X191993107Y-82916820D01*
X191993586Y-82915030D01*
X191938329Y-82886071D01*
X191903802Y-82825328D01*
X191900500Y-82796905D01*
X191900500Y-82617599D01*
X192774933Y-82617599D01*
X192959900Y-82802566D01*
X193106470Y-82915034D01*
X193140342Y-82954958D01*
X193142838Y-82959629D01*
X193484869Y-82617599D01*
X194189146Y-82617599D01*
X194544114Y-82972567D01*
X194899082Y-82617599D01*
X195603360Y-82617599D01*
X195958328Y-82972567D01*
X196313296Y-82617599D01*
X197017573Y-82617599D01*
X197372541Y-82972567D01*
X197727509Y-82617599D01*
X197372541Y-82262630D01*
X197017573Y-82617599D01*
X196313296Y-82617599D01*
X195958328Y-82262631D01*
X195603360Y-82617599D01*
X194899082Y-82617599D01*
X194544114Y-82262631D01*
X194189146Y-82617599D01*
X193484869Y-82617599D01*
X193129901Y-82262631D01*
X192774933Y-82617599D01*
X191900500Y-82617599D01*
X191900500Y-81579818D01*
X192398500Y-81579818D01*
X192398500Y-82241166D01*
X192422794Y-82265460D01*
X192777762Y-81910492D01*
X193482039Y-81910492D01*
X193837007Y-82265460D01*
X194191976Y-81910492D01*
X194896253Y-81910492D01*
X195251221Y-82265460D01*
X195606189Y-81910492D01*
X196310467Y-81910492D01*
X196665435Y-82265460D01*
X197020403Y-81910492D01*
X197020402Y-81910491D01*
X197724679Y-81910491D01*
X198079648Y-82265460D01*
X198434616Y-81910492D01*
X198147624Y-81623500D01*
X198106024Y-81623500D01*
X198101962Y-81623433D01*
X198093785Y-81623165D01*
X198089738Y-81622967D01*
X198073472Y-81621901D01*
X198069429Y-81621569D01*
X198061285Y-81620767D01*
X198057251Y-81620303D01*
X198019799Y-81615372D01*
X197724679Y-81910491D01*
X197020402Y-81910491D01*
X196665435Y-81555524D01*
X196310467Y-81910492D01*
X195606189Y-81910492D01*
X195251221Y-81555524D01*
X194896253Y-81910492D01*
X194191976Y-81910492D01*
X193837007Y-81555523D01*
X193482039Y-81910492D01*
X192777762Y-81910492D01*
X192422794Y-81555524D01*
X192398500Y-81579818D01*
X191900500Y-81579818D01*
X191900500Y-81203385D01*
X192774932Y-81203385D01*
X193129901Y-81558353D01*
X193484869Y-81203385D01*
X194189145Y-81203385D01*
X194544114Y-81558353D01*
X194899082Y-81203385D01*
X195603359Y-81203385D01*
X195958328Y-81558353D01*
X196313296Y-81203385D01*
X196313295Y-81203384D01*
X197017572Y-81203384D01*
X197372540Y-81558353D01*
X197479333Y-81451561D01*
X197364185Y-81385080D01*
X197360708Y-81382996D01*
X197353762Y-81378677D01*
X197350353Y-81376479D01*
X197336800Y-81367424D01*
X197333461Y-81365113D01*
X197326807Y-81360345D01*
X197323544Y-81357926D01*
X197205919Y-81267667D01*
X197202744Y-81265146D01*
X197196421Y-81259957D01*
X197193322Y-81257329D01*
X197181067Y-81246581D01*
X197178074Y-81243868D01*
X197172101Y-81238275D01*
X197169175Y-81235443D01*
X197137116Y-81203384D01*
X201260213Y-81203384D01*
X201615182Y-81558353D01*
X201970150Y-81203385D01*
X202674427Y-81203385D01*
X203029396Y-81558353D01*
X203384364Y-81203385D01*
X204088640Y-81203385D01*
X204443609Y-81558353D01*
X204798577Y-81203385D01*
X205502854Y-81203385D01*
X205857823Y-81558353D01*
X206212791Y-81203385D01*
X206917067Y-81203385D01*
X207272036Y-81558353D01*
X207627004Y-81203385D01*
X207272036Y-80848416D01*
X206917067Y-81203385D01*
X206212791Y-81203385D01*
X205857823Y-80848417D01*
X205502854Y-81203385D01*
X204798577Y-81203385D01*
X204443609Y-80848417D01*
X204088640Y-81203385D01*
X203384364Y-81203385D01*
X203029396Y-80848417D01*
X202674427Y-81203385D01*
X201970150Y-81203385D01*
X201646561Y-80879796D01*
X201613781Y-80912576D01*
X201609367Y-80916779D01*
X201600271Y-80925022D01*
X201595670Y-80928991D01*
X201576764Y-80944507D01*
X201571963Y-80948253D01*
X201562105Y-80955564D01*
X201557131Y-80959067D01*
X201405685Y-81060261D01*
X201400535Y-81063522D01*
X201399389Y-81064208D01*
X201260213Y-81203384D01*
X197137116Y-81203384D01*
X197077344Y-81143612D01*
X197017572Y-81203384D01*
X196313295Y-81203384D01*
X195958328Y-80848417D01*
X195603359Y-81203385D01*
X194899082Y-81203385D01*
X194544114Y-80848417D01*
X194189145Y-81203385D01*
X193484869Y-81203385D01*
X193129901Y-80848417D01*
X192774932Y-81203385D01*
X191900500Y-81203385D01*
X191900500Y-80165605D01*
X192398500Y-80165605D01*
X192398500Y-80826953D01*
X192422794Y-80851247D01*
X192777762Y-80496279D01*
X193482039Y-80496279D01*
X193837007Y-80851247D01*
X194191976Y-80496279D01*
X194896253Y-80496279D01*
X195251221Y-80851247D01*
X195606189Y-80496279D01*
X196310467Y-80496279D01*
X196665434Y-80851246D01*
X196799850Y-80716830D01*
X196762591Y-80626879D01*
X196761101Y-80623108D01*
X196758220Y-80615454D01*
X196756854Y-80611639D01*
X196751613Y-80596203D01*
X196750369Y-80592330D01*
X196747993Y-80584497D01*
X196746879Y-80580597D01*
X196708585Y-80437683D01*
X196707600Y-80433748D01*
X196705742Y-80425780D01*
X196704885Y-80421812D01*
X196701705Y-80405825D01*
X196700979Y-80401835D01*
X196699646Y-80393762D01*
X196699050Y-80389747D01*
X196679697Y-80242749D01*
X196679233Y-80238715D01*
X196678431Y-80230571D01*
X196678099Y-80226528D01*
X196677033Y-80210262D01*
X196676835Y-80206215D01*
X196676567Y-80198038D01*
X196676500Y-80193976D01*
X196676500Y-80152376D01*
X196665435Y-80141311D01*
X196310467Y-80496279D01*
X195606189Y-80496279D01*
X195251221Y-80141311D01*
X194896253Y-80496279D01*
X194191976Y-80496279D01*
X193837007Y-80141310D01*
X193482039Y-80496279D01*
X192777762Y-80496279D01*
X192422794Y-80141311D01*
X192398500Y-80165605D01*
X191900500Y-80165605D01*
X191900500Y-79789172D01*
X192774933Y-79789172D01*
X193129901Y-80144140D01*
X193484869Y-79789172D01*
X194189146Y-79789172D01*
X194544114Y-80144140D01*
X194899082Y-79789172D01*
X195603360Y-79789172D01*
X195958328Y-80144140D01*
X196313296Y-79789172D01*
X195958328Y-79434204D01*
X195603360Y-79789172D01*
X194899082Y-79789172D01*
X194544114Y-79434204D01*
X194189146Y-79789172D01*
X193484869Y-79789172D01*
X193129901Y-79434204D01*
X192774933Y-79789172D01*
X191900500Y-79789172D01*
X191900500Y-78751391D01*
X192398500Y-78751391D01*
X192398500Y-79412739D01*
X192422794Y-79437033D01*
X192777762Y-79082065D01*
X193482039Y-79082065D01*
X193837007Y-79437033D01*
X194191976Y-79082065D01*
X194896253Y-79082065D01*
X195251221Y-79437033D01*
X195606189Y-79082065D01*
X196310467Y-79082065D01*
X196665434Y-79437032D01*
X196690989Y-79411476D01*
X196699050Y-79350253D01*
X196699646Y-79346238D01*
X196700979Y-79338165D01*
X196701705Y-79334175D01*
X196704885Y-79318188D01*
X196705742Y-79314220D01*
X196707600Y-79306252D01*
X196708585Y-79302317D01*
X196746879Y-79159403D01*
X196747993Y-79155503D01*
X196750369Y-79147670D01*
X196751613Y-79143797D01*
X196756854Y-79128361D01*
X196758220Y-79124546D01*
X196761101Y-79116892D01*
X196762591Y-79113121D01*
X196819324Y-78976156D01*
X196820937Y-78972435D01*
X196824307Y-78964997D01*
X196826036Y-78961341D01*
X196833244Y-78946720D01*
X196835105Y-78943097D01*
X196838969Y-78935868D01*
X196840940Y-78932321D01*
X196851817Y-78913479D01*
X196665435Y-78727097D01*
X196310467Y-79082065D01*
X195606189Y-79082065D01*
X195251221Y-78727097D01*
X194896253Y-79082065D01*
X194191976Y-79082065D01*
X193837007Y-78727096D01*
X193482039Y-79082065D01*
X192777762Y-79082065D01*
X192422794Y-78727097D01*
X192398500Y-78751391D01*
X191900500Y-78751391D01*
X191900500Y-78374958D01*
X192774933Y-78374958D01*
X193129901Y-78729926D01*
X193484869Y-78374958D01*
X194189146Y-78374958D01*
X194544114Y-78729926D01*
X194899082Y-78374958D01*
X195603360Y-78374958D01*
X195958328Y-78729926D01*
X196313296Y-78374958D01*
X195958328Y-78019990D01*
X195603360Y-78374958D01*
X194899082Y-78374958D01*
X194544114Y-78019990D01*
X194189146Y-78374958D01*
X193484869Y-78374958D01*
X193129901Y-78019990D01*
X192774933Y-78374958D01*
X191900500Y-78374958D01*
X191900500Y-77337177D01*
X192398500Y-77337177D01*
X192398500Y-77998526D01*
X192422794Y-78022820D01*
X192777762Y-77667851D01*
X193482039Y-77667851D01*
X193837007Y-78022820D01*
X194191976Y-77667851D01*
X194896252Y-77667851D01*
X195251221Y-78022820D01*
X195606189Y-77667851D01*
X196310466Y-77667851D01*
X196665434Y-78022819D01*
X196717457Y-77970796D01*
X196708585Y-77937683D01*
X196707600Y-77933748D01*
X196705742Y-77925780D01*
X196704885Y-77921812D01*
X196701705Y-77905825D01*
X196700979Y-77901835D01*
X196699646Y-77893762D01*
X196699050Y-77889747D01*
X196679697Y-77742749D01*
X196679233Y-77738715D01*
X196678431Y-77730571D01*
X196678099Y-77726528D01*
X196677033Y-77710262D01*
X196676835Y-77706215D01*
X196676567Y-77698038D01*
X196676500Y-77693976D01*
X196676500Y-77323948D01*
X196665435Y-77312883D01*
X196310466Y-77667851D01*
X195606189Y-77667851D01*
X195251221Y-77312883D01*
X194896252Y-77667851D01*
X194191976Y-77667851D01*
X193837007Y-77312883D01*
X193482039Y-77667851D01*
X192777762Y-77667851D01*
X192422793Y-77312883D01*
X192398500Y-77337177D01*
X191900500Y-77337177D01*
X191900500Y-76960745D01*
X192774933Y-76960745D01*
X193129901Y-77315713D01*
X193484869Y-76960745D01*
X194189146Y-76960745D01*
X194544114Y-77315713D01*
X194899082Y-76960745D01*
X195603360Y-76960745D01*
X195958328Y-77315713D01*
X196313296Y-76960745D01*
X195958328Y-76605777D01*
X195603360Y-76960745D01*
X194899082Y-76960745D01*
X194544114Y-76605777D01*
X194189146Y-76960745D01*
X193484869Y-76960745D01*
X193129901Y-76605777D01*
X192774933Y-76960745D01*
X191900500Y-76960745D01*
X191900500Y-75922964D01*
X192398500Y-75922964D01*
X192398500Y-76584312D01*
X192422794Y-76608606D01*
X192777762Y-76253638D01*
X193482039Y-76253638D01*
X193837007Y-76608606D01*
X194191976Y-76253638D01*
X194896253Y-76253638D01*
X195251221Y-76608606D01*
X195606189Y-76253638D01*
X196310467Y-76253638D01*
X196665434Y-76608605D01*
X196839965Y-76434074D01*
X196840940Y-76432321D01*
X196914920Y-76304185D01*
X196917004Y-76300708D01*
X196921323Y-76293762D01*
X196923521Y-76290353D01*
X196932576Y-76276800D01*
X196934887Y-76273461D01*
X196939655Y-76266807D01*
X196942074Y-76263544D01*
X196980383Y-76213618D01*
X196665435Y-75898670D01*
X196310467Y-76253638D01*
X195606189Y-76253638D01*
X195251221Y-75898670D01*
X194896253Y-76253638D01*
X194191976Y-76253638D01*
X193837007Y-75898669D01*
X193482039Y-76253638D01*
X192777762Y-76253638D01*
X192422794Y-75898670D01*
X192398500Y-75922964D01*
X191900500Y-75922964D01*
X191900500Y-75546531D01*
X192774933Y-75546531D01*
X193129901Y-75901499D01*
X193484869Y-75546531D01*
X194189146Y-75546531D01*
X194544114Y-75901499D01*
X194899082Y-75546531D01*
X195603360Y-75546531D01*
X195958328Y-75901499D01*
X196313296Y-75546531D01*
X195958328Y-75191563D01*
X195603360Y-75546531D01*
X194899082Y-75546531D01*
X194544114Y-75191563D01*
X194189146Y-75546531D01*
X193484869Y-75546531D01*
X193129901Y-75191563D01*
X192774933Y-75546531D01*
X191900500Y-75546531D01*
X191900500Y-74508750D01*
X192398500Y-74508750D01*
X192398500Y-75170098D01*
X192422794Y-75194392D01*
X192777762Y-74839424D01*
X193482039Y-74839424D01*
X193837007Y-75194392D01*
X194191976Y-74839424D01*
X194896253Y-74839424D01*
X195251221Y-75194392D01*
X195606189Y-74839424D01*
X196310467Y-74839424D01*
X196665434Y-75194391D01*
X196676500Y-75183325D01*
X196676500Y-74546024D01*
X196676567Y-74541962D01*
X196676835Y-74533785D01*
X196677033Y-74529738D01*
X196678099Y-74513472D01*
X196678431Y-74509429D01*
X196679233Y-74501285D01*
X196679545Y-74498566D01*
X196665435Y-74484456D01*
X196310467Y-74839424D01*
X195606189Y-74839424D01*
X195251221Y-74484456D01*
X194896253Y-74839424D01*
X194191976Y-74839424D01*
X193837007Y-74484455D01*
X193482039Y-74839424D01*
X192777762Y-74839424D01*
X192422794Y-74484456D01*
X192398500Y-74508750D01*
X191900500Y-74508750D01*
X191900500Y-74132318D01*
X192774933Y-74132318D01*
X193129901Y-74487286D01*
X193484869Y-74132318D01*
X194189146Y-74132318D01*
X194544114Y-74487286D01*
X194830328Y-74201072D01*
X195672114Y-74201072D01*
X195958328Y-74487286D01*
X196244542Y-74201072D01*
X195672114Y-74201072D01*
X194830328Y-74201072D01*
X194899082Y-74132318D01*
X194865146Y-74098382D01*
X194745859Y-74029511D01*
X194745859Y-74029512D01*
X194705514Y-74006220D01*
X194698619Y-74001932D01*
X194685005Y-73992835D01*
X194678409Y-73988108D01*
X194652527Y-73968247D01*
X194646255Y-73963099D01*
X194633952Y-73952309D01*
X194628032Y-73946765D01*
X194501365Y-73820098D01*
X194189146Y-74132318D01*
X193484869Y-74132318D01*
X193129901Y-73777350D01*
X192774933Y-74132318D01*
X191900500Y-74132318D01*
X191900500Y-73094537D01*
X192398500Y-73094537D01*
X192398500Y-73755885D01*
X192422794Y-73780179D01*
X192777762Y-73425211D01*
X192777761Y-73425210D01*
X193482039Y-73425210D01*
X193837007Y-73780178D01*
X194149227Y-73467959D01*
X193794259Y-73112991D01*
X193482039Y-73425210D01*
X192777761Y-73425210D01*
X192422794Y-73070243D01*
X192398500Y-73094537D01*
X191900500Y-73094537D01*
X191900500Y-72718103D01*
X192774932Y-72718103D01*
X193129900Y-73073071D01*
X193442120Y-72760852D01*
X193087152Y-72405884D01*
X192774932Y-72718103D01*
X191900500Y-72718103D01*
X191900500Y-71680323D01*
X192398500Y-71680323D01*
X192398500Y-72341671D01*
X192422793Y-72365964D01*
X192735012Y-72053745D01*
X192629808Y-71948541D01*
X192624260Y-71942618D01*
X192616758Y-71934063D01*
X192603555Y-71925128D01*
X192591786Y-71908178D01*
X192570365Y-71871077D01*
X192570355Y-71871061D01*
X192495868Y-71742045D01*
X192478187Y-71711422D01*
X192422794Y-71656029D01*
X192398500Y-71680323D01*
X191900500Y-71680323D01*
X191900500Y-66023469D01*
X192398500Y-66023469D01*
X192398500Y-66684817D01*
X192422794Y-66709111D01*
X192777762Y-66354143D01*
X192422794Y-65999175D01*
X192398500Y-66023469D01*
X191900500Y-66023469D01*
X191900500Y-64609255D01*
X192398500Y-64609255D01*
X192398500Y-65270602D01*
X192422794Y-65294897D01*
X192776500Y-64941190D01*
X192776500Y-64938667D01*
X192422794Y-64584961D01*
X192398500Y-64609255D01*
X191900500Y-64609255D01*
X191900500Y-63195042D01*
X192398500Y-63195042D01*
X192398500Y-63856390D01*
X192422794Y-63880684D01*
X192777762Y-63525716D01*
X192622873Y-63370827D01*
X193636927Y-63370827D01*
X193680534Y-63366140D01*
X193683849Y-63365829D01*
X193690528Y-63365292D01*
X193693835Y-63365070D01*
X193707149Y-63364357D01*
X193710460Y-63364224D01*
X193717143Y-63364045D01*
X193720463Y-63364001D01*
X193996000Y-63364000D01*
X193996000Y-63329740D01*
X193837007Y-63170747D01*
X193636927Y-63370827D01*
X192622873Y-63370827D01*
X192422794Y-63170748D01*
X192398500Y-63195042D01*
X191900500Y-63195042D01*
X191900500Y-62818609D01*
X192774933Y-62818609D01*
X193129901Y-63173577D01*
X193484869Y-62818609D01*
X193129901Y-62463641D01*
X192774933Y-62818609D01*
X191900500Y-62818609D01*
X191900500Y-61780828D01*
X192398500Y-61780828D01*
X192398500Y-62442176D01*
X192422794Y-62466470D01*
X192777762Y-62111502D01*
X193482039Y-62111502D01*
X193837007Y-62466470D01*
X194191976Y-62111502D01*
X193837007Y-61756533D01*
X193482039Y-62111502D01*
X192777762Y-62111502D01*
X192422794Y-61756534D01*
X192398500Y-61780828D01*
X191900500Y-61780828D01*
X191900500Y-61404395D01*
X192774932Y-61404395D01*
X193129901Y-61759364D01*
X193484869Y-61404395D01*
X194189145Y-61404395D01*
X194301500Y-61516750D01*
X194301500Y-61292041D01*
X194189145Y-61404395D01*
X193484869Y-61404395D01*
X193129901Y-61049427D01*
X192774932Y-61404395D01*
X191900500Y-61404395D01*
X191900500Y-60366615D01*
X192398500Y-60366615D01*
X192398500Y-61027963D01*
X192422794Y-61052257D01*
X192777762Y-60697289D01*
X193482039Y-60697289D01*
X193837007Y-61052257D01*
X194191976Y-60697289D01*
X193837007Y-60342320D01*
X193482039Y-60697289D01*
X192777762Y-60697289D01*
X192422794Y-60342321D01*
X192398500Y-60366615D01*
X191900500Y-60366615D01*
X191900500Y-59990182D01*
X192774933Y-59990182D01*
X193129901Y-60345150D01*
X193484869Y-59990182D01*
X194189146Y-59990182D01*
X194301500Y-60102536D01*
X194301500Y-59877828D01*
X194189146Y-59990182D01*
X193484869Y-59990182D01*
X193129901Y-59635214D01*
X192774933Y-59990182D01*
X191900500Y-59990182D01*
X191900500Y-58952401D01*
X192398500Y-58952401D01*
X192398500Y-59613749D01*
X192422794Y-59638043D01*
X192777762Y-59283075D01*
X193482039Y-59283075D01*
X193837007Y-59638043D01*
X194191976Y-59283075D01*
X193837007Y-58928106D01*
X193482039Y-59283075D01*
X192777762Y-59283075D01*
X192422794Y-58928107D01*
X192398500Y-58952401D01*
X191900500Y-58952401D01*
X191900500Y-58575968D01*
X192774932Y-58575968D01*
X193129901Y-58930936D01*
X193484869Y-58575968D01*
X194189145Y-58575968D01*
X194483537Y-58870359D01*
X194496353Y-58848161D01*
X194500640Y-58841266D01*
X194509737Y-58827652D01*
X194514464Y-58821056D01*
X194534325Y-58795174D01*
X194539470Y-58788905D01*
X194550260Y-58776601D01*
X194555808Y-58770678D01*
X194824799Y-58501685D01*
X194544114Y-58221000D01*
X194189145Y-58575968D01*
X193484869Y-58575968D01*
X193129901Y-58221000D01*
X192774932Y-58575968D01*
X191900500Y-58575968D01*
X191900500Y-57538188D01*
X192398500Y-57538188D01*
X192398500Y-58199536D01*
X192422794Y-58223830D01*
X192777762Y-57868862D01*
X192777761Y-57868861D01*
X193482039Y-57868861D01*
X193837007Y-58223830D01*
X194171515Y-57889323D01*
X194916714Y-57889323D01*
X195176938Y-58149547D01*
X195457706Y-57868778D01*
X195430436Y-57871463D01*
X195426538Y-57871784D01*
X195261779Y-57882768D01*
X195257364Y-57882984D01*
X195248439Y-57883260D01*
X195243999Y-57883318D01*
X195226216Y-57883231D01*
X195221806Y-57883130D01*
X195212891Y-57882769D01*
X195208464Y-57882511D01*
X195169392Y-57879526D01*
X195168338Y-57879725D01*
X195135662Y-57884761D01*
X195127498Y-57885743D01*
X195110979Y-57887177D01*
X195102772Y-57887616D01*
X194955098Y-57890614D01*
X194951304Y-57890633D01*
X194943632Y-57890554D01*
X194939812Y-57890456D01*
X194924570Y-57889829D01*
X194920791Y-57889616D01*
X194916714Y-57889323D01*
X194171515Y-57889323D01*
X194191976Y-57868862D01*
X194062481Y-57739367D01*
X193793974Y-57666125D01*
X193789853Y-57664924D01*
X193777489Y-57661087D01*
X193773414Y-57659745D01*
X193712423Y-57638477D01*
X193482039Y-57868861D01*
X192777761Y-57868861D01*
X192422794Y-57513894D01*
X192398500Y-57538188D01*
X191900500Y-57538188D01*
X191900500Y-57161755D01*
X192774933Y-57161755D01*
X193129900Y-57516722D01*
X193224733Y-57421889D01*
X193110870Y-57364932D01*
X193107918Y-57363405D01*
X193099058Y-57358672D01*
X193096136Y-57357060D01*
X193040235Y-57325235D01*
X193037358Y-57323546D01*
X193028770Y-57318346D01*
X193025953Y-57316588D01*
X192778889Y-57157798D01*
X192774933Y-57161755D01*
X191900500Y-57161755D01*
X191900500Y-55907324D01*
X191920185Y-55840285D01*
X191972989Y-55794530D01*
X192042147Y-55784586D01*
X192105703Y-55813611D01*
G37*
%TD.AperFunction*%
%TA.AperFunction,Conductor*%
G36*
X202044965Y-68140185D02*
G01*
X202090720Y-68192989D01*
X202100399Y-68225102D01*
X202121718Y-68359707D01*
X202122754Y-68366243D01*
X202185872Y-68560500D01*
X202188444Y-68568414D01*
X202284951Y-68757820D01*
X202409890Y-68929786D01*
X202560213Y-69080109D01*
X202732182Y-69205050D01*
X202740946Y-69209516D01*
X202791742Y-69257491D01*
X202808536Y-69325312D01*
X202785998Y-69391447D01*
X202740946Y-69430484D01*
X202732182Y-69434949D01*
X202560213Y-69559890D01*
X202409890Y-69710213D01*
X202284948Y-69882184D01*
X202284947Y-69882185D01*
X202264765Y-69921795D01*
X202216791Y-69972591D01*
X202154281Y-69989500D01*
X198646813Y-69989500D01*
X198646797Y-69989499D01*
X198639201Y-69989499D01*
X198481087Y-69989499D01*
X198366541Y-70020192D01*
X198328358Y-70030423D01*
X198310093Y-70040968D01*
X198305197Y-70043796D01*
X198248458Y-70076554D01*
X198191429Y-70109479D01*
X198191426Y-70109481D01*
X198079622Y-70221286D01*
X197270634Y-71030272D01*
X197209311Y-71063757D01*
X197139619Y-71058773D01*
X197110409Y-71040000D01*
X196279000Y-71040000D01*
X196211961Y-71020315D01*
X196166206Y-70967511D01*
X196155000Y-70916000D01*
X196155000Y-70664000D01*
X196174685Y-70596961D01*
X196227489Y-70551206D01*
X196279000Y-70540000D01*
X197104999Y-70540000D01*
X197104999Y-70491692D01*
X197104998Y-70491677D01*
X197094855Y-70392392D01*
X197041547Y-70231518D01*
X197041542Y-70231507D01*
X196952575Y-70087271D01*
X196952572Y-70087267D01*
X196832732Y-69967427D01*
X196832728Y-69967424D01*
X196688492Y-69878457D01*
X196688483Y-69878453D01*
X196610495Y-69852610D01*
X196553051Y-69812837D01*
X196526228Y-69748321D01*
X196525500Y-69734904D01*
X196525500Y-69594500D01*
X196545185Y-69527461D01*
X196597989Y-69481706D01*
X196649500Y-69470500D01*
X200519234Y-69470500D01*
X200586273Y-69490185D01*
X200588125Y-69491398D01*
X200719814Y-69579390D01*
X200719827Y-69579397D01*
X200865498Y-69639735D01*
X200865503Y-69639737D01*
X201020153Y-69670499D01*
X201020156Y-69670500D01*
X201020158Y-69670500D01*
X201177844Y-69670500D01*
X201177845Y-69670499D01*
X201332497Y-69639737D01*
X201478179Y-69579394D01*
X201609289Y-69491789D01*
X201720789Y-69380289D01*
X201808394Y-69249179D01*
X201868737Y-69103497D01*
X201899500Y-68948842D01*
X201899500Y-68791158D01*
X201899500Y-68791155D01*
X201899499Y-68791153D01*
X201883857Y-68712517D01*
X201868737Y-68636503D01*
X201868735Y-68636498D01*
X201808397Y-68490827D01*
X201808390Y-68490814D01*
X201720789Y-68359711D01*
X201720786Y-68359707D01*
X201693260Y-68332181D01*
X201659775Y-68270858D01*
X201664759Y-68201166D01*
X201706631Y-68145233D01*
X201772095Y-68120816D01*
X201780941Y-68120500D01*
X201977926Y-68120500D01*
X202044965Y-68140185D01*
G37*
%TD.AperFunction*%
%TA.AperFunction,Conductor*%
G36*
X202782539Y-58147685D02*
G01*
X202828294Y-58200489D01*
X202839500Y-58252000D01*
X202839500Y-58955500D01*
X202819815Y-59022539D01*
X202767011Y-59068294D01*
X202715501Y-59079500D01*
X202542130Y-59079500D01*
X202542123Y-59079501D01*
X202482516Y-59085908D01*
X202347671Y-59136202D01*
X202347664Y-59136206D01*
X202232455Y-59222452D01*
X202232452Y-59222455D01*
X202146206Y-59337664D01*
X202146202Y-59337671D01*
X202095908Y-59472517D01*
X202089501Y-59532116D01*
X202089500Y-59532135D01*
X202089500Y-61327870D01*
X202089501Y-61327876D01*
X202095908Y-61387483D01*
X202146202Y-61522328D01*
X202146206Y-61522335D01*
X202232452Y-61637544D01*
X202232455Y-61637547D01*
X202347664Y-61723793D01*
X202347671Y-61723797D01*
X202392618Y-61740561D01*
X202482517Y-61774091D01*
X202542127Y-61780500D01*
X202552685Y-61780499D01*
X202619723Y-61800179D01*
X202640372Y-61816818D01*
X203310591Y-62487037D01*
X203247007Y-62504075D01*
X203132993Y-62569901D01*
X203039901Y-62662993D01*
X202974075Y-62777007D01*
X202957037Y-62840591D01*
X202324728Y-62208282D01*
X202324727Y-62208282D01*
X202285380Y-62262439D01*
X202188904Y-62451782D01*
X202123242Y-62653869D01*
X202123242Y-62653872D01*
X202090000Y-62863753D01*
X202090000Y-63076246D01*
X202123242Y-63286127D01*
X202123242Y-63286130D01*
X202188904Y-63488217D01*
X202285375Y-63677550D01*
X202324728Y-63731716D01*
X202957037Y-63099408D01*
X202974075Y-63162993D01*
X203039901Y-63277007D01*
X203132993Y-63370099D01*
X203247007Y-63435925D01*
X203310590Y-63452962D01*
X202678282Y-64085269D01*
X202678282Y-64085270D01*
X202732452Y-64124626D01*
X202732451Y-64124626D01*
X202741495Y-64129234D01*
X202792292Y-64177208D01*
X202809087Y-64245029D01*
X202786550Y-64311164D01*
X202741499Y-64350202D01*
X202732182Y-64354949D01*
X202560213Y-64479890D01*
X202409890Y-64630213D01*
X202284951Y-64802179D01*
X202188444Y-64991585D01*
X202122753Y-65193760D01*
X202094147Y-65374375D01*
X202089500Y-65403713D01*
X202089500Y-65616287D01*
X202093376Y-65640761D01*
X202122754Y-65826244D01*
X202122754Y-65826247D01*
X202136491Y-65868523D01*
X202138486Y-65938364D01*
X202106241Y-65994522D01*
X201837582Y-66263182D01*
X201776262Y-66296666D01*
X201749903Y-66299500D01*
X196844500Y-66299500D01*
X196777461Y-66279815D01*
X196731706Y-66227011D01*
X196720500Y-66175500D01*
X196720500Y-66021152D01*
X196720499Y-66021150D01*
X196704032Y-65938364D01*
X196689737Y-65866500D01*
X196673062Y-65826243D01*
X196629397Y-65720824D01*
X196629390Y-65720811D01*
X196545407Y-65595122D01*
X196535029Y-65561977D01*
X197102630Y-65561977D01*
X197154508Y-65687222D01*
X197156698Y-65692897D01*
X197160832Y-65704450D01*
X197162741Y-65710231D01*
X197169841Y-65733636D01*
X197171462Y-65739491D01*
X197174446Y-65751399D01*
X197175782Y-65757349D01*
X197184564Y-65801500D01*
X197573045Y-65801500D01*
X197727509Y-65647035D01*
X198431786Y-65647035D01*
X198586251Y-65801500D01*
X198987259Y-65801500D01*
X198994347Y-65794410D01*
X198991071Y-65793892D01*
X198986275Y-65793036D01*
X198976654Y-65791122D01*
X198971913Y-65790082D01*
X198952890Y-65785517D01*
X198948166Y-65784284D01*
X198938706Y-65781616D01*
X198934046Y-65780203D01*
X198893880Y-65767152D01*
X199966117Y-65767152D01*
X200000465Y-65801500D01*
X200401473Y-65801500D01*
X200555937Y-65647036D01*
X201260214Y-65647036D01*
X201414678Y-65801500D01*
X201594986Y-65801500D01*
X201611941Y-65784544D01*
X201596102Y-65684533D01*
X201595434Y-65679706D01*
X201594281Y-65669961D01*
X201593805Y-65665127D01*
X201592269Y-65645625D01*
X201591982Y-65640761D01*
X201591596Y-65630944D01*
X201591500Y-65626072D01*
X201591500Y-65393928D01*
X201591596Y-65389056D01*
X201591982Y-65379239D01*
X201592269Y-65374375D01*
X201593805Y-65354873D01*
X201594281Y-65350039D01*
X201595434Y-65340294D01*
X201596102Y-65335466D01*
X201600678Y-65306571D01*
X201260214Y-65647036D01*
X200555937Y-65647036D01*
X200464307Y-65555406D01*
X200464093Y-65555533D01*
X200455527Y-65560330D01*
X200451235Y-65562624D01*
X200223361Y-65678732D01*
X200218980Y-65680856D01*
X200210054Y-65684971D01*
X200205581Y-65686928D01*
X200187508Y-65694412D01*
X200182984Y-65696182D01*
X200173781Y-65699577D01*
X200169183Y-65701172D01*
X199966117Y-65767152D01*
X198893880Y-65767152D01*
X198690817Y-65701172D01*
X198686219Y-65699577D01*
X198677016Y-65696182D01*
X198672492Y-65694412D01*
X198654419Y-65686928D01*
X198649946Y-65684971D01*
X198641020Y-65680856D01*
X198636639Y-65678732D01*
X198479935Y-65598887D01*
X198431786Y-65647035D01*
X197727509Y-65647035D01*
X197372540Y-65292067D01*
X197102630Y-65561977D01*
X196535029Y-65561977D01*
X196524529Y-65528444D01*
X196525219Y-65512982D01*
X196525500Y-65510373D01*
X196525500Y-64939928D01*
X197724679Y-64939928D01*
X197849685Y-65064935D01*
X197744478Y-64920130D01*
X197724679Y-64939928D01*
X196525500Y-64939928D01*
X196525499Y-64314628D01*
X196519091Y-64255017D01*
X196510812Y-64232820D01*
X197017574Y-64232820D01*
X197017575Y-64232825D01*
X197372541Y-64587791D01*
X197522801Y-64437530D01*
X197489797Y-64335953D01*
X197488384Y-64331294D01*
X197485716Y-64321834D01*
X197484483Y-64317110D01*
X197479918Y-64298087D01*
X197478878Y-64293346D01*
X197476964Y-64283725D01*
X197476108Y-64278929D01*
X197436100Y-64026333D01*
X197435431Y-64021498D01*
X197434277Y-64011740D01*
X197433801Y-64006901D01*
X197432267Y-63987399D01*
X197431980Y-63982540D01*
X197431595Y-63972735D01*
X197431500Y-63967870D01*
X197431500Y-63936813D01*
X197372541Y-63877854D01*
X197017574Y-64232820D01*
X196510812Y-64232820D01*
X196508317Y-64226132D01*
X196500500Y-64182800D01*
X196500500Y-62818608D01*
X197017572Y-62818608D01*
X197372541Y-63173577D01*
X197686622Y-62859495D01*
X197707377Y-62818764D01*
X197709670Y-62814473D01*
X197714467Y-62805907D01*
X197714592Y-62805692D01*
X197397628Y-62488728D01*
X197373782Y-62512576D01*
X197369367Y-62516779D01*
X197360271Y-62525022D01*
X197355670Y-62528991D01*
X197336764Y-62544507D01*
X197331963Y-62548253D01*
X197322105Y-62555564D01*
X197317131Y-62559067D01*
X197196533Y-62639647D01*
X197017572Y-62818608D01*
X196500500Y-62818608D01*
X196500500Y-62451825D01*
X196520185Y-62384786D01*
X196572989Y-62339031D01*
X196600307Y-62330208D01*
X196753497Y-62299737D01*
X196899179Y-62239394D01*
X197030289Y-62151789D01*
X197070577Y-62111501D01*
X197724679Y-62111501D01*
X198028435Y-62415257D01*
X198107267Y-62336427D01*
X198110783Y-62333048D01*
X198117993Y-62326384D01*
X198121624Y-62323156D01*
X198136499Y-62310451D01*
X198140264Y-62307362D01*
X198147975Y-62301283D01*
X198151858Y-62298343D01*
X198259687Y-62220000D01*
X198151858Y-62141657D01*
X198147975Y-62138717D01*
X198140264Y-62132638D01*
X198136499Y-62129549D01*
X198121624Y-62116844D01*
X198117993Y-62113616D01*
X198110783Y-62106952D01*
X198107267Y-62103572D01*
X197926428Y-61922733D01*
X197923048Y-61919217D01*
X197920125Y-61916055D01*
X197724679Y-62111501D01*
X197070577Y-62111501D01*
X197141789Y-62040289D01*
X197229394Y-61909179D01*
X197289737Y-61763497D01*
X197314790Y-61637547D01*
X197320638Y-61608150D01*
X197353023Y-61546239D01*
X197354521Y-61544713D01*
X197818808Y-61080425D01*
X197880131Y-61046941D01*
X197949823Y-61051925D01*
X198005756Y-61093797D01*
X198024419Y-61129787D01*
X198039432Y-61175992D01*
X198146657Y-61386433D01*
X198285483Y-61577510D01*
X198452490Y-61744517D01*
X198643567Y-61883343D01*
X198694273Y-61909179D01*
X198854003Y-61990566D01*
X198854005Y-61990566D01*
X198854008Y-61990568D01*
X198928494Y-62014770D01*
X199078631Y-62063553D01*
X199293132Y-62097527D01*
X199356267Y-62127456D01*
X199393198Y-62186768D01*
X199392200Y-62256630D01*
X199353590Y-62314863D01*
X199293132Y-62342473D01*
X199078631Y-62376446D01*
X198854003Y-62449433D01*
X198643566Y-62556657D01*
X198534550Y-62635862D01*
X198452490Y-62695483D01*
X198452488Y-62695485D01*
X198452487Y-62695485D01*
X198285485Y-62862487D01*
X198285485Y-62862488D01*
X198285483Y-62862490D01*
X198255198Y-62904174D01*
X198146657Y-63053566D01*
X198039433Y-63264003D01*
X197966446Y-63488631D01*
X197929500Y-63721902D01*
X197929500Y-63958097D01*
X197966446Y-64191368D01*
X198039433Y-64415996D01*
X198125526Y-64584961D01*
X198146657Y-64626433D01*
X198285483Y-64817510D01*
X198452490Y-64984517D01*
X198643567Y-65123343D01*
X198742991Y-65174002D01*
X198854003Y-65230566D01*
X198854005Y-65230566D01*
X198854008Y-65230568D01*
X198974412Y-65269689D01*
X199078631Y-65303553D01*
X199311903Y-65340500D01*
X199311908Y-65340500D01*
X199548097Y-65340500D01*
X199781368Y-65303553D01*
X199816718Y-65292067D01*
X200005992Y-65230568D01*
X200216433Y-65123343D01*
X200407510Y-64984517D01*
X200574517Y-64817510D01*
X200615537Y-64761050D01*
X200670863Y-64718388D01*
X200740044Y-64712322D01*
X200781156Y-64720500D01*
X200781158Y-64720500D01*
X200938844Y-64720500D01*
X200938845Y-64720499D01*
X201093497Y-64689737D01*
X201239179Y-64629394D01*
X201370289Y-64541789D01*
X201481789Y-64430289D01*
X201569394Y-64299179D01*
X201629737Y-64153497D01*
X201660500Y-63998842D01*
X201660500Y-63841158D01*
X201660500Y-63841155D01*
X201660499Y-63841153D01*
X201642137Y-63748842D01*
X201629737Y-63686503D01*
X201590244Y-63591158D01*
X201569397Y-63540827D01*
X201569390Y-63540814D01*
X201481789Y-63409711D01*
X201481786Y-63409707D01*
X201370292Y-63298213D01*
X201370288Y-63298210D01*
X201239185Y-63210609D01*
X201239172Y-63210602D01*
X201093501Y-63150264D01*
X201093489Y-63150261D01*
X200938845Y-63119500D01*
X200938842Y-63119500D01*
X200822924Y-63119500D01*
X200755885Y-63099815D01*
X200717117Y-63056959D01*
X200715884Y-63057715D01*
X200713347Y-63053576D01*
X200713343Y-63053567D01*
X200574517Y-62862490D01*
X200432828Y-62720801D01*
X201358020Y-62720801D01*
X201441051Y-62755193D01*
X201446615Y-62757659D01*
X201457709Y-62762906D01*
X201463145Y-62765642D01*
X201484715Y-62777171D01*
X201490004Y-62780167D01*
X201500535Y-62786478D01*
X201505685Y-62789739D01*
X201592158Y-62847518D01*
X201592482Y-62839279D01*
X201592769Y-62834415D01*
X201594305Y-62814913D01*
X201594781Y-62810079D01*
X201595934Y-62800334D01*
X201596602Y-62795506D01*
X201632903Y-62566313D01*
X201633759Y-62561517D01*
X201635673Y-62551896D01*
X201636714Y-62547153D01*
X201641279Y-62528131D01*
X201642508Y-62523418D01*
X201645175Y-62513959D01*
X201646591Y-62509292D01*
X201650083Y-62498542D01*
X201615181Y-62463640D01*
X201358020Y-62720801D01*
X200432828Y-62720801D01*
X200407510Y-62695483D01*
X200216433Y-62556657D01*
X200199939Y-62548253D01*
X200005996Y-62449433D01*
X199781368Y-62376446D01*
X199566867Y-62342473D01*
X199503732Y-62312544D01*
X199466801Y-62253232D01*
X199467644Y-62194207D01*
X200635812Y-62194207D01*
X200908075Y-62466470D01*
X201263043Y-62111502D01*
X201120041Y-61968500D01*
X200938930Y-61968500D01*
X200932847Y-61968351D01*
X200920590Y-61967749D01*
X200914521Y-61967301D01*
X200891290Y-61965013D01*
X200752733Y-62103572D01*
X200749217Y-62106952D01*
X200742007Y-62113616D01*
X200738376Y-62116844D01*
X200723501Y-62129549D01*
X200719736Y-62132638D01*
X200712025Y-62138717D01*
X200708142Y-62141657D01*
X200635812Y-62194207D01*
X199467644Y-62194207D01*
X199467799Y-62183370D01*
X199506409Y-62125137D01*
X199566867Y-62097527D01*
X199781368Y-62063553D01*
X200005992Y-61990568D01*
X200216433Y-61883343D01*
X200407510Y-61744517D01*
X200574517Y-61577510D01*
X200645352Y-61480012D01*
X200700681Y-61437347D01*
X200770294Y-61431367D01*
X200793120Y-61438336D01*
X200796498Y-61439735D01*
X200796503Y-61439737D01*
X200951153Y-61470499D01*
X200951156Y-61470500D01*
X200951158Y-61470500D01*
X201108844Y-61470500D01*
X201108845Y-61470499D01*
X201263497Y-61439737D01*
X201409179Y-61379394D01*
X201540289Y-61291789D01*
X201651789Y-61180289D01*
X201739394Y-61049179D01*
X201799737Y-60903497D01*
X201830500Y-60748842D01*
X201830500Y-60591158D01*
X201830500Y-60591155D01*
X201830499Y-60591153D01*
X201808410Y-60480104D01*
X201799737Y-60436503D01*
X201770327Y-60365500D01*
X201739397Y-60290827D01*
X201739390Y-60290814D01*
X201651789Y-60159711D01*
X201651786Y-60159707D01*
X201540292Y-60048213D01*
X201540288Y-60048210D01*
X201409185Y-59960609D01*
X201409172Y-59960602D01*
X201263501Y-59900264D01*
X201263489Y-59900261D01*
X201108845Y-59869500D01*
X201108842Y-59869500D01*
X200951158Y-59869500D01*
X200951153Y-59869500D01*
X200853165Y-59888991D01*
X200783573Y-59882764D01*
X200728396Y-59839900D01*
X200718493Y-59823675D01*
X200713343Y-59813567D01*
X200574517Y-59622490D01*
X200407510Y-59455483D01*
X200216433Y-59316657D01*
X200005992Y-59209432D01*
X199959788Y-59194419D01*
X199902113Y-59154982D01*
X199874915Y-59090624D01*
X199875001Y-59090125D01*
X200746055Y-59090125D01*
X200749217Y-59093048D01*
X200752733Y-59096428D01*
X200933572Y-59277267D01*
X200936952Y-59280783D01*
X200943616Y-59287993D01*
X200946844Y-59291624D01*
X200959549Y-59306499D01*
X200962638Y-59310264D01*
X200968717Y-59317975D01*
X200971657Y-59321858D01*
X201007724Y-59371500D01*
X201121070Y-59371500D01*
X201127153Y-59371649D01*
X201139410Y-59372251D01*
X201145479Y-59372699D01*
X201169820Y-59375096D01*
X201170889Y-59375227D01*
X201263042Y-59283074D01*
X200908074Y-58928106D01*
X200746055Y-59090125D01*
X199875001Y-59090125D01*
X199886830Y-59021777D01*
X199910423Y-58988812D01*
X200273235Y-58626000D01*
X201310246Y-58626000D01*
X201615182Y-58930936D01*
X201920118Y-58626000D01*
X201310246Y-58626000D01*
X200273235Y-58626000D01*
X200734917Y-58164319D01*
X200796240Y-58130834D01*
X200822598Y-58128000D01*
X202715500Y-58128000D01*
X202782539Y-58147685D01*
G37*
%TD.AperFunction*%
%TA.AperFunction,Conductor*%
G36*
X204933656Y-59357018D02*
G01*
X204938629Y-59358007D01*
X204951854Y-59360639D01*
X205013764Y-59393026D01*
X205015339Y-59394574D01*
X205337639Y-59716874D01*
X205337649Y-59716885D01*
X205341979Y-59721215D01*
X205341980Y-59721216D01*
X205453784Y-59833020D01*
X205516970Y-59869500D01*
X205590715Y-59912077D01*
X205743442Y-59953000D01*
X205743443Y-59953000D01*
X208327492Y-59953000D01*
X208394531Y-59972685D01*
X208433029Y-60011901D01*
X208477288Y-60083656D01*
X208601344Y-60207712D01*
X208750666Y-60299814D01*
X208917203Y-60354999D01*
X209019991Y-60365500D01*
X209308403Y-60365499D01*
X209375441Y-60385183D01*
X209421196Y-60437987D01*
X209431140Y-60507146D01*
X209402115Y-60570701D01*
X209396083Y-60577180D01*
X208871286Y-61101978D01*
X208759481Y-61213782D01*
X208759479Y-61213784D01*
X208736463Y-61253650D01*
X208726735Y-61270501D01*
X208680423Y-61350715D01*
X208639499Y-61503443D01*
X208639499Y-61503445D01*
X208639499Y-61671546D01*
X208639500Y-61671559D01*
X208639500Y-64235500D01*
X208619815Y-64302539D01*
X208567011Y-64348294D01*
X208515500Y-64359500D01*
X204203079Y-64359500D01*
X204136040Y-64339815D01*
X204090285Y-64287011D01*
X204080341Y-64217853D01*
X204109366Y-64154297D01*
X204143606Y-64127502D01*
X204143402Y-64127168D01*
X204146317Y-64125381D01*
X204146787Y-64125014D01*
X204147552Y-64124623D01*
X204201716Y-64085270D01*
X204201717Y-64085270D01*
X203930438Y-63813991D01*
X205084023Y-63813991D01*
X205131532Y-63861500D01*
X205169900Y-63861500D01*
X205505684Y-63525716D01*
X206209962Y-63525716D01*
X206545746Y-63861500D01*
X206584114Y-63861500D01*
X206919898Y-63525716D01*
X207624175Y-63525716D01*
X207959959Y-63861500D01*
X207998327Y-63861500D01*
X208141500Y-63718327D01*
X208141500Y-63333105D01*
X207979143Y-63170748D01*
X207624175Y-63525716D01*
X206919898Y-63525716D01*
X206564930Y-63170748D01*
X206209962Y-63525716D01*
X205505684Y-63525716D01*
X205261666Y-63281698D01*
X205247097Y-63373687D01*
X205246241Y-63378483D01*
X205244327Y-63388104D01*
X205243286Y-63392847D01*
X205238721Y-63411869D01*
X205237492Y-63416582D01*
X205234825Y-63426041D01*
X205233409Y-63430709D01*
X205161698Y-63651414D01*
X205160101Y-63656019D01*
X205156701Y-63665234D01*
X205154927Y-63669766D01*
X205147440Y-63687840D01*
X205145492Y-63692295D01*
X205141383Y-63701209D01*
X205139255Y-63705594D01*
X205084023Y-63813991D01*
X203930438Y-63813991D01*
X203569408Y-63452962D01*
X203632993Y-63435925D01*
X203747007Y-63370099D01*
X203840099Y-63277007D01*
X203905925Y-63162993D01*
X203922962Y-63099408D01*
X204555270Y-63731717D01*
X204555270Y-63731716D01*
X204594622Y-63677554D01*
X204691095Y-63488217D01*
X204756757Y-63286130D01*
X204756757Y-63286127D01*
X204790000Y-63076246D01*
X204790000Y-62863753D01*
X204782850Y-62818609D01*
X205502855Y-62818609D01*
X205857823Y-63173577D01*
X206212791Y-62818609D01*
X206917068Y-62818609D01*
X207272036Y-63173577D01*
X207627004Y-62818609D01*
X207272036Y-62463640D01*
X206917068Y-62818609D01*
X206212791Y-62818609D01*
X205857823Y-62463641D01*
X205502855Y-62818609D01*
X204782850Y-62818609D01*
X204756757Y-62653872D01*
X204756757Y-62653869D01*
X204691095Y-62451782D01*
X204594624Y-62262449D01*
X204555270Y-62208282D01*
X204555269Y-62208282D01*
X203922962Y-62840590D01*
X203905925Y-62777007D01*
X203840099Y-62662993D01*
X203747007Y-62569901D01*
X203632993Y-62504075D01*
X203569409Y-62487037D01*
X204073798Y-61982647D01*
X205006722Y-61982647D01*
X205011496Y-61989792D01*
X205014123Y-61993896D01*
X205024344Y-62010575D01*
X205026803Y-62014770D01*
X205031603Y-62023340D01*
X205033901Y-62027640D01*
X205139255Y-62234406D01*
X205141383Y-62238791D01*
X205145492Y-62247705D01*
X205147440Y-62252160D01*
X205154927Y-62270234D01*
X205156701Y-62274766D01*
X205160101Y-62283981D01*
X205161698Y-62288586D01*
X205202628Y-62414557D01*
X205505684Y-62111502D01*
X206209962Y-62111502D01*
X206564930Y-62466470D01*
X206919898Y-62111502D01*
X207624175Y-62111502D01*
X207979143Y-62466470D01*
X208141500Y-62304113D01*
X208141500Y-61918891D01*
X207979143Y-61756534D01*
X207624175Y-62111502D01*
X206919898Y-62111502D01*
X206564930Y-61756534D01*
X206209962Y-62111502D01*
X205505684Y-62111502D01*
X205165334Y-61771152D01*
X205162348Y-61776621D01*
X205157835Y-61784229D01*
X205148181Y-61799252D01*
X205143129Y-61806528D01*
X205035547Y-61950237D01*
X205029996Y-61957126D01*
X205018303Y-61970621D01*
X205012269Y-61977101D01*
X205006722Y-61982647D01*
X204073798Y-61982647D01*
X204239627Y-61816818D01*
X204300950Y-61783333D01*
X204327307Y-61780499D01*
X204337872Y-61780499D01*
X204397483Y-61774091D01*
X204532331Y-61723796D01*
X204647546Y-61637546D01*
X204733796Y-61522331D01*
X204777783Y-61404395D01*
X205502854Y-61404395D01*
X205857823Y-61759364D01*
X206212791Y-61404395D01*
X206917067Y-61404395D01*
X207272036Y-61759364D01*
X207627004Y-61404395D01*
X207272036Y-61049427D01*
X206917067Y-61404395D01*
X206212791Y-61404395D01*
X205857823Y-61049427D01*
X205502854Y-61404395D01*
X204777783Y-61404395D01*
X204784091Y-61387483D01*
X204790500Y-61327873D01*
X204790500Y-60914473D01*
X205288499Y-60914473D01*
X205505682Y-60697289D01*
X206209962Y-60697289D01*
X206564930Y-61052257D01*
X206919898Y-60697289D01*
X207624175Y-60697289D01*
X207979143Y-61052257D01*
X208334111Y-60697289D01*
X208087822Y-60451000D01*
X207870464Y-60451000D01*
X207624175Y-60697289D01*
X206919898Y-60697289D01*
X206673609Y-60451000D01*
X206456251Y-60451000D01*
X206209962Y-60697289D01*
X205505682Y-60697289D01*
X205505683Y-60697288D01*
X205288499Y-60480104D01*
X205288499Y-60914473D01*
X204790500Y-60914473D01*
X204790499Y-59532128D01*
X204786173Y-59491888D01*
X204798579Y-59423130D01*
X204846190Y-59371993D01*
X204913889Y-59354714D01*
X204933656Y-59357018D01*
G37*
%TD.AperFunction*%
%TA.AperFunction,Conductor*%
G36*
X212998255Y-63981594D02*
G01*
X213056118Y-64020755D01*
X213083623Y-64084983D01*
X213084500Y-64099704D01*
X213084500Y-64147868D01*
X213084501Y-64147870D01*
X213090007Y-64199093D01*
X213090007Y-64225599D01*
X213087518Y-64248753D01*
X213060781Y-64313305D01*
X213003389Y-64353154D01*
X212964228Y-64359500D01*
X211939098Y-64359500D01*
X211872059Y-64339815D01*
X211826304Y-64287011D01*
X211816360Y-64217853D01*
X211845385Y-64154297D01*
X211851417Y-64147819D01*
X211953417Y-64045819D01*
X212014740Y-64012334D01*
X212041098Y-64009500D01*
X212652331Y-64009500D01*
X212652347Y-64009501D01*
X212659943Y-64009501D01*
X212818055Y-64009501D01*
X212818057Y-64009501D01*
X212928407Y-63979932D01*
X212998255Y-63981594D01*
G37*
%TD.AperFunction*%
%TA.AperFunction,Conductor*%
G36*
X199389442Y-45932685D02*
G01*
X199410084Y-45949319D01*
X203075681Y-49614916D01*
X203109166Y-49676239D01*
X203112000Y-49702597D01*
X203112000Y-51184191D01*
X203092315Y-51251230D01*
X203075681Y-51271872D01*
X203044423Y-51303129D01*
X203044417Y-51303137D01*
X202960755Y-51444603D01*
X202960754Y-51444606D01*
X202914902Y-51602426D01*
X202914901Y-51602432D01*
X202912000Y-51639298D01*
X202912000Y-52805500D01*
X202892315Y-52872539D01*
X202839511Y-52918294D01*
X202788000Y-52929500D01*
X202546798Y-52929500D01*
X202509932Y-52932401D01*
X202509926Y-52932402D01*
X202352106Y-52978254D01*
X202352103Y-52978255D01*
X202210637Y-53061917D01*
X202210629Y-53061923D01*
X202094423Y-53178129D01*
X202094417Y-53178137D01*
X202010755Y-53319603D01*
X202010754Y-53319606D01*
X201964902Y-53477426D01*
X201964901Y-53477432D01*
X201962000Y-53514298D01*
X201962000Y-54820701D01*
X201964901Y-54857567D01*
X201964902Y-54857573D01*
X202010754Y-55015393D01*
X202010755Y-55015396D01*
X202094417Y-55156862D01*
X202094423Y-55156870D01*
X202210629Y-55273076D01*
X202210633Y-55273079D01*
X202210635Y-55273081D01*
X202352102Y-55356744D01*
X202364934Y-55360472D01*
X202509926Y-55402597D01*
X202509929Y-55402597D01*
X202509931Y-55402598D01*
X202546806Y-55405500D01*
X202546814Y-55405500D01*
X202978186Y-55405500D01*
X202978194Y-55405500D01*
X203015069Y-55402598D01*
X203047932Y-55393050D01*
X203117798Y-55393247D01*
X203170209Y-55424444D01*
X203403584Y-55657819D01*
X203437069Y-55719142D01*
X203432085Y-55788834D01*
X203390213Y-55844767D01*
X203324749Y-55869184D01*
X203315903Y-55869500D01*
X200706669Y-55869500D01*
X200706653Y-55869499D01*
X200699057Y-55869499D01*
X200540943Y-55869499D01*
X200388215Y-55910423D01*
X200388213Y-55910423D01*
X200388213Y-55910424D01*
X200387680Y-55910732D01*
X200339612Y-55938484D01*
X200251287Y-55989477D01*
X200251282Y-55989481D01*
X196212181Y-60028583D01*
X196150858Y-60062068D01*
X196081166Y-60057084D01*
X196025233Y-60015212D01*
X196000816Y-59949748D01*
X196000500Y-59940902D01*
X196000500Y-59780096D01*
X196020185Y-59713057D01*
X196036814Y-59692420D01*
X199818506Y-55910727D01*
X199818511Y-55910724D01*
X199828714Y-55900520D01*
X199828716Y-55900520D01*
X199940520Y-55788716D01*
X199992393Y-55698869D01*
X200019577Y-55651785D01*
X200060500Y-55499057D01*
X200060500Y-55340943D01*
X200060500Y-55035041D01*
X200558500Y-55035041D01*
X200558500Y-55045828D01*
X200884172Y-55371500D01*
X200931978Y-55371500D01*
X201263043Y-55040434D01*
X200908074Y-54685466D01*
X200558500Y-55035041D01*
X200060500Y-55035041D01*
X200060500Y-54333328D01*
X201260214Y-54333328D01*
X201464000Y-54537114D01*
X201464000Y-54129542D01*
X201260214Y-54333328D01*
X200060500Y-54333328D01*
X200060500Y-53620828D01*
X200558500Y-53620828D01*
X200558500Y-53631614D01*
X200908075Y-53981189D01*
X201263043Y-53626221D01*
X200908075Y-53271253D01*
X200558500Y-53620828D01*
X200060500Y-53620828D01*
X200060500Y-53119059D01*
X200060501Y-53119046D01*
X200060501Y-52950945D01*
X200060501Y-52950943D01*
X200051972Y-52919114D01*
X201260214Y-52919114D01*
X201530106Y-53189006D01*
X201536899Y-53165625D01*
X201539308Y-53158210D01*
X201544633Y-53143422D01*
X201547499Y-53136184D01*
X201559936Y-53107445D01*
X201563254Y-53100394D01*
X201570386Y-53086398D01*
X201574137Y-53079576D01*
X201673739Y-52911157D01*
X201677912Y-52904582D01*
X201686743Y-52891587D01*
X201691320Y-52885285D01*
X201710513Y-52860540D01*
X201715483Y-52854533D01*
X201725876Y-52842745D01*
X201731207Y-52837069D01*
X201809656Y-52758620D01*
X201615182Y-52564146D01*
X201260214Y-52919114D01*
X200051972Y-52919114D01*
X200019577Y-52798215D01*
X199976276Y-52723216D01*
X199940520Y-52661284D01*
X199926986Y-52647750D01*
X199893501Y-52586427D01*
X199898485Y-52516735D01*
X199940357Y-52460802D01*
X200005821Y-52436385D01*
X200030860Y-52437131D01*
X200033662Y-52437500D01*
X200266341Y-52437500D01*
X200497024Y-52407130D01*
X200721779Y-52346907D01*
X200936740Y-52257867D01*
X200936750Y-52257863D01*
X201016175Y-52212007D01*
X201967321Y-52212007D01*
X202245848Y-52490534D01*
X202383205Y-52450628D01*
X202389333Y-52449016D01*
X202401755Y-52446086D01*
X202407940Y-52444792D01*
X202414000Y-52443685D01*
X202414000Y-51948750D01*
X202322289Y-51857039D01*
X201967321Y-52212007D01*
X201016175Y-52212007D01*
X201138255Y-52141524D01*
X201215894Y-52081947D01*
X201215894Y-52081946D01*
X200550561Y-51416614D01*
X200552626Y-51415760D01*
X200691844Y-51322738D01*
X200810238Y-51204344D01*
X200903260Y-51065126D01*
X200904114Y-51063062D01*
X201569446Y-51728394D01*
X201569447Y-51728394D01*
X201629024Y-51650755D01*
X201745363Y-51449250D01*
X201745367Y-51449240D01*
X201834407Y-51234279D01*
X201873420Y-51088681D01*
X202386369Y-51088681D01*
X202614000Y-50861051D01*
X202614000Y-50734537D01*
X202423000Y-50543537D01*
X202423000Y-50786990D01*
X202422933Y-50791051D01*
X202422665Y-50799229D01*
X202422467Y-50803277D01*
X202421401Y-50819543D01*
X202421069Y-50823591D01*
X202420267Y-50831732D01*
X202419803Y-50835760D01*
X202387305Y-51082611D01*
X202386709Y-51086627D01*
X202386369Y-51088681D01*
X201873420Y-51088681D01*
X201894630Y-51009524D01*
X201925000Y-50778840D01*
X201925000Y-50546159D01*
X201894630Y-50315475D01*
X201834407Y-50090720D01*
X201745367Y-49875759D01*
X201745363Y-49875749D01*
X201629029Y-49674252D01*
X201569447Y-49596604D01*
X201569446Y-49596604D01*
X200904114Y-50261936D01*
X200903260Y-50259874D01*
X200810238Y-50120656D01*
X200691844Y-50002262D01*
X200552626Y-49909240D01*
X200550560Y-49908384D01*
X201112928Y-49346017D01*
X202004882Y-49346017D01*
X202029077Y-49377549D01*
X202031496Y-49380811D01*
X202036261Y-49387461D01*
X202038566Y-49390792D01*
X202047623Y-49404346D01*
X202049823Y-49407756D01*
X202054145Y-49414706D01*
X202056232Y-49418189D01*
X202130408Y-49546667D01*
X202322289Y-49738548D01*
X202408662Y-49652175D01*
X202053693Y-49297206D01*
X202004882Y-49346017D01*
X201112928Y-49346017D01*
X201215894Y-49243051D01*
X201138248Y-49183470D01*
X200936750Y-49067136D01*
X200936740Y-49067132D01*
X200721779Y-48978092D01*
X200497024Y-48917869D01*
X200266341Y-48887500D01*
X200033659Y-48887500D01*
X199802975Y-48917869D01*
X199578220Y-48978092D01*
X199363259Y-49067132D01*
X199363249Y-49067136D01*
X199161747Y-49183473D01*
X199084104Y-49243050D01*
X199084104Y-49243051D01*
X199749438Y-49908385D01*
X199747374Y-49909240D01*
X199608156Y-50002262D01*
X199489762Y-50120656D01*
X199396740Y-50259874D01*
X199395884Y-50261938D01*
X198730551Y-49596604D01*
X198730550Y-49596604D01*
X198670973Y-49674247D01*
X198554636Y-49875749D01*
X198554632Y-49875759D01*
X198465592Y-50090720D01*
X198405369Y-50315476D01*
X198404374Y-50323033D01*
X198376103Y-50386928D01*
X198317776Y-50425395D01*
X198247911Y-50426221D01*
X198193755Y-50394520D01*
X197740792Y-49941557D01*
X197707307Y-49880234D01*
X197712291Y-49810542D01*
X197722932Y-49788782D01*
X197797003Y-49668697D01*
X197850349Y-49507708D01*
X197860500Y-49408345D01*
X197860499Y-48811656D01*
X197859539Y-48802262D01*
X197850349Y-48712292D01*
X197850348Y-48712289D01*
X197838480Y-48676473D01*
X198431786Y-48676473D01*
X198682888Y-48927575D01*
X198693531Y-48915032D01*
X198865051Y-48783422D01*
X198868309Y-48781006D01*
X198874957Y-48776242D01*
X198878292Y-48773934D01*
X198891846Y-48764877D01*
X198895256Y-48762677D01*
X198902206Y-48758355D01*
X198905689Y-48756268D01*
X199043898Y-48676473D01*
X201260213Y-48676473D01*
X201265829Y-48682089D01*
X201394311Y-48756268D01*
X201397794Y-48758355D01*
X201404744Y-48762677D01*
X201408154Y-48764877D01*
X201421708Y-48773934D01*
X201425039Y-48776239D01*
X201431689Y-48781004D01*
X201434952Y-48783423D01*
X201606470Y-48915034D01*
X201640342Y-48954957D01*
X201658219Y-48988403D01*
X201701555Y-48945068D01*
X201346587Y-48590100D01*
X201260213Y-48676473D01*
X199043898Y-48676473D01*
X199105916Y-48640667D01*
X198786755Y-48321505D01*
X198431786Y-48676473D01*
X197838480Y-48676473D01*
X197838240Y-48675749D01*
X197797003Y-48551303D01*
X197796999Y-48551297D01*
X197796998Y-48551294D01*
X197721437Y-48428792D01*
X197702996Y-48361400D01*
X197720857Y-48299547D01*
X197808478Y-48154606D01*
X197859086Y-47992196D01*
X197861161Y-47969367D01*
X199138894Y-47969367D01*
X199493862Y-48324335D01*
X199848830Y-47969367D01*
X199848829Y-47969366D01*
X200553106Y-47969366D01*
X200908074Y-48324334D01*
X200994448Y-48237961D01*
X200639480Y-47882993D01*
X200553106Y-47969366D01*
X199848829Y-47969366D01*
X199493862Y-47614399D01*
X199138894Y-47969367D01*
X197861161Y-47969367D01*
X197865500Y-47921616D01*
X197865500Y-47262260D01*
X198431787Y-47262260D01*
X198786755Y-47617228D01*
X199141723Y-47262260D01*
X199846001Y-47262260D01*
X200200969Y-47617228D01*
X200287342Y-47530855D01*
X199932374Y-47175887D01*
X199846001Y-47262260D01*
X199141723Y-47262260D01*
X198992271Y-47112808D01*
X198991218Y-47113290D01*
X198983039Y-47116678D01*
X198816927Y-47178634D01*
X198809587Y-47181113D01*
X198794636Y-47185648D01*
X198787160Y-47187663D01*
X198756856Y-47194824D01*
X198749265Y-47196370D01*
X198733863Y-47199007D01*
X198726190Y-47200075D01*
X198644466Y-47208860D01*
X198641168Y-47209170D01*
X198634488Y-47209708D01*
X198631154Y-47209931D01*
X198617838Y-47210643D01*
X198614538Y-47210776D01*
X198607856Y-47210955D01*
X198604535Y-47210999D01*
X198483048Y-47210999D01*
X198431787Y-47262260D01*
X197865500Y-47262260D01*
X197865500Y-47258384D01*
X197859086Y-47187804D01*
X197808478Y-47025394D01*
X197733367Y-46901146D01*
X197715532Y-46833595D01*
X197737049Y-46767121D01*
X197791090Y-46722833D01*
X197839485Y-46712999D01*
X198597871Y-46712999D01*
X198597872Y-46712999D01*
X198657483Y-46706591D01*
X198792331Y-46656296D01*
X198907546Y-46570046D01*
X198993796Y-46454831D01*
X199044091Y-46319983D01*
X199050500Y-46260373D01*
X199050500Y-46037000D01*
X199070185Y-45969961D01*
X199122989Y-45924206D01*
X199174500Y-45913000D01*
X199322403Y-45913000D01*
X199389442Y-45932685D01*
G37*
%TD.AperFunction*%
%TA.AperFunction,Conductor*%
G36*
X214496922Y-44661280D02*
G01*
X214587266Y-44671459D01*
X214614331Y-44677636D01*
X214693540Y-44705352D01*
X214718553Y-44717398D01*
X214789606Y-44762043D01*
X214811313Y-44779355D01*
X214870644Y-44838686D01*
X214887957Y-44860395D01*
X214932600Y-44931444D01*
X214944648Y-44956462D01*
X214972362Y-45035666D01*
X214978540Y-45062735D01*
X214988720Y-45153076D01*
X214989500Y-45166961D01*
X214989500Y-48796905D01*
X214969815Y-48863944D01*
X214917011Y-48909699D01*
X214896741Y-48916254D01*
X214896893Y-48916820D01*
X214668220Y-48978092D01*
X214453259Y-49067132D01*
X214453249Y-49067136D01*
X214251747Y-49183473D01*
X214174104Y-49243050D01*
X214174104Y-49243051D01*
X214839438Y-49908384D01*
X214837374Y-49909240D01*
X214698156Y-50002262D01*
X214579762Y-50120656D01*
X214486740Y-50259874D01*
X214485885Y-50261938D01*
X213820551Y-49596604D01*
X213820550Y-49596604D01*
X213760973Y-49674247D01*
X213644636Y-49875749D01*
X213644632Y-49875759D01*
X213555592Y-50090720D01*
X213495369Y-50315475D01*
X213465000Y-50546159D01*
X213465000Y-50778840D01*
X213495369Y-51009524D01*
X213555592Y-51234279D01*
X213644632Y-51449240D01*
X213644636Y-51449250D01*
X213760970Y-51650748D01*
X213820551Y-51728394D01*
X214485884Y-51063061D01*
X214486740Y-51065126D01*
X214579762Y-51204344D01*
X214698156Y-51322738D01*
X214837374Y-51415760D01*
X214839437Y-51416614D01*
X214174104Y-52081946D01*
X214174104Y-52081947D01*
X214251752Y-52141529D01*
X214453249Y-52257863D01*
X214453259Y-52257867D01*
X214668220Y-52346907D01*
X214896894Y-52408181D01*
X214896406Y-52410000D01*
X214951573Y-52438834D01*
X214986167Y-52499539D01*
X214989500Y-52528095D01*
X214989500Y-57918403D01*
X214969815Y-57985442D01*
X214917011Y-58031197D01*
X214847853Y-58041141D01*
X214784297Y-58012116D01*
X214777819Y-58006084D01*
X214676818Y-57905083D01*
X214643333Y-57843760D01*
X214640499Y-57817411D01*
X214640499Y-57204992D01*
X214638700Y-57187385D01*
X214629999Y-57102203D01*
X214629998Y-57102200D01*
X214628444Y-57097509D01*
X214574814Y-56935666D01*
X214482712Y-56786344D01*
X214358656Y-56662288D01*
X214265888Y-56605069D01*
X214209336Y-56570187D01*
X214209331Y-56570185D01*
X214169985Y-56557147D01*
X214042797Y-56515001D01*
X214042795Y-56515000D01*
X213940010Y-56504500D01*
X212939998Y-56504500D01*
X212939980Y-56504501D01*
X212837203Y-56515000D01*
X212837200Y-56515001D01*
X212670668Y-56570185D01*
X212670659Y-56570189D01*
X212525096Y-56659973D01*
X212457704Y-56678413D01*
X212394904Y-56659973D01*
X212351708Y-56633330D01*
X212304983Y-56581383D01*
X212293760Y-56512420D01*
X212321603Y-56448338D01*
X212329109Y-56440124D01*
X213021695Y-55747541D01*
X213988136Y-55747541D01*
X214324221Y-56083626D01*
X214352586Y-56093026D01*
X214491500Y-55954112D01*
X214491500Y-55540969D01*
X214343104Y-55392573D01*
X213988136Y-55747541D01*
X213021695Y-55747541D01*
X213080520Y-55688716D01*
X213159577Y-55551784D01*
X213200501Y-55399057D01*
X213200501Y-55240942D01*
X213200501Y-55233347D01*
X213200500Y-55233329D01*
X213200500Y-55226381D01*
X213698500Y-55226381D01*
X213698501Y-55226420D01*
X213698501Y-55332899D01*
X213990965Y-55040434D01*
X213698500Y-54747969D01*
X213698500Y-55226381D01*
X213200500Y-55226381D01*
X213200500Y-54333328D01*
X213988136Y-54333328D01*
X214343104Y-54688296D01*
X214491500Y-54539900D01*
X214491500Y-54126756D01*
X214343104Y-53978360D01*
X213988136Y-54333328D01*
X213200500Y-54333328D01*
X213200500Y-53918686D01*
X213698500Y-53918686D01*
X213990965Y-53626221D01*
X213698500Y-53333755D01*
X213698500Y-53918686D01*
X213200500Y-53918686D01*
X213200500Y-53000945D01*
X213200499Y-53000941D01*
X213194420Y-52978254D01*
X213181357Y-52929500D01*
X213178574Y-52919113D01*
X213988135Y-52919113D01*
X214343104Y-53274082D01*
X214491500Y-53125686D01*
X214491500Y-52812570D01*
X214488956Y-52811613D01*
X214485172Y-52810118D01*
X214255144Y-52714837D01*
X214251424Y-52713224D01*
X214243966Y-52709845D01*
X214240291Y-52708107D01*
X214225672Y-52700897D01*
X214222065Y-52699044D01*
X214214855Y-52695190D01*
X214213057Y-52694191D01*
X213988135Y-52919113D01*
X213178574Y-52919113D01*
X213167008Y-52875945D01*
X213159577Y-52848216D01*
X213159577Y-52848215D01*
X213130639Y-52798095D01*
X213080520Y-52711284D01*
X212968716Y-52599480D01*
X212968715Y-52599479D01*
X212964385Y-52595149D01*
X212964374Y-52595139D01*
X212578996Y-52209761D01*
X213283274Y-52209761D01*
X213312472Y-52238959D01*
X213312519Y-52239004D01*
X213444193Y-52370679D01*
X213449737Y-52376599D01*
X213460527Y-52388902D01*
X213465675Y-52395174D01*
X213470553Y-52401531D01*
X213635997Y-52566975D01*
X213788892Y-52414079D01*
X213783529Y-52409964D01*
X213749657Y-52370041D01*
X213698752Y-52274802D01*
X213684377Y-52224461D01*
X213683987Y-52218512D01*
X213678038Y-52218123D01*
X213627695Y-52203747D01*
X213532457Y-52152842D01*
X213492534Y-52118970D01*
X213441097Y-52051937D01*
X213283274Y-52209761D01*
X212578996Y-52209761D01*
X212336819Y-51967584D01*
X212303334Y-51906261D01*
X212300500Y-51879903D01*
X212300500Y-51280324D01*
X212798500Y-51280324D01*
X212798500Y-51724987D01*
X212931136Y-51857623D01*
X213174113Y-51614645D01*
X213092382Y-51417328D01*
X213090887Y-51413544D01*
X213088007Y-51405890D01*
X213086647Y-51402090D01*
X213081406Y-51386655D01*
X213080160Y-51382776D01*
X213077784Y-51374942D01*
X213076671Y-51371046D01*
X213049829Y-51270871D01*
X212928891Y-51149933D01*
X212798500Y-51280324D01*
X212300500Y-51280324D01*
X212300500Y-50336026D01*
X212819262Y-50336026D01*
X212928890Y-50445654D01*
X212983067Y-50391478D01*
X213002695Y-50242389D01*
X213003291Y-50238373D01*
X213004624Y-50230300D01*
X213005349Y-50226311D01*
X213008529Y-50210323D01*
X213009387Y-50206354D01*
X213011245Y-50198386D01*
X213012230Y-50194451D01*
X213076671Y-49953954D01*
X213077784Y-49950058D01*
X213080160Y-49942224D01*
X213081406Y-49938345D01*
X213086647Y-49922910D01*
X213088007Y-49919110D01*
X213090887Y-49911456D01*
X213092382Y-49907673D01*
X213094860Y-49901688D01*
X213084312Y-49891140D01*
X213055166Y-49979100D01*
X213052699Y-49985878D01*
X213047329Y-49999395D01*
X213044474Y-50006014D01*
X213032222Y-50032291D01*
X213028985Y-50038737D01*
X213022079Y-50051546D01*
X213018470Y-50057797D01*
X212914212Y-50226823D01*
X212910248Y-50232850D01*
X212901902Y-50244769D01*
X212897596Y-50250553D01*
X212879614Y-50273295D01*
X212874973Y-50278826D01*
X212865302Y-50289692D01*
X212860356Y-50294933D01*
X212819262Y-50336026D01*
X212300500Y-50336026D01*
X212300500Y-50190004D01*
X212320185Y-50122965D01*
X212359403Y-50084465D01*
X212378044Y-50072968D01*
X212497968Y-49953044D01*
X212587003Y-49808697D01*
X212640349Y-49647708D01*
X212650500Y-49548345D01*
X212650500Y-49383580D01*
X213281029Y-49383580D01*
X213327131Y-49429682D01*
X213333768Y-49418189D01*
X213335855Y-49414706D01*
X213340177Y-49407756D01*
X213342377Y-49404346D01*
X213351434Y-49390792D01*
X213353742Y-49387457D01*
X213358506Y-49380809D01*
X213360922Y-49377551D01*
X213492532Y-49206031D01*
X213532455Y-49172159D01*
X213627694Y-49121253D01*
X213678036Y-49106877D01*
X213683986Y-49106486D01*
X213684377Y-49100536D01*
X213689606Y-49082221D01*
X213635997Y-49028612D01*
X213281029Y-49383580D01*
X212650500Y-49383580D01*
X212650499Y-48951656D01*
X212647332Y-48920656D01*
X212640349Y-48852292D01*
X212640348Y-48852289D01*
X212630353Y-48822127D01*
X212587003Y-48691303D01*
X212586999Y-48691297D01*
X212586998Y-48691294D01*
X212497973Y-48546964D01*
X212497972Y-48546963D01*
X212497968Y-48546956D01*
X212497961Y-48546949D01*
X212493879Y-48541786D01*
X212467738Y-48476990D01*
X212470131Y-48464391D01*
X213030555Y-48464391D01*
X213032222Y-48467709D01*
X213044474Y-48493986D01*
X213047329Y-48500605D01*
X213052699Y-48514122D01*
X213055166Y-48520900D01*
X213117347Y-48708550D01*
X213119299Y-48715029D01*
X213122878Y-48728196D01*
X213124473Y-48734767D01*
X213130162Y-48761345D01*
X213131397Y-48767992D01*
X213133520Y-48781461D01*
X213134390Y-48788167D01*
X213137891Y-48822441D01*
X213283858Y-48676473D01*
X213988135Y-48676473D01*
X214041488Y-48729826D01*
X214211310Y-48631780D01*
X214214855Y-48629810D01*
X214222065Y-48625956D01*
X214225672Y-48624103D01*
X214240291Y-48616893D01*
X214243966Y-48615155D01*
X214251424Y-48611776D01*
X214255144Y-48610163D01*
X214485172Y-48514882D01*
X214488956Y-48513387D01*
X214491500Y-48512429D01*
X214491500Y-48469901D01*
X214343104Y-48321505D01*
X213988135Y-48676473D01*
X213283858Y-48676473D01*
X213043775Y-48436390D01*
X213036424Y-48452723D01*
X213033147Y-48459454D01*
X213030555Y-48464391D01*
X212470131Y-48464391D01*
X212480778Y-48408348D01*
X212496570Y-48386664D01*
X212495843Y-48386094D01*
X212500469Y-48380188D01*
X212500469Y-48380187D01*
X212500472Y-48380185D01*
X212588478Y-48234606D01*
X212639086Y-48072196D01*
X212645500Y-48001616D01*
X212645500Y-47969367D01*
X213281029Y-47969367D01*
X213635997Y-48324335D01*
X213990965Y-47969367D01*
X213635997Y-47614398D01*
X213281029Y-47969367D01*
X212645500Y-47969367D01*
X212645500Y-47338384D01*
X212639086Y-47267804D01*
X212637358Y-47262259D01*
X213988135Y-47262259D01*
X214343104Y-47617228D01*
X214491500Y-47468832D01*
X214491500Y-47055688D01*
X214353841Y-46918029D01*
X214337101Y-46934769D01*
X214330621Y-46940803D01*
X214317126Y-46952496D01*
X214310236Y-46958048D01*
X214239079Y-47011315D01*
X213988135Y-47262259D01*
X212637358Y-47262259D01*
X212588478Y-47105394D01*
X212500472Y-46959815D01*
X212500470Y-46959813D01*
X212500469Y-46959811D01*
X212465338Y-46924680D01*
X212431853Y-46863357D01*
X212436837Y-46793665D01*
X212478709Y-46737732D01*
X212544173Y-46713315D01*
X212553019Y-46712999D01*
X213687871Y-46712999D01*
X213687872Y-46712999D01*
X213747483Y-46706591D01*
X213882331Y-46656296D01*
X213997546Y-46570046D01*
X214083796Y-46454831D01*
X214134091Y-46319983D01*
X214140500Y-46260373D01*
X214140499Y-44784499D01*
X214160184Y-44717461D01*
X214212987Y-44671706D01*
X214264499Y-44660500D01*
X214424108Y-44660500D01*
X214483038Y-44660500D01*
X214496922Y-44661280D01*
G37*
%TD.AperFunction*%
%TA.AperFunction,Conductor*%
G36*
X209147452Y-47133685D02*
G01*
X209193207Y-47186489D01*
X209203151Y-47255647D01*
X209202031Y-47262186D01*
X209200914Y-47267799D01*
X209194500Y-47338386D01*
X209194500Y-48001613D01*
X209200913Y-48072192D01*
X209200913Y-48072194D01*
X209200914Y-48072196D01*
X209236118Y-48185172D01*
X209251522Y-48234606D01*
X209339530Y-48380188D01*
X209342478Y-48383136D01*
X209343946Y-48385825D01*
X209344157Y-48386094D01*
X209344112Y-48386129D01*
X209375963Y-48444459D01*
X209370979Y-48514151D01*
X209355897Y-48540923D01*
X209356218Y-48541121D01*
X209263457Y-48691507D01*
X209263452Y-48691518D01*
X209210144Y-48852393D01*
X209200000Y-48951677D01*
X209200000Y-49000000D01*
X210026000Y-49000000D01*
X210093039Y-49019685D01*
X210138794Y-49072489D01*
X210150000Y-49124000D01*
X210150000Y-49250000D01*
X210276000Y-49250000D01*
X210343039Y-49269685D01*
X210388794Y-49322489D01*
X210400000Y-49374000D01*
X210400000Y-50224999D01*
X210423308Y-50224999D01*
X210423322Y-50224998D01*
X210522607Y-50214855D01*
X210683481Y-50161547D01*
X210683492Y-50161542D01*
X210827731Y-50072573D01*
X210836959Y-50063345D01*
X210898279Y-50029856D01*
X210967971Y-50034835D01*
X211012327Y-50063339D01*
X211021956Y-50072968D01*
X211040596Y-50084465D01*
X211087321Y-50136412D01*
X211099500Y-50190004D01*
X211099500Y-52093330D01*
X211099499Y-52093348D01*
X211099499Y-52259054D01*
X211099498Y-52259054D01*
X211139752Y-52409279D01*
X211140423Y-52411785D01*
X211150651Y-52429500D01*
X211219477Y-52548712D01*
X211219481Y-52548717D01*
X211338349Y-52667585D01*
X211338355Y-52667590D01*
X211963181Y-53292416D01*
X211996666Y-53353739D01*
X211999500Y-53380097D01*
X211999500Y-53820107D01*
X211979815Y-53887146D01*
X211927011Y-53932901D01*
X211857853Y-53942845D01*
X211825144Y-53932124D01*
X211824808Y-53932937D01*
X211673501Y-53870264D01*
X211673489Y-53870261D01*
X211518845Y-53839500D01*
X211518842Y-53839500D01*
X211361158Y-53839500D01*
X211361155Y-53839500D01*
X211206510Y-53870261D01*
X211206498Y-53870264D01*
X211060827Y-53930602D01*
X211060815Y-53930609D01*
X210974024Y-53988602D01*
X210907347Y-54009480D01*
X210905133Y-54009500D01*
X209046520Y-54009500D01*
X208979481Y-53989815D01*
X208958839Y-53973181D01*
X208858339Y-53872681D01*
X208824854Y-53811358D01*
X208829838Y-53741666D01*
X208858339Y-53697319D01*
X208960468Y-53595189D01*
X208960469Y-53595188D01*
X208960472Y-53595185D01*
X209011062Y-53511500D01*
X210567323Y-53511500D01*
X210791681Y-53511500D01*
X210794315Y-53509740D01*
X210799458Y-53506483D01*
X210809989Y-53500171D01*
X210815285Y-53497171D01*
X210836855Y-53485642D01*
X210842291Y-53482906D01*
X210853385Y-53477659D01*
X210858949Y-53475193D01*
X210966826Y-53430509D01*
X210807570Y-53271253D01*
X210567323Y-53511500D01*
X209011062Y-53511500D01*
X209048478Y-53449606D01*
X209099086Y-53287196D01*
X209105500Y-53216616D01*
X209105500Y-52919114D01*
X209745495Y-52919114D01*
X210100463Y-53274082D01*
X210455432Y-52919114D01*
X210100463Y-52564145D01*
X209745495Y-52919114D01*
X209105500Y-52919114D01*
X209105500Y-52703384D01*
X209099086Y-52632804D01*
X209048478Y-52470394D01*
X208960472Y-52324815D01*
X208960470Y-52324813D01*
X208960469Y-52324811D01*
X208840188Y-52204530D01*
X208694606Y-52116522D01*
X208623837Y-52094470D01*
X208532196Y-52065914D01*
X208532194Y-52065913D01*
X208532192Y-52065913D01*
X208482778Y-52061423D01*
X208461616Y-52059500D01*
X207798384Y-52059500D01*
X207779145Y-52061248D01*
X207727807Y-52065913D01*
X207565393Y-52116522D01*
X207433285Y-52196385D01*
X207365730Y-52214221D01*
X207304986Y-52196385D01*
X207164606Y-52111522D01*
X207002196Y-52060914D01*
X207002194Y-52060913D01*
X207002192Y-52060913D01*
X206952778Y-52056423D01*
X206931616Y-52054500D01*
X206268384Y-52054500D01*
X206249145Y-52056248D01*
X206197807Y-52060913D01*
X206035393Y-52111522D01*
X205889811Y-52199530D01*
X205889810Y-52199531D01*
X205769533Y-52319809D01*
X205769529Y-52319812D01*
X205765216Y-52326948D01*
X205713685Y-52374132D01*
X205691198Y-52382565D01*
X205643217Y-52395421D01*
X205643214Y-52395423D01*
X205597858Y-52421610D01*
X205597857Y-52421610D01*
X205506290Y-52474475D01*
X205506282Y-52474481D01*
X205394478Y-52586286D01*
X205070209Y-52910554D01*
X205008886Y-52944039D01*
X204947935Y-52941950D01*
X204915072Y-52932403D01*
X204915073Y-52932403D01*
X204915069Y-52932402D01*
X204915066Y-52932401D01*
X204915063Y-52932401D01*
X204878201Y-52929500D01*
X204878194Y-52929500D01*
X204637000Y-52929500D01*
X204569961Y-52909815D01*
X204524206Y-52857011D01*
X204513000Y-52805500D01*
X204513000Y-51996755D01*
X205011000Y-51996755D01*
X205011000Y-52265485D01*
X205042339Y-52234147D01*
X205165678Y-52110808D01*
X205171601Y-52105260D01*
X205183905Y-52094470D01*
X205190174Y-52089325D01*
X205216056Y-52069464D01*
X205222654Y-52064736D01*
X205236267Y-52055640D01*
X205243158Y-52051355D01*
X205307743Y-52014066D01*
X205248907Y-51955230D01*
X209295165Y-51955230D01*
X209323258Y-51983323D01*
X209328391Y-51988775D01*
X209338413Y-52000087D01*
X209343214Y-52005848D01*
X209361782Y-52029551D01*
X209366220Y-52035583D01*
X209374799Y-52048013D01*
X209378862Y-52054298D01*
X209482444Y-52225641D01*
X209486126Y-52232168D01*
X209493147Y-52245546D01*
X209496424Y-52252277D01*
X209508782Y-52279734D01*
X209511650Y-52286659D01*
X209517008Y-52300788D01*
X209519451Y-52307866D01*
X209551051Y-52409279D01*
X209748323Y-52212007D01*
X210452602Y-52212007D01*
X210614780Y-52374185D01*
X210614247Y-52372195D01*
X210612405Y-52364296D01*
X210609212Y-52348246D01*
X210607890Y-52340239D01*
X210603631Y-52307895D01*
X210602836Y-52299819D01*
X210601765Y-52283483D01*
X210601499Y-52275371D01*
X210601499Y-52086421D01*
X210601500Y-52086382D01*
X210601500Y-52063109D01*
X210452602Y-52212007D01*
X209748323Y-52212007D01*
X209748324Y-52212006D01*
X209393356Y-51857038D01*
X209295165Y-51955230D01*
X205248907Y-51955230D01*
X205150716Y-51857039D01*
X205011000Y-51996755D01*
X204513000Y-51996755D01*
X204513000Y-51639313D01*
X204512999Y-51639298D01*
X204510098Y-51602432D01*
X204510097Y-51602426D01*
X204481762Y-51504900D01*
X205502854Y-51504900D01*
X205718886Y-51720932D01*
X205790642Y-51677555D01*
X205797168Y-51673874D01*
X205810546Y-51666853D01*
X205817277Y-51663576D01*
X205844734Y-51651218D01*
X205851659Y-51648350D01*
X205865788Y-51642992D01*
X205872866Y-51640549D01*
X205978883Y-51607513D01*
X205755144Y-51514837D01*
X205751424Y-51513224D01*
X205743966Y-51509845D01*
X205740291Y-51508107D01*
X205733791Y-51504901D01*
X208331282Y-51504901D01*
X208387881Y-51561500D01*
X208467263Y-51561500D01*
X208470082Y-51561532D01*
X208475755Y-51561661D01*
X208478563Y-51561757D01*
X208489835Y-51562269D01*
X208492628Y-51562427D01*
X208498270Y-51562811D01*
X208501072Y-51563034D01*
X208590382Y-51571150D01*
X208596891Y-51571915D01*
X208609973Y-51573805D01*
X208616434Y-51574914D01*
X208642269Y-51580053D01*
X208648661Y-51581501D01*
X208661470Y-51584761D01*
X208667776Y-51586544D01*
X208857134Y-51645549D01*
X208864212Y-51647992D01*
X208878341Y-51653350D01*
X208885266Y-51656218D01*
X208888461Y-51657656D01*
X209041216Y-51504901D01*
X209745495Y-51504901D01*
X210100463Y-51859869D01*
X210455432Y-51504901D01*
X210100463Y-51149932D01*
X209745495Y-51504901D01*
X209041216Y-51504901D01*
X209041217Y-51504900D01*
X208686250Y-51149933D01*
X208331282Y-51504901D01*
X205733791Y-51504901D01*
X205725672Y-51500897D01*
X205722065Y-51499044D01*
X205714855Y-51495190D01*
X205711310Y-51493220D01*
X205586559Y-51421195D01*
X205502854Y-51504900D01*
X204481762Y-51504900D01*
X204474480Y-51479835D01*
X204464244Y-51444602D01*
X204380581Y-51303135D01*
X204380579Y-51303133D01*
X204380576Y-51303129D01*
X204349319Y-51271872D01*
X204315834Y-51210549D01*
X204313000Y-51184191D01*
X204313000Y-50782541D01*
X204811000Y-50782541D01*
X204811000Y-50813046D01*
X205150715Y-51152761D01*
X205209174Y-51094302D01*
X205198752Y-51074802D01*
X205184377Y-51024461D01*
X205183987Y-51018512D01*
X205178038Y-51018123D01*
X205127695Y-51003747D01*
X205032457Y-50952842D01*
X204992534Y-50918970D01*
X204860923Y-50747452D01*
X204858504Y-50744189D01*
X204854683Y-50738857D01*
X204811000Y-50782541D01*
X204313000Y-50782541D01*
X204313000Y-49737596D01*
X204332685Y-49670557D01*
X204349314Y-49649920D01*
X204753995Y-49245239D01*
X204815314Y-49211757D01*
X204885005Y-49216741D01*
X204940939Y-49258612D01*
X204965356Y-49324077D01*
X204964826Y-49342081D01*
X204965265Y-49342110D01*
X204965000Y-49346152D01*
X204965000Y-49578840D01*
X204995369Y-49809524D01*
X205055592Y-50034279D01*
X205144632Y-50249240D01*
X205144636Y-50249250D01*
X205260970Y-50450748D01*
X205320551Y-50528394D01*
X205985884Y-49863060D01*
X205986740Y-49865126D01*
X206079762Y-50004344D01*
X206198156Y-50122738D01*
X206337374Y-50215760D01*
X206339437Y-50216614D01*
X205674104Y-50881946D01*
X205674104Y-50881947D01*
X205751752Y-50941529D01*
X205953249Y-51057863D01*
X205953259Y-51057867D01*
X206168220Y-51146907D01*
X206392975Y-51207130D01*
X206623659Y-51237500D01*
X206856341Y-51237500D01*
X207087024Y-51207130D01*
X207311779Y-51146907D01*
X207526740Y-51057867D01*
X207526750Y-51057863D01*
X207728255Y-50941524D01*
X207805894Y-50881947D01*
X207805894Y-50881946D01*
X207721741Y-50797793D01*
X209038388Y-50797793D01*
X209393357Y-51152762D01*
X209748325Y-50797794D01*
X209748324Y-50797793D01*
X210452601Y-50797793D01*
X210601500Y-50946692D01*
X210601500Y-50706756D01*
X210593436Y-50708027D01*
X210586733Y-50708897D01*
X210536351Y-50714043D01*
X210452601Y-50797793D01*
X209748324Y-50797793D01*
X209645908Y-50695377D01*
X209640128Y-50693806D01*
X209633650Y-50691854D01*
X209446113Y-50629710D01*
X209439335Y-50627243D01*
X209425818Y-50621873D01*
X209419199Y-50619018D01*
X209392922Y-50606766D01*
X209386476Y-50603529D01*
X209373667Y-50596623D01*
X209367416Y-50593014D01*
X209290569Y-50545613D01*
X209038388Y-50797793D01*
X207721741Y-50797793D01*
X207140562Y-50216614D01*
X207142626Y-50215760D01*
X207281844Y-50122738D01*
X207400238Y-50004344D01*
X207493260Y-49865126D01*
X207494114Y-49863062D01*
X208159446Y-50528394D01*
X208159447Y-50528394D01*
X208219024Y-50450755D01*
X208335363Y-50249250D01*
X208335367Y-50249240D01*
X208424407Y-50034279D01*
X208484630Y-49809524D01*
X208515000Y-49578840D01*
X208515000Y-49548322D01*
X209200001Y-49548322D01*
X209210144Y-49647607D01*
X209263452Y-49808481D01*
X209263457Y-49808492D01*
X209352424Y-49952728D01*
X209352427Y-49952732D01*
X209472267Y-50072572D01*
X209472271Y-50072575D01*
X209616507Y-50161542D01*
X209616518Y-50161547D01*
X209777393Y-50214855D01*
X209876683Y-50224999D01*
X209900000Y-50224998D01*
X209900000Y-49500000D01*
X209200001Y-49500000D01*
X209200001Y-49548322D01*
X208515000Y-49548322D01*
X208515000Y-49346159D01*
X208484630Y-49115475D01*
X208424407Y-48890720D01*
X208335367Y-48675759D01*
X208335363Y-48675749D01*
X208219029Y-48474252D01*
X208159447Y-48396604D01*
X208159446Y-48396604D01*
X207494114Y-49061936D01*
X207493260Y-49059874D01*
X207400238Y-48920656D01*
X207281844Y-48802262D01*
X207142626Y-48709240D01*
X207140560Y-48708384D01*
X207805894Y-48043051D01*
X207728248Y-47983470D01*
X207526750Y-47867136D01*
X207526740Y-47867132D01*
X207311779Y-47778092D01*
X207087024Y-47717869D01*
X206856341Y-47687500D01*
X206623653Y-47687500D01*
X206619610Y-47687765D01*
X206619495Y-47686022D01*
X206557492Y-47676307D01*
X206505270Y-47629890D01*
X206486433Y-47562607D01*
X206506962Y-47495821D01*
X206522728Y-47476506D01*
X206848918Y-47150316D01*
X206910239Y-47116834D01*
X206936597Y-47114000D01*
X209080413Y-47114000D01*
X209147452Y-47133685D01*
G37*
%TD.AperFunction*%
%TA.AperFunction,Conductor*%
G36*
X192785641Y-44680185D02*
G01*
X192831396Y-44732989D01*
X192841340Y-44802147D01*
X192836533Y-44822817D01*
X192783985Y-44984545D01*
X192749500Y-45202278D01*
X192749500Y-45422721D01*
X192783985Y-45640452D01*
X192852103Y-45850103D01*
X192852104Y-45850106D01*
X192902657Y-45949319D01*
X192947333Y-46037000D01*
X192952187Y-46046525D01*
X193081752Y-46224858D01*
X193081756Y-46224863D01*
X193237636Y-46380743D01*
X193237641Y-46380747D01*
X193339606Y-46454828D01*
X193415978Y-46510315D01*
X193533294Y-46570091D01*
X193612393Y-46610395D01*
X193612396Y-46610396D01*
X193673622Y-46630289D01*
X193822049Y-46678515D01*
X194039778Y-46713000D01*
X194039779Y-46713000D01*
X194260221Y-46713000D01*
X194260222Y-46713000D01*
X194439606Y-46684588D01*
X194508898Y-46693542D01*
X194562350Y-46738539D01*
X194582990Y-46805290D01*
X194564265Y-46872604D01*
X194561494Y-46876562D01*
X194471522Y-47025393D01*
X194420913Y-47187807D01*
X194414500Y-47258386D01*
X194414500Y-47921613D01*
X194420913Y-47992192D01*
X194420913Y-47992194D01*
X194420914Y-47992196D01*
X194436761Y-48043051D01*
X194471522Y-48154606D01*
X194554482Y-48291838D01*
X194572318Y-48359393D01*
X194553904Y-48421085D01*
X194473454Y-48551513D01*
X194473452Y-48551518D01*
X194420144Y-48712393D01*
X194410000Y-48811677D01*
X194410000Y-48860000D01*
X195236000Y-48860000D01*
X195303039Y-48879685D01*
X195348794Y-48932489D01*
X195360000Y-48984000D01*
X195360000Y-49236000D01*
X195340315Y-49303039D01*
X195287511Y-49348794D01*
X195236000Y-49360000D01*
X194410001Y-49360000D01*
X194410001Y-49408322D01*
X194420144Y-49507607D01*
X194473452Y-49668481D01*
X194473457Y-49668492D01*
X194562424Y-49812728D01*
X194562427Y-49812732D01*
X194682265Y-49932570D01*
X194687508Y-49936716D01*
X194727883Y-49993739D01*
X194731021Y-50063538D01*
X194695924Y-50123953D01*
X194633736Y-50155803D01*
X194626634Y-50156939D01*
X194552235Y-50166643D01*
X194518458Y-50172216D01*
X194368463Y-50202216D01*
X194330738Y-50211279D01*
X194010739Y-50301279D01*
X193963834Y-50316986D01*
X193553836Y-50476985D01*
X193553832Y-50476986D01*
X193553829Y-50476988D01*
X193545732Y-50480828D01*
X193489235Y-50507621D01*
X193301517Y-50613513D01*
X193233456Y-50629305D01*
X193167661Y-50605794D01*
X193125021Y-50550444D01*
X193119075Y-50480828D01*
X193133207Y-50443511D01*
X193245363Y-50249250D01*
X193245367Y-50249240D01*
X193334407Y-50034279D01*
X193394630Y-49809524D01*
X193414475Y-49658783D01*
X193916771Y-49658783D01*
X193938947Y-49636607D01*
X193937616Y-49631710D01*
X193936020Y-49625135D01*
X193930331Y-49598558D01*
X193929096Y-49591907D01*
X193926973Y-49578436D01*
X193926103Y-49571733D01*
X193923000Y-49541356D01*
X193923000Y-49586990D01*
X193922933Y-49591051D01*
X193922665Y-49599229D01*
X193922467Y-49603277D01*
X193921401Y-49619543D01*
X193921069Y-49623591D01*
X193920267Y-49631732D01*
X193919803Y-49635760D01*
X193916771Y-49658783D01*
X193414475Y-49658783D01*
X193425000Y-49578840D01*
X193425000Y-49346159D01*
X193394630Y-49115475D01*
X193386316Y-49084445D01*
X193892841Y-49084445D01*
X193914293Y-49247387D01*
X193921440Y-49211458D01*
X193950264Y-49141868D01*
X193892841Y-49084445D01*
X193386316Y-49084445D01*
X193334407Y-48890720D01*
X193245367Y-48675759D01*
X193245363Y-48675749D01*
X193129029Y-48474252D01*
X193069447Y-48396604D01*
X193069446Y-48396604D01*
X192404114Y-49061936D01*
X192403260Y-49059874D01*
X192310238Y-48920656D01*
X192191844Y-48802262D01*
X192052626Y-48709240D01*
X192050561Y-48708384D01*
X192715894Y-48043051D01*
X192638248Y-47983470D01*
X192436750Y-47867136D01*
X192436740Y-47867132D01*
X192221779Y-47778092D01*
X191993107Y-47716820D01*
X191993586Y-47715030D01*
X191938329Y-47686071D01*
X191903802Y-47625328D01*
X191900500Y-47596905D01*
X191900500Y-47262259D01*
X192774932Y-47262259D01*
X193129901Y-47617228D01*
X193484869Y-47262260D01*
X193160331Y-46937722D01*
X193147436Y-46929820D01*
X193143341Y-46927199D01*
X193135176Y-46921744D01*
X193131176Y-46918956D01*
X193123681Y-46913510D01*
X192774932Y-47262259D01*
X191900500Y-47262259D01*
X191900500Y-46224479D01*
X192398500Y-46224479D01*
X192398500Y-46885827D01*
X192422793Y-46910120D01*
X192742765Y-46590149D01*
X192722707Y-46570091D01*
X192719335Y-46566585D01*
X192712677Y-46559383D01*
X192709448Y-46555749D01*
X192696741Y-46540874D01*
X192693649Y-46537107D01*
X192687563Y-46529388D01*
X192684619Y-46525499D01*
X192543544Y-46331324D01*
X192540756Y-46327324D01*
X192535301Y-46319159D01*
X192532680Y-46315064D01*
X192524777Y-46302168D01*
X192422794Y-46200185D01*
X192398500Y-46224479D01*
X191900500Y-46224479D01*
X191900500Y-45166961D01*
X191901280Y-45153077D01*
X191901280Y-45153076D01*
X191911459Y-45062731D01*
X191917635Y-45035670D01*
X191945353Y-44956456D01*
X191957396Y-44931450D01*
X192002046Y-44860389D01*
X192019351Y-44838690D01*
X192078690Y-44779351D01*
X192100389Y-44762046D01*
X192171450Y-44717396D01*
X192196456Y-44705353D01*
X192275670Y-44677635D01*
X192302733Y-44671459D01*
X192365419Y-44664396D01*
X192393079Y-44661280D01*
X192406962Y-44660500D01*
X192465892Y-44660500D01*
X192718602Y-44660500D01*
X192785641Y-44680185D01*
G37*
%TD.AperFunction*%
%TD*%
M02*
