M48
; DRILL file {KiCad 9.0.1} date 2026-07-06T00:45:13-0500
; FORMAT={-:-/ absolute / inch / decimal}
; #@! TF.CreationDate,2026-07-06T00:45:13-05:00
; #@! TF.GenerationSoftware,Kicad,Pcbnew,9.0.1
; #@! TF.FileFunction,Plated,1,2,PTH
FMAT,2
INCH
; #@! TA.AperFunction,Plated,PTH,ViaDrill
T1C0.0118
; #@! TA.AperFunction,Plated,PTH,ComponentDrill
T2C0.0315
; #@! TA.AperFunction,Plated,PTH,ComponentDrill
T3C0.0472
; #@! TA.AperFunction,Plated,PTH,ComponentDrill
T4C0.0669
%
G90
G05
T1
X7.6693Y-2.5094
X7.9753Y-2.5158
X8.0099Y-2.5146
X8.0143Y-2.577
X8.0165Y-2.609
X8.0374Y-2.5555
X8.0539Y-2.5217
X8.0546Y-2.6102
X8.0634Y-1.9913
X8.0638Y-2.0524
X8.3098Y-2.5453
T2
X8.0106Y-2.9189
X8.0106Y-2.9976
X8.0106Y-3.0764
X8.0106Y-3.1551
T3
X7.6437Y-1.784
X7.7815Y-1.784
X7.7815Y-3.4966
X8.2378Y-1.784
X8.3756Y-1.784
X8.3756Y-3.4966
T4
X7.5453Y-1.9473
X7.5453Y-3.3332
X7.8799Y-1.9946
X7.8799Y-3.2859
X8.1394Y-1.9473
X8.1394Y-3.3332
X8.474Y-1.9946
X8.474Y-3.2859
M30
