%TF.GenerationSoftware,KiCad,Pcbnew,9.0.1*%
%TF.CreationDate,2026-07-06T00:45:13-05:00*%
%TF.ProjectId,VikFader4530,56696b46-6164-4657-9234-3533302e6b69,rev?*%
%TF.SameCoordinates,Original*%
%TF.FileFunction,Copper,L2,Bot*%
%TF.FilePolarity,Positive*%
%FSLAX46Y46*%
G04 Gerber Fmt 4.6, Leading zero omitted, Abs format (unit mm)*
G04 Created by KiCad (PCBNEW 9.0.1) date 2026-07-06 00:45:13*
%MOMM*%
%LPD*%
G01*
G04 APERTURE LIST*
G04 Aperture macros list*
%AMRoundRect*
0 Rectangle with rounded corners*
0 $1 Rounding radius*
0 $2 $3 $4 $5 $6 $7 $8 $9 X,Y pos of 4 corners*
0 Add a 4 corners polygon primitive as box body*
4,1,4,$2,$3,$4,$5,$6,$7,$8,$9,$2,$3,0*
0 Add four circle primitives for the rounded corners*
1,1,$1+$1,$2,$3*
1,1,$1+$1,$4,$5*
1,1,$1+$1,$6,$7*
1,1,$1+$1,$8,$9*
0 Add four rect primitives between the rounded corners*
20,1,$1+$1,$2,$3,$4,$5,0*
20,1,$1+$1,$4,$5,$6,$7,0*
20,1,$1+$1,$6,$7,$8,$9,0*
20,1,$1+$1,$8,$9,$2,$3,0*%
%AMFreePoly0*
4,1,25,1.480000,1.677200,1.330000,1.127200,1.210000,0.847200,1.100000,0.627200,0.830000,0.207200,0.470000,-0.152800,0.130000,-0.432800,-0.260000,-0.652800,-0.670000,-0.812800,-0.990000,-0.902800,-1.140000,-0.932800,-1.370000,-0.962800,-1.520000,-0.972800,-1.520000,-0.172800,-1.220000,-0.142800,-0.820000,-0.022800,-0.560000,0.097200,-0.140000,0.357200,0.180000,0.697200,0.400000,1.037200,
0.540000,1.257200,0.670000,1.737200,0.719900,2.067200,1.519900,2.067200,1.480000,1.677200,1.480000,1.677200,$1*%
%AMFreePoly1*
4,1,25,-1.130000,0.936300,-0.580100,0.786300,-0.300000,0.666300,-0.080100,0.556300,0.340000,0.286300,0.700000,-0.073700,0.979900,-0.413700,1.200000,-0.803700,1.359900,-1.213700,1.449900,-1.533700,1.479900,-1.683700,1.510000,-1.913700,1.520000,-2.063600,0.719900,-2.063600,0.689900,-1.763600,0.570000,-1.363600,0.449900,-1.103700,0.189900,-0.683700,-0.150100,-0.363700,-0.490000,-0.143700,
-0.710000,-0.003700,-1.190000,0.126300,-1.520000,0.176300,-1.520000,0.976300,-1.130000,0.936300,-1.130000,0.936300,$1*%
%AMFreePoly2*
4,1,25,1.520100,0.172600,1.220100,0.142600,0.820100,0.022700,0.560100,-0.097400,0.140100,-0.357400,-0.179900,-0.697400,-0.399900,-1.037400,-0.539900,-1.257400,-0.669900,-1.737400,-0.719900,-2.067400,-1.519900,-2.067400,-1.479900,-1.677300,-1.329900,-1.127400,-1.209900,-0.847400,-1.099900,-0.627400,-0.829900,-0.207400,-0.469900,0.152600,-0.129900,0.432600,0.260100,0.652600,0.670100,0.812600,
0.990100,0.902600,1.140100,0.932600,1.370100,0.962600,1.520100,0.972600,1.520100,0.172600,1.520100,0.172600,$1*%
%AMFreePoly3*
4,1,25,-0.690000,1.763600,-0.570000,1.363600,-0.450000,1.103700,-0.190000,0.683700,0.150000,0.363700,0.490000,0.143700,0.710000,0.003700,1.190000,-0.126300,1.520000,-0.176300,1.520000,-0.976300,1.130000,-0.936300,0.580000,-0.786300,0.300000,-0.666300,0.080000,-0.556300,-0.340000,-0.286300,-0.700000,0.073700,-0.980000,0.413700,-1.200000,0.803700,-1.360000,1.213700,-1.450000,1.533700,
-1.480000,1.683700,-1.510000,1.913700,-1.520000,2.063600,-0.720000,2.063600,-0.690000,1.763600,-0.690000,1.763600,$1*%
G04 Aperture macros list end*
%TA.AperFunction,ComponentPad*%
%ADD10R,1.350000X1.350000*%
%TD*%
%TA.AperFunction,ComponentPad*%
%ADD11C,1.350000*%
%TD*%
%TA.AperFunction,ComponentPad*%
%ADD12R,1.800000X1.800000*%
%TD*%
%TA.AperFunction,ComponentPad*%
%ADD13C,1.800000*%
%TD*%
%TA.AperFunction,ComponentPad*%
%ADD14C,2.550000*%
%TD*%
%TA.AperFunction,SMDPad,CuDef*%
%ADD15RoundRect,0.225000X0.225000X0.250000X-0.225000X0.250000X-0.225000X-0.250000X0.225000X-0.250000X0*%
%TD*%
%TA.AperFunction,SMDPad,CuDef*%
%ADD16RoundRect,0.225000X0.250000X-0.225000X0.250000X0.225000X-0.250000X0.225000X-0.250000X-0.225000X0*%
%TD*%
%TA.AperFunction,SMDPad,CuDef*%
%ADD17R,1.250000X0.280000*%
%TD*%
%TA.AperFunction,SMDPad,CuDef*%
%ADD18R,2.000000X1.800000*%
%TD*%
%TA.AperFunction,SMDPad,CuDef*%
%ADD19RoundRect,0.225000X-0.225000X-0.250000X0.225000X-0.250000X0.225000X0.250000X-0.225000X0.250000X0*%
%TD*%
%TA.AperFunction,SMDPad,CuDef*%
%ADD20FreePoly0,180.000000*%
%TD*%
%TA.AperFunction,SMDPad,CuDef*%
%ADD21FreePoly1,180.000000*%
%TD*%
%TA.AperFunction,SMDPad,CuDef*%
%ADD22FreePoly2,180.000000*%
%TD*%
%TA.AperFunction,SMDPad,CuDef*%
%ADD23FreePoly3,180.000000*%
%TD*%
%TA.AperFunction,SMDPad,CuDef*%
%ADD24R,0.250000X1.100000*%
%TD*%
%TA.AperFunction,ViaPad*%
%ADD25C,0.600000*%
%TD*%
%TA.AperFunction,Conductor*%
%ADD26C,0.200000*%
%TD*%
G04 APERTURE END LIST*
D10*
%TO.P,J3,1,Pin_1*%
%TO.N,+3V3*%
X203470000Y-74140000D03*
D11*
%TO.P,J3,2,Pin_2*%
%TO.N,GND*%
X203470000Y-76140000D03*
%TO.P,J3,3,Pin_3*%
%TO.N,SDA*%
X203470000Y-78140000D03*
%TO.P,J3,4,Pin_4*%
%TO.N,SCL*%
X203470000Y-80140000D03*
%TD*%
D12*
%TO.P,R1,1*%
%TO.N,+3V3*%
X212740000Y-45312500D03*
D13*
%TO.P,R1,2*%
%TO.N,POT-OUT1*%
X209240000Y-45312500D03*
D14*
%TO.P,R1,3*%
%TO.N,GND*%
X206740000Y-49462500D03*
X215240000Y-50662500D03*
X215240000Y-83462500D03*
X206740000Y-84662500D03*
D13*
X212740000Y-88812500D03*
%TD*%
D12*
%TO.P,R5,1*%
%TO.N,+3V3*%
X197650000Y-45312500D03*
D13*
%TO.P,R5,2*%
%TO.N,POT-OUT0*%
X194150000Y-45312500D03*
D14*
%TO.P,R5,3*%
%TO.N,GND*%
X191650000Y-49462500D03*
X200150000Y-50662500D03*
X200150000Y-83462500D03*
X191650000Y-84662500D03*
D13*
X197650000Y-88812500D03*
%TD*%
D15*
%TO.P,C1,1*%
%TO.N,POT-IN0*%
X196910000Y-49110000D03*
%TO.P,C1,2*%
%TO.N,GND*%
X195360000Y-49110000D03*
%TD*%
D16*
%TO.P,R2,1*%
%TO.N,+3V3*%
X199650000Y-67890000D03*
%TO.P,R2,2*%
%TO.N,SDA*%
X199650000Y-66340000D03*
%TD*%
D17*
%TO.P,J1,1,SCLK*%
%TO.N,SCLK*%
X213758000Y-69550000D03*
%TO.P,J1,2,MISO*%
%TO.N,MISO*%
X213758000Y-69050000D03*
%TO.P,J1,3,SPI_CS*%
%TO.N,CS*%
X213758000Y-68550000D03*
%TO.P,J1,4,GP_AD2*%
%TO.N,GP2*%
X213758000Y-68050000D03*
%TO.P,J1,5,MOSI*%
%TO.N,MOSI*%
X213758000Y-67550000D03*
%TO.P,J1,6,GP_AD1*%
%TO.N,GP1*%
X213758000Y-67050000D03*
%TO.P,J1,7,5V*%
%TO.N,5v*%
X213758000Y-66550000D03*
%TO.P,J1,8,RGB_DO*%
%TO.N,RGB*%
X213758000Y-66050000D03*
%TO.P,J1,9,SCL*%
%TO.N,SCL*%
X213758000Y-65550000D03*
%TO.P,J1,10,SDA*%
%TO.N,SDA*%
X213758000Y-65050000D03*
%TO.P,J1,11,GND*%
%TO.N,GND*%
X213758000Y-64550000D03*
%TO.P,J1,12,3V3*%
%TO.N,+3V3*%
X213758000Y-64050000D03*
D18*
%TO.P,J1,13*%
%TO.N,N/C*%
X211034000Y-62250000D03*
%TO.P,J1,14*%
X211034000Y-71350000D03*
%TD*%
D16*
%TO.P,R3,1*%
%TO.N,+3V3*%
X198120000Y-67885000D03*
%TO.P,R3,2*%
%TO.N,SCL*%
X198120000Y-66335000D03*
%TD*%
D19*
%TO.P,R4,1*%
%TO.N,POT-OUT0*%
X195365000Y-47590000D03*
%TO.P,R4,2*%
%TO.N,POT-IN0*%
X196915000Y-47590000D03*
%TD*%
%TO.P,C2,1*%
%TO.N,+3V3*%
X194605000Y-70790000D03*
%TO.P,C2,2*%
%TO.N,GND*%
X196155000Y-70790000D03*
%TD*%
D20*
%TO.P,H1,1,1*%
%TO.N,unconnected-(H1-Pad1)*%
X193477600Y-51600700D03*
D21*
%TO.P,H1,2*%
%TO.N,N/C*%
X193484200Y-55913400D03*
D22*
%TO.P,H1,3*%
X196724000Y-55908300D03*
D23*
%TO.P,H1,4*%
X196710000Y-51570000D03*
%TD*%
D19*
%TO.P,R6,1*%
%TO.N,POT-OUT1*%
X210145000Y-47670000D03*
%TO.P,R6,2*%
%TO.N,POT-IN1*%
X211695000Y-47670000D03*
%TD*%
D20*
%TO.P,H4,1,1*%
%TO.N,unconnected-(H4-Pad1)*%
X210243400Y-77347300D03*
D21*
%TO.P,H4,2*%
%TO.N,N/C*%
X210250000Y-81660000D03*
D22*
%TO.P,H4,3*%
X213489800Y-81654900D03*
D23*
%TO.P,H4,4*%
X213475800Y-77316600D03*
%TD*%
D24*
%TO.P,U1,1,ADDR*%
%TO.N,GND*%
X193900000Y-64912500D03*
%TO.P,U1,2,ALERT/RDY*%
%TO.N,unconnected-(U1-ALERT{slash}RDY-Pad2)*%
X194400000Y-64912500D03*
%TO.P,U1,3,GND*%
%TO.N,GND*%
X194900000Y-64912500D03*
%TO.P,U1,4,AIN0*%
%TO.N,POT-IN0*%
X195400000Y-64912500D03*
%TO.P,U1,5,AIN1*%
%TO.N,POT-IN1*%
X195900000Y-64912500D03*
%TO.P,U1,6,AIN2*%
%TO.N,GND*%
X195900000Y-69212500D03*
%TO.P,U1,7,AIN3*%
X195400000Y-69212500D03*
%TO.P,U1,8,VDD*%
%TO.N,+3V3*%
X194900000Y-69212500D03*
%TO.P,U1,9,SDA*%
%TO.N,SDA*%
X194400000Y-69212500D03*
%TO.P,U1,10,SCL*%
%TO.N,SCL*%
X193900000Y-69212500D03*
%TD*%
D15*
%TO.P,C3,1*%
%TO.N,POT-IN1*%
X211700000Y-49250000D03*
%TO.P,C3,2*%
%TO.N,GND*%
X210150000Y-49250000D03*
%TD*%
D25*
%TO.N,GND*%
X194800000Y-63740000D03*
X211070000Y-64650000D03*
%TO.N,+3V3*%
X204588066Y-66300000D03*
X204810000Y-50580000D03*
X204570000Y-64050000D03*
X204820000Y-52130000D03*
%TO.N,SDA*%
X203450790Y-63870790D03*
X204150000Y-64910000D03*
X203618705Y-66268897D03*
%TO.N,SCL*%
X202571525Y-63901525D03*
X203564011Y-65454629D03*
%TD*%
D26*
%TO.N,GND*%
X195400000Y-70035000D02*
X196155000Y-70790000D01*
X194295500Y-63740000D02*
X194800000Y-63740000D01*
X213758000Y-64550000D02*
X211170000Y-64550000D01*
X193900000Y-64135500D02*
X194295500Y-63740000D01*
X194900000Y-64912500D02*
X194900000Y-63840000D01*
X195900000Y-69212500D02*
X195900000Y-70535000D01*
X195400000Y-69212500D02*
X195400000Y-70035000D01*
X193900000Y-64912500D02*
X193900000Y-64135500D01*
X194900000Y-63840000D02*
X194800000Y-63740000D01*
X195900000Y-70535000D02*
X196155000Y-70790000D01*
X211170000Y-64550000D02*
X211070000Y-64650000D01*
%TO.N,POT-IN0*%
X199320000Y-52710000D02*
X199320000Y-55220000D01*
X196915000Y-47590000D02*
X196915000Y-49105000D01*
X198140000Y-51530000D02*
X199320000Y-52710000D01*
X196910000Y-49110000D02*
X198140000Y-50340000D01*
X196915000Y-49105000D02*
X196910000Y-49110000D01*
X195400000Y-59140000D02*
X195400000Y-64912500D01*
X198140000Y-50340000D02*
X198140000Y-51530000D01*
X199320000Y-55220000D02*
X195400000Y-59140000D01*
%TO.N,+3V3*%
X194900000Y-69212500D02*
X194900000Y-68435500D01*
X213758000Y-64050000D02*
X204570000Y-64050000D01*
X194900000Y-68435500D02*
X195445500Y-67890000D01*
X204820000Y-63800000D02*
X204570000Y-64050000D01*
X204570000Y-64050000D02*
X204120110Y-64050000D01*
X204588066Y-66300000D02*
X203360000Y-67528066D01*
X204120110Y-64050000D02*
X200280110Y-67890000D01*
X194900000Y-69212500D02*
X194900000Y-70495000D01*
X194900000Y-70495000D02*
X194605000Y-70790000D01*
X212740000Y-55880000D02*
X204570000Y-64050000D01*
X203360000Y-74030000D02*
X203470000Y-74140000D01*
X204820000Y-52130000D02*
X204820000Y-63800000D01*
X197650000Y-45312500D02*
X199542500Y-45312500D01*
X195445500Y-67890000D02*
X199650000Y-67890000D01*
X203360000Y-67528066D02*
X203360000Y-74030000D01*
X200280110Y-67890000D02*
X199650000Y-67890000D01*
X212740000Y-45312500D02*
X212740000Y-55880000D01*
X199542500Y-45312500D02*
X204810000Y-50580000D01*
%TO.N,SDA*%
X211519943Y-65050000D02*
X211318943Y-65251000D01*
X200981580Y-66340000D02*
X199650000Y-66340000D01*
X213758000Y-65050000D02*
X211519943Y-65050000D01*
X203618705Y-66268897D02*
X203601103Y-66268897D01*
X203400000Y-78140000D02*
X203470000Y-78140000D01*
X198904000Y-67086000D02*
X199650000Y-66340000D01*
X204491000Y-65251000D02*
X204150000Y-64910000D01*
X194400000Y-68368400D02*
X195682400Y-67086000D01*
X194400000Y-69212500D02*
X194400000Y-68368400D01*
X202384000Y-67486000D02*
X202384000Y-77124000D01*
X203450790Y-63870790D02*
X200981580Y-66340000D01*
X211318943Y-65251000D02*
X204491000Y-65251000D01*
X202384000Y-77124000D02*
X203400000Y-78140000D01*
X203601103Y-66268897D02*
X202384000Y-67486000D01*
X195682400Y-67086000D02*
X198904000Y-67086000D01*
%TO.N,SCL*%
X203564011Y-65454629D02*
X201983000Y-67035640D01*
X198120000Y-66335000D02*
X195866300Y-66335000D01*
X201983000Y-67035640D02*
X201983000Y-78723000D01*
X203400000Y-80140000D02*
X203470000Y-80140000D01*
X198740000Y-65470000D02*
X198120000Y-66090000D01*
X211587043Y-65550000D02*
X211437043Y-65700000D01*
X203809382Y-65700000D02*
X203564011Y-65454629D01*
X211437043Y-65700000D02*
X204580000Y-65700000D01*
X202571525Y-63901525D02*
X201003050Y-65470000D01*
X193900000Y-68301300D02*
X193900000Y-69212500D01*
X204580000Y-65700000D02*
X203809382Y-65700000D01*
X201983000Y-78723000D02*
X203400000Y-80140000D01*
X195866300Y-66335000D02*
X193900000Y-68301300D01*
X213758000Y-65550000D02*
X211587043Y-65550000D01*
X198120000Y-66090000D02*
X198120000Y-66335000D01*
X201003050Y-65470000D02*
X198740000Y-65470000D01*
%TO.N,POT-IN1*%
X211700000Y-49250000D02*
X209420000Y-51530000D01*
X209420000Y-51530000D02*
X203577100Y-51530000D01*
X211695000Y-49245000D02*
X211700000Y-49250000D01*
X211695000Y-47670000D02*
X211695000Y-49245000D01*
X195900000Y-59207100D02*
X195900000Y-64912500D01*
X203577100Y-51530000D02*
X195900000Y-59207100D01*
%TO.N,POT-OUT1*%
X209240000Y-46765000D02*
X210145000Y-47670000D01*
X209240000Y-45312500D02*
X209240000Y-46765000D01*
%TO.N,POT-OUT0*%
X194150000Y-45312500D02*
X195365000Y-46527500D01*
X195365000Y-46527500D02*
X195365000Y-47590000D01*
%TD*%
%TA.AperFunction,Conductor*%
%TO.N,GND*%
G36*
X192105703Y-55813611D02*
G01*
X192120233Y-55828513D01*
X192295844Y-56041832D01*
X192393933Y-56160982D01*
X192426758Y-56197142D01*
X192786758Y-56557142D01*
X192870893Y-56624945D01*
X193290993Y-56894945D01*
X193291025Y-56894963D01*
X193338129Y-56921780D01*
X193338136Y-56921783D01*
X193338151Y-56921792D01*
X193558051Y-57031792D01*
X193563290Y-57034222D01*
X193585130Y-57044353D01*
X193865224Y-57164350D01*
X193865229Y-57164352D01*
X193865234Y-57164354D01*
X193931272Y-57187382D01*
X194481172Y-57337382D01*
X194562624Y-57352562D01*
X194952624Y-57392562D01*
X194952633Y-57392561D01*
X194952635Y-57392562D01*
X195076140Y-57390055D01*
X195092405Y-57385279D01*
X195100592Y-57382874D01*
X195144971Y-57378211D01*
X195237525Y-57385280D01*
X195387525Y-57375280D01*
X195419281Y-57372154D01*
X195649281Y-57342154D01*
X195683037Y-57336584D01*
X195833037Y-57306584D01*
X195870762Y-57297520D01*
X196140923Y-57221537D01*
X196210788Y-57222336D01*
X196269130Y-57260780D01*
X196297427Y-57324663D01*
X196286693Y-57393703D01*
X196262176Y-57428587D01*
X195031286Y-58659478D01*
X194919481Y-58771282D01*
X194919480Y-58771284D01*
X194880740Y-58838384D01*
X194840423Y-58908215D01*
X194799499Y-59060943D01*
X194799499Y-59060945D01*
X194799499Y-59229046D01*
X194799500Y-59229059D01*
X194799500Y-63743340D01*
X194779815Y-63810379D01*
X194727011Y-63856134D01*
X194688751Y-63866630D01*
X194665593Y-63869119D01*
X194639088Y-63869119D01*
X194629818Y-63868122D01*
X194572873Y-63862000D01*
X194572865Y-63862000D01*
X194227130Y-63862000D01*
X194227125Y-63862001D01*
X194184066Y-63866630D01*
X194167517Y-63868409D01*
X194167516Y-63868409D01*
X194160904Y-63869120D01*
X194134393Y-63869119D01*
X194072842Y-63862500D01*
X194025000Y-63862500D01*
X194024948Y-63862551D01*
X194005315Y-63929414D01*
X193975305Y-63961646D01*
X193973305Y-63963143D01*
X193907839Y-63987557D01*
X193839567Y-63972701D01*
X193790164Y-63923293D01*
X193775000Y-63863872D01*
X193775000Y-63862500D01*
X193727155Y-63862500D01*
X193667627Y-63868901D01*
X193667620Y-63868903D01*
X193532913Y-63919145D01*
X193532906Y-63919149D01*
X193417812Y-64005309D01*
X193417809Y-64005312D01*
X193331649Y-64120406D01*
X193331645Y-64120413D01*
X193281403Y-64255120D01*
X193281401Y-64255127D01*
X193275000Y-64314655D01*
X193275000Y-64787500D01*
X193650500Y-64787500D01*
X193717539Y-64807185D01*
X193763294Y-64859989D01*
X193774500Y-64911438D01*
X193774501Y-64913438D01*
X193754850Y-64980487D01*
X193702069Y-65026269D01*
X193650501Y-65037500D01*
X193275000Y-65037500D01*
X193275000Y-65510344D01*
X193281401Y-65569872D01*
X193281403Y-65569879D01*
X193331645Y-65704586D01*
X193331649Y-65704593D01*
X193417809Y-65819687D01*
X193417812Y-65819690D01*
X193532906Y-65905850D01*
X193532913Y-65905854D01*
X193667620Y-65956096D01*
X193667627Y-65956098D01*
X193727155Y-65962499D01*
X193727172Y-65962500D01*
X193775000Y-65962500D01*
X193775000Y-65961126D01*
X193794685Y-65894087D01*
X193847489Y-65848332D01*
X193916647Y-65838388D01*
X193973301Y-65861853D01*
X193975307Y-65863354D01*
X194017179Y-65919283D01*
X194024972Y-65962472D01*
X194025000Y-65962500D01*
X194072828Y-65962500D01*
X194072839Y-65962499D01*
X194134395Y-65955880D01*
X194160909Y-65955880D01*
X194167514Y-65956590D01*
X194167517Y-65956591D01*
X194227127Y-65963000D01*
X194572872Y-65962999D01*
X194632483Y-65956591D01*
X194632483Y-65956590D01*
X194639096Y-65955880D01*
X194665607Y-65955881D01*
X194727157Y-65962499D01*
X194727172Y-65962500D01*
X194775000Y-65962500D01*
X194775051Y-65962448D01*
X194794685Y-65895584D01*
X194824659Y-65863379D01*
X194825669Y-65862624D01*
X194891121Y-65838192D01*
X194959398Y-65853026D01*
X194974318Y-65862614D01*
X194975338Y-65863378D01*
X195017193Y-65919320D01*
X195024972Y-65962472D01*
X195025000Y-65962500D01*
X195072828Y-65962500D01*
X195072834Y-65962499D01*
X195078233Y-65961919D01*
X195146993Y-65974322D01*
X195198132Y-66021930D01*
X195215414Y-66089629D01*
X195193352Y-66155924D01*
X195179174Y-66172889D01*
X193531286Y-67820778D01*
X193419481Y-67932582D01*
X193419479Y-67932584D01*
X193404678Y-67958221D01*
X193398422Y-67969058D01*
X193340423Y-68069515D01*
X193299499Y-68222243D01*
X193299499Y-68222245D01*
X193299499Y-68390346D01*
X193299500Y-68390359D01*
X193299500Y-68482799D01*
X193291682Y-68526132D01*
X193280908Y-68555016D01*
X193274501Y-68614616D01*
X193274500Y-68614635D01*
X193274500Y-69810370D01*
X193274501Y-69810376D01*
X193280908Y-69869983D01*
X193331202Y-70004828D01*
X193331206Y-70004835D01*
X193417452Y-70120044D01*
X193417455Y-70120047D01*
X193532664Y-70206293D01*
X193532673Y-70206298D01*
X193593026Y-70228808D01*
X193648960Y-70270679D01*
X193673378Y-70336143D01*
X193667401Y-70383991D01*
X193664651Y-70392289D01*
X193654500Y-70491647D01*
X193654500Y-71088337D01*
X193654501Y-71088355D01*
X193664650Y-71187707D01*
X193664651Y-71187710D01*
X193717996Y-71348694D01*
X193718001Y-71348705D01*
X193807029Y-71493040D01*
X193807032Y-71493044D01*
X193926955Y-71612967D01*
X193926959Y-71612970D01*
X194071294Y-71701998D01*
X194071297Y-71701999D01*
X194071303Y-71702003D01*
X194232292Y-71755349D01*
X194331655Y-71765500D01*
X194878344Y-71765499D01*
X194878352Y-71765498D01*
X194878355Y-71765498D01*
X194932760Y-71759940D01*
X194977708Y-71755349D01*
X195138697Y-71702003D01*
X195283044Y-71612968D01*
X195292668Y-71603343D01*
X195353987Y-71569856D01*
X195423679Y-71574835D01*
X195468034Y-71603339D01*
X195477267Y-71612572D01*
X195477271Y-71612575D01*
X195621507Y-71701542D01*
X195621518Y-71701547D01*
X195782393Y-71754855D01*
X195881683Y-71764999D01*
X196405000Y-71764999D01*
X196428308Y-71764999D01*
X196428322Y-71764998D01*
X196527607Y-71754855D01*
X196688481Y-71701547D01*
X196688492Y-71701542D01*
X196832728Y-71612575D01*
X196832732Y-71612572D01*
X196922010Y-71523294D01*
X197508105Y-71523294D01*
X197727509Y-71303890D01*
X198431786Y-71303890D01*
X198786755Y-71658859D01*
X199141723Y-71303890D01*
X199846000Y-71303890D01*
X200200969Y-71658859D01*
X200555937Y-71303890D01*
X200200969Y-70948922D01*
X199846000Y-71303890D01*
X199141723Y-71303890D01*
X198786755Y-70948922D01*
X198431786Y-71303890D01*
X197727509Y-71303890D01*
X197596910Y-71173291D01*
X197588896Y-71251739D01*
X197588026Y-71258440D01*
X197585903Y-71271911D01*
X197584668Y-71278563D01*
X197578979Y-71305139D01*
X197577384Y-71311709D01*
X197573806Y-71324872D01*
X197571854Y-71331350D01*
X197509710Y-71518887D01*
X197508105Y-71523294D01*
X196922010Y-71523294D01*
X196952572Y-71492732D01*
X196952575Y-71492728D01*
X197041542Y-71348492D01*
X197041547Y-71348481D01*
X197094855Y-71187606D01*
X197104999Y-71088322D01*
X197105000Y-71088309D01*
X197105000Y-71040000D01*
X196405000Y-71040000D01*
X196405000Y-71764999D01*
X195881683Y-71764999D01*
X195905000Y-71764998D01*
X195905000Y-70914000D01*
X195924685Y-70846961D01*
X195977489Y-70801206D01*
X196029000Y-70790000D01*
X196155000Y-70790000D01*
X196155000Y-70664000D01*
X196174685Y-70596961D01*
X196174889Y-70596784D01*
X197724680Y-70596784D01*
X198079648Y-70951752D01*
X198434616Y-70596784D01*
X199138894Y-70596784D01*
X199493862Y-70951752D01*
X199848830Y-70596784D01*
X200553107Y-70596784D01*
X200884500Y-70928177D01*
X200884500Y-70265391D01*
X200553107Y-70596784D01*
X199848830Y-70596784D01*
X199493862Y-70241816D01*
X199138894Y-70596784D01*
X198434616Y-70596784D01*
X198079648Y-70241816D01*
X197724680Y-70596784D01*
X196174889Y-70596784D01*
X196227489Y-70551206D01*
X196279000Y-70540000D01*
X197104999Y-70540000D01*
X197104999Y-70491692D01*
X197104998Y-70491677D01*
X197094855Y-70392392D01*
X197041547Y-70231518D01*
X197041542Y-70231507D01*
X196952575Y-70087271D01*
X196952572Y-70087267D01*
X196832732Y-69967427D01*
X196832728Y-69967424D01*
X196688492Y-69878457D01*
X196688481Y-69878452D01*
X196609996Y-69852445D01*
X196552551Y-69812672D01*
X196525728Y-69748156D01*
X196525000Y-69734739D01*
X196525000Y-69668833D01*
X197238415Y-69668833D01*
X197314961Y-69745379D01*
X197319907Y-69750620D01*
X197329578Y-69761486D01*
X197334219Y-69767017D01*
X197352201Y-69789759D01*
X197356507Y-69795543D01*
X197364853Y-69807462D01*
X197368817Y-69813489D01*
X197473014Y-69982416D01*
X197476623Y-69988667D01*
X197483529Y-70001476D01*
X197486766Y-70007922D01*
X197499018Y-70034199D01*
X197501873Y-70040818D01*
X197507243Y-70054335D01*
X197509710Y-70061113D01*
X197521249Y-70095936D01*
X197727508Y-69889677D01*
X198431787Y-69889677D01*
X198786755Y-70244645D01*
X199141723Y-69889677D01*
X199846001Y-69889677D01*
X200200969Y-70244645D01*
X200555937Y-69889677D01*
X200200969Y-69534709D01*
X199846001Y-69889677D01*
X199141723Y-69889677D01*
X198786755Y-69534709D01*
X198431787Y-69889677D01*
X197727508Y-69889677D01*
X197727509Y-69889676D01*
X197372540Y-69534708D01*
X197238415Y-69668833D01*
X196525000Y-69668833D01*
X196525000Y-69337500D01*
X196024000Y-69337500D01*
X196010374Y-69333499D01*
X197875609Y-69333499D01*
X198079647Y-69537537D01*
X198282265Y-69334920D01*
X199291244Y-69334920D01*
X199493861Y-69537537D01*
X199692899Y-69338499D01*
X199345319Y-69338500D01*
X199342160Y-69338460D01*
X199335803Y-69338298D01*
X199332662Y-69338178D01*
X199320002Y-69337534D01*
X199316839Y-69337332D01*
X199310489Y-69336846D01*
X199307350Y-69336566D01*
X199291244Y-69334920D01*
X198282265Y-69334920D01*
X198283686Y-69333499D01*
X197875609Y-69333499D01*
X196010374Y-69333499D01*
X195956961Y-69317815D01*
X195911206Y-69265011D01*
X195900000Y-69213500D01*
X195900000Y-69211500D01*
X195908495Y-69182569D01*
X200553106Y-69182569D01*
X200884500Y-69513963D01*
X200884500Y-68851177D01*
X200879222Y-68856454D01*
X200876901Y-68859770D01*
X200872596Y-68865553D01*
X200854614Y-68888295D01*
X200849973Y-68893826D01*
X200840302Y-68904692D01*
X200835356Y-68909933D01*
X200694933Y-69050356D01*
X200689692Y-69055302D01*
X200678826Y-69064973D01*
X200673295Y-69069614D01*
X200650553Y-69087596D01*
X200644769Y-69091902D01*
X200641449Y-69094226D01*
X200553106Y-69182569D01*
X195908495Y-69182569D01*
X195919685Y-69144461D01*
X195972489Y-69098706D01*
X196024000Y-69087500D01*
X196525000Y-69087500D01*
X196525000Y-68614500D01*
X196544685Y-68547461D01*
X196597489Y-68501706D01*
X196649000Y-68490500D01*
X197183080Y-68490500D01*
X197250119Y-68510185D01*
X197288619Y-68549405D01*
X197297028Y-68563039D01*
X197297032Y-68563044D01*
X197416955Y-68682967D01*
X197416959Y-68682970D01*
X197561294Y-68771998D01*
X197561297Y-68771999D01*
X197561303Y-68772003D01*
X197722292Y-68825349D01*
X197821655Y-68835500D01*
X198418344Y-68835499D01*
X198418352Y-68835498D01*
X198418355Y-68835498D01*
X198495652Y-68827602D01*
X198517708Y-68825349D01*
X198678697Y-68772003D01*
X198815852Y-68687403D01*
X198883240Y-68668964D01*
X198946043Y-68687405D01*
X199091294Y-68776998D01*
X199091297Y-68776999D01*
X199091303Y-68777003D01*
X199252292Y-68830349D01*
X199351655Y-68840500D01*
X199948344Y-68840499D01*
X199948352Y-68840498D01*
X199948355Y-68840498D01*
X200002760Y-68834940D01*
X200047708Y-68830349D01*
X200208697Y-68777003D01*
X200353044Y-68687968D01*
X200472968Y-68568044D01*
X200548495Y-68445595D01*
X200592030Y-68403310D01*
X200648826Y-68370520D01*
X200760630Y-68258716D01*
X200760630Y-68258714D01*
X200770834Y-68248511D01*
X200770837Y-68248506D01*
X201170820Y-67848524D01*
X201232142Y-67815040D01*
X201301834Y-67820024D01*
X201357767Y-67861896D01*
X201382184Y-67927360D01*
X201382500Y-67936206D01*
X201382500Y-78636330D01*
X201382499Y-78636348D01*
X201382499Y-78802054D01*
X201382498Y-78802054D01*
X201382499Y-78802057D01*
X201420336Y-78943266D01*
X201423424Y-78954788D01*
X201429030Y-78964497D01*
X201429032Y-78964500D01*
X201502477Y-79091712D01*
X201502481Y-79091717D01*
X201621349Y-79210585D01*
X201621355Y-79210590D01*
X202272213Y-79861449D01*
X202305698Y-79922772D01*
X202307005Y-79968528D01*
X202294500Y-80047480D01*
X202294500Y-80047486D01*
X202294500Y-80232514D01*
X202298376Y-80256988D01*
X202323445Y-80415265D01*
X202380619Y-80591232D01*
X202380620Y-80591235D01*
X202447446Y-80722387D01*
X202464622Y-80756096D01*
X202573379Y-80905787D01*
X202704213Y-81036621D01*
X202853904Y-81145378D01*
X202930677Y-81184496D01*
X203018764Y-81229379D01*
X203018767Y-81229380D01*
X203085339Y-81251010D01*
X203194736Y-81286555D01*
X203377486Y-81315500D01*
X203377487Y-81315500D01*
X203562513Y-81315500D01*
X203562514Y-81315500D01*
X203745264Y-81286555D01*
X203921235Y-81229379D01*
X204086096Y-81145378D01*
X204235787Y-81036621D01*
X204366621Y-80905787D01*
X204475378Y-80756096D01*
X204485425Y-80736378D01*
X205035847Y-80736378D01*
X205150716Y-80851247D01*
X205505684Y-80496279D01*
X206209962Y-80496279D01*
X206564930Y-80851247D01*
X206919898Y-80496279D01*
X206919897Y-80496278D01*
X207624174Y-80496278D01*
X207965653Y-80837757D01*
X207953527Y-80806663D01*
X207952465Y-80803838D01*
X207949355Y-80795252D01*
X207948355Y-80792384D01*
X207929785Y-80736910D01*
X207928859Y-80734026D01*
X207926171Y-80725293D01*
X207925315Y-80722387D01*
X207832136Y-80391084D01*
X207830936Y-80386480D01*
X207818518Y-80334794D01*
X207817495Y-80330144D01*
X207812964Y-80307489D01*
X207624174Y-80496278D01*
X206919897Y-80496278D01*
X206564930Y-80141311D01*
X206209962Y-80496279D01*
X205505684Y-80496279D01*
X205150716Y-80141311D01*
X205143500Y-80148527D01*
X205143500Y-80242299D01*
X205143404Y-80247171D01*
X205143018Y-80256988D01*
X205142731Y-80261852D01*
X205141195Y-80281354D01*
X205140719Y-80286188D01*
X205139566Y-80295933D01*
X205138898Y-80300761D01*
X205106894Y-80502826D01*
X205106039Y-80507615D01*
X205104125Y-80517239D01*
X205103082Y-80521995D01*
X205098516Y-80541017D01*
X205097285Y-80545734D01*
X205094618Y-80555190D01*
X205093205Y-80559848D01*
X205035847Y-80736378D01*
X204485425Y-80736378D01*
X204559379Y-80591235D01*
X204616555Y-80415264D01*
X204645500Y-80232514D01*
X204645500Y-80047486D01*
X204616555Y-79864736D01*
X204592003Y-79789172D01*
X205502855Y-79789172D01*
X205857823Y-80144140D01*
X206212791Y-79789172D01*
X206917068Y-79789172D01*
X207272036Y-80144140D01*
X207627004Y-79789172D01*
X207272036Y-79434203D01*
X206917068Y-79789172D01*
X206212791Y-79789172D01*
X205857823Y-79434204D01*
X205502855Y-79789172D01*
X204592003Y-79789172D01*
X204559379Y-79688765D01*
X204559379Y-79688764D01*
X204516577Y-79604763D01*
X204475378Y-79523904D01*
X204366621Y-79374213D01*
X204235787Y-79243379D01*
X204231576Y-79240319D01*
X204188909Y-79184994D01*
X204182968Y-79115867D01*
X204829550Y-79115867D01*
X205150716Y-79437033D01*
X205505684Y-79082065D01*
X206209962Y-79082065D01*
X206564930Y-79437033D01*
X206919898Y-79082065D01*
X207624175Y-79082065D01*
X207737209Y-79195099D01*
X207762973Y-78943266D01*
X207624175Y-79082065D01*
X206919898Y-79082065D01*
X206564930Y-78727097D01*
X206209962Y-79082065D01*
X205505684Y-79082065D01*
X205150715Y-78727096D01*
X204943479Y-78934332D01*
X204914659Y-78990897D01*
X204912365Y-78995190D01*
X204907568Y-79003756D01*
X204905106Y-79007956D01*
X204894885Y-79024636D01*
X204892256Y-79028743D01*
X204886800Y-79036908D01*
X204884018Y-79040900D01*
X204829550Y-79115867D01*
X204182968Y-79115867D01*
X204182926Y-79115381D01*
X204215529Y-79053585D01*
X204231570Y-79039684D01*
X204235787Y-79036621D01*
X204366621Y-78905787D01*
X204475378Y-78756096D01*
X204559379Y-78591235D01*
X204616555Y-78415264D01*
X204622939Y-78374958D01*
X205502855Y-78374958D01*
X205857823Y-78729926D01*
X206212791Y-78374958D01*
X206917068Y-78374958D01*
X207272036Y-78729926D01*
X207627004Y-78374958D01*
X207272036Y-78019989D01*
X206917068Y-78374958D01*
X206212791Y-78374958D01*
X205857823Y-78019990D01*
X205502855Y-78374958D01*
X204622939Y-78374958D01*
X204645500Y-78232514D01*
X204645500Y-78047486D01*
X204616555Y-77864736D01*
X204578768Y-77748439D01*
X204559380Y-77688767D01*
X204559379Y-77688764D01*
X204494599Y-77561628D01*
X204475378Y-77523904D01*
X204429845Y-77461233D01*
X205002364Y-77461233D01*
X205007541Y-77471392D01*
X205009670Y-77475782D01*
X205013781Y-77484701D01*
X205015729Y-77489154D01*
X205023216Y-77507229D01*
X205024994Y-77511772D01*
X205028391Y-77520982D01*
X205029983Y-77525574D01*
X205093205Y-77720152D01*
X205094618Y-77724810D01*
X205097285Y-77734266D01*
X205098516Y-77738983D01*
X205103082Y-77758005D01*
X205104125Y-77762761D01*
X205106039Y-77772385D01*
X205106894Y-77777174D01*
X205138898Y-77979239D01*
X205139566Y-77984067D01*
X205140719Y-77993812D01*
X205141195Y-77998646D01*
X205142447Y-78014551D01*
X205150716Y-78022820D01*
X205505684Y-77667851D01*
X206209961Y-77667851D01*
X206564930Y-78022820D01*
X206919898Y-77667851D01*
X207624174Y-77667851D01*
X207979142Y-78022819D01*
X208042243Y-77959717D01*
X208113203Y-77794149D01*
X208114687Y-77790823D01*
X208131805Y-77753915D01*
X208133386Y-77750634D01*
X208227888Y-77561628D01*
X207979142Y-77312883D01*
X207624174Y-77667851D01*
X206919898Y-77667851D01*
X206564930Y-77312883D01*
X206209961Y-77667851D01*
X205505684Y-77667851D01*
X205150715Y-77312882D01*
X205002364Y-77461233D01*
X204429845Y-77461233D01*
X204366621Y-77374213D01*
X204235787Y-77243379D01*
X204227774Y-77237557D01*
X204161165Y-77189162D01*
X204146190Y-77169742D01*
X203937193Y-76960745D01*
X205502855Y-76960745D01*
X205857823Y-77315713D01*
X206212791Y-76960745D01*
X206917068Y-76960745D01*
X207272036Y-77315713D01*
X207627004Y-76960745D01*
X208331282Y-76960745D01*
X208496146Y-77125609D01*
X208572880Y-77006246D01*
X208574710Y-77003481D01*
X208578475Y-76997955D01*
X208580377Y-76995242D01*
X208588173Y-76984432D01*
X208590155Y-76981761D01*
X208594216Y-76976437D01*
X208596263Y-76973826D01*
X208672397Y-76879365D01*
X208674513Y-76876810D01*
X208678840Y-76871726D01*
X208681010Y-76869244D01*
X208689914Y-76859329D01*
X208692183Y-76856870D01*
X208696794Y-76852006D01*
X208699103Y-76849635D01*
X208814605Y-76734132D01*
X208686250Y-76605777D01*
X208331282Y-76960745D01*
X207627004Y-76960745D01*
X207272036Y-76605776D01*
X206917068Y-76960745D01*
X206212791Y-76960745D01*
X205857823Y-76605777D01*
X205502855Y-76960745D01*
X203937193Y-76960745D01*
X203516447Y-76540000D01*
X203522661Y-76540000D01*
X203624394Y-76512741D01*
X203715606Y-76460080D01*
X203790080Y-76385606D01*
X203842741Y-76294394D01*
X203870000Y-76192661D01*
X203870000Y-76186447D01*
X204459983Y-76776430D01*
X204459984Y-76776430D01*
X204474942Y-76755845D01*
X204474947Y-76755836D01*
X204558915Y-76591043D01*
X204558916Y-76591040D01*
X204571376Y-76552691D01*
X205094801Y-76552691D01*
X205150716Y-76608606D01*
X205505684Y-76253638D01*
X206209962Y-76253638D01*
X206564930Y-76608606D01*
X206919898Y-76253638D01*
X207624175Y-76253638D01*
X207979143Y-76608606D01*
X208334111Y-76253638D01*
X209038389Y-76253638D01*
X209173389Y-76388638D01*
X209481807Y-76134647D01*
X209486089Y-76131276D01*
X209499190Y-76121420D01*
X209503590Y-76118257D01*
X209568449Y-76073762D01*
X209393357Y-75898670D01*
X209038389Y-76253638D01*
X208334111Y-76253638D01*
X207979143Y-75898670D01*
X207624175Y-76253638D01*
X206919898Y-76253638D01*
X206564930Y-75898670D01*
X206209962Y-76253638D01*
X205505684Y-76253638D01*
X205150716Y-75898670D01*
X205129060Y-75920325D01*
X205138398Y-75979278D01*
X205139066Y-75984107D01*
X205140219Y-75993852D01*
X205140695Y-75998686D01*
X205142231Y-76018188D01*
X205142518Y-76023052D01*
X205142904Y-76032869D01*
X205143000Y-76037741D01*
X205143000Y-76242259D01*
X205142904Y-76247131D01*
X205142518Y-76256948D01*
X205142231Y-76261812D01*
X205140695Y-76281314D01*
X205140219Y-76286148D01*
X205139066Y-76295893D01*
X205138398Y-76300721D01*
X205106406Y-76502709D01*
X205105548Y-76507513D01*
X205103633Y-76517136D01*
X205102594Y-76521871D01*
X205098029Y-76540893D01*
X205096797Y-76545616D01*
X205094801Y-76552691D01*
X204571376Y-76552691D01*
X204616066Y-76415147D01*
X204645000Y-76232473D01*
X204645000Y-76047526D01*
X204616066Y-75864852D01*
X204558916Y-75688959D01*
X204558915Y-75688956D01*
X204486345Y-75546531D01*
X205502855Y-75546531D01*
X205857823Y-75901499D01*
X206212791Y-75546531D01*
X206917068Y-75546531D01*
X207272036Y-75901499D01*
X207627004Y-75546531D01*
X208331282Y-75546531D01*
X208686250Y-75901499D01*
X209041218Y-75546531D01*
X209041217Y-75546530D01*
X209745495Y-75546530D01*
X210016164Y-75817199D01*
X210019984Y-75815133D01*
X210031737Y-75809041D01*
X210035666Y-75807092D01*
X210112205Y-75770794D01*
X210116190Y-75768989D01*
X210128339Y-75763744D01*
X210132408Y-75762073D01*
X210308678Y-75693283D01*
X210455431Y-75546530D01*
X210342157Y-75433256D01*
X212687196Y-75433256D01*
X213166095Y-75563866D01*
X213170221Y-75565069D01*
X213182601Y-75568911D01*
X213186682Y-75570255D01*
X213241141Y-75589248D01*
X213283857Y-75546531D01*
X213988136Y-75546531D01*
X214343104Y-75901499D01*
X214491500Y-75753103D01*
X214491500Y-75339959D01*
X214343104Y-75191563D01*
X213988136Y-75546531D01*
X213283857Y-75546531D01*
X213283858Y-75546530D01*
X212928890Y-75191562D01*
X212687196Y-75433256D01*
X210342157Y-75433256D01*
X210323350Y-75414449D01*
X211291790Y-75414449D01*
X211489466Y-75388665D01*
X211493358Y-75388219D01*
X211536864Y-75383937D01*
X211540762Y-75383616D01*
X211696356Y-75373242D01*
X211514677Y-75191563D01*
X211291790Y-75414449D01*
X210323350Y-75414449D01*
X210100463Y-75191562D01*
X209745495Y-75546530D01*
X209041217Y-75546530D01*
X208686250Y-75191563D01*
X208331282Y-75546531D01*
X207627004Y-75546531D01*
X207272036Y-75191562D01*
X206917068Y-75546531D01*
X206212791Y-75546531D01*
X205857823Y-75191563D01*
X205502855Y-75546531D01*
X204486345Y-75546531D01*
X204474947Y-75524161D01*
X204391054Y-75408691D01*
X204367574Y-75342884D01*
X204383400Y-75274831D01*
X204417058Y-75236542D01*
X204502546Y-75172546D01*
X204530645Y-75135010D01*
X205091334Y-75135010D01*
X205150716Y-75194392D01*
X205505684Y-74839424D01*
X206209962Y-74839424D01*
X206564930Y-75194392D01*
X206919898Y-74839424D01*
X207624175Y-74839424D01*
X207979143Y-75194392D01*
X208334111Y-74839424D01*
X209038389Y-74839424D01*
X209393357Y-75194392D01*
X209748325Y-74839424D01*
X210452602Y-74839424D01*
X210807570Y-75194392D01*
X211162538Y-74839424D01*
X211866816Y-74839424D01*
X212221784Y-75194392D01*
X212576752Y-74839424D01*
X213281029Y-74839424D01*
X213635997Y-75194392D01*
X213990965Y-74839424D01*
X213635997Y-74484455D01*
X213281029Y-74839424D01*
X212576752Y-74839424D01*
X212221784Y-74484456D01*
X211866816Y-74839424D01*
X211162538Y-74839424D01*
X210807570Y-74484456D01*
X210452602Y-74839424D01*
X209748325Y-74839424D01*
X209393357Y-74484456D01*
X209038389Y-74839424D01*
X208334111Y-74839424D01*
X207979143Y-74484456D01*
X207624175Y-74839424D01*
X206919898Y-74839424D01*
X206564930Y-74484456D01*
X206209962Y-74839424D01*
X205505684Y-74839424D01*
X205150716Y-74484456D01*
X205143499Y-74491673D01*
X205143500Y-74869545D01*
X205143455Y-74872875D01*
X205143275Y-74879576D01*
X205143142Y-74882885D01*
X205142428Y-74896202D01*
X205142205Y-74899521D01*
X205141668Y-74906186D01*
X205141359Y-74909483D01*
X205132574Y-74991195D01*
X205131506Y-74998866D01*
X205128870Y-75014262D01*
X205127325Y-75021851D01*
X205120165Y-75052152D01*
X205118150Y-75059628D01*
X205113614Y-75074583D01*
X205111134Y-75081925D01*
X205091334Y-75135010D01*
X204530645Y-75135010D01*
X204588796Y-75057331D01*
X204639091Y-74922483D01*
X204645500Y-74862873D01*
X204645499Y-74132318D01*
X205502855Y-74132318D01*
X205857823Y-74487286D01*
X206212791Y-74132318D01*
X206917068Y-74132318D01*
X207272036Y-74487286D01*
X207627004Y-74132318D01*
X208331282Y-74132318D01*
X208686250Y-74487286D01*
X209041218Y-74132318D01*
X209745495Y-74132318D01*
X210100463Y-74487286D01*
X210455432Y-74132318D01*
X211159709Y-74132318D01*
X211514677Y-74487286D01*
X211869645Y-74132318D01*
X212573923Y-74132318D01*
X212928891Y-74487286D01*
X213283859Y-74132318D01*
X213988136Y-74132318D01*
X214343104Y-74487286D01*
X214491500Y-74338890D01*
X214491500Y-73925746D01*
X214343104Y-73777350D01*
X213988136Y-74132318D01*
X213283859Y-74132318D01*
X212928891Y-73777350D01*
X212573923Y-74132318D01*
X211869645Y-74132318D01*
X211514677Y-73777350D01*
X211159709Y-74132318D01*
X210455432Y-74132318D01*
X210100463Y-73777349D01*
X209745495Y-74132318D01*
X209041218Y-74132318D01*
X208686250Y-73777350D01*
X208331282Y-74132318D01*
X207627004Y-74132318D01*
X207272036Y-73777349D01*
X206917068Y-74132318D01*
X206212791Y-74132318D01*
X205857823Y-73777350D01*
X205502855Y-74132318D01*
X204645499Y-74132318D01*
X204645499Y-73417128D01*
X204639091Y-73357517D01*
X204602027Y-73258144D01*
X204588797Y-73222671D01*
X204588793Y-73222664D01*
X204522267Y-73133797D01*
X205087160Y-73133797D01*
X205111134Y-73198072D01*
X205113613Y-73205413D01*
X205118148Y-73220364D01*
X205120163Y-73227840D01*
X205127324Y-73258144D01*
X205128870Y-73265735D01*
X205131507Y-73281137D01*
X205132575Y-73288810D01*
X205141360Y-73370534D01*
X205141671Y-73373849D01*
X205142208Y-73380528D01*
X205142430Y-73383835D01*
X205143143Y-73397149D01*
X205143276Y-73400460D01*
X205143455Y-73407144D01*
X205143499Y-73410464D01*
X205143499Y-73772962D01*
X205150716Y-73780179D01*
X205505684Y-73425211D01*
X206209962Y-73425211D01*
X206564930Y-73780179D01*
X206919898Y-73425211D01*
X207624175Y-73425211D01*
X207979143Y-73780179D01*
X208334111Y-73425211D01*
X209038389Y-73425211D01*
X209393357Y-73780179D01*
X209748325Y-73425211D01*
X209748324Y-73425210D01*
X210452601Y-73425210D01*
X210807570Y-73780179D01*
X211162538Y-73425211D01*
X211162537Y-73425210D01*
X211866815Y-73425210D01*
X212221784Y-73780179D01*
X212576752Y-73425211D01*
X213281029Y-73425211D01*
X213635997Y-73780179D01*
X213990965Y-73425211D01*
X213635997Y-73070242D01*
X213281029Y-73425211D01*
X212576752Y-73425211D01*
X212349542Y-73198001D01*
X212300928Y-73216134D01*
X212293587Y-73218613D01*
X212278636Y-73223148D01*
X212271160Y-73225163D01*
X212240856Y-73232324D01*
X212233265Y-73233870D01*
X212217863Y-73236507D01*
X212210190Y-73237575D01*
X212128466Y-73246360D01*
X212125168Y-73246670D01*
X212118488Y-73247208D01*
X212115154Y-73247431D01*
X212101838Y-73248143D01*
X212098538Y-73248276D01*
X212091856Y-73248455D01*
X212088535Y-73248499D01*
X212043527Y-73248499D01*
X211866815Y-73425210D01*
X211162537Y-73425210D01*
X210985826Y-73248499D01*
X210629313Y-73248499D01*
X210452601Y-73425210D01*
X209748324Y-73425210D01*
X209393357Y-73070243D01*
X209038389Y-73425211D01*
X208334111Y-73425211D01*
X207979143Y-73070243D01*
X207624175Y-73425211D01*
X206919898Y-73425211D01*
X206564930Y-73070243D01*
X206209962Y-73425211D01*
X205505684Y-73425211D01*
X205150715Y-73070242D01*
X205087160Y-73133797D01*
X204522267Y-73133797D01*
X204502547Y-73107455D01*
X204502544Y-73107452D01*
X204387335Y-73021206D01*
X204387328Y-73021202D01*
X204252482Y-72970908D01*
X204252483Y-72970908D01*
X204192883Y-72964501D01*
X204192881Y-72964500D01*
X204192873Y-72964500D01*
X204192865Y-72964500D01*
X204084500Y-72964500D01*
X204017461Y-72944815D01*
X203971706Y-72892011D01*
X203960500Y-72840500D01*
X203960500Y-72718104D01*
X205502855Y-72718104D01*
X205857823Y-73073072D01*
X206212791Y-72718104D01*
X206917068Y-72718104D01*
X207272036Y-73073072D01*
X207627004Y-72718104D01*
X208331282Y-72718104D01*
X208686250Y-73073072D01*
X208837152Y-72922170D01*
X212777989Y-72922170D01*
X212928891Y-73073072D01*
X213283859Y-72718104D01*
X213988136Y-72718104D01*
X214343104Y-73073072D01*
X214491500Y-72924676D01*
X214491500Y-72511532D01*
X214343104Y-72363136D01*
X213988136Y-72718104D01*
X213283859Y-72718104D01*
X213017387Y-72451632D01*
X213016325Y-72456851D01*
X213009165Y-72487152D01*
X213007150Y-72494628D01*
X213002614Y-72509583D01*
X213000134Y-72516925D01*
X212938178Y-72683039D01*
X212934790Y-72691218D01*
X212927371Y-72707463D01*
X212923408Y-72715379D01*
X212906348Y-72746621D01*
X212901835Y-72754229D01*
X212892181Y-72769252D01*
X212887129Y-72776528D01*
X212779547Y-72920237D01*
X212777989Y-72922170D01*
X208837152Y-72922170D01*
X209041218Y-72718104D01*
X208686250Y-72363136D01*
X208331282Y-72718104D01*
X207627004Y-72718104D01*
X207272036Y-72363135D01*
X206917068Y-72718104D01*
X206212791Y-72718104D01*
X205857823Y-72363136D01*
X205502855Y-72718104D01*
X203960500Y-72718104D01*
X203960500Y-72516237D01*
X204458500Y-72516237D01*
X204578039Y-72560822D01*
X204586218Y-72564210D01*
X204602463Y-72571629D01*
X204610379Y-72575592D01*
X204641621Y-72592652D01*
X204649229Y-72597165D01*
X204664252Y-72606819D01*
X204671528Y-72611871D01*
X204754331Y-72673858D01*
X204458500Y-72378027D01*
X204458500Y-72516237D01*
X203960500Y-72516237D01*
X203960500Y-72010997D01*
X204795748Y-72010997D01*
X205150716Y-72365965D01*
X205505684Y-72010997D01*
X206209962Y-72010997D01*
X206564930Y-72365965D01*
X206919898Y-72010997D01*
X207624175Y-72010997D01*
X207979143Y-72365965D01*
X208334111Y-72010997D01*
X207979143Y-71656029D01*
X207624175Y-72010997D01*
X206919898Y-72010997D01*
X206564930Y-71656029D01*
X206209962Y-72010997D01*
X205505684Y-72010997D01*
X205150716Y-71656029D01*
X204795748Y-72010997D01*
X203960500Y-72010997D01*
X203960500Y-71643968D01*
X204458500Y-71643968D01*
X204798577Y-71303890D01*
X205502854Y-71303890D01*
X205857823Y-71658859D01*
X206212791Y-71303890D01*
X206917067Y-71303890D01*
X207272036Y-71658859D01*
X207627004Y-71303890D01*
X208331281Y-71303890D01*
X208686249Y-71658858D01*
X209035500Y-71309608D01*
X209035500Y-71298172D01*
X208686249Y-70948922D01*
X208331281Y-71303890D01*
X207627004Y-71303890D01*
X207272036Y-70948922D01*
X206917067Y-71303890D01*
X206212791Y-71303890D01*
X205857823Y-70948922D01*
X205502854Y-71303890D01*
X204798577Y-71303890D01*
X204458500Y-70963813D01*
X204458500Y-71643968D01*
X203960500Y-71643968D01*
X203960500Y-70596784D01*
X204795748Y-70596784D01*
X205150716Y-70951752D01*
X205505684Y-70596784D01*
X206209962Y-70596784D01*
X206564930Y-70951752D01*
X206919898Y-70596784D01*
X207624175Y-70596784D01*
X207979143Y-70951752D01*
X208334111Y-70596784D01*
X208139462Y-70402135D01*
X209533500Y-70402135D01*
X209533500Y-72297870D01*
X209533501Y-72297876D01*
X209539908Y-72357483D01*
X209590202Y-72492328D01*
X209590206Y-72492335D01*
X209676452Y-72607544D01*
X209676455Y-72607547D01*
X209791664Y-72693793D01*
X209791671Y-72693797D01*
X209926517Y-72744091D01*
X209926516Y-72744091D01*
X209933444Y-72744835D01*
X209986127Y-72750500D01*
X212081872Y-72750499D01*
X212141483Y-72744091D01*
X212276331Y-72693796D01*
X212391546Y-72607546D01*
X212477796Y-72492331D01*
X212528091Y-72357483D01*
X212534500Y-72297873D01*
X212534500Y-72010997D01*
X213281029Y-72010997D01*
X213635997Y-72365965D01*
X213990965Y-72010997D01*
X213635997Y-71656028D01*
X213281029Y-72010997D01*
X212534500Y-72010997D01*
X212534500Y-71555251D01*
X213032499Y-71555251D01*
X213283859Y-71303890D01*
X213988135Y-71303890D01*
X214343104Y-71658859D01*
X214491500Y-71510463D01*
X214491500Y-71097318D01*
X214343104Y-70948922D01*
X213988135Y-71303890D01*
X213283859Y-71303890D01*
X213032499Y-71052530D01*
X213032499Y-71555251D01*
X212534500Y-71555251D01*
X212534499Y-70688499D01*
X213372744Y-70688499D01*
X213635997Y-70951752D01*
X213899251Y-70688499D01*
X213372744Y-70688499D01*
X212534499Y-70688499D01*
X212534499Y-70402128D01*
X212528091Y-70342517D01*
X212485680Y-70228808D01*
X212477797Y-70207671D01*
X212477793Y-70207664D01*
X212391547Y-70092455D01*
X212391544Y-70092452D01*
X212276335Y-70006206D01*
X212276328Y-70006202D01*
X212141482Y-69955908D01*
X212141483Y-69955908D01*
X212081883Y-69949501D01*
X212081881Y-69949500D01*
X212081873Y-69949500D01*
X212081864Y-69949500D01*
X209986129Y-69949500D01*
X209986123Y-69949501D01*
X209926516Y-69955908D01*
X209791671Y-70006202D01*
X209791664Y-70006206D01*
X209676455Y-70092452D01*
X209676452Y-70092455D01*
X209590206Y-70207664D01*
X209590202Y-70207671D01*
X209539908Y-70342517D01*
X209533501Y-70402116D01*
X209533501Y-70402123D01*
X209533500Y-70402135D01*
X208139462Y-70402135D01*
X207979143Y-70241816D01*
X207624175Y-70596784D01*
X206919898Y-70596784D01*
X206564930Y-70241816D01*
X206209962Y-70596784D01*
X205505684Y-70596784D01*
X205150716Y-70241816D01*
X204795748Y-70596784D01*
X203960500Y-70596784D01*
X203960500Y-70229754D01*
X204458500Y-70229754D01*
X204798577Y-69889677D01*
X205502855Y-69889677D01*
X205857823Y-70244645D01*
X206212791Y-69889677D01*
X206917068Y-69889677D01*
X207272036Y-70244645D01*
X207627004Y-69889677D01*
X208331282Y-69889677D01*
X208686250Y-70244645D01*
X209041218Y-69889677D01*
X208686250Y-69534709D01*
X208331282Y-69889677D01*
X207627004Y-69889677D01*
X207272036Y-69534708D01*
X206917068Y-69889677D01*
X206212791Y-69889677D01*
X205857823Y-69534709D01*
X205502855Y-69889677D01*
X204798577Y-69889677D01*
X204458500Y-69549600D01*
X204458500Y-70229754D01*
X203960500Y-70229754D01*
X203960500Y-69182570D01*
X204795748Y-69182570D01*
X205150716Y-69537538D01*
X205505684Y-69182570D01*
X206209962Y-69182570D01*
X206564930Y-69537538D01*
X206919898Y-69182570D01*
X207624175Y-69182570D01*
X207979143Y-69537538D01*
X208334111Y-69182570D01*
X209038389Y-69182570D01*
X209393357Y-69537538D01*
X209748325Y-69182570D01*
X210452602Y-69182570D01*
X210721532Y-69451500D01*
X210893607Y-69451500D01*
X211162536Y-69182570D01*
X211866816Y-69182570D01*
X212134500Y-69450254D01*
X212134500Y-69355455D01*
X212134545Y-69352126D01*
X212134725Y-69345424D01*
X212134858Y-69342105D01*
X212135573Y-69328788D01*
X212135794Y-69325492D01*
X212136330Y-69318830D01*
X212136641Y-69315522D01*
X212138309Y-69299998D01*
X212136640Y-69284466D01*
X212136329Y-69281152D01*
X212135792Y-69274473D01*
X212135570Y-69271166D01*
X212134857Y-69257851D01*
X212134724Y-69254540D01*
X212134545Y-69247857D01*
X212134501Y-69244537D01*
X212134500Y-68914885D01*
X211866816Y-69182570D01*
X211162536Y-69182570D01*
X211162537Y-69182569D01*
X210807570Y-68827602D01*
X210452602Y-69182570D01*
X209748325Y-69182570D01*
X209393357Y-68827602D01*
X209038389Y-69182570D01*
X208334111Y-69182570D01*
X207979143Y-68827602D01*
X207624175Y-69182570D01*
X206919898Y-69182570D01*
X206564930Y-68827602D01*
X206209962Y-69182570D01*
X205505684Y-69182570D01*
X205150716Y-68827602D01*
X204795748Y-69182570D01*
X203960500Y-69182570D01*
X203960500Y-68815540D01*
X204458500Y-68815540D01*
X204798577Y-68475463D01*
X205502855Y-68475463D01*
X205857823Y-68830431D01*
X206212791Y-68475463D01*
X206917068Y-68475463D01*
X207272036Y-68830431D01*
X207627004Y-68475463D01*
X208331282Y-68475463D01*
X208686250Y-68830431D01*
X209041218Y-68475463D01*
X209745495Y-68475463D01*
X210100463Y-68830431D01*
X210455432Y-68475463D01*
X211159709Y-68475463D01*
X211514677Y-68830431D01*
X211869645Y-68475463D01*
X211514677Y-68120495D01*
X211159709Y-68475463D01*
X210455432Y-68475463D01*
X210100463Y-68120494D01*
X209745495Y-68475463D01*
X209041218Y-68475463D01*
X208686250Y-68120495D01*
X208331282Y-68475463D01*
X207627004Y-68475463D01*
X207272036Y-68120494D01*
X206917068Y-68475463D01*
X206212791Y-68475463D01*
X205857823Y-68120495D01*
X205502855Y-68475463D01*
X204798577Y-68475463D01*
X204458500Y-68135386D01*
X204458500Y-68815540D01*
X203960500Y-68815540D01*
X203960500Y-67828163D01*
X203978061Y-67768356D01*
X204795747Y-67768356D01*
X205150716Y-68123325D01*
X205505684Y-67768357D01*
X206209962Y-67768357D01*
X206564930Y-68123325D01*
X206919898Y-67768357D01*
X207624175Y-67768357D01*
X207979143Y-68123325D01*
X208334111Y-67768357D01*
X209038389Y-67768357D01*
X209393357Y-68123325D01*
X209748325Y-67768357D01*
X210452602Y-67768357D01*
X210807570Y-68123325D01*
X211162538Y-67768357D01*
X211866816Y-67768357D01*
X212134500Y-68036041D01*
X212134500Y-67855455D01*
X212134545Y-67852126D01*
X212134725Y-67845424D01*
X212134858Y-67842105D01*
X212135573Y-67828788D01*
X212135794Y-67825492D01*
X212136330Y-67818830D01*
X212136641Y-67815522D01*
X212138309Y-67799998D01*
X212136640Y-67784466D01*
X212136329Y-67781152D01*
X212135792Y-67774473D01*
X212135570Y-67771166D01*
X212134857Y-67757851D01*
X212134724Y-67754540D01*
X212134545Y-67747857D01*
X212134501Y-67744537D01*
X212134500Y-67500672D01*
X211866816Y-67768357D01*
X211162538Y-67768357D01*
X210807570Y-67413389D01*
X210452602Y-67768357D01*
X209748325Y-67768357D01*
X209393357Y-67413389D01*
X209038389Y-67768357D01*
X208334111Y-67768357D01*
X207979143Y-67413389D01*
X207624175Y-67768357D01*
X206919898Y-67768357D01*
X206564930Y-67413389D01*
X206209962Y-67768357D01*
X205505684Y-67768357D01*
X205191519Y-67454192D01*
X205191211Y-67454358D01*
X205185775Y-67457094D01*
X205174681Y-67462341D01*
X205169116Y-67464808D01*
X205049928Y-67514175D01*
X204795747Y-67768356D01*
X203978061Y-67768356D01*
X203980185Y-67761124D01*
X203996819Y-67740482D01*
X204283109Y-67454192D01*
X204596395Y-67140906D01*
X205582511Y-67140906D01*
X205857823Y-67416218D01*
X206212791Y-67061250D01*
X206917068Y-67061250D01*
X207272036Y-67416218D01*
X207627004Y-67061250D01*
X208331282Y-67061250D01*
X208686250Y-67416218D01*
X209041218Y-67061250D01*
X209745495Y-67061250D01*
X210100463Y-67416218D01*
X210455432Y-67061250D01*
X211159709Y-67061250D01*
X211514677Y-67416218D01*
X211869645Y-67061250D01*
X211600048Y-66791653D01*
X211597282Y-66792110D01*
X211564938Y-66796369D01*
X211556862Y-66797164D01*
X211540526Y-66798235D01*
X211532414Y-66798501D01*
X211422458Y-66798501D01*
X211159709Y-67061250D01*
X210455432Y-67061250D01*
X210192682Y-66798500D01*
X210008246Y-66798500D01*
X209745495Y-67061250D01*
X209041218Y-67061250D01*
X208778468Y-66798500D01*
X208594032Y-66798500D01*
X208331282Y-67061250D01*
X207627004Y-67061250D01*
X207364254Y-66798500D01*
X207179818Y-66798500D01*
X206917068Y-67061250D01*
X206212791Y-67061250D01*
X205950041Y-66798500D01*
X205787066Y-66798500D01*
X205752873Y-66881051D01*
X205750407Y-66886615D01*
X205745160Y-66897709D01*
X205742424Y-66903145D01*
X205730895Y-66924715D01*
X205727899Y-66930004D01*
X205721588Y-66940535D01*
X205718327Y-66945685D01*
X205617133Y-67097131D01*
X205613630Y-67102105D01*
X205606319Y-67111963D01*
X205602573Y-67116764D01*
X205587057Y-67135670D01*
X205583088Y-67140271D01*
X205582511Y-67140906D01*
X204596395Y-67140906D01*
X204602730Y-67134571D01*
X204664051Y-67101088D01*
X204666218Y-67100637D01*
X204666907Y-67100500D01*
X204666908Y-67100500D01*
X204821563Y-67069737D01*
X204967245Y-67009394D01*
X205098355Y-66921789D01*
X205209855Y-66810289D01*
X205297460Y-66679179D01*
X205357803Y-66533497D01*
X205372348Y-66460377D01*
X205384297Y-66400308D01*
X205416682Y-66338397D01*
X205477398Y-66303823D01*
X205505914Y-66300500D01*
X211350374Y-66300500D01*
X211350390Y-66300501D01*
X211357986Y-66300501D01*
X211516097Y-66300501D01*
X211516100Y-66300501D01*
X211668828Y-66259577D01*
X211735745Y-66220942D01*
X211805759Y-66180520D01*
X211805766Y-66180512D01*
X211811486Y-66176125D01*
X211876655Y-66150930D01*
X211886974Y-66150500D01*
X212511724Y-66150500D01*
X212578763Y-66170185D01*
X212624518Y-66222989D01*
X212635014Y-66261248D01*
X212637755Y-66286748D01*
X212637755Y-66313250D01*
X212632500Y-66362127D01*
X212632500Y-66362132D01*
X212632500Y-66362133D01*
X212632500Y-66737869D01*
X212632501Y-66737874D01*
X212637755Y-66786746D01*
X212637755Y-66813250D01*
X212632500Y-66862127D01*
X212632500Y-66862132D01*
X212632500Y-66862133D01*
X212632500Y-67237869D01*
X212632501Y-67237874D01*
X212637755Y-67286746D01*
X212637755Y-67313250D01*
X212632500Y-67362127D01*
X212632500Y-67362132D01*
X212632500Y-67362133D01*
X212632500Y-67737869D01*
X212632501Y-67737874D01*
X212635258Y-67763524D01*
X212637153Y-67781152D01*
X212637755Y-67786746D01*
X212637755Y-67813250D01*
X212632500Y-67862127D01*
X212632500Y-67862132D01*
X212632500Y-67862133D01*
X212632500Y-68237869D01*
X212632501Y-68237874D01*
X212637755Y-68286746D01*
X212637755Y-68313250D01*
X212632500Y-68362127D01*
X212632500Y-68362132D01*
X212632500Y-68362133D01*
X212632500Y-68737869D01*
X212632501Y-68737872D01*
X212636707Y-68777003D01*
X212637755Y-68786746D01*
X212637755Y-68813250D01*
X212632500Y-68862127D01*
X212632500Y-68862132D01*
X212632500Y-68862133D01*
X212632500Y-69237869D01*
X212632501Y-69237872D01*
X212637153Y-69281152D01*
X212637755Y-69286746D01*
X212637755Y-69313250D01*
X212632500Y-69362127D01*
X212632500Y-69362132D01*
X212632500Y-69362133D01*
X212632500Y-69737869D01*
X212632501Y-69737876D01*
X212638908Y-69797483D01*
X212689202Y-69932328D01*
X212689206Y-69932335D01*
X212775452Y-70047544D01*
X212775455Y-70047547D01*
X212890664Y-70133793D01*
X212890671Y-70133797D01*
X213025517Y-70184091D01*
X213025516Y-70184091D01*
X213032444Y-70184835D01*
X213085127Y-70190500D01*
X214430872Y-70190499D01*
X214490483Y-70184091D01*
X214625331Y-70133796D01*
X214740546Y-70047546D01*
X214766234Y-70013231D01*
X214822166Y-69971360D01*
X214891858Y-69966376D01*
X214953181Y-69999861D01*
X214986666Y-70061184D01*
X214989500Y-70087542D01*
X214989500Y-77237557D01*
X214969815Y-77304596D01*
X214917011Y-77350351D01*
X214847853Y-77360295D01*
X214784297Y-77331270D01*
X214769781Y-77316385D01*
X214566014Y-77068954D01*
X214566011Y-77068950D01*
X214533242Y-77032858D01*
X214357254Y-76856870D01*
X214173255Y-76672870D01*
X214173239Y-76672855D01*
X214122788Y-76632193D01*
X214089153Y-76605084D01*
X213809162Y-76425090D01*
X213669166Y-76335092D01*
X213669167Y-76335092D01*
X213621860Y-76308163D01*
X213621858Y-76308162D01*
X213401860Y-76198164D01*
X213374938Y-76185677D01*
X213094937Y-76065676D01*
X213088950Y-76063588D01*
X213028806Y-76042612D01*
X212478806Y-75892612D01*
X212478804Y-75892611D01*
X212478802Y-75892611D01*
X212448996Y-75887057D01*
X212397376Y-75877438D01*
X212007376Y-75837438D01*
X212007374Y-75837438D01*
X212007364Y-75837437D01*
X211883858Y-75839944D01*
X211792262Y-75866840D01*
X211747886Y-75871503D01*
X211729780Y-75870120D01*
X211729762Y-75870120D01*
X211579793Y-75880118D01*
X211547995Y-75883248D01*
X211318038Y-75913243D01*
X211318022Y-75913245D01*
X211318019Y-75913246D01*
X211313283Y-75914027D01*
X211284258Y-75918816D01*
X211134263Y-75948816D01*
X211096538Y-75957879D01*
X210776539Y-76047879D01*
X210729634Y-76063586D01*
X210319636Y-76223585D01*
X210319632Y-76223586D01*
X210319629Y-76223588D01*
X210308017Y-76229095D01*
X210255030Y-76254223D01*
X209865048Y-76474213D01*
X209865046Y-76474214D01*
X209865038Y-76474219D01*
X209865037Y-76474220D01*
X209792050Y-76524289D01*
X209792044Y-76524293D01*
X209792038Y-76524298D01*
X209452054Y-76804285D01*
X209415969Y-76837047D01*
X209415945Y-76837070D01*
X209055970Y-77197044D01*
X209055955Y-77197060D01*
X208988186Y-77281144D01*
X208718192Y-77701133D01*
X208691263Y-77748439D01*
X208691262Y-77748441D01*
X208581264Y-77968439D01*
X208568777Y-77995361D01*
X208448776Y-78275362D01*
X208425712Y-78341493D01*
X208275710Y-78891499D01*
X208260525Y-78973046D01*
X208260524Y-78973050D01*
X208220625Y-79363047D01*
X208220624Y-79363067D01*
X208223144Y-79486438D01*
X208223145Y-79486445D01*
X208227421Y-79501007D01*
X208232083Y-79545374D01*
X208225621Y-79630038D01*
X208225621Y-79630058D01*
X208235621Y-79779959D01*
X208238771Y-79811868D01*
X208238774Y-79811895D01*
X208268874Y-80041895D01*
X208268877Y-80041916D01*
X208274414Y-80075430D01*
X208304415Y-80225432D01*
X208313479Y-80263161D01*
X208403482Y-80583169D01*
X208403483Y-80583175D01*
X208419146Y-80629965D01*
X208579042Y-81039956D01*
X208579048Y-81039969D01*
X208579049Y-81039971D01*
X208609769Y-81104748D01*
X208829869Y-81494748D01*
X208879833Y-81567582D01*
X208879839Y-81567589D01*
X208879841Y-81567592D01*
X209081884Y-81813018D01*
X209159733Y-81907582D01*
X209192558Y-81943742D01*
X209552558Y-82303742D01*
X209636693Y-82371545D01*
X210056793Y-82641545D01*
X210056825Y-82641563D01*
X210103929Y-82668380D01*
X210103936Y-82668383D01*
X210103951Y-82668392D01*
X210323851Y-82778392D01*
X210329090Y-82780822D01*
X210350930Y-82790953D01*
X210631024Y-82910950D01*
X210631029Y-82910952D01*
X210631034Y-82910954D01*
X210697072Y-82933982D01*
X211246972Y-83083982D01*
X211328424Y-83099162D01*
X211718424Y-83139162D01*
X211718433Y-83139161D01*
X211718435Y-83139162D01*
X211841940Y-83136655D01*
X211858205Y-83131879D01*
X211866392Y-83129474D01*
X211910771Y-83124811D01*
X212003325Y-83131880D01*
X212153325Y-83121880D01*
X212185081Y-83118754D01*
X212415081Y-83088754D01*
X212448837Y-83083184D01*
X212598837Y-83053184D01*
X212636562Y-83044120D01*
X212956562Y-82954120D01*
X213003471Y-82938412D01*
X213377522Y-82792440D01*
X213447128Y-82786407D01*
X213508949Y-82818964D01*
X213543354Y-82879776D01*
X213542374Y-82940050D01*
X213495369Y-83115473D01*
X213465000Y-83346159D01*
X213465000Y-83578840D01*
X213495369Y-83809524D01*
X213555592Y-84034279D01*
X213644632Y-84249240D01*
X213644636Y-84249250D01*
X213760970Y-84450748D01*
X213820551Y-84528394D01*
X214485884Y-83863061D01*
X214486740Y-83865126D01*
X214579762Y-84004344D01*
X214698156Y-84122738D01*
X214837374Y-84215760D01*
X214839437Y-84216614D01*
X214174104Y-84881946D01*
X214174104Y-84881947D01*
X214251752Y-84941529D01*
X214453249Y-85057863D01*
X214453259Y-85057867D01*
X214668220Y-85146907D01*
X214896894Y-85208181D01*
X214896406Y-85210000D01*
X214951573Y-85238834D01*
X214986167Y-85299539D01*
X214989500Y-85328095D01*
X214989500Y-88955538D01*
X214988720Y-88969423D01*
X214978540Y-89059764D01*
X214972362Y-89086833D01*
X214944648Y-89166037D01*
X214932600Y-89191055D01*
X214887957Y-89262104D01*
X214870644Y-89283813D01*
X214811313Y-89343144D01*
X214789604Y-89360457D01*
X214718555Y-89405100D01*
X214693537Y-89417148D01*
X214614333Y-89444862D01*
X214587264Y-89451040D01*
X214507075Y-89460076D01*
X214496921Y-89461220D01*
X214483038Y-89462000D01*
X214171683Y-89462000D01*
X214104644Y-89442315D01*
X214058889Y-89389511D01*
X214048945Y-89320353D01*
X214053752Y-89299682D01*
X214105526Y-89140335D01*
X214140000Y-88922681D01*
X214140000Y-88702318D01*
X214105526Y-88484664D01*
X214037432Y-88275089D01*
X213937388Y-88078743D01*
X213891065Y-88014985D01*
X213304612Y-88601439D01*
X213299111Y-88580909D01*
X213220119Y-88444092D01*
X213108408Y-88332381D01*
X212971591Y-88253389D01*
X212951057Y-88247887D01*
X213537513Y-87661432D01*
X213473756Y-87615111D01*
X213277410Y-87515067D01*
X213067835Y-87446973D01*
X212850181Y-87412500D01*
X212629819Y-87412500D01*
X212412164Y-87446973D01*
X212202589Y-87515067D01*
X212006233Y-87615116D01*
X211942485Y-87661431D01*
X211942485Y-87661432D01*
X212528940Y-88247887D01*
X212508409Y-88253389D01*
X212371592Y-88332381D01*
X212259881Y-88444092D01*
X212180889Y-88580909D01*
X212175387Y-88601440D01*
X211588932Y-88014985D01*
X211588931Y-88014985D01*
X211542616Y-88078733D01*
X211442567Y-88275089D01*
X211374473Y-88484664D01*
X211340000Y-88702318D01*
X211340000Y-88922681D01*
X211374473Y-89140335D01*
X211426248Y-89299682D01*
X211428243Y-89369523D01*
X211392163Y-89429356D01*
X211329462Y-89460184D01*
X211308317Y-89462000D01*
X199081683Y-89462000D01*
X199014644Y-89442315D01*
X198968889Y-89389511D01*
X198958945Y-89320353D01*
X198963752Y-89299682D01*
X199015526Y-89140335D01*
X199043456Y-88964000D01*
X199546287Y-88964000D01*
X199831270Y-88964000D01*
X200570667Y-88964000D01*
X201245483Y-88964000D01*
X201984881Y-88964000D01*
X202659697Y-88964000D01*
X203399094Y-88964000D01*
X204073911Y-88964000D01*
X204813308Y-88964000D01*
X205488124Y-88964000D01*
X206227522Y-88964000D01*
X206902338Y-88964000D01*
X207641735Y-88964000D01*
X208316551Y-88964000D01*
X209055949Y-88964000D01*
X209730765Y-88964000D01*
X210470162Y-88964000D01*
X210843713Y-88964000D01*
X210842769Y-88952020D01*
X210842482Y-88947156D01*
X210842096Y-88937339D01*
X210842000Y-88932467D01*
X210842000Y-88692533D01*
X210842096Y-88687661D01*
X210842482Y-88677844D01*
X210842769Y-88672980D01*
X210843585Y-88662607D01*
X210807570Y-88626592D01*
X210470162Y-88964000D01*
X209730765Y-88964000D01*
X209393357Y-88626592D01*
X209055949Y-88964000D01*
X208316551Y-88964000D01*
X207979143Y-88626592D01*
X207641735Y-88964000D01*
X206902338Y-88964000D01*
X206564930Y-88626592D01*
X206227522Y-88964000D01*
X205488124Y-88964000D01*
X205150716Y-88626592D01*
X204813308Y-88964000D01*
X204073911Y-88964000D01*
X203736502Y-88626591D01*
X203399094Y-88964000D01*
X202659697Y-88964000D01*
X202322289Y-88626592D01*
X201984881Y-88964000D01*
X201245483Y-88964000D01*
X200908075Y-88626592D01*
X200570667Y-88964000D01*
X199831270Y-88964000D01*
X199547616Y-88680346D01*
X199547904Y-88687661D01*
X199548000Y-88692533D01*
X199548000Y-88932467D01*
X199547904Y-88937339D01*
X199547518Y-88947156D01*
X199547231Y-88952020D01*
X199546287Y-88964000D01*
X199043456Y-88964000D01*
X199050000Y-88922681D01*
X199050000Y-88702318D01*
X199015526Y-88484664D01*
X198947432Y-88275089D01*
X198947108Y-88274453D01*
X199846001Y-88274453D01*
X200200969Y-88629421D01*
X200555937Y-88274453D01*
X201260214Y-88274453D01*
X201615182Y-88629421D01*
X201970150Y-88274453D01*
X202674428Y-88274453D01*
X203029396Y-88629421D01*
X203384364Y-88274453D01*
X204088641Y-88274453D01*
X204443609Y-88629421D01*
X204798577Y-88274453D01*
X205502855Y-88274453D01*
X205857823Y-88629421D01*
X206212791Y-88274453D01*
X206917068Y-88274453D01*
X207272036Y-88629421D01*
X207627004Y-88274453D01*
X208331282Y-88274453D01*
X208686250Y-88629421D01*
X209041218Y-88274453D01*
X209745495Y-88274453D01*
X210100463Y-88629421D01*
X210455432Y-88274453D01*
X210100463Y-87919484D01*
X209745495Y-88274453D01*
X209041218Y-88274453D01*
X208686250Y-87919485D01*
X208331282Y-88274453D01*
X207627004Y-88274453D01*
X207272036Y-87919484D01*
X206917068Y-88274453D01*
X206212791Y-88274453D01*
X205857823Y-87919485D01*
X205502855Y-88274453D01*
X204798577Y-88274453D01*
X204443609Y-87919485D01*
X204088641Y-88274453D01*
X203384364Y-88274453D01*
X203029396Y-87919485D01*
X202674428Y-88274453D01*
X201970150Y-88274453D01*
X201615182Y-87919485D01*
X201260214Y-88274453D01*
X200555937Y-88274453D01*
X200200969Y-87919485D01*
X199846001Y-88274453D01*
X198947108Y-88274453D01*
X198847388Y-88078743D01*
X198801065Y-88014985D01*
X198214612Y-88601439D01*
X198209111Y-88580909D01*
X198130119Y-88444092D01*
X198018408Y-88332381D01*
X197881591Y-88253389D01*
X197861057Y-88247887D01*
X198447513Y-87661432D01*
X198383756Y-87615111D01*
X198290013Y-87567346D01*
X199138893Y-87567346D01*
X199493862Y-87922314D01*
X199848830Y-87567346D01*
X200553106Y-87567346D01*
X200908075Y-87922314D01*
X201263043Y-87567346D01*
X201967320Y-87567346D01*
X202322289Y-87922314D01*
X202677257Y-87567346D01*
X203381534Y-87567346D01*
X203736502Y-87922314D01*
X204091471Y-87567346D01*
X204795747Y-87567346D01*
X205150716Y-87922314D01*
X205505684Y-87567346D01*
X206209961Y-87567346D01*
X206564930Y-87922314D01*
X206919898Y-87567346D01*
X207624174Y-87567346D01*
X207979143Y-87922314D01*
X208334111Y-87567346D01*
X209038388Y-87567346D01*
X209393357Y-87922314D01*
X209748325Y-87567346D01*
X210452601Y-87567346D01*
X210807570Y-87922314D01*
X211162538Y-87567346D01*
X210807570Y-87212378D01*
X210452601Y-87567346D01*
X209748325Y-87567346D01*
X209393357Y-87212378D01*
X209038388Y-87567346D01*
X208334111Y-87567346D01*
X207979143Y-87212378D01*
X207624174Y-87567346D01*
X206919898Y-87567346D01*
X206564930Y-87212378D01*
X206209961Y-87567346D01*
X205505684Y-87567346D01*
X205150716Y-87212378D01*
X204795747Y-87567346D01*
X204091471Y-87567346D01*
X203736502Y-87212377D01*
X203381534Y-87567346D01*
X202677257Y-87567346D01*
X202322289Y-87212378D01*
X201967320Y-87567346D01*
X201263043Y-87567346D01*
X200908075Y-87212378D01*
X200553106Y-87567346D01*
X199848830Y-87567346D01*
X199493862Y-87212378D01*
X199138893Y-87567346D01*
X198290013Y-87567346D01*
X198187410Y-87515067D01*
X197977835Y-87446973D01*
X197760181Y-87412500D01*
X197539819Y-87412500D01*
X197322164Y-87446973D01*
X197112589Y-87515067D01*
X196916233Y-87615116D01*
X196852485Y-87661431D01*
X196852485Y-87661432D01*
X197438940Y-88247887D01*
X197418409Y-88253389D01*
X197281592Y-88332381D01*
X197169881Y-88444092D01*
X197090889Y-88580909D01*
X197085387Y-88601440D01*
X196498932Y-88014985D01*
X196498931Y-88014985D01*
X196452616Y-88078733D01*
X196352567Y-88275089D01*
X196284473Y-88484664D01*
X196250000Y-88702318D01*
X196250000Y-88922681D01*
X196284473Y-89140335D01*
X196336248Y-89299682D01*
X196338243Y-89369523D01*
X196302163Y-89429356D01*
X196239462Y-89460184D01*
X196218317Y-89462000D01*
X192406962Y-89462000D01*
X192393078Y-89461220D01*
X192380553Y-89459808D01*
X192302735Y-89451040D01*
X192275666Y-89444862D01*
X192196462Y-89417148D01*
X192171444Y-89405100D01*
X192100395Y-89360457D01*
X192078686Y-89343144D01*
X192019355Y-89283813D01*
X192002042Y-89262104D01*
X191957399Y-89191055D01*
X191945351Y-89166037D01*
X191917637Y-89086833D01*
X191911459Y-89059763D01*
X191901280Y-88969422D01*
X191900500Y-88955538D01*
X191900500Y-88650886D01*
X192398500Y-88650886D01*
X192398500Y-88934539D01*
X192401482Y-88961015D01*
X192427970Y-88964000D01*
X192760202Y-88964000D01*
X193499599Y-88964000D01*
X194174416Y-88964000D01*
X194913813Y-88964000D01*
X195588629Y-88964000D01*
X195251221Y-88626592D01*
X194913813Y-88964000D01*
X194174416Y-88964000D01*
X193837007Y-88626591D01*
X193499599Y-88964000D01*
X192760202Y-88964000D01*
X192422794Y-88626592D01*
X192398500Y-88650886D01*
X191900500Y-88650886D01*
X191900500Y-88274453D01*
X192774933Y-88274453D01*
X193129901Y-88629421D01*
X193484869Y-88274453D01*
X194189146Y-88274453D01*
X194544114Y-88629421D01*
X194899082Y-88274453D01*
X195603360Y-88274453D01*
X195784819Y-88455912D01*
X195794134Y-88397104D01*
X195794989Y-88392315D01*
X195796903Y-88382691D01*
X195797946Y-88377935D01*
X195802512Y-88358913D01*
X195803743Y-88354196D01*
X195806410Y-88344740D01*
X195807823Y-88340082D01*
X195881965Y-88111893D01*
X195883562Y-88107288D01*
X195886962Y-88098073D01*
X195888736Y-88093541D01*
X195896223Y-88075467D01*
X195898176Y-88071002D01*
X195902286Y-88062088D01*
X195904408Y-88057713D01*
X195969265Y-87930422D01*
X195958328Y-87919485D01*
X195603360Y-88274453D01*
X194899082Y-88274453D01*
X194544114Y-87919485D01*
X194189146Y-88274453D01*
X193484869Y-88274453D01*
X193129901Y-87919485D01*
X192774933Y-88274453D01*
X191900500Y-88274453D01*
X191900500Y-87236672D01*
X192398500Y-87236672D01*
X192398500Y-87898019D01*
X192422794Y-87922314D01*
X192777762Y-87567346D01*
X193482039Y-87567346D01*
X193837007Y-87922314D01*
X194191976Y-87567346D01*
X194896252Y-87567346D01*
X195251221Y-87922314D01*
X195606189Y-87567346D01*
X195251221Y-87212378D01*
X194896252Y-87567346D01*
X194191976Y-87567346D01*
X193837007Y-87212377D01*
X193482039Y-87567346D01*
X192777762Y-87567346D01*
X192422794Y-87212378D01*
X192398500Y-87236672D01*
X191900500Y-87236672D01*
X191900500Y-86860240D01*
X192774933Y-86860240D01*
X193129901Y-87215208D01*
X193484869Y-86860240D01*
X194189146Y-86860240D01*
X194544114Y-87215208D01*
X194899082Y-86860240D01*
X195603360Y-86860240D01*
X195958328Y-87215208D01*
X196313296Y-86860240D01*
X197017573Y-86860240D01*
X197139899Y-86982566D01*
X197177583Y-86970323D01*
X197182240Y-86968910D01*
X197191696Y-86966243D01*
X197196413Y-86965012D01*
X197215435Y-86960446D01*
X197220191Y-86959403D01*
X197229815Y-86957489D01*
X197234604Y-86956634D01*
X197471571Y-86919102D01*
X197476399Y-86918434D01*
X197486144Y-86917281D01*
X197490978Y-86916805D01*
X197510480Y-86915269D01*
X197515344Y-86914982D01*
X197525161Y-86914596D01*
X197530033Y-86914500D01*
X197673250Y-86914500D01*
X197727509Y-86860240D01*
X198431787Y-86860240D01*
X198786755Y-87215208D01*
X199141723Y-86860240D01*
X199846001Y-86860240D01*
X200200969Y-87215208D01*
X200555937Y-86860240D01*
X201260214Y-86860240D01*
X201615182Y-87215208D01*
X201970150Y-86860240D01*
X202674428Y-86860240D01*
X203029396Y-87215208D01*
X203384364Y-86860240D01*
X204088641Y-86860240D01*
X204443609Y-87215208D01*
X204798577Y-86860240D01*
X204798576Y-86860239D01*
X205502854Y-86860239D01*
X205857823Y-87215208D01*
X206149554Y-86923476D01*
X206980304Y-86923476D01*
X207272036Y-87215208D01*
X207627003Y-86860240D01*
X208331282Y-86860240D01*
X208686250Y-87215208D01*
X209041218Y-86860240D01*
X209745495Y-86860240D01*
X210100463Y-87215208D01*
X210455432Y-86860240D01*
X211159709Y-86860240D01*
X211514677Y-87215208D01*
X211869645Y-86860240D01*
X212573923Y-86860240D01*
X212628183Y-86914500D01*
X212859967Y-86914500D01*
X212864839Y-86914596D01*
X212874656Y-86914982D01*
X212879520Y-86915269D01*
X212899022Y-86916805D01*
X212903856Y-86917281D01*
X212913601Y-86918434D01*
X212918429Y-86919102D01*
X213155396Y-86956634D01*
X213160185Y-86957489D01*
X213169809Y-86959403D01*
X213174565Y-86960446D01*
X213181893Y-86962205D01*
X213283857Y-86860240D01*
X213988136Y-86860240D01*
X214343104Y-87215208D01*
X214491500Y-87066812D01*
X214491500Y-86653668D01*
X214343104Y-86505272D01*
X213988136Y-86860240D01*
X213283857Y-86860240D01*
X213283858Y-86860239D01*
X212928891Y-86505272D01*
X212573923Y-86860240D01*
X211869645Y-86860240D01*
X211514677Y-86505272D01*
X211159709Y-86860240D01*
X210455432Y-86860240D01*
X210100463Y-86505271D01*
X209745495Y-86860240D01*
X209041218Y-86860240D01*
X208686250Y-86505272D01*
X208331282Y-86860240D01*
X207627003Y-86860240D01*
X207627004Y-86860239D01*
X207552849Y-86786084D01*
X207494829Y-86810118D01*
X207491044Y-86811613D01*
X207483390Y-86814493D01*
X207479590Y-86815853D01*
X207464155Y-86821094D01*
X207460276Y-86822340D01*
X207452442Y-86824716D01*
X207448546Y-86825829D01*
X207208049Y-86890270D01*
X207204114Y-86891255D01*
X207196146Y-86893113D01*
X207192177Y-86893971D01*
X207176189Y-86897151D01*
X207172200Y-86897876D01*
X207164127Y-86899209D01*
X207160111Y-86899805D01*
X206980304Y-86923476D01*
X206149554Y-86923476D01*
X206201609Y-86871421D01*
X206031455Y-86825829D01*
X206027558Y-86824716D01*
X206019724Y-86822340D01*
X206015845Y-86821094D01*
X206000410Y-86815853D01*
X205996610Y-86814493D01*
X205988956Y-86811613D01*
X205985172Y-86810118D01*
X205755144Y-86714837D01*
X205751424Y-86713224D01*
X205743966Y-86709845D01*
X205740291Y-86708107D01*
X205725672Y-86700897D01*
X205722065Y-86699044D01*
X205714855Y-86695190D01*
X205711310Y-86693220D01*
X205685040Y-86678053D01*
X205502854Y-86860239D01*
X204798576Y-86860239D01*
X204443609Y-86505272D01*
X204088641Y-86860240D01*
X203384364Y-86860240D01*
X203029396Y-86505272D01*
X202674428Y-86860240D01*
X201970150Y-86860240D01*
X201615182Y-86505272D01*
X201260214Y-86860240D01*
X200555937Y-86860240D01*
X200200969Y-86505272D01*
X199846001Y-86860240D01*
X199141723Y-86860240D01*
X198786755Y-86505272D01*
X198431787Y-86860240D01*
X197727509Y-86860240D01*
X197372541Y-86505271D01*
X197017573Y-86860240D01*
X196313296Y-86860240D01*
X195958328Y-86505272D01*
X195603360Y-86860240D01*
X194899082Y-86860240D01*
X194544114Y-86505272D01*
X194189146Y-86860240D01*
X193484869Y-86860240D01*
X193129901Y-86505272D01*
X192774933Y-86860240D01*
X191900500Y-86860240D01*
X191900500Y-86528095D01*
X191920185Y-86461056D01*
X191972989Y-86415301D01*
X191993260Y-86408757D01*
X191993106Y-86408181D01*
X192221779Y-86346907D01*
X192436740Y-86257867D01*
X192436750Y-86257863D01*
X192618148Y-86153133D01*
X193482039Y-86153133D01*
X193837007Y-86508101D01*
X194191976Y-86153133D01*
X194896253Y-86153133D01*
X195251221Y-86508101D01*
X195606189Y-86153133D01*
X196310467Y-86153133D01*
X196665435Y-86508101D01*
X197020403Y-86153133D01*
X197724680Y-86153133D01*
X198079648Y-86508101D01*
X198434616Y-86153133D01*
X199138894Y-86153133D01*
X199493862Y-86508101D01*
X199848830Y-86153133D01*
X200553107Y-86153133D01*
X200908075Y-86508101D01*
X201263043Y-86153133D01*
X201967321Y-86153133D01*
X202322289Y-86508101D01*
X202677257Y-86153133D01*
X203381534Y-86153133D01*
X203736502Y-86508101D01*
X204091471Y-86153133D01*
X204091470Y-86153132D01*
X204795747Y-86153132D01*
X205150715Y-86508100D01*
X205267612Y-86391203D01*
X205249657Y-86370041D01*
X205198752Y-86274802D01*
X205184377Y-86224461D01*
X205183987Y-86218512D01*
X205178038Y-86218123D01*
X205127695Y-86203747D01*
X205032457Y-86152842D01*
X204992534Y-86118970D01*
X204921926Y-86026953D01*
X204795747Y-86153132D01*
X204091470Y-86153132D01*
X203736502Y-85798164D01*
X203381534Y-86153133D01*
X202677257Y-86153133D01*
X202322289Y-85798165D01*
X201967321Y-86153133D01*
X201263043Y-86153133D01*
X200908075Y-85798165D01*
X200553107Y-86153133D01*
X199848830Y-86153133D01*
X199493862Y-85798165D01*
X199138894Y-86153133D01*
X198434616Y-86153133D01*
X198079648Y-85798165D01*
X197724680Y-86153133D01*
X197020403Y-86153133D01*
X196665435Y-85798165D01*
X196310467Y-86153133D01*
X195606189Y-86153133D01*
X195251221Y-85798165D01*
X194896253Y-86153133D01*
X194191976Y-86153133D01*
X193837007Y-85798164D01*
X193482039Y-86153133D01*
X192618148Y-86153133D01*
X192638255Y-86141524D01*
X192715894Y-86081947D01*
X192715894Y-86081946D01*
X192050562Y-85416614D01*
X192052626Y-85415760D01*
X192191844Y-85322738D01*
X192310238Y-85204344D01*
X192403260Y-85065126D01*
X192404114Y-85063062D01*
X193069446Y-85728394D01*
X193069447Y-85728394D01*
X193129024Y-85650755D01*
X193245363Y-85449250D01*
X193245367Y-85449240D01*
X193246698Y-85446026D01*
X194189146Y-85446026D01*
X194544114Y-85800994D01*
X194899082Y-85446026D01*
X195603360Y-85446026D01*
X195958328Y-85800994D01*
X196313296Y-85446026D01*
X197017573Y-85446026D01*
X197372541Y-85800994D01*
X197727509Y-85446026D01*
X197727508Y-85446025D01*
X198431786Y-85446025D01*
X198786755Y-85800994D01*
X199104331Y-85483417D01*
X199039704Y-85446105D01*
X201260293Y-85446105D01*
X201615182Y-85800994D01*
X201970150Y-85446026D01*
X202674428Y-85446026D01*
X203029396Y-85800994D01*
X203384364Y-85446026D01*
X204088641Y-85446026D01*
X204443608Y-85800993D01*
X204661180Y-85583421D01*
X204592382Y-85417328D01*
X204590887Y-85413544D01*
X204588007Y-85405890D01*
X204586647Y-85402090D01*
X204581406Y-85386655D01*
X204580160Y-85382776D01*
X204577784Y-85374942D01*
X204576671Y-85371046D01*
X204522892Y-85170341D01*
X204443609Y-85091058D01*
X204088641Y-85446026D01*
X203384364Y-85446026D01*
X203029396Y-85091058D01*
X202674428Y-85446026D01*
X201970150Y-85446026D01*
X201659089Y-85134965D01*
X201640343Y-85170038D01*
X201606472Y-85209961D01*
X201434951Y-85341578D01*
X201431691Y-85343995D01*
X201425029Y-85348769D01*
X201421680Y-85351087D01*
X201408125Y-85360142D01*
X201404727Y-85362333D01*
X201397788Y-85366648D01*
X201394306Y-85368735D01*
X201260293Y-85446105D01*
X199039704Y-85446105D01*
X198905689Y-85368732D01*
X198902206Y-85366645D01*
X198895256Y-85362323D01*
X198891846Y-85360123D01*
X198878292Y-85351066D01*
X198874961Y-85348761D01*
X198868311Y-85343996D01*
X198865048Y-85341577D01*
X198693529Y-85209965D01*
X198681741Y-85196071D01*
X198431786Y-85446025D01*
X197727508Y-85446025D01*
X197372541Y-85091057D01*
X197017573Y-85446026D01*
X196313296Y-85446026D01*
X195958328Y-85091058D01*
X195603360Y-85446026D01*
X194899082Y-85446026D01*
X194544114Y-85091058D01*
X194189146Y-85446026D01*
X193246698Y-85446026D01*
X193334407Y-85234279D01*
X193387087Y-85037674D01*
X193893220Y-85037674D01*
X194191976Y-84738919D01*
X194896253Y-84738919D01*
X195251221Y-85093887D01*
X195606189Y-84738919D01*
X196310467Y-84738919D01*
X196665435Y-85093887D01*
X197020403Y-84738919D01*
X197724680Y-84738919D01*
X198079647Y-85093886D01*
X198338289Y-84835244D01*
X198270923Y-84747452D01*
X198268504Y-84744189D01*
X198263739Y-84737539D01*
X198261434Y-84734208D01*
X198252377Y-84720654D01*
X198250177Y-84717244D01*
X198245855Y-84710294D01*
X198243768Y-84706811D01*
X198119280Y-84491190D01*
X198117310Y-84487645D01*
X198113456Y-84480435D01*
X198111603Y-84476828D01*
X198104393Y-84462209D01*
X198102655Y-84458534D01*
X198099276Y-84451076D01*
X198097663Y-84447356D01*
X198073815Y-84389783D01*
X197724680Y-84738919D01*
X197020403Y-84738919D01*
X196665435Y-84383951D01*
X196310467Y-84738919D01*
X195606189Y-84738919D01*
X195251221Y-84383951D01*
X194896253Y-84738919D01*
X194191976Y-84738919D01*
X193916392Y-84463335D01*
X193919803Y-84489240D01*
X193920267Y-84493268D01*
X193921069Y-84501409D01*
X193921401Y-84505457D01*
X193922467Y-84521723D01*
X193922665Y-84525771D01*
X193922933Y-84533949D01*
X193923000Y-84538010D01*
X193923000Y-84786990D01*
X193922933Y-84791051D01*
X193922665Y-84799229D01*
X193922467Y-84803277D01*
X193921401Y-84819543D01*
X193921069Y-84823591D01*
X193920267Y-84831732D01*
X193919803Y-84835760D01*
X193893220Y-85037674D01*
X193387087Y-85037674D01*
X193394630Y-85009524D01*
X193425000Y-84778840D01*
X193425000Y-84546159D01*
X193394630Y-84315475D01*
X193334407Y-84090720D01*
X193310006Y-84031812D01*
X194189145Y-84031812D01*
X194544114Y-84386781D01*
X194899082Y-84031812D01*
X195603359Y-84031812D01*
X195958328Y-84386781D01*
X196313296Y-84031812D01*
X197017572Y-84031812D01*
X197372541Y-84386781D01*
X197727509Y-84031812D01*
X197372541Y-83676844D01*
X197017572Y-84031812D01*
X196313296Y-84031812D01*
X195958328Y-83676844D01*
X195603359Y-84031812D01*
X194899082Y-84031812D01*
X194544114Y-83676844D01*
X194189145Y-84031812D01*
X193310006Y-84031812D01*
X193245367Y-83875759D01*
X193245363Y-83875749D01*
X193129029Y-83674252D01*
X193069447Y-83596604D01*
X193069446Y-83596604D01*
X192404114Y-84261936D01*
X192403260Y-84259874D01*
X192310238Y-84120656D01*
X192191844Y-84002262D01*
X192052626Y-83909240D01*
X192050561Y-83908384D01*
X192637912Y-83321033D01*
X193485711Y-83321033D01*
X193509934Y-83352601D01*
X193837007Y-83679674D01*
X194191976Y-83324706D01*
X194896253Y-83324706D01*
X195251221Y-83679674D01*
X195606189Y-83324706D01*
X196310467Y-83324706D01*
X196665435Y-83679674D01*
X197020403Y-83324706D01*
X197724680Y-83324706D01*
X197877000Y-83477026D01*
X197877000Y-83346159D01*
X198375000Y-83346159D01*
X198375000Y-83578840D01*
X198405369Y-83809524D01*
X198465592Y-84034279D01*
X198554632Y-84249240D01*
X198554636Y-84249250D01*
X198670970Y-84450748D01*
X198730551Y-84528394D01*
X199395884Y-83863060D01*
X199396740Y-83865126D01*
X199489762Y-84004344D01*
X199608156Y-84122738D01*
X199747374Y-84215760D01*
X199749437Y-84216614D01*
X199084104Y-84881946D01*
X199084104Y-84881947D01*
X199161752Y-84941529D01*
X199363249Y-85057863D01*
X199363259Y-85057867D01*
X199578220Y-85146907D01*
X199802975Y-85207130D01*
X200033659Y-85237500D01*
X200266341Y-85237500D01*
X200497024Y-85207130D01*
X200721779Y-85146907D01*
X200936740Y-85057867D01*
X200936750Y-85057863D01*
X201138255Y-84941524D01*
X201215894Y-84881947D01*
X201215894Y-84881946D01*
X201111514Y-84777566D01*
X202005968Y-84777566D01*
X202322289Y-85093887D01*
X202677257Y-84738919D01*
X203381534Y-84738919D01*
X203736502Y-85093887D01*
X204091471Y-84738919D01*
X203898711Y-84546159D01*
X204965000Y-84546159D01*
X204965000Y-84778840D01*
X204995369Y-85009524D01*
X205055592Y-85234279D01*
X205144632Y-85449240D01*
X205144636Y-85449250D01*
X205260970Y-85650748D01*
X205320551Y-85728394D01*
X205985884Y-85063060D01*
X205986740Y-85065126D01*
X206079762Y-85204344D01*
X206198156Y-85322738D01*
X206337374Y-85415760D01*
X206339437Y-85416614D01*
X205674104Y-86081946D01*
X205674104Y-86081947D01*
X205751752Y-86141529D01*
X205953249Y-86257863D01*
X205953259Y-86257867D01*
X206168220Y-86346907D01*
X206392975Y-86407130D01*
X206623659Y-86437500D01*
X206856341Y-86437500D01*
X207087024Y-86407130D01*
X207311779Y-86346907D01*
X207526740Y-86257867D01*
X207526750Y-86257863D01*
X207708148Y-86153133D01*
X209038389Y-86153133D01*
X209393357Y-86508101D01*
X209748325Y-86153133D01*
X210452602Y-86153133D01*
X210807570Y-86508101D01*
X211162538Y-86153133D01*
X211866816Y-86153133D01*
X212221784Y-86508101D01*
X212576752Y-86153133D01*
X213281029Y-86153133D01*
X213635997Y-86508101D01*
X213990965Y-86153133D01*
X213635997Y-85798164D01*
X213281029Y-86153133D01*
X212576752Y-86153133D01*
X212221784Y-85798165D01*
X211866816Y-86153133D01*
X211162538Y-86153133D01*
X210807570Y-85798165D01*
X210452602Y-86153133D01*
X209748325Y-86153133D01*
X209393357Y-85798165D01*
X209038389Y-86153133D01*
X207708148Y-86153133D01*
X207728255Y-86141524D01*
X207805894Y-86081947D01*
X207805894Y-86081946D01*
X207475079Y-85751131D01*
X208736112Y-85751131D01*
X209041218Y-85446026D01*
X209745495Y-85446026D01*
X210100463Y-85800994D01*
X210455432Y-85446026D01*
X211159709Y-85446026D01*
X211514677Y-85800994D01*
X211869645Y-85446026D01*
X212573923Y-85446026D01*
X212928891Y-85800994D01*
X213283859Y-85446026D01*
X213283858Y-85446025D01*
X213988135Y-85446025D01*
X214343104Y-85800994D01*
X214491500Y-85652598D01*
X214491500Y-85612570D01*
X214488956Y-85611613D01*
X214485172Y-85610118D01*
X214255144Y-85514837D01*
X214251424Y-85513224D01*
X214243966Y-85509845D01*
X214240291Y-85508107D01*
X214225672Y-85500897D01*
X214222065Y-85499044D01*
X214214855Y-85495190D01*
X214211310Y-85493220D01*
X214039902Y-85394258D01*
X213988135Y-85446025D01*
X213283858Y-85446025D01*
X212928891Y-85091058D01*
X212573923Y-85446026D01*
X211869645Y-85446026D01*
X211514677Y-85091058D01*
X211159709Y-85446026D01*
X210455432Y-85446026D01*
X210100463Y-85091057D01*
X209745495Y-85446026D01*
X209041218Y-85446026D01*
X208916623Y-85321431D01*
X208903329Y-85371046D01*
X208902216Y-85374942D01*
X208899840Y-85382776D01*
X208898594Y-85386655D01*
X208893353Y-85402090D01*
X208891993Y-85405890D01*
X208889113Y-85413544D01*
X208887618Y-85417328D01*
X208792337Y-85647356D01*
X208790724Y-85651076D01*
X208787345Y-85658534D01*
X208785607Y-85662209D01*
X208778397Y-85676828D01*
X208776544Y-85680435D01*
X208772690Y-85687645D01*
X208770720Y-85691190D01*
X208736112Y-85751131D01*
X207475079Y-85751131D01*
X207140562Y-85416614D01*
X207142626Y-85415760D01*
X207281844Y-85322738D01*
X207400238Y-85204344D01*
X207493260Y-85065126D01*
X207494114Y-85063062D01*
X208159446Y-85728394D01*
X208159447Y-85728394D01*
X208219024Y-85650755D01*
X208335363Y-85449250D01*
X208335367Y-85449240D01*
X208424407Y-85234279D01*
X208484630Y-85009524D01*
X208515000Y-84778840D01*
X208515000Y-84738919D01*
X209038389Y-84738919D01*
X209393357Y-85093887D01*
X209748325Y-84738919D01*
X210452602Y-84738919D01*
X210807570Y-85093887D01*
X211162538Y-84738919D01*
X211866816Y-84738919D01*
X212221784Y-85093887D01*
X212576752Y-84738919D01*
X212576751Y-84738918D01*
X213281028Y-84738918D01*
X213635997Y-85093887D01*
X213689051Y-85040832D01*
X213684377Y-85024461D01*
X213683987Y-85018512D01*
X213678038Y-85018123D01*
X213627695Y-85003747D01*
X213532457Y-84952842D01*
X213492534Y-84918970D01*
X213360923Y-84747452D01*
X213358504Y-84744189D01*
X213353739Y-84737539D01*
X213351434Y-84734208D01*
X213342377Y-84720654D01*
X213340177Y-84717244D01*
X213335855Y-84710294D01*
X213333768Y-84706811D01*
X213326216Y-84693731D01*
X213281028Y-84738918D01*
X212576751Y-84738918D01*
X212221784Y-84383951D01*
X211866816Y-84738919D01*
X211162538Y-84738919D01*
X210807570Y-84383951D01*
X210452602Y-84738919D01*
X209748325Y-84738919D01*
X209393357Y-84383951D01*
X209038389Y-84738919D01*
X208515000Y-84738919D01*
X208515000Y-84546159D01*
X208484630Y-84315475D01*
X208424407Y-84090720D01*
X208335367Y-83875759D01*
X208335363Y-83875749D01*
X208324758Y-83857381D01*
X208866786Y-83857381D01*
X208887618Y-83907672D01*
X208889113Y-83911456D01*
X208891993Y-83919110D01*
X208893353Y-83922910D01*
X208898594Y-83938345D01*
X208899840Y-83942224D01*
X208902216Y-83950058D01*
X208903329Y-83953954D01*
X208948921Y-84124108D01*
X209041217Y-84031812D01*
X209745495Y-84031812D01*
X210100463Y-84386781D01*
X210455432Y-84031812D01*
X211159708Y-84031812D01*
X211514677Y-84386781D01*
X211869645Y-84031812D01*
X212573922Y-84031812D01*
X212928890Y-84386780D01*
X213094128Y-84221543D01*
X213092382Y-84217328D01*
X213090887Y-84213544D01*
X213088007Y-84205890D01*
X213086647Y-84202090D01*
X213081406Y-84186655D01*
X213080160Y-84182776D01*
X213077784Y-84174942D01*
X213076671Y-84171046D01*
X213012230Y-83930549D01*
X213011245Y-83926614D01*
X213009387Y-83918646D01*
X213008529Y-83914677D01*
X213005349Y-83898689D01*
X213004624Y-83894700D01*
X213003291Y-83886627D01*
X213002695Y-83882611D01*
X212982688Y-83730641D01*
X212928891Y-83676844D01*
X212573922Y-84031812D01*
X211869645Y-84031812D01*
X211514677Y-83676844D01*
X211159708Y-84031812D01*
X210455432Y-84031812D01*
X210100463Y-83676844D01*
X209745495Y-84031812D01*
X209041217Y-84031812D01*
X208866786Y-83857381D01*
X208324758Y-83857381D01*
X208219029Y-83674252D01*
X208159447Y-83596604D01*
X208159446Y-83596604D01*
X207494114Y-84261936D01*
X207493260Y-84259874D01*
X207400238Y-84120656D01*
X207281844Y-84002262D01*
X207142626Y-83909240D01*
X207140560Y-83908384D01*
X207724239Y-83324706D01*
X209038389Y-83324706D01*
X209393357Y-83679674D01*
X209669349Y-83403682D01*
X210531578Y-83403682D01*
X210807569Y-83679673D01*
X210964200Y-83523043D01*
X210559774Y-83412725D01*
X210555653Y-83411524D01*
X210543289Y-83407687D01*
X210539214Y-83406345D01*
X210531578Y-83403682D01*
X209669349Y-83403682D01*
X209748325Y-83324706D01*
X209393357Y-82969738D01*
X209038389Y-83324706D01*
X207724239Y-83324706D01*
X207805894Y-83243051D01*
X207728248Y-83183470D01*
X207526750Y-83067136D01*
X207526740Y-83067132D01*
X207311779Y-82978092D01*
X207087024Y-82917869D01*
X206856341Y-82887500D01*
X206623659Y-82887500D01*
X206392975Y-82917869D01*
X206168220Y-82978092D01*
X205953259Y-83067132D01*
X205953249Y-83067136D01*
X205751747Y-83183473D01*
X205674104Y-83243050D01*
X205674104Y-83243051D01*
X206339438Y-83908385D01*
X206337374Y-83909240D01*
X206198156Y-84002262D01*
X206079762Y-84120656D01*
X205986740Y-84259874D01*
X205985885Y-84261938D01*
X205320551Y-83596604D01*
X205320550Y-83596604D01*
X205260973Y-83674247D01*
X205144636Y-83875749D01*
X205144632Y-83875759D01*
X205055592Y-84090720D01*
X204995369Y-84315475D01*
X204965000Y-84546159D01*
X203898711Y-84546159D01*
X203736502Y-84383950D01*
X203381534Y-84738919D01*
X202677257Y-84738919D01*
X202322288Y-84383950D01*
X202133825Y-84572413D01*
X202056235Y-84706806D01*
X202054148Y-84710288D01*
X202049833Y-84717227D01*
X202047642Y-84720625D01*
X202038587Y-84734180D01*
X202036269Y-84737529D01*
X202031495Y-84744191D01*
X202029077Y-84747452D01*
X202005968Y-84777566D01*
X201111514Y-84777566D01*
X200550562Y-84216614D01*
X200552626Y-84215760D01*
X200691844Y-84122738D01*
X200810238Y-84004344D01*
X200903260Y-83865126D01*
X200904114Y-83863062D01*
X201569446Y-84528394D01*
X201569447Y-84528394D01*
X201629024Y-84450755D01*
X201745363Y-84249250D01*
X201745367Y-84249240D01*
X201834407Y-84034279D01*
X201835068Y-84031812D01*
X202674427Y-84031812D01*
X203029396Y-84386781D01*
X203384364Y-84031812D01*
X204088640Y-84031812D01*
X204443608Y-84386780D01*
X204489761Y-84340626D01*
X204502695Y-84242388D01*
X204503291Y-84238373D01*
X204504624Y-84230300D01*
X204505349Y-84226311D01*
X204508529Y-84210323D01*
X204509387Y-84206354D01*
X204511245Y-84198386D01*
X204512230Y-84194451D01*
X204576671Y-83953954D01*
X204577784Y-83950058D01*
X204580160Y-83942224D01*
X204581406Y-83938345D01*
X204586647Y-83922910D01*
X204588007Y-83919110D01*
X204590887Y-83911456D01*
X204592382Y-83907672D01*
X204616415Y-83849650D01*
X204443609Y-83676844D01*
X204088640Y-84031812D01*
X203384364Y-84031812D01*
X203029396Y-83676844D01*
X202674427Y-84031812D01*
X201835068Y-84031812D01*
X201894630Y-83809524D01*
X201925000Y-83578840D01*
X201925000Y-83346159D01*
X201894630Y-83115475D01*
X201872618Y-83033324D01*
X202385875Y-83033324D01*
X202386709Y-83038373D01*
X202387305Y-83042389D01*
X202419803Y-83289240D01*
X202420267Y-83293268D01*
X202421069Y-83301409D01*
X202421401Y-83305457D01*
X202422467Y-83321723D01*
X202422665Y-83325771D01*
X202422933Y-83333949D01*
X202423000Y-83338010D01*
X202423000Y-83578963D01*
X202677257Y-83324706D01*
X203381534Y-83324706D01*
X203736502Y-83679674D01*
X204091471Y-83324706D01*
X204795748Y-83324706D01*
X204855727Y-83384685D01*
X204858506Y-83380809D01*
X204860922Y-83377551D01*
X204992532Y-83206031D01*
X205032455Y-83172159D01*
X205127694Y-83121253D01*
X205178036Y-83106877D01*
X205183986Y-83106486D01*
X205184377Y-83100536D01*
X205198753Y-83050194D01*
X205210045Y-83029067D01*
X205150716Y-82969738D01*
X204795748Y-83324706D01*
X204091471Y-83324706D01*
X203736502Y-82969737D01*
X203381534Y-83324706D01*
X202677257Y-83324706D01*
X202385875Y-83033324D01*
X201872618Y-83033324D01*
X201834407Y-82890720D01*
X201745367Y-82675759D01*
X201745363Y-82675749D01*
X201711790Y-82617599D01*
X202674428Y-82617599D01*
X203029396Y-82972567D01*
X203384364Y-82617599D01*
X204088641Y-82617599D01*
X204443609Y-82972567D01*
X204798577Y-82617599D01*
X205502855Y-82617599D01*
X205588144Y-82702888D01*
X205711311Y-82631779D01*
X205714855Y-82629810D01*
X205722065Y-82625956D01*
X205725672Y-82624103D01*
X205738860Y-82617599D01*
X208331282Y-82617599D01*
X208686250Y-82972567D01*
X209041218Y-82617599D01*
X208686250Y-82262631D01*
X208331282Y-82617599D01*
X205738860Y-82617599D01*
X205740291Y-82616893D01*
X205743966Y-82615155D01*
X205751424Y-82611776D01*
X205755144Y-82610163D01*
X205985172Y-82514882D01*
X205988956Y-82513387D01*
X205996610Y-82510507D01*
X206000410Y-82509147D01*
X206015845Y-82503906D01*
X206019724Y-82502660D01*
X206027558Y-82500284D01*
X206031454Y-82499171D01*
X206081068Y-82485876D01*
X206014495Y-82419303D01*
X207115363Y-82419303D01*
X207160111Y-82425195D01*
X207164127Y-82425791D01*
X207172200Y-82427124D01*
X207176189Y-82427849D01*
X207192177Y-82431029D01*
X207196146Y-82431887D01*
X207204114Y-82433745D01*
X207208049Y-82434730D01*
X207448546Y-82499171D01*
X207452442Y-82500284D01*
X207460276Y-82502660D01*
X207464155Y-82503906D01*
X207479590Y-82509147D01*
X207483390Y-82510507D01*
X207491044Y-82513387D01*
X207494828Y-82514882D01*
X207545118Y-82535713D01*
X207272036Y-82262630D01*
X207115363Y-82419303D01*
X206014495Y-82419303D01*
X205857823Y-82262631D01*
X205502855Y-82617599D01*
X204798577Y-82617599D01*
X204443609Y-82262631D01*
X204088641Y-82617599D01*
X203384364Y-82617599D01*
X203029396Y-82262631D01*
X202674428Y-82617599D01*
X201711790Y-82617599D01*
X201629029Y-82474252D01*
X201569447Y-82396604D01*
X201569446Y-82396604D01*
X200904114Y-83061936D01*
X200903260Y-83059874D01*
X200810238Y-82920656D01*
X200691844Y-82802262D01*
X200552626Y-82709240D01*
X200550560Y-82708384D01*
X201215894Y-82043051D01*
X201138248Y-81983470D01*
X201011845Y-81910492D01*
X201967321Y-81910492D01*
X202322289Y-82265460D01*
X202677257Y-81910492D01*
X202677256Y-81910491D01*
X203381534Y-81910491D01*
X203736502Y-82265460D01*
X204091471Y-81910492D01*
X204795748Y-81910492D01*
X205150716Y-82265460D01*
X205505684Y-81910492D01*
X206209962Y-81910492D01*
X206564930Y-82265460D01*
X206919898Y-81910492D01*
X207624175Y-81910492D01*
X207979143Y-82265460D01*
X208334111Y-81910492D01*
X207979143Y-81555524D01*
X207624175Y-81910492D01*
X206919898Y-81910492D01*
X206564930Y-81555524D01*
X206209962Y-81910492D01*
X205505684Y-81910492D01*
X205150716Y-81555524D01*
X204795748Y-81910492D01*
X204091471Y-81910492D01*
X203930858Y-81749879D01*
X203889849Y-81763205D01*
X203885190Y-81764618D01*
X203875734Y-81767285D01*
X203871017Y-81768516D01*
X203851995Y-81773082D01*
X203847239Y-81774125D01*
X203837615Y-81776039D01*
X203832826Y-81776894D01*
X203630761Y-81808898D01*
X203625933Y-81809566D01*
X203616188Y-81810719D01*
X203611354Y-81811195D01*
X203591852Y-81812731D01*
X203586988Y-81813018D01*
X203577171Y-81813404D01*
X203572299Y-81813500D01*
X203478526Y-81813500D01*
X203381534Y-81910491D01*
X202677256Y-81910491D01*
X202322289Y-81555524D01*
X201967321Y-81910492D01*
X201011845Y-81910492D01*
X200936750Y-81867136D01*
X200936740Y-81867132D01*
X200721779Y-81778092D01*
X200497024Y-81717869D01*
X200266341Y-81687500D01*
X200033659Y-81687500D01*
X199802975Y-81717869D01*
X199578220Y-81778092D01*
X199363259Y-81867132D01*
X199363249Y-81867136D01*
X199161747Y-81983473D01*
X199084104Y-82043050D01*
X199084104Y-82043051D01*
X199749438Y-82708385D01*
X199747374Y-82709240D01*
X199608156Y-82802262D01*
X199489762Y-82920656D01*
X199396740Y-83059874D01*
X199395885Y-83061938D01*
X198730551Y-82396604D01*
X198730550Y-82396604D01*
X198670973Y-82474247D01*
X198554636Y-82675749D01*
X198554632Y-82675759D01*
X198465592Y-82890720D01*
X198405369Y-83115475D01*
X198375000Y-83346159D01*
X197877000Y-83346159D01*
X197877000Y-83338010D01*
X197877067Y-83333949D01*
X197877335Y-83325771D01*
X197877533Y-83321723D01*
X197878599Y-83305457D01*
X197878931Y-83301409D01*
X197879733Y-83293268D01*
X197880197Y-83289240D01*
X197898397Y-83150988D01*
X197724680Y-83324706D01*
X197020403Y-83324706D01*
X196665435Y-82969738D01*
X196310467Y-83324706D01*
X195606189Y-83324706D01*
X195251221Y-82969738D01*
X194896253Y-83324706D01*
X194191976Y-83324706D01*
X193837007Y-82969737D01*
X193485711Y-83321033D01*
X192637912Y-83321033D01*
X192715894Y-83243051D01*
X192638248Y-83183470D01*
X192436750Y-83067136D01*
X192436740Y-83067132D01*
X192221779Y-82978092D01*
X191993107Y-82916820D01*
X191993586Y-82915030D01*
X191938329Y-82886071D01*
X191903802Y-82825328D01*
X191900500Y-82796905D01*
X191900500Y-82617599D01*
X192774933Y-82617599D01*
X192959900Y-82802566D01*
X193106470Y-82915034D01*
X193140342Y-82954958D01*
X193142838Y-82959629D01*
X193484869Y-82617599D01*
X194189146Y-82617599D01*
X194544114Y-82972567D01*
X194899082Y-82617599D01*
X195603360Y-82617599D01*
X195958328Y-82972567D01*
X196313296Y-82617599D01*
X197017573Y-82617599D01*
X197372541Y-82972567D01*
X197727509Y-82617599D01*
X197372541Y-82262630D01*
X197017573Y-82617599D01*
X196313296Y-82617599D01*
X195958328Y-82262631D01*
X195603360Y-82617599D01*
X194899082Y-82617599D01*
X194544114Y-82262631D01*
X194189146Y-82617599D01*
X193484869Y-82617599D01*
X193129901Y-82262631D01*
X192774933Y-82617599D01*
X191900500Y-82617599D01*
X191900500Y-81579818D01*
X192398500Y-81579818D01*
X192398500Y-82241166D01*
X192422794Y-82265460D01*
X192777762Y-81910492D01*
X193482039Y-81910492D01*
X193837007Y-82265460D01*
X194191976Y-81910492D01*
X194896253Y-81910492D01*
X195251221Y-82265460D01*
X195606189Y-81910492D01*
X196310467Y-81910492D01*
X196665435Y-82265460D01*
X197020403Y-81910492D01*
X197724680Y-81910492D01*
X198079648Y-82265460D01*
X198434616Y-81910492D01*
X198079648Y-81555524D01*
X197724680Y-81910492D01*
X197020403Y-81910492D01*
X196665435Y-81555524D01*
X196310467Y-81910492D01*
X195606189Y-81910492D01*
X195251221Y-81555524D01*
X194896253Y-81910492D01*
X194191976Y-81910492D01*
X193837007Y-81555523D01*
X193482039Y-81910492D01*
X192777762Y-81910492D01*
X192422794Y-81555524D01*
X192398500Y-81579818D01*
X191900500Y-81579818D01*
X191900500Y-81203385D01*
X192774932Y-81203385D01*
X193129901Y-81558353D01*
X193484869Y-81203385D01*
X194189145Y-81203385D01*
X194544114Y-81558353D01*
X194899082Y-81203385D01*
X195603359Y-81203385D01*
X195958328Y-81558353D01*
X196313296Y-81203385D01*
X197017572Y-81203385D01*
X197372541Y-81558353D01*
X197727509Y-81203385D01*
X198431786Y-81203385D01*
X198786755Y-81558353D01*
X199141723Y-81203385D01*
X199846001Y-81203385D01*
X199851765Y-81209149D01*
X199976740Y-81192697D01*
X199980768Y-81192233D01*
X199988909Y-81191431D01*
X199992957Y-81191099D01*
X200009223Y-81190033D01*
X200013271Y-81189835D01*
X200021449Y-81189567D01*
X200025510Y-81189500D01*
X200274490Y-81189500D01*
X200278551Y-81189567D01*
X200286729Y-81189835D01*
X200290777Y-81190033D01*
X200307043Y-81191099D01*
X200311091Y-81191431D01*
X200319232Y-81192233D01*
X200323260Y-81192697D01*
X200538311Y-81221008D01*
X200555935Y-81203385D01*
X201260213Y-81203385D01*
X201615182Y-81558353D01*
X201648289Y-81525246D01*
X204410501Y-81525246D01*
X204443608Y-81558353D01*
X204798577Y-81203385D01*
X205502854Y-81203385D01*
X205857823Y-81558353D01*
X206212791Y-81203385D01*
X206917067Y-81203385D01*
X207272036Y-81558353D01*
X207627004Y-81203385D01*
X207272036Y-80848416D01*
X206917067Y-81203385D01*
X206212791Y-81203385D01*
X205857823Y-80848417D01*
X205502854Y-81203385D01*
X204798577Y-81203385D01*
X204779688Y-81184496D01*
X204763761Y-81206418D01*
X204760821Y-81210302D01*
X204754742Y-81218013D01*
X204751653Y-81221778D01*
X204738948Y-81236653D01*
X204735720Y-81240284D01*
X204729056Y-81247494D01*
X204725676Y-81251010D01*
X204581010Y-81395676D01*
X204577494Y-81399056D01*
X204570284Y-81405720D01*
X204566653Y-81408948D01*
X204551778Y-81421653D01*
X204548013Y-81424742D01*
X204540302Y-81430821D01*
X204536419Y-81433761D01*
X204410501Y-81525246D01*
X201648289Y-81525246D01*
X201970150Y-81203385D01*
X201615182Y-80848417D01*
X201260213Y-81203385D01*
X200555935Y-81203385D01*
X200555936Y-81203384D01*
X200200969Y-80848417D01*
X199846001Y-81203385D01*
X199141723Y-81203385D01*
X198786755Y-80848417D01*
X198431786Y-81203385D01*
X197727509Y-81203385D01*
X197372541Y-80848416D01*
X197017572Y-81203385D01*
X196313296Y-81203385D01*
X195958328Y-80848417D01*
X195603359Y-81203385D01*
X194899082Y-81203385D01*
X194544114Y-80848417D01*
X194189145Y-81203385D01*
X193484869Y-81203385D01*
X193129901Y-80848417D01*
X192774932Y-81203385D01*
X191900500Y-81203385D01*
X191900500Y-80165605D01*
X192398500Y-80165605D01*
X192398500Y-80826953D01*
X192422794Y-80851247D01*
X192777762Y-80496279D01*
X193482039Y-80496279D01*
X193837007Y-80851247D01*
X194191976Y-80496279D01*
X194896253Y-80496279D01*
X195251221Y-80851247D01*
X195606189Y-80496279D01*
X196310467Y-80496279D01*
X196665435Y-80851247D01*
X197020403Y-80496279D01*
X197724680Y-80496279D01*
X198079648Y-80851247D01*
X198434616Y-80496279D01*
X199138894Y-80496279D01*
X199493862Y-80851247D01*
X199848830Y-80496279D01*
X200553107Y-80496279D01*
X200908075Y-80851247D01*
X201263043Y-80496279D01*
X200908075Y-80141311D01*
X200553107Y-80496279D01*
X199848830Y-80496279D01*
X199493862Y-80141311D01*
X199138894Y-80496279D01*
X198434616Y-80496279D01*
X198079648Y-80141311D01*
X197724680Y-80496279D01*
X197020403Y-80496279D01*
X196665435Y-80141311D01*
X196310467Y-80496279D01*
X195606189Y-80496279D01*
X195251221Y-80141311D01*
X194896253Y-80496279D01*
X194191976Y-80496279D01*
X193837007Y-80141310D01*
X193482039Y-80496279D01*
X192777762Y-80496279D01*
X192422794Y-80141311D01*
X192398500Y-80165605D01*
X191900500Y-80165605D01*
X191900500Y-79789172D01*
X192774933Y-79789172D01*
X193129901Y-80144140D01*
X193484869Y-79789172D01*
X194189146Y-79789172D01*
X194544114Y-80144140D01*
X194899082Y-79789172D01*
X195603360Y-79789172D01*
X195958328Y-80144140D01*
X196313296Y-79789172D01*
X197017573Y-79789172D01*
X197372541Y-80144140D01*
X197727509Y-79789172D01*
X198431787Y-79789172D01*
X198786755Y-80144140D01*
X199141723Y-79789172D01*
X199846001Y-79789172D01*
X200200969Y-80144140D01*
X200555937Y-79789172D01*
X200555936Y-79789171D01*
X201260213Y-79789171D01*
X201615181Y-80144139D01*
X201732904Y-80026417D01*
X201377936Y-79671449D01*
X201260213Y-79789171D01*
X200555936Y-79789171D01*
X200200969Y-79434204D01*
X199846001Y-79789172D01*
X199141723Y-79789172D01*
X198786755Y-79434204D01*
X198431787Y-79789172D01*
X197727509Y-79789172D01*
X197372541Y-79434203D01*
X197017573Y-79789172D01*
X196313296Y-79789172D01*
X195958328Y-79434204D01*
X195603360Y-79789172D01*
X194899082Y-79789172D01*
X194544114Y-79434204D01*
X194189146Y-79789172D01*
X193484869Y-79789172D01*
X193129901Y-79434204D01*
X192774933Y-79789172D01*
X191900500Y-79789172D01*
X191900500Y-78751391D01*
X192398500Y-78751391D01*
X192398500Y-79412739D01*
X192422794Y-79437033D01*
X192777762Y-79082065D01*
X193482039Y-79082065D01*
X193837007Y-79437033D01*
X194191976Y-79082065D01*
X194896253Y-79082065D01*
X195251221Y-79437033D01*
X195606189Y-79082065D01*
X196310467Y-79082065D01*
X196665435Y-79437033D01*
X197020403Y-79082065D01*
X197724680Y-79082065D01*
X198079648Y-79437033D01*
X198434616Y-79082065D01*
X199138894Y-79082065D01*
X199493862Y-79437033D01*
X199848830Y-79082065D01*
X200553107Y-79082065D01*
X200908074Y-79437032D01*
X201046746Y-79298361D01*
X200997756Y-79213507D01*
X200997756Y-79213508D01*
X200983989Y-79189664D01*
X200980162Y-79182504D01*
X200972919Y-79167816D01*
X200969569Y-79160423D01*
X200957085Y-79130281D01*
X200954229Y-79122692D01*
X200948969Y-79107197D01*
X200946613Y-79099431D01*
X200897247Y-78915196D01*
X200895405Y-78907295D01*
X200892212Y-78891244D01*
X200890890Y-78883239D01*
X200886631Y-78850895D01*
X200885836Y-78842819D01*
X200884765Y-78826483D01*
X200884499Y-78818371D01*
X200884499Y-78750673D01*
X200553107Y-79082065D01*
X199848830Y-79082065D01*
X199493862Y-78727097D01*
X199138894Y-79082065D01*
X198434616Y-79082065D01*
X198079648Y-78727097D01*
X197724680Y-79082065D01*
X197020403Y-79082065D01*
X196665435Y-78727097D01*
X196310467Y-79082065D01*
X195606189Y-79082065D01*
X195251221Y-78727097D01*
X194896253Y-79082065D01*
X194191976Y-79082065D01*
X193837007Y-78727096D01*
X193482039Y-79082065D01*
X192777762Y-79082065D01*
X192422794Y-78727097D01*
X192398500Y-78751391D01*
X191900500Y-78751391D01*
X191900500Y-78374958D01*
X192774933Y-78374958D01*
X193129901Y-78729926D01*
X193484869Y-78374958D01*
X194189146Y-78374958D01*
X194544114Y-78729926D01*
X194899082Y-78374958D01*
X195603360Y-78374958D01*
X195958328Y-78729926D01*
X196313296Y-78374958D01*
X197017573Y-78374958D01*
X197372541Y-78729926D01*
X197727509Y-78374958D01*
X198431787Y-78374958D01*
X198786755Y-78729926D01*
X199141723Y-78374958D01*
X199846001Y-78374958D01*
X200200969Y-78729926D01*
X200555937Y-78374958D01*
X200200969Y-78019990D01*
X199846001Y-78374958D01*
X199141723Y-78374958D01*
X198786755Y-78019990D01*
X198431787Y-78374958D01*
X197727509Y-78374958D01*
X197372541Y-78019989D01*
X197017573Y-78374958D01*
X196313296Y-78374958D01*
X195958328Y-78019990D01*
X195603360Y-78374958D01*
X194899082Y-78374958D01*
X194544114Y-78019990D01*
X194189146Y-78374958D01*
X193484869Y-78374958D01*
X193129901Y-78019990D01*
X192774933Y-78374958D01*
X191900500Y-78374958D01*
X191900500Y-77337177D01*
X192398500Y-77337177D01*
X192398500Y-77998526D01*
X192422794Y-78022820D01*
X192777762Y-77667851D01*
X193482039Y-77667851D01*
X193837007Y-78022820D01*
X194191976Y-77667851D01*
X194896252Y-77667851D01*
X195251221Y-78022820D01*
X195606189Y-77667851D01*
X196310466Y-77667851D01*
X196665435Y-78022820D01*
X197020403Y-77667851D01*
X197724679Y-77667851D01*
X198079648Y-78022820D01*
X198434616Y-77667851D01*
X199138893Y-77667851D01*
X199493862Y-78022820D01*
X199848830Y-77667851D01*
X200553106Y-77667851D01*
X200884500Y-77999245D01*
X200884500Y-77336458D01*
X200553106Y-77667851D01*
X199848830Y-77667851D01*
X199493862Y-77312883D01*
X199138893Y-77667851D01*
X198434616Y-77667851D01*
X198079648Y-77312883D01*
X197724679Y-77667851D01*
X197020403Y-77667851D01*
X196665435Y-77312883D01*
X196310466Y-77667851D01*
X195606189Y-77667851D01*
X195251221Y-77312883D01*
X194896252Y-77667851D01*
X194191976Y-77667851D01*
X193837007Y-77312883D01*
X193482039Y-77667851D01*
X192777762Y-77667851D01*
X192422793Y-77312883D01*
X192398500Y-77337177D01*
X191900500Y-77337177D01*
X191900500Y-76960745D01*
X192774933Y-76960745D01*
X193129901Y-77315713D01*
X193484869Y-76960745D01*
X194189146Y-76960745D01*
X194544114Y-77315713D01*
X194899082Y-76960745D01*
X195603360Y-76960745D01*
X195958328Y-77315713D01*
X196313296Y-76960745D01*
X197017573Y-76960745D01*
X197372541Y-77315713D01*
X197727509Y-76960745D01*
X198431787Y-76960745D01*
X198786755Y-77315713D01*
X199141723Y-76960745D01*
X199846001Y-76960745D01*
X200200969Y-77315713D01*
X200555937Y-76960745D01*
X200200969Y-76605777D01*
X199846001Y-76960745D01*
X199141723Y-76960745D01*
X198786755Y-76605777D01*
X198431787Y-76960745D01*
X197727509Y-76960745D01*
X197372541Y-76605776D01*
X197017573Y-76960745D01*
X196313296Y-76960745D01*
X195958328Y-76605777D01*
X195603360Y-76960745D01*
X194899082Y-76960745D01*
X194544114Y-76605777D01*
X194189146Y-76960745D01*
X193484869Y-76960745D01*
X193129901Y-76605777D01*
X192774933Y-76960745D01*
X191900500Y-76960745D01*
X191900500Y-75922964D01*
X192398500Y-75922964D01*
X192398500Y-76584312D01*
X192422794Y-76608606D01*
X192777762Y-76253638D01*
X193482039Y-76253638D01*
X193837007Y-76608606D01*
X194191976Y-76253638D01*
X194896253Y-76253638D01*
X195251221Y-76608606D01*
X195606189Y-76253638D01*
X196310467Y-76253638D01*
X196665435Y-76608606D01*
X197020403Y-76253638D01*
X197724680Y-76253638D01*
X198079648Y-76608606D01*
X198434616Y-76253638D01*
X199138894Y-76253638D01*
X199493862Y-76608606D01*
X199848830Y-76253638D01*
X200553107Y-76253638D01*
X200884500Y-76585031D01*
X200884500Y-75922245D01*
X200553107Y-76253638D01*
X199848830Y-76253638D01*
X199493862Y-75898670D01*
X199138894Y-76253638D01*
X198434616Y-76253638D01*
X198079648Y-75898670D01*
X197724680Y-76253638D01*
X197020403Y-76253638D01*
X196665435Y-75898670D01*
X196310467Y-76253638D01*
X195606189Y-76253638D01*
X195251221Y-75898670D01*
X194896253Y-76253638D01*
X194191976Y-76253638D01*
X193837007Y-75898669D01*
X193482039Y-76253638D01*
X192777762Y-76253638D01*
X192422794Y-75898670D01*
X192398500Y-75922964D01*
X191900500Y-75922964D01*
X191900500Y-75546531D01*
X192774933Y-75546531D01*
X193129901Y-75901499D01*
X193484869Y-75546531D01*
X194189146Y-75546531D01*
X194544114Y-75901499D01*
X194899082Y-75546531D01*
X195603360Y-75546531D01*
X195958328Y-75901499D01*
X196313296Y-75546531D01*
X197017573Y-75546531D01*
X197372541Y-75901499D01*
X197727509Y-75546531D01*
X198431787Y-75546531D01*
X198786755Y-75901499D01*
X199141723Y-75546531D01*
X199846001Y-75546531D01*
X200200969Y-75901499D01*
X200555937Y-75546531D01*
X200200969Y-75191563D01*
X199846001Y-75546531D01*
X199141723Y-75546531D01*
X198786755Y-75191563D01*
X198431787Y-75546531D01*
X197727509Y-75546531D01*
X197372541Y-75191562D01*
X197017573Y-75546531D01*
X196313296Y-75546531D01*
X195958328Y-75191563D01*
X195603360Y-75546531D01*
X194899082Y-75546531D01*
X194544114Y-75191563D01*
X194189146Y-75546531D01*
X193484869Y-75546531D01*
X193129901Y-75191563D01*
X192774933Y-75546531D01*
X191900500Y-75546531D01*
X191900500Y-74508750D01*
X192398500Y-74508750D01*
X192398500Y-75170098D01*
X192422794Y-75194392D01*
X192777762Y-74839424D01*
X193482039Y-74839424D01*
X193837007Y-75194392D01*
X194191976Y-74839424D01*
X194896253Y-74839424D01*
X195251221Y-75194392D01*
X195606189Y-74839424D01*
X196310467Y-74839424D01*
X196665435Y-75194392D01*
X197020403Y-74839424D01*
X197724680Y-74839424D01*
X198079648Y-75194392D01*
X198434616Y-74839424D01*
X199138894Y-74839424D01*
X199493862Y-75194392D01*
X199848830Y-74839424D01*
X200553107Y-74839424D01*
X200884500Y-75170817D01*
X200884500Y-74508031D01*
X200553107Y-74839424D01*
X199848830Y-74839424D01*
X199493862Y-74484456D01*
X199138894Y-74839424D01*
X198434616Y-74839424D01*
X198079648Y-74484456D01*
X197724680Y-74839424D01*
X197020403Y-74839424D01*
X196665435Y-74484456D01*
X196310467Y-74839424D01*
X195606189Y-74839424D01*
X195251221Y-74484456D01*
X194896253Y-74839424D01*
X194191976Y-74839424D01*
X193837007Y-74484455D01*
X193482039Y-74839424D01*
X192777762Y-74839424D01*
X192422794Y-74484456D01*
X192398500Y-74508750D01*
X191900500Y-74508750D01*
X191900500Y-74132318D01*
X192774933Y-74132318D01*
X193129901Y-74487286D01*
X193484869Y-74132318D01*
X194189146Y-74132318D01*
X194544114Y-74487286D01*
X194899082Y-74132318D01*
X195603360Y-74132318D01*
X195958328Y-74487286D01*
X196313296Y-74132318D01*
X197017573Y-74132318D01*
X197372541Y-74487286D01*
X197727509Y-74132318D01*
X198431787Y-74132318D01*
X198786755Y-74487286D01*
X199141723Y-74132318D01*
X199846001Y-74132318D01*
X200200969Y-74487286D01*
X200555937Y-74132318D01*
X200200969Y-73777350D01*
X199846001Y-74132318D01*
X199141723Y-74132318D01*
X198786755Y-73777350D01*
X198431787Y-74132318D01*
X197727509Y-74132318D01*
X197372541Y-73777349D01*
X197017573Y-74132318D01*
X196313296Y-74132318D01*
X195958328Y-73777350D01*
X195603360Y-74132318D01*
X194899082Y-74132318D01*
X194544114Y-73777350D01*
X194189146Y-74132318D01*
X193484869Y-74132318D01*
X193129901Y-73777350D01*
X192774933Y-74132318D01*
X191900500Y-74132318D01*
X191900500Y-73094537D01*
X192398500Y-73094537D01*
X192398500Y-73755885D01*
X192422794Y-73780179D01*
X192777762Y-73425211D01*
X193482039Y-73425211D01*
X193837007Y-73780179D01*
X194191976Y-73425211D01*
X194896253Y-73425211D01*
X195251221Y-73780179D01*
X195606189Y-73425211D01*
X196310467Y-73425211D01*
X196665435Y-73780179D01*
X197020403Y-73425211D01*
X197724680Y-73425211D01*
X198079648Y-73780179D01*
X198434616Y-73425211D01*
X199138894Y-73425211D01*
X199493862Y-73780179D01*
X199848830Y-73425211D01*
X200553107Y-73425211D01*
X200884500Y-73756604D01*
X200884500Y-73093818D01*
X200553107Y-73425211D01*
X199848830Y-73425211D01*
X199493862Y-73070243D01*
X199138894Y-73425211D01*
X198434616Y-73425211D01*
X198079648Y-73070243D01*
X197724680Y-73425211D01*
X197020403Y-73425211D01*
X196665435Y-73070243D01*
X196310467Y-73425211D01*
X195606189Y-73425211D01*
X195251221Y-73070243D01*
X194896253Y-73425211D01*
X194191976Y-73425211D01*
X193837007Y-73070242D01*
X193482039Y-73425211D01*
X192777762Y-73425211D01*
X192422794Y-73070243D01*
X192398500Y-73094537D01*
X191900500Y-73094537D01*
X191900500Y-72718104D01*
X192774933Y-72718104D01*
X193129901Y-73073072D01*
X193484869Y-72718104D01*
X194189146Y-72718104D01*
X194544114Y-73073072D01*
X194899082Y-72718104D01*
X195603360Y-72718104D01*
X195958328Y-73073072D01*
X196313296Y-72718104D01*
X197017573Y-72718104D01*
X197372541Y-73073072D01*
X197727509Y-72718104D01*
X198431787Y-72718104D01*
X198786755Y-73073072D01*
X199141723Y-72718104D01*
X199846001Y-72718104D01*
X200200969Y-73073072D01*
X200555937Y-72718104D01*
X200200969Y-72363136D01*
X199846001Y-72718104D01*
X199141723Y-72718104D01*
X198786755Y-72363136D01*
X198431787Y-72718104D01*
X197727509Y-72718104D01*
X197372541Y-72363135D01*
X197017573Y-72718104D01*
X196313296Y-72718104D01*
X195958328Y-72363136D01*
X195603360Y-72718104D01*
X194899082Y-72718104D01*
X194544114Y-72363136D01*
X194189146Y-72718104D01*
X193484869Y-72718104D01*
X193129901Y-72363136D01*
X192774933Y-72718104D01*
X191900500Y-72718104D01*
X191900500Y-71680323D01*
X192398500Y-71680323D01*
X192398500Y-72341671D01*
X192422794Y-72365965D01*
X192777762Y-72010997D01*
X192777761Y-72010996D01*
X193482038Y-72010996D01*
X193837007Y-72365964D01*
X193969734Y-72233237D01*
X195118493Y-72233237D01*
X195251220Y-72365964D01*
X195364269Y-72252916D01*
X196552386Y-72252916D01*
X196665435Y-72365965D01*
X196863294Y-72168105D01*
X196858887Y-72169710D01*
X196671349Y-72231854D01*
X196664875Y-72233805D01*
X196651710Y-72237384D01*
X196645135Y-72238980D01*
X196618558Y-72244669D01*
X196611907Y-72245904D01*
X196598436Y-72248027D01*
X196591733Y-72248897D01*
X196552386Y-72252916D01*
X195364269Y-72252916D01*
X195448446Y-72168739D01*
X195444335Y-72167243D01*
X195430818Y-72161873D01*
X195424199Y-72159018D01*
X195397922Y-72146766D01*
X195391476Y-72143529D01*
X195380529Y-72137627D01*
X195368737Y-72143985D01*
X195362291Y-72147222D01*
X195336014Y-72159474D01*
X195329395Y-72162329D01*
X195315878Y-72167699D01*
X195309100Y-72170166D01*
X195121450Y-72232347D01*
X195118493Y-72233237D01*
X193969734Y-72233237D01*
X193999975Y-72202996D01*
X193900900Y-72170166D01*
X193894122Y-72167699D01*
X193880605Y-72162329D01*
X193873986Y-72159474D01*
X193847709Y-72147222D01*
X193841263Y-72143985D01*
X193828454Y-72137079D01*
X193822203Y-72133470D01*
X193653177Y-72029212D01*
X193647150Y-72025248D01*
X193635231Y-72016902D01*
X193629447Y-72012596D01*
X193627425Y-72010997D01*
X197724680Y-72010997D01*
X198079648Y-72365965D01*
X198434616Y-72010997D01*
X199138894Y-72010997D01*
X199493862Y-72365965D01*
X199848830Y-72010997D01*
X200553107Y-72010997D01*
X200884500Y-72342390D01*
X200884500Y-71679604D01*
X200553107Y-72010997D01*
X199848830Y-72010997D01*
X199493862Y-71656029D01*
X199138894Y-72010997D01*
X198434616Y-72010997D01*
X198079648Y-71656029D01*
X197724680Y-72010997D01*
X193627425Y-72010997D01*
X193606705Y-71994614D01*
X193601174Y-71989973D01*
X193590308Y-71980302D01*
X193585067Y-71975356D01*
X193551373Y-71941662D01*
X193482038Y-72010996D01*
X192777761Y-72010996D01*
X192422794Y-71656029D01*
X192398500Y-71680323D01*
X191900500Y-71680323D01*
X191900500Y-71303890D01*
X192774932Y-71303890D01*
X193129900Y-71658858D01*
X193255309Y-71533450D01*
X193252301Y-71525878D01*
X193249834Y-71519100D01*
X193187653Y-71331450D01*
X193185701Y-71324971D01*
X193182122Y-71311804D01*
X193180527Y-71305233D01*
X193174838Y-71278655D01*
X193173603Y-71272008D01*
X193171480Y-71258539D01*
X193170610Y-71251833D01*
X193158435Y-71132645D01*
X193158155Y-71129511D01*
X193157669Y-71123164D01*
X193157467Y-71119998D01*
X193156823Y-71107340D01*
X193156703Y-71104197D01*
X193156541Y-71097839D01*
X193156501Y-71094682D01*
X193156500Y-70975523D01*
X193129900Y-70948922D01*
X192774932Y-71303890D01*
X191900500Y-71303890D01*
X191900500Y-70266110D01*
X192398500Y-70266110D01*
X192398500Y-70927458D01*
X192422794Y-70951752D01*
X192777762Y-70596784D01*
X192422794Y-70241816D01*
X192398500Y-70266110D01*
X191900500Y-70266110D01*
X191900500Y-68851896D01*
X192398500Y-68851896D01*
X192398500Y-69513244D01*
X192422793Y-69537537D01*
X192776500Y-69183831D01*
X192776500Y-69181308D01*
X192422794Y-68827602D01*
X192398500Y-68851896D01*
X191900500Y-68851896D01*
X191900500Y-67437683D01*
X192398500Y-67437683D01*
X192398500Y-68099031D01*
X192422794Y-68123325D01*
X192777762Y-67768357D01*
X192422794Y-67413389D01*
X192398500Y-67437683D01*
X191900500Y-67437683D01*
X191900500Y-67061250D01*
X192774933Y-67061250D01*
X193129901Y-67416218D01*
X193484869Y-67061250D01*
X193129901Y-66706282D01*
X192774933Y-67061250D01*
X191900500Y-67061250D01*
X191900500Y-66023469D01*
X192398500Y-66023469D01*
X192398500Y-66684817D01*
X192422794Y-66709111D01*
X192686559Y-66445346D01*
X193573242Y-66445346D01*
X193837007Y-66709111D01*
X194085741Y-66460377D01*
X194082813Y-66460456D01*
X194079492Y-66460500D01*
X193923910Y-66460500D01*
X193900000Y-66455743D01*
X193876090Y-66460500D01*
X193720508Y-66460500D01*
X193717187Y-66460456D01*
X193710505Y-66460277D01*
X193707196Y-66460144D01*
X193693879Y-66459431D01*
X193690577Y-66459210D01*
X193683894Y-66458673D01*
X193680570Y-66458360D01*
X193598911Y-66449580D01*
X193591237Y-66448512D01*
X193575844Y-66445876D01*
X193573242Y-66445346D01*
X192686559Y-66445346D01*
X192777762Y-66354143D01*
X192422794Y-65999175D01*
X192398500Y-66023469D01*
X191900500Y-66023469D01*
X191900500Y-64609255D01*
X192398500Y-64609255D01*
X192398500Y-65270602D01*
X192422794Y-65294897D01*
X192777000Y-64940691D01*
X192777000Y-64939167D01*
X192422794Y-64584961D01*
X192398500Y-64609255D01*
X191900500Y-64609255D01*
X191900500Y-63195042D01*
X192398500Y-63195042D01*
X192398500Y-63856390D01*
X192422794Y-63880684D01*
X192777762Y-63525716D01*
X192623439Y-63371393D01*
X193636362Y-63371393D01*
X193680570Y-63366640D01*
X193683894Y-63366327D01*
X193690577Y-63365790D01*
X193693879Y-63365569D01*
X193707196Y-63364856D01*
X193710505Y-63364723D01*
X193717187Y-63364544D01*
X193720508Y-63364500D01*
X193876090Y-63364500D01*
X193900000Y-63369255D01*
X193923910Y-63364500D01*
X194030760Y-63364500D01*
X193837007Y-63170747D01*
X193636362Y-63371393D01*
X192623439Y-63371393D01*
X192422794Y-63170748D01*
X192398500Y-63195042D01*
X191900500Y-63195042D01*
X191900500Y-62818609D01*
X192774933Y-62818609D01*
X193129901Y-63173577D01*
X193484869Y-62818609D01*
X194189146Y-62818609D01*
X194301500Y-62930963D01*
X194301500Y-62706255D01*
X194189146Y-62818609D01*
X193484869Y-62818609D01*
X193129901Y-62463641D01*
X192774933Y-62818609D01*
X191900500Y-62818609D01*
X191900500Y-61780828D01*
X192398500Y-61780828D01*
X192398500Y-62442176D01*
X192422794Y-62466470D01*
X192777762Y-62111502D01*
X193482039Y-62111502D01*
X193837007Y-62466470D01*
X194191976Y-62111502D01*
X193837007Y-61756533D01*
X193482039Y-62111502D01*
X192777762Y-62111502D01*
X192422794Y-61756534D01*
X192398500Y-61780828D01*
X191900500Y-61780828D01*
X191900500Y-61404395D01*
X192774932Y-61404395D01*
X193129901Y-61759364D01*
X193484869Y-61404395D01*
X194189145Y-61404395D01*
X194301500Y-61516750D01*
X194301500Y-61292041D01*
X194189145Y-61404395D01*
X193484869Y-61404395D01*
X193129901Y-61049427D01*
X192774932Y-61404395D01*
X191900500Y-61404395D01*
X191900500Y-60366615D01*
X192398500Y-60366615D01*
X192398500Y-61027963D01*
X192422794Y-61052257D01*
X192777762Y-60697289D01*
X193482039Y-60697289D01*
X193837007Y-61052257D01*
X194191976Y-60697289D01*
X193837007Y-60342320D01*
X193482039Y-60697289D01*
X192777762Y-60697289D01*
X192422794Y-60342321D01*
X192398500Y-60366615D01*
X191900500Y-60366615D01*
X191900500Y-59990182D01*
X192774933Y-59990182D01*
X193129901Y-60345150D01*
X193484869Y-59990182D01*
X194189146Y-59990182D01*
X194301500Y-60102536D01*
X194301500Y-59877828D01*
X194189146Y-59990182D01*
X193484869Y-59990182D01*
X193129901Y-59635214D01*
X192774933Y-59990182D01*
X191900500Y-59990182D01*
X191900500Y-58952401D01*
X192398500Y-58952401D01*
X192398500Y-59613749D01*
X192422794Y-59638043D01*
X192777762Y-59283075D01*
X193482039Y-59283075D01*
X193837007Y-59638043D01*
X194191976Y-59283075D01*
X193837007Y-58928106D01*
X193482039Y-59283075D01*
X192777762Y-59283075D01*
X192422794Y-58928107D01*
X192398500Y-58952401D01*
X191900500Y-58952401D01*
X191900500Y-58575968D01*
X192774932Y-58575968D01*
X193129901Y-58930936D01*
X193484869Y-58575968D01*
X194189146Y-58575968D01*
X194366732Y-58753554D01*
X194371229Y-58740308D01*
X194374085Y-58732721D01*
X194386568Y-58702580D01*
X194389919Y-58695182D01*
X194397161Y-58680497D01*
X194400986Y-58673342D01*
X194449460Y-58589383D01*
X194496355Y-58508158D01*
X194500640Y-58501267D01*
X194509736Y-58487654D01*
X194514464Y-58481056D01*
X194534325Y-58455174D01*
X194539470Y-58448905D01*
X194550260Y-58436601D01*
X194555808Y-58430678D01*
X194654800Y-58331686D01*
X194544114Y-58221000D01*
X194189146Y-58575968D01*
X193484869Y-58575968D01*
X193129901Y-58221000D01*
X192774932Y-58575968D01*
X191900500Y-58575968D01*
X191900500Y-57538188D01*
X192398500Y-57538188D01*
X192398500Y-58199536D01*
X192422794Y-58223830D01*
X192777762Y-57868862D01*
X192777761Y-57868861D01*
X193482039Y-57868861D01*
X193837007Y-58223830D01*
X194191976Y-57868862D01*
X194062481Y-57739367D01*
X193793974Y-57666125D01*
X193789853Y-57664924D01*
X193777489Y-57661087D01*
X193773414Y-57659745D01*
X193712423Y-57638477D01*
X193482039Y-57868861D01*
X192777761Y-57868861D01*
X192422794Y-57513894D01*
X192398500Y-57538188D01*
X191900500Y-57538188D01*
X191900500Y-57161755D01*
X192774933Y-57161755D01*
X193129900Y-57516722D01*
X193224733Y-57421889D01*
X193110870Y-57364932D01*
X193107918Y-57363405D01*
X193099058Y-57358672D01*
X193096136Y-57357060D01*
X193040235Y-57325235D01*
X193037358Y-57323546D01*
X193028770Y-57318346D01*
X193025953Y-57316588D01*
X192778889Y-57157798D01*
X192774933Y-57161755D01*
X191900500Y-57161755D01*
X191900500Y-55907324D01*
X191920185Y-55840285D01*
X191972989Y-55794530D01*
X192042147Y-55784586D01*
X192105703Y-55813611D01*
G37*
%TD.AperFunction*%
%TA.AperFunction,Conductor*%
G36*
X214486740Y-51065126D02*
G01*
X214579762Y-51204344D01*
X214698156Y-51322738D01*
X214837374Y-51415760D01*
X214839437Y-51416614D01*
X214174104Y-52081946D01*
X214174104Y-52081947D01*
X214251752Y-52141529D01*
X214453249Y-52257863D01*
X214453259Y-52257867D01*
X214668220Y-52346907D01*
X214896894Y-52408181D01*
X214896406Y-52410000D01*
X214951573Y-52438834D01*
X214986167Y-52499539D01*
X214989500Y-52528095D01*
X214989500Y-63512457D01*
X214969815Y-63579496D01*
X214917011Y-63625251D01*
X214847853Y-63635195D01*
X214784297Y-63606170D01*
X214766234Y-63586768D01*
X214740547Y-63552455D01*
X214740544Y-63552452D01*
X214625335Y-63466206D01*
X214625328Y-63466202D01*
X214490482Y-63415908D01*
X214490483Y-63415908D01*
X214430883Y-63409501D01*
X214430881Y-63409500D01*
X214430873Y-63409500D01*
X214430864Y-63409500D01*
X213085129Y-63409500D01*
X213085123Y-63409501D01*
X213025516Y-63415908D01*
X212956416Y-63441682D01*
X212913083Y-63449500D01*
X212635067Y-63449500D01*
X212568028Y-63429815D01*
X212522273Y-63377011D01*
X212512329Y-63307853D01*
X212518885Y-63282168D01*
X212528090Y-63257485D01*
X212528091Y-63257483D01*
X212529003Y-63249000D01*
X212534500Y-63197873D01*
X212534500Y-62914288D01*
X213032499Y-62914288D01*
X213038534Y-62913640D01*
X213041849Y-62913329D01*
X213048528Y-62912792D01*
X213051835Y-62912570D01*
X213065149Y-62911857D01*
X213068460Y-62911724D01*
X213075144Y-62911545D01*
X213078463Y-62911501D01*
X213190966Y-62911500D01*
X213283857Y-62818609D01*
X213988136Y-62818609D01*
X214081027Y-62911500D01*
X214437545Y-62911500D01*
X214440875Y-62911545D01*
X214447576Y-62911725D01*
X214450885Y-62911858D01*
X214464202Y-62912572D01*
X214467521Y-62912795D01*
X214474186Y-62913332D01*
X214477483Y-62913641D01*
X214491500Y-62915147D01*
X214491500Y-62612037D01*
X214343104Y-62463641D01*
X213988136Y-62818609D01*
X213283857Y-62818609D01*
X213283858Y-62818608D01*
X213032499Y-62567249D01*
X213032499Y-62914288D01*
X212534500Y-62914288D01*
X212534500Y-62111502D01*
X213281029Y-62111502D01*
X213635997Y-62466470D01*
X213990965Y-62111502D01*
X213635997Y-61756533D01*
X213281029Y-62111502D01*
X212534500Y-62111502D01*
X212534499Y-61302128D01*
X212528091Y-61242517D01*
X212511421Y-61197823D01*
X212487959Y-61134916D01*
X213014379Y-61134916D01*
X213016324Y-61143144D01*
X213017870Y-61150735D01*
X213020507Y-61166137D01*
X213021575Y-61173810D01*
X213030360Y-61255534D01*
X213030670Y-61258832D01*
X213031208Y-61265512D01*
X213031431Y-61268846D01*
X213032143Y-61282162D01*
X213032276Y-61285462D01*
X213032455Y-61292144D01*
X213032499Y-61295465D01*
X213032499Y-61655756D01*
X213283859Y-61404395D01*
X213988135Y-61404395D01*
X214343104Y-61759364D01*
X214491500Y-61610968D01*
X214491500Y-61197823D01*
X214343104Y-61049427D01*
X213988135Y-61404395D01*
X213283859Y-61404395D01*
X213014379Y-61134916D01*
X212487959Y-61134916D01*
X212477797Y-61107671D01*
X212477793Y-61107664D01*
X212391547Y-60992455D01*
X212391544Y-60992452D01*
X212276335Y-60906206D01*
X212276328Y-60906202D01*
X212141482Y-60855908D01*
X212141483Y-60855908D01*
X212081883Y-60849501D01*
X212081881Y-60849500D01*
X212081873Y-60849500D01*
X212081864Y-60849500D01*
X209986129Y-60849500D01*
X209986123Y-60849501D01*
X209926516Y-60855908D01*
X209791671Y-60906202D01*
X209791664Y-60906206D01*
X209676455Y-60992452D01*
X209676452Y-60992455D01*
X209590206Y-61107664D01*
X209590202Y-61107671D01*
X209539908Y-61242517D01*
X209534584Y-61292041D01*
X209533501Y-61302123D01*
X209533500Y-61302135D01*
X209533500Y-63197870D01*
X209533501Y-63197876D01*
X209539909Y-63257485D01*
X209549115Y-63282168D01*
X209554099Y-63351860D01*
X209520613Y-63413182D01*
X209459289Y-63446667D01*
X209432933Y-63449500D01*
X206319097Y-63449500D01*
X206252058Y-63429815D01*
X206206303Y-63377011D01*
X206196359Y-63307853D01*
X206225384Y-63244297D01*
X206231416Y-63237819D01*
X206517735Y-62951500D01*
X207222013Y-62951500D01*
X207494114Y-62951500D01*
X207627005Y-62818609D01*
X208331282Y-62818609D01*
X208464173Y-62951500D01*
X208908327Y-62951500D01*
X209035500Y-62824326D01*
X209035500Y-62812891D01*
X208686250Y-62463641D01*
X208331282Y-62818609D01*
X207627005Y-62818609D01*
X207490954Y-62682558D01*
X207222013Y-62951500D01*
X206517735Y-62951500D01*
X207138815Y-62330420D01*
X207843093Y-62330420D01*
X207979143Y-62466470D01*
X208334111Y-62111502D01*
X208198061Y-61975452D01*
X207843093Y-62330420D01*
X207138815Y-62330420D01*
X207845922Y-61623313D01*
X208550199Y-61623313D01*
X208686249Y-61759363D01*
X209035500Y-61410113D01*
X209035500Y-61398677D01*
X208905167Y-61268344D01*
X208550199Y-61623313D01*
X207845922Y-61623313D01*
X208771946Y-60697289D01*
X213281029Y-60697289D01*
X213635997Y-61052257D01*
X213990965Y-60697289D01*
X213635997Y-60342320D01*
X213281029Y-60697289D01*
X208771946Y-60697289D01*
X209260136Y-60209099D01*
X209964413Y-60209099D01*
X210100463Y-60345149D01*
X210455430Y-59990182D01*
X211159709Y-59990182D01*
X211514676Y-60345149D01*
X211869643Y-59990182D01*
X212573923Y-59990182D01*
X212928891Y-60345150D01*
X213283859Y-59990182D01*
X213988136Y-59990182D01*
X214343104Y-60345150D01*
X214491500Y-60196754D01*
X214491500Y-59783610D01*
X214343104Y-59635214D01*
X213988136Y-59990182D01*
X213283859Y-59990182D01*
X212928891Y-59635214D01*
X212573923Y-59990182D01*
X211869643Y-59990182D01*
X211869644Y-59990181D01*
X211514677Y-59635214D01*
X211159709Y-59990182D01*
X210455430Y-59990182D01*
X210455431Y-59990181D01*
X210319381Y-59854131D01*
X209964413Y-60209099D01*
X209260136Y-60209099D01*
X209615104Y-59854131D01*
X209967242Y-59501993D01*
X210671520Y-59501993D01*
X210807570Y-59638043D01*
X211162538Y-59283075D01*
X211866816Y-59283075D01*
X212221784Y-59638043D01*
X212576752Y-59283075D01*
X213281029Y-59283075D01*
X213635997Y-59638043D01*
X213990965Y-59283075D01*
X213635997Y-58928106D01*
X213281029Y-59283075D01*
X212576752Y-59283075D01*
X212221784Y-58928107D01*
X211866816Y-59283075D01*
X211162538Y-59283075D01*
X211026488Y-59147025D01*
X210671520Y-59501993D01*
X209967242Y-59501993D01*
X210674349Y-58794886D01*
X211378626Y-58794886D01*
X211514677Y-58930936D01*
X211869645Y-58575968D01*
X212573922Y-58575968D01*
X212928891Y-58930936D01*
X213283859Y-58575968D01*
X213988135Y-58575968D01*
X214343103Y-58930936D01*
X214491500Y-58782540D01*
X214491500Y-58369396D01*
X214343104Y-58221000D01*
X213988135Y-58575968D01*
X213283859Y-58575968D01*
X212928891Y-58221000D01*
X212573922Y-58575968D01*
X211869645Y-58575968D01*
X211733595Y-58439918D01*
X211378626Y-58794886D01*
X210674349Y-58794886D01*
X211381456Y-58087779D01*
X212085733Y-58087779D01*
X212221784Y-58223830D01*
X212576752Y-57868862D01*
X213281029Y-57868862D01*
X213635997Y-58223830D01*
X213990965Y-57868862D01*
X213635997Y-57513893D01*
X213281029Y-57868862D01*
X212576752Y-57868862D01*
X212440701Y-57732811D01*
X212085733Y-58087779D01*
X211381456Y-58087779D01*
X212088563Y-57380672D01*
X212792840Y-57380672D01*
X212928891Y-57516723D01*
X213283859Y-57161755D01*
X213988136Y-57161755D01*
X214343104Y-57516723D01*
X214491500Y-57368327D01*
X214491500Y-56955183D01*
X214343104Y-56806787D01*
X213988136Y-57161755D01*
X213283859Y-57161755D01*
X213147808Y-57025704D01*
X212792840Y-57380672D01*
X212088563Y-57380672D01*
X212795670Y-56673566D01*
X213499947Y-56673566D01*
X213635997Y-56809616D01*
X213990965Y-56454648D01*
X213779844Y-56243527D01*
X213776387Y-56256431D01*
X213774031Y-56264197D01*
X213768771Y-56279692D01*
X213765915Y-56287279D01*
X213753432Y-56317420D01*
X213750081Y-56324818D01*
X213742839Y-56339503D01*
X213739014Y-56346659D01*
X213643644Y-56511842D01*
X213639362Y-56518727D01*
X213630271Y-56532334D01*
X213625544Y-56538932D01*
X213605685Y-56564814D01*
X213600538Y-56571086D01*
X213589744Y-56583395D01*
X213584194Y-56589320D01*
X213499947Y-56673566D01*
X212795670Y-56673566D01*
X213220520Y-56248716D01*
X213299577Y-56111785D01*
X213340501Y-55959057D01*
X213340501Y-55800942D01*
X213340501Y-55793347D01*
X213340500Y-55793329D01*
X213340500Y-55747541D01*
X213988136Y-55747541D01*
X214343104Y-56102509D01*
X214491500Y-55954113D01*
X214491500Y-55540969D01*
X214343104Y-55392573D01*
X213988136Y-55747541D01*
X213340500Y-55747541D01*
X213340500Y-55192900D01*
X213838500Y-55192900D01*
X213990965Y-55040434D01*
X213838500Y-54887969D01*
X213838500Y-55192900D01*
X213340500Y-55192900D01*
X213340500Y-54333328D01*
X213988136Y-54333328D01*
X214343104Y-54688296D01*
X214491500Y-54539900D01*
X214491500Y-54126756D01*
X214343104Y-53978360D01*
X213988136Y-54333328D01*
X213340500Y-54333328D01*
X213340500Y-53778686D01*
X213838500Y-53778686D01*
X213990965Y-53626220D01*
X213838500Y-53473755D01*
X213838500Y-53778686D01*
X213340500Y-53778686D01*
X213340500Y-52919113D01*
X213988135Y-52919113D01*
X214343104Y-53274082D01*
X214491500Y-53125686D01*
X214491500Y-52812570D01*
X214488956Y-52811613D01*
X214485172Y-52810118D01*
X214255144Y-52714837D01*
X214251424Y-52713224D01*
X214243966Y-52709845D01*
X214240291Y-52708107D01*
X214225672Y-52700897D01*
X214222065Y-52699044D01*
X214214855Y-52695190D01*
X214213057Y-52694191D01*
X213988135Y-52919113D01*
X213340500Y-52919113D01*
X213340500Y-51338390D01*
X213360185Y-51271351D01*
X213412989Y-51225596D01*
X213482147Y-51215652D01*
X213545703Y-51244677D01*
X213579061Y-51290938D01*
X213644629Y-51449235D01*
X213644636Y-51449250D01*
X213760970Y-51650748D01*
X213820551Y-51728394D01*
X214485884Y-51063061D01*
X214486740Y-51065126D01*
G37*
%TD.AperFunction*%
%TA.AperFunction,Conductor*%
G36*
X199309442Y-45932685D02*
G01*
X199330084Y-45949319D01*
X203975425Y-50594660D01*
X204008910Y-50655983D01*
X204009361Y-50658149D01*
X204033860Y-50781308D01*
X204027633Y-50850899D01*
X203984771Y-50906077D01*
X203918881Y-50929322D01*
X203912243Y-50929500D01*
X203663769Y-50929500D01*
X203663753Y-50929499D01*
X203656157Y-50929499D01*
X203498043Y-50929499D01*
X203390687Y-50958265D01*
X203345310Y-50970424D01*
X203345309Y-50970425D01*
X203303321Y-50994668D01*
X203303319Y-50994669D01*
X203208390Y-51049475D01*
X203208382Y-51049481D01*
X200132181Y-54125683D01*
X200070858Y-54159168D01*
X200001166Y-54154184D01*
X199945233Y-54112312D01*
X199920816Y-54046848D01*
X199920500Y-54038002D01*
X199920500Y-52799059D01*
X199920501Y-52799046D01*
X199920501Y-52630945D01*
X199920501Y-52630943D01*
X199910493Y-52593593D01*
X199912156Y-52523743D01*
X199951319Y-52465881D01*
X200015548Y-52438377D01*
X200030268Y-52437500D01*
X200266341Y-52437500D01*
X200497024Y-52407130D01*
X200721779Y-52346907D01*
X200936740Y-52257867D01*
X200936750Y-52257863D01*
X201138255Y-52141524D01*
X201215894Y-52081947D01*
X201215894Y-52081946D01*
X200550561Y-51416614D01*
X200552626Y-51415760D01*
X200691844Y-51322738D01*
X200810238Y-51204344D01*
X200903260Y-51065126D01*
X200904114Y-51063062D01*
X201569446Y-51728394D01*
X201569447Y-51728394D01*
X201629024Y-51650755D01*
X201745363Y-51449250D01*
X201745367Y-51449240D01*
X201834407Y-51234279D01*
X201873420Y-51088681D01*
X202386369Y-51088681D01*
X202677257Y-50797794D01*
X202423000Y-50543537D01*
X202423000Y-50786990D01*
X202422933Y-50791051D01*
X202422665Y-50799229D01*
X202422467Y-50803277D01*
X202421401Y-50819543D01*
X202421069Y-50823591D01*
X202420267Y-50831732D01*
X202419803Y-50835760D01*
X202387305Y-51082611D01*
X202386709Y-51086627D01*
X202386369Y-51088681D01*
X201873420Y-51088681D01*
X201894630Y-51009524D01*
X201925000Y-50778840D01*
X201925000Y-50546159D01*
X201894630Y-50315475D01*
X201834407Y-50090720D01*
X201834393Y-50090687D01*
X202674428Y-50090687D01*
X203029396Y-50445655D01*
X203075769Y-50399282D01*
X202720801Y-50044314D01*
X202674428Y-50090687D01*
X201834393Y-50090687D01*
X201745367Y-49875759D01*
X201745363Y-49875749D01*
X201629029Y-49674252D01*
X201569447Y-49596604D01*
X201569446Y-49596604D01*
X200904114Y-50261936D01*
X200903260Y-50259874D01*
X200810238Y-50120656D01*
X200691844Y-50002262D01*
X200552626Y-49909240D01*
X200550560Y-49908384D01*
X201112928Y-49346017D01*
X202004882Y-49346017D01*
X202029077Y-49377549D01*
X202031496Y-49380811D01*
X202036261Y-49387461D01*
X202038566Y-49390792D01*
X202047623Y-49404346D01*
X202049823Y-49407756D01*
X202054145Y-49414706D01*
X202056232Y-49418189D01*
X202130408Y-49546667D01*
X202322289Y-49738548D01*
X202368662Y-49692175D01*
X202013693Y-49337206D01*
X202004882Y-49346017D01*
X201112928Y-49346017D01*
X201215894Y-49243051D01*
X201138248Y-49183470D01*
X200936750Y-49067136D01*
X200936740Y-49067132D01*
X200721779Y-48978092D01*
X200706776Y-48974072D01*
X201650559Y-48974072D01*
X201658219Y-48988403D01*
X201661555Y-48985068D01*
X201650559Y-48974072D01*
X200706776Y-48974072D01*
X200497024Y-48917869D01*
X200266341Y-48887500D01*
X200033659Y-48887500D01*
X199802975Y-48917869D01*
X199578220Y-48978092D01*
X199363259Y-49067132D01*
X199363249Y-49067136D01*
X199161747Y-49183473D01*
X199084104Y-49243050D01*
X199084104Y-49243051D01*
X199749438Y-49908385D01*
X199747374Y-49909240D01*
X199608156Y-50002262D01*
X199489762Y-50120656D01*
X199396740Y-50259874D01*
X199395884Y-50261938D01*
X198730551Y-49596604D01*
X198730550Y-49596604D01*
X198670973Y-49674247D01*
X198624583Y-49754598D01*
X198574016Y-49802814D01*
X198505409Y-49816037D01*
X198440544Y-49790069D01*
X198429515Y-49780279D01*
X197896818Y-49247582D01*
X197863333Y-49186259D01*
X197860499Y-49159901D01*
X197860499Y-48811662D01*
X197860498Y-48811644D01*
X197850349Y-48712292D01*
X197850348Y-48712289D01*
X197838480Y-48676473D01*
X198431786Y-48676473D01*
X198682888Y-48927575D01*
X198693531Y-48915032D01*
X198865051Y-48783422D01*
X198868309Y-48781006D01*
X198874957Y-48776242D01*
X198878292Y-48773934D01*
X198891846Y-48764877D01*
X198895256Y-48762677D01*
X198902206Y-48758355D01*
X198905689Y-48756268D01*
X199043898Y-48676473D01*
X201260213Y-48676473D01*
X201265829Y-48682089D01*
X201394311Y-48756268D01*
X201397794Y-48758355D01*
X201404744Y-48762677D01*
X201408154Y-48764877D01*
X201421708Y-48773934D01*
X201425039Y-48776239D01*
X201431689Y-48781004D01*
X201434952Y-48783423D01*
X201542220Y-48865733D01*
X201306587Y-48630100D01*
X201260213Y-48676473D01*
X199043898Y-48676473D01*
X199105916Y-48640667D01*
X198786755Y-48321505D01*
X198431786Y-48676473D01*
X197838480Y-48676473D01*
X197838240Y-48675749D01*
X197797003Y-48551303D01*
X197796999Y-48551297D01*
X197796998Y-48551294D01*
X197715490Y-48419150D01*
X197697049Y-48351758D01*
X197715490Y-48288956D01*
X197801998Y-48148705D01*
X197801997Y-48148705D01*
X197802003Y-48148697D01*
X197855349Y-47987708D01*
X197857223Y-47969367D01*
X199138894Y-47969367D01*
X199493862Y-48324335D01*
X199848830Y-47969367D01*
X199848829Y-47969366D01*
X200553106Y-47969366D01*
X200908074Y-48324334D01*
X200954448Y-48277961D01*
X200599480Y-47922993D01*
X200553106Y-47969366D01*
X199848829Y-47969366D01*
X199493862Y-47614399D01*
X199138894Y-47969367D01*
X197857223Y-47969367D01*
X197865500Y-47888345D01*
X197865499Y-47291656D01*
X197862496Y-47262260D01*
X198431787Y-47262260D01*
X198786755Y-47617228D01*
X199141723Y-47262260D01*
X199846001Y-47262260D01*
X200200969Y-47617228D01*
X200247342Y-47570855D01*
X199892374Y-47215887D01*
X199846001Y-47262260D01*
X199141723Y-47262260D01*
X198992271Y-47112808D01*
X198991218Y-47113290D01*
X198983039Y-47116678D01*
X198816927Y-47178634D01*
X198809587Y-47181113D01*
X198794636Y-47185648D01*
X198787160Y-47187663D01*
X198756856Y-47194824D01*
X198749265Y-47196370D01*
X198733863Y-47199007D01*
X198726190Y-47200075D01*
X198644466Y-47208860D01*
X198641168Y-47209170D01*
X198634488Y-47209708D01*
X198631154Y-47209931D01*
X198617838Y-47210643D01*
X198614538Y-47210776D01*
X198607856Y-47210955D01*
X198604535Y-47210999D01*
X198483048Y-47210999D01*
X198431787Y-47262260D01*
X197862496Y-47262260D01*
X197861508Y-47252590D01*
X197855349Y-47192292D01*
X197855348Y-47192289D01*
X197835939Y-47133716D01*
X197802003Y-47031303D01*
X197801999Y-47031297D01*
X197801998Y-47031294D01*
X197722307Y-46902096D01*
X197703866Y-46834704D01*
X197724788Y-46768040D01*
X197778430Y-46723271D01*
X197827845Y-46712999D01*
X198597871Y-46712999D01*
X198597872Y-46712999D01*
X198657483Y-46706591D01*
X198792331Y-46656296D01*
X198907546Y-46570046D01*
X198993796Y-46454831D01*
X199044091Y-46319983D01*
X199050500Y-46260373D01*
X199050500Y-46037000D01*
X199070185Y-45969961D01*
X199122989Y-45924206D01*
X199174500Y-45913000D01*
X199242403Y-45913000D01*
X199309442Y-45932685D01*
G37*
%TD.AperFunction*%
%TA.AperFunction,Conductor*%
G36*
X207875641Y-44680185D02*
G01*
X207921396Y-44732989D01*
X207931340Y-44802147D01*
X207926533Y-44822817D01*
X207873985Y-44984545D01*
X207839500Y-45202278D01*
X207839500Y-45422721D01*
X207873985Y-45640452D01*
X207942103Y-45850103D01*
X207942104Y-45850106D01*
X207992657Y-45949319D01*
X208040206Y-46042639D01*
X208042187Y-46046525D01*
X208171752Y-46224858D01*
X208171756Y-46224863D01*
X208327636Y-46380743D01*
X208327641Y-46380747D01*
X208505976Y-46510314D01*
X208571794Y-46543850D01*
X208622591Y-46591824D01*
X208639500Y-46654335D01*
X208639500Y-46678330D01*
X208639499Y-46678348D01*
X208639499Y-46844054D01*
X208639498Y-46844054D01*
X208649556Y-46881589D01*
X208662479Y-46929820D01*
X208680424Y-46996788D01*
X208686907Y-47008016D01*
X208686909Y-47008019D01*
X208759477Y-47133712D01*
X208759481Y-47133717D01*
X208878349Y-47252585D01*
X208878355Y-47252590D01*
X209158181Y-47532416D01*
X209191666Y-47593739D01*
X209194500Y-47620097D01*
X209194500Y-47968337D01*
X209194501Y-47968355D01*
X209204650Y-48067707D01*
X209204651Y-48067710D01*
X209257996Y-48228694D01*
X209258001Y-48228705D01*
X209347029Y-48373040D01*
X209347032Y-48373044D01*
X209349160Y-48375172D01*
X209350153Y-48376991D01*
X209351510Y-48378707D01*
X209351216Y-48378938D01*
X209382645Y-48436495D01*
X209377661Y-48506187D01*
X209355579Y-48540556D01*
X209356905Y-48541605D01*
X209352424Y-48547271D01*
X209263457Y-48691507D01*
X209263452Y-48691518D01*
X209210144Y-48852393D01*
X209200000Y-48951677D01*
X209200000Y-49000000D01*
X210026000Y-49000000D01*
X210093039Y-49019685D01*
X210138794Y-49072489D01*
X210150000Y-49124000D01*
X210150000Y-49376000D01*
X210130315Y-49443039D01*
X210077511Y-49488794D01*
X210026000Y-49500000D01*
X209200001Y-49500000D01*
X209200001Y-49548322D01*
X209210144Y-49647607D01*
X209263452Y-49808481D01*
X209263457Y-49808492D01*
X209352424Y-49952728D01*
X209352427Y-49952732D01*
X209472267Y-50072572D01*
X209472271Y-50072575D01*
X209616507Y-50161542D01*
X209616520Y-50161548D01*
X209668068Y-50178629D01*
X209725513Y-50218401D01*
X209752337Y-50282916D01*
X209740022Y-50351692D01*
X209716746Y-50384016D01*
X209207584Y-50893181D01*
X209146261Y-50926666D01*
X209119903Y-50929500D01*
X207904810Y-50929500D01*
X207837771Y-50909815D01*
X207817129Y-50893181D01*
X207140561Y-50216614D01*
X207142626Y-50215760D01*
X207281844Y-50122738D01*
X207400238Y-50004344D01*
X207493260Y-49865126D01*
X207494114Y-49863062D01*
X208159446Y-50528394D01*
X208159447Y-50528394D01*
X208219026Y-50450753D01*
X208335363Y-50249250D01*
X208335367Y-50249240D01*
X208424407Y-50034279D01*
X208484630Y-49809524D01*
X208515000Y-49578840D01*
X208515000Y-49346159D01*
X208484630Y-49115475D01*
X208424407Y-48890720D01*
X208335367Y-48675759D01*
X208335363Y-48675749D01*
X208219029Y-48474252D01*
X208159447Y-48396604D01*
X208159446Y-48396604D01*
X207494114Y-49061936D01*
X207493260Y-49059874D01*
X207400238Y-48920656D01*
X207281844Y-48802262D01*
X207142626Y-48709240D01*
X207140560Y-48708384D01*
X207805894Y-48043051D01*
X207728248Y-47983470D01*
X207526750Y-47867136D01*
X207526740Y-47867132D01*
X207311779Y-47778092D01*
X207087024Y-47717869D01*
X206856341Y-47687500D01*
X206623659Y-47687500D01*
X206392975Y-47717869D01*
X206168220Y-47778092D01*
X205953259Y-47867132D01*
X205953249Y-47867136D01*
X205751747Y-47983473D01*
X205674104Y-48043050D01*
X205674104Y-48043051D01*
X206339438Y-48708385D01*
X206337374Y-48709240D01*
X206198156Y-48802262D01*
X206079762Y-48920656D01*
X205986740Y-49059874D01*
X205985884Y-49061938D01*
X205320551Y-48396604D01*
X205320550Y-48396604D01*
X205260973Y-48474247D01*
X205144636Y-48675749D01*
X205144632Y-48675759D01*
X205055592Y-48890720D01*
X204995369Y-49115475D01*
X204965000Y-49346159D01*
X204965000Y-49582899D01*
X204964010Y-49582899D01*
X204949710Y-49646742D01*
X204900002Y-49695843D01*
X204831639Y-49710275D01*
X204766326Y-49685457D01*
X204753564Y-49674329D01*
X203570035Y-48490800D01*
X204274313Y-48490800D01*
X204568386Y-48784873D01*
X204576671Y-48753954D01*
X204577784Y-48750058D01*
X204580160Y-48742224D01*
X204581406Y-48738345D01*
X204586647Y-48722910D01*
X204588007Y-48719110D01*
X204590887Y-48711456D01*
X204592382Y-48707672D01*
X204661913Y-48539809D01*
X204443608Y-48321504D01*
X204274313Y-48490800D01*
X203570035Y-48490800D01*
X202862929Y-47783694D01*
X203567207Y-47783694D01*
X203922175Y-48138662D01*
X204091469Y-47969367D01*
X204795748Y-47969367D01*
X204923012Y-48096631D01*
X204992532Y-48006031D01*
X205032455Y-47972159D01*
X205127694Y-47921253D01*
X205178036Y-47906877D01*
X205183986Y-47906486D01*
X205184377Y-47900536D01*
X205198753Y-47850194D01*
X205249659Y-47754955D01*
X205268759Y-47732442D01*
X205150716Y-47614399D01*
X204795748Y-47969367D01*
X204091469Y-47969367D01*
X204091470Y-47969366D01*
X203736502Y-47614398D01*
X203567207Y-47783694D01*
X202862929Y-47783694D01*
X202155822Y-47076587D01*
X202860100Y-47076587D01*
X203215068Y-47431555D01*
X203384362Y-47262260D01*
X204088641Y-47262260D01*
X204443609Y-47617228D01*
X204798577Y-47262260D01*
X205502855Y-47262260D01*
X205686626Y-47446031D01*
X205711310Y-47431780D01*
X205714855Y-47429810D01*
X205722065Y-47425956D01*
X205725672Y-47424103D01*
X205740291Y-47416893D01*
X205743966Y-47415155D01*
X205751424Y-47411776D01*
X205755144Y-47410163D01*
X205985172Y-47314882D01*
X205988956Y-47313387D01*
X205996610Y-47310507D01*
X206000410Y-47309147D01*
X206015845Y-47303906D01*
X206019724Y-47302660D01*
X206027558Y-47300284D01*
X206031454Y-47299171D01*
X206203580Y-47253049D01*
X206151763Y-47201232D01*
X206978095Y-47201232D01*
X207160111Y-47225195D01*
X207164127Y-47225791D01*
X207172200Y-47227124D01*
X207176189Y-47227849D01*
X207192177Y-47231029D01*
X207196146Y-47231887D01*
X207204114Y-47233745D01*
X207208049Y-47234730D01*
X207448546Y-47299171D01*
X207452442Y-47300284D01*
X207460276Y-47302660D01*
X207464155Y-47303906D01*
X207479590Y-47309147D01*
X207483390Y-47310507D01*
X207491044Y-47313387D01*
X207494827Y-47314882D01*
X207551080Y-47338182D01*
X207627004Y-47262259D01*
X207272036Y-46907291D01*
X206978095Y-47201232D01*
X206151763Y-47201232D01*
X205857823Y-46907292D01*
X205502855Y-47262260D01*
X204798577Y-47262260D01*
X204443609Y-46907292D01*
X204088641Y-47262260D01*
X203384362Y-47262260D01*
X203384363Y-47262259D01*
X203029395Y-46907291D01*
X202860100Y-47076587D01*
X202155822Y-47076587D01*
X201448715Y-46369480D01*
X202152993Y-46369480D01*
X202507961Y-46724448D01*
X202677255Y-46555153D01*
X203381534Y-46555153D01*
X203736502Y-46910121D01*
X204091471Y-46555153D01*
X204795748Y-46555153D01*
X205150716Y-46910121D01*
X205505684Y-46555153D01*
X206209962Y-46555153D01*
X206564930Y-46910121D01*
X206919898Y-46555153D01*
X206919897Y-46555152D01*
X207624174Y-46555152D01*
X207979143Y-46910121D01*
X208075874Y-46813389D01*
X208027001Y-46777882D01*
X208023112Y-46774937D01*
X208015393Y-46768851D01*
X208011626Y-46765759D01*
X207996751Y-46753052D01*
X207993117Y-46749823D01*
X207985915Y-46743165D01*
X207982409Y-46739793D01*
X207812707Y-46570091D01*
X207809335Y-46566585D01*
X207802677Y-46559383D01*
X207799448Y-46555749D01*
X207786741Y-46540874D01*
X207783649Y-46537107D01*
X207777563Y-46529388D01*
X207774619Y-46525499D01*
X207723789Y-46455537D01*
X207624174Y-46555152D01*
X206919897Y-46555152D01*
X206564930Y-46200185D01*
X206209962Y-46555153D01*
X205505684Y-46555153D01*
X205150716Y-46200185D01*
X204795748Y-46555153D01*
X204091471Y-46555153D01*
X203736502Y-46200184D01*
X203381534Y-46555153D01*
X202677255Y-46555153D01*
X202677256Y-46555152D01*
X202322288Y-46200184D01*
X202152993Y-46369480D01*
X201448715Y-46369480D01*
X200741608Y-45662373D01*
X201445886Y-45662373D01*
X201800854Y-46017341D01*
X201970148Y-45848046D01*
X202674428Y-45848046D01*
X203029396Y-46203014D01*
X203384364Y-45848046D01*
X204088641Y-45848046D01*
X204443609Y-46203014D01*
X204798577Y-45848046D01*
X205502855Y-45848046D01*
X205857823Y-46203014D01*
X206212791Y-45848046D01*
X206917068Y-45848046D01*
X207272035Y-46203013D01*
X207469109Y-46005939D01*
X207397335Y-45785033D01*
X207395923Y-45780379D01*
X207393256Y-45770924D01*
X207392024Y-45766204D01*
X207387458Y-45747182D01*
X207386415Y-45742426D01*
X207384501Y-45732802D01*
X207383646Y-45728013D01*
X207360436Y-45581478D01*
X207272036Y-45493078D01*
X206917068Y-45848046D01*
X206212791Y-45848046D01*
X205857823Y-45493078D01*
X205502855Y-45848046D01*
X204798577Y-45848046D01*
X204443609Y-45493078D01*
X204088641Y-45848046D01*
X203384364Y-45848046D01*
X203029396Y-45493078D01*
X202674428Y-45848046D01*
X201970148Y-45848046D01*
X201970149Y-45848045D01*
X201615181Y-45493077D01*
X201445886Y-45662373D01*
X200741608Y-45662373D01*
X200237735Y-45158500D01*
X200942013Y-45158500D01*
X201093748Y-45310235D01*
X201245483Y-45158500D01*
X201984881Y-45158500D01*
X202322289Y-45495908D01*
X202659697Y-45158500D01*
X203399094Y-45158500D01*
X203736502Y-45495908D01*
X204073911Y-45158500D01*
X204813308Y-45158500D01*
X205150716Y-45495908D01*
X205488124Y-45158500D01*
X206227522Y-45158500D01*
X206564930Y-45495908D01*
X206902338Y-45158500D01*
X206227522Y-45158500D01*
X205488124Y-45158500D01*
X204813308Y-45158500D01*
X204073911Y-45158500D01*
X203399094Y-45158500D01*
X202659697Y-45158500D01*
X201984881Y-45158500D01*
X201245483Y-45158500D01*
X200942013Y-45158500D01*
X200237735Y-45158500D01*
X200030090Y-44950855D01*
X200030088Y-44950852D01*
X199951417Y-44872181D01*
X199917932Y-44810858D01*
X199922916Y-44741166D01*
X199964788Y-44685233D01*
X200030252Y-44660816D01*
X200039098Y-44660500D01*
X207808602Y-44660500D01*
X207875641Y-44680185D01*
G37*
%TD.AperFunction*%
%TA.AperFunction,Conductor*%
G36*
X192785641Y-44680185D02*
G01*
X192831396Y-44732989D01*
X192841340Y-44802147D01*
X192836533Y-44822817D01*
X192783985Y-44984545D01*
X192749500Y-45202278D01*
X192749500Y-45422721D01*
X192783985Y-45640452D01*
X192852103Y-45850103D01*
X192852104Y-45850106D01*
X192902657Y-45949319D01*
X192950206Y-46042639D01*
X192952187Y-46046525D01*
X193081752Y-46224858D01*
X193081756Y-46224863D01*
X193237636Y-46380743D01*
X193237641Y-46380747D01*
X193339606Y-46454828D01*
X193415978Y-46510315D01*
X193533294Y-46570091D01*
X193612393Y-46610395D01*
X193612396Y-46610396D01*
X193679525Y-46632207D01*
X193822049Y-46678515D01*
X194039778Y-46713000D01*
X194039779Y-46713000D01*
X194260221Y-46713000D01*
X194260222Y-46713000D01*
X194454607Y-46682212D01*
X194523898Y-46691166D01*
X194577350Y-46736162D01*
X194597990Y-46802914D01*
X194579265Y-46870228D01*
X194571275Y-46881589D01*
X194567030Y-46886958D01*
X194478001Y-47031294D01*
X194477996Y-47031305D01*
X194424651Y-47192290D01*
X194414500Y-47291647D01*
X194414500Y-47888337D01*
X194414501Y-47888355D01*
X194424650Y-47987707D01*
X194424651Y-47987710D01*
X194477996Y-48148694D01*
X194477998Y-48148699D01*
X194559804Y-48281326D01*
X194578244Y-48348718D01*
X194559804Y-48411520D01*
X194473454Y-48551513D01*
X194473452Y-48551518D01*
X194420144Y-48712393D01*
X194410000Y-48811677D01*
X194410000Y-48860000D01*
X195236000Y-48860000D01*
X195303039Y-48879685D01*
X195348794Y-48932489D01*
X195360000Y-48984000D01*
X195360000Y-49236000D01*
X195340315Y-49303039D01*
X195287511Y-49348794D01*
X195236000Y-49360000D01*
X194410001Y-49360000D01*
X194410001Y-49408322D01*
X194420144Y-49507607D01*
X194473452Y-49668481D01*
X194473457Y-49668492D01*
X194562424Y-49812728D01*
X194562427Y-49812732D01*
X194682265Y-49932570D01*
X194687508Y-49936716D01*
X194727883Y-49993739D01*
X194731021Y-50063538D01*
X194695924Y-50123953D01*
X194633736Y-50155803D01*
X194626634Y-50156939D01*
X194552235Y-50166643D01*
X194518458Y-50172216D01*
X194368463Y-50202216D01*
X194330738Y-50211279D01*
X194010739Y-50301279D01*
X193963834Y-50316986D01*
X193553836Y-50476985D01*
X193553832Y-50476986D01*
X193553829Y-50476988D01*
X193545732Y-50480828D01*
X193489235Y-50507621D01*
X193301517Y-50613513D01*
X193233456Y-50629305D01*
X193167661Y-50605794D01*
X193125021Y-50550444D01*
X193119075Y-50480828D01*
X193133207Y-50443511D01*
X193245363Y-50249250D01*
X193245367Y-50249240D01*
X193334407Y-50034279D01*
X193394630Y-49809524D01*
X193414475Y-49658783D01*
X193916771Y-49658783D01*
X193938947Y-49636607D01*
X193937616Y-49631710D01*
X193936020Y-49625135D01*
X193930331Y-49598558D01*
X193929096Y-49591907D01*
X193926973Y-49578436D01*
X193926103Y-49571733D01*
X193923000Y-49541356D01*
X193923000Y-49586990D01*
X193922933Y-49591051D01*
X193922665Y-49599229D01*
X193922467Y-49603277D01*
X193921401Y-49619543D01*
X193921069Y-49623591D01*
X193920267Y-49631732D01*
X193919803Y-49635760D01*
X193916771Y-49658783D01*
X193414475Y-49658783D01*
X193425000Y-49578840D01*
X193425000Y-49346159D01*
X193394630Y-49115475D01*
X193386316Y-49084445D01*
X193892841Y-49084445D01*
X193914293Y-49247387D01*
X193921440Y-49211458D01*
X193950264Y-49141868D01*
X193892841Y-49084445D01*
X193386316Y-49084445D01*
X193334407Y-48890720D01*
X193245367Y-48675759D01*
X193245363Y-48675749D01*
X193129029Y-48474252D01*
X193069447Y-48396604D01*
X193069446Y-48396604D01*
X192404114Y-49061936D01*
X192403260Y-49059874D01*
X192310238Y-48920656D01*
X192191844Y-48802262D01*
X192052626Y-48709240D01*
X192050561Y-48708384D01*
X192715894Y-48043051D01*
X192638248Y-47983470D01*
X192613821Y-47969367D01*
X193482039Y-47969367D01*
X193837007Y-48324334D01*
X193968121Y-48193220D01*
X193947653Y-48131449D01*
X193945701Y-48124971D01*
X193942122Y-48111804D01*
X193940527Y-48105233D01*
X193934838Y-48078655D01*
X193933603Y-48072008D01*
X193931480Y-48058539D01*
X193930610Y-48051833D01*
X193918435Y-47932645D01*
X193918155Y-47929511D01*
X193917669Y-47923164D01*
X193917467Y-47919998D01*
X193916823Y-47907340D01*
X193916703Y-47904197D01*
X193916541Y-47897839D01*
X193916501Y-47894681D01*
X193916500Y-47693891D01*
X193837007Y-47614398D01*
X193482039Y-47969367D01*
X192613821Y-47969367D01*
X192436750Y-47867136D01*
X192436740Y-47867132D01*
X192221779Y-47778092D01*
X191993107Y-47716820D01*
X191993586Y-47715030D01*
X191938329Y-47686071D01*
X191903802Y-47625328D01*
X191900500Y-47596905D01*
X191900500Y-47262259D01*
X192774932Y-47262259D01*
X193129901Y-47617228D01*
X193484869Y-47262260D01*
X193160331Y-46937722D01*
X193147436Y-46929820D01*
X193143341Y-46927199D01*
X193135176Y-46921744D01*
X193131176Y-46918956D01*
X193123681Y-46913510D01*
X192774932Y-47262259D01*
X191900500Y-47262259D01*
X191900500Y-46224479D01*
X192398500Y-46224479D01*
X192398500Y-46885827D01*
X192422793Y-46910120D01*
X192742765Y-46590149D01*
X192722707Y-46570091D01*
X192719335Y-46566585D01*
X192712677Y-46559383D01*
X192709448Y-46555749D01*
X192696741Y-46540874D01*
X192693649Y-46537107D01*
X192687563Y-46529388D01*
X192684619Y-46525499D01*
X192543544Y-46331324D01*
X192540756Y-46327324D01*
X192535301Y-46319159D01*
X192532680Y-46315064D01*
X192524777Y-46302168D01*
X192422794Y-46200185D01*
X192398500Y-46224479D01*
X191900500Y-46224479D01*
X191900500Y-45166961D01*
X191901280Y-45153077D01*
X191901280Y-45153076D01*
X191911459Y-45062731D01*
X191917635Y-45035670D01*
X191945353Y-44956456D01*
X191957396Y-44931450D01*
X192002046Y-44860389D01*
X192019351Y-44838690D01*
X192078690Y-44779351D01*
X192100389Y-44762046D01*
X192171450Y-44717396D01*
X192196456Y-44705353D01*
X192275670Y-44677635D01*
X192302733Y-44671459D01*
X192365419Y-44664396D01*
X192393079Y-44661280D01*
X192406962Y-44660500D01*
X192465892Y-44660500D01*
X192718602Y-44660500D01*
X192785641Y-44680185D01*
G37*
%TD.AperFunction*%
%TA.AperFunction,Conductor*%
G36*
X214496922Y-44661280D02*
G01*
X214587266Y-44671459D01*
X214614331Y-44677636D01*
X214693540Y-44705352D01*
X214718553Y-44717398D01*
X214789606Y-44762043D01*
X214811313Y-44779355D01*
X214870644Y-44838686D01*
X214887957Y-44860395D01*
X214932600Y-44931444D01*
X214944648Y-44956462D01*
X214972362Y-45035666D01*
X214978540Y-45062735D01*
X214988720Y-45153076D01*
X214989500Y-45166961D01*
X214989500Y-48796905D01*
X214969815Y-48863944D01*
X214917011Y-48909699D01*
X214896741Y-48916254D01*
X214896893Y-48916820D01*
X214668220Y-48978092D01*
X214453259Y-49067132D01*
X214453249Y-49067136D01*
X214251747Y-49183473D01*
X214174104Y-49243050D01*
X214174104Y-49243051D01*
X214839438Y-49908384D01*
X214837374Y-49909240D01*
X214698156Y-50002262D01*
X214579762Y-50120656D01*
X214486740Y-50259874D01*
X214485885Y-50261938D01*
X213820551Y-49596604D01*
X213820550Y-49596604D01*
X213760973Y-49674247D01*
X213644636Y-49875749D01*
X213644632Y-49875759D01*
X213579061Y-50034062D01*
X213535220Y-50088465D01*
X213468926Y-50110530D01*
X213401227Y-50093251D01*
X213353616Y-50042114D01*
X213340500Y-49986609D01*
X213340500Y-48676473D01*
X213988135Y-48676473D01*
X214041488Y-48729826D01*
X214211310Y-48631780D01*
X214214855Y-48629810D01*
X214222065Y-48625956D01*
X214225672Y-48624103D01*
X214240291Y-48616893D01*
X214243966Y-48615155D01*
X214251424Y-48611776D01*
X214255144Y-48610163D01*
X214485172Y-48514882D01*
X214488956Y-48513387D01*
X214491500Y-48512429D01*
X214491500Y-48469901D01*
X214343104Y-48321505D01*
X213988135Y-48676473D01*
X213340500Y-48676473D01*
X213340500Y-48121832D01*
X213838500Y-48121832D01*
X213990965Y-47969366D01*
X213838500Y-47816901D01*
X213838500Y-48121832D01*
X213340500Y-48121832D01*
X213340500Y-47262259D01*
X213988135Y-47262259D01*
X214343104Y-47617228D01*
X214491500Y-47468832D01*
X214491500Y-47055688D01*
X214353841Y-46918029D01*
X214337101Y-46934769D01*
X214330621Y-46940803D01*
X214317126Y-46952496D01*
X214310236Y-46958048D01*
X214239079Y-47011315D01*
X213988135Y-47262259D01*
X213340500Y-47262259D01*
X213340500Y-46836999D01*
X213360185Y-46769960D01*
X213412989Y-46724205D01*
X213464500Y-46712999D01*
X213687871Y-46712999D01*
X213687872Y-46712999D01*
X213747483Y-46706591D01*
X213882331Y-46656296D01*
X213997546Y-46570046D01*
X214083796Y-46454831D01*
X214134091Y-46319983D01*
X214140500Y-46260373D01*
X214140499Y-44784499D01*
X214160184Y-44717461D01*
X214212987Y-44671706D01*
X214264499Y-44660500D01*
X214424108Y-44660500D01*
X214483038Y-44660500D01*
X214496922Y-44661280D01*
G37*
%TD.AperFunction*%
%TD*%
M02*
