%TF.GenerationSoftware,KiCad,Pcbnew,9.0.1*%
%TF.CreationDate,2026-07-09T21:46:01-05:00*%
%TF.ProjectId,VikFader4530,56696b46-6164-4657-9234-3533302e6b69,rev?*%
%TF.SameCoordinates,Original*%
%TF.FileFunction,Legend,Top*%
%TF.FilePolarity,Positive*%
%FSLAX46Y46*%
G04 Gerber Fmt 4.6, Leading zero omitted, Abs format (unit mm)*
G04 Created by KiCad (PCBNEW 9.0.1) date 2026-07-09 21:46:01*
%MOMM*%
%LPD*%
G01*
G04 APERTURE LIST*
G04 Aperture macros list*
%AMRoundRect*
0 Rectangle with rounded corners*
0 $1 Rounding radius*
0 $2 $3 $4 $5 $6 $7 $8 $9 X,Y pos of 4 corners*
0 Add a 4 corners polygon primitive as box body*
4,1,4,$2,$3,$4,$5,$6,$7,$8,$9,$2,$3,0*
0 Add four circle primitives for the rounded corners*
1,1,$1+$1,$2,$3*
1,1,$1+$1,$4,$5*
1,1,$1+$1,$6,$7*
1,1,$1+$1,$8,$9*
0 Add four rect primitives between the rounded corners*
20,1,$1+$1,$2,$3,$4,$5,0*
20,1,$1+$1,$4,$5,$6,$7,0*
20,1,$1+$1,$6,$7,$8,$9,0*
20,1,$1+$1,$8,$9,$2,$3,0*%
G04 Aperture macros list end*
%ADD10C,0.150000*%
%ADD11C,0.127000*%
%ADD12C,0.200000*%
%ADD13RoundRect,0.102000X-0.900000X0.900000X-0.900000X-0.900000X0.900000X-0.900000X0.900000X0.900000X0*%
%ADD14C,2.004000*%
%ADD15C,2.754000*%
%ADD16C,4.250000*%
%ADD17R,1.700000X1.700000*%
%ADD18C,1.700000*%
G04 APERTURE END LIST*
D10*
X218079819Y-47904166D02*
X217603628Y-48237499D01*
X218079819Y-48475594D02*
X217079819Y-48475594D01*
X217079819Y-48475594D02*
X217079819Y-48094642D01*
X217079819Y-48094642D02*
X217127438Y-47999404D01*
X217127438Y-47999404D02*
X217175057Y-47951785D01*
X217175057Y-47951785D02*
X217270295Y-47904166D01*
X217270295Y-47904166D02*
X217413152Y-47904166D01*
X217413152Y-47904166D02*
X217508390Y-47951785D01*
X217508390Y-47951785D02*
X217556009Y-47999404D01*
X217556009Y-47999404D02*
X217603628Y-48094642D01*
X217603628Y-48094642D02*
X217603628Y-48475594D01*
X218079819Y-46951785D02*
X218079819Y-47523213D01*
X218079819Y-47237499D02*
X217079819Y-47237499D01*
X217079819Y-47237499D02*
X217222676Y-47332737D01*
X217222676Y-47332737D02*
X217317914Y-47427975D01*
X217317914Y-47427975D02*
X217365533Y-47523213D01*
D11*
%TO.C,R1*%
X206490000Y-44562500D02*
X208020000Y-44562500D01*
X206490000Y-47867500D02*
X206490000Y-44562500D01*
X206490000Y-51057500D02*
X206490000Y-83067500D01*
X206490000Y-89562500D02*
X206490000Y-86257500D01*
X206490000Y-89562500D02*
X211520000Y-89562500D01*
X213960000Y-44562500D02*
X215490000Y-44562500D01*
X215490000Y-44562500D02*
X215490000Y-49067500D01*
X215490000Y-52257500D02*
X215490000Y-81867500D01*
X215490000Y-85057500D02*
X215490000Y-89562500D01*
X215490000Y-89562500D02*
X213960000Y-89562500D01*
D12*
X212840000Y-43812500D02*
G75*
G02*
X212640000Y-43812500I-100000J0D01*
G01*
X212640000Y-43812500D02*
G75*
G02*
X212840000Y-43812500I100000J0D01*
G01*
D11*
%TO.C,R5*%
X191400000Y-44562500D02*
X192930000Y-44562500D01*
X191400000Y-47867500D02*
X191400000Y-44562500D01*
X191400000Y-51057500D02*
X191400000Y-83067500D01*
X191400000Y-89562500D02*
X191400000Y-86257500D01*
X191400000Y-89562500D02*
X196430000Y-89562500D01*
X198870000Y-44562500D02*
X200400000Y-44562500D01*
X200400000Y-44562500D02*
X200400000Y-49067500D01*
X200400000Y-52257500D02*
X200400000Y-81867500D01*
X200400000Y-85057500D02*
X200400000Y-89562500D01*
X200400000Y-89562500D02*
X198870000Y-89562500D01*
D12*
X197750000Y-43812500D02*
G75*
G02*
X197550000Y-43812500I-100000J0D01*
G01*
X197550000Y-43812500D02*
G75*
G02*
X197750000Y-43812500I100000J0D01*
G01*
%TD*%
%LPC*%
D13*
%TO.C,R1*%
X212740000Y-45312500D03*
D14*
X209240000Y-45312500D03*
D15*
X206740000Y-49462500D03*
X215240000Y-50662500D03*
X215240000Y-83462500D03*
X206740000Y-84662500D03*
D14*
X212740000Y-88812500D03*
%TD*%
D13*
%TO.C,R5*%
X197650000Y-45312500D03*
D14*
X194150000Y-45312500D03*
D15*
X191650000Y-49462500D03*
X200150000Y-50662500D03*
X200150000Y-83462500D03*
X191650000Y-84662500D03*
D14*
X197650000Y-88812500D03*
%TD*%
D16*
%TO.C,H1*%
X195090800Y-53744200D03*
%TD*%
%TO.C,H4*%
X211856600Y-79490800D03*
%TD*%
D17*
%TO.C,J2*%
X203440000Y-60430000D03*
D18*
X203440000Y-62970000D03*
X203440000Y-65510000D03*
X203440000Y-68050000D03*
X203440000Y-70590000D03*
X203440000Y-73130000D03*
%TD*%
%LPD*%
M02*
