M48
; DRILL file {KiCad 9.0.1} date 2026-07-07T19:05:12-0500
; FORMAT={-:-/ absolute / inch / decimal}
; #@! TF.CreationDate,2026-07-07T19:05:12-05:00
; #@! TF.GenerationSoftware,Kicad,Pcbnew,9.0.1
; #@! TF.FileFunction,Plated,1,2,PTH
FMAT,2
INCH
; #@! TA.AperFunction,Plated,PTH,ViaDrill
T1C0.0118
; #@! TA.AperFunction,Plated,PTH,ComponentDrill
T2C0.0394
; #@! TA.AperFunction,Plated,PTH,ComponentDrill
T3C0.0472
; #@! TA.AperFunction,Plated,PTH,ComponentDrill
T4C0.0669
%
G90
G05
T1
X5.0547Y-3.7228
X5.2197Y-3.65
X5.2473Y-3.7515
X5.2524Y-3.6472
X5.3502Y-3.7302
X5.3559Y-3.5413
X5.3624Y-3.6409
X5.4693Y-3.7154
X5.498Y-3.5571
X5.5079Y-3.7764
X5.5327Y-3.6427
X5.5508Y-3.7307
X5.5771Y-3.6639
X5.6009Y-3.7396
X5.6071Y-3.7087
X5.6083Y-3.6403
X6.3224Y-3.6329
X6.3657Y-3.7307
X6.4618Y-3.6535
X6.4642Y-3.6059
X6.5661Y-3.7339
X6.6063Y-3.7102
T2
X5.6708Y-3.687
X5.7708Y-3.687
X5.8708Y-3.687
X5.9708Y-3.687
X6.0708Y-3.687
X6.1708Y-3.687
T3
X4.4921Y-3.6181
X4.4921Y-3.7559
X7.3858Y-3.6181
T4
X4.6555Y-3.8543
X4.7028Y-3.5197
X7.1752Y-3.5197
X7.2224Y-3.8543
M30
