%TF.GenerationSoftware,KiCad,Pcbnew,9.0.1*%
%TF.CreationDate,2026-07-06T00:47:40-05:00*%
%TF.ProjectId,VikFader75,56696b46-6164-4657-9237-352e6b696361,rev?*%
%TF.SameCoordinates,Original*%
%TF.FileFunction,Legend,Bot*%
%TF.FilePolarity,Positive*%
%FSLAX46Y46*%
G04 Gerber Fmt 4.6, Leading zero omitted, Abs format (unit mm)*
G04 Created by KiCad (PCBNEW 9.0.1) date 2026-07-06 00:47:40*
%MOMM*%
%LPD*%
G01*
G04 APERTURE LIST*
G04 Aperture macros list*
%AMRoundRect*
0 Rectangle with rounded corners*
0 $1 Rounding radius*
0 $2 $3 $4 $5 $6 $7 $8 $9 X,Y pos of 4 corners*
0 Add a 4 corners polygon primitive as box body*
4,1,4,$2,$3,$4,$5,$6,$7,$8,$9,$2,$3,0*
0 Add four circle primitives for the rounded corners*
1,1,$1+$1,$2,$3*
1,1,$1+$1,$4,$5*
1,1,$1+$1,$6,$7*
1,1,$1+$1,$8,$9*
0 Add four rect primitives between the rounded corners*
20,1,$1+$1,$2,$3,$4,$5,0*
20,1,$1+$1,$4,$5,$6,$7,0*
20,1,$1+$1,$6,$7,$8,$9,0*
20,1,$1+$1,$8,$9,$2,$3,0*%
%AMFreePoly0*
4,1,23,0.500000,-0.750000,0.000000,-0.750000,0.000000,-0.745722,-0.065263,-0.745722,-0.191342,-0.711940,-0.304381,-0.646677,-0.396677,-0.554381,-0.461940,-0.441342,-0.495722,-0.315263,-0.495722,-0.250000,-0.500000,-0.250000,-0.500000,0.250000,-0.495722,0.250000,-0.495722,0.315263,-0.461940,0.441342,-0.396677,0.554381,-0.304381,0.646677,-0.191342,0.711940,-0.065263,0.745722,0.000000,0.745722,
0.000000,0.750000,0.500000,0.750000,0.500000,-0.750000,0.500000,-0.750000,$1*%
%AMFreePoly1*
4,1,23,0.000000,0.745722,0.065263,0.745722,0.191342,0.711940,0.304381,0.646677,0.396677,0.554381,0.461940,0.441342,0.495722,0.315263,0.495722,0.250000,0.500000,0.250000,0.500000,-0.250000,0.495722,-0.250000,0.495722,-0.315263,0.461940,-0.441342,0.396677,-0.554381,0.304381,-0.646677,0.191342,-0.711940,0.065263,-0.745722,0.000000,-0.745722,0.000000,-0.750000,-0.500000,-0.750000,
-0.500000,0.750000,0.000000,0.750000,0.000000,0.745722,0.000000,0.745722,$1*%
%AMFreePoly2*
4,1,47,1.555255,2.102555,1.569900,2.067200,1.569640,2.062111,1.529740,1.672111,1.528238,1.664044,1.378238,1.114044,1.375957,1.107504,1.255957,0.827504,1.254721,0.824839,1.144721,0.604839,1.142059,0.600162,0.872059,0.180162,0.865355,0.171845,0.505355,-0.188155,0.501785,-0.191397,0.161785,-0.471397,0.154566,-0.476349,-0.235434,-0.696349,-0.241823,-0.699379,-0.651823,-0.859379,
-0.656463,-0.860933,-0.976463,-0.950933,-0.980194,-0.951829,-1.130194,-0.981829,-1.133533,-0.982380,-1.363533,-1.012380,-1.366674,-1.012689,-1.516674,-1.022689,-1.552925,-1.010429,-1.569889,-0.976126,-1.570000,-0.972800,-1.570000,-0.172800,-1.555355,-0.137445,-1.524975,-0.123048,-1.229758,-0.093526,-0.837751,0.024075,-0.583722,0.141319,-0.171905,0.396254,0.140480,0.728164,0.357960,1.064269,
0.493729,1.277620,0.620989,1.747504,0.670462,2.074676,0.690228,2.107444,0.719900,2.117200,1.519900,2.117200,1.555255,2.102555,1.555255,2.102555,$1*%
%AMFreePoly3*
4,1,47,-1.514899,1.026039,-1.124899,0.986039,-1.116842,0.984538,-0.566942,0.834538,-0.560410,0.832260,-0.280310,0.712260,-0.277631,0.711017,-0.057731,0.601017,-0.053067,0.598362,0.367033,0.328362,0.375355,0.321655,0.735355,-0.038345,0.738602,-0.041921,1.018502,-0.381921,1.023444,-0.389125,1.243544,-0.779125,1.246583,-0.785533,1.406483,-1.195533,1.408033,-1.200163,1.498033,-1.520163,
1.498929,-1.523894,1.528929,-1.673894,1.529477,-1.677212,1.559577,-1.907212,1.559889,-1.910372,1.569889,-2.060272,1.557630,-2.096524,1.523328,-2.113489,1.520000,-2.113600,0.719900,-2.113600,0.684545,-2.098955,0.670148,-2.068575,0.640626,-1.773355,0.523122,-1.381351,0.405787,-1.127434,0.150845,-0.715605,-0.181069,-0.403214,-0.517000,-0.185783,-0.730420,-0.049970,-1.200310,0.077291,
-1.527490,0.126864,-1.560253,0.146640,-1.570000,0.176300,-1.570000,0.976300,-1.555355,1.011655,-1.520000,1.026300,-1.514899,1.026039,-1.514899,1.026039,$1*%
%AMFreePoly4*
4,1,47,1.553025,1.010229,1.569989,0.975926,1.570100,0.972600,1.570100,0.172600,1.555455,0.137245,1.525075,0.122848,1.229855,0.093326,0.837846,-0.024178,0.583832,-0.141513,0.172005,-0.396454,-0.140380,-0.728364,-0.357860,-1.064469,-0.493629,-1.277820,-0.620891,-1.747710,-0.670464,-2.074890,-0.690240,-2.107653,-0.719900,-2.117400,-1.519900,-2.117400,-1.555255,-2.102755,-1.569900,-2.067400,
-1.569639,-2.062300,-1.529639,-1.672200,-1.528138,-1.664142,-1.378138,-1.114242,-1.375857,-1.107704,-1.255857,-0.827704,-1.254621,-0.825039,-1.144621,-0.605039,-1.141959,-0.600362,-0.871959,-0.180362,-0.865255,-0.172045,-0.505255,0.187955,-0.501685,0.191197,-0.161685,0.471197,-0.154466,0.476149,0.235534,0.696149,0.241923,0.699179,0.651923,0.859179,0.656563,0.860733,0.976563,0.950733,
0.980294,0.951629,1.130294,0.981629,1.133633,0.982180,1.363633,1.012180,1.366774,1.012489,1.516774,1.022489,1.553025,1.010229,1.553025,1.010229,$1*%
%AMFreePoly5*
4,1,47,-0.684645,2.098955,-0.670248,2.068575,-0.640726,1.773358,-0.523125,1.381356,-0.405881,1.127423,-0.150945,0.715605,0.180964,0.403219,0.517069,0.185739,0.730420,0.049970,1.200310,-0.077291,1.527490,-0.126864,1.560253,-0.146640,1.570000,-0.176300,1.570000,-0.976300,1.555355,-1.011655,1.520000,-1.026300,1.514899,-1.026039,1.124899,-0.986039,1.116844,-0.984538,0.566844,-0.834538,
0.560304,-0.832257,0.280304,-0.712257,0.277639,-0.711021,0.057639,-0.601021,0.052962,-0.598359,-0.367038,-0.328359,-0.375355,-0.321655,-0.735355,0.038345,-0.738597,0.041915,-1.018597,0.381915,-1.023549,0.389134,-1.243549,0.779134,-1.246579,0.785523,-1.406579,1.195523,-1.408133,1.200163,-1.498133,1.520163,-1.499029,1.523894,-1.529029,1.673894,-1.529580,1.677233,-1.559580,1.907233,
-1.559889,1.910372,-1.569889,2.060272,-1.557630,2.096524,-1.523328,2.113489,-1.520000,2.113600,-0.720000,2.113600,-0.684645,2.098955,-0.684645,2.098955,$1*%
G04 Aperture macros list end*
%ADD10C,0.120000*%
%ADD11C,0.150000*%
%ADD12C,0.254000*%
%ADD13C,0.128000*%
%ADD14R,1.350000X1.350000*%
%ADD15C,1.350000*%
%ADD16RoundRect,0.102000X-0.900000X-0.900000X0.900000X-0.900000X0.900000X0.900000X-0.900000X0.900000X0*%
%ADD17C,2.004000*%
%ADD18C,2.754000*%
%ADD19RoundRect,0.225000X0.250000X-0.225000X0.250000X0.225000X-0.250000X0.225000X-0.250000X-0.225000X0*%
%ADD20RoundRect,0.225000X0.225000X0.250000X-0.225000X0.250000X-0.225000X-0.250000X0.225000X-0.250000X0*%
%ADD21R,0.280000X1.250000*%
%ADD22R,1.800000X2.000000*%
%ADD23FreePoly0,270.000000*%
%ADD24FreePoly1,270.000000*%
%ADD25RoundRect,0.225000X-0.225000X-0.250000X0.225000X-0.250000X0.225000X0.250000X-0.225000X0.250000X0*%
%ADD26C,4.250000*%
%ADD27FreePoly2,180.000000*%
%ADD28FreePoly3,180.000000*%
%ADD29FreePoly4,180.000000*%
%ADD30FreePoly5,180.000000*%
%ADD31R,1.750000X1.650000*%
%ADD32R,0.250000X1.100000*%
G04 APERTURE END LIST*
D10*
X138432005Y-93002093D02*
X138051053Y-93002093D01*
X138241529Y-93192569D02*
X138241529Y-92811617D01*
X137860576Y-92692569D02*
X137551052Y-92692569D01*
X137551052Y-92692569D02*
X137717719Y-92883045D01*
X137717719Y-92883045D02*
X137646290Y-92883045D01*
X137646290Y-92883045D02*
X137598671Y-92906855D01*
X137598671Y-92906855D02*
X137574862Y-92930664D01*
X137574862Y-92930664D02*
X137551052Y-92978283D01*
X137551052Y-92978283D02*
X137551052Y-93097331D01*
X137551052Y-93097331D02*
X137574862Y-93144950D01*
X137574862Y-93144950D02*
X137598671Y-93168760D01*
X137598671Y-93168760D02*
X137646290Y-93192569D01*
X137646290Y-93192569D02*
X137789147Y-93192569D01*
X137789147Y-93192569D02*
X137836766Y-93168760D01*
X137836766Y-93168760D02*
X137860576Y-93144950D01*
X137384386Y-92859236D02*
X137265338Y-93192569D01*
X137265338Y-93192569D02*
X137146291Y-92859236D01*
X137003434Y-92692569D02*
X136693910Y-92692569D01*
X136693910Y-92692569D02*
X136860577Y-92883045D01*
X136860577Y-92883045D02*
X136789148Y-92883045D01*
X136789148Y-92883045D02*
X136741529Y-92906855D01*
X136741529Y-92906855D02*
X136717720Y-92930664D01*
X136717720Y-92930664D02*
X136693910Y-92978283D01*
X136693910Y-92978283D02*
X136693910Y-93097331D01*
X136693910Y-93097331D02*
X136717720Y-93144950D01*
X136717720Y-93144950D02*
X136741529Y-93168760D01*
X136741529Y-93168760D02*
X136789148Y-93192569D01*
X136789148Y-93192569D02*
X136932005Y-93192569D01*
X136932005Y-93192569D02*
X136979624Y-93168760D01*
X136979624Y-93168760D02*
X137003434Y-93144950D01*
X137452569Y-90293232D02*
X137452569Y-90340851D01*
X137452569Y-90340851D02*
X137476379Y-90388470D01*
X137476379Y-90388470D02*
X137500188Y-90412280D01*
X137500188Y-90412280D02*
X137547807Y-90436089D01*
X137547807Y-90436089D02*
X137643045Y-90459899D01*
X137643045Y-90459899D02*
X137762093Y-90459899D01*
X137762093Y-90459899D02*
X137857331Y-90436089D01*
X137857331Y-90436089D02*
X137904950Y-90412280D01*
X137904950Y-90412280D02*
X137928760Y-90388470D01*
X137928760Y-90388470D02*
X137952569Y-90340851D01*
X137952569Y-90340851D02*
X137952569Y-90293232D01*
X137952569Y-90293232D02*
X137928760Y-90245613D01*
X137928760Y-90245613D02*
X137904950Y-90221804D01*
X137904950Y-90221804D02*
X137857331Y-90197994D01*
X137857331Y-90197994D02*
X137762093Y-90174185D01*
X137762093Y-90174185D02*
X137643045Y-90174185D01*
X137643045Y-90174185D02*
X137547807Y-90197994D01*
X137547807Y-90197994D02*
X137500188Y-90221804D01*
X137500188Y-90221804D02*
X137476379Y-90245613D01*
X137476379Y-90245613D02*
X137452569Y-90293232D01*
X137952569Y-90626565D02*
X137619236Y-90888470D01*
X137619236Y-90626565D02*
X137952569Y-90888470D01*
X137619236Y-91293232D02*
X137952569Y-91293232D01*
X137428760Y-91174184D02*
X137785902Y-91055137D01*
X137785902Y-91055137D02*
X137785902Y-91364660D01*
X137952569Y-91578946D02*
X137952569Y-91674184D01*
X137952569Y-91674184D02*
X137928760Y-91721803D01*
X137928760Y-91721803D02*
X137904950Y-91745612D01*
X137904950Y-91745612D02*
X137833521Y-91793231D01*
X137833521Y-91793231D02*
X137738283Y-91817041D01*
X137738283Y-91817041D02*
X137547807Y-91817041D01*
X137547807Y-91817041D02*
X137500188Y-91793231D01*
X137500188Y-91793231D02*
X137476379Y-91769422D01*
X137476379Y-91769422D02*
X137452569Y-91721803D01*
X137452569Y-91721803D02*
X137452569Y-91626565D01*
X137452569Y-91626565D02*
X137476379Y-91578946D01*
X137476379Y-91578946D02*
X137500188Y-91555136D01*
X137500188Y-91555136D02*
X137547807Y-91531327D01*
X137547807Y-91531327D02*
X137666855Y-91531327D01*
X137666855Y-91531327D02*
X137714474Y-91555136D01*
X137714474Y-91555136D02*
X137738283Y-91578946D01*
X137738283Y-91578946D02*
X137762093Y-91626565D01*
X137762093Y-91626565D02*
X137762093Y-91721803D01*
X137762093Y-91721803D02*
X137738283Y-91769422D01*
X137738283Y-91769422D02*
X137714474Y-91793231D01*
X137714474Y-91793231D02*
X137666855Y-91817041D01*
X139790100Y-92706379D02*
X139837719Y-92682569D01*
X139837719Y-92682569D02*
X139909148Y-92682569D01*
X139909148Y-92682569D02*
X139980576Y-92706379D01*
X139980576Y-92706379D02*
X140028195Y-92753998D01*
X140028195Y-92753998D02*
X140052005Y-92801617D01*
X140052005Y-92801617D02*
X140075814Y-92896855D01*
X140075814Y-92896855D02*
X140075814Y-92968283D01*
X140075814Y-92968283D02*
X140052005Y-93063521D01*
X140052005Y-93063521D02*
X140028195Y-93111140D01*
X140028195Y-93111140D02*
X139980576Y-93158760D01*
X139980576Y-93158760D02*
X139909148Y-93182569D01*
X139909148Y-93182569D02*
X139861529Y-93182569D01*
X139861529Y-93182569D02*
X139790100Y-93158760D01*
X139790100Y-93158760D02*
X139766291Y-93134950D01*
X139766291Y-93134950D02*
X139766291Y-92968283D01*
X139766291Y-92968283D02*
X139861529Y-92968283D01*
X139552005Y-93182569D02*
X139552005Y-92682569D01*
X139552005Y-92682569D02*
X139266291Y-93182569D01*
X139266291Y-93182569D02*
X139266291Y-92682569D01*
X139028195Y-93182569D02*
X139028195Y-92682569D01*
X139028195Y-92682569D02*
X138909147Y-92682569D01*
X138909147Y-92682569D02*
X138837719Y-92706379D01*
X138837719Y-92706379D02*
X138790100Y-92753998D01*
X138790100Y-92753998D02*
X138766290Y-92801617D01*
X138766290Y-92801617D02*
X138742481Y-92896855D01*
X138742481Y-92896855D02*
X138742481Y-92968283D01*
X138742481Y-92968283D02*
X138766290Y-93063521D01*
X138766290Y-93063521D02*
X138790100Y-93111140D01*
X138790100Y-93111140D02*
X138837719Y-93158760D01*
X138837719Y-93158760D02*
X138909147Y-93182569D01*
X138909147Y-93182569D02*
X139028195Y-93182569D01*
X144035814Y-93168760D02*
X143964386Y-93192569D01*
X143964386Y-93192569D02*
X143845338Y-93192569D01*
X143845338Y-93192569D02*
X143797719Y-93168760D01*
X143797719Y-93168760D02*
X143773910Y-93144950D01*
X143773910Y-93144950D02*
X143750100Y-93097331D01*
X143750100Y-93097331D02*
X143750100Y-93049712D01*
X143750100Y-93049712D02*
X143773910Y-93002093D01*
X143773910Y-93002093D02*
X143797719Y-92978283D01*
X143797719Y-92978283D02*
X143845338Y-92954474D01*
X143845338Y-92954474D02*
X143940576Y-92930664D01*
X143940576Y-92930664D02*
X143988195Y-92906855D01*
X143988195Y-92906855D02*
X144012005Y-92883045D01*
X144012005Y-92883045D02*
X144035814Y-92835426D01*
X144035814Y-92835426D02*
X144035814Y-92787807D01*
X144035814Y-92787807D02*
X144012005Y-92740188D01*
X144012005Y-92740188D02*
X143988195Y-92716379D01*
X143988195Y-92716379D02*
X143940576Y-92692569D01*
X143940576Y-92692569D02*
X143821529Y-92692569D01*
X143821529Y-92692569D02*
X143750100Y-92716379D01*
X143250101Y-93144950D02*
X143273910Y-93168760D01*
X143273910Y-93168760D02*
X143345339Y-93192569D01*
X143345339Y-93192569D02*
X143392958Y-93192569D01*
X143392958Y-93192569D02*
X143464386Y-93168760D01*
X143464386Y-93168760D02*
X143512005Y-93121140D01*
X143512005Y-93121140D02*
X143535815Y-93073521D01*
X143535815Y-93073521D02*
X143559624Y-92978283D01*
X143559624Y-92978283D02*
X143559624Y-92906855D01*
X143559624Y-92906855D02*
X143535815Y-92811617D01*
X143535815Y-92811617D02*
X143512005Y-92763998D01*
X143512005Y-92763998D02*
X143464386Y-92716379D01*
X143464386Y-92716379D02*
X143392958Y-92692569D01*
X143392958Y-92692569D02*
X143345339Y-92692569D01*
X143345339Y-92692569D02*
X143273910Y-92716379D01*
X143273910Y-92716379D02*
X143250101Y-92740188D01*
X142797720Y-93192569D02*
X143035815Y-93192569D01*
X143035815Y-93192569D02*
X143035815Y-92692569D01*
X145717597Y-92412381D02*
X145217597Y-92412381D01*
X145265216Y-92626667D02*
X145241407Y-92650476D01*
X145241407Y-92650476D02*
X145217597Y-92698095D01*
X145217597Y-92698095D02*
X145217597Y-92817143D01*
X145217597Y-92817143D02*
X145241407Y-92864762D01*
X145241407Y-92864762D02*
X145265216Y-92888571D01*
X145265216Y-92888571D02*
X145312835Y-92912381D01*
X145312835Y-92912381D02*
X145360454Y-92912381D01*
X145360454Y-92912381D02*
X145431883Y-92888571D01*
X145431883Y-92888571D02*
X145717597Y-92602857D01*
X145717597Y-92602857D02*
X145717597Y-92912381D01*
X145669978Y-93412380D02*
X145693788Y-93388571D01*
X145693788Y-93388571D02*
X145717597Y-93317142D01*
X145717597Y-93317142D02*
X145717597Y-93269523D01*
X145717597Y-93269523D02*
X145693788Y-93198095D01*
X145693788Y-93198095D02*
X145646168Y-93150476D01*
X145646168Y-93150476D02*
X145598549Y-93126666D01*
X145598549Y-93126666D02*
X145503311Y-93102857D01*
X145503311Y-93102857D02*
X145431883Y-93102857D01*
X145431883Y-93102857D02*
X145336645Y-93126666D01*
X145336645Y-93126666D02*
X145289026Y-93150476D01*
X145289026Y-93150476D02*
X145241407Y-93198095D01*
X145241407Y-93198095D02*
X145217597Y-93269523D01*
X145217597Y-93269523D02*
X145217597Y-93317142D01*
X145217597Y-93317142D02*
X145241407Y-93388571D01*
X145241407Y-93388571D02*
X145265216Y-93412380D01*
X145527121Y-94007618D02*
X145527121Y-94388571D01*
X145384264Y-94626666D02*
X145527121Y-95007619D01*
X145527121Y-95007619D02*
X145669978Y-94626666D01*
X146522569Y-92209999D02*
X146022569Y-92209999D01*
X146022569Y-92209999D02*
X146022569Y-92400475D01*
X146022569Y-92400475D02*
X146046379Y-92448094D01*
X146046379Y-92448094D02*
X146070188Y-92471904D01*
X146070188Y-92471904D02*
X146117807Y-92495713D01*
X146117807Y-92495713D02*
X146189236Y-92495713D01*
X146189236Y-92495713D02*
X146236855Y-92471904D01*
X146236855Y-92471904D02*
X146260664Y-92448094D01*
X146260664Y-92448094D02*
X146284474Y-92400475D01*
X146284474Y-92400475D02*
X146284474Y-92209999D01*
X146022569Y-92709999D02*
X146427331Y-92709999D01*
X146427331Y-92709999D02*
X146474950Y-92733809D01*
X146474950Y-92733809D02*
X146498760Y-92757618D01*
X146498760Y-92757618D02*
X146522569Y-92805237D01*
X146522569Y-92805237D02*
X146522569Y-92900475D01*
X146522569Y-92900475D02*
X146498760Y-92948094D01*
X146498760Y-92948094D02*
X146474950Y-92971904D01*
X146474950Y-92971904D02*
X146427331Y-92995713D01*
X146427331Y-92995713D02*
X146022569Y-92995713D01*
X146522569Y-93471904D02*
X146522569Y-93233809D01*
X146522569Y-93233809D02*
X146022569Y-93233809D01*
X146522569Y-93876666D02*
X146522569Y-93638571D01*
X146522569Y-93638571D02*
X146022569Y-93638571D01*
X146022569Y-94424285D02*
X146427331Y-94424285D01*
X146427331Y-94424285D02*
X146474950Y-94448095D01*
X146474950Y-94448095D02*
X146498760Y-94471904D01*
X146498760Y-94471904D02*
X146522569Y-94519523D01*
X146522569Y-94519523D02*
X146522569Y-94614761D01*
X146522569Y-94614761D02*
X146498760Y-94662380D01*
X146498760Y-94662380D02*
X146474950Y-94686190D01*
X146474950Y-94686190D02*
X146427331Y-94709999D01*
X146427331Y-94709999D02*
X146022569Y-94709999D01*
X146522569Y-94948095D02*
X146022569Y-94948095D01*
X146022569Y-94948095D02*
X146022569Y-95138571D01*
X146022569Y-95138571D02*
X146046379Y-95186190D01*
X146046379Y-95186190D02*
X146070188Y-95210000D01*
X146070188Y-95210000D02*
X146117807Y-95233809D01*
X146117807Y-95233809D02*
X146189236Y-95233809D01*
X146189236Y-95233809D02*
X146236855Y-95210000D01*
X146236855Y-95210000D02*
X146260664Y-95186190D01*
X146260664Y-95186190D02*
X146284474Y-95138571D01*
X146284474Y-95138571D02*
X146284474Y-94948095D01*
X142452569Y-90293232D02*
X142452569Y-90340851D01*
X142452569Y-90340851D02*
X142476379Y-90388470D01*
X142476379Y-90388470D02*
X142500188Y-90412280D01*
X142500188Y-90412280D02*
X142547807Y-90436089D01*
X142547807Y-90436089D02*
X142643045Y-90459899D01*
X142643045Y-90459899D02*
X142762093Y-90459899D01*
X142762093Y-90459899D02*
X142857331Y-90436089D01*
X142857331Y-90436089D02*
X142904950Y-90412280D01*
X142904950Y-90412280D02*
X142928760Y-90388470D01*
X142928760Y-90388470D02*
X142952569Y-90340851D01*
X142952569Y-90340851D02*
X142952569Y-90293232D01*
X142952569Y-90293232D02*
X142928760Y-90245613D01*
X142928760Y-90245613D02*
X142904950Y-90221804D01*
X142904950Y-90221804D02*
X142857331Y-90197994D01*
X142857331Y-90197994D02*
X142762093Y-90174185D01*
X142762093Y-90174185D02*
X142643045Y-90174185D01*
X142643045Y-90174185D02*
X142547807Y-90197994D01*
X142547807Y-90197994D02*
X142500188Y-90221804D01*
X142500188Y-90221804D02*
X142476379Y-90245613D01*
X142476379Y-90245613D02*
X142452569Y-90293232D01*
X142952569Y-90626565D02*
X142619236Y-90888470D01*
X142619236Y-90626565D02*
X142952569Y-90888470D01*
X142619236Y-91293232D02*
X142952569Y-91293232D01*
X142428760Y-91174184D02*
X142785902Y-91055137D01*
X142785902Y-91055137D02*
X142785902Y-91364660D01*
X142809712Y-91531327D02*
X142809712Y-91769422D01*
X142952569Y-91483708D02*
X142452569Y-91650374D01*
X142452569Y-91650374D02*
X142952569Y-91817041D01*
X144882569Y-90293232D02*
X144882569Y-90340851D01*
X144882569Y-90340851D02*
X144906379Y-90388470D01*
X144906379Y-90388470D02*
X144930188Y-90412280D01*
X144930188Y-90412280D02*
X144977807Y-90436089D01*
X144977807Y-90436089D02*
X145073045Y-90459899D01*
X145073045Y-90459899D02*
X145192093Y-90459899D01*
X145192093Y-90459899D02*
X145287331Y-90436089D01*
X145287331Y-90436089D02*
X145334950Y-90412280D01*
X145334950Y-90412280D02*
X145358760Y-90388470D01*
X145358760Y-90388470D02*
X145382569Y-90340851D01*
X145382569Y-90340851D02*
X145382569Y-90293232D01*
X145382569Y-90293232D02*
X145358760Y-90245613D01*
X145358760Y-90245613D02*
X145334950Y-90221804D01*
X145334950Y-90221804D02*
X145287331Y-90197994D01*
X145287331Y-90197994D02*
X145192093Y-90174185D01*
X145192093Y-90174185D02*
X145073045Y-90174185D01*
X145073045Y-90174185D02*
X144977807Y-90197994D01*
X144977807Y-90197994D02*
X144930188Y-90221804D01*
X144930188Y-90221804D02*
X144906379Y-90245613D01*
X144906379Y-90245613D02*
X144882569Y-90293232D01*
X145382569Y-90626565D02*
X145049236Y-90888470D01*
X145049236Y-90626565D02*
X145382569Y-90888470D01*
X145049236Y-91293232D02*
X145382569Y-91293232D01*
X144858760Y-91174184D02*
X145215902Y-91055137D01*
X145215902Y-91055137D02*
X145215902Y-91364660D01*
X145120664Y-91721803D02*
X145144474Y-91793231D01*
X145144474Y-91793231D02*
X145168283Y-91817041D01*
X145168283Y-91817041D02*
X145215902Y-91840850D01*
X145215902Y-91840850D02*
X145287331Y-91840850D01*
X145287331Y-91840850D02*
X145334950Y-91817041D01*
X145334950Y-91817041D02*
X145358760Y-91793231D01*
X145358760Y-91793231D02*
X145382569Y-91745612D01*
X145382569Y-91745612D02*
X145382569Y-91555136D01*
X145382569Y-91555136D02*
X144882569Y-91555136D01*
X144882569Y-91555136D02*
X144882569Y-91721803D01*
X144882569Y-91721803D02*
X144906379Y-91769422D01*
X144906379Y-91769422D02*
X144930188Y-91793231D01*
X144930188Y-91793231D02*
X144977807Y-91817041D01*
X144977807Y-91817041D02*
X145025426Y-91817041D01*
X145025426Y-91817041D02*
X145073045Y-91793231D01*
X145073045Y-91793231D02*
X145096855Y-91769422D01*
X145096855Y-91769422D02*
X145120664Y-91721803D01*
X145120664Y-91721803D02*
X145120664Y-91555136D01*
X139972569Y-90293232D02*
X139972569Y-90340851D01*
X139972569Y-90340851D02*
X139996379Y-90388470D01*
X139996379Y-90388470D02*
X140020188Y-90412280D01*
X140020188Y-90412280D02*
X140067807Y-90436089D01*
X140067807Y-90436089D02*
X140163045Y-90459899D01*
X140163045Y-90459899D02*
X140282093Y-90459899D01*
X140282093Y-90459899D02*
X140377331Y-90436089D01*
X140377331Y-90436089D02*
X140424950Y-90412280D01*
X140424950Y-90412280D02*
X140448760Y-90388470D01*
X140448760Y-90388470D02*
X140472569Y-90340851D01*
X140472569Y-90340851D02*
X140472569Y-90293232D01*
X140472569Y-90293232D02*
X140448760Y-90245613D01*
X140448760Y-90245613D02*
X140424950Y-90221804D01*
X140424950Y-90221804D02*
X140377331Y-90197994D01*
X140377331Y-90197994D02*
X140282093Y-90174185D01*
X140282093Y-90174185D02*
X140163045Y-90174185D01*
X140163045Y-90174185D02*
X140067807Y-90197994D01*
X140067807Y-90197994D02*
X140020188Y-90221804D01*
X140020188Y-90221804D02*
X139996379Y-90245613D01*
X139996379Y-90245613D02*
X139972569Y-90293232D01*
X140472569Y-90626565D02*
X140139236Y-90888470D01*
X140139236Y-90626565D02*
X140472569Y-90888470D01*
X140139236Y-91293232D02*
X140472569Y-91293232D01*
X139948760Y-91174184D02*
X140305902Y-91055137D01*
X140305902Y-91055137D02*
X140305902Y-91364660D01*
X140186855Y-91626565D02*
X140163045Y-91578946D01*
X140163045Y-91578946D02*
X140139236Y-91555136D01*
X140139236Y-91555136D02*
X140091617Y-91531327D01*
X140091617Y-91531327D02*
X140067807Y-91531327D01*
X140067807Y-91531327D02*
X140020188Y-91555136D01*
X140020188Y-91555136D02*
X139996379Y-91578946D01*
X139996379Y-91578946D02*
X139972569Y-91626565D01*
X139972569Y-91626565D02*
X139972569Y-91721803D01*
X139972569Y-91721803D02*
X139996379Y-91769422D01*
X139996379Y-91769422D02*
X140020188Y-91793231D01*
X140020188Y-91793231D02*
X140067807Y-91817041D01*
X140067807Y-91817041D02*
X140091617Y-91817041D01*
X140091617Y-91817041D02*
X140139236Y-91793231D01*
X140139236Y-91793231D02*
X140163045Y-91769422D01*
X140163045Y-91769422D02*
X140186855Y-91721803D01*
X140186855Y-91721803D02*
X140186855Y-91626565D01*
X140186855Y-91626565D02*
X140210664Y-91578946D01*
X140210664Y-91578946D02*
X140234474Y-91555136D01*
X140234474Y-91555136D02*
X140282093Y-91531327D01*
X140282093Y-91531327D02*
X140377331Y-91531327D01*
X140377331Y-91531327D02*
X140424950Y-91555136D01*
X140424950Y-91555136D02*
X140448760Y-91578946D01*
X140448760Y-91578946D02*
X140472569Y-91626565D01*
X140472569Y-91626565D02*
X140472569Y-91721803D01*
X140472569Y-91721803D02*
X140448760Y-91769422D01*
X140448760Y-91769422D02*
X140424950Y-91793231D01*
X140424950Y-91793231D02*
X140377331Y-91817041D01*
X140377331Y-91817041D02*
X140282093Y-91817041D01*
X140282093Y-91817041D02*
X140234474Y-91793231D01*
X140234474Y-91793231D02*
X140210664Y-91769422D01*
X140210664Y-91769422D02*
X140186855Y-91721803D01*
X142005814Y-93158760D02*
X141934386Y-93182569D01*
X141934386Y-93182569D02*
X141815338Y-93182569D01*
X141815338Y-93182569D02*
X141767719Y-93158760D01*
X141767719Y-93158760D02*
X141743910Y-93134950D01*
X141743910Y-93134950D02*
X141720100Y-93087331D01*
X141720100Y-93087331D02*
X141720100Y-93039712D01*
X141720100Y-93039712D02*
X141743910Y-92992093D01*
X141743910Y-92992093D02*
X141767719Y-92968283D01*
X141767719Y-92968283D02*
X141815338Y-92944474D01*
X141815338Y-92944474D02*
X141910576Y-92920664D01*
X141910576Y-92920664D02*
X141958195Y-92896855D01*
X141958195Y-92896855D02*
X141982005Y-92873045D01*
X141982005Y-92873045D02*
X142005814Y-92825426D01*
X142005814Y-92825426D02*
X142005814Y-92777807D01*
X142005814Y-92777807D02*
X141982005Y-92730188D01*
X141982005Y-92730188D02*
X141958195Y-92706379D01*
X141958195Y-92706379D02*
X141910576Y-92682569D01*
X141910576Y-92682569D02*
X141791529Y-92682569D01*
X141791529Y-92682569D02*
X141720100Y-92706379D01*
X141505815Y-93182569D02*
X141505815Y-92682569D01*
X141505815Y-92682569D02*
X141386767Y-92682569D01*
X141386767Y-92682569D02*
X141315339Y-92706379D01*
X141315339Y-92706379D02*
X141267720Y-92753998D01*
X141267720Y-92753998D02*
X141243910Y-92801617D01*
X141243910Y-92801617D02*
X141220101Y-92896855D01*
X141220101Y-92896855D02*
X141220101Y-92968283D01*
X141220101Y-92968283D02*
X141243910Y-93063521D01*
X141243910Y-93063521D02*
X141267720Y-93111140D01*
X141267720Y-93111140D02*
X141315339Y-93158760D01*
X141315339Y-93158760D02*
X141386767Y-93182569D01*
X141386767Y-93182569D02*
X141505815Y-93182569D01*
X141029624Y-93039712D02*
X140791529Y-93039712D01*
X141077243Y-93182569D02*
X140910577Y-92682569D01*
X140910577Y-92682569D02*
X140743910Y-93182569D01*
D11*
X129495000Y-91957735D02*
X129530714Y-91993450D01*
X129530714Y-91993450D02*
X129637857Y-92029164D01*
X129637857Y-92029164D02*
X129709285Y-92029164D01*
X129709285Y-92029164D02*
X129816428Y-91993450D01*
X129816428Y-91993450D02*
X129887857Y-91922021D01*
X129887857Y-91922021D02*
X129923571Y-91850592D01*
X129923571Y-91850592D02*
X129959285Y-91707735D01*
X129959285Y-91707735D02*
X129959285Y-91600592D01*
X129959285Y-91600592D02*
X129923571Y-91457735D01*
X129923571Y-91457735D02*
X129887857Y-91386307D01*
X129887857Y-91386307D02*
X129816428Y-91314878D01*
X129816428Y-91314878D02*
X129709285Y-91279164D01*
X129709285Y-91279164D02*
X129637857Y-91279164D01*
X129637857Y-91279164D02*
X129530714Y-91314878D01*
X129530714Y-91314878D02*
X129495000Y-91350592D01*
X128780714Y-92029164D02*
X129209285Y-92029164D01*
X128995000Y-92029164D02*
X128995000Y-91279164D01*
X128995000Y-91279164D02*
X129066428Y-91386307D01*
X129066428Y-91386307D02*
X129137857Y-91457735D01*
X129137857Y-91457735D02*
X129209285Y-91493450D01*
X139135000Y-97669164D02*
X139385000Y-97312021D01*
X139563571Y-97669164D02*
X139563571Y-96919164D01*
X139563571Y-96919164D02*
X139277857Y-96919164D01*
X139277857Y-96919164D02*
X139206428Y-96954878D01*
X139206428Y-96954878D02*
X139170714Y-96990592D01*
X139170714Y-96990592D02*
X139135000Y-97062021D01*
X139135000Y-97062021D02*
X139135000Y-97169164D01*
X139135000Y-97169164D02*
X139170714Y-97240592D01*
X139170714Y-97240592D02*
X139206428Y-97276307D01*
X139206428Y-97276307D02*
X139277857Y-97312021D01*
X139277857Y-97312021D02*
X139563571Y-97312021D01*
X138849285Y-96990592D02*
X138813571Y-96954878D01*
X138813571Y-96954878D02*
X138742143Y-96919164D01*
X138742143Y-96919164D02*
X138563571Y-96919164D01*
X138563571Y-96919164D02*
X138492143Y-96954878D01*
X138492143Y-96954878D02*
X138456428Y-96990592D01*
X138456428Y-96990592D02*
X138420714Y-97062021D01*
X138420714Y-97062021D02*
X138420714Y-97133450D01*
X138420714Y-97133450D02*
X138456428Y-97240592D01*
X138456428Y-97240592D02*
X138885000Y-97669164D01*
X138885000Y-97669164D02*
X138420714Y-97669164D01*
X149213173Y-89300414D02*
X148748887Y-89300414D01*
X148748887Y-89300414D02*
X148998887Y-89586128D01*
X148998887Y-89586128D02*
X148891744Y-89586128D01*
X148891744Y-89586128D02*
X148820316Y-89621842D01*
X148820316Y-89621842D02*
X148784601Y-89657557D01*
X148784601Y-89657557D02*
X148748887Y-89728985D01*
X148748887Y-89728985D02*
X148748887Y-89907557D01*
X148748887Y-89907557D02*
X148784601Y-89978985D01*
X148784601Y-89978985D02*
X148820316Y-90014700D01*
X148820316Y-90014700D02*
X148891744Y-90050414D01*
X148891744Y-90050414D02*
X149106030Y-90050414D01*
X149106030Y-90050414D02*
X149177458Y-90014700D01*
X149177458Y-90014700D02*
X149213173Y-89978985D01*
X148498887Y-89550414D02*
X148320315Y-90050414D01*
X148320315Y-90050414D02*
X148141744Y-89550414D01*
X147927458Y-89300414D02*
X147463172Y-89300414D01*
X147463172Y-89300414D02*
X147713172Y-89586128D01*
X147713172Y-89586128D02*
X147606029Y-89586128D01*
X147606029Y-89586128D02*
X147534601Y-89621842D01*
X147534601Y-89621842D02*
X147498886Y-89657557D01*
X147498886Y-89657557D02*
X147463172Y-89728985D01*
X147463172Y-89728985D02*
X147463172Y-89907557D01*
X147463172Y-89907557D02*
X147498886Y-89978985D01*
X147498886Y-89978985D02*
X147534601Y-90014700D01*
X147534601Y-90014700D02*
X147606029Y-90050414D01*
X147606029Y-90050414D02*
X147820315Y-90050414D01*
X147820315Y-90050414D02*
X147891743Y-90014700D01*
X147891743Y-90014700D02*
X147927458Y-89978985D01*
G36*
X159366108Y-96824599D02*
G01*
X157994180Y-96824599D01*
X157994180Y-96296364D01*
X158105769Y-96296364D01*
X158106435Y-96305744D01*
X158105769Y-96315124D01*
X158107464Y-96320209D01*
X158107844Y-96325554D01*
X158112048Y-96333963D01*
X158115023Y-96342887D01*
X158118534Y-96346935D01*
X158120930Y-96351727D01*
X158128034Y-96357889D01*
X158134197Y-96364994D01*
X158138988Y-96367389D01*
X158143037Y-96370901D01*
X158156463Y-96376895D01*
X159156463Y-96710228D01*
X159170799Y-96713488D01*
X159199989Y-96711413D01*
X159226163Y-96698327D01*
X159245337Y-96676219D01*
X159254591Y-96648457D01*
X159252516Y-96619267D01*
X159239429Y-96593094D01*
X159217322Y-96573920D01*
X159203897Y-96567926D01*
X158417350Y-96305744D01*
X159203897Y-96043562D01*
X159217322Y-96037568D01*
X159239429Y-96018394D01*
X159252516Y-95992221D01*
X159254591Y-95963031D01*
X159245337Y-95935269D01*
X159226163Y-95913161D01*
X159199989Y-95900075D01*
X159170799Y-95898000D01*
X159156463Y-95901260D01*
X158156463Y-96234593D01*
X158143037Y-96240587D01*
X158138988Y-96244098D01*
X158134197Y-96246494D01*
X158128034Y-96253598D01*
X158120930Y-96259761D01*
X158118534Y-96264552D01*
X158115023Y-96268601D01*
X158112048Y-96277524D01*
X158107844Y-96285934D01*
X158107464Y-96291278D01*
X158105769Y-96296364D01*
X157994180Y-96296364D01*
X157994180Y-95624445D01*
X158106621Y-95624445D01*
X158106621Y-95653709D01*
X158117820Y-95680745D01*
X158138512Y-95701437D01*
X158165548Y-95712636D01*
X158180180Y-95714077D01*
X159180180Y-95714077D01*
X159194812Y-95712636D01*
X159221848Y-95701437D01*
X159242540Y-95680745D01*
X159253739Y-95653709D01*
X159253739Y-95624445D01*
X159242540Y-95597409D01*
X159221848Y-95576717D01*
X159194812Y-95565518D01*
X159180180Y-95564077D01*
X158180180Y-95564077D01*
X158165548Y-95565518D01*
X158138512Y-95576717D01*
X158117820Y-95597409D01*
X158106621Y-95624445D01*
X157994180Y-95624445D01*
X157994180Y-94587377D01*
X158105291Y-94587377D01*
X158109430Y-94616346D01*
X158124339Y-94641527D01*
X158135180Y-94651459D01*
X158637428Y-95028144D01*
X158577686Y-95087887D01*
X158180180Y-95087887D01*
X158165548Y-95089328D01*
X158138512Y-95100527D01*
X158117820Y-95121219D01*
X158106621Y-95148255D01*
X158106621Y-95177519D01*
X158117820Y-95204555D01*
X158138512Y-95225247D01*
X158165548Y-95236446D01*
X158180180Y-95237887D01*
X159180180Y-95237887D01*
X159194812Y-95236446D01*
X159221848Y-95225247D01*
X159242540Y-95204555D01*
X159253739Y-95177519D01*
X159253739Y-95148255D01*
X159242540Y-95121219D01*
X159221848Y-95100527D01*
X159194812Y-95089328D01*
X159180180Y-95087887D01*
X158789818Y-95087887D01*
X159233213Y-94644492D01*
X159242540Y-94633127D01*
X159253739Y-94606091D01*
X159253739Y-94576828D01*
X159242540Y-94549791D01*
X159221848Y-94529099D01*
X159194811Y-94517900D01*
X159165548Y-94517900D01*
X159138512Y-94529099D01*
X159127147Y-94538426D01*
X158744571Y-94921001D01*
X158225180Y-94531459D01*
X158212610Y-94523833D01*
X158184262Y-94516570D01*
X158155293Y-94520709D01*
X158130112Y-94535618D01*
X158112554Y-94559029D01*
X158105291Y-94587377D01*
X157994180Y-94587377D01*
X157994180Y-93386350D01*
X158106621Y-93386350D01*
X158106621Y-93415614D01*
X158117820Y-93442650D01*
X158138512Y-93463342D01*
X158165548Y-93474541D01*
X158180180Y-93475982D01*
X159180180Y-93475982D01*
X159194812Y-93474541D01*
X159221848Y-93463342D01*
X159242540Y-93442650D01*
X159253739Y-93415614D01*
X159253739Y-93386350D01*
X159242540Y-93359314D01*
X159221848Y-93338622D01*
X159194812Y-93327423D01*
X159180180Y-93325982D01*
X158180180Y-93325982D01*
X158165548Y-93327423D01*
X158138512Y-93338622D01*
X158117820Y-93359314D01*
X158106621Y-93386350D01*
X157994180Y-93386350D01*
X157994180Y-92358603D01*
X158105363Y-92358603D01*
X158106621Y-92363215D01*
X158106621Y-92367996D01*
X158110438Y-92377211D01*
X158113063Y-92386835D01*
X158115990Y-92390615D01*
X158117820Y-92395032D01*
X158124870Y-92402082D01*
X158130980Y-92409972D01*
X158137112Y-92414324D01*
X158138512Y-92415724D01*
X158139886Y-92416293D01*
X158142970Y-92418482D01*
X158897763Y-92849792D01*
X158180180Y-92849792D01*
X158165548Y-92851233D01*
X158138512Y-92862432D01*
X158117820Y-92883124D01*
X158106621Y-92910160D01*
X158106621Y-92939424D01*
X158117820Y-92966460D01*
X158138512Y-92987152D01*
X158165548Y-92998351D01*
X158180180Y-92999792D01*
X159180180Y-92999792D01*
X159183943Y-92999421D01*
X159185419Y-92999609D01*
X159187329Y-92999087D01*
X159194812Y-92998351D01*
X159204027Y-92994533D01*
X159213651Y-92991909D01*
X159217431Y-92988981D01*
X159221848Y-92987152D01*
X159228898Y-92980101D01*
X159236788Y-92973992D01*
X159239161Y-92969838D01*
X159242540Y-92966460D01*
X159246356Y-92957247D01*
X159251307Y-92948583D01*
X159251909Y-92943839D01*
X159253739Y-92939424D01*
X159253739Y-92929449D01*
X159254997Y-92919553D01*
X159253739Y-92914940D01*
X159253739Y-92910160D01*
X159249921Y-92900943D01*
X159247297Y-92891322D01*
X159244370Y-92887542D01*
X159242540Y-92883124D01*
X159235488Y-92876072D01*
X159229380Y-92868184D01*
X159223245Y-92863829D01*
X159221848Y-92862432D01*
X159220475Y-92861863D01*
X159217391Y-92859674D01*
X158462597Y-92428364D01*
X159180180Y-92428364D01*
X159194812Y-92426923D01*
X159221848Y-92415724D01*
X159242540Y-92395032D01*
X159253739Y-92367996D01*
X159253739Y-92338732D01*
X159242540Y-92311696D01*
X159221848Y-92291004D01*
X159194812Y-92279805D01*
X159180180Y-92278364D01*
X158180180Y-92278364D01*
X158176416Y-92278734D01*
X158174941Y-92278547D01*
X158173030Y-92279068D01*
X158165548Y-92279805D01*
X158156332Y-92283622D01*
X158146709Y-92286247D01*
X158142928Y-92289174D01*
X158138512Y-92291004D01*
X158131461Y-92298054D01*
X158123572Y-92304164D01*
X158121198Y-92308317D01*
X158117820Y-92311696D01*
X158114003Y-92320908D01*
X158109053Y-92329573D01*
X158108450Y-92334316D01*
X158106621Y-92338732D01*
X158106621Y-92348706D01*
X158105363Y-92358603D01*
X157994180Y-92358603D01*
X157994180Y-92167253D01*
X159366108Y-92167253D01*
X159366108Y-96824599D01*
G37*
X142105000Y-97679164D02*
X142355000Y-97322021D01*
X142533571Y-97679164D02*
X142533571Y-96929164D01*
X142533571Y-96929164D02*
X142247857Y-96929164D01*
X142247857Y-96929164D02*
X142176428Y-96964878D01*
X142176428Y-96964878D02*
X142140714Y-97000592D01*
X142140714Y-97000592D02*
X142105000Y-97072021D01*
X142105000Y-97072021D02*
X142105000Y-97179164D01*
X142105000Y-97179164D02*
X142140714Y-97250592D01*
X142140714Y-97250592D02*
X142176428Y-97286307D01*
X142176428Y-97286307D02*
X142247857Y-97322021D01*
X142247857Y-97322021D02*
X142533571Y-97322021D01*
X141855000Y-96929164D02*
X141390714Y-96929164D01*
X141390714Y-96929164D02*
X141640714Y-97214878D01*
X141640714Y-97214878D02*
X141533571Y-97214878D01*
X141533571Y-97214878D02*
X141462143Y-97250592D01*
X141462143Y-97250592D02*
X141426428Y-97286307D01*
X141426428Y-97286307D02*
X141390714Y-97357735D01*
X141390714Y-97357735D02*
X141390714Y-97536307D01*
X141390714Y-97536307D02*
X141426428Y-97607735D01*
X141426428Y-97607735D02*
X141462143Y-97643450D01*
X141462143Y-97643450D02*
X141533571Y-97679164D01*
X141533571Y-97679164D02*
X141747857Y-97679164D01*
X141747857Y-97679164D02*
X141819285Y-97643450D01*
X141819285Y-97643450D02*
X141855000Y-97607735D01*
X130095000Y-95899164D02*
X130345000Y-95542021D01*
X130523571Y-95899164D02*
X130523571Y-95149164D01*
X130523571Y-95149164D02*
X130237857Y-95149164D01*
X130237857Y-95149164D02*
X130166428Y-95184878D01*
X130166428Y-95184878D02*
X130130714Y-95220592D01*
X130130714Y-95220592D02*
X130095000Y-95292021D01*
X130095000Y-95292021D02*
X130095000Y-95399164D01*
X130095000Y-95399164D02*
X130130714Y-95470592D01*
X130130714Y-95470592D02*
X130166428Y-95506307D01*
X130166428Y-95506307D02*
X130237857Y-95542021D01*
X130237857Y-95542021D02*
X130523571Y-95542021D01*
X129452143Y-95399164D02*
X129452143Y-95899164D01*
X129630714Y-95113450D02*
X129809285Y-95649164D01*
X129809285Y-95649164D02*
X129345000Y-95649164D01*
X131685000Y-97157735D02*
X131720714Y-97193450D01*
X131720714Y-97193450D02*
X131827857Y-97229164D01*
X131827857Y-97229164D02*
X131899285Y-97229164D01*
X131899285Y-97229164D02*
X132006428Y-97193450D01*
X132006428Y-97193450D02*
X132077857Y-97122021D01*
X132077857Y-97122021D02*
X132113571Y-97050592D01*
X132113571Y-97050592D02*
X132149285Y-96907735D01*
X132149285Y-96907735D02*
X132149285Y-96800592D01*
X132149285Y-96800592D02*
X132113571Y-96657735D01*
X132113571Y-96657735D02*
X132077857Y-96586307D01*
X132077857Y-96586307D02*
X132006428Y-96514878D01*
X132006428Y-96514878D02*
X131899285Y-96479164D01*
X131899285Y-96479164D02*
X131827857Y-96479164D01*
X131827857Y-96479164D02*
X131720714Y-96514878D01*
X131720714Y-96514878D02*
X131685000Y-96550592D01*
X131399285Y-96550592D02*
X131363571Y-96514878D01*
X131363571Y-96514878D02*
X131292143Y-96479164D01*
X131292143Y-96479164D02*
X131113571Y-96479164D01*
X131113571Y-96479164D02*
X131042143Y-96514878D01*
X131042143Y-96514878D02*
X131006428Y-96550592D01*
X131006428Y-96550592D02*
X130970714Y-96622021D01*
X130970714Y-96622021D02*
X130970714Y-96693450D01*
X130970714Y-96693450D02*
X131006428Y-96800592D01*
X131006428Y-96800592D02*
X131435000Y-97229164D01*
X131435000Y-97229164D02*
X130970714Y-97229164D01*
X160705826Y-97835585D02*
X161170112Y-97835585D01*
X161170112Y-97835585D02*
X160920112Y-97549871D01*
X160920112Y-97549871D02*
X161027255Y-97549871D01*
X161027255Y-97549871D02*
X161098684Y-97514157D01*
X161098684Y-97514157D02*
X161134398Y-97478442D01*
X161134398Y-97478442D02*
X161170112Y-97407014D01*
X161170112Y-97407014D02*
X161170112Y-97228442D01*
X161170112Y-97228442D02*
X161134398Y-97157014D01*
X161134398Y-97157014D02*
X161098684Y-97121300D01*
X161098684Y-97121300D02*
X161027255Y-97085585D01*
X161027255Y-97085585D02*
X160812969Y-97085585D01*
X160812969Y-97085585D02*
X160741541Y-97121300D01*
X160741541Y-97121300D02*
X160705826Y-97157014D01*
X161420112Y-97585585D02*
X161598684Y-97085585D01*
X161598684Y-97085585D02*
X161777255Y-97585585D01*
X161991541Y-97835585D02*
X162455827Y-97835585D01*
X162455827Y-97835585D02*
X162205827Y-97549871D01*
X162205827Y-97549871D02*
X162312970Y-97549871D01*
X162312970Y-97549871D02*
X162384399Y-97514157D01*
X162384399Y-97514157D02*
X162420113Y-97478442D01*
X162420113Y-97478442D02*
X162455827Y-97407014D01*
X162455827Y-97407014D02*
X162455827Y-97228442D01*
X162455827Y-97228442D02*
X162420113Y-97157014D01*
X162420113Y-97157014D02*
X162384399Y-97121300D01*
X162384399Y-97121300D02*
X162312970Y-97085585D01*
X162312970Y-97085585D02*
X162098684Y-97085585D01*
X162098684Y-97085585D02*
X162027256Y-97121300D01*
X162027256Y-97121300D02*
X161991541Y-97157014D01*
G36*
X172698979Y-92850276D02*
G01*
X172770922Y-92922219D01*
X172805180Y-92990735D01*
X172805180Y-93145801D01*
X172770922Y-93214317D01*
X172698979Y-93286259D01*
X172537613Y-93326601D01*
X172222748Y-93326601D01*
X172061381Y-93286259D01*
X171989438Y-93214316D01*
X171955180Y-93145799D01*
X171955180Y-92990736D01*
X171989438Y-92922219D01*
X172061381Y-92850276D01*
X172222748Y-92809935D01*
X172537613Y-92809935D01*
X172698979Y-92850276D01*
G37*
G36*
X173066291Y-96777599D02*
G01*
X171694069Y-96777599D01*
X171694069Y-96249364D01*
X171805769Y-96249364D01*
X171806435Y-96258744D01*
X171805769Y-96268124D01*
X171807464Y-96273209D01*
X171807844Y-96278554D01*
X171812048Y-96286963D01*
X171815023Y-96295887D01*
X171818534Y-96299935D01*
X171820930Y-96304727D01*
X171828034Y-96310889D01*
X171834197Y-96317994D01*
X171838988Y-96320389D01*
X171843037Y-96323901D01*
X171856463Y-96329895D01*
X172856463Y-96663228D01*
X172870799Y-96666488D01*
X172899989Y-96664413D01*
X172926163Y-96651327D01*
X172945337Y-96629219D01*
X172954591Y-96601457D01*
X172952516Y-96572267D01*
X172939429Y-96546094D01*
X172917322Y-96526920D01*
X172903897Y-96520926D01*
X172117350Y-96258744D01*
X172903897Y-95996562D01*
X172917322Y-95990568D01*
X172939429Y-95971394D01*
X172952516Y-95945221D01*
X172954591Y-95916031D01*
X172945337Y-95888269D01*
X172926163Y-95866161D01*
X172899989Y-95853075D01*
X172870799Y-95851000D01*
X172856463Y-95854260D01*
X171856463Y-96187593D01*
X171843037Y-96193587D01*
X171838988Y-96197098D01*
X171834197Y-96199494D01*
X171828034Y-96206598D01*
X171820930Y-96212761D01*
X171818534Y-96217552D01*
X171815023Y-96221601D01*
X171812048Y-96230524D01*
X171807844Y-96238934D01*
X171807464Y-96244278D01*
X171805769Y-96249364D01*
X171694069Y-96249364D01*
X171694069Y-95577445D01*
X171806621Y-95577445D01*
X171806621Y-95606709D01*
X171817820Y-95633745D01*
X171838512Y-95654437D01*
X171865548Y-95665636D01*
X171880180Y-95667077D01*
X172880180Y-95667077D01*
X172894812Y-95665636D01*
X172921848Y-95654437D01*
X172942540Y-95633745D01*
X172953739Y-95606709D01*
X172953739Y-95577445D01*
X172942540Y-95550409D01*
X172921848Y-95529717D01*
X172894812Y-95518518D01*
X172880180Y-95517077D01*
X171880180Y-95517077D01*
X171865548Y-95518518D01*
X171838512Y-95529717D01*
X171817820Y-95550409D01*
X171806621Y-95577445D01*
X171694069Y-95577445D01*
X171694069Y-94540377D01*
X171805291Y-94540377D01*
X171809430Y-94569346D01*
X171824339Y-94594527D01*
X171835180Y-94604459D01*
X172337428Y-94981144D01*
X172277686Y-95040887D01*
X171880180Y-95040887D01*
X171865548Y-95042328D01*
X171838512Y-95053527D01*
X171817820Y-95074219D01*
X171806621Y-95101255D01*
X171806621Y-95130519D01*
X171817820Y-95157555D01*
X171838512Y-95178247D01*
X171865548Y-95189446D01*
X171880180Y-95190887D01*
X172880180Y-95190887D01*
X172894812Y-95189446D01*
X172921848Y-95178247D01*
X172942540Y-95157555D01*
X172953739Y-95130519D01*
X172953739Y-95101255D01*
X172942540Y-95074219D01*
X172921848Y-95053527D01*
X172894812Y-95042328D01*
X172880180Y-95040887D01*
X172489818Y-95040887D01*
X172933213Y-94597492D01*
X172942540Y-94586127D01*
X172953739Y-94559091D01*
X172953739Y-94529828D01*
X172942540Y-94502791D01*
X172921848Y-94482099D01*
X172894811Y-94470900D01*
X172865548Y-94470900D01*
X172838512Y-94482099D01*
X172827147Y-94491426D01*
X172444571Y-94874001D01*
X171925180Y-94484459D01*
X171912610Y-94476833D01*
X171884262Y-94469570D01*
X171855293Y-94473709D01*
X171830112Y-94488618D01*
X171812554Y-94512029D01*
X171805291Y-94540377D01*
X171694069Y-94540377D01*
X171694069Y-92973030D01*
X171805180Y-92973030D01*
X171805180Y-93163506D01*
X171806621Y-93178138D01*
X171807651Y-93180626D01*
X171807843Y-93183316D01*
X171813098Y-93197048D01*
X171860718Y-93292286D01*
X171864683Y-93298584D01*
X171865440Y-93300412D01*
X171867128Y-93302469D01*
X171868551Y-93304729D01*
X171870049Y-93306028D01*
X171874767Y-93311777D01*
X171970005Y-93407015D01*
X171981370Y-93416343D01*
X171986523Y-93418477D01*
X171991002Y-93421796D01*
X172004848Y-93426743D01*
X172195324Y-93474362D01*
X172197860Y-93474737D01*
X172198882Y-93475160D01*
X172204394Y-93475702D01*
X172209868Y-93476512D01*
X172210960Y-93476349D01*
X172213514Y-93476601D01*
X172546847Y-93476601D01*
X172549400Y-93476349D01*
X172550493Y-93476512D01*
X172555966Y-93475702D01*
X172561479Y-93475160D01*
X172562500Y-93474737D01*
X172565037Y-93474362D01*
X172755513Y-93426743D01*
X172769359Y-93421796D01*
X172773840Y-93418475D01*
X172778991Y-93416342D01*
X172790356Y-93407015D01*
X172885594Y-93311777D01*
X172890314Y-93306026D01*
X172891811Y-93304728D01*
X172893230Y-93302473D01*
X172894922Y-93300412D01*
X172895680Y-93298579D01*
X172899643Y-93292285D01*
X172947262Y-93197047D01*
X172952517Y-93183316D01*
X172952708Y-93180626D01*
X172953739Y-93178138D01*
X172955180Y-93163506D01*
X172955180Y-92973030D01*
X172953739Y-92958398D01*
X172952708Y-92955909D01*
X172952517Y-92953220D01*
X172947262Y-92939489D01*
X172899643Y-92844251D01*
X172895680Y-92837956D01*
X172894922Y-92836124D01*
X172893230Y-92834062D01*
X172891811Y-92831808D01*
X172890314Y-92830509D01*
X172885594Y-92824759D01*
X172790356Y-92729521D01*
X172778991Y-92720194D01*
X172773840Y-92718060D01*
X172769359Y-92714740D01*
X172755513Y-92709793D01*
X172565037Y-92662174D01*
X172562500Y-92661798D01*
X172561479Y-92661376D01*
X172555966Y-92660833D01*
X172550493Y-92660024D01*
X172549400Y-92660186D01*
X172546847Y-92659935D01*
X172213514Y-92659935D01*
X172210960Y-92660186D01*
X172209868Y-92660024D01*
X172204394Y-92660833D01*
X172198882Y-92661376D01*
X172197860Y-92661798D01*
X172195324Y-92662174D01*
X172004848Y-92709793D01*
X171991002Y-92714740D01*
X171986523Y-92718058D01*
X171981370Y-92720193D01*
X171970005Y-92729521D01*
X171874767Y-92824759D01*
X171870049Y-92830507D01*
X171868551Y-92831807D01*
X171867128Y-92834066D01*
X171865440Y-92836124D01*
X171864683Y-92837951D01*
X171860718Y-92844250D01*
X171813098Y-92939488D01*
X171807843Y-92953220D01*
X171807651Y-92955909D01*
X171806621Y-92958398D01*
X171805180Y-92973030D01*
X171694069Y-92973030D01*
X171694069Y-91925411D01*
X171805180Y-91925411D01*
X171805180Y-92115887D01*
X171806621Y-92130519D01*
X171807651Y-92133007D01*
X171807843Y-92135697D01*
X171813098Y-92149429D01*
X171860718Y-92244667D01*
X171864683Y-92250965D01*
X171865440Y-92252793D01*
X171867128Y-92254850D01*
X171868551Y-92257110D01*
X171870049Y-92258409D01*
X171874767Y-92264158D01*
X171922386Y-92311777D01*
X171928135Y-92316495D01*
X171929435Y-92317994D01*
X171931694Y-92319415D01*
X171933751Y-92321104D01*
X171935578Y-92321861D01*
X171941878Y-92325826D01*
X172037116Y-92373445D01*
X172050847Y-92378700D01*
X172053536Y-92378891D01*
X172056025Y-92379922D01*
X172070657Y-92381363D01*
X172880180Y-92381363D01*
X172894812Y-92379922D01*
X172921848Y-92368723D01*
X172942540Y-92348031D01*
X172953739Y-92320995D01*
X172953739Y-92291731D01*
X172942540Y-92264695D01*
X172921848Y-92244003D01*
X172894812Y-92232804D01*
X172880180Y-92231363D01*
X172088362Y-92231363D01*
X172019846Y-92197105D01*
X171989438Y-92166697D01*
X171955180Y-92098180D01*
X171955180Y-91943117D01*
X171989438Y-91874600D01*
X172019846Y-91844193D01*
X172088362Y-91809935D01*
X172880180Y-91809935D01*
X172894812Y-91808494D01*
X172921848Y-91797295D01*
X172942540Y-91776603D01*
X172953739Y-91749567D01*
X172953739Y-91720303D01*
X172942540Y-91693267D01*
X172921848Y-91672575D01*
X172894812Y-91661376D01*
X172880180Y-91659935D01*
X172070657Y-91659935D01*
X172056025Y-91661376D01*
X172053536Y-91662406D01*
X172050847Y-91662598D01*
X172037116Y-91667853D01*
X171941878Y-91715472D01*
X171935578Y-91719436D01*
X171933751Y-91720194D01*
X171931694Y-91721882D01*
X171929435Y-91723304D01*
X171928135Y-91724802D01*
X171922386Y-91729521D01*
X171874767Y-91777140D01*
X171870049Y-91782888D01*
X171868551Y-91784188D01*
X171867128Y-91786447D01*
X171865440Y-91788505D01*
X171864683Y-91790332D01*
X171860718Y-91796631D01*
X171813098Y-91891869D01*
X171807843Y-91905601D01*
X171807651Y-91908290D01*
X171806621Y-91910779D01*
X171805180Y-91925411D01*
X171694069Y-91925411D01*
X171694069Y-91101255D01*
X171806621Y-91101255D01*
X171806621Y-91130519D01*
X171817820Y-91157555D01*
X171838512Y-91178247D01*
X171865548Y-91189446D01*
X171880180Y-91190887D01*
X172805180Y-91190887D01*
X172805180Y-91401601D01*
X172806621Y-91416233D01*
X172817820Y-91443269D01*
X172838512Y-91463961D01*
X172865548Y-91475160D01*
X172894812Y-91475160D01*
X172921848Y-91463961D01*
X172942540Y-91443269D01*
X172953739Y-91416233D01*
X172955180Y-91401601D01*
X172955180Y-90830173D01*
X172953739Y-90815541D01*
X172942540Y-90788505D01*
X172921848Y-90767813D01*
X172894812Y-90756614D01*
X172865548Y-90756614D01*
X172838512Y-90767813D01*
X172817820Y-90788505D01*
X172806621Y-90815541D01*
X172805180Y-90830173D01*
X172805180Y-91040887D01*
X171880180Y-91040887D01*
X171865548Y-91042328D01*
X171838512Y-91053527D01*
X171817820Y-91074219D01*
X171806621Y-91101255D01*
X171694069Y-91101255D01*
X171694069Y-90645503D01*
X173066291Y-90645503D01*
X173066291Y-96777599D01*
G37*
X132631428Y-89519164D02*
X132631428Y-90126307D01*
X132631428Y-90126307D02*
X132595714Y-90197735D01*
X132595714Y-90197735D02*
X132560000Y-90233450D01*
X132560000Y-90233450D02*
X132488571Y-90269164D01*
X132488571Y-90269164D02*
X132345714Y-90269164D01*
X132345714Y-90269164D02*
X132274285Y-90233450D01*
X132274285Y-90233450D02*
X132238571Y-90197735D01*
X132238571Y-90197735D02*
X132202857Y-90126307D01*
X132202857Y-90126307D02*
X132202857Y-89519164D01*
X131452857Y-90269164D02*
X131881428Y-90269164D01*
X131667143Y-90269164D02*
X131667143Y-89519164D01*
X131667143Y-89519164D02*
X131738571Y-89626307D01*
X131738571Y-89626307D02*
X131810000Y-89697735D01*
X131810000Y-89697735D02*
X131881428Y-89733450D01*
D10*
%TO.C,C1*%
X130190000Y-91815580D02*
X130190000Y-91534420D01*
X131210000Y-91815580D02*
X131210000Y-91534420D01*
%TO.C,R2*%
X139155580Y-95700000D02*
X138874420Y-95700000D01*
X139155580Y-96720000D02*
X138874420Y-96720000D01*
D12*
%TO.C,J1*%
X147050000Y-90338000D02*
X149419000Y-90338000D01*
X147050000Y-91999000D02*
X147050000Y-90338000D01*
X147050000Y-96833000D02*
X147050000Y-94450000D01*
X147050000Y-96833000D02*
X158050000Y-96833000D01*
X158050000Y-90338000D02*
X155681000Y-90338000D01*
X158050000Y-91999000D02*
X158050000Y-90338000D01*
X158050000Y-96833000D02*
X158050000Y-94450000D01*
X156106000Y-89830000D02*
G75*
G02*
X155852000Y-89830000I-127000J0D01*
G01*
X155852000Y-89830000D02*
G75*
G02*
X156106000Y-89830000I127000J0D01*
G01*
D10*
%TO.C,R3*%
X141874420Y-95700000D02*
X142155580Y-95700000D01*
X141874420Y-96720000D02*
X142155580Y-96720000D01*
%TO.C,R4*%
X129829420Y-93970000D02*
X130110580Y-93970000D01*
X129829420Y-94990000D02*
X130110580Y-94990000D01*
%TO.C,C2*%
X133509420Y-96340000D02*
X133790580Y-96340000D01*
X133509420Y-97360000D02*
X133790580Y-97360000D01*
D13*
%TO.C,H1*%
X180779900Y-93780800D02*
G75*
G02*
X174280100Y-93780800I-3249900J0D01*
G01*
X174280100Y-93780800D02*
G75*
G02*
X180779900Y-93780800I3249900J0D01*
G01*
%TO.C,H2*%
X127623300Y-93780800D02*
G75*
G02*
X121123500Y-93780800I-3249900J0D01*
G01*
X121123500Y-93780800D02*
G75*
G02*
X127623300Y-93780800I3249900J0D01*
G01*
D12*
%TO.C,J2*%
X160750000Y-90291000D02*
X160750000Y-92674000D01*
X160750000Y-95125000D02*
X160750000Y-96786000D01*
X160750000Y-96786000D02*
X163119000Y-96786000D01*
X171750000Y-90291000D02*
X160750000Y-90291000D01*
X171750000Y-90291000D02*
X171750000Y-92674000D01*
X171750000Y-95125000D02*
X171750000Y-96786000D01*
X171750000Y-96786000D02*
X169381000Y-96786000D01*
X162948000Y-97294000D02*
G75*
G02*
X162694000Y-97294000I-127000J0D01*
G01*
X162694000Y-97294000D02*
G75*
G02*
X162948000Y-97294000I127000J0D01*
G01*
D11*
%TO.C,U1*%
X131625000Y-91525000D02*
X131625000Y-94775000D01*
X131625000Y-91525000D02*
X131850000Y-91525000D01*
X131625000Y-94775000D02*
X131850000Y-94775000D01*
X134875000Y-91525000D02*
X134650000Y-91525000D01*
X134875000Y-91525000D02*
X134875000Y-94775000D01*
X134875000Y-94775000D02*
X134650000Y-94775000D01*
D10*
X131850000Y-91050000D02*
X131520000Y-91290000D01*
X131520000Y-90810000D01*
X131850000Y-91050000D01*
G36*
X131850000Y-91050000D02*
G01*
X131520000Y-91290000D01*
X131520000Y-90810000D01*
X131850000Y-91050000D01*
G37*
%TD*%
%LPC*%
%TO.C,JP2*%
G36*
X135700000Y-90800000D02*
G01*
X137200000Y-90800000D01*
X137200000Y-91100000D01*
X135700000Y-91100000D01*
X135700000Y-90800000D01*
G37*
%TO.C,JP4*%
G36*
X143200000Y-90800000D02*
G01*
X144700000Y-90800000D01*
X144700000Y-91100000D01*
X143200000Y-91100000D01*
X143200000Y-90800000D01*
G37*
%TO.C,JP3*%
G36*
X140700000Y-90800000D02*
G01*
X142200000Y-90800000D01*
X142200000Y-91100000D01*
X140700000Y-91100000D01*
X140700000Y-90800000D01*
G37*
%TO.C,JP5*%
G36*
X145070000Y-96460000D02*
G01*
X146570000Y-96460000D01*
X146570000Y-96760000D01*
X145070000Y-96760000D01*
X145070000Y-96460000D01*
G37*
%TO.C,JP1*%
G36*
X138200000Y-90800000D02*
G01*
X139700000Y-90800000D01*
X139700000Y-91100000D01*
X138200000Y-91100000D01*
X138200000Y-90800000D01*
G37*
%TD*%
D14*
%TO.C,J3*%
X137400000Y-94300000D03*
D15*
X139400000Y-94300000D03*
X141400000Y-94300000D03*
X143400000Y-94300000D03*
%TD*%
D16*
%TO.C,R1*%
X114100000Y-91900000D03*
D17*
X114100000Y-95400000D03*
D18*
X118250000Y-97900000D03*
X119450000Y-89400000D03*
X182250000Y-89400000D03*
X183450000Y-97900000D03*
D17*
X187600000Y-91900000D03*
%TD*%
D19*
%TO.C,C1*%
X130700000Y-92450000D03*
X130700000Y-90900000D03*
%TD*%
D20*
%TO.C,R2*%
X139790000Y-96210000D03*
X138240000Y-96210000D03*
%TD*%
D21*
%TO.C,J1*%
X155300000Y-90500000D03*
X154800000Y-90500000D03*
X154300000Y-90500000D03*
X153800000Y-90500000D03*
X153300000Y-90500000D03*
X152800000Y-90500000D03*
X152300000Y-90500000D03*
X151800000Y-90500000D03*
X151300000Y-90500000D03*
X150800000Y-90500000D03*
X150300000Y-90500000D03*
X149800000Y-90500000D03*
D22*
X148000000Y-93224000D03*
X157100000Y-93224000D03*
%TD*%
D23*
%TO.C,JP2*%
X136450000Y-90300000D03*
D24*
X136450000Y-91600000D03*
%TD*%
D23*
%TO.C,JP4*%
X143950000Y-90300000D03*
D24*
X143950000Y-91600000D03*
%TD*%
D25*
%TO.C,R3*%
X141240000Y-96210000D03*
X142790000Y-96210000D03*
%TD*%
%TO.C,R4*%
X129195000Y-94480000D03*
X130745000Y-94480000D03*
%TD*%
%TO.C,C2*%
X132875000Y-96850000D03*
X134425000Y-96850000D03*
%TD*%
D26*
%TO.C,H1*%
X177530000Y-93780800D03*
D27*
X175916800Y-91637300D03*
D28*
X175923400Y-95950000D03*
D29*
X179163200Y-95944900D03*
D30*
X179149200Y-91606600D03*
%TD*%
D23*
%TO.C,JP3*%
X141450000Y-90300000D03*
D24*
X141450000Y-91600000D03*
%TD*%
D26*
%TO.C,H2*%
X124373400Y-93780800D03*
D27*
X122760200Y-91637300D03*
D28*
X122766800Y-95950000D03*
D29*
X126006600Y-95944900D03*
D30*
X125992600Y-91606600D03*
%TD*%
D21*
%TO.C,J2*%
X163500000Y-96624000D03*
X164000000Y-96624000D03*
X164500000Y-96624000D03*
X165000000Y-96624000D03*
X165500000Y-96624000D03*
X166000000Y-96624000D03*
X166500000Y-96624000D03*
X167000000Y-96624000D03*
X167500000Y-96624000D03*
X168000000Y-96624000D03*
X168500000Y-96624000D03*
X169000000Y-96624000D03*
D22*
X170800000Y-93900000D03*
D31*
X161630000Y-93800000D03*
%TD*%
D32*
%TO.C,U1*%
X132250000Y-91000000D03*
X132750000Y-91000000D03*
X133250000Y-91000000D03*
X133750000Y-91000000D03*
X134250000Y-91000000D03*
X134250000Y-95300000D03*
X133750000Y-95300000D03*
X133250000Y-95300000D03*
X132750000Y-95300000D03*
X132250000Y-95300000D03*
%TD*%
D23*
%TO.C,JP5*%
X145820000Y-95960000D03*
D24*
X145820000Y-97260000D03*
%TD*%
D23*
%TO.C,JP1*%
X138950000Y-90300000D03*
D24*
X138950000Y-91600000D03*
%TD*%
%LPD*%
M02*
