%TF.GenerationSoftware,KiCad,Pcbnew,9.0.1*%
%TF.CreationDate,2026-07-06T00:47:40-05:00*%
%TF.ProjectId,VikFader75,56696b46-6164-4657-9237-352e6b696361,rev?*%
%TF.SameCoordinates,Original*%
%TF.FileFunction,Copper,L2,Bot*%
%TF.FilePolarity,Positive*%
%FSLAX46Y46*%
G04 Gerber Fmt 4.6, Leading zero omitted, Abs format (unit mm)*
G04 Created by KiCad (PCBNEW 9.0.1) date 2026-07-06 00:47:40*
%MOMM*%
%LPD*%
G01*
G04 APERTURE LIST*
G04 Aperture macros list*
%AMRoundRect*
0 Rectangle with rounded corners*
0 $1 Rounding radius*
0 $2 $3 $4 $5 $6 $7 $8 $9 X,Y pos of 4 corners*
0 Add a 4 corners polygon primitive as box body*
4,1,4,$2,$3,$4,$5,$6,$7,$8,$9,$2,$3,0*
0 Add four circle primitives for the rounded corners*
1,1,$1+$1,$2,$3*
1,1,$1+$1,$4,$5*
1,1,$1+$1,$6,$7*
1,1,$1+$1,$8,$9*
0 Add four rect primitives between the rounded corners*
20,1,$1+$1,$2,$3,$4,$5,0*
20,1,$1+$1,$4,$5,$6,$7,0*
20,1,$1+$1,$6,$7,$8,$9,0*
20,1,$1+$1,$8,$9,$2,$3,0*%
%AMFreePoly0*
4,1,23,0.500000,-0.750000,0.000000,-0.750000,0.000000,-0.745722,-0.065263,-0.745722,-0.191342,-0.711940,-0.304381,-0.646677,-0.396677,-0.554381,-0.461940,-0.441342,-0.495722,-0.315263,-0.495722,-0.250000,-0.500000,-0.250000,-0.500000,0.250000,-0.495722,0.250000,-0.495722,0.315263,-0.461940,0.441342,-0.396677,0.554381,-0.304381,0.646677,-0.191342,0.711940,-0.065263,0.745722,0.000000,0.745722,
0.000000,0.750000,0.500000,0.750000,0.500000,-0.750000,0.500000,-0.750000,$1*%
%AMFreePoly1*
4,1,23,0.000000,0.745722,0.065263,0.745722,0.191342,0.711940,0.304381,0.646677,0.396677,0.554381,0.461940,0.441342,0.495722,0.315263,0.495722,0.250000,0.500000,0.250000,0.500000,-0.250000,0.495722,-0.250000,0.495722,-0.315263,0.461940,-0.441342,0.396677,-0.554381,0.304381,-0.646677,0.191342,-0.711940,0.065263,-0.745722,0.000000,-0.745722,0.000000,-0.750000,-0.500000,-0.750000,
-0.500000,0.750000,0.000000,0.750000,0.000000,0.745722,0.000000,0.745722,$1*%
%AMFreePoly2*
4,1,25,1.480000,1.677200,1.330000,1.127200,1.210000,0.847200,1.100000,0.627200,0.830000,0.207200,0.470000,-0.152800,0.130000,-0.432800,-0.260000,-0.652800,-0.670000,-0.812800,-0.990000,-0.902800,-1.140000,-0.932800,-1.370000,-0.962800,-1.520000,-0.972800,-1.520000,-0.172800,-1.220000,-0.142800,-0.820000,-0.022800,-0.560000,0.097200,-0.140000,0.357200,0.180000,0.697200,0.400000,1.037200,
0.540000,1.257200,0.670000,1.737200,0.719900,2.067200,1.519900,2.067200,1.480000,1.677200,1.480000,1.677200,$1*%
%AMFreePoly3*
4,1,25,-1.130000,0.936300,-0.580100,0.786300,-0.300000,0.666300,-0.080100,0.556300,0.340000,0.286300,0.700000,-0.073700,0.979900,-0.413700,1.200000,-0.803700,1.359900,-1.213700,1.449900,-1.533700,1.479900,-1.683700,1.510000,-1.913700,1.520000,-2.063600,0.719900,-2.063600,0.689900,-1.763600,0.570000,-1.363600,0.449900,-1.103700,0.189900,-0.683700,-0.150100,-0.363700,-0.490000,-0.143700,
-0.710000,-0.003700,-1.190000,0.126300,-1.520000,0.176300,-1.520000,0.976300,-1.130000,0.936300,-1.130000,0.936300,$1*%
%AMFreePoly4*
4,1,25,1.520100,0.172600,1.220100,0.142600,0.820100,0.022700,0.560100,-0.097400,0.140100,-0.357400,-0.179900,-0.697400,-0.399900,-1.037400,-0.539900,-1.257400,-0.669900,-1.737400,-0.719900,-2.067400,-1.519900,-2.067400,-1.479900,-1.677300,-1.329900,-1.127400,-1.209900,-0.847400,-1.099900,-0.627400,-0.829900,-0.207400,-0.469900,0.152600,-0.129900,0.432600,0.260100,0.652600,0.670100,0.812600,
0.990100,0.902600,1.140100,0.932600,1.370100,0.962600,1.520100,0.972600,1.520100,0.172600,1.520100,0.172600,$1*%
%AMFreePoly5*
4,1,25,-0.690000,1.763600,-0.570000,1.363600,-0.450000,1.103700,-0.190000,0.683700,0.150000,0.363700,0.490000,0.143700,0.710000,0.003700,1.190000,-0.126300,1.520000,-0.176300,1.520000,-0.976300,1.130000,-0.936300,0.580000,-0.786300,0.300000,-0.666300,0.080000,-0.556300,-0.340000,-0.286300,-0.700000,0.073700,-0.980000,0.413700,-1.200000,0.803700,-1.360000,1.213700,-1.450000,1.533700,
-1.480000,1.683700,-1.510000,1.913700,-1.520000,2.063600,-0.720000,2.063600,-0.690000,1.763600,-0.690000,1.763600,$1*%
G04 Aperture macros list end*
%TA.AperFunction,ComponentPad*%
%ADD10R,1.350000X1.350000*%
%TD*%
%TA.AperFunction,ComponentPad*%
%ADD11C,1.350000*%
%TD*%
%TA.AperFunction,ComponentPad*%
%ADD12R,1.800000X1.800000*%
%TD*%
%TA.AperFunction,ComponentPad*%
%ADD13C,1.800000*%
%TD*%
%TA.AperFunction,ComponentPad*%
%ADD14C,2.550000*%
%TD*%
%TA.AperFunction,SMDPad,CuDef*%
%ADD15RoundRect,0.225000X0.250000X-0.225000X0.250000X0.225000X-0.250000X0.225000X-0.250000X-0.225000X0*%
%TD*%
%TA.AperFunction,SMDPad,CuDef*%
%ADD16RoundRect,0.225000X0.225000X0.250000X-0.225000X0.250000X-0.225000X-0.250000X0.225000X-0.250000X0*%
%TD*%
%TA.AperFunction,SMDPad,CuDef*%
%ADD17R,0.280000X1.250000*%
%TD*%
%TA.AperFunction,SMDPad,CuDef*%
%ADD18R,1.800000X2.000000*%
%TD*%
%TA.AperFunction,SMDPad,CuDef*%
%ADD19FreePoly0,270.000000*%
%TD*%
%TA.AperFunction,SMDPad,CuDef*%
%ADD20FreePoly1,270.000000*%
%TD*%
%TA.AperFunction,SMDPad,CuDef*%
%ADD21RoundRect,0.225000X-0.225000X-0.250000X0.225000X-0.250000X0.225000X0.250000X-0.225000X0.250000X0*%
%TD*%
%TA.AperFunction,SMDPad,CuDef*%
%ADD22FreePoly2,180.000000*%
%TD*%
%TA.AperFunction,SMDPad,CuDef*%
%ADD23FreePoly3,180.000000*%
%TD*%
%TA.AperFunction,SMDPad,CuDef*%
%ADD24FreePoly4,180.000000*%
%TD*%
%TA.AperFunction,SMDPad,CuDef*%
%ADD25FreePoly5,180.000000*%
%TD*%
%TA.AperFunction,SMDPad,CuDef*%
%ADD26R,1.750000X1.650000*%
%TD*%
%TA.AperFunction,SMDPad,CuDef*%
%ADD27R,0.250000X1.100000*%
%TD*%
%TA.AperFunction,ViaPad*%
%ADD28C,0.600000*%
%TD*%
%TA.AperFunction,Conductor*%
%ADD29C,0.200000*%
%TD*%
G04 APERTURE END LIST*
D10*
%TO.P,J3,1,Pin_1*%
%TO.N,+3V3*%
X137400000Y-94300000D03*
D11*
%TO.P,J3,2,Pin_2*%
%TO.N,GND*%
X139400000Y-94300000D03*
%TO.P,J3,3,Pin_3*%
%TO.N,SDA*%
X141400000Y-94300000D03*
%TO.P,J3,4,Pin_4*%
%TO.N,SCL*%
X143400000Y-94300000D03*
%TD*%
D12*
%TO.P,R1,1*%
%TO.N,+3V3*%
X114100000Y-91900000D03*
D13*
%TO.P,R1,2*%
%TO.N,POT-OUT*%
X114100000Y-95400000D03*
D14*
%TO.P,R1,3*%
%TO.N,GND*%
X118250000Y-97900000D03*
X119450000Y-89400000D03*
X182250000Y-89400000D03*
X183450000Y-97900000D03*
D13*
X187600000Y-91900000D03*
%TD*%
D15*
%TO.P,C1,1*%
%TO.N,POT-IN*%
X130700000Y-92450000D03*
%TO.P,C1,2*%
%TO.N,GND*%
X130700000Y-90900000D03*
%TD*%
D16*
%TO.P,R2,1*%
%TO.N,Net-(JP5-A)*%
X139790000Y-96210000D03*
%TO.P,R2,2*%
%TO.N,SDA*%
X138240000Y-96210000D03*
%TD*%
D17*
%TO.P,J1,1,SCLK*%
%TO.N,SCLK*%
X155300000Y-90500000D03*
%TO.P,J1,2,MISO*%
%TO.N,MISO*%
X154800000Y-90500000D03*
%TO.P,J1,3,SPI_CS*%
%TO.N,CS*%
X154300000Y-90500000D03*
%TO.P,J1,4,GP_AD2*%
%TO.N,GP2*%
X153800000Y-90500000D03*
%TO.P,J1,5,MOSI*%
%TO.N,MOSI*%
X153300000Y-90500000D03*
%TO.P,J1,6,GP_AD1*%
%TO.N,GP1*%
X152800000Y-90500000D03*
%TO.P,J1,7,5V*%
%TO.N,5v*%
X152300000Y-90500000D03*
%TO.P,J1,8,RGB_DO*%
%TO.N,RGB*%
X151800000Y-90500000D03*
%TO.P,J1,9,SCL*%
%TO.N,SCL*%
X151300000Y-90500000D03*
%TO.P,J1,10,SDA*%
%TO.N,SDA*%
X150800000Y-90500000D03*
%TO.P,J1,11,GND*%
%TO.N,GND*%
X150300000Y-90500000D03*
%TO.P,J1,12,3V3*%
%TO.N,+3V3*%
X149800000Y-90500000D03*
D18*
%TO.P,J1,13*%
%TO.N,N/C*%
X148000000Y-93224000D03*
%TO.P,J1,14*%
X157100000Y-93224000D03*
%TD*%
D19*
%TO.P,JP2,1,A*%
%TO.N,Net-(JP1-A)*%
X136450000Y-90300000D03*
D20*
%TO.P,JP2,2,B*%
%TO.N,+3V3*%
X136450000Y-91600000D03*
%TD*%
D19*
%TO.P,JP4,1,A*%
%TO.N,Net-(JP1-A)*%
X143950000Y-90300000D03*
D20*
%TO.P,JP4,2,B*%
%TO.N,SCL*%
X143950000Y-91600000D03*
%TD*%
D21*
%TO.P,R3,1*%
%TO.N,Net-(JP5-A)*%
X141240000Y-96210000D03*
%TO.P,R3,2*%
%TO.N,SCL*%
X142790000Y-96210000D03*
%TD*%
%TO.P,R4,1*%
%TO.N,POT-OUT*%
X129195000Y-94480000D03*
%TO.P,R4,2*%
%TO.N,POT-IN*%
X130745000Y-94480000D03*
%TD*%
%TO.P,C2,1*%
%TO.N,+3V3*%
X132875000Y-96850000D03*
%TO.P,C2,2*%
%TO.N,GND*%
X134425000Y-96850000D03*
%TD*%
D22*
%TO.P,H1,1,1*%
%TO.N,unconnected-(H1-Pad1)*%
X175916800Y-91637300D03*
D23*
%TO.P,H1,2*%
%TO.N,N/C*%
X175923400Y-95950000D03*
D24*
%TO.P,H1,3*%
X179163200Y-95944900D03*
D25*
%TO.P,H1,4*%
X179149200Y-91606600D03*
%TD*%
D19*
%TO.P,JP3,1,A*%
%TO.N,Net-(JP1-A)*%
X141450000Y-90300000D03*
D20*
%TO.P,JP3,2,B*%
%TO.N,SDA*%
X141450000Y-91600000D03*
%TD*%
D22*
%TO.P,H2,1,1*%
%TO.N,unconnected-(H2-Pad1)*%
X122760200Y-91637300D03*
D23*
%TO.P,H2,2*%
%TO.N,N/C*%
X122766800Y-95950000D03*
D24*
%TO.P,H2,3*%
X126006600Y-95944900D03*
D25*
%TO.P,H2,4*%
X125992600Y-91606600D03*
%TD*%
D17*
%TO.P,J2,1,3V3*%
%TO.N,+3V3*%
X163500000Y-96624000D03*
%TO.P,J2,2,GND*%
%TO.N,GND*%
X164000000Y-96624000D03*
%TO.P,J2,3,SDA*%
%TO.N,SDA*%
X164500000Y-96624000D03*
%TO.P,J2,4,SCL*%
%TO.N,SCL*%
X165000000Y-96624000D03*
%TO.P,J2,5,RGB_DO*%
%TO.N,RGB*%
X165500000Y-96624000D03*
%TO.P,J2,6,5V*%
%TO.N,5v*%
X166000000Y-96624000D03*
%TO.P,J2,7,GP_AD1*%
%TO.N,GP1*%
X166500000Y-96624000D03*
%TO.P,J2,8,MOSI*%
%TO.N,MOSI*%
X167000000Y-96624000D03*
%TO.P,J2,9,GP_AD2*%
%TO.N,GP2*%
X167500000Y-96624000D03*
%TO.P,J2,10,SPI_CS*%
%TO.N,CS*%
X168000000Y-96624000D03*
%TO.P,J2,11,MISO*%
%TO.N,MISO*%
X168500000Y-96624000D03*
%TO.P,J2,12,SCLK*%
%TO.N,SCLK*%
X169000000Y-96624000D03*
D18*
%TO.P,J2,13*%
%TO.N,N/C*%
X170800000Y-93900000D03*
D26*
%TO.P,J2,14*%
X161630000Y-93800000D03*
%TD*%
D27*
%TO.P,U1,1,ADDR*%
%TO.N,Net-(JP1-A)*%
X132250000Y-91000000D03*
%TO.P,U1,2,ALERT/RDY*%
%TO.N,unconnected-(U1-ALERT{slash}RDY-Pad2)*%
X132750000Y-91000000D03*
%TO.P,U1,3,GND*%
%TO.N,GND*%
X133250000Y-91000000D03*
%TO.P,U1,4,AIN0*%
%TO.N,POT-IN*%
X133750000Y-91000000D03*
%TO.P,U1,5,AIN1*%
%TO.N,GND*%
X134250000Y-91000000D03*
%TO.P,U1,6,AIN2*%
X134250000Y-95300000D03*
%TO.P,U1,7,AIN3*%
X133750000Y-95300000D03*
%TO.P,U1,8,VDD*%
%TO.N,+3V3*%
X133250000Y-95300000D03*
%TO.P,U1,9,SDA*%
%TO.N,SDA*%
X132750000Y-95300000D03*
%TO.P,U1,10,SCL*%
%TO.N,SCL*%
X132250000Y-95300000D03*
%TD*%
D19*
%TO.P,JP5,1,A*%
%TO.N,Net-(JP5-A)*%
X145820000Y-95960000D03*
D20*
%TO.P,JP5,2,B*%
%TO.N,+3V3*%
X145820000Y-97260000D03*
%TD*%
D19*
%TO.P,JP1,1,A*%
%TO.N,Net-(JP1-A)*%
X138950000Y-90300000D03*
D20*
%TO.P,JP1,2,B*%
%TO.N,GND*%
X138950000Y-91600000D03*
%TD*%
D28*
%TO.N,GND*%
X133150000Y-91967582D03*
X135320000Y-96850000D03*
X134350000Y-92120000D03*
X138080000Y-92309000D03*
X150400000Y-92352328D03*
X129660000Y-90910000D03*
X163942126Y-95600604D03*
%TO.N,POT-IN*%
X129890000Y-92930000D03*
X131696820Y-93571000D03*
%TO.N,+3V3*%
X134871306Y-94689339D03*
X135910000Y-94030000D03*
X135920000Y-92710000D03*
%TO.N,SDA*%
X149690402Y-94135383D03*
X152440000Y-93890000D03*
X140419800Y-92484172D03*
%TO.N,SCL*%
X149684598Y-93335401D03*
X152212767Y-93030895D03*
X145110000Y-94464793D03*
X142900000Y-92600000D03*
%TD*%
D29*
%TO.N,GND*%
X130700000Y-90900000D02*
X129670000Y-90900000D01*
X134250000Y-91000000D02*
X134250000Y-92020000D01*
X164000000Y-95658478D02*
X164000000Y-96624000D01*
X129670000Y-90900000D02*
X129660000Y-90910000D01*
X134250000Y-95300000D02*
X134250000Y-96675000D01*
X150400000Y-92339008D02*
X150300000Y-92239008D01*
X133750000Y-95300000D02*
X133750000Y-96175000D01*
X150300000Y-92239008D02*
X150300000Y-90500000D01*
X163942126Y-95600604D02*
X164000000Y-95658478D01*
X134425000Y-96850000D02*
X135320000Y-96850000D01*
X133750000Y-96175000D02*
X134425000Y-96850000D01*
X134250000Y-92020000D02*
X134350000Y-92120000D01*
X134250000Y-96675000D02*
X134425000Y-96850000D01*
X133250000Y-91817190D02*
X133250000Y-91000000D01*
X133150000Y-91967582D02*
X133150000Y-91917190D01*
X138080000Y-91830000D02*
X138310000Y-91600000D01*
X133150000Y-91917190D02*
X133250000Y-91817190D01*
X150400000Y-92352328D02*
X150400000Y-92339008D01*
X138080000Y-92309000D02*
X138080000Y-91830000D01*
X138310000Y-91600000D02*
X138950000Y-91600000D01*
%TO.N,POT-IN*%
X130745000Y-94480000D02*
X130787820Y-94480000D01*
X133750000Y-91000000D02*
X133750000Y-92230000D01*
X133410000Y-92570000D02*
X130820000Y-92570000D01*
X130580000Y-94645000D02*
X130745000Y-94480000D01*
X130690000Y-92460000D02*
X130700000Y-92450000D01*
X130820000Y-92570000D02*
X130700000Y-92450000D01*
X129890000Y-92930000D02*
X130360000Y-92460000D01*
X130787820Y-94480000D02*
X131696820Y-93571000D01*
X130360000Y-92460000D02*
X130690000Y-92460000D01*
X133750000Y-92230000D02*
X133410000Y-92570000D01*
%TO.N,+3V3*%
X135910000Y-92700000D02*
X135910000Y-92536000D01*
X132425000Y-96850000D02*
X131824000Y-96249000D01*
X136783000Y-92909000D02*
X139996100Y-92909000D01*
X140287100Y-93200000D02*
X140552627Y-93200000D01*
X132686857Y-93539000D02*
X133991000Y-93539000D01*
X154714727Y-97517000D02*
X159903000Y-97517000D01*
X135920000Y-92710000D02*
X135910000Y-92700000D01*
X136450000Y-92236000D02*
X136280000Y-92406000D01*
X145820000Y-97260000D02*
X145693000Y-97387000D01*
X145693000Y-97387000D02*
X137568967Y-97387000D01*
X141970373Y-92923000D02*
X142247373Y-93200000D01*
X114100000Y-91900000D02*
X120560000Y-91900000D01*
X137400000Y-94300000D02*
X136180000Y-94300000D01*
X136280000Y-92406000D02*
X136783000Y-92909000D01*
X142247373Y-93200000D02*
X143932900Y-93200000D01*
X129501000Y-93531000D02*
X130170000Y-93531000D01*
X131824000Y-96249000D02*
X131824000Y-94401857D01*
X135780000Y-92406000D02*
X136280000Y-92406000D01*
X134421000Y-92971000D02*
X134490000Y-93040000D01*
X160796000Y-96624000D02*
X163500000Y-96624000D01*
X135910000Y-92536000D02*
X135780000Y-92406000D01*
X134490000Y-93040000D02*
X135124000Y-92406000D01*
X149800000Y-92602273D02*
X154714727Y-97517000D01*
X144223900Y-92909000D02*
X145123900Y-92909000D01*
X136180000Y-94300000D02*
X135910000Y-94030000D01*
X137568967Y-97387000D02*
X134871306Y-94689339D01*
X130500000Y-93201000D02*
X131174110Y-93201000D01*
X132875000Y-96850000D02*
X132425000Y-96850000D01*
X126040000Y-90070000D02*
X129501000Y-93531000D01*
X136067248Y-91600000D02*
X136450000Y-91600000D01*
X131404110Y-92971000D02*
X134421000Y-92971000D01*
X131174110Y-93201000D02*
X131404110Y-92971000D01*
X140829627Y-92923000D02*
X141970373Y-92923000D01*
X145123900Y-92909000D02*
X147532900Y-90500000D01*
X131824000Y-94401857D02*
X132686857Y-93539000D01*
X140552627Y-93200000D02*
X140829627Y-92923000D01*
X120560000Y-91900000D02*
X122390000Y-90070000D01*
X135124000Y-92406000D02*
X135780000Y-92406000D01*
X122390000Y-90070000D02*
X126040000Y-90070000D01*
X149800000Y-90500000D02*
X149800000Y-92602273D01*
X139996100Y-92909000D02*
X140287100Y-93200000D01*
X136450000Y-91600000D02*
X136450000Y-92236000D01*
X159903000Y-97517000D02*
X160796000Y-96624000D01*
X133250000Y-95300000D02*
X133250000Y-96475000D01*
X147532900Y-90500000D02*
X149800000Y-90500000D01*
X133250000Y-96475000D02*
X132875000Y-96850000D01*
X133991000Y-93539000D02*
X134490000Y-93040000D01*
X143932900Y-93200000D02*
X144223900Y-92909000D01*
X130170000Y-93531000D02*
X130500000Y-93201000D01*
%TO.N,SDA*%
X143980000Y-95360000D02*
X141280000Y-95360000D01*
X132750000Y-95300000D02*
X132750000Y-94640000D01*
X164559000Y-96565000D02*
X164500000Y-96624000D01*
X151690700Y-93719300D02*
X155087400Y-97116000D01*
X135161000Y-93711000D02*
X135309000Y-93859000D01*
X135661057Y-94631000D02*
X135771000Y-94631000D01*
X138240000Y-95410000D02*
X138190000Y-95360000D01*
X149690402Y-94135383D02*
X149347892Y-94477892D01*
X162603000Y-96091200D02*
X163732200Y-94962000D01*
X141400000Y-95240000D02*
X141280000Y-95360000D01*
X155087400Y-97116000D02*
X159056600Y-97116000D01*
X149300784Y-94525000D02*
X146945000Y-94525000D01*
X140300000Y-92364372D02*
X140300000Y-91746000D01*
X134953200Y-93711000D02*
X135161000Y-93711000D01*
X164210943Y-94962000D02*
X164559000Y-95310057D01*
X146945000Y-94525000D02*
X146131000Y-93711000D01*
X135309000Y-93859000D02*
X135309000Y-94278943D01*
X151780000Y-93630000D02*
X151690700Y-93719300D01*
X138190000Y-95360000D02*
X141280000Y-95360000D01*
X150800000Y-91903800D02*
X151000000Y-92103800D01*
X150800000Y-90500000D02*
X150800000Y-91903800D01*
X134323200Y-94341000D02*
X134953200Y-93711000D01*
X151000000Y-93028600D02*
X151690700Y-93719300D01*
X135771000Y-94631000D02*
X136500000Y-95360000D01*
X163732200Y-94962000D02*
X164210943Y-94962000D01*
X152180000Y-93630000D02*
X151780000Y-93630000D01*
X138240000Y-96210000D02*
X138240000Y-95410000D01*
X152440000Y-93890000D02*
X152180000Y-93630000D01*
X132750000Y-94640000D02*
X133049000Y-94341000D01*
X140300000Y-91746000D02*
X140446000Y-91600000D01*
X140446000Y-91600000D02*
X141450000Y-91600000D01*
X144629000Y-93711000D02*
X144510000Y-93830000D01*
X149347892Y-94477892D02*
X149300784Y-94525000D01*
X135309000Y-94278943D02*
X135661057Y-94631000D01*
X164559000Y-95310057D02*
X164559000Y-96565000D01*
X146131000Y-93711000D02*
X144629000Y-93711000D01*
X160081400Y-96091200D02*
X162603000Y-96091200D01*
X144510000Y-94830000D02*
X143980000Y-95360000D01*
X140419800Y-92484172D02*
X140300000Y-92364372D01*
X149347892Y-94477892D02*
X149300785Y-94525000D01*
X151000000Y-92103800D02*
X151000000Y-93028600D01*
X141400000Y-94300000D02*
X141400000Y-95240000D01*
X144510000Y-93830000D02*
X144510000Y-94830000D01*
X133049000Y-94341000D02*
X134323200Y-94341000D01*
X136500000Y-95360000D02*
X138190000Y-95360000D01*
X159056600Y-97116000D02*
X160081400Y-96091200D01*
%TO.N,SCL*%
X140220000Y-93700000D02*
X140619727Y-93700000D01*
X153894000Y-94430700D02*
X153894000Y-95355500D01*
X142780273Y-94300000D02*
X143400000Y-94300000D01*
X145290000Y-93310000D02*
X144390000Y-93310000D01*
X132250000Y-94542957D02*
X132852957Y-93940000D01*
X151300000Y-91836700D02*
X151851650Y-92388350D01*
X142900000Y-92600000D02*
X142750000Y-92450000D01*
X159915300Y-95690200D02*
X162436900Y-95690200D01*
X149201000Y-92851803D02*
X149201000Y-91923000D01*
X139830000Y-93310000D02*
X140220000Y-93700000D01*
X163566100Y-94561000D02*
X164491000Y-94561000D01*
X155253500Y-96715000D02*
X158890500Y-96715000D01*
X134157100Y-93940000D02*
X134787100Y-93310000D01*
X146770000Y-91830000D02*
X145290000Y-93310000D01*
X140619727Y-93700000D02*
X140995727Y-93324000D01*
X165000000Y-95070000D02*
X165000000Y-96624000D01*
X132852957Y-93940000D02*
X134157100Y-93940000D01*
X149201000Y-91923000D02*
X149108000Y-91830000D01*
X149684598Y-93335401D02*
X149201000Y-92851803D01*
X144390000Y-93310000D02*
X143400000Y-94300000D01*
X158890500Y-96715000D02*
X159915300Y-95690200D01*
X141804273Y-93324000D02*
X142780273Y-94300000D01*
X143978530Y-96210000D02*
X142790000Y-96210000D01*
X151851650Y-92388350D02*
X153196650Y-93733350D01*
X142750000Y-91866000D02*
X143016000Y-91600000D01*
X140995727Y-93324000D02*
X141804273Y-93324000D01*
X164491000Y-94561000D02*
X165000000Y-95070000D01*
X145110000Y-94464793D02*
X145110000Y-95078530D01*
X162436900Y-95690200D02*
X163566100Y-94561000D01*
X143016000Y-91600000D02*
X143950000Y-91600000D01*
X145110000Y-95078530D02*
X143978530Y-96210000D01*
X134787100Y-93310000D02*
X139830000Y-93310000D01*
X153196650Y-93733350D02*
X153894000Y-94430700D01*
X142750000Y-92450000D02*
X142750000Y-91866000D01*
X153894000Y-95355500D02*
X155253500Y-96715000D01*
X132250000Y-95300000D02*
X132250000Y-94542957D01*
X149108000Y-91830000D02*
X146770000Y-91830000D01*
X151300000Y-90500000D02*
X151300000Y-91836700D01*
%TO.N,POT-OUT*%
X114100000Y-95400000D02*
X119850000Y-95400000D01*
X121940000Y-97490000D02*
X126460000Y-97490000D01*
X129195000Y-94755000D02*
X129195000Y-94480000D01*
X119850000Y-95400000D02*
X121940000Y-97490000D01*
X126460000Y-97490000D02*
X129195000Y-94755000D01*
%TO.N,MOSI*%
X154472700Y-92741000D02*
X154478100Y-92741000D01*
X153300000Y-91568300D02*
X154472700Y-92741000D01*
X155498000Y-94691100D02*
X155917900Y-95111000D01*
X153300000Y-90500000D02*
X153300000Y-91568300D01*
X154478100Y-92741000D02*
X155498000Y-93760900D01*
X167000000Y-92800000D02*
X167000000Y-96624000D01*
X158761000Y-92456100D02*
X159862100Y-91355000D01*
X159862100Y-91355000D02*
X165555000Y-91355000D01*
X165555000Y-91355000D02*
X167000000Y-92800000D01*
X155498000Y-93760900D02*
X155498000Y-94691100D01*
X158761000Y-94576100D02*
X158761000Y-92456100D01*
X155917900Y-95111000D02*
X158226100Y-95111000D01*
X158226100Y-95111000D02*
X158761000Y-94576100D01*
%TO.N,MISO*%
X166112000Y-90152000D02*
X168500000Y-92540000D01*
X154800000Y-91367000D02*
X154923000Y-91490000D01*
X156278000Y-90152000D02*
X166112000Y-90152000D01*
X154800000Y-90500000D02*
X154800000Y-91367000D01*
X168500000Y-92540000D02*
X168500000Y-96624000D01*
X154923000Y-91490000D02*
X155660000Y-91490000D01*
X155800000Y-90630000D02*
X156278000Y-90152000D01*
X155660000Y-91490000D02*
X155800000Y-91350000D01*
X155800000Y-91350000D02*
X155800000Y-90630000D01*
%TO.N,CS*%
X154300000Y-90500000D02*
X154300000Y-91434100D01*
X154300000Y-91434100D02*
X154756900Y-91891000D01*
X165923000Y-90553000D02*
X168000000Y-92630000D01*
X154756900Y-91891000D02*
X155826100Y-91891000D01*
X155826100Y-91891000D02*
X156201000Y-91516100D01*
X168000000Y-92630000D02*
X168000000Y-96624000D01*
X156444100Y-90553000D02*
X165923000Y-90553000D01*
X156201000Y-91516100D02*
X156201000Y-90796100D01*
X156201000Y-90796100D02*
X156444100Y-90553000D01*
%TO.N,RGB*%
X154295000Y-95189400D02*
X155419600Y-96314000D01*
X158724400Y-96314000D02*
X159749200Y-95289200D01*
X155419600Y-96314000D02*
X158724400Y-96314000D01*
X163400000Y-94160000D02*
X164670000Y-94160000D01*
X159749200Y-95289200D02*
X162270800Y-95289200D01*
X162270800Y-95289200D02*
X163400000Y-94160000D01*
X154295000Y-94264600D02*
X154295000Y-95189400D01*
X151800000Y-91769600D02*
X154295000Y-94264600D01*
X164670000Y-94160000D02*
X165500000Y-94990000D01*
X151800000Y-90500000D02*
X151800000Y-91769600D01*
X165500000Y-94990000D02*
X165500000Y-96624000D01*
%TO.N,GP1*%
X165306000Y-91756000D02*
X166500000Y-92950000D01*
X159162000Y-92622200D02*
X160028200Y-91756000D01*
X160028200Y-91756000D02*
X165306000Y-91756000D01*
X155097000Y-94857200D02*
X155751800Y-95512000D01*
X155751800Y-95512000D02*
X158392200Y-95512000D01*
X166500000Y-92950000D02*
X166500000Y-96624000D01*
X158392200Y-95512000D02*
X159162000Y-94742200D01*
X159162000Y-94742200D02*
X159162000Y-92622200D01*
X155097000Y-93927000D02*
X155097000Y-94857200D01*
X154312000Y-93142000D02*
X155097000Y-93927000D01*
X154306600Y-93142000D02*
X154312000Y-93142000D01*
X152800000Y-90500000D02*
X152800000Y-91635400D01*
X152800000Y-91635400D02*
X154306600Y-93142000D01*
%TO.N,SCLK*%
X166301000Y-89751000D02*
X169000000Y-92450000D01*
X155499000Y-89751000D02*
X166301000Y-89751000D01*
X169000000Y-92450000D02*
X169000000Y-96624000D01*
X155300000Y-89950000D02*
X155499000Y-89751000D01*
X155300000Y-90500000D02*
X155300000Y-89950000D01*
%TO.N,5v*%
X154696000Y-94093100D02*
X154696000Y-95023300D01*
X165107000Y-92157000D02*
X166000000Y-93050000D01*
X154356050Y-93758550D02*
X154361450Y-93758550D01*
X158558300Y-95913000D02*
X159563000Y-94908300D01*
X154361450Y-93758550D02*
X154696000Y-94093100D01*
X152300000Y-91702500D02*
X154356050Y-93758550D01*
X159563000Y-92788300D02*
X160194300Y-92157000D01*
X152300000Y-90500000D02*
X152300000Y-91702500D01*
X154696000Y-95023300D02*
X155585700Y-95913000D01*
X159563000Y-94908300D02*
X159563000Y-92788300D01*
X166000000Y-93050000D02*
X166000000Y-96624000D01*
X160194300Y-92157000D02*
X165107000Y-92157000D01*
X155585700Y-95913000D02*
X158558300Y-95913000D01*
%TO.N,GP2*%
X158060000Y-94710000D02*
X158360000Y-94410000D01*
X153800000Y-90500000D02*
X153800000Y-91501200D01*
X158360000Y-92290000D02*
X159696000Y-90954000D01*
X156084000Y-94710000D02*
X158060000Y-94710000D01*
X154638800Y-92340000D02*
X154644200Y-92340000D01*
X165721100Y-90954000D02*
X167401000Y-92633900D01*
X167401000Y-92641000D02*
X167500000Y-92740000D01*
X155899000Y-93594800D02*
X155899000Y-94525000D01*
X158360000Y-94410000D02*
X158360000Y-92290000D01*
X154644200Y-92340000D02*
X155899000Y-93594800D01*
X167500000Y-92740000D02*
X167500000Y-96624000D01*
X167401000Y-92633900D02*
X167401000Y-92641000D01*
X159696000Y-90954000D02*
X165721100Y-90954000D01*
X155899000Y-94525000D02*
X156084000Y-94710000D01*
X153800000Y-91501200D02*
X154638800Y-92340000D01*
%TO.N,Net-(JP1-A)*%
X136450000Y-90300000D02*
X138950000Y-90300000D01*
X141450000Y-90300000D02*
X143950000Y-90300000D01*
X132324000Y-90149000D02*
X136299000Y-90149000D01*
X136299000Y-90149000D02*
X136450000Y-90300000D01*
X132250000Y-91000000D02*
X132250000Y-90223000D01*
X132250000Y-90223000D02*
X132324000Y-90149000D01*
X138950000Y-90300000D02*
X141450000Y-90300000D01*
%TO.N,Net-(JP5-A)*%
X144039000Y-96986000D02*
X142016000Y-96986000D01*
X145065000Y-95960000D02*
X144039000Y-96986000D01*
X141240000Y-96210000D02*
X139790000Y-96210000D01*
X142016000Y-96986000D02*
X141240000Y-96210000D01*
X145820000Y-95960000D02*
X145065000Y-95960000D01*
%TD*%
%TA.AperFunction,Conductor*%
%TO.N,GND*%
G36*
X117641148Y-96020185D02*
G01*
X117686903Y-96072989D01*
X117696847Y-96142147D01*
X117667822Y-96205703D01*
X117621562Y-96239061D01*
X117463259Y-96304632D01*
X117463249Y-96304636D01*
X117261747Y-96420973D01*
X117184104Y-96480550D01*
X117184104Y-96480551D01*
X117849438Y-97145884D01*
X117847374Y-97146740D01*
X117708156Y-97239762D01*
X117589762Y-97358156D01*
X117496740Y-97497374D01*
X117495884Y-97499438D01*
X116830551Y-96834104D01*
X116830550Y-96834104D01*
X116770973Y-96911747D01*
X116654636Y-97113249D01*
X116654632Y-97113259D01*
X116565592Y-97328220D01*
X116504320Y-97556893D01*
X116502493Y-97556403D01*
X116473690Y-97611549D01*
X116412995Y-97646159D01*
X116384406Y-97649500D01*
X113674500Y-97649500D01*
X113607461Y-97629815D01*
X113561706Y-97577011D01*
X113550500Y-97525500D01*
X113550500Y-97235382D01*
X113823500Y-97235382D01*
X113823500Y-97376500D01*
X114392320Y-97376500D01*
X114401558Y-97367261D01*
X114753697Y-97367261D01*
X114762936Y-97376500D01*
X115454394Y-97376500D01*
X115463633Y-97367261D01*
X115815771Y-97367261D01*
X115825010Y-97376500D01*
X116270025Y-97376500D01*
X116303051Y-97253246D01*
X116304144Y-97249417D01*
X116304381Y-97248634D01*
X116305645Y-97244696D01*
X116308518Y-97236233D01*
X116309937Y-97232272D01*
X116310226Y-97231507D01*
X116311664Y-97227877D01*
X116333530Y-97175084D01*
X116170739Y-97012293D01*
X115815771Y-97367261D01*
X115463633Y-97367261D01*
X115108665Y-97012293D01*
X114753697Y-97367261D01*
X114401558Y-97367261D01*
X114107797Y-97073500D01*
X113985382Y-97073500D01*
X113823500Y-97235382D01*
X113550500Y-97235382D01*
X113550500Y-97042293D01*
X114428729Y-97042293D01*
X114577628Y-97191192D01*
X114896386Y-96872433D01*
X114756767Y-96943574D01*
X114752363Y-96945710D01*
X114751471Y-96946121D01*
X114747034Y-96948061D01*
X114737124Y-96952166D01*
X114732614Y-96953932D01*
X114731693Y-96954272D01*
X114727066Y-96955877D01*
X114507210Y-97027311D01*
X114502608Y-97028709D01*
X114501663Y-97028976D01*
X114496887Y-97030223D01*
X114486458Y-97032726D01*
X114481643Y-97033781D01*
X114480680Y-97033972D01*
X114475954Y-97034814D01*
X114428729Y-97042293D01*
X113550500Y-97042293D01*
X113550500Y-96864701D01*
X113558862Y-96836224D01*
X115284734Y-96836224D01*
X115639702Y-97191192D01*
X115994670Y-96836224D01*
X116346808Y-96836224D01*
X116443512Y-96932928D01*
X116536783Y-96771378D01*
X116538857Y-96767917D01*
X116539289Y-96767222D01*
X116541500Y-96763791D01*
X116546466Y-96756359D01*
X116548788Y-96753005D01*
X116549264Y-96752341D01*
X116551668Y-96749101D01*
X116651454Y-96619055D01*
X116691383Y-96585179D01*
X116700907Y-96580089D01*
X116751243Y-96565717D01*
X116784084Y-96563564D01*
X116701776Y-96481255D01*
X116346808Y-96836224D01*
X115994670Y-96836224D01*
X115639702Y-96481256D01*
X115284734Y-96836224D01*
X113558862Y-96836224D01*
X113570185Y-96797662D01*
X113622989Y-96751907D01*
X113692147Y-96741963D01*
X113712818Y-96746770D01*
X113772049Y-96766015D01*
X113989778Y-96800500D01*
X113989779Y-96800500D01*
X114210221Y-96800500D01*
X114210222Y-96800500D01*
X114427951Y-96766015D01*
X114637606Y-96697895D01*
X114834022Y-96597815D01*
X115012365Y-96468242D01*
X115168242Y-96312365D01*
X115173457Y-96305187D01*
X115815771Y-96305187D01*
X116170739Y-96660155D01*
X116525707Y-96305187D01*
X116494020Y-96273500D01*
X115847458Y-96273500D01*
X115815771Y-96305187D01*
X115173457Y-96305187D01*
X115297815Y-96134022D01*
X115317729Y-96094939D01*
X115331352Y-96068204D01*
X115379326Y-96017409D01*
X115441836Y-96000500D01*
X117574109Y-96000500D01*
X117641148Y-96020185D01*
G37*
%TD.AperFunction*%
%TA.AperFunction,Conductor*%
G36*
X119616942Y-96020185D02*
G01*
X119637584Y-96036819D01*
X121038584Y-97437819D01*
X121072069Y-97499142D01*
X121067085Y-97568834D01*
X121025213Y-97624767D01*
X120959749Y-97649184D01*
X120950903Y-97649500D01*
X120115594Y-97649500D01*
X120048555Y-97629815D01*
X120002800Y-97577011D01*
X119996259Y-97556737D01*
X119995680Y-97556893D01*
X119934407Y-97328220D01*
X119897422Y-97238931D01*
X120192397Y-97238931D01*
X120194355Y-97244696D01*
X120195619Y-97248634D01*
X120195856Y-97249417D01*
X120196949Y-97253246D01*
X120229975Y-97376500D01*
X120591185Y-97376500D01*
X120323007Y-97108322D01*
X120192397Y-97238931D01*
X119897422Y-97238931D01*
X119845367Y-97113259D01*
X119845363Y-97113249D01*
X119729029Y-96911752D01*
X119669447Y-96834104D01*
X119669446Y-96834104D01*
X119004115Y-97499438D01*
X119003260Y-97497374D01*
X118910238Y-97358156D01*
X118791844Y-97239762D01*
X118652626Y-97146740D01*
X118650561Y-97145884D01*
X119113764Y-96682681D01*
X119897366Y-96682681D01*
X119948331Y-96749099D01*
X119950787Y-96752412D01*
X119951263Y-96753077D01*
X119953534Y-96756359D01*
X119958500Y-96763791D01*
X119960711Y-96767222D01*
X119961143Y-96767917D01*
X119963217Y-96771378D01*
X120084024Y-96980623D01*
X120086019Y-96984215D01*
X120086404Y-96984936D01*
X120088232Y-96988495D01*
X120089045Y-96990145D01*
X120146938Y-96932253D01*
X119897366Y-96682681D01*
X119113764Y-96682681D01*
X119218561Y-96577884D01*
X119791370Y-96577884D01*
X119793048Y-96578363D01*
X119791970Y-96577285D01*
X119791370Y-96577884D01*
X119218561Y-96577884D01*
X119315894Y-96480551D01*
X119238248Y-96420970D01*
X119127361Y-96356950D01*
X119571635Y-96356950D01*
X119584282Y-96401244D01*
X119586225Y-96430891D01*
X119615901Y-96401216D01*
X119571635Y-96356950D01*
X119127361Y-96356950D01*
X119036750Y-96304636D01*
X119036740Y-96304632D01*
X118878438Y-96239061D01*
X118824035Y-96195220D01*
X118801970Y-96128926D01*
X118819249Y-96061227D01*
X118870386Y-96013616D01*
X118925891Y-96000500D01*
X119549903Y-96000500D01*
X119616942Y-96020185D01*
G37*
%TD.AperFunction*%
%TA.AperFunction,Conductor*%
G36*
X135486456Y-96166984D02*
G01*
X135526532Y-96193800D01*
X136150511Y-96817780D01*
X136770550Y-97437819D01*
X136804035Y-97499142D01*
X136799051Y-97568834D01*
X136757179Y-97624767D01*
X136691715Y-97649184D01*
X136682869Y-97649500D01*
X135385061Y-97649500D01*
X135318022Y-97629815D01*
X135272267Y-97577011D01*
X135262323Y-97507853D01*
X135279523Y-97460402D01*
X135311544Y-97408488D01*
X135311547Y-97408481D01*
X135325206Y-97367261D01*
X135995184Y-97367261D01*
X136004423Y-97376500D01*
X136323151Y-97376500D01*
X136154548Y-97207897D01*
X135995184Y-97367261D01*
X135325206Y-97367261D01*
X135364855Y-97247606D01*
X135374646Y-97151776D01*
X135779699Y-97151776D01*
X135819114Y-97191191D01*
X135978479Y-97031827D01*
X135867092Y-96920440D01*
X135864775Y-96938045D01*
X135835812Y-97046137D01*
X135823424Y-97076045D01*
X135779699Y-97151776D01*
X135374646Y-97151776D01*
X135374999Y-97148322D01*
X135375000Y-97148309D01*
X135375000Y-97100000D01*
X134549000Y-97100000D01*
X134481961Y-97080315D01*
X134436206Y-97027511D01*
X134425000Y-96976000D01*
X134425000Y-96724000D01*
X134444685Y-96656961D01*
X134497489Y-96611206D01*
X134549000Y-96600000D01*
X135374999Y-96600000D01*
X135374999Y-96551692D01*
X135374998Y-96551677D01*
X135364855Y-96452392D01*
X135321146Y-96320486D01*
X135318744Y-96250658D01*
X135354476Y-96190616D01*
X135416996Y-96159423D01*
X135486456Y-96166984D01*
G37*
%TD.AperFunction*%
%TA.AperFunction,Conductor*%
G36*
X180451445Y-89670185D02*
G01*
X180497200Y-89722989D01*
X180503740Y-89743262D01*
X180504320Y-89743107D01*
X180565592Y-89971779D01*
X180654632Y-90186740D01*
X180654636Y-90186750D01*
X180770970Y-90388248D01*
X180830551Y-90465894D01*
X181495884Y-89800561D01*
X181496740Y-89802626D01*
X181589762Y-89941844D01*
X181708156Y-90060238D01*
X181847374Y-90153260D01*
X181849437Y-90154114D01*
X181184104Y-90819446D01*
X181184104Y-90819447D01*
X181261752Y-90879029D01*
X181463249Y-90995363D01*
X181463259Y-90995367D01*
X181678220Y-91084407D01*
X181902975Y-91144630D01*
X182133659Y-91175000D01*
X182366341Y-91175000D01*
X182597024Y-91144630D01*
X182821779Y-91084407D01*
X183036740Y-90995367D01*
X183036750Y-90995363D01*
X183037699Y-90994815D01*
X183788532Y-90994815D01*
X184143500Y-91349783D01*
X184498468Y-90994815D01*
X184850606Y-90994815D01*
X185205574Y-91349783D01*
X185560542Y-90994815D01*
X185912681Y-90994815D01*
X186092129Y-91174263D01*
X186161802Y-91037523D01*
X186164161Y-91033116D01*
X186164641Y-91032261D01*
X186167029Y-91028191D01*
X186172631Y-91019046D01*
X186175292Y-91014890D01*
X186175839Y-91014072D01*
X186178597Y-91010116D01*
X186264892Y-90891337D01*
X186304618Y-90856034D01*
X186314190Y-90850673D01*
X186365054Y-90835242D01*
X186455894Y-90828092D01*
X186267649Y-90639847D01*
X185912681Y-90994815D01*
X185560542Y-90994815D01*
X185205574Y-90639847D01*
X184850606Y-90994815D01*
X184498468Y-90994815D01*
X184143500Y-90639847D01*
X183788532Y-90994815D01*
X183037699Y-90994815D01*
X183238255Y-90879024D01*
X183315894Y-90819447D01*
X183315894Y-90819446D01*
X183232949Y-90736501D01*
X183586501Y-90736501D01*
X183592338Y-90775852D01*
X183590937Y-90797220D01*
X183612462Y-90818745D01*
X183693291Y-90737917D01*
X183625852Y-90742338D01*
X183586501Y-90736501D01*
X183232949Y-90736501D01*
X182650562Y-90154114D01*
X182652626Y-90153260D01*
X182791844Y-90060238D01*
X182910238Y-89941844D01*
X183003260Y-89802626D01*
X183004115Y-89800561D01*
X183669446Y-90465894D01*
X183669447Y-90465894D01*
X183671071Y-90463777D01*
X184319568Y-90463777D01*
X184674537Y-90818745D01*
X185029505Y-90463777D01*
X185381642Y-90463777D01*
X185736611Y-90818745D01*
X186091579Y-90463777D01*
X186443717Y-90463777D01*
X186569455Y-90589514D01*
X186591337Y-90564892D01*
X186710116Y-90478597D01*
X186714072Y-90475839D01*
X186714890Y-90475292D01*
X186719046Y-90472631D01*
X186728191Y-90467029D01*
X186732261Y-90464641D01*
X186733116Y-90464161D01*
X186737523Y-90461802D01*
X186943425Y-90356889D01*
X186947829Y-90354754D01*
X186948721Y-90354343D01*
X186953154Y-90352404D01*
X186963063Y-90348299D01*
X186967618Y-90346516D01*
X186968540Y-90346176D01*
X186973125Y-90344587D01*
X187019421Y-90329544D01*
X186798686Y-90108809D01*
X186443717Y-90463777D01*
X186091579Y-90463777D01*
X185736611Y-90108808D01*
X185381642Y-90463777D01*
X185029505Y-90463777D01*
X184674537Y-90108809D01*
X184319568Y-90463777D01*
X183671071Y-90463777D01*
X183729024Y-90388255D01*
X183805227Y-90256268D01*
X184112060Y-90256268D01*
X184143500Y-90287708D01*
X184498468Y-89932740D01*
X184850606Y-89932740D01*
X185205574Y-90287708D01*
X185560542Y-89932740D01*
X185912681Y-89932740D01*
X186267649Y-90287708D01*
X186622617Y-89932740D01*
X186974755Y-89932740D01*
X187296268Y-90254253D01*
X187375769Y-90241660D01*
X187684690Y-89932739D01*
X187675451Y-89923500D01*
X186983995Y-89923500D01*
X186974755Y-89932740D01*
X186622617Y-89932740D01*
X186613377Y-89923500D01*
X185921921Y-89923500D01*
X185912681Y-89932740D01*
X185560542Y-89932740D01*
X185551302Y-89923500D01*
X184859846Y-89923500D01*
X184850606Y-89932740D01*
X184498468Y-89932740D01*
X184489228Y-89923500D01*
X184229975Y-89923500D01*
X184196949Y-90046754D01*
X184195856Y-90050583D01*
X184195619Y-90051366D01*
X184194355Y-90055304D01*
X184191482Y-90063767D01*
X184190063Y-90067728D01*
X184189774Y-90068493D01*
X184188336Y-90072124D01*
X184112060Y-90256268D01*
X183805227Y-90256268D01*
X183845363Y-90186750D01*
X183845367Y-90186740D01*
X183934407Y-89971779D01*
X183995680Y-89743107D01*
X183997506Y-89743596D01*
X184026310Y-89688451D01*
X184087005Y-89653841D01*
X184115594Y-89650500D01*
X188025500Y-89650500D01*
X188092539Y-89670185D01*
X188138294Y-89722989D01*
X188149500Y-89774500D01*
X188149500Y-90435824D01*
X188129815Y-90502863D01*
X188077011Y-90548618D01*
X188007853Y-90558562D01*
X187987184Y-90553756D01*
X187927833Y-90534472D01*
X187710181Y-90500000D01*
X187489819Y-90500000D01*
X187272164Y-90534473D01*
X187062589Y-90602567D01*
X186866233Y-90702616D01*
X186802485Y-90748931D01*
X186802485Y-90748932D01*
X187388940Y-91335387D01*
X187368409Y-91340889D01*
X187231592Y-91419881D01*
X187119881Y-91531592D01*
X187040889Y-91668409D01*
X187035387Y-91688940D01*
X186448932Y-91102485D01*
X186448931Y-91102485D01*
X186402616Y-91166233D01*
X186302567Y-91362589D01*
X186234473Y-91572164D01*
X186200000Y-91789818D01*
X186200000Y-92010181D01*
X186234473Y-92227835D01*
X186302567Y-92437410D01*
X186402611Y-92633756D01*
X186448932Y-92697513D01*
X187035387Y-92111058D01*
X187040889Y-92131591D01*
X187119881Y-92268408D01*
X187231592Y-92380119D01*
X187368409Y-92459111D01*
X187388939Y-92464612D01*
X186802485Y-93051065D01*
X186802485Y-93051066D01*
X186866243Y-93097388D01*
X187062589Y-93197432D01*
X187272164Y-93265526D01*
X187489819Y-93300000D01*
X187710181Y-93300000D01*
X187927836Y-93265526D01*
X187987180Y-93246244D01*
X188057021Y-93244247D01*
X188116855Y-93280327D01*
X188147684Y-93343028D01*
X188149500Y-93364174D01*
X188149500Y-97525500D01*
X188129815Y-97592539D01*
X188077011Y-97638294D01*
X188025500Y-97649500D01*
X185315594Y-97649500D01*
X185248555Y-97629815D01*
X185202800Y-97577011D01*
X185196259Y-97556737D01*
X185195680Y-97556893D01*
X185134407Y-97328220D01*
X185069635Y-97171847D01*
X185365128Y-97171847D01*
X185388336Y-97227876D01*
X185389774Y-97231507D01*
X185390063Y-97232272D01*
X185391482Y-97236233D01*
X185394355Y-97244696D01*
X185395619Y-97248634D01*
X185395856Y-97249417D01*
X185396949Y-97253246D01*
X185429975Y-97376500D01*
X185551303Y-97376500D01*
X185560542Y-97367261D01*
X185912681Y-97367261D01*
X185921920Y-97376500D01*
X186613378Y-97376500D01*
X186622617Y-97367261D01*
X186974755Y-97367261D01*
X186983994Y-97376500D01*
X187675452Y-97376500D01*
X187684691Y-97367261D01*
X187329723Y-97012293D01*
X186974755Y-97367261D01*
X186622617Y-97367261D01*
X186267649Y-97012293D01*
X185912681Y-97367261D01*
X185560542Y-97367261D01*
X185365128Y-97171847D01*
X185069635Y-97171847D01*
X185045367Y-97113259D01*
X185045363Y-97113249D01*
X184929029Y-96911752D01*
X184871074Y-96836224D01*
X185381643Y-96836224D01*
X185736611Y-97191192D01*
X186091579Y-96836224D01*
X186443718Y-96836224D01*
X186798686Y-97191192D01*
X187153654Y-96836224D01*
X187505792Y-96836224D01*
X187860760Y-97191192D01*
X187876500Y-97175452D01*
X187876500Y-96496996D01*
X187860760Y-96481256D01*
X187505792Y-96836224D01*
X187153654Y-96836224D01*
X186798686Y-96481256D01*
X186443718Y-96836224D01*
X186091579Y-96836224D01*
X185736611Y-96481255D01*
X185381643Y-96836224D01*
X184871074Y-96836224D01*
X184869447Y-96834104D01*
X184869446Y-96834104D01*
X184204115Y-97499438D01*
X184203260Y-97497374D01*
X184110238Y-97358156D01*
X183991844Y-97239762D01*
X183852626Y-97146740D01*
X183850561Y-97145884D01*
X184515894Y-96480551D01*
X184438248Y-96420970D01*
X184237704Y-96305187D01*
X184850606Y-96305187D01*
X185205574Y-96660155D01*
X185560542Y-96305187D01*
X185912681Y-96305187D01*
X186267649Y-96660155D01*
X186622617Y-96305187D01*
X186974755Y-96305187D01*
X187329723Y-96660155D01*
X187684691Y-96305187D01*
X187329723Y-95950219D01*
X186974755Y-96305187D01*
X186622617Y-96305187D01*
X186267649Y-95950219D01*
X185912681Y-96305187D01*
X185560542Y-96305187D01*
X185205574Y-95950219D01*
X184850606Y-96305187D01*
X184237704Y-96305187D01*
X184236750Y-96304636D01*
X184236740Y-96304632D01*
X184021779Y-96215592D01*
X183797024Y-96155369D01*
X183566341Y-96125000D01*
X183333659Y-96125000D01*
X183102975Y-96155369D01*
X182878220Y-96215592D01*
X182663259Y-96304632D01*
X182663249Y-96304636D01*
X182461747Y-96420973D01*
X182384104Y-96480550D01*
X182384104Y-96480551D01*
X183049438Y-97145884D01*
X183047374Y-97146740D01*
X182908156Y-97239762D01*
X182789762Y-97358156D01*
X182696740Y-97497374D01*
X182695884Y-97499438D01*
X182030551Y-96834104D01*
X182030550Y-96834104D01*
X181970973Y-96911747D01*
X181854636Y-97113249D01*
X181854632Y-97113259D01*
X181765592Y-97328220D01*
X181704320Y-97556893D01*
X181702493Y-97556403D01*
X181673690Y-97611549D01*
X181612995Y-97646159D01*
X181584406Y-97649500D01*
X177922149Y-97649500D01*
X177855110Y-97629815D01*
X177809355Y-97577011D01*
X177799411Y-97507853D01*
X177828436Y-97444297D01*
X177887214Y-97406523D01*
X177906111Y-97402542D01*
X178008686Y-97389162D01*
X178088481Y-97378754D01*
X178122237Y-97373184D01*
X178151852Y-97367261D01*
X179540234Y-97367261D01*
X179549473Y-97376500D01*
X180240931Y-97376500D01*
X180250170Y-97367261D01*
X180602309Y-97367261D01*
X180611548Y-97376500D01*
X181303006Y-97376500D01*
X181312245Y-97367261D01*
X180957277Y-97012293D01*
X180602309Y-97367261D01*
X180250170Y-97367261D01*
X179895202Y-97012293D01*
X179540234Y-97367261D01*
X178151852Y-97367261D01*
X178272237Y-97343184D01*
X178309962Y-97334120D01*
X178629962Y-97244120D01*
X178676871Y-97228412D01*
X179086871Y-97068412D01*
X179151463Y-97037780D01*
X179508767Y-96836224D01*
X180071271Y-96836224D01*
X180426239Y-97191192D01*
X180781208Y-96836224D01*
X181133346Y-96836224D01*
X181488313Y-97191191D01*
X181554113Y-97125391D01*
X181604126Y-97004652D01*
X181605739Y-97000930D01*
X181606077Y-97000184D01*
X181607815Y-96996510D01*
X181611768Y-96988495D01*
X181613596Y-96984936D01*
X181613981Y-96984215D01*
X181615976Y-96980623D01*
X181736783Y-96771378D01*
X181738857Y-96767917D01*
X181739289Y-96767222D01*
X181741500Y-96763791D01*
X181746466Y-96756359D01*
X181748788Y-96753005D01*
X181749264Y-96752341D01*
X181751667Y-96749102D01*
X181753617Y-96746559D01*
X181488314Y-96481256D01*
X181133346Y-96836224D01*
X180781208Y-96836224D01*
X180426239Y-96481255D01*
X180071271Y-96836224D01*
X179508767Y-96836224D01*
X179541463Y-96817780D01*
X179614450Y-96767711D01*
X179954450Y-96487711D01*
X179990542Y-96454942D01*
X180140297Y-96305187D01*
X180602309Y-96305187D01*
X180957277Y-96660155D01*
X181312245Y-96305187D01*
X181664383Y-96305187D01*
X181930761Y-96571565D01*
X181951243Y-96565717D01*
X182074146Y-96557661D01*
X182113498Y-96563498D01*
X182107661Y-96524146D01*
X182115717Y-96401243D01*
X182130089Y-96350907D01*
X182135179Y-96341383D01*
X182169055Y-96301454D01*
X182283087Y-96213955D01*
X182019351Y-95950219D01*
X181664383Y-96305187D01*
X181312245Y-96305187D01*
X180957277Y-95950219D01*
X180602309Y-96305187D01*
X180140297Y-96305187D01*
X180350542Y-96094942D01*
X180418316Y-96010853D01*
X180570483Y-95774149D01*
X181133346Y-95774149D01*
X181488314Y-96129117D01*
X181843282Y-95774149D01*
X182195420Y-95774149D01*
X182503123Y-96081852D01*
X182530624Y-96065975D01*
X182534215Y-96063981D01*
X182534936Y-96063596D01*
X182538495Y-96061768D01*
X182546510Y-96057815D01*
X182550184Y-96056077D01*
X182550930Y-96055739D01*
X182554652Y-96054126D01*
X182675389Y-96004114D01*
X182905354Y-95774149D01*
X183257495Y-95774149D01*
X183335346Y-95852000D01*
X183570808Y-95852000D01*
X183574899Y-95852067D01*
X183575717Y-95852094D01*
X183579730Y-95852292D01*
X183588647Y-95852876D01*
X183592657Y-95853204D01*
X183593472Y-95853284D01*
X183597543Y-95853752D01*
X183837092Y-95885289D01*
X183841219Y-95885903D01*
X183842026Y-95886037D01*
X183845896Y-95886743D01*
X183853353Y-95888225D01*
X183967429Y-95774149D01*
X184319569Y-95774149D01*
X184674537Y-96129117D01*
X185029505Y-95774149D01*
X185381643Y-95774149D01*
X185736611Y-96129117D01*
X186091579Y-95774149D01*
X186443718Y-95774149D01*
X186798686Y-96129117D01*
X187153654Y-95774149D01*
X187505792Y-95774149D01*
X187860760Y-96129117D01*
X187876500Y-96113377D01*
X187876500Y-95434921D01*
X187860760Y-95419181D01*
X187505792Y-95774149D01*
X187153654Y-95774149D01*
X186798686Y-95419181D01*
X186443718Y-95774149D01*
X186091579Y-95774149D01*
X185736611Y-95419180D01*
X185381643Y-95774149D01*
X185029505Y-95774149D01*
X184674537Y-95419181D01*
X184319569Y-95774149D01*
X183967429Y-95774149D01*
X183967430Y-95774148D01*
X183612463Y-95419181D01*
X183257495Y-95774149D01*
X182905354Y-95774149D01*
X182905355Y-95774148D01*
X182550388Y-95419181D01*
X182195420Y-95774149D01*
X181843282Y-95774149D01*
X181488314Y-95419181D01*
X181133346Y-95774149D01*
X180570483Y-95774149D01*
X180688316Y-95590853D01*
X180715233Y-95543566D01*
X180723898Y-95526236D01*
X181029121Y-95526236D01*
X181312245Y-95243112D01*
X181664383Y-95243112D01*
X182019351Y-95598080D01*
X182374319Y-95243112D01*
X182726457Y-95243112D01*
X183081425Y-95598080D01*
X183436394Y-95243112D01*
X183788532Y-95243112D01*
X184143500Y-95598080D01*
X184498468Y-95243112D01*
X184850606Y-95243112D01*
X185205574Y-95598080D01*
X185560542Y-95243112D01*
X185912681Y-95243112D01*
X186267649Y-95598080D01*
X186622617Y-95243112D01*
X186974755Y-95243112D01*
X187329723Y-95598080D01*
X187684691Y-95243112D01*
X187329723Y-94888144D01*
X186974755Y-95243112D01*
X186622617Y-95243112D01*
X186267649Y-94888144D01*
X185912681Y-95243112D01*
X185560542Y-95243112D01*
X185205574Y-94888144D01*
X184850606Y-95243112D01*
X184498468Y-95243112D01*
X184143500Y-94888144D01*
X183788532Y-95243112D01*
X183436394Y-95243112D01*
X183081425Y-94888143D01*
X182726457Y-95243112D01*
X182374319Y-95243112D01*
X182019351Y-94888144D01*
X181664383Y-95243112D01*
X181312245Y-95243112D01*
X181204047Y-95134914D01*
X181087792Y-95406179D01*
X181086307Y-95409507D01*
X181071970Y-95440418D01*
X181070390Y-95443698D01*
X181029121Y-95526236D01*
X180723898Y-95526236D01*
X180825233Y-95323566D01*
X180837728Y-95296626D01*
X180957728Y-95016626D01*
X180980782Y-94950528D01*
X181003937Y-94865640D01*
X181286911Y-94865640D01*
X181488314Y-95067043D01*
X181843282Y-94712075D01*
X182195420Y-94712075D01*
X182550388Y-95067043D01*
X182905356Y-94712075D01*
X183257495Y-94712075D01*
X183612463Y-95067043D01*
X183967431Y-94712075D01*
X184319569Y-94712075D01*
X184674537Y-95067043D01*
X185029505Y-94712075D01*
X185381643Y-94712075D01*
X185736611Y-95067043D01*
X186091579Y-94712075D01*
X186443718Y-94712075D01*
X186798686Y-95067043D01*
X187153654Y-94712075D01*
X187505792Y-94712075D01*
X187860760Y-95067043D01*
X187876500Y-95051303D01*
X187876500Y-94372847D01*
X187860760Y-94357107D01*
X187505792Y-94712075D01*
X187153654Y-94712075D01*
X186798686Y-94357107D01*
X186443718Y-94712075D01*
X186091579Y-94712075D01*
X185736611Y-94357106D01*
X185381643Y-94712075D01*
X185029505Y-94712075D01*
X184674537Y-94357107D01*
X184319569Y-94712075D01*
X183967431Y-94712075D01*
X183612463Y-94357107D01*
X183257495Y-94712075D01*
X182905356Y-94712075D01*
X182550388Y-94357107D01*
X182195420Y-94712075D01*
X181843282Y-94712075D01*
X181488313Y-94357106D01*
X181400164Y-94445255D01*
X181398601Y-94453646D01*
X181397569Y-94458616D01*
X181396204Y-94464575D01*
X181394964Y-94469520D01*
X181286911Y-94865640D01*
X181003937Y-94865640D01*
X181130782Y-94400628D01*
X181139721Y-94352661D01*
X181145963Y-94319166D01*
X181145963Y-94319164D01*
X181160126Y-94181038D01*
X181664383Y-94181038D01*
X182019351Y-94536006D01*
X182374319Y-94181038D01*
X182726457Y-94181038D01*
X183081425Y-94536006D01*
X183436394Y-94181038D01*
X183788532Y-94181038D01*
X184143500Y-94536006D01*
X184498468Y-94181038D01*
X184850606Y-94181038D01*
X185205574Y-94536006D01*
X185560542Y-94181038D01*
X185912681Y-94181038D01*
X186267649Y-94536006D01*
X186622617Y-94181038D01*
X186974755Y-94181038D01*
X187329723Y-94536006D01*
X187684691Y-94181038D01*
X187329723Y-93826070D01*
X186974755Y-94181038D01*
X186622617Y-94181038D01*
X186267649Y-93826070D01*
X185912681Y-94181038D01*
X185560542Y-94181038D01*
X185205574Y-93826070D01*
X184850606Y-94181038D01*
X184498468Y-94181038D01*
X184143500Y-93826070D01*
X183788532Y-94181038D01*
X183436394Y-94181038D01*
X183081425Y-93826069D01*
X182726457Y-94181038D01*
X182374319Y-94181038D01*
X182019351Y-93826070D01*
X181664383Y-94181038D01*
X181160126Y-94181038D01*
X181185963Y-93929066D01*
X181185963Y-93929055D01*
X181183923Y-93828584D01*
X181183455Y-93805560D01*
X181171765Y-93765751D01*
X181167103Y-93721379D01*
X181173579Y-93636552D01*
X181163579Y-93486652D01*
X181160454Y-93454919D01*
X181148069Y-93359965D01*
X181423380Y-93359965D01*
X181431464Y-93421939D01*
X181431909Y-93425823D01*
X181435495Y-93462234D01*
X181435817Y-93466134D01*
X181446298Y-93623245D01*
X181446512Y-93627613D01*
X181446540Y-93628506D01*
X181446600Y-93632990D01*
X181446553Y-93642740D01*
X181446447Y-93647287D01*
X181446410Y-93648178D01*
X181446157Y-93652472D01*
X181441384Y-93714983D01*
X181447950Y-93737342D01*
X181450001Y-93745293D01*
X181450362Y-93746912D01*
X181451887Y-93755010D01*
X181454649Y-93772931D01*
X181455628Y-93781051D01*
X181455772Y-93782703D01*
X181456214Y-93790952D01*
X181458992Y-93927699D01*
X181459011Y-93931513D01*
X181459003Y-93932279D01*
X181458906Y-93936070D01*
X181458563Y-93944425D01*
X181458358Y-93948093D01*
X181458304Y-93948856D01*
X181457966Y-93952752D01*
X181455931Y-93972586D01*
X181488314Y-94004969D01*
X181843282Y-93650001D01*
X182195420Y-93650001D01*
X182550388Y-94004969D01*
X182905356Y-93650001D01*
X183257495Y-93650001D01*
X183612463Y-94004969D01*
X183967431Y-93650001D01*
X184319569Y-93650001D01*
X184674537Y-94004969D01*
X185029505Y-93650001D01*
X185381643Y-93650001D01*
X185736611Y-94004969D01*
X186091579Y-93650001D01*
X186091578Y-93650000D01*
X186443717Y-93650000D01*
X186798686Y-94004969D01*
X187153654Y-93650001D01*
X187505792Y-93650001D01*
X187860760Y-94004969D01*
X187876500Y-93989229D01*
X187876500Y-93550059D01*
X187747592Y-93570477D01*
X187742734Y-93571149D01*
X187741760Y-93571264D01*
X187736954Y-93571736D01*
X187726261Y-93572578D01*
X187721448Y-93572863D01*
X187720466Y-93572902D01*
X187715545Y-93573000D01*
X187582793Y-93573000D01*
X187505792Y-93650001D01*
X187153654Y-93650001D01*
X186949766Y-93446113D01*
X186948673Y-93445635D01*
X186947782Y-93445224D01*
X186943426Y-93443111D01*
X186749445Y-93344272D01*
X186443717Y-93650000D01*
X186091578Y-93650000D01*
X185736611Y-93295032D01*
X185381643Y-93650001D01*
X185029505Y-93650001D01*
X184674537Y-93295033D01*
X184319569Y-93650001D01*
X183967431Y-93650001D01*
X183612463Y-93295033D01*
X183257495Y-93650001D01*
X182905356Y-93650001D01*
X182550388Y-93295033D01*
X182195420Y-93650001D01*
X181843282Y-93650001D01*
X181488313Y-93295032D01*
X181423380Y-93359965D01*
X181148069Y-93359965D01*
X181130454Y-93224919D01*
X181124884Y-93191163D01*
X181110444Y-93118963D01*
X181664382Y-93118963D01*
X182019351Y-93473931D01*
X182374319Y-93118963D01*
X182726457Y-93118963D01*
X183081425Y-93473931D01*
X183436394Y-93118963D01*
X183788531Y-93118963D01*
X184143500Y-93473931D01*
X184498468Y-93118963D01*
X184850605Y-93118963D01*
X185205574Y-93473931D01*
X185560542Y-93118963D01*
X185560541Y-93118962D01*
X185912680Y-93118962D01*
X186267648Y-93473931D01*
X186552503Y-93189076D01*
X186550675Y-93185812D01*
X186535242Y-93134944D01*
X186526412Y-93022758D01*
X186477240Y-92973586D01*
X186365055Y-92964757D01*
X186314187Y-92949324D01*
X186304616Y-92943963D01*
X186264895Y-92908663D01*
X186205176Y-92826466D01*
X185912680Y-93118962D01*
X185560541Y-93118962D01*
X185205574Y-92763995D01*
X184850605Y-93118963D01*
X184498468Y-93118963D01*
X184143500Y-92763995D01*
X183788531Y-93118963D01*
X183436394Y-93118963D01*
X183081425Y-92763994D01*
X182726457Y-93118963D01*
X182374319Y-93118963D01*
X182019351Y-92763995D01*
X181664382Y-93118963D01*
X181110444Y-93118963D01*
X181094884Y-93041163D01*
X181085820Y-93003438D01*
X180995820Y-92683438D01*
X180980112Y-92636529D01*
X180927222Y-92500998D01*
X181220272Y-92500998D01*
X181235094Y-92538978D01*
X181236152Y-92541788D01*
X181237395Y-92545216D01*
X181238405Y-92548113D01*
X181255271Y-92598482D01*
X181256191Y-92601345D01*
X181257265Y-92604831D01*
X181258131Y-92607769D01*
X181299194Y-92753774D01*
X181488314Y-92942894D01*
X181843282Y-92587926D01*
X182195420Y-92587926D01*
X182550388Y-92942894D01*
X182905356Y-92587926D01*
X183257495Y-92587926D01*
X183612463Y-92942894D01*
X183967431Y-92587926D01*
X184319569Y-92587926D01*
X184674537Y-92942894D01*
X185029505Y-92587926D01*
X185381643Y-92587926D01*
X185736611Y-92942894D01*
X186079180Y-92600324D01*
X186056889Y-92556574D01*
X186054776Y-92552218D01*
X186054365Y-92551327D01*
X186053885Y-92550231D01*
X185736611Y-92232957D01*
X185381643Y-92587926D01*
X185029505Y-92587926D01*
X184674537Y-92232958D01*
X184319569Y-92587926D01*
X183967431Y-92587926D01*
X183612463Y-92232958D01*
X183257495Y-92587926D01*
X182905356Y-92587926D01*
X182550388Y-92232958D01*
X182195420Y-92587926D01*
X181843282Y-92587926D01*
X181488313Y-92232957D01*
X181220272Y-92500998D01*
X180927222Y-92500998D01*
X180820112Y-92226529D01*
X180789480Y-92161937D01*
X180571045Y-91774711D01*
X180884485Y-91774711D01*
X181028552Y-92030102D01*
X181030644Y-92033969D01*
X181033071Y-92038652D01*
X181035017Y-92042575D01*
X181067908Y-92111930D01*
X181069717Y-92115926D01*
X181071806Y-92120766D01*
X181073474Y-92124825D01*
X181121427Y-92247706D01*
X181312243Y-92056889D01*
X181664383Y-92056889D01*
X182019351Y-92411857D01*
X182374319Y-92056889D01*
X182726457Y-92056889D01*
X183081425Y-92411857D01*
X183436394Y-92056889D01*
X183788532Y-92056889D01*
X184143500Y-92411857D01*
X184498468Y-92056889D01*
X184850606Y-92056889D01*
X185205574Y-92411857D01*
X185560542Y-92056889D01*
X185205574Y-91701921D01*
X184850606Y-92056889D01*
X184498468Y-92056889D01*
X184143500Y-91701921D01*
X183788532Y-92056889D01*
X183436394Y-92056889D01*
X183081425Y-91701920D01*
X182726457Y-92056889D01*
X182374319Y-92056889D01*
X182019351Y-91701921D01*
X181664383Y-92056889D01*
X181312243Y-92056889D01*
X181312244Y-92056888D01*
X180957276Y-91701920D01*
X180884485Y-91774711D01*
X180571045Y-91774711D01*
X180569480Y-91771937D01*
X180519411Y-91698950D01*
X180239411Y-91358950D01*
X180206642Y-91322858D01*
X180122393Y-91238609D01*
X180493965Y-91238609D01*
X180732225Y-91527923D01*
X180735606Y-91532217D01*
X180739532Y-91537437D01*
X180742684Y-91541825D01*
X180751859Y-91555200D01*
X180781207Y-91525851D01*
X181133345Y-91525851D01*
X181488314Y-91880820D01*
X181843282Y-91525852D01*
X182195420Y-91525852D01*
X182550388Y-91880820D01*
X182905356Y-91525852D01*
X183257495Y-91525852D01*
X183612463Y-91880820D01*
X183967431Y-91525852D01*
X184319569Y-91525852D01*
X184674537Y-91880820D01*
X185029505Y-91525852D01*
X185381643Y-91525852D01*
X185736611Y-91880820D01*
X185941660Y-91675770D01*
X185965674Y-91524162D01*
X185966516Y-91519437D01*
X185966707Y-91518474D01*
X185967762Y-91513659D01*
X185970265Y-91503230D01*
X185971512Y-91498454D01*
X185971779Y-91497509D01*
X185973177Y-91492907D01*
X185994133Y-91428406D01*
X185736611Y-91170884D01*
X185381643Y-91525852D01*
X185029505Y-91525852D01*
X184674537Y-91170884D01*
X184319569Y-91525852D01*
X183967431Y-91525852D01*
X183612463Y-91170884D01*
X183257495Y-91525852D01*
X182905356Y-91525852D01*
X182762441Y-91382937D01*
X182663370Y-91409484D01*
X182659491Y-91410456D01*
X182658695Y-91410642D01*
X182654662Y-91411514D01*
X182645896Y-91413257D01*
X182642026Y-91413963D01*
X182641219Y-91414097D01*
X182637092Y-91414711D01*
X182397543Y-91446248D01*
X182393472Y-91446716D01*
X182392657Y-91446796D01*
X182388647Y-91447124D01*
X182379730Y-91447708D01*
X182375717Y-91447906D01*
X182374899Y-91447933D01*
X182370808Y-91448000D01*
X182273272Y-91448000D01*
X182195420Y-91525852D01*
X181843282Y-91525852D01*
X181686754Y-91369324D01*
X181603247Y-91346949D01*
X181599417Y-91345856D01*
X181598634Y-91345619D01*
X181594696Y-91344355D01*
X181586233Y-91341482D01*
X181582272Y-91340063D01*
X181581507Y-91339774D01*
X181577876Y-91338336D01*
X181473326Y-91295030D01*
X183026673Y-91295030D01*
X183081426Y-91349783D01*
X183235171Y-91196037D01*
X183169377Y-91234024D01*
X183165785Y-91236019D01*
X183165064Y-91236404D01*
X183161505Y-91238232D01*
X183153490Y-91242185D01*
X183149816Y-91243923D01*
X183149070Y-91244261D01*
X183145348Y-91245874D01*
X183026673Y-91295030D01*
X181473326Y-91295030D01*
X181396138Y-91263058D01*
X181133345Y-91525851D01*
X180781207Y-91525851D01*
X180493965Y-91238609D01*
X180122393Y-91238609D01*
X180027904Y-91144120D01*
X179878599Y-90994814D01*
X180602308Y-90994814D01*
X180957276Y-91349782D01*
X181167318Y-91139740D01*
X181121378Y-91113217D01*
X181117917Y-91111143D01*
X181117222Y-91110711D01*
X181113791Y-91108500D01*
X181106359Y-91103534D01*
X181103077Y-91101263D01*
X181102412Y-91100787D01*
X181099099Y-91098331D01*
X180969054Y-90998543D01*
X180935179Y-90958615D01*
X180930089Y-90949091D01*
X180915717Y-90898755D01*
X180907661Y-90775852D01*
X180913497Y-90736500D01*
X180874146Y-90742338D01*
X180855976Y-90741146D01*
X180602308Y-90994814D01*
X179878599Y-90994814D01*
X179846655Y-90962870D01*
X179846639Y-90962855D01*
X179780144Y-90909262D01*
X179762553Y-90895084D01*
X179425083Y-90678139D01*
X179380635Y-90649565D01*
X179885483Y-90649565D01*
X179913254Y-90667418D01*
X179916047Y-90669268D01*
X179916600Y-90669645D01*
X179919287Y-90671529D01*
X179925213Y-90675803D01*
X179927816Y-90677733D01*
X179928349Y-90678139D01*
X179931026Y-90680236D01*
X179954556Y-90699201D01*
X179895201Y-90639846D01*
X179885483Y-90649565D01*
X179380635Y-90649565D01*
X179342566Y-90625092D01*
X179342567Y-90625092D01*
X179295260Y-90598163D01*
X179295258Y-90598162D01*
X179075260Y-90488164D01*
X179048338Y-90475677D01*
X178768337Y-90355676D01*
X178765693Y-90354754D01*
X178702206Y-90332612D01*
X178415909Y-90254531D01*
X179218441Y-90254531D01*
X179419148Y-90354885D01*
X179422108Y-90356415D01*
X179425647Y-90358305D01*
X179428577Y-90359921D01*
X179479348Y-90388822D01*
X179482192Y-90390491D01*
X179485625Y-90392568D01*
X179488491Y-90394356D01*
X179671137Y-90511771D01*
X179719131Y-90463777D01*
X180071271Y-90463777D01*
X180426239Y-90818745D01*
X180613501Y-90631483D01*
X180551668Y-90550901D01*
X180549213Y-90547588D01*
X180548737Y-90546923D01*
X180546466Y-90543641D01*
X180541500Y-90536209D01*
X180539289Y-90532778D01*
X180538857Y-90532083D01*
X180536783Y-90528622D01*
X180415976Y-90319377D01*
X180413981Y-90315785D01*
X180413596Y-90315064D01*
X180411768Y-90311505D01*
X180407815Y-90303490D01*
X180406077Y-90299816D01*
X180405739Y-90299070D01*
X180404126Y-90295348D01*
X180355966Y-90179081D01*
X180071271Y-90463777D01*
X179719131Y-90463777D01*
X179719132Y-90463776D01*
X179364164Y-90108808D01*
X179218441Y-90254531D01*
X178415909Y-90254531D01*
X178152206Y-90182612D01*
X178152204Y-90182611D01*
X178152202Y-90182611D01*
X178122396Y-90177057D01*
X178070776Y-90167438D01*
X177680776Y-90127438D01*
X177680774Y-90127438D01*
X177680764Y-90127437D01*
X177557258Y-90129944D01*
X177465662Y-90156840D01*
X177421286Y-90161503D01*
X177403180Y-90160120D01*
X177403162Y-90160120D01*
X177253193Y-90170118D01*
X177221395Y-90173248D01*
X176991438Y-90203243D01*
X176991422Y-90203245D01*
X176991419Y-90203246D01*
X176986683Y-90204027D01*
X176957658Y-90208816D01*
X176807663Y-90238816D01*
X176769938Y-90247879D01*
X176449939Y-90337879D01*
X176403034Y-90353586D01*
X175993036Y-90513585D01*
X175993032Y-90513586D01*
X175993029Y-90513588D01*
X175976470Y-90521441D01*
X175928430Y-90544223D01*
X175538448Y-90764213D01*
X175538446Y-90764214D01*
X175538438Y-90764219D01*
X175538437Y-90764220D01*
X175465450Y-90814289D01*
X175465444Y-90814293D01*
X175465438Y-90814298D01*
X175125454Y-91094285D01*
X175089369Y-91127047D01*
X175089345Y-91127070D01*
X174729370Y-91487044D01*
X174729355Y-91487060D01*
X174661586Y-91571144D01*
X174391592Y-91991133D01*
X174364663Y-92038439D01*
X174364662Y-92038441D01*
X174254664Y-92258439D01*
X174242177Y-92285361D01*
X174122176Y-92565362D01*
X174099112Y-92631493D01*
X173949110Y-93181499D01*
X173933925Y-93263046D01*
X173933924Y-93263050D01*
X173894025Y-93653047D01*
X173894024Y-93653067D01*
X173896544Y-93776438D01*
X173896545Y-93776445D01*
X173900821Y-93791007D01*
X173905483Y-93835374D01*
X173899021Y-93920038D01*
X173899021Y-93920058D01*
X173909021Y-94069959D01*
X173912171Y-94101868D01*
X173912174Y-94101895D01*
X173942256Y-94331756D01*
X173942277Y-94331916D01*
X173947814Y-94365430D01*
X173977815Y-94515432D01*
X173986879Y-94553161D01*
X174076882Y-94873169D01*
X174076883Y-94873175D01*
X174092546Y-94919965D01*
X174252442Y-95329956D01*
X174252448Y-95329969D01*
X174252449Y-95329971D01*
X174283169Y-95394748D01*
X174337951Y-95491818D01*
X174482110Y-95747257D01*
X174503269Y-95784748D01*
X174553233Y-95857582D01*
X174553239Y-95857589D01*
X174553241Y-95857592D01*
X174831188Y-96195220D01*
X174833133Y-96197582D01*
X174847996Y-96213955D01*
X174865961Y-96233745D01*
X175225954Y-96593738D01*
X175225964Y-96593747D01*
X175236684Y-96602386D01*
X175310093Y-96661545D01*
X175730193Y-96931545D01*
X175741611Y-96938045D01*
X175777329Y-96958380D01*
X175777336Y-96958383D01*
X175777351Y-96958392D01*
X175997251Y-97068392D01*
X176002490Y-97070822D01*
X176024330Y-97080953D01*
X176304424Y-97200950D01*
X176304429Y-97200952D01*
X176304434Y-97200954D01*
X176370472Y-97223982D01*
X176920372Y-97373982D01*
X177001824Y-97389162D01*
X177128434Y-97402147D01*
X177193114Y-97428569D01*
X177233242Y-97485766D01*
X177236078Y-97555578D01*
X177200720Y-97615840D01*
X177138394Y-97647421D01*
X177115781Y-97649500D01*
X169703396Y-97649500D01*
X169636357Y-97629815D01*
X169590602Y-97577011D01*
X169580658Y-97507853D01*
X169587214Y-97482167D01*
X169596727Y-97456661D01*
X169630071Y-97367261D01*
X169981565Y-97367261D01*
X169990804Y-97376500D01*
X170682262Y-97376500D01*
X170691501Y-97367261D01*
X171043639Y-97367261D01*
X171052878Y-97376500D01*
X171744336Y-97376500D01*
X171753575Y-97367261D01*
X172105714Y-97367261D01*
X172114953Y-97376500D01*
X172806411Y-97376500D01*
X172815650Y-97367261D01*
X173167788Y-97367261D01*
X173177027Y-97376500D01*
X173868485Y-97376500D01*
X173877724Y-97367261D01*
X174229862Y-97367261D01*
X174239101Y-97376500D01*
X174930560Y-97376500D01*
X174939798Y-97367261D01*
X174939797Y-97367260D01*
X175291936Y-97367260D01*
X175301176Y-97376500D01*
X175992634Y-97376500D01*
X176001125Y-97368008D01*
X175914804Y-97331027D01*
X175911461Y-97329536D01*
X175880386Y-97315123D01*
X175877085Y-97313533D01*
X175653428Y-97201654D01*
X175650457Y-97200117D01*
X175646928Y-97198231D01*
X175644025Y-97196629D01*
X175593388Y-97167801D01*
X175590521Y-97166118D01*
X175587100Y-97164047D01*
X175584274Y-97162283D01*
X175531093Y-97128103D01*
X175291936Y-97367260D01*
X174939797Y-97367260D01*
X174584830Y-97012292D01*
X174229862Y-97367261D01*
X173877724Y-97367261D01*
X173522756Y-97012293D01*
X173167788Y-97367261D01*
X172815650Y-97367261D01*
X172460682Y-97012293D01*
X172105714Y-97367261D01*
X171753575Y-97367261D01*
X171398607Y-97012293D01*
X171043639Y-97367261D01*
X170691501Y-97367261D01*
X170336533Y-97012293D01*
X169981565Y-97367261D01*
X169630071Y-97367261D01*
X169634091Y-97356483D01*
X169640500Y-97296873D01*
X169640500Y-97083188D01*
X169913499Y-97083188D01*
X170160464Y-96836224D01*
X170512602Y-96836224D01*
X170867570Y-97191192D01*
X171222538Y-96836224D01*
X171574676Y-96836224D01*
X171929644Y-97191192D01*
X172284612Y-96836224D01*
X172636751Y-96836224D01*
X172991719Y-97191192D01*
X173346687Y-96836224D01*
X173698825Y-96836224D01*
X174053793Y-97191192D01*
X174408761Y-96836224D01*
X174408760Y-96836223D01*
X174760899Y-96836223D01*
X175115867Y-97191191D01*
X175316728Y-96990331D01*
X175159416Y-96889226D01*
X175156651Y-96887397D01*
X175156099Y-96887021D01*
X175153393Y-96885124D01*
X175147463Y-96880849D01*
X175144722Y-96878815D01*
X175144189Y-96878408D01*
X175141635Y-96876405D01*
X175051808Y-96804014D01*
X175049255Y-96801899D01*
X175048745Y-96801465D01*
X175046242Y-96799276D01*
X175040804Y-96794391D01*
X175038337Y-96792114D01*
X175037852Y-96791654D01*
X175035503Y-96789366D01*
X174921630Y-96675493D01*
X174760899Y-96836223D01*
X174408760Y-96836223D01*
X174053793Y-96481256D01*
X173698825Y-96836224D01*
X173346687Y-96836224D01*
X172991719Y-96481256D01*
X172636751Y-96836224D01*
X172284612Y-96836224D01*
X171929644Y-96481255D01*
X171574676Y-96836224D01*
X171222538Y-96836224D01*
X170867570Y-96481256D01*
X170512602Y-96836224D01*
X170160464Y-96836224D01*
X169913499Y-96589259D01*
X169913499Y-97083188D01*
X169640500Y-97083188D01*
X169640499Y-96305187D01*
X169981565Y-96305187D01*
X170336533Y-96660155D01*
X170691501Y-96305187D01*
X171043639Y-96305187D01*
X171398607Y-96660155D01*
X171753575Y-96305187D01*
X172105714Y-96305187D01*
X172460682Y-96660155D01*
X172815650Y-96305187D01*
X173167788Y-96305187D01*
X173522756Y-96660155D01*
X173877724Y-96305187D01*
X173877723Y-96305186D01*
X174229861Y-96305186D01*
X174584830Y-96660155D01*
X174745560Y-96499424D01*
X174671646Y-96425511D01*
X174669552Y-96423365D01*
X174667070Y-96420760D01*
X174665032Y-96418569D01*
X174629788Y-96379744D01*
X174627814Y-96377516D01*
X174625458Y-96374792D01*
X174623512Y-96372486D01*
X174415382Y-96119665D01*
X174229861Y-96305186D01*
X173877723Y-96305186D01*
X173522756Y-95950219D01*
X173167788Y-96305187D01*
X172815650Y-96305187D01*
X172460682Y-95950219D01*
X172105714Y-96305187D01*
X171753575Y-96305187D01*
X171398607Y-95950219D01*
X171043639Y-96305187D01*
X170691501Y-96305187D01*
X170336533Y-95950219D01*
X169981565Y-96305187D01*
X169640499Y-96305187D01*
X169640499Y-95951128D01*
X169634091Y-95891517D01*
X169632863Y-95888225D01*
X169608318Y-95822415D01*
X169600500Y-95779082D01*
X169600500Y-95752199D01*
X169873500Y-95752199D01*
X169892863Y-95804114D01*
X169895353Y-95811488D01*
X169895806Y-95812983D01*
X169897809Y-95820421D01*
X169901737Y-95837041D01*
X169903292Y-95844688D01*
X169903555Y-95846228D01*
X169904615Y-95853848D01*
X169912327Y-95925583D01*
X169912649Y-95929029D01*
X169912702Y-95929697D01*
X169912912Y-95932872D01*
X169913303Y-95940171D01*
X169913436Y-95943469D01*
X169913454Y-95944138D01*
X169913499Y-95947473D01*
X169913499Y-96021114D01*
X170160464Y-95774149D01*
X170160463Y-95774148D01*
X170512601Y-95774148D01*
X170867570Y-96129117D01*
X171222538Y-95774149D01*
X171222537Y-95774148D01*
X171574675Y-95774148D01*
X171929644Y-96129117D01*
X172284611Y-95774149D01*
X172636751Y-95774149D01*
X172991719Y-96129117D01*
X173346687Y-95774149D01*
X173698825Y-95774149D01*
X174053792Y-96129116D01*
X174264963Y-95917945D01*
X174044117Y-95526621D01*
X174042017Y-95522738D01*
X174039584Y-95518044D01*
X174037635Y-95514116D01*
X174012293Y-95460680D01*
X173698825Y-95774149D01*
X173346687Y-95774149D01*
X172991719Y-95419181D01*
X172636751Y-95774149D01*
X172284611Y-95774149D01*
X172284612Y-95774148D01*
X172086411Y-95575947D01*
X172081737Y-95578723D01*
X172064602Y-95588080D01*
X172056677Y-95592046D01*
X172055052Y-95592788D01*
X172046880Y-95596173D01*
X171894886Y-95652863D01*
X171887512Y-95655353D01*
X171886017Y-95655806D01*
X171878579Y-95657809D01*
X171861959Y-95661737D01*
X171854312Y-95663292D01*
X171852772Y-95663555D01*
X171845152Y-95664615D01*
X171773417Y-95672327D01*
X171769971Y-95672649D01*
X171769303Y-95672702D01*
X171766127Y-95672913D01*
X171758827Y-95673304D01*
X171755530Y-95673436D01*
X171754861Y-95673454D01*
X171751526Y-95673499D01*
X171675325Y-95673499D01*
X171574675Y-95774148D01*
X171222537Y-95774148D01*
X171121888Y-95673499D01*
X170613251Y-95673499D01*
X170512601Y-95774148D01*
X170160463Y-95774148D01*
X170059814Y-95673499D01*
X169873500Y-95673499D01*
X169873500Y-95752199D01*
X169600500Y-95752199D01*
X169600500Y-95501066D01*
X169620185Y-95434027D01*
X169640102Y-95416769D01*
X172279371Y-95416769D01*
X172460682Y-95598080D01*
X172815650Y-95243112D01*
X173167788Y-95243112D01*
X173522756Y-95598080D01*
X173877724Y-95243112D01*
X173522756Y-94888144D01*
X173167788Y-95243112D01*
X172815650Y-95243112D01*
X172473499Y-94900961D01*
X172473500Y-94951528D01*
X172473455Y-94954859D01*
X172473437Y-94955529D01*
X172473304Y-94958846D01*
X172472912Y-94966148D01*
X172472684Y-94969522D01*
X172472630Y-94970188D01*
X172472326Y-94973422D01*
X172464614Y-95045155D01*
X172463552Y-95052788D01*
X172463289Y-95054327D01*
X172461737Y-95061956D01*
X172457810Y-95078574D01*
X172455806Y-95086016D01*
X172455353Y-95087511D01*
X172452863Y-95094885D01*
X172396173Y-95246880D01*
X172392788Y-95255052D01*
X172392046Y-95256677D01*
X172388080Y-95264602D01*
X172378723Y-95281737D01*
X172374185Y-95289382D01*
X172373219Y-95290884D01*
X172368193Y-95298120D01*
X172279371Y-95416769D01*
X169640102Y-95416769D01*
X169672989Y-95388272D01*
X169742147Y-95378328D01*
X169767833Y-95384884D01*
X169792517Y-95394091D01*
X169792516Y-95394091D01*
X169798609Y-95394746D01*
X169852127Y-95400500D01*
X171747872Y-95400499D01*
X171807483Y-95394091D01*
X171942331Y-95343796D01*
X172057546Y-95257546D01*
X172143796Y-95142331D01*
X172194091Y-95007483D01*
X172200500Y-94947873D01*
X172200500Y-94712075D01*
X172636751Y-94712075D01*
X172991719Y-95067043D01*
X173346687Y-94712075D01*
X172991719Y-94357107D01*
X172636751Y-94712075D01*
X172200500Y-94712075D01*
X172200500Y-94523189D01*
X172473499Y-94523189D01*
X172815650Y-94181038D01*
X173167788Y-94181038D01*
X173522755Y-94536005D01*
X173674264Y-94384496D01*
X173672518Y-94373927D01*
X173671907Y-94369804D01*
X173641175Y-94134975D01*
X173640727Y-94131063D01*
X173637109Y-94094406D01*
X173636784Y-94090481D01*
X173626302Y-93933355D01*
X173626109Y-93929423D01*
X173522756Y-93826070D01*
X173167788Y-94181038D01*
X172815650Y-94181038D01*
X172473499Y-93838887D01*
X172473499Y-94523189D01*
X172200500Y-94523189D01*
X172200499Y-93650001D01*
X172636751Y-93650001D01*
X172991719Y-94004969D01*
X173346687Y-93650001D01*
X172991719Y-93295033D01*
X172636751Y-93650001D01*
X172200499Y-93650001D01*
X172200499Y-92852128D01*
X172194091Y-92792517D01*
X172187504Y-92774857D01*
X172185507Y-92769503D01*
X172466190Y-92769503D01*
X172472327Y-92826583D01*
X172472649Y-92830029D01*
X172472702Y-92830697D01*
X172472913Y-92833873D01*
X172473304Y-92841173D01*
X172473436Y-92844470D01*
X172473454Y-92845139D01*
X172473499Y-92848474D01*
X172473499Y-93461114D01*
X172815650Y-93118963D01*
X173167787Y-93118963D01*
X173522755Y-93473931D01*
X173651050Y-93345636D01*
X173662654Y-93232223D01*
X173663275Y-93227179D01*
X173664147Y-93221120D01*
X173664978Y-93216083D01*
X173681286Y-93128508D01*
X173682322Y-93123514D01*
X173683689Y-93117548D01*
X173684926Y-93112617D01*
X173724879Y-92966118D01*
X173522756Y-92763995D01*
X173167787Y-93118963D01*
X172815650Y-93118963D01*
X172466190Y-92769503D01*
X172185507Y-92769503D01*
X172143797Y-92657671D01*
X172143793Y-92657664D01*
X172091587Y-92587926D01*
X172636751Y-92587926D01*
X172991719Y-92942894D01*
X173346687Y-92587926D01*
X173698825Y-92587926D01*
X173800337Y-92689438D01*
X173836411Y-92557171D01*
X173837615Y-92553043D01*
X173839146Y-92548110D01*
X173840489Y-92544031D01*
X173865249Y-92473037D01*
X173866725Y-92469030D01*
X173868593Y-92464214D01*
X173870227Y-92460209D01*
X173902990Y-92383760D01*
X173698825Y-92587926D01*
X173346687Y-92587926D01*
X172991719Y-92232958D01*
X172636751Y-92587926D01*
X172091587Y-92587926D01*
X172057547Y-92542455D01*
X172057544Y-92542452D01*
X171942335Y-92456206D01*
X171942328Y-92456202D01*
X171807482Y-92405908D01*
X171807483Y-92405908D01*
X171747883Y-92399501D01*
X171747881Y-92399500D01*
X171747873Y-92399500D01*
X171747864Y-92399500D01*
X169852129Y-92399500D01*
X169852123Y-92399501D01*
X169792516Y-92405908D01*
X169754265Y-92420175D01*
X169684573Y-92425158D01*
X169623250Y-92391671D01*
X169591158Y-92336080D01*
X169587252Y-92321501D01*
X169559577Y-92218216D01*
X169525826Y-92159757D01*
X169480524Y-92081290D01*
X169480521Y-92081286D01*
X169480520Y-92081284D01*
X169456125Y-92056889D01*
X169981565Y-92056889D01*
X170051176Y-92126500D01*
X170621889Y-92126500D01*
X170691499Y-92056889D01*
X171043639Y-92056889D01*
X171113250Y-92126500D01*
X171683963Y-92126500D01*
X171753573Y-92056889D01*
X172105714Y-92056889D01*
X172460682Y-92411857D01*
X172815650Y-92056889D01*
X173167788Y-92056889D01*
X173522756Y-92411857D01*
X173877724Y-92056889D01*
X173522756Y-91701921D01*
X173167788Y-92056889D01*
X172815650Y-92056889D01*
X172460682Y-91701921D01*
X172105714Y-92056889D01*
X171753573Y-92056889D01*
X171753574Y-92056888D01*
X171398607Y-91701921D01*
X171043639Y-92056889D01*
X170691499Y-92056889D01*
X170691500Y-92056888D01*
X170336533Y-91701921D01*
X169981565Y-92056889D01*
X169456125Y-92056889D01*
X169368716Y-91969480D01*
X169368715Y-91969479D01*
X169364385Y-91965149D01*
X169364374Y-91965139D01*
X168925087Y-91525852D01*
X169450528Y-91525852D01*
X169805496Y-91880820D01*
X170160464Y-91525852D01*
X170512602Y-91525852D01*
X170867570Y-91880820D01*
X171222538Y-91525852D01*
X171574676Y-91525852D01*
X171929644Y-91880820D01*
X172284612Y-91525852D01*
X172636751Y-91525852D01*
X172991719Y-91880820D01*
X173346687Y-91525852D01*
X173698825Y-91525852D01*
X174053792Y-91880819D01*
X174289469Y-91645142D01*
X174382828Y-91499919D01*
X174053793Y-91170884D01*
X173698825Y-91525852D01*
X173346687Y-91525852D01*
X172991719Y-91170884D01*
X172636751Y-91525852D01*
X172284612Y-91525852D01*
X171929644Y-91170883D01*
X171574676Y-91525852D01*
X171222538Y-91525852D01*
X170867570Y-91170884D01*
X170512602Y-91525852D01*
X170160464Y-91525852D01*
X169805496Y-91170884D01*
X169450528Y-91525852D01*
X168925087Y-91525852D01*
X168394050Y-90994815D01*
X168919490Y-90994815D01*
X169274458Y-91349783D01*
X169629427Y-90994815D01*
X169981565Y-90994815D01*
X170336533Y-91349783D01*
X170691501Y-90994815D01*
X171043639Y-90994815D01*
X171398607Y-91349783D01*
X171753575Y-90994815D01*
X172105714Y-90994815D01*
X172460682Y-91349783D01*
X172815650Y-90994815D01*
X173167788Y-90994815D01*
X173522756Y-91349783D01*
X173877724Y-90994815D01*
X174229862Y-90994815D01*
X174532705Y-91297658D01*
X174533734Y-91296601D01*
X174887660Y-90942676D01*
X174584830Y-90639846D01*
X174229862Y-90994815D01*
X173877724Y-90994815D01*
X173522756Y-90639847D01*
X173167788Y-90994815D01*
X172815650Y-90994815D01*
X172460682Y-90639847D01*
X172105714Y-90994815D01*
X171753575Y-90994815D01*
X171398607Y-90639847D01*
X171043639Y-90994815D01*
X170691501Y-90994815D01*
X170336533Y-90639847D01*
X169981565Y-90994815D01*
X169629427Y-90994815D01*
X169274458Y-90639846D01*
X168919490Y-90994815D01*
X168394050Y-90994815D01*
X167863012Y-90463777D01*
X168388452Y-90463777D01*
X168743421Y-90818745D01*
X169098389Y-90463777D01*
X169450527Y-90463777D01*
X169805496Y-90818745D01*
X170160464Y-90463777D01*
X170512601Y-90463777D01*
X170867570Y-90818745D01*
X171222538Y-90463777D01*
X171574675Y-90463777D01*
X171929644Y-90818745D01*
X172284612Y-90463777D01*
X172636750Y-90463777D01*
X172991719Y-90818745D01*
X173346687Y-90463777D01*
X173698824Y-90463777D01*
X174053793Y-90818745D01*
X174408761Y-90463777D01*
X174760899Y-90463777D01*
X175077357Y-90780235D01*
X175294423Y-90601475D01*
X175298717Y-90598094D01*
X175303937Y-90594168D01*
X175308325Y-90591016D01*
X175386696Y-90537253D01*
X175391236Y-90534282D01*
X175396779Y-90530826D01*
X175401460Y-90528048D01*
X175413171Y-90521441D01*
X175470836Y-90463777D01*
X175115868Y-90108809D01*
X174760899Y-90463777D01*
X174408761Y-90463777D01*
X174053793Y-90108809D01*
X173698824Y-90463777D01*
X173346687Y-90463777D01*
X172991719Y-90108809D01*
X172636750Y-90463777D01*
X172284612Y-90463777D01*
X171929644Y-90108808D01*
X171574675Y-90463777D01*
X171222538Y-90463777D01*
X170867570Y-90108809D01*
X170512601Y-90463777D01*
X170160464Y-90463777D01*
X169805496Y-90108809D01*
X169450527Y-90463777D01*
X169098389Y-90463777D01*
X168743421Y-90108809D01*
X168388452Y-90463777D01*
X167863012Y-90463777D01*
X167331975Y-89932740D01*
X167857416Y-89932740D01*
X168212384Y-90287708D01*
X168567352Y-89932740D01*
X168567351Y-89932739D01*
X168919490Y-89932739D01*
X169274458Y-90287708D01*
X169629427Y-89932740D01*
X169981565Y-89932740D01*
X170336533Y-90287708D01*
X170691501Y-89932740D01*
X171043639Y-89932740D01*
X171398607Y-90287708D01*
X171753575Y-89932740D01*
X172105714Y-89932740D01*
X172460682Y-90287708D01*
X172815650Y-89932740D01*
X173167788Y-89932740D01*
X173522756Y-90287708D01*
X173877724Y-89932740D01*
X174229862Y-89932740D01*
X174584830Y-90287708D01*
X174939797Y-89932740D01*
X175291937Y-89932740D01*
X175646905Y-90287708D01*
X176001873Y-89932740D01*
X176354011Y-89932740D01*
X176469933Y-90048662D01*
X176698777Y-89984302D01*
X176703381Y-89983102D01*
X176746668Y-89972702D01*
X176751317Y-89971679D01*
X176906596Y-89940622D01*
X176910731Y-89939868D01*
X176949464Y-89933478D01*
X176953609Y-89932866D01*
X176954575Y-89932740D01*
X178478160Y-89932740D01*
X178554881Y-90009461D01*
X178776529Y-90069911D01*
X178780657Y-90071115D01*
X178785590Y-90072646D01*
X178789669Y-90073989D01*
X178860663Y-90098749D01*
X178864670Y-90100225D01*
X178869486Y-90102093D01*
X178873491Y-90103727D01*
X178974023Y-90146811D01*
X179188094Y-89932740D01*
X179540234Y-89932740D01*
X179895201Y-90287707D01*
X180250169Y-89932739D01*
X180240930Y-89923500D01*
X179549474Y-89923500D01*
X179540234Y-89932740D01*
X179188094Y-89932740D01*
X179188095Y-89932739D01*
X179178856Y-89923500D01*
X178487400Y-89923500D01*
X178478160Y-89932740D01*
X176954575Y-89932740D01*
X177025410Y-89923500D01*
X176363251Y-89923500D01*
X176354011Y-89932740D01*
X176001873Y-89932740D01*
X175992633Y-89923500D01*
X175301177Y-89923500D01*
X175291937Y-89932740D01*
X174939797Y-89932740D01*
X174939798Y-89932739D01*
X174930559Y-89923500D01*
X174239102Y-89923500D01*
X174229862Y-89932740D01*
X173877724Y-89932740D01*
X173868484Y-89923500D01*
X173177028Y-89923500D01*
X173167788Y-89932740D01*
X172815650Y-89932740D01*
X172806410Y-89923500D01*
X172114954Y-89923500D01*
X172105714Y-89932740D01*
X171753575Y-89932740D01*
X171744335Y-89923500D01*
X171052879Y-89923500D01*
X171043639Y-89932740D01*
X170691501Y-89932740D01*
X170682261Y-89923500D01*
X169990805Y-89923500D01*
X169981565Y-89932740D01*
X169629427Y-89932740D01*
X169620187Y-89923500D01*
X168928730Y-89923500D01*
X168919490Y-89932739D01*
X168567351Y-89932739D01*
X168558112Y-89923500D01*
X167866656Y-89923500D01*
X167857416Y-89932740D01*
X167331975Y-89932740D01*
X167261416Y-89862181D01*
X167227931Y-89800858D01*
X167232915Y-89731166D01*
X167274787Y-89675233D01*
X167340251Y-89650816D01*
X167349097Y-89650500D01*
X180384406Y-89650500D01*
X180451445Y-89670185D01*
G37*
%TD.AperFunction*%
%TA.AperFunction,Conductor*%
G36*
X131741441Y-89670185D02*
G01*
X131787196Y-89722989D01*
X131797140Y-89792147D01*
X131772776Y-89849988D01*
X131769482Y-89854280D01*
X131748463Y-89890686D01*
X131720069Y-89939868D01*
X131719749Y-89940422D01*
X131719747Y-89940424D01*
X131690425Y-89991209D01*
X131690423Y-89991213D01*
X131690423Y-89991215D01*
X131661712Y-90098365D01*
X131625346Y-90158025D01*
X131562499Y-90188553D01*
X131493123Y-90180258D01*
X131454256Y-90153951D01*
X131402732Y-90102427D01*
X131402728Y-90102424D01*
X131258492Y-90013457D01*
X131258481Y-90013452D01*
X131097606Y-89960144D01*
X130998322Y-89950000D01*
X130950000Y-89950000D01*
X130950000Y-90776000D01*
X130930315Y-90843039D01*
X130877511Y-90888794D01*
X130826000Y-90900000D01*
X130700000Y-90900000D01*
X130700000Y-91026000D01*
X130680315Y-91093039D01*
X130627511Y-91138794D01*
X130576000Y-91150000D01*
X129725001Y-91150000D01*
X129725001Y-91173322D01*
X129735144Y-91272607D01*
X129788452Y-91433481D01*
X129788457Y-91433492D01*
X129877424Y-91577728D01*
X129877427Y-91577732D01*
X129886660Y-91586965D01*
X129920145Y-91648288D01*
X129915161Y-91717980D01*
X129886663Y-91762324D01*
X129877033Y-91771953D01*
X129877029Y-91771959D01*
X129788001Y-91916294D01*
X129787996Y-91916305D01*
X129733032Y-92082178D01*
X129693259Y-92139623D01*
X129661515Y-92156448D01*
X129662130Y-92157932D01*
X129510827Y-92220602D01*
X129510814Y-92220609D01*
X129379711Y-92308210D01*
X129379707Y-92308213D01*
X129341259Y-92346662D01*
X129279936Y-92380147D01*
X129210244Y-92375163D01*
X129165897Y-92346662D01*
X128525354Y-91706119D01*
X128911434Y-91706119D01*
X129263104Y-92057789D01*
X129268137Y-92054426D01*
X128915632Y-91701921D01*
X128911434Y-91706119D01*
X128525354Y-91706119D01*
X127994317Y-91175082D01*
X128380397Y-91175082D01*
X128735365Y-91530050D01*
X128739563Y-91525852D01*
X128739562Y-91525851D01*
X129091700Y-91525851D01*
X129446668Y-91880819D01*
X129557476Y-91770011D01*
X129616374Y-91674523D01*
X129551925Y-91570036D01*
X129548293Y-91563743D01*
X129547603Y-91562462D01*
X129544391Y-91556062D01*
X129537672Y-91541653D01*
X129534812Y-91535022D01*
X129534275Y-91533670D01*
X129531811Y-91526902D01*
X129501669Y-91435941D01*
X129463863Y-91425812D01*
X129433955Y-91413424D01*
X129337043Y-91357471D01*
X129311363Y-91337765D01*
X129295575Y-91321977D01*
X129091700Y-91525851D01*
X128739562Y-91525851D01*
X128384595Y-91170884D01*
X128380397Y-91175082D01*
X127994317Y-91175082D01*
X127463279Y-90644044D01*
X127849359Y-90644044D01*
X128204326Y-90999011D01*
X128208523Y-90994815D01*
X128560664Y-90994815D01*
X128915631Y-91349782D01*
X129148607Y-91116806D01*
X129144188Y-91106137D01*
X129115225Y-90998045D01*
X129111000Y-90965952D01*
X129111000Y-90854048D01*
X129113191Y-90837406D01*
X128915632Y-90639847D01*
X128560664Y-90994815D01*
X128208523Y-90994815D01*
X128208524Y-90994814D01*
X127853556Y-90639846D01*
X127849359Y-90644044D01*
X127463279Y-90644044D01*
X126932242Y-90113007D01*
X127318322Y-90113007D01*
X127673290Y-90467975D01*
X127677488Y-90463777D01*
X128029626Y-90463777D01*
X128384595Y-90818745D01*
X128576663Y-90626677D01*
X129725000Y-90626677D01*
X129725000Y-90650000D01*
X130450000Y-90650000D01*
X130450000Y-89950000D01*
X130449999Y-89949999D01*
X130401693Y-89950000D01*
X130401675Y-89950001D01*
X130302392Y-89960144D01*
X130141518Y-90013452D01*
X130141507Y-90013457D01*
X129997271Y-90102424D01*
X129997267Y-90102427D01*
X129877427Y-90222267D01*
X129877424Y-90222271D01*
X129788457Y-90366507D01*
X129788452Y-90366518D01*
X129735144Y-90527393D01*
X129725000Y-90626677D01*
X128576663Y-90626677D01*
X128739563Y-90463777D01*
X129091700Y-90463777D01*
X129213587Y-90585663D01*
X129232235Y-90561363D01*
X129311363Y-90482235D01*
X129337043Y-90462529D01*
X129433955Y-90406576D01*
X129463862Y-90394188D01*
X129494396Y-90386005D01*
X129531811Y-90273099D01*
X129534275Y-90266330D01*
X129534812Y-90264978D01*
X129537672Y-90258347D01*
X129544391Y-90243938D01*
X129547603Y-90237538D01*
X129548293Y-90236257D01*
X129551924Y-90229965D01*
X129557990Y-90220130D01*
X129446669Y-90108809D01*
X129091700Y-90463777D01*
X128739563Y-90463777D01*
X128384595Y-90108809D01*
X128029626Y-90463777D01*
X127677488Y-90463777D01*
X127322520Y-90108809D01*
X127318322Y-90113007D01*
X126932242Y-90113007D01*
X126751975Y-89932740D01*
X127498589Y-89932740D01*
X127853557Y-90287708D01*
X128208524Y-89932740D01*
X128560664Y-89932740D01*
X128915632Y-90287708D01*
X129270600Y-89932740D01*
X129261360Y-89923500D01*
X128569904Y-89923500D01*
X128560664Y-89932740D01*
X128208524Y-89932740D01*
X128208525Y-89932739D01*
X128199286Y-89923500D01*
X127507829Y-89923500D01*
X127498589Y-89932740D01*
X126751975Y-89932740D01*
X126681416Y-89862181D01*
X126647931Y-89800858D01*
X126652915Y-89731166D01*
X126694787Y-89675233D01*
X126760251Y-89650816D01*
X126769097Y-89650500D01*
X131674402Y-89650500D01*
X131741441Y-89670185D01*
G37*
%TD.AperFunction*%
%TA.AperFunction,Conductor*%
G36*
X137910700Y-91211384D02*
G01*
X137926706Y-91225254D01*
X137963780Y-91242185D01*
X138057580Y-91285023D01*
X138057583Y-91285023D01*
X138057584Y-91285024D01*
X138200000Y-91305500D01*
X138200003Y-91305500D01*
X139646150Y-91305500D01*
X139713189Y-91325185D01*
X139758944Y-91377989D01*
X139768888Y-91447147D01*
X139753537Y-91491500D01*
X139740424Y-91514211D01*
X139740423Y-91514215D01*
X139699499Y-91666943D01*
X139699499Y-91666945D01*
X139699499Y-91835046D01*
X139699500Y-91835059D01*
X139699500Y-92106658D01*
X139690061Y-92154110D01*
X139657818Y-92231952D01*
X139613977Y-92286356D01*
X139547683Y-92308421D01*
X139543257Y-92308500D01*
X137666773Y-92308500D01*
X137599734Y-92288815D01*
X137553979Y-92236011D01*
X137544035Y-92166853D01*
X137559386Y-92122500D01*
X137603696Y-92045751D01*
X137603697Y-92045750D01*
X137603697Y-92045749D01*
X137603701Y-92045743D01*
X137654200Y-91923829D01*
X137688275Y-91796662D01*
X137705500Y-91665826D01*
X137705500Y-91305099D01*
X137725185Y-91238060D01*
X137777989Y-91192305D01*
X137847147Y-91182361D01*
X137910700Y-91211384D01*
G37*
%TD.AperFunction*%
%TA.AperFunction,Conductor*%
G36*
X117651445Y-89670185D02*
G01*
X117697200Y-89722989D01*
X117703740Y-89743262D01*
X117704320Y-89743107D01*
X117765592Y-89971779D01*
X117854632Y-90186740D01*
X117854636Y-90186750D01*
X117970970Y-90388248D01*
X118030551Y-90465894D01*
X118695884Y-89800561D01*
X118696740Y-89802626D01*
X118789762Y-89941844D01*
X118908156Y-90060238D01*
X119047374Y-90153260D01*
X119049437Y-90154114D01*
X118384104Y-90819446D01*
X118384104Y-90819447D01*
X118461752Y-90879029D01*
X118663249Y-90995363D01*
X118663259Y-90995367D01*
X118821562Y-91060939D01*
X118875965Y-91104780D01*
X118898030Y-91171074D01*
X118880751Y-91238773D01*
X118829614Y-91286384D01*
X118774109Y-91299500D01*
X115624499Y-91299500D01*
X115557460Y-91279815D01*
X115511705Y-91227011D01*
X115500499Y-91175500D01*
X115500499Y-90994815D01*
X115815771Y-90994815D01*
X115847456Y-91026500D01*
X116494022Y-91026500D01*
X116525707Y-90994815D01*
X116877846Y-90994815D01*
X116909531Y-91026500D01*
X117556097Y-91026500D01*
X117587782Y-90994815D01*
X117939920Y-90994815D01*
X117971605Y-91026500D01*
X118205488Y-91026500D01*
X118169054Y-90998543D01*
X118135179Y-90958615D01*
X118130089Y-90949091D01*
X118115717Y-90898755D01*
X118110811Y-90823923D01*
X117939920Y-90994815D01*
X117587782Y-90994815D01*
X117232814Y-90639847D01*
X116877846Y-90994815D01*
X116525707Y-90994815D01*
X116170739Y-90639847D01*
X115815771Y-90994815D01*
X115500499Y-90994815D01*
X115500499Y-90952129D01*
X115500498Y-90952123D01*
X115500172Y-90949091D01*
X115494091Y-90892517D01*
X115492702Y-90888794D01*
X115443797Y-90757671D01*
X115443793Y-90757664D01*
X115357547Y-90642455D01*
X115357544Y-90642452D01*
X115242335Y-90556206D01*
X115242328Y-90556202D01*
X115107482Y-90505908D01*
X115107483Y-90505908D01*
X115047883Y-90499501D01*
X115047881Y-90499500D01*
X115047873Y-90499500D01*
X115047865Y-90499500D01*
X113674500Y-90499500D01*
X113607461Y-90479815D01*
X113561706Y-90427011D01*
X113550500Y-90375500D01*
X113550500Y-90339762D01*
X115408747Y-90339762D01*
X115528964Y-90429757D01*
X115535859Y-90435314D01*
X115537208Y-90436483D01*
X115543683Y-90442512D01*
X115557488Y-90456317D01*
X115563517Y-90462792D01*
X115564686Y-90464141D01*
X115570243Y-90471036D01*
X115668193Y-90601880D01*
X115673219Y-90609116D01*
X115674185Y-90610618D01*
X115678723Y-90618263D01*
X115688080Y-90635398D01*
X115692046Y-90643323D01*
X115692788Y-90644948D01*
X115696173Y-90653120D01*
X115725825Y-90732621D01*
X115994670Y-90463777D01*
X116346807Y-90463777D01*
X116701776Y-90818745D01*
X117056744Y-90463777D01*
X117056743Y-90463776D01*
X117408882Y-90463776D01*
X117763851Y-90818745D01*
X117878612Y-90703984D01*
X117851455Y-90680945D01*
X117751668Y-90550901D01*
X117749213Y-90547588D01*
X117748737Y-90546923D01*
X117746466Y-90543641D01*
X117741500Y-90536209D01*
X117739289Y-90532778D01*
X117738857Y-90532083D01*
X117736783Y-90528622D01*
X117615976Y-90319377D01*
X117613981Y-90315785D01*
X117613596Y-90315064D01*
X117611768Y-90311505D01*
X117607815Y-90303490D01*
X117606077Y-90299816D01*
X117605739Y-90299070D01*
X117604126Y-90295348D01*
X117596272Y-90276387D01*
X117408882Y-90463776D01*
X117056743Y-90463776D01*
X116701776Y-90108808D01*
X116346807Y-90463777D01*
X115994670Y-90463777D01*
X115639701Y-90108808D01*
X115408747Y-90339762D01*
X113550500Y-90339762D01*
X113550500Y-90064618D01*
X113823500Y-90064618D01*
X113985382Y-90226500D01*
X114107798Y-90226500D01*
X114459937Y-90226500D01*
X114695319Y-90226500D01*
X114577628Y-90108809D01*
X114459937Y-90226500D01*
X114107798Y-90226500D01*
X114401557Y-89932740D01*
X114753697Y-89932740D01*
X115047457Y-90226500D01*
X115051529Y-90226500D01*
X115054859Y-90226545D01*
X115055529Y-90226563D01*
X115058846Y-90226696D01*
X115066148Y-90227088D01*
X115069522Y-90227316D01*
X115070188Y-90227370D01*
X115073422Y-90227674D01*
X115145155Y-90235386D01*
X115152788Y-90236448D01*
X115154327Y-90236711D01*
X115158759Y-90237612D01*
X115463631Y-89932740D01*
X115815771Y-89932740D01*
X116170739Y-90287708D01*
X116525707Y-89932740D01*
X116877846Y-89932740D01*
X117232813Y-90287707D01*
X117496862Y-90023658D01*
X117470025Y-89923500D01*
X116887086Y-89923500D01*
X116877846Y-89932740D01*
X116525707Y-89932740D01*
X116516467Y-89923500D01*
X115825011Y-89923500D01*
X115815771Y-89932740D01*
X115463631Y-89932740D01*
X115463632Y-89932739D01*
X115454393Y-89923500D01*
X114762937Y-89923500D01*
X114753697Y-89932740D01*
X114401557Y-89932740D01*
X114401558Y-89932739D01*
X114392319Y-89923500D01*
X113823500Y-89923500D01*
X113823500Y-90064618D01*
X113550500Y-90064618D01*
X113550500Y-89774500D01*
X113570185Y-89707461D01*
X113622989Y-89661706D01*
X113674500Y-89650500D01*
X117584406Y-89650500D01*
X117651445Y-89670185D01*
G37*
%TD.AperFunction*%
%TD*%
M02*
