%TF.GenerationSoftware,KiCad,Pcbnew,9.0.1*%
%TF.CreationDate,2026-07-06T00:47:40-05:00*%
%TF.ProjectId,VikFader75,56696b46-6164-4657-9237-352e6b696361,rev?*%
%TF.SameCoordinates,Original*%
%TF.FileFunction,Soldermask,Bot*%
%TF.FilePolarity,Negative*%
%FSLAX46Y46*%
G04 Gerber Fmt 4.6, Leading zero omitted, Abs format (unit mm)*
G04 Created by KiCad (PCBNEW 9.0.1) date 2026-07-06 00:47:40*
%MOMM*%
%LPD*%
G01*
G04 APERTURE LIST*
G04 Aperture macros list*
%AMRoundRect*
0 Rectangle with rounded corners*
0 $1 Rounding radius*
0 $2 $3 $4 $5 $6 $7 $8 $9 X,Y pos of 4 corners*
0 Add a 4 corners polygon primitive as box body*
4,1,4,$2,$3,$4,$5,$6,$7,$8,$9,$2,$3,0*
0 Add four circle primitives for the rounded corners*
1,1,$1+$1,$2,$3*
1,1,$1+$1,$4,$5*
1,1,$1+$1,$6,$7*
1,1,$1+$1,$8,$9*
0 Add four rect primitives between the rounded corners*
20,1,$1+$1,$2,$3,$4,$5,0*
20,1,$1+$1,$4,$5,$6,$7,0*
20,1,$1+$1,$6,$7,$8,$9,0*
20,1,$1+$1,$8,$9,$2,$3,0*%
%AMFreePoly0*
4,1,23,0.500000,-0.750000,0.000000,-0.750000,0.000000,-0.745722,-0.065263,-0.745722,-0.191342,-0.711940,-0.304381,-0.646677,-0.396677,-0.554381,-0.461940,-0.441342,-0.495722,-0.315263,-0.495722,-0.250000,-0.500000,-0.250000,-0.500000,0.250000,-0.495722,0.250000,-0.495722,0.315263,-0.461940,0.441342,-0.396677,0.554381,-0.304381,0.646677,-0.191342,0.711940,-0.065263,0.745722,0.000000,0.745722,
0.000000,0.750000,0.500000,0.750000,0.500000,-0.750000,0.500000,-0.750000,$1*%
%AMFreePoly1*
4,1,23,0.000000,0.745722,0.065263,0.745722,0.191342,0.711940,0.304381,0.646677,0.396677,0.554381,0.461940,0.441342,0.495722,0.315263,0.495722,0.250000,0.500000,0.250000,0.500000,-0.250000,0.495722,-0.250000,0.495722,-0.315263,0.461940,-0.441342,0.396677,-0.554381,0.304381,-0.646677,0.191342,-0.711940,0.065263,-0.745722,0.000000,-0.745722,0.000000,-0.750000,-0.500000,-0.750000,
-0.500000,0.750000,0.000000,0.750000,0.000000,0.745722,0.000000,0.745722,$1*%
%AMFreePoly2*
4,1,47,1.555255,2.102555,1.569900,2.067200,1.569640,2.062111,1.529740,1.672111,1.528238,1.664044,1.378238,1.114044,1.375957,1.107504,1.255957,0.827504,1.254721,0.824839,1.144721,0.604839,1.142059,0.600162,0.872059,0.180162,0.865355,0.171845,0.505355,-0.188155,0.501785,-0.191397,0.161785,-0.471397,0.154566,-0.476349,-0.235434,-0.696349,-0.241823,-0.699379,-0.651823,-0.859379,
-0.656463,-0.860933,-0.976463,-0.950933,-0.980194,-0.951829,-1.130194,-0.981829,-1.133533,-0.982380,-1.363533,-1.012380,-1.366674,-1.012689,-1.516674,-1.022689,-1.552925,-1.010429,-1.569889,-0.976126,-1.570000,-0.972800,-1.570000,-0.172800,-1.555355,-0.137445,-1.524975,-0.123048,-1.229758,-0.093526,-0.837751,0.024075,-0.583722,0.141319,-0.171905,0.396254,0.140480,0.728164,0.357960,1.064269,
0.493729,1.277620,0.620989,1.747504,0.670462,2.074676,0.690228,2.107444,0.719900,2.117200,1.519900,2.117200,1.555255,2.102555,1.555255,2.102555,$1*%
%AMFreePoly3*
4,1,47,-1.514899,1.026039,-1.124899,0.986039,-1.116842,0.984538,-0.566942,0.834538,-0.560410,0.832260,-0.280310,0.712260,-0.277631,0.711017,-0.057731,0.601017,-0.053067,0.598362,0.367033,0.328362,0.375355,0.321655,0.735355,-0.038345,0.738602,-0.041921,1.018502,-0.381921,1.023444,-0.389125,1.243544,-0.779125,1.246583,-0.785533,1.406483,-1.195533,1.408033,-1.200163,1.498033,-1.520163,
1.498929,-1.523894,1.528929,-1.673894,1.529477,-1.677212,1.559577,-1.907212,1.559889,-1.910372,1.569889,-2.060272,1.557630,-2.096524,1.523328,-2.113489,1.520000,-2.113600,0.719900,-2.113600,0.684545,-2.098955,0.670148,-2.068575,0.640626,-1.773355,0.523122,-1.381351,0.405787,-1.127434,0.150845,-0.715605,-0.181069,-0.403214,-0.517000,-0.185783,-0.730420,-0.049970,-1.200310,0.077291,
-1.527490,0.126864,-1.560253,0.146640,-1.570000,0.176300,-1.570000,0.976300,-1.555355,1.011655,-1.520000,1.026300,-1.514899,1.026039,-1.514899,1.026039,$1*%
%AMFreePoly4*
4,1,47,1.553025,1.010229,1.569989,0.975926,1.570100,0.972600,1.570100,0.172600,1.555455,0.137245,1.525075,0.122848,1.229855,0.093326,0.837846,-0.024178,0.583832,-0.141513,0.172005,-0.396454,-0.140380,-0.728364,-0.357860,-1.064469,-0.493629,-1.277820,-0.620891,-1.747710,-0.670464,-2.074890,-0.690240,-2.107653,-0.719900,-2.117400,-1.519900,-2.117400,-1.555255,-2.102755,-1.569900,-2.067400,
-1.569639,-2.062300,-1.529639,-1.672200,-1.528138,-1.664142,-1.378138,-1.114242,-1.375857,-1.107704,-1.255857,-0.827704,-1.254621,-0.825039,-1.144621,-0.605039,-1.141959,-0.600362,-0.871959,-0.180362,-0.865255,-0.172045,-0.505255,0.187955,-0.501685,0.191197,-0.161685,0.471197,-0.154466,0.476149,0.235534,0.696149,0.241923,0.699179,0.651923,0.859179,0.656563,0.860733,0.976563,0.950733,
0.980294,0.951629,1.130294,0.981629,1.133633,0.982180,1.363633,1.012180,1.366774,1.012489,1.516774,1.022489,1.553025,1.010229,1.553025,1.010229,$1*%
%AMFreePoly5*
4,1,47,-0.684645,2.098955,-0.670248,2.068575,-0.640726,1.773358,-0.523125,1.381356,-0.405881,1.127423,-0.150945,0.715605,0.180964,0.403219,0.517069,0.185739,0.730420,0.049970,1.200310,-0.077291,1.527490,-0.126864,1.560253,-0.146640,1.570000,-0.176300,1.570000,-0.976300,1.555355,-1.011655,1.520000,-1.026300,1.514899,-1.026039,1.124899,-0.986039,1.116844,-0.984538,0.566844,-0.834538,
0.560304,-0.832257,0.280304,-0.712257,0.277639,-0.711021,0.057639,-0.601021,0.052962,-0.598359,-0.367038,-0.328359,-0.375355,-0.321655,-0.735355,0.038345,-0.738597,0.041915,-1.018597,0.381915,-1.023549,0.389134,-1.243549,0.779134,-1.246579,0.785523,-1.406579,1.195523,-1.408133,1.200163,-1.498133,1.520163,-1.499029,1.523894,-1.529029,1.673894,-1.529580,1.677233,-1.559580,1.907233,
-1.559889,1.910372,-1.569889,2.060272,-1.557630,2.096524,-1.523328,2.113489,-1.520000,2.113600,-0.720000,2.113600,-0.684645,2.098955,-0.684645,2.098955,$1*%
G04 Aperture macros list end*
%ADD10R,1.350000X1.350000*%
%ADD11C,1.350000*%
%ADD12RoundRect,0.102000X-0.900000X-0.900000X0.900000X-0.900000X0.900000X0.900000X-0.900000X0.900000X0*%
%ADD13C,2.004000*%
%ADD14C,2.754000*%
%ADD15RoundRect,0.225000X0.250000X-0.225000X0.250000X0.225000X-0.250000X0.225000X-0.250000X-0.225000X0*%
%ADD16RoundRect,0.225000X0.225000X0.250000X-0.225000X0.250000X-0.225000X-0.250000X0.225000X-0.250000X0*%
%ADD17R,0.280000X1.250000*%
%ADD18R,1.800000X2.000000*%
%ADD19FreePoly0,270.000000*%
%ADD20FreePoly1,270.000000*%
%ADD21RoundRect,0.225000X-0.225000X-0.250000X0.225000X-0.250000X0.225000X0.250000X-0.225000X0.250000X0*%
%ADD22C,4.250000*%
%ADD23FreePoly2,180.000000*%
%ADD24FreePoly3,180.000000*%
%ADD25FreePoly4,180.000000*%
%ADD26FreePoly5,180.000000*%
%ADD27R,1.750000X1.650000*%
%ADD28R,0.250000X1.100000*%
G04 APERTURE END LIST*
%TO.C,JP2*%
G36*
X135700000Y-90800000D02*
G01*
X137200000Y-90800000D01*
X137200000Y-91100000D01*
X135700000Y-91100000D01*
X135700000Y-90800000D01*
G37*
%TO.C,JP4*%
G36*
X143200000Y-90800000D02*
G01*
X144700000Y-90800000D01*
X144700000Y-91100000D01*
X143200000Y-91100000D01*
X143200000Y-90800000D01*
G37*
%TO.C,JP3*%
G36*
X140700000Y-90800000D02*
G01*
X142200000Y-90800000D01*
X142200000Y-91100000D01*
X140700000Y-91100000D01*
X140700000Y-90800000D01*
G37*
%TO.C,JP5*%
G36*
X145070000Y-96460000D02*
G01*
X146570000Y-96460000D01*
X146570000Y-96760000D01*
X145070000Y-96760000D01*
X145070000Y-96460000D01*
G37*
%TO.C,JP1*%
G36*
X138200000Y-90800000D02*
G01*
X139700000Y-90800000D01*
X139700000Y-91100000D01*
X138200000Y-91100000D01*
X138200000Y-90800000D01*
G37*
%TD*%
D10*
%TO.C,J3*%
X137400000Y-94300000D03*
D11*
X139400000Y-94300000D03*
X141400000Y-94300000D03*
X143400000Y-94300000D03*
%TD*%
D12*
%TO.C,R1*%
X114100000Y-91900000D03*
D13*
X114100000Y-95400000D03*
D14*
X118250000Y-97900000D03*
X119450000Y-89400000D03*
X182250000Y-89400000D03*
X183450000Y-97900000D03*
D13*
X187600000Y-91900000D03*
%TD*%
D15*
%TO.C,C1*%
X130700000Y-92450000D03*
X130700000Y-90900000D03*
%TD*%
D16*
%TO.C,R2*%
X139790000Y-96210000D03*
X138240000Y-96210000D03*
%TD*%
D17*
%TO.C,J1*%
X155300000Y-90500000D03*
X154800000Y-90500000D03*
X154300000Y-90500000D03*
X153800000Y-90500000D03*
X153300000Y-90500000D03*
X152800000Y-90500000D03*
X152300000Y-90500000D03*
X151800000Y-90500000D03*
X151300000Y-90500000D03*
X150800000Y-90500000D03*
X150300000Y-90500000D03*
X149800000Y-90500000D03*
D18*
X148000000Y-93224000D03*
X157100000Y-93224000D03*
%TD*%
D19*
%TO.C,JP2*%
X136450000Y-90300000D03*
D20*
X136450000Y-91600000D03*
%TD*%
D19*
%TO.C,JP4*%
X143950000Y-90300000D03*
D20*
X143950000Y-91600000D03*
%TD*%
D21*
%TO.C,R3*%
X141240000Y-96210000D03*
X142790000Y-96210000D03*
%TD*%
%TO.C,R4*%
X129195000Y-94480000D03*
X130745000Y-94480000D03*
%TD*%
%TO.C,C2*%
X132875000Y-96850000D03*
X134425000Y-96850000D03*
%TD*%
D22*
%TO.C,H1*%
X177530000Y-93780800D03*
D23*
X175916800Y-91637300D03*
D24*
X175923400Y-95950000D03*
D25*
X179163200Y-95944900D03*
D26*
X179149200Y-91606600D03*
%TD*%
D19*
%TO.C,JP3*%
X141450000Y-90300000D03*
D20*
X141450000Y-91600000D03*
%TD*%
D22*
%TO.C,H2*%
X124373400Y-93780800D03*
D23*
X122760200Y-91637300D03*
D24*
X122766800Y-95950000D03*
D25*
X126006600Y-95944900D03*
D26*
X125992600Y-91606600D03*
%TD*%
D17*
%TO.C,J2*%
X163500000Y-96624000D03*
X164000000Y-96624000D03*
X164500000Y-96624000D03*
X165000000Y-96624000D03*
X165500000Y-96624000D03*
X166000000Y-96624000D03*
X166500000Y-96624000D03*
X167000000Y-96624000D03*
X167500000Y-96624000D03*
X168000000Y-96624000D03*
X168500000Y-96624000D03*
X169000000Y-96624000D03*
D18*
X170800000Y-93900000D03*
D27*
X161630000Y-93800000D03*
%TD*%
D28*
%TO.C,U1*%
X132250000Y-91000000D03*
X132750000Y-91000000D03*
X133250000Y-91000000D03*
X133750000Y-91000000D03*
X134250000Y-91000000D03*
X134250000Y-95300000D03*
X133750000Y-95300000D03*
X133250000Y-95300000D03*
X132750000Y-95300000D03*
X132250000Y-95300000D03*
%TD*%
D19*
%TO.C,JP5*%
X145820000Y-95960000D03*
D20*
X145820000Y-97260000D03*
%TD*%
D19*
%TO.C,JP1*%
X138950000Y-90300000D03*
D20*
X138950000Y-91600000D03*
%TD*%
M02*
