%TF.GenerationSoftware,KiCad,Pcbnew,9.0.1*%
%TF.CreationDate,2026-07-06T00:47:40-05:00*%
%TF.ProjectId,VikFader75,56696b46-6164-4657-9237-352e6b696361,rev?*%
%TF.SameCoordinates,Original*%
%TF.FileFunction,Paste,Bot*%
%TF.FilePolarity,Positive*%
%FSLAX46Y46*%
G04 Gerber Fmt 4.6, Leading zero omitted, Abs format (unit mm)*
G04 Created by KiCad (PCBNEW 9.0.1) date 2026-07-06 00:47:40*
%MOMM*%
%LPD*%
G01*
G04 APERTURE LIST*
G04 Aperture macros list*
%AMRoundRect*
0 Rectangle with rounded corners*
0 $1 Rounding radius*
0 $2 $3 $4 $5 $6 $7 $8 $9 X,Y pos of 4 corners*
0 Add a 4 corners polygon primitive as box body*
4,1,4,$2,$3,$4,$5,$6,$7,$8,$9,$2,$3,0*
0 Add four circle primitives for the rounded corners*
1,1,$1+$1,$2,$3*
1,1,$1+$1,$4,$5*
1,1,$1+$1,$6,$7*
1,1,$1+$1,$8,$9*
0 Add four rect primitives between the rounded corners*
20,1,$1+$1,$2,$3,$4,$5,0*
20,1,$1+$1,$4,$5,$6,$7,0*
20,1,$1+$1,$6,$7,$8,$9,0*
20,1,$1+$1,$8,$9,$2,$3,0*%
%AMFreePoly0*
4,1,25,1.480000,1.677200,1.330000,1.127200,1.210000,0.847200,1.100000,0.627200,0.830000,0.207200,0.470000,-0.152800,0.130000,-0.432800,-0.260000,-0.652800,-0.670000,-0.812800,-0.990000,-0.902800,-1.140000,-0.932800,-1.370000,-0.962800,-1.520000,-0.972800,-1.520000,-0.172800,-1.220000,-0.142800,-0.820000,-0.022800,-0.560000,0.097200,-0.140000,0.357200,0.180000,0.697200,0.400000,1.037200,
0.540000,1.257200,0.670000,1.737200,0.719900,2.067200,1.519900,2.067200,1.480000,1.677200,1.480000,1.677200,$1*%
%AMFreePoly1*
4,1,25,-1.130000,0.936300,-0.580100,0.786300,-0.300000,0.666300,-0.080100,0.556300,0.340000,0.286300,0.700000,-0.073700,0.979900,-0.413700,1.200000,-0.803700,1.359900,-1.213700,1.449900,-1.533700,1.479900,-1.683700,1.510000,-1.913700,1.520000,-2.063600,0.719900,-2.063600,0.689900,-1.763600,0.570000,-1.363600,0.449900,-1.103700,0.189900,-0.683700,-0.150100,-0.363700,-0.490000,-0.143700,
-0.710000,-0.003700,-1.190000,0.126300,-1.520000,0.176300,-1.520000,0.976300,-1.130000,0.936300,-1.130000,0.936300,$1*%
%AMFreePoly2*
4,1,25,1.520100,0.172600,1.220100,0.142600,0.820100,0.022700,0.560100,-0.097400,0.140100,-0.357400,-0.179900,-0.697400,-0.399900,-1.037400,-0.539900,-1.257400,-0.669900,-1.737400,-0.719900,-2.067400,-1.519900,-2.067400,-1.479900,-1.677300,-1.329900,-1.127400,-1.209900,-0.847400,-1.099900,-0.627400,-0.829900,-0.207400,-0.469900,0.152600,-0.129900,0.432600,0.260100,0.652600,0.670100,0.812600,
0.990100,0.902600,1.140100,0.932600,1.370100,0.962600,1.520100,0.972600,1.520100,0.172600,1.520100,0.172600,$1*%
%AMFreePoly3*
4,1,25,-0.690000,1.763600,-0.570000,1.363600,-0.450000,1.103700,-0.190000,0.683700,0.150000,0.363700,0.490000,0.143700,0.710000,0.003700,1.190000,-0.126300,1.520000,-0.176300,1.520000,-0.976300,1.130000,-0.936300,0.580000,-0.786300,0.300000,-0.666300,0.080000,-0.556300,-0.340000,-0.286300,-0.700000,0.073700,-0.980000,0.413700,-1.200000,0.803700,-1.360000,1.213700,-1.450000,1.533700,
-1.480000,1.683700,-1.510000,1.913700,-1.520000,2.063600,-0.720000,2.063600,-0.690000,1.763600,-0.690000,1.763600,$1*%
G04 Aperture macros list end*
%ADD10RoundRect,0.225000X0.250000X-0.225000X0.250000X0.225000X-0.250000X0.225000X-0.250000X-0.225000X0*%
%ADD11RoundRect,0.225000X0.225000X0.250000X-0.225000X0.250000X-0.225000X-0.250000X0.225000X-0.250000X0*%
%ADD12R,0.280000X1.250000*%
%ADD13R,1.800000X2.000000*%
%ADD14RoundRect,0.225000X-0.225000X-0.250000X0.225000X-0.250000X0.225000X0.250000X-0.225000X0.250000X0*%
%ADD15FreePoly0,180.000000*%
%ADD16FreePoly1,180.000000*%
%ADD17FreePoly2,180.000000*%
%ADD18FreePoly3,180.000000*%
%ADD19R,1.750000X1.650000*%
%ADD20R,0.250000X1.100000*%
G04 APERTURE END LIST*
D10*
%TO.C,C1*%
X130700000Y-92450000D03*
X130700000Y-90900000D03*
%TD*%
D11*
%TO.C,R2*%
X139790000Y-96210000D03*
X138240000Y-96210000D03*
%TD*%
D12*
%TO.C,J1*%
X155300000Y-90500000D03*
X154800000Y-90500000D03*
X154300000Y-90500000D03*
X153800000Y-90500000D03*
X153300000Y-90500000D03*
X152800000Y-90500000D03*
X152300000Y-90500000D03*
X151800000Y-90500000D03*
X151300000Y-90500000D03*
X150800000Y-90500000D03*
X150300000Y-90500000D03*
X149800000Y-90500000D03*
D13*
X148000000Y-93224000D03*
X157100000Y-93224000D03*
%TD*%
D14*
%TO.C,R3*%
X141240000Y-96210000D03*
X142790000Y-96210000D03*
%TD*%
%TO.C,R4*%
X129195000Y-94480000D03*
X130745000Y-94480000D03*
%TD*%
%TO.C,C2*%
X132875000Y-96850000D03*
X134425000Y-96850000D03*
%TD*%
D15*
%TO.C,H1*%
X175916800Y-91637300D03*
D16*
X175923400Y-95950000D03*
D17*
X179163200Y-95944900D03*
D18*
X179149200Y-91606600D03*
%TD*%
D15*
%TO.C,H2*%
X122760200Y-91637300D03*
D16*
X122766800Y-95950000D03*
D17*
X126006600Y-95944900D03*
D18*
X125992600Y-91606600D03*
%TD*%
D12*
%TO.C,J2*%
X163500000Y-96624000D03*
X164000000Y-96624000D03*
X164500000Y-96624000D03*
X165000000Y-96624000D03*
X165500000Y-96624000D03*
X166000000Y-96624000D03*
X166500000Y-96624000D03*
X167000000Y-96624000D03*
X167500000Y-96624000D03*
X168000000Y-96624000D03*
X168500000Y-96624000D03*
X169000000Y-96624000D03*
D13*
X170800000Y-93900000D03*
D19*
X161630000Y-93800000D03*
%TD*%
D20*
%TO.C,U1*%
X132250000Y-91000000D03*
X132750000Y-91000000D03*
X133250000Y-91000000D03*
X133750000Y-91000000D03*
X134250000Y-91000000D03*
X134250000Y-95300000D03*
X133750000Y-95300000D03*
X133250000Y-95300000D03*
X132750000Y-95300000D03*
X132250000Y-95300000D03*
%TD*%
M02*
