M48
; DRILL file {KiCad 9.0.1} date 2026-07-06T00:47:40-0500
; FORMAT={-:-/ absolute / inch / decimal}
; #@! TF.CreationDate,2026-07-06T00:47:40-05:00
; #@! TF.GenerationSoftware,Kicad,Pcbnew,9.0.1
; #@! TF.FileFunction,Plated,1,2,PTH
FMAT,2
INCH
; #@! TA.AperFunction,Plated,PTH,ViaDrill
T1C0.0118
; #@! TA.AperFunction,Plated,PTH,ComponentDrill
T2C0.0315
; #@! TA.AperFunction,Plated,PTH,ComponentDrill
T3C0.0472
; #@! TA.AperFunction,Plated,PTH,ComponentDrill
T4C0.0669
%
G90
G05
T1
X5.1047Y-3.5791
X5.1138Y-3.6587
X5.1849Y-3.6839
X5.2421Y-3.6208
X5.2894Y-3.6268
X5.3099Y-3.7279
X5.3276Y-3.813
X5.3508Y-3.702
X5.3512Y-3.65
X5.4362Y-3.6342
X5.5283Y-3.6411
X5.626Y-3.6457
X5.713Y-3.7191
X5.8931Y-3.6746
X5.8933Y-3.7061
X5.9213Y-3.6359
X5.9926Y-3.6626
X6.0016Y-3.6965
X6.4544Y-3.7638
T2
X5.4094Y-3.7126
X5.4882Y-3.7126
X5.5669Y-3.7126
X5.6457Y-3.7126
T3
X4.4921Y-3.6181
X4.4921Y-3.7559
X7.3858Y-3.6181
T4
X4.6555Y-3.8543
X4.7028Y-3.5197
X7.1752Y-3.5197
X7.2224Y-3.8543
M30
