%TF.GenerationSoftware,KiCad,Pcbnew,9.0.1*%
%TF.CreationDate,2026-07-07T19:05:12-05:00*%
%TF.ProjectId,VikFader75,56696b46-6164-4657-9237-352e6b696361,rev?*%
%TF.SameCoordinates,Original*%
%TF.FileFunction,Paste,Bot*%
%TF.FilePolarity,Positive*%
%FSLAX46Y46*%
G04 Gerber Fmt 4.6, Leading zero omitted, Abs format (unit mm)*
G04 Created by KiCad (PCBNEW 9.0.1) date 2026-07-07 19:05:12*
%MOMM*%
%LPD*%
G01*
G04 APERTURE LIST*
G04 Aperture macros list*
%AMRoundRect*
0 Rectangle with rounded corners*
0 $1 Rounding radius*
0 $2 $3 $4 $5 $6 $7 $8 $9 X,Y pos of 4 corners*
0 Add a 4 corners polygon primitive as box body*
4,1,4,$2,$3,$4,$5,$6,$7,$8,$9,$2,$3,0*
0 Add four circle primitives for the rounded corners*
1,1,$1+$1,$2,$3*
1,1,$1+$1,$4,$5*
1,1,$1+$1,$6,$7*
1,1,$1+$1,$8,$9*
0 Add four rect primitives between the rounded corners*
20,1,$1+$1,$2,$3,$4,$5,0*
20,1,$1+$1,$4,$5,$6,$7,0*
20,1,$1+$1,$6,$7,$8,$9,0*
20,1,$1+$1,$8,$9,$2,$3,0*%
%AMFreePoly0*
4,1,25,1.480000,1.677200,1.330000,1.127200,1.210000,0.847200,1.100000,0.627200,0.830000,0.207200,0.470000,-0.152800,0.130000,-0.432800,-0.260000,-0.652800,-0.670000,-0.812800,-0.990000,-0.902800,-1.140000,-0.932800,-1.370000,-0.962800,-1.520000,-0.972800,-1.520000,-0.172800,-1.220000,-0.142800,-0.820000,-0.022800,-0.560000,0.097200,-0.140000,0.357200,0.180000,0.697200,0.400000,1.037200,
0.540000,1.257200,0.670000,1.737200,0.719900,2.067200,1.519900,2.067200,1.480000,1.677200,1.480000,1.677200,$1*%
%AMFreePoly1*
4,1,25,-1.130000,0.936300,-0.580100,0.786300,-0.300000,0.666300,-0.080100,0.556300,0.340000,0.286300,0.700000,-0.073700,0.979900,-0.413700,1.200000,-0.803700,1.359900,-1.213700,1.449900,-1.533700,1.479900,-1.683700,1.510000,-1.913700,1.520000,-2.063600,0.719900,-2.063600,0.689900,-1.763600,0.570000,-1.363600,0.449900,-1.103700,0.189900,-0.683700,-0.150100,-0.363700,-0.490000,-0.143700,
-0.710000,-0.003700,-1.190000,0.126300,-1.520000,0.176300,-1.520000,0.976300,-1.130000,0.936300,-1.130000,0.936300,$1*%
%AMFreePoly2*
4,1,25,1.520100,0.172600,1.220100,0.142600,0.820100,0.022700,0.560100,-0.097400,0.140100,-0.357400,-0.179900,-0.697400,-0.399900,-1.037400,-0.539900,-1.257400,-0.669900,-1.737400,-0.719900,-2.067400,-1.519900,-2.067400,-1.479900,-1.677300,-1.329900,-1.127400,-1.209900,-0.847400,-1.099900,-0.627400,-0.829900,-0.207400,-0.469900,0.152600,-0.129900,0.432600,0.260100,0.652600,0.670100,0.812600,
0.990100,0.902600,1.140100,0.932600,1.370100,0.962600,1.520100,0.972600,1.520100,0.172600,1.520100,0.172600,$1*%
%AMFreePoly3*
4,1,25,-0.690000,1.763600,-0.570000,1.363600,-0.450000,1.103700,-0.190000,0.683700,0.150000,0.363700,0.490000,0.143700,0.710000,0.003700,1.190000,-0.126300,1.520000,-0.176300,1.520000,-0.976300,1.130000,-0.936300,0.580000,-0.786300,0.300000,-0.666300,0.080000,-0.556300,-0.340000,-0.286300,-0.700000,0.073700,-0.980000,0.413700,-1.200000,0.803700,-1.360000,1.213700,-1.450000,1.533700,
-1.480000,1.683700,-1.510000,1.913700,-1.520000,2.063600,-0.720000,2.063600,-0.690000,1.763600,-0.690000,1.763600,$1*%
G04 Aperture macros list end*
%ADD10RoundRect,0.225000X0.250000X-0.225000X0.250000X0.225000X-0.250000X0.225000X-0.250000X-0.225000X0*%
%ADD11RoundRect,0.200000X-0.200000X-0.275000X0.200000X-0.275000X0.200000X0.275000X-0.200000X0.275000X0*%
%ADD12RoundRect,0.250000X0.262500X0.450000X-0.262500X0.450000X-0.262500X-0.450000X0.262500X-0.450000X0*%
%ADD13R,0.280000X1.250000*%
%ADD14R,1.800000X2.000000*%
%ADD15RoundRect,0.200000X0.200000X0.275000X-0.200000X0.275000X-0.200000X-0.275000X0.200000X-0.275000X0*%
%ADD16RoundRect,0.250000X-0.262500X-0.450000X0.262500X-0.450000X0.262500X0.450000X-0.262500X0.450000X0*%
%ADD17RoundRect,0.225000X-0.225000X-0.250000X0.225000X-0.250000X0.225000X0.250000X-0.225000X0.250000X0*%
%ADD18FreePoly0,180.000000*%
%ADD19FreePoly1,180.000000*%
%ADD20FreePoly2,180.000000*%
%ADD21FreePoly3,180.000000*%
%ADD22RoundRect,0.150000X0.587500X0.150000X-0.587500X0.150000X-0.587500X-0.150000X0.587500X-0.150000X0*%
%ADD23R,0.250000X1.100000*%
G04 APERTURE END LIST*
D10*
%TO.C,C1*%
X135230000Y-92295000D03*
X135230000Y-90745000D03*
%TD*%
D11*
%TO.C,R5*%
X133845000Y-96070000D03*
X135495000Y-96070000D03*
%TD*%
D12*
%TO.C,R2*%
X149470000Y-96480000D03*
X147645000Y-96480000D03*
%TD*%
D13*
%TO.C,J1*%
X169290000Y-90312000D03*
X168790000Y-90312000D03*
X168290000Y-90312000D03*
X167790000Y-90312000D03*
X167290000Y-90312000D03*
X166790000Y-90312000D03*
X166290000Y-90312000D03*
X165790000Y-90312000D03*
X165290000Y-90312000D03*
X164790000Y-90312000D03*
X164290000Y-90312000D03*
X163790000Y-90312000D03*
D14*
X161990000Y-93036000D03*
X171090000Y-93036000D03*
%TD*%
D15*
%TO.C,R6*%
X132355000Y-96060000D03*
X130705000Y-96060000D03*
%TD*%
D16*
%TO.C,R3*%
X151397500Y-96480000D03*
X153222500Y-96480000D03*
%TD*%
D11*
%TO.C,R4*%
X133745000Y-93780000D03*
X135395000Y-93780000D03*
%TD*%
D17*
%TO.C,C2*%
X137795000Y-97010000D03*
X139345000Y-97010000D03*
%TD*%
D18*
%TO.C,H1*%
X175916800Y-91637300D03*
D19*
X175923400Y-95950000D03*
D20*
X179163200Y-95944900D03*
D21*
X179149200Y-91606600D03*
%TD*%
D12*
%TO.C,R7*%
X142730000Y-90270000D03*
X140905000Y-90270000D03*
%TD*%
D18*
%TO.C,H2*%
X122760200Y-91637300D03*
D19*
X122766800Y-95950000D03*
D20*
X126006600Y-95944900D03*
D21*
X125992600Y-91606600D03*
%TD*%
D22*
%TO.C,Q1*%
X131300000Y-92630000D03*
X131300000Y-94530000D03*
X129425000Y-93580000D03*
%TD*%
D23*
%TO.C,U1*%
X137170000Y-91160000D03*
X137670000Y-91160000D03*
X138170000Y-91160000D03*
X138670000Y-91160000D03*
X139170000Y-91160000D03*
X139170000Y-95460000D03*
X138670000Y-95460000D03*
X138170000Y-95460000D03*
X137670000Y-95460000D03*
X137170000Y-95460000D03*
%TD*%
M02*
