%TF.GenerationSoftware,KiCad,Pcbnew,9.0.1*%
%TF.CreationDate,2026-07-07T19:05:12-05:00*%
%TF.ProjectId,VikFader75,56696b46-6164-4657-9237-352e6b696361,rev?*%
%TF.SameCoordinates,Original*%
%TF.FileFunction,Copper,L2,Bot*%
%TF.FilePolarity,Positive*%
%FSLAX46Y46*%
G04 Gerber Fmt 4.6, Leading zero omitted, Abs format (unit mm)*
G04 Created by KiCad (PCBNEW 9.0.1) date 2026-07-07 19:05:12*
%MOMM*%
%LPD*%
G01*
G04 APERTURE LIST*
G04 Aperture macros list*
%AMRoundRect*
0 Rectangle with rounded corners*
0 $1 Rounding radius*
0 $2 $3 $4 $5 $6 $7 $8 $9 X,Y pos of 4 corners*
0 Add a 4 corners polygon primitive as box body*
4,1,4,$2,$3,$4,$5,$6,$7,$8,$9,$2,$3,0*
0 Add four circle primitives for the rounded corners*
1,1,$1+$1,$2,$3*
1,1,$1+$1,$4,$5*
1,1,$1+$1,$6,$7*
1,1,$1+$1,$8,$9*
0 Add four rect primitives between the rounded corners*
20,1,$1+$1,$2,$3,$4,$5,0*
20,1,$1+$1,$4,$5,$6,$7,0*
20,1,$1+$1,$6,$7,$8,$9,0*
20,1,$1+$1,$8,$9,$2,$3,0*%
%AMFreePoly0*
4,1,25,1.480000,1.677200,1.330000,1.127200,1.210000,0.847200,1.100000,0.627200,0.830000,0.207200,0.470000,-0.152800,0.130000,-0.432800,-0.260000,-0.652800,-0.670000,-0.812800,-0.990000,-0.902800,-1.140000,-0.932800,-1.370000,-0.962800,-1.520000,-0.972800,-1.520000,-0.172800,-1.220000,-0.142800,-0.820000,-0.022800,-0.560000,0.097200,-0.140000,0.357200,0.180000,0.697200,0.400000,1.037200,
0.540000,1.257200,0.670000,1.737200,0.719900,2.067200,1.519900,2.067200,1.480000,1.677200,1.480000,1.677200,$1*%
%AMFreePoly1*
4,1,25,-1.130000,0.936300,-0.580100,0.786300,-0.300000,0.666300,-0.080100,0.556300,0.340000,0.286300,0.700000,-0.073700,0.979900,-0.413700,1.200000,-0.803700,1.359900,-1.213700,1.449900,-1.533700,1.479900,-1.683700,1.510000,-1.913700,1.520000,-2.063600,0.719900,-2.063600,0.689900,-1.763600,0.570000,-1.363600,0.449900,-1.103700,0.189900,-0.683700,-0.150100,-0.363700,-0.490000,-0.143700,
-0.710000,-0.003700,-1.190000,0.126300,-1.520000,0.176300,-1.520000,0.976300,-1.130000,0.936300,-1.130000,0.936300,$1*%
%AMFreePoly2*
4,1,25,1.520100,0.172600,1.220100,0.142600,0.820100,0.022700,0.560100,-0.097400,0.140100,-0.357400,-0.179900,-0.697400,-0.399900,-1.037400,-0.539900,-1.257400,-0.669900,-1.737400,-0.719900,-2.067400,-1.519900,-2.067400,-1.479900,-1.677300,-1.329900,-1.127400,-1.209900,-0.847400,-1.099900,-0.627400,-0.829900,-0.207400,-0.469900,0.152600,-0.129900,0.432600,0.260100,0.652600,0.670100,0.812600,
0.990100,0.902600,1.140100,0.932600,1.370100,0.962600,1.520100,0.972600,1.520100,0.172600,1.520100,0.172600,$1*%
%AMFreePoly3*
4,1,25,-0.690000,1.763600,-0.570000,1.363600,-0.450000,1.103700,-0.190000,0.683700,0.150000,0.363700,0.490000,0.143700,0.710000,0.003700,1.190000,-0.126300,1.520000,-0.176300,1.520000,-0.976300,1.130000,-0.936300,0.580000,-0.786300,0.300000,-0.666300,0.080000,-0.556300,-0.340000,-0.286300,-0.700000,0.073700,-0.980000,0.413700,-1.200000,0.803700,-1.360000,1.213700,-1.450000,1.533700,
-1.480000,1.683700,-1.510000,1.913700,-1.520000,2.063600,-0.720000,2.063600,-0.690000,1.763600,-0.690000,1.763600,$1*%
G04 Aperture macros list end*
%TA.AperFunction,ComponentPad*%
%ADD10R,1.800000X1.800000*%
%TD*%
%TA.AperFunction,ComponentPad*%
%ADD11C,1.800000*%
%TD*%
%TA.AperFunction,ComponentPad*%
%ADD12C,2.550000*%
%TD*%
%TA.AperFunction,SMDPad,CuDef*%
%ADD13RoundRect,0.225000X0.250000X-0.225000X0.250000X0.225000X-0.250000X0.225000X-0.250000X-0.225000X0*%
%TD*%
%TA.AperFunction,SMDPad,CuDef*%
%ADD14RoundRect,0.200000X-0.200000X-0.275000X0.200000X-0.275000X0.200000X0.275000X-0.200000X0.275000X0*%
%TD*%
%TA.AperFunction,ComponentPad*%
%ADD15R,1.700000X1.700000*%
%TD*%
%TA.AperFunction,ComponentPad*%
%ADD16C,1.700000*%
%TD*%
%TA.AperFunction,SMDPad,CuDef*%
%ADD17RoundRect,0.250000X0.262500X0.450000X-0.262500X0.450000X-0.262500X-0.450000X0.262500X-0.450000X0*%
%TD*%
%TA.AperFunction,SMDPad,CuDef*%
%ADD18R,0.280000X1.250000*%
%TD*%
%TA.AperFunction,SMDPad,CuDef*%
%ADD19R,1.800000X2.000000*%
%TD*%
%TA.AperFunction,SMDPad,CuDef*%
%ADD20RoundRect,0.200000X0.200000X0.275000X-0.200000X0.275000X-0.200000X-0.275000X0.200000X-0.275000X0*%
%TD*%
%TA.AperFunction,SMDPad,CuDef*%
%ADD21RoundRect,0.250000X-0.262500X-0.450000X0.262500X-0.450000X0.262500X0.450000X-0.262500X0.450000X0*%
%TD*%
%TA.AperFunction,SMDPad,CuDef*%
%ADD22RoundRect,0.225000X-0.225000X-0.250000X0.225000X-0.250000X0.225000X0.250000X-0.225000X0.250000X0*%
%TD*%
%TA.AperFunction,SMDPad,CuDef*%
%ADD23FreePoly0,180.000000*%
%TD*%
%TA.AperFunction,SMDPad,CuDef*%
%ADD24FreePoly1,180.000000*%
%TD*%
%TA.AperFunction,SMDPad,CuDef*%
%ADD25FreePoly2,180.000000*%
%TD*%
%TA.AperFunction,SMDPad,CuDef*%
%ADD26FreePoly3,180.000000*%
%TD*%
%TA.AperFunction,SMDPad,CuDef*%
%ADD27RoundRect,0.150000X0.587500X0.150000X-0.587500X0.150000X-0.587500X-0.150000X0.587500X-0.150000X0*%
%TD*%
%TA.AperFunction,SMDPad,CuDef*%
%ADD28R,0.250000X1.100000*%
%TD*%
%TA.AperFunction,ViaPad*%
%ADD29C,0.600000*%
%TD*%
%TA.AperFunction,Conductor*%
%ADD30C,0.200000*%
%TD*%
G04 APERTURE END LIST*
D10*
%TO.P,R1,1*%
%TO.N,FET-OUT*%
X114100000Y-91900000D03*
D11*
%TO.P,R1,2*%
%TO.N,POT-OUT*%
X114100000Y-95400000D03*
D12*
%TO.P,R1,3*%
%TO.N,GND*%
X118250000Y-97900000D03*
X119450000Y-89400000D03*
X182250000Y-89400000D03*
X183450000Y-97900000D03*
D11*
X187600000Y-91900000D03*
%TD*%
D13*
%TO.P,C1,1*%
%TO.N,POT-IN*%
X135230000Y-92295000D03*
%TO.P,C1,2*%
%TO.N,GND*%
X135230000Y-90745000D03*
%TD*%
D14*
%TO.P,R5,1*%
%TO.N,Net-(Q1-G)*%
X133845000Y-96070000D03*
%TO.P,R5,2*%
%TO.N,GP2*%
X135495000Y-96070000D03*
%TD*%
D15*
%TO.P,J2,1,Pin_1*%
%TO.N,+3V3*%
X156737500Y-93650000D03*
D16*
%TO.P,J2,2,Pin_2*%
%TO.N,GND*%
X154197500Y-93650000D03*
%TO.P,J2,3,Pin_3*%
%TO.N,SDA*%
X151657500Y-93650000D03*
%TO.P,J2,4,Pin_4*%
%TO.N,SCL*%
X149117500Y-93650000D03*
%TO.P,J2,5,Pin_5*%
%TO.N,GP1*%
X146577500Y-93650000D03*
%TO.P,J2,6,Pin_6*%
%TO.N,GP2*%
X144037500Y-93650000D03*
%TD*%
D17*
%TO.P,R2,1*%
%TO.N,+3V3*%
X149470000Y-96480000D03*
%TO.P,R2,2*%
%TO.N,SDA*%
X147645000Y-96480000D03*
%TD*%
D18*
%TO.P,J1,1,SCLK*%
%TO.N,SCLK*%
X169290000Y-90312000D03*
%TO.P,J1,2,MISO*%
%TO.N,MISO*%
X168790000Y-90312000D03*
%TO.P,J1,3,SPI_CS*%
%TO.N,CS*%
X168290000Y-90312000D03*
%TO.P,J1,4,GP_AD2*%
%TO.N,GP2*%
X167790000Y-90312000D03*
%TO.P,J1,5,MOSI*%
%TO.N,MOSI*%
X167290000Y-90312000D03*
%TO.P,J1,6,GP_AD1*%
%TO.N,GP1*%
X166790000Y-90312000D03*
%TO.P,J1,7,5V*%
%TO.N,5v*%
X166290000Y-90312000D03*
%TO.P,J1,8,RGB_DO*%
%TO.N,RGB*%
X165790000Y-90312000D03*
%TO.P,J1,9,SCL*%
%TO.N,SCL*%
X165290000Y-90312000D03*
%TO.P,J1,10,SDA*%
%TO.N,SDA*%
X164790000Y-90312000D03*
%TO.P,J1,11,GND*%
%TO.N,GND*%
X164290000Y-90312000D03*
%TO.P,J1,12,3V3*%
%TO.N,+3V3*%
X163790000Y-90312000D03*
D19*
%TO.P,J1,13*%
%TO.N,N/C*%
X161990000Y-93036000D03*
%TO.P,J1,14*%
X171090000Y-93036000D03*
%TD*%
D20*
%TO.P,R6,1*%
%TO.N,Net-(Q1-G)*%
X132355000Y-96060000D03*
%TO.P,R6,2*%
%TO.N,+3V3*%
X130705000Y-96060000D03*
%TD*%
D21*
%TO.P,R3,1*%
%TO.N,+3V3*%
X151397500Y-96480000D03*
%TO.P,R3,2*%
%TO.N,SCL*%
X153222500Y-96480000D03*
%TD*%
D14*
%TO.P,R4,1*%
%TO.N,POT-OUT*%
X133745000Y-93780000D03*
%TO.P,R4,2*%
%TO.N,POT-IN*%
X135395000Y-93780000D03*
%TD*%
D22*
%TO.P,C2,1*%
%TO.N,+3V3*%
X137795000Y-97010000D03*
%TO.P,C2,2*%
%TO.N,GND*%
X139345000Y-97010000D03*
%TD*%
D23*
%TO.P,H1,1,1*%
%TO.N,unconnected-(H1-Pad1)*%
X175916800Y-91637300D03*
D24*
%TO.P,H1,2*%
%TO.N,N/C*%
X175923400Y-95950000D03*
D25*
%TO.P,H1,3*%
X179163200Y-95944900D03*
D26*
%TO.P,H1,4*%
X179149200Y-91606600D03*
%TD*%
D17*
%TO.P,R7,1*%
%TO.N,+3V3*%
X142730000Y-90270000D03*
%TO.P,R7,2*%
%TO.N,GP1*%
X140905000Y-90270000D03*
%TD*%
D23*
%TO.P,H2,1,1*%
%TO.N,unconnected-(H2-Pad1)*%
X122760200Y-91637300D03*
D24*
%TO.P,H2,2*%
%TO.N,N/C*%
X122766800Y-95950000D03*
D25*
%TO.P,H2,3*%
X126006600Y-95944900D03*
D26*
%TO.P,H2,4*%
X125992600Y-91606600D03*
%TD*%
D27*
%TO.P,Q1,1,G*%
%TO.N,Net-(Q1-G)*%
X131300000Y-92630000D03*
%TO.P,Q1,2,S*%
%TO.N,+3V3*%
X131300000Y-94530000D03*
%TO.P,Q1,3,D*%
%TO.N,FET-OUT*%
X129425000Y-93580000D03*
%TD*%
D28*
%TO.P,U1,1,ADDR*%
%TO.N,GND*%
X137170000Y-91160000D03*
%TO.P,U1,2,ALERT/RDY*%
%TO.N,GP1*%
X137670000Y-91160000D03*
%TO.P,U1,3,GND*%
%TO.N,GND*%
X138170000Y-91160000D03*
%TO.P,U1,4,AIN0*%
%TO.N,POT-IN*%
X138670000Y-91160000D03*
%TO.P,U1,5,AIN1*%
%TO.N,GND*%
X139170000Y-91160000D03*
%TO.P,U1,6,AIN2*%
X139170000Y-95460000D03*
%TO.P,U1,7,AIN3*%
X138670000Y-95460000D03*
%TO.P,U1,8,VDD*%
%TO.N,+3V3*%
X138170000Y-95460000D03*
%TO.P,U1,9,SDA*%
%TO.N,SDA*%
X137670000Y-95460000D03*
%TO.P,U1,10,SCL*%
%TO.N,SCL*%
X137170000Y-95460000D03*
%TD*%
D29*
%TO.N,GND*%
X139900000Y-95920000D03*
X164190000Y-91590000D03*
X136040000Y-89950000D03*
X139650000Y-90351000D03*
%TO.N,+3V3*%
X138920000Y-94370000D03*
X135894936Y-94746608D03*
X164130000Y-92800000D03*
%TO.N,SDA*%
X142451712Y-92462949D03*
X140990000Y-94761000D03*
%TO.N,SCL*%
X142263364Y-94986008D03*
%TO.N,POT-OUT*%
X132580000Y-92710000D03*
X128390000Y-94560000D03*
%TO.N,GP1*%
X141658451Y-93062949D03*
X161690000Y-94760000D03*
X166780000Y-94840000D03*
X136205000Y-92480000D03*
X142419975Y-94201485D03*
X140531307Y-92525608D03*
%TO.N,GP2*%
X160589998Y-92275000D03*
X167800000Y-94240000D03*
%TO.N,Net-(Q1-G)*%
X133280869Y-95289131D03*
X133410000Y-92640000D03*
%TD*%
D30*
%TO.N,GND*%
X139170000Y-96400000D02*
X139420000Y-96400000D01*
X139451000Y-90152000D02*
X139650000Y-90351000D01*
X135230000Y-90745000D02*
X135245000Y-90745000D01*
X137170000Y-91080000D02*
X136040000Y-89950000D01*
X135245000Y-90745000D02*
X136040000Y-89950000D01*
X139170000Y-91160000D02*
X139170000Y-90831000D01*
X139170000Y-90831000D02*
X139650000Y-90351000D01*
X164290000Y-90312000D02*
X164290000Y-91490000D01*
X138670000Y-95460000D02*
X138670000Y-96335000D01*
X138670000Y-96335000D02*
X139345000Y-97010000D01*
X139170000Y-96400000D02*
X139170000Y-96835000D01*
X139170000Y-96835000D02*
X139345000Y-97010000D01*
X139170000Y-95460000D02*
X139170000Y-96400000D01*
X138170000Y-91160000D02*
X138170000Y-90507100D01*
X138525100Y-90152000D02*
X139451000Y-90152000D01*
X138170000Y-90507100D02*
X138525100Y-90152000D01*
X139420000Y-96400000D02*
X139900000Y-95920000D01*
X164290000Y-91490000D02*
X164190000Y-91590000D01*
X137170000Y-91160000D02*
X137170000Y-91080000D01*
%TO.N,POT-IN*%
X138670000Y-91850000D02*
X138670000Y-91160000D01*
X135395000Y-93780000D02*
X135395000Y-92460000D01*
X137125100Y-92412000D02*
X135757100Y-93780000D01*
X137695100Y-92412000D02*
X138097100Y-92010000D01*
X135230000Y-93615000D02*
X135425000Y-93810000D01*
X138510000Y-92010000D02*
X138670000Y-91850000D01*
X135395000Y-92460000D02*
X135230000Y-92295000D01*
X138097100Y-92010000D02*
X138510000Y-92010000D01*
X137125100Y-92412000D02*
X137695100Y-92412000D01*
X135757100Y-93780000D02*
X135395000Y-93780000D01*
%TO.N,+3V3*%
X163560000Y-90482000D02*
X163560000Y-91607900D01*
X163592000Y-92262000D02*
X164130000Y-92800000D01*
X139063550Y-92023550D02*
X138676100Y-92411000D01*
X135980000Y-94661544D02*
X135980000Y-94586000D01*
X133425890Y-94586000D02*
X133419890Y-94580000D01*
X139579000Y-92011000D02*
X139071000Y-92011000D01*
X131531000Y-95284000D02*
X131946000Y-95284000D01*
X143990000Y-90970000D02*
X143610000Y-90970000D01*
X142960000Y-91620000D02*
X139970000Y-91620000D01*
X142989057Y-97610000D02*
X139749057Y-94370000D01*
X138170000Y-94683000D02*
X138170000Y-95460000D01*
X137291200Y-92813000D02*
X136176000Y-93928200D01*
X149470000Y-96480000D02*
X148340000Y-97610000D01*
X138170000Y-96635000D02*
X137795000Y-97010000D01*
X135894936Y-94746608D02*
X135980000Y-94661544D01*
X138681000Y-94609000D02*
X138244000Y-94609000D01*
X134904000Y-94586000D02*
X133425890Y-94586000D01*
X138920000Y-94370000D02*
X138681000Y-94609000D01*
X138676100Y-92411000D02*
X138263200Y-92411000D01*
X163790000Y-90312000D02*
X163730000Y-90312000D01*
X142730000Y-90270000D02*
X143430000Y-90970000D01*
X143430000Y-90970000D02*
X143610000Y-90970000D01*
X163560000Y-91607900D02*
X163592000Y-91639900D01*
X135980000Y-94586000D02*
X134975890Y-94586000D01*
X133060000Y-94580000D02*
X132910000Y-94430000D01*
X163592000Y-91639900D02*
X163592000Y-92262000D01*
X136176000Y-93928200D02*
X136176000Y-94284110D01*
X139749057Y-94370000D02*
X138920000Y-94370000D01*
X163730000Y-90312000D02*
X163560000Y-90482000D01*
X144708000Y-90252000D02*
X143990000Y-90970000D01*
X132480000Y-94750000D02*
X132260000Y-94530000D01*
X132910000Y-94430000D02*
X132600000Y-94430000D01*
X134939945Y-94550055D02*
X134904000Y-94586000D01*
X130755000Y-96060000D02*
X131531000Y-95284000D01*
X136176000Y-94284110D02*
X135980000Y-94480110D01*
X148340000Y-97610000D02*
X142989057Y-97610000D01*
X138244000Y-94609000D02*
X138170000Y-94683000D01*
X132600000Y-94430000D02*
X132480000Y-94550000D01*
X137861200Y-92813000D02*
X137291200Y-92813000D01*
X138263200Y-92411000D02*
X137861200Y-92813000D01*
X133419890Y-94580000D02*
X133060000Y-94580000D01*
X138170000Y-95460000D02*
X138170000Y-96635000D01*
X132260000Y-94530000D02*
X131300000Y-94530000D01*
X139063550Y-92018450D02*
X139063550Y-92023550D01*
X132480000Y-94550000D02*
X132480000Y-94750000D01*
X139071000Y-92011000D02*
X139063550Y-92018450D01*
X143610000Y-90970000D02*
X142960000Y-91620000D01*
X151397500Y-96480000D02*
X149470000Y-96480000D01*
X139970000Y-91620000D02*
X139579000Y-92011000D01*
X131946000Y-95284000D02*
X132480000Y-94750000D01*
X134975890Y-94586000D02*
X134939945Y-94550055D01*
X163730000Y-90252000D02*
X144708000Y-90252000D01*
X163790000Y-90312000D02*
X163730000Y-90252000D01*
X135980000Y-94480110D02*
X135980000Y-94586000D01*
%TO.N,SDA*%
X138359500Y-94016000D02*
X138761500Y-93614000D01*
X140324571Y-94362000D02*
X140591000Y-94362000D01*
X139492571Y-93530000D02*
X140324571Y-94362000D01*
X143521090Y-91675000D02*
X160340055Y-91675000D01*
X137789500Y-94016000D02*
X138359500Y-94016000D01*
X137670000Y-95460000D02*
X137670000Y-94135500D01*
X164420000Y-93610000D02*
X164790000Y-93240000D01*
X142451712Y-92462949D02*
X142451712Y-92531712D01*
X137670000Y-94135500D02*
X137789500Y-94016000D01*
X160839941Y-91675000D02*
X163060000Y-91675000D01*
X163191000Y-93201000D02*
X163600000Y-93610000D01*
X139280000Y-93530000D02*
X139492571Y-93530000D01*
X147645000Y-96480000D02*
X142709000Y-96480000D01*
X142709000Y-96480000D02*
X140990000Y-94761000D01*
X163600000Y-93610000D02*
X164420000Y-93610000D01*
X163060000Y-91675000D02*
X163191000Y-91806000D01*
X138761500Y-93614000D02*
X139196000Y-93614000D01*
X160341055Y-91674000D02*
X160838941Y-91674000D01*
X142451712Y-92531712D02*
X142558045Y-92638045D01*
X160340055Y-91675000D02*
X160341055Y-91674000D01*
X160838941Y-91674000D02*
X160839941Y-91675000D01*
X142558045Y-92638045D02*
X143521090Y-91675000D01*
X139196000Y-93614000D02*
X139280000Y-93530000D01*
X164790000Y-93240000D02*
X164790000Y-90312000D01*
X163191000Y-91806000D02*
X163191000Y-93201000D01*
X140591000Y-94362000D02*
X140990000Y-94761000D01*
%TO.N,SCL*%
X137623400Y-93615000D02*
X138193400Y-93615000D01*
X139311300Y-92910000D02*
X139460000Y-92910000D01*
X139460000Y-92930329D02*
X140490671Y-93961000D01*
X142263364Y-95176247D02*
X142447117Y-95360000D01*
X164060000Y-95360000D02*
X165290000Y-94130000D01*
X138595400Y-93213000D02*
X139008300Y-93213000D01*
X141048117Y-93961000D02*
X142073125Y-94986008D01*
X137170000Y-95460000D02*
X137170000Y-94068400D01*
X153222500Y-95407500D02*
X153270000Y-95360000D01*
X153222500Y-96480000D02*
X153222500Y-95407500D01*
X140490671Y-93961000D02*
X141048117Y-93961000D01*
X139460000Y-92910000D02*
X139460000Y-92930329D01*
X142263364Y-94986008D02*
X142263364Y-95176247D01*
X153980000Y-95360000D02*
X164060000Y-95360000D01*
X152765000Y-96480000D02*
X152860000Y-96480000D01*
X142447117Y-95360000D02*
X153270000Y-95360000D01*
X138193400Y-93615000D02*
X138595400Y-93213000D01*
X153270000Y-95360000D02*
X153980000Y-95360000D01*
X142073125Y-94986008D02*
X142263364Y-94986008D01*
X137170000Y-94068400D02*
X137623400Y-93615000D01*
X165290000Y-94130000D02*
X165290000Y-90312000D01*
X139008300Y-93213000D02*
X139311300Y-92910000D01*
%TO.N,POT-OUT*%
X133865000Y-93820000D02*
X133875000Y-93810000D01*
X121349000Y-97549000D02*
X125900000Y-97549000D01*
X119200000Y-95400000D02*
X120270000Y-96470000D01*
X114100000Y-95400000D02*
X119200000Y-95400000D01*
X127021000Y-97549000D02*
X128250000Y-96320000D01*
X133690000Y-93820000D02*
X133865000Y-93820000D01*
X128250000Y-96320000D02*
X128250000Y-94700000D01*
X132580000Y-92710000D02*
X133650000Y-93780000D01*
X133650000Y-93780000D02*
X133745000Y-93780000D01*
X125900000Y-97549000D02*
X127021000Y-97549000D01*
X128250000Y-94700000D02*
X128390000Y-94560000D01*
X120270000Y-96470000D02*
X121349000Y-97549000D01*
%TO.N,GP1*%
X146410000Y-94910000D02*
X161540000Y-94910000D01*
X141105714Y-93159000D02*
X141562400Y-93159000D01*
X136205000Y-92480000D02*
X136490000Y-92480000D01*
X137529000Y-92011000D02*
X137670000Y-91870000D01*
X166790000Y-91526530D02*
X166790000Y-90312000D01*
X140386000Y-89751000D02*
X140905000Y-90270000D01*
X137670000Y-91160000D02*
X137670000Y-90440000D01*
X141562400Y-93159000D02*
X141658451Y-93062949D01*
X138359000Y-89751000D02*
X140386000Y-89751000D01*
X142551485Y-94201485D02*
X143260000Y-94910000D01*
X146410000Y-94910000D02*
X146410000Y-93817500D01*
X143260000Y-94910000D02*
X146410000Y-94910000D01*
X137670000Y-90440000D02*
X138359000Y-89751000D01*
X146410000Y-93817500D02*
X146577500Y-93650000D01*
X166780000Y-91536530D02*
X166790000Y-91526530D01*
X136959000Y-92011000D02*
X137529000Y-92011000D01*
X136490000Y-92480000D02*
X136959000Y-92011000D01*
X140531307Y-92525608D02*
X140531307Y-92584593D01*
X137670000Y-91870000D02*
X137670000Y-91160000D01*
X161540000Y-94910000D02*
X161690000Y-94760000D01*
X140531307Y-92584593D02*
X141105714Y-93159000D01*
X166780000Y-94840000D02*
X166780000Y-91536530D01*
X142419975Y-94201485D02*
X142551485Y-94201485D01*
%TO.N,GP2*%
X136300000Y-96020000D02*
X136300000Y-95661000D01*
X135445000Y-96070000D02*
X136250000Y-96070000D01*
X167800000Y-94240000D02*
X167800000Y-91385060D01*
X136681000Y-94811057D02*
X136495936Y-94625993D01*
X160589998Y-92275000D02*
X160390998Y-92076000D01*
X138027300Y-93214000D02*
X138429300Y-92812000D01*
X167790000Y-91375060D02*
X167790000Y-90312000D01*
X142686722Y-93650000D02*
X142399956Y-93363234D01*
X136328943Y-95661000D02*
X136681000Y-95308943D01*
X140446608Y-93126608D02*
X140880000Y-93560000D01*
X143687190Y-92076000D02*
X142399956Y-93363234D01*
X136300000Y-95661000D02*
X136328943Y-95661000D01*
X167800000Y-91385060D02*
X167790000Y-91375060D01*
X140880000Y-93560000D02*
X141305559Y-93560000D01*
X136500000Y-94527210D02*
X136577000Y-94450210D01*
X141409508Y-93663949D02*
X142099241Y-93663949D01*
X146550000Y-92076000D02*
X143687190Y-92076000D01*
X138842200Y-92812000D02*
X139242200Y-92412000D01*
X139642000Y-92412000D02*
X139910608Y-92680608D01*
X136577000Y-94450210D02*
X136577000Y-94094300D01*
X139910608Y-92680608D02*
X139930307Y-92680608D01*
X141305559Y-93560000D02*
X141409508Y-93663949D01*
X139930307Y-92680608D02*
X139930307Y-92774551D01*
X139242200Y-92412000D02*
X139642000Y-92412000D01*
X136500000Y-94609000D02*
X136500000Y-94527210D01*
X160390998Y-92076000D02*
X146550000Y-92076000D01*
X136250000Y-96070000D02*
X136300000Y-96020000D01*
X136577000Y-94094300D02*
X137457300Y-93214000D01*
X136495936Y-94609000D02*
X136500000Y-94609000D01*
X140282364Y-93126608D02*
X140446608Y-93126608D01*
X142099241Y-93663949D02*
X142399956Y-93363234D01*
X139930307Y-92774551D02*
X140282364Y-93126608D01*
X136495936Y-94625993D02*
X136495936Y-94609000D01*
X137457300Y-93214000D02*
X138027300Y-93214000D01*
X138429300Y-92812000D02*
X138842200Y-92812000D01*
X144037500Y-93650000D02*
X142686722Y-93650000D01*
X136681000Y-95308943D02*
X136681000Y-94811057D01*
%TO.N,FET-OUT*%
X114100000Y-91900000D02*
X120160000Y-91900000D01*
X129425000Y-93155000D02*
X129425000Y-93580000D01*
X129420000Y-93150000D02*
X129425000Y-93155000D01*
X129420000Y-92890000D02*
X129420000Y-93150000D01*
X126410000Y-89880000D02*
X129420000Y-92890000D01*
X120160000Y-91900000D02*
X122180000Y-89880000D01*
X122180000Y-89880000D02*
X126410000Y-89880000D01*
%TO.N,Net-(Q1-G)*%
X133280869Y-95289131D02*
X133895000Y-95903262D01*
X133895000Y-96070000D02*
X132315000Y-96070000D01*
X131821000Y-92109000D02*
X131300000Y-92630000D01*
X133895000Y-95903262D02*
X133895000Y-96070000D01*
X132879000Y-92109000D02*
X131821000Y-92109000D01*
X132315000Y-96070000D02*
X132305000Y-96060000D01*
X133410000Y-92640000D02*
X132879000Y-92109000D01*
X132305000Y-96060000D02*
X132305000Y-95732152D01*
%TD*%
%TA.AperFunction,Conductor*%
%TO.N,GND*%
G36*
X117641148Y-96020185D02*
G01*
X117686903Y-96072989D01*
X117696847Y-96142147D01*
X117667822Y-96205703D01*
X117621562Y-96239061D01*
X117463259Y-96304632D01*
X117463249Y-96304636D01*
X117261747Y-96420973D01*
X117184104Y-96480550D01*
X117184104Y-96480551D01*
X117849438Y-97145885D01*
X117847374Y-97146740D01*
X117708156Y-97239762D01*
X117589762Y-97358156D01*
X117496740Y-97497374D01*
X117495885Y-97499438D01*
X116830551Y-96834104D01*
X116830550Y-96834104D01*
X116770973Y-96911747D01*
X116654636Y-97113249D01*
X116654632Y-97113259D01*
X116565592Y-97328220D01*
X116505369Y-97552975D01*
X116475000Y-97783659D01*
X116475000Y-98016344D01*
X116475069Y-98017398D01*
X116475000Y-98017706D01*
X116475000Y-98020399D01*
X116474397Y-98020399D01*
X116459807Y-98085581D01*
X116410105Y-98134688D01*
X116351334Y-98149500D01*
X113674500Y-98149500D01*
X113607461Y-98129815D01*
X113561706Y-98077011D01*
X113550500Y-98025500D01*
X113550500Y-97797456D01*
X113823500Y-97797456D01*
X113823500Y-97876500D01*
X114410799Y-97876500D01*
X114806531Y-97876500D01*
X115472873Y-97876500D01*
X115868605Y-97876500D01*
X116202000Y-97876500D01*
X116202000Y-97779192D01*
X116202067Y-97775101D01*
X116202094Y-97774283D01*
X116202292Y-97770270D01*
X116202876Y-97761353D01*
X116203204Y-97757343D01*
X116203284Y-97756528D01*
X116203752Y-97752457D01*
X116227851Y-97569404D01*
X116201776Y-97543329D01*
X115868605Y-97876500D01*
X115472873Y-97876500D01*
X115139702Y-97543329D01*
X114806531Y-97876500D01*
X114410799Y-97876500D01*
X114077627Y-97543328D01*
X113823500Y-97797456D01*
X113550500Y-97797456D01*
X113550500Y-97367259D01*
X114253696Y-97367259D01*
X114608665Y-97722228D01*
X114963633Y-97367260D01*
X115315771Y-97367260D01*
X115670739Y-97722228D01*
X116025707Y-97367260D01*
X115670739Y-97012292D01*
X115315771Y-97367260D01*
X114963633Y-97367260D01*
X114608664Y-97012291D01*
X114253696Y-97367259D01*
X113550500Y-97367259D01*
X113550500Y-97071764D01*
X113958201Y-97071764D01*
X114077627Y-97191190D01*
X114195319Y-97073500D01*
X113984415Y-97073500D01*
X113979494Y-97073402D01*
X113978512Y-97073363D01*
X113973699Y-97073078D01*
X113963006Y-97072236D01*
X113958201Y-97071764D01*
X113550500Y-97071764D01*
X113550500Y-96897898D01*
X114846409Y-96897898D01*
X115139702Y-97191191D01*
X115494670Y-96836223D01*
X115846808Y-96836223D01*
X116201775Y-97191190D01*
X116420938Y-96972027D01*
X116520354Y-96799833D01*
X116201776Y-96481255D01*
X115846808Y-96836223D01*
X115494670Y-96836223D01*
X115262566Y-96604119D01*
X115201614Y-96665073D01*
X115198133Y-96668420D01*
X115197413Y-96669086D01*
X115193751Y-96672342D01*
X115185595Y-96679309D01*
X115181855Y-96682380D01*
X115181083Y-96682989D01*
X115177169Y-96685953D01*
X114990148Y-96821830D01*
X114986221Y-96824569D01*
X114985405Y-96825115D01*
X114981236Y-96827785D01*
X114972091Y-96833389D01*
X114967800Y-96835901D01*
X114966943Y-96836380D01*
X114962740Y-96838624D01*
X114846409Y-96897898D01*
X113550500Y-96897898D01*
X113550500Y-96864701D01*
X113570185Y-96797662D01*
X113622989Y-96751907D01*
X113692147Y-96741963D01*
X113712818Y-96746770D01*
X113772049Y-96766015D01*
X113989778Y-96800500D01*
X113989779Y-96800500D01*
X114210221Y-96800500D01*
X114210222Y-96800500D01*
X114427951Y-96766015D01*
X114637606Y-96697895D01*
X114834022Y-96597815D01*
X115012365Y-96468242D01*
X115062401Y-96418206D01*
X115428791Y-96418206D01*
X115670739Y-96660154D01*
X116025707Y-96305186D01*
X116377845Y-96305186D01*
X116673234Y-96600575D01*
X116691383Y-96585179D01*
X116700907Y-96580089D01*
X116751243Y-96565717D01*
X116832581Y-96560385D01*
X116910385Y-96482581D01*
X116915717Y-96401243D01*
X116930089Y-96350907D01*
X116935179Y-96341383D01*
X116969055Y-96301454D01*
X117005486Y-96273500D01*
X116409531Y-96273500D01*
X116377845Y-96305186D01*
X116025707Y-96305186D01*
X115994021Y-96273500D01*
X115532526Y-96273500D01*
X115527785Y-96281236D01*
X115525115Y-96285405D01*
X115524569Y-96286221D01*
X115521830Y-96290148D01*
X115428791Y-96418206D01*
X115062401Y-96418206D01*
X115168242Y-96312365D01*
X115297815Y-96134022D01*
X115323048Y-96084500D01*
X115331352Y-96068204D01*
X115379326Y-96017409D01*
X115441836Y-96000500D01*
X117574109Y-96000500D01*
X117641148Y-96020185D01*
G37*
%TD.AperFunction*%
%TA.AperFunction,Conductor*%
G36*
X139880499Y-95354685D02*
G01*
X139901141Y-95371319D01*
X139903141Y-95373319D01*
X139936626Y-95434642D01*
X139936108Y-95441879D01*
X139936647Y-95441802D01*
X140000203Y-95470827D01*
X140006681Y-95476859D01*
X142467641Y-97937819D01*
X142501126Y-97999142D01*
X142496142Y-98068834D01*
X142454270Y-98124767D01*
X142388806Y-98149184D01*
X142379960Y-98149500D01*
X139946151Y-98149500D01*
X139879112Y-98129815D01*
X139833357Y-98077011D01*
X139823413Y-98007853D01*
X139852438Y-97944297D01*
X139881054Y-97919962D01*
X139951516Y-97876500D01*
X140361112Y-97876500D01*
X140962658Y-97876500D01*
X141358390Y-97876500D01*
X142020242Y-97876500D01*
X141689316Y-97545574D01*
X141358390Y-97876500D01*
X140962658Y-97876500D01*
X140629486Y-97543328D01*
X140468478Y-97704336D01*
X140468075Y-97705036D01*
X140370754Y-97862817D01*
X140366777Y-97868864D01*
X140365942Y-97870056D01*
X140361648Y-97875822D01*
X140361112Y-97876500D01*
X139951516Y-97876500D01*
X140022728Y-97832575D01*
X140022732Y-97832572D01*
X140142572Y-97712732D01*
X140142575Y-97712728D01*
X140231542Y-97568492D01*
X140231547Y-97568481D01*
X140284855Y-97407606D01*
X140288977Y-97367260D01*
X140805556Y-97367260D01*
X141160524Y-97722228D01*
X141513247Y-97369505D01*
X141158279Y-97014537D01*
X140805556Y-97367260D01*
X140288977Y-97367260D01*
X140294999Y-97308322D01*
X140295000Y-97308309D01*
X140295000Y-97260000D01*
X139469000Y-97260000D01*
X139401961Y-97240315D01*
X139356206Y-97187511D01*
X139345000Y-97136000D01*
X139345000Y-96999697D01*
X140437993Y-96999697D01*
X140629487Y-97191191D01*
X140982210Y-96838468D01*
X140627241Y-96483499D01*
X140552458Y-96558283D01*
X140553368Y-96562533D01*
X140554607Y-96569212D01*
X140554819Y-96570559D01*
X140555685Y-96577236D01*
X140566939Y-96687399D01*
X140567228Y-96690654D01*
X140567276Y-96691289D01*
X140567468Y-96694319D01*
X140567822Y-96701259D01*
X140567944Y-96704457D01*
X140567960Y-96705093D01*
X140567999Y-96708212D01*
X140567999Y-96816335D01*
X140558559Y-96863790D01*
X140554753Y-96872978D01*
X140527874Y-96913204D01*
X140448203Y-96992875D01*
X140437993Y-96999697D01*
X139345000Y-96999697D01*
X139345000Y-96884000D01*
X139364685Y-96816961D01*
X139417489Y-96771206D01*
X139469000Y-96760000D01*
X140294999Y-96760000D01*
X140294999Y-96711692D01*
X140294998Y-96711677D01*
X140284855Y-96612392D01*
X140231547Y-96451518D01*
X140231542Y-96451507D01*
X140142575Y-96307271D01*
X140142572Y-96307267D01*
X140022731Y-96187426D01*
X139878489Y-96098455D01*
X139871942Y-96095403D01*
X139872655Y-96093872D01*
X139822549Y-96059179D01*
X139795728Y-95994662D01*
X139795000Y-95981248D01*
X139795000Y-95585000D01*
X139294000Y-95585000D01*
X139226961Y-95565315D01*
X139181206Y-95512511D01*
X139170000Y-95461000D01*
X139170000Y-95459000D01*
X139189685Y-95391961D01*
X139242489Y-95346206D01*
X139294000Y-95335000D01*
X139813460Y-95335000D01*
X139880499Y-95354685D01*
G37*
%TD.AperFunction*%
%TA.AperFunction,Conductor*%
G36*
X180418373Y-89170185D02*
G01*
X180464128Y-89222989D01*
X180474518Y-89279601D01*
X180475000Y-89279601D01*
X180475000Y-89282226D01*
X180475069Y-89282602D01*
X180475000Y-89283655D01*
X180475000Y-89516340D01*
X180505369Y-89747024D01*
X180565592Y-89971779D01*
X180654632Y-90186740D01*
X180654636Y-90186750D01*
X180770970Y-90388248D01*
X180830551Y-90465894D01*
X181495884Y-89800560D01*
X181496740Y-89802626D01*
X181589762Y-89941844D01*
X181708156Y-90060238D01*
X181847374Y-90153260D01*
X181849437Y-90154114D01*
X181184104Y-90819446D01*
X181184104Y-90819447D01*
X181261752Y-90879029D01*
X181463249Y-90995363D01*
X181463259Y-90995367D01*
X181678220Y-91084407D01*
X181902975Y-91144630D01*
X182133659Y-91175000D01*
X182366341Y-91175000D01*
X182597024Y-91144630D01*
X182755912Y-91102056D01*
X183395774Y-91102056D01*
X183643500Y-91349782D01*
X183998468Y-90994814D01*
X184350606Y-90994814D01*
X184705574Y-91349782D01*
X185060542Y-90994814D01*
X185412680Y-90994814D01*
X185767648Y-91349782D01*
X186122617Y-90994814D01*
X185767648Y-90639845D01*
X185412680Y-90994814D01*
X185060542Y-90994814D01*
X184705574Y-90639846D01*
X184350606Y-90994814D01*
X183998468Y-90994814D01*
X183738601Y-90734947D01*
X183625852Y-90742338D01*
X183586501Y-90736501D01*
X183592338Y-90775852D01*
X183584282Y-90898754D01*
X183569910Y-90949090D01*
X183564820Y-90958614D01*
X183530946Y-90998542D01*
X183400902Y-91098331D01*
X183397616Y-91100767D01*
X183396950Y-91101244D01*
X183395774Y-91102056D01*
X182755912Y-91102056D01*
X182821779Y-91084407D01*
X183036740Y-90995367D01*
X183036750Y-90995363D01*
X183238255Y-90879024D01*
X183315894Y-90819447D01*
X183315894Y-90819446D01*
X183070908Y-90574460D01*
X183930252Y-90574460D01*
X184174537Y-90818745D01*
X184529505Y-90463777D01*
X184881643Y-90463777D01*
X185236611Y-90818745D01*
X185591579Y-90463777D01*
X185943718Y-90463777D01*
X186298686Y-90818745D01*
X186653654Y-90463777D01*
X186298686Y-90108809D01*
X185943718Y-90463777D01*
X185591579Y-90463777D01*
X185236611Y-90108809D01*
X184881643Y-90463777D01*
X184529505Y-90463777D01*
X184174537Y-90108809D01*
X184172151Y-90111194D01*
X184095874Y-90295347D01*
X184094261Y-90299070D01*
X184093923Y-90299816D01*
X184092185Y-90303490D01*
X184088232Y-90311505D01*
X184086404Y-90315064D01*
X184086019Y-90315785D01*
X184084024Y-90319377D01*
X183963216Y-90528623D01*
X183961168Y-90532042D01*
X183960737Y-90532736D01*
X183958502Y-90536205D01*
X183953537Y-90543636D01*
X183951244Y-90546950D01*
X183950767Y-90547616D01*
X183948331Y-90550902D01*
X183930252Y-90574460D01*
X183070908Y-90574460D01*
X182650562Y-90154114D01*
X182652626Y-90153260D01*
X182791844Y-90060238D01*
X182910238Y-89941844D01*
X183003260Y-89802626D01*
X183004114Y-89800562D01*
X183669446Y-90465894D01*
X183669447Y-90465894D01*
X183729024Y-90388255D01*
X183845363Y-90186750D01*
X183845367Y-90186740D01*
X183934407Y-89971779D01*
X183944868Y-89932739D01*
X184350605Y-89932739D01*
X184705574Y-90287708D01*
X185060542Y-89932739D01*
X185412680Y-89932739D01*
X185767648Y-90287708D01*
X186122617Y-89932739D01*
X186474754Y-89932739D01*
X186829723Y-90287708D01*
X186845763Y-90271668D01*
X187197900Y-90271668D01*
X187198454Y-90271512D01*
X187203230Y-90270265D01*
X187213659Y-90267762D01*
X187218474Y-90266707D01*
X187219437Y-90266516D01*
X187224163Y-90265674D01*
X187452408Y-90229523D01*
X187457266Y-90228851D01*
X187458240Y-90228736D01*
X187463046Y-90228264D01*
X187473739Y-90227422D01*
X187478552Y-90227137D01*
X187479067Y-90227116D01*
X187360760Y-90108809D01*
X187197900Y-90271668D01*
X186845763Y-90271668D01*
X187184691Y-89932739D01*
X187536828Y-89932739D01*
X187849799Y-90245710D01*
X187876500Y-90249939D01*
X187876500Y-89593068D01*
X187536828Y-89932739D01*
X187184691Y-89932739D01*
X186829723Y-89577771D01*
X186474754Y-89932739D01*
X186122617Y-89932739D01*
X185767648Y-89577771D01*
X185412680Y-89932739D01*
X185060542Y-89932739D01*
X184705574Y-89577771D01*
X184350605Y-89932739D01*
X183944868Y-89932739D01*
X183994630Y-89747024D01*
X184007639Y-89648212D01*
X184282994Y-89648212D01*
X184507707Y-89423500D01*
X184903441Y-89423500D01*
X185236611Y-89756670D01*
X185569781Y-89423500D01*
X185965516Y-89423500D01*
X186298686Y-89756670D01*
X186631856Y-89423500D01*
X187027590Y-89423500D01*
X187360760Y-89756670D01*
X187693930Y-89423500D01*
X187027590Y-89423500D01*
X186631856Y-89423500D01*
X185965516Y-89423500D01*
X185569781Y-89423500D01*
X184903441Y-89423500D01*
X184507707Y-89423500D01*
X184298000Y-89423500D01*
X184298000Y-89520808D01*
X184297933Y-89524899D01*
X184297906Y-89525717D01*
X184297708Y-89529730D01*
X184297124Y-89538647D01*
X184296796Y-89542657D01*
X184296716Y-89543472D01*
X184296248Y-89547543D01*
X184282994Y-89648212D01*
X184007639Y-89648212D01*
X184025000Y-89516340D01*
X184025000Y-89283655D01*
X184024931Y-89282602D01*
X184025000Y-89282293D01*
X184025000Y-89279601D01*
X184025603Y-89279601D01*
X184040193Y-89214419D01*
X184089895Y-89165312D01*
X184148666Y-89150500D01*
X188025500Y-89150500D01*
X188092539Y-89170185D01*
X188138294Y-89222989D01*
X188149500Y-89274500D01*
X188149500Y-90435824D01*
X188129815Y-90502863D01*
X188077011Y-90548618D01*
X188007853Y-90558562D01*
X187987184Y-90553756D01*
X187927833Y-90534472D01*
X187710181Y-90500000D01*
X187489819Y-90500000D01*
X187272164Y-90534473D01*
X187062589Y-90602567D01*
X186866233Y-90702616D01*
X186802485Y-90748931D01*
X186802485Y-90748932D01*
X187388940Y-91335387D01*
X187368409Y-91340889D01*
X187231592Y-91419881D01*
X187119881Y-91531592D01*
X187040889Y-91668409D01*
X187035387Y-91688940D01*
X186448932Y-91102485D01*
X186448931Y-91102485D01*
X186402616Y-91166233D01*
X186302567Y-91362589D01*
X186234473Y-91572164D01*
X186200000Y-91789818D01*
X186200000Y-92010181D01*
X186234473Y-92227835D01*
X186302567Y-92437410D01*
X186402611Y-92633756D01*
X186448932Y-92697513D01*
X187035387Y-92111058D01*
X187040889Y-92131591D01*
X187119881Y-92268408D01*
X187231592Y-92380119D01*
X187368409Y-92459111D01*
X187388939Y-92464612D01*
X186802485Y-93051065D01*
X186802485Y-93051066D01*
X186866243Y-93097388D01*
X187062589Y-93197432D01*
X187272164Y-93265526D01*
X187489819Y-93300000D01*
X187710181Y-93300000D01*
X187927836Y-93265526D01*
X187987180Y-93246244D01*
X188057021Y-93244247D01*
X188116855Y-93280327D01*
X188147684Y-93343028D01*
X188149500Y-93364174D01*
X188149500Y-98025500D01*
X188129815Y-98092539D01*
X188077011Y-98138294D01*
X188025500Y-98149500D01*
X185348666Y-98149500D01*
X185281627Y-98129815D01*
X185235872Y-98077011D01*
X185225482Y-98020399D01*
X185225000Y-98020399D01*
X185225000Y-98017773D01*
X185224931Y-98017398D01*
X185225000Y-98016344D01*
X185225000Y-97876500D01*
X185965515Y-97876500D01*
X186631857Y-97876500D01*
X187027589Y-97876500D01*
X187693931Y-97876500D01*
X187360760Y-97543329D01*
X187027589Y-97876500D01*
X186631857Y-97876500D01*
X186298686Y-97543329D01*
X185965515Y-97876500D01*
X185225000Y-97876500D01*
X185225000Y-97783659D01*
X185194630Y-97552975D01*
X185141736Y-97355572D01*
X185424366Y-97355572D01*
X185432921Y-97387501D01*
X185767648Y-97722228D01*
X186122617Y-97367260D01*
X186474755Y-97367260D01*
X186829723Y-97722228D01*
X187184691Y-97367260D01*
X187536829Y-97367260D01*
X187876500Y-97706931D01*
X187876500Y-97027589D01*
X187536829Y-97367260D01*
X187184691Y-97367260D01*
X186829723Y-97012292D01*
X186474755Y-97367260D01*
X186122617Y-97367260D01*
X185767648Y-97012291D01*
X185424366Y-97355572D01*
X185141736Y-97355572D01*
X185134407Y-97328220D01*
X185045367Y-97113259D01*
X185045363Y-97113249D01*
X184929029Y-96911752D01*
X184869447Y-96834104D01*
X184869446Y-96834104D01*
X184204114Y-97499436D01*
X184203260Y-97497374D01*
X184110238Y-97358156D01*
X183991844Y-97239762D01*
X183852626Y-97146740D01*
X183850560Y-97145884D01*
X184348948Y-96647497D01*
X185070368Y-96647497D01*
X185148331Y-96749099D01*
X185150787Y-96752412D01*
X185151263Y-96753077D01*
X185153534Y-96756359D01*
X185158500Y-96763791D01*
X185160711Y-96767222D01*
X185161143Y-96767917D01*
X185163217Y-96771378D01*
X185284024Y-96980623D01*
X185286019Y-96984215D01*
X185286404Y-96984936D01*
X185288232Y-96988495D01*
X185292185Y-96996510D01*
X185293923Y-97000184D01*
X185294261Y-97000930D01*
X185295874Y-97004652D01*
X185333151Y-97094649D01*
X185591577Y-96836223D01*
X185943718Y-96836223D01*
X186298686Y-97191191D01*
X186653654Y-96836223D01*
X187005792Y-96836223D01*
X187360760Y-97191191D01*
X187715728Y-96836223D01*
X187360760Y-96481255D01*
X187005792Y-96836223D01*
X186653654Y-96836223D01*
X186298686Y-96481255D01*
X185943718Y-96836223D01*
X185591577Y-96836223D01*
X185591578Y-96836222D01*
X185236610Y-96481254D01*
X185070368Y-96647497D01*
X184348948Y-96647497D01*
X184515894Y-96480551D01*
X184438248Y-96420970D01*
X184236750Y-96304636D01*
X184236740Y-96304632D01*
X184021779Y-96215592D01*
X183797024Y-96155369D01*
X183730878Y-96146661D01*
X184509129Y-96146661D01*
X184578622Y-96186783D01*
X184582083Y-96188857D01*
X184582778Y-96189289D01*
X184586209Y-96191500D01*
X184593641Y-96196466D01*
X184596923Y-96198737D01*
X184597588Y-96199213D01*
X184600901Y-96201668D01*
X184730945Y-96301455D01*
X184764820Y-96341384D01*
X184769910Y-96350908D01*
X184784282Y-96401244D01*
X184792338Y-96524146D01*
X184786500Y-96563497D01*
X184804969Y-96560757D01*
X185060540Y-96305186D01*
X185412680Y-96305186D01*
X185767648Y-96660154D01*
X186122617Y-96305186D01*
X186474755Y-96305186D01*
X186829723Y-96660154D01*
X187184691Y-96305186D01*
X187536829Y-96305186D01*
X187876500Y-96644857D01*
X187876500Y-95965515D01*
X187536829Y-96305186D01*
X187184691Y-96305186D01*
X186829723Y-95950218D01*
X186474755Y-96305186D01*
X186122617Y-96305186D01*
X185767648Y-95950217D01*
X185412680Y-96305186D01*
X185060540Y-96305186D01*
X185060541Y-96305185D01*
X184705573Y-95950217D01*
X184509129Y-96146661D01*
X183730878Y-96146661D01*
X183566341Y-96125000D01*
X183333659Y-96125000D01*
X183102975Y-96155369D01*
X182878220Y-96215592D01*
X182663259Y-96304632D01*
X182663249Y-96304636D01*
X182461747Y-96420973D01*
X182384104Y-96480550D01*
X182384104Y-96480551D01*
X183049438Y-97145885D01*
X183047374Y-97146740D01*
X182908156Y-97239762D01*
X182789762Y-97358156D01*
X182696740Y-97497374D01*
X182695885Y-97499438D01*
X182030551Y-96834104D01*
X182030550Y-96834104D01*
X181970973Y-96911747D01*
X181854636Y-97113249D01*
X181854632Y-97113259D01*
X181765592Y-97328220D01*
X181705369Y-97552975D01*
X181675000Y-97783659D01*
X181675000Y-98016344D01*
X181675069Y-98017398D01*
X181675000Y-98017706D01*
X181675000Y-98020399D01*
X181674397Y-98020399D01*
X181659807Y-98085581D01*
X181610105Y-98134688D01*
X181551334Y-98149500D01*
X148949096Y-98149500D01*
X148882057Y-98129815D01*
X148836302Y-98077011D01*
X148826358Y-98007853D01*
X148855383Y-97944297D01*
X148861415Y-97937819D01*
X148922734Y-97876500D01*
X150130031Y-97876500D01*
X150521328Y-97876500D01*
X152057529Y-97876500D01*
X152562471Y-97876500D01*
X154103283Y-97876500D01*
X154769625Y-97876500D01*
X155165357Y-97876500D01*
X155831700Y-97876500D01*
X156227432Y-97876500D01*
X156893774Y-97876500D01*
X157289506Y-97876500D01*
X157955848Y-97876500D01*
X158351581Y-97876500D01*
X159017923Y-97876500D01*
X159413655Y-97876500D01*
X160079997Y-97876500D01*
X160475729Y-97876500D01*
X161142072Y-97876500D01*
X161537804Y-97876500D01*
X162204146Y-97876500D01*
X162599878Y-97876500D01*
X163266220Y-97876500D01*
X163661953Y-97876500D01*
X164328295Y-97876500D01*
X164724027Y-97876500D01*
X165390369Y-97876500D01*
X165786101Y-97876500D01*
X166452443Y-97876500D01*
X166848176Y-97876500D01*
X167514518Y-97876500D01*
X167910250Y-97876500D01*
X168576592Y-97876500D01*
X168972324Y-97876500D01*
X169638667Y-97876500D01*
X170034399Y-97876500D01*
X170700741Y-97876500D01*
X171096473Y-97876500D01*
X171762815Y-97876500D01*
X172158548Y-97876500D01*
X172824890Y-97876500D01*
X173220622Y-97876500D01*
X173886964Y-97876500D01*
X174282696Y-97876500D01*
X174949039Y-97876500D01*
X175344771Y-97876500D01*
X176011113Y-97876500D01*
X176406845Y-97876500D01*
X177073187Y-97876500D01*
X177468920Y-97876500D01*
X178135262Y-97876500D01*
X178530994Y-97876500D01*
X179197336Y-97876500D01*
X179593068Y-97876500D01*
X180259410Y-97876500D01*
X180655143Y-97876500D01*
X181321485Y-97876500D01*
X180988314Y-97543329D01*
X180655143Y-97876500D01*
X180259410Y-97876500D01*
X179926239Y-97543329D01*
X179593068Y-97876500D01*
X179197336Y-97876500D01*
X178864165Y-97543329D01*
X178530994Y-97876500D01*
X178135262Y-97876500D01*
X177933095Y-97674333D01*
X177891458Y-97679765D01*
X177887564Y-97680211D01*
X177851127Y-97683797D01*
X177847231Y-97684118D01*
X177690022Y-97694599D01*
X177685659Y-97694813D01*
X177684766Y-97694841D01*
X177680282Y-97694901D01*
X177670533Y-97694854D01*
X177665992Y-97694748D01*
X177665100Y-97694711D01*
X177660794Y-97694458D01*
X177651658Y-97693760D01*
X177468920Y-97876500D01*
X177073187Y-97876500D01*
X176828614Y-97631927D01*
X176815006Y-97628215D01*
X178239115Y-97628215D01*
X178333128Y-97722228D01*
X178487606Y-97567749D01*
X178381123Y-97597698D01*
X178376519Y-97598898D01*
X178333232Y-97609298D01*
X178328583Y-97610321D01*
X178239115Y-97628215D01*
X176815006Y-97628215D01*
X176689393Y-97593950D01*
X176406845Y-97876500D01*
X176011113Y-97876500D01*
X175677942Y-97543329D01*
X175344771Y-97876500D01*
X174949039Y-97876500D01*
X174615867Y-97543328D01*
X174282696Y-97876500D01*
X173886964Y-97876500D01*
X173553793Y-97543329D01*
X173220622Y-97876500D01*
X172824890Y-97876500D01*
X172491719Y-97543329D01*
X172158548Y-97876500D01*
X171762815Y-97876500D01*
X171429644Y-97543329D01*
X171096473Y-97876500D01*
X170700741Y-97876500D01*
X170367570Y-97543329D01*
X170034399Y-97876500D01*
X169638667Y-97876500D01*
X169305495Y-97543328D01*
X168972324Y-97876500D01*
X168576592Y-97876500D01*
X168243421Y-97543329D01*
X167910250Y-97876500D01*
X167514518Y-97876500D01*
X167181347Y-97543329D01*
X166848176Y-97876500D01*
X166452443Y-97876500D01*
X166119272Y-97543329D01*
X165786101Y-97876500D01*
X165390369Y-97876500D01*
X165057198Y-97543329D01*
X164724027Y-97876500D01*
X164328295Y-97876500D01*
X163995124Y-97543329D01*
X163661953Y-97876500D01*
X163266220Y-97876500D01*
X162933049Y-97543329D01*
X162599878Y-97876500D01*
X162204146Y-97876500D01*
X161870975Y-97543329D01*
X161537804Y-97876500D01*
X161142072Y-97876500D01*
X160808900Y-97543328D01*
X160475729Y-97876500D01*
X160079997Y-97876500D01*
X159746826Y-97543329D01*
X159413655Y-97876500D01*
X159017923Y-97876500D01*
X158684752Y-97543329D01*
X158351581Y-97876500D01*
X157955848Y-97876500D01*
X157622677Y-97543329D01*
X157289506Y-97876500D01*
X156893774Y-97876500D01*
X156560603Y-97543329D01*
X156227432Y-97876500D01*
X155831700Y-97876500D01*
X155498528Y-97543328D01*
X155165357Y-97876500D01*
X154769625Y-97876500D01*
X154436454Y-97543329D01*
X154103283Y-97876500D01*
X152562471Y-97876500D01*
X152547249Y-97871456D01*
X152540480Y-97868992D01*
X152539128Y-97868455D01*
X152532503Y-97865598D01*
X152518094Y-97858880D01*
X152511622Y-97855630D01*
X152510341Y-97854939D01*
X152504115Y-97851343D01*
X152341260Y-97750894D01*
X152335212Y-97746916D01*
X152334020Y-97746081D01*
X152328254Y-97741787D01*
X152315783Y-97731926D01*
X152310233Y-97727267D01*
X152310000Y-97727059D01*
X152309767Y-97727267D01*
X152304217Y-97731926D01*
X152291746Y-97741787D01*
X152285980Y-97746081D01*
X152284788Y-97746916D01*
X152278740Y-97750894D01*
X152115885Y-97851343D01*
X152109659Y-97854939D01*
X152108378Y-97855630D01*
X152101906Y-97858880D01*
X152087497Y-97865598D01*
X152080872Y-97868455D01*
X152079520Y-97868992D01*
X152072751Y-97871456D01*
X152057529Y-97876500D01*
X150521328Y-97876500D01*
X150376737Y-97731909D01*
X150376717Y-97731926D01*
X150364246Y-97741787D01*
X150358480Y-97746081D01*
X150357288Y-97746916D01*
X150351240Y-97750894D01*
X150188385Y-97851343D01*
X150182159Y-97854939D01*
X150180878Y-97855630D01*
X150174406Y-97858880D01*
X150159997Y-97865598D01*
X150153372Y-97868455D01*
X150152020Y-97868992D01*
X150145252Y-97871456D01*
X150130031Y-97876500D01*
X148922734Y-97876500D01*
X148966662Y-97832572D01*
X149082417Y-97716816D01*
X149143738Y-97683333D01*
X149170086Y-97680499D01*
X149782508Y-97680499D01*
X149782516Y-97680498D01*
X149782519Y-97680498D01*
X149842870Y-97674333D01*
X149885297Y-97669999D01*
X150051834Y-97614814D01*
X150201156Y-97522712D01*
X150325212Y-97398656D01*
X150328209Y-97393796D01*
X150380154Y-97347070D01*
X150449117Y-97335845D01*
X150513200Y-97363685D01*
X150539291Y-97393797D01*
X150542286Y-97398654D01*
X150542288Y-97398656D01*
X150666344Y-97522712D01*
X150815666Y-97614814D01*
X150982203Y-97669999D01*
X151084991Y-97680500D01*
X151710008Y-97680499D01*
X151710016Y-97680498D01*
X151710019Y-97680498D01*
X151770370Y-97674333D01*
X151812797Y-97669999D01*
X151979334Y-97614814D01*
X152128656Y-97522712D01*
X152222319Y-97429049D01*
X152283642Y-97395564D01*
X152353334Y-97400548D01*
X152397681Y-97429049D01*
X152491344Y-97522712D01*
X152640666Y-97614814D01*
X152807203Y-97669999D01*
X152909991Y-97680500D01*
X153535008Y-97680499D01*
X153535016Y-97680498D01*
X153535019Y-97680498D01*
X153595370Y-97674333D01*
X153637797Y-97669999D01*
X153804334Y-97614814D01*
X153953656Y-97522712D01*
X154077712Y-97398656D01*
X154097077Y-97367260D01*
X154612523Y-97367260D01*
X154967491Y-97722228D01*
X155322459Y-97367260D01*
X155674598Y-97367260D01*
X156029566Y-97722228D01*
X156384534Y-97367260D01*
X156736672Y-97367260D01*
X157091640Y-97722228D01*
X157446608Y-97367260D01*
X157798746Y-97367260D01*
X158153714Y-97722228D01*
X158508683Y-97367260D01*
X158860821Y-97367260D01*
X159215789Y-97722228D01*
X159570757Y-97367260D01*
X159922895Y-97367260D01*
X160277863Y-97722228D01*
X160632831Y-97367260D01*
X160984970Y-97367260D01*
X161339938Y-97722228D01*
X161694906Y-97367260D01*
X162047044Y-97367260D01*
X162402012Y-97722228D01*
X162756980Y-97367260D01*
X163109118Y-97367260D01*
X163464086Y-97722228D01*
X163819054Y-97367260D01*
X164171193Y-97367260D01*
X164526161Y-97722228D01*
X164881129Y-97367260D01*
X165233267Y-97367260D01*
X165588235Y-97722228D01*
X165943203Y-97367260D01*
X166295342Y-97367260D01*
X166650310Y-97722228D01*
X167005278Y-97367260D01*
X167357416Y-97367260D01*
X167712384Y-97722228D01*
X168067352Y-97367260D01*
X168419490Y-97367260D01*
X168774458Y-97722228D01*
X169129426Y-97367260D01*
X169481565Y-97367260D01*
X169836533Y-97722228D01*
X170191501Y-97367260D01*
X170543639Y-97367260D01*
X170898607Y-97722228D01*
X171253575Y-97367260D01*
X171605713Y-97367260D01*
X171960681Y-97722228D01*
X172315650Y-97367260D01*
X172667788Y-97367260D01*
X173022756Y-97722228D01*
X173377724Y-97367260D01*
X173729862Y-97367260D01*
X174084830Y-97722228D01*
X174439798Y-97367260D01*
X174791937Y-97367260D01*
X175146905Y-97722228D01*
X175501873Y-97367260D01*
X175501872Y-97367259D01*
X175854010Y-97367259D01*
X176208978Y-97722227D01*
X176412724Y-97518481D01*
X176296141Y-97486680D01*
X176292036Y-97485484D01*
X176287110Y-97483956D01*
X176283018Y-97482608D01*
X176212109Y-97457881D01*
X176208082Y-97456398D01*
X176203273Y-97454532D01*
X176199298Y-97452910D01*
X175914804Y-97331027D01*
X175911461Y-97329536D01*
X175897984Y-97323285D01*
X175854010Y-97367259D01*
X175501872Y-97367259D01*
X175146905Y-97012292D01*
X174791937Y-97367260D01*
X174439798Y-97367260D01*
X174084830Y-97012292D01*
X173729862Y-97367260D01*
X173377724Y-97367260D01*
X173022756Y-97012292D01*
X172667788Y-97367260D01*
X172315650Y-97367260D01*
X171960681Y-97012291D01*
X171605713Y-97367260D01*
X171253575Y-97367260D01*
X170898607Y-97012292D01*
X170543639Y-97367260D01*
X170191501Y-97367260D01*
X169836533Y-97012292D01*
X169481565Y-97367260D01*
X169129426Y-97367260D01*
X168774458Y-97012292D01*
X168419490Y-97367260D01*
X168067352Y-97367260D01*
X167712384Y-97012292D01*
X167357416Y-97367260D01*
X167005278Y-97367260D01*
X166650310Y-97012292D01*
X166295342Y-97367260D01*
X165943203Y-97367260D01*
X165588235Y-97012292D01*
X165233267Y-97367260D01*
X164881129Y-97367260D01*
X164526161Y-97012292D01*
X164171193Y-97367260D01*
X163819054Y-97367260D01*
X163464086Y-97012291D01*
X163109118Y-97367260D01*
X162756980Y-97367260D01*
X162402012Y-97012292D01*
X162047044Y-97367260D01*
X161694906Y-97367260D01*
X161339938Y-97012292D01*
X160984970Y-97367260D01*
X160632831Y-97367260D01*
X160277863Y-97012292D01*
X159922895Y-97367260D01*
X159570757Y-97367260D01*
X159215789Y-97012292D01*
X158860821Y-97367260D01*
X158508683Y-97367260D01*
X158153714Y-97012291D01*
X157798746Y-97367260D01*
X157446608Y-97367260D01*
X157091640Y-97012292D01*
X156736672Y-97367260D01*
X156384534Y-97367260D01*
X156029566Y-97012292D01*
X155674598Y-97367260D01*
X155322459Y-97367260D01*
X154967491Y-97012292D01*
X154612523Y-97367260D01*
X154097077Y-97367260D01*
X154169814Y-97249334D01*
X154207854Y-97134536D01*
X154493108Y-97134536D01*
X154791422Y-96836223D01*
X155143560Y-96836223D01*
X155498528Y-97191191D01*
X155853497Y-96836223D01*
X156205635Y-96836223D01*
X156560603Y-97191191D01*
X156915571Y-96836223D01*
X157267709Y-96836223D01*
X157622677Y-97191191D01*
X157977645Y-96836223D01*
X158329784Y-96836223D01*
X158684752Y-97191191D01*
X159039720Y-96836223D01*
X159391858Y-96836223D01*
X159746826Y-97191191D01*
X160101794Y-96836223D01*
X160453932Y-96836223D01*
X160808900Y-97191191D01*
X161163868Y-96836223D01*
X161516007Y-96836223D01*
X161870975Y-97191191D01*
X162225943Y-96836223D01*
X162578081Y-96836223D01*
X162933049Y-97191191D01*
X163288017Y-96836223D01*
X163640156Y-96836223D01*
X163995124Y-97191191D01*
X164350092Y-96836223D01*
X164702230Y-96836223D01*
X165057198Y-97191191D01*
X165412166Y-96836223D01*
X165764304Y-96836223D01*
X166119272Y-97191191D01*
X166474240Y-96836223D01*
X166826379Y-96836223D01*
X167181347Y-97191191D01*
X167536315Y-96836223D01*
X167888453Y-96836223D01*
X168243421Y-97191191D01*
X168598389Y-96836223D01*
X168950527Y-96836223D01*
X169305495Y-97191191D01*
X169660464Y-96836223D01*
X170012602Y-96836223D01*
X170367570Y-97191191D01*
X170722538Y-96836223D01*
X171074676Y-96836223D01*
X171429644Y-97191191D01*
X171784612Y-96836223D01*
X172136751Y-96836223D01*
X172491719Y-97191191D01*
X172846687Y-96836223D01*
X173198825Y-96836223D01*
X173553793Y-97191191D01*
X173908761Y-96836223D01*
X174260899Y-96836223D01*
X174615867Y-97191191D01*
X174970835Y-96836223D01*
X174615867Y-96481254D01*
X174260899Y-96836223D01*
X173908761Y-96836223D01*
X173553793Y-96481255D01*
X173198825Y-96836223D01*
X172846687Y-96836223D01*
X172491719Y-96481255D01*
X172136751Y-96836223D01*
X171784612Y-96836223D01*
X171429644Y-96481255D01*
X171074676Y-96836223D01*
X170722538Y-96836223D01*
X170367570Y-96481255D01*
X170012602Y-96836223D01*
X169660464Y-96836223D01*
X169305495Y-96481254D01*
X168950527Y-96836223D01*
X168598389Y-96836223D01*
X168243421Y-96481255D01*
X167888453Y-96836223D01*
X167536315Y-96836223D01*
X167181347Y-96481255D01*
X166826379Y-96836223D01*
X166474240Y-96836223D01*
X166119272Y-96481255D01*
X165764304Y-96836223D01*
X165412166Y-96836223D01*
X165057198Y-96481255D01*
X164702230Y-96836223D01*
X164350092Y-96836223D01*
X163995124Y-96481255D01*
X163640156Y-96836223D01*
X163288017Y-96836223D01*
X162933049Y-96481255D01*
X162578081Y-96836223D01*
X162225943Y-96836223D01*
X161870975Y-96481255D01*
X161516007Y-96836223D01*
X161163868Y-96836223D01*
X160808900Y-96481254D01*
X160453932Y-96836223D01*
X160101794Y-96836223D01*
X159746826Y-96481255D01*
X159391858Y-96836223D01*
X159039720Y-96836223D01*
X158684752Y-96481255D01*
X158329784Y-96836223D01*
X157977645Y-96836223D01*
X157622677Y-96481255D01*
X157267709Y-96836223D01*
X156915571Y-96836223D01*
X156560603Y-96481255D01*
X156205635Y-96836223D01*
X155853497Y-96836223D01*
X155498528Y-96481254D01*
X155143560Y-96836223D01*
X154791422Y-96836223D01*
X154508499Y-96553300D01*
X154508500Y-96983484D01*
X154508461Y-96986603D01*
X154508445Y-96987239D01*
X154508323Y-96990437D01*
X154507969Y-96997377D01*
X154507777Y-97000407D01*
X154507729Y-97001042D01*
X154507440Y-97004298D01*
X154495828Y-97117956D01*
X154494964Y-97124618D01*
X154494752Y-97125966D01*
X154493509Y-97132665D01*
X154493108Y-97134536D01*
X154207854Y-97134536D01*
X154224999Y-97082797D01*
X154235500Y-96980009D01*
X154235499Y-96305186D01*
X154612523Y-96305186D01*
X154967491Y-96660154D01*
X155322459Y-96305186D01*
X155674598Y-96305186D01*
X156029566Y-96660154D01*
X156384534Y-96305186D01*
X156736672Y-96305186D01*
X157091640Y-96660154D01*
X157446608Y-96305186D01*
X157446607Y-96305185D01*
X157798746Y-96305185D01*
X158153714Y-96660154D01*
X158508683Y-96305186D01*
X158860821Y-96305186D01*
X159215789Y-96660154D01*
X159570757Y-96305186D01*
X159922895Y-96305186D01*
X160277863Y-96660154D01*
X160632831Y-96305186D01*
X160984970Y-96305186D01*
X161339938Y-96660154D01*
X161694906Y-96305186D01*
X162047044Y-96305186D01*
X162402012Y-96660154D01*
X162756980Y-96305186D01*
X163109118Y-96305186D01*
X163464086Y-96660154D01*
X163819054Y-96305185D01*
X164171192Y-96305185D01*
X164526161Y-96660154D01*
X164881129Y-96305186D01*
X165233267Y-96305186D01*
X165588235Y-96660154D01*
X165943203Y-96305186D01*
X165943202Y-96305185D01*
X166295341Y-96305185D01*
X166650310Y-96660154D01*
X167005278Y-96305186D01*
X167357416Y-96305186D01*
X167712384Y-96660154D01*
X168067352Y-96305186D01*
X168419490Y-96305186D01*
X168774458Y-96660154D01*
X169129426Y-96305186D01*
X169481565Y-96305186D01*
X169836533Y-96660154D01*
X170191501Y-96305186D01*
X170543639Y-96305186D01*
X170898607Y-96660154D01*
X171253575Y-96305186D01*
X171605713Y-96305186D01*
X171960681Y-96660154D01*
X172315650Y-96305186D01*
X172667788Y-96305186D01*
X173022756Y-96660154D01*
X173377724Y-96305186D01*
X173729862Y-96305186D01*
X174084830Y-96660154D01*
X174439798Y-96305186D01*
X174084830Y-95950218D01*
X173729862Y-96305186D01*
X173377724Y-96305186D01*
X173022756Y-95950218D01*
X172667788Y-96305186D01*
X172315650Y-96305186D01*
X171960681Y-95950217D01*
X171605713Y-96305186D01*
X171253575Y-96305186D01*
X170898607Y-95950218D01*
X170543639Y-96305186D01*
X170191501Y-96305186D01*
X169836533Y-95950218D01*
X169481565Y-96305186D01*
X169129426Y-96305186D01*
X168774458Y-95950218D01*
X168419490Y-96305186D01*
X168067352Y-96305186D01*
X167712384Y-95950218D01*
X167357416Y-96305186D01*
X167005278Y-96305186D01*
X166650309Y-95950217D01*
X166295341Y-96305185D01*
X165943202Y-96305185D01*
X165588235Y-95950218D01*
X165233267Y-96305186D01*
X164881129Y-96305186D01*
X164615629Y-96039686D01*
X164615431Y-96039886D01*
X164609446Y-96045488D01*
X164608214Y-96046567D01*
X164602003Y-96051662D01*
X164587808Y-96062554D01*
X164581192Y-96067293D01*
X164579831Y-96068202D01*
X164572960Y-96072474D01*
X164478401Y-96127066D01*
X164478396Y-96127067D01*
X164420547Y-96160471D01*
X164413359Y-96164312D01*
X164411890Y-96165036D01*
X164404523Y-96168373D01*
X164387992Y-96175220D01*
X164380389Y-96178081D01*
X164378839Y-96178607D01*
X164371085Y-96180959D01*
X164267723Y-96208654D01*
X164171192Y-96305185D01*
X163819054Y-96305185D01*
X163747369Y-96233500D01*
X163180804Y-96233500D01*
X163109118Y-96305186D01*
X162756980Y-96305186D01*
X162685294Y-96233500D01*
X162118730Y-96233500D01*
X162047044Y-96305186D01*
X161694906Y-96305186D01*
X161623220Y-96233500D01*
X161056656Y-96233500D01*
X160984970Y-96305186D01*
X160632831Y-96305186D01*
X160561145Y-96233500D01*
X159994581Y-96233500D01*
X159922895Y-96305186D01*
X159570757Y-96305186D01*
X159499071Y-96233500D01*
X158932507Y-96233500D01*
X158860821Y-96305186D01*
X158508683Y-96305186D01*
X158436997Y-96233500D01*
X157870432Y-96233500D01*
X157798746Y-96305185D01*
X157446607Y-96305185D01*
X157374922Y-96233500D01*
X156808358Y-96233500D01*
X156736672Y-96305186D01*
X156384534Y-96305186D01*
X156312848Y-96233500D01*
X155746284Y-96233500D01*
X155674598Y-96305186D01*
X155322459Y-96305186D01*
X155250773Y-96233500D01*
X154684209Y-96233500D01*
X154612523Y-96305186D01*
X154235499Y-96305186D01*
X154235499Y-96084499D01*
X154255183Y-96017461D01*
X154307987Y-95971706D01*
X154359499Y-95960500D01*
X163973331Y-95960500D01*
X163973347Y-95960501D01*
X163980943Y-95960501D01*
X164139054Y-95960501D01*
X164139057Y-95960501D01*
X164291785Y-95919577D01*
X164341904Y-95890639D01*
X164388713Y-95863615D01*
X164791696Y-95863615D01*
X165057198Y-96129117D01*
X165412166Y-95774149D01*
X165412165Y-95774148D01*
X165764303Y-95774148D01*
X166119271Y-96129116D01*
X166348161Y-95900226D01*
X166952456Y-95900226D01*
X167181347Y-96129117D01*
X167536315Y-95774149D01*
X167888453Y-95774149D01*
X168243421Y-96129117D01*
X168598389Y-95774149D01*
X168950527Y-95774149D01*
X169305495Y-96129117D01*
X169660464Y-95774149D01*
X170012602Y-95774149D01*
X170367570Y-96129117D01*
X170722538Y-95774149D01*
X171074676Y-95774149D01*
X171429644Y-96129117D01*
X171784612Y-95774149D01*
X172136751Y-95774149D01*
X172491719Y-96129117D01*
X172846687Y-95774149D01*
X173198825Y-95774149D01*
X173553793Y-96129117D01*
X173908761Y-95774149D01*
X173553793Y-95419181D01*
X173198825Y-95774149D01*
X172846687Y-95774149D01*
X172491719Y-95419181D01*
X172136751Y-95774149D01*
X171784612Y-95774149D01*
X171429644Y-95419181D01*
X171074676Y-95774149D01*
X170722538Y-95774149D01*
X170367570Y-95419181D01*
X170012602Y-95774149D01*
X169660464Y-95774149D01*
X169305495Y-95419180D01*
X168950527Y-95774149D01*
X168598389Y-95774149D01*
X168243421Y-95419181D01*
X167888453Y-95774149D01*
X167536315Y-95774149D01*
X167447347Y-95685181D01*
X167305275Y-95780111D01*
X167300122Y-95783374D01*
X167299069Y-95784005D01*
X167293783Y-95786999D01*
X167281955Y-95793321D01*
X167276477Y-95796077D01*
X167275368Y-95796601D01*
X167269846Y-95799047D01*
X167111774Y-95864522D01*
X167106073Y-95866721D01*
X167104918Y-95867134D01*
X167099169Y-95869032D01*
X167086335Y-95872926D01*
X167080431Y-95874560D01*
X167079240Y-95874858D01*
X167073333Y-95876183D01*
X166952456Y-95900226D01*
X166348161Y-95900226D01*
X166402716Y-95845671D01*
X166290154Y-95799047D01*
X166284632Y-95796601D01*
X166283523Y-95796077D01*
X166278045Y-95793321D01*
X166266217Y-95786999D01*
X166260931Y-95784005D01*
X166259878Y-95783374D01*
X166254725Y-95780111D01*
X166112464Y-95685055D01*
X166107457Y-95681528D01*
X166106472Y-95680797D01*
X166101705Y-95677075D01*
X166091338Y-95668567D01*
X166086773Y-95664631D01*
X166085863Y-95663807D01*
X166081412Y-95659571D01*
X165980146Y-95558305D01*
X165764303Y-95774148D01*
X165412165Y-95774148D01*
X165146664Y-95508647D01*
X164791696Y-95863615D01*
X164388713Y-95863615D01*
X164428716Y-95840520D01*
X164540520Y-95728716D01*
X164540520Y-95728714D01*
X164550728Y-95718507D01*
X164550729Y-95718504D01*
X164936656Y-95332578D01*
X165322733Y-95332578D01*
X165588234Y-95598079D01*
X165832837Y-95353476D01*
X165826679Y-95341955D01*
X165823923Y-95336477D01*
X165823399Y-95335368D01*
X165820953Y-95329846D01*
X165755478Y-95171774D01*
X165753279Y-95166073D01*
X165752866Y-95164918D01*
X165750968Y-95159169D01*
X165747074Y-95146335D01*
X165745440Y-95140431D01*
X165745142Y-95139240D01*
X165743817Y-95133334D01*
X165721566Y-95021474D01*
X165677702Y-94977610D01*
X165322733Y-95332578D01*
X164936656Y-95332578D01*
X165770520Y-94498716D01*
X165831055Y-94393864D01*
X165851745Y-94374136D01*
X165851685Y-94353916D01*
X165890501Y-94209057D01*
X165890501Y-94050942D01*
X165890501Y-94043347D01*
X165890500Y-94043329D01*
X165890500Y-91558276D01*
X165910185Y-91491237D01*
X165962989Y-91445482D01*
X166001241Y-91434987D01*
X166003367Y-91434758D01*
X166026748Y-91432245D01*
X166053250Y-91432245D01*
X166068757Y-91433912D01*
X166133307Y-91460651D01*
X166173154Y-91518045D01*
X166179499Y-91557201D01*
X166179499Y-91625576D01*
X166179500Y-91625589D01*
X166179500Y-94260234D01*
X166159815Y-94327273D01*
X166158602Y-94329125D01*
X166074562Y-94454899D01*
X166058160Y-94468606D01*
X166058946Y-94485097D01*
X166053003Y-94503316D01*
X166010263Y-94606503D01*
X166010261Y-94606510D01*
X165979500Y-94761153D01*
X165979500Y-94918846D01*
X166010261Y-95073489D01*
X166010264Y-95073501D01*
X166070602Y-95219172D01*
X166070609Y-95219185D01*
X166158210Y-95350288D01*
X166158213Y-95350292D01*
X166269707Y-95461786D01*
X166269711Y-95461789D01*
X166400814Y-95549390D01*
X166400827Y-95549397D01*
X166516226Y-95597196D01*
X166546503Y-95609737D01*
X166701153Y-95640499D01*
X166701156Y-95640500D01*
X166701158Y-95640500D01*
X166858844Y-95640500D01*
X166858845Y-95640499D01*
X167013497Y-95609737D01*
X167159179Y-95549394D01*
X167219001Y-95509422D01*
X167623726Y-95509422D01*
X167712383Y-95598079D01*
X168019617Y-95290845D01*
X167925525Y-95309562D01*
X167919620Y-95310589D01*
X167918406Y-95310770D01*
X167912269Y-95311529D01*
X167898922Y-95312843D01*
X167892839Y-95313292D01*
X167891614Y-95313352D01*
X167885548Y-95313500D01*
X167745818Y-95313500D01*
X167739048Y-95329845D01*
X167736601Y-95335368D01*
X167736077Y-95336477D01*
X167733321Y-95341955D01*
X167726999Y-95353783D01*
X167724005Y-95359069D01*
X167723374Y-95360122D01*
X167720111Y-95365275D01*
X167625055Y-95507536D01*
X167623726Y-95509422D01*
X167219001Y-95509422D01*
X167290289Y-95461789D01*
X167401789Y-95350289D01*
X167473403Y-95243111D01*
X168419489Y-95243111D01*
X168774458Y-95598079D01*
X169129426Y-95243111D01*
X169481564Y-95243111D01*
X169836533Y-95598079D01*
X170191501Y-95243111D01*
X170543638Y-95243111D01*
X170898607Y-95598079D01*
X171253575Y-95243111D01*
X171605713Y-95243111D01*
X171960681Y-95598079D01*
X172315650Y-95243111D01*
X172667787Y-95243111D01*
X173022756Y-95598079D01*
X173377724Y-95243111D01*
X173377723Y-95243110D01*
X173729861Y-95243110D01*
X174083946Y-95597196D01*
X174044117Y-95526621D01*
X174042017Y-95522738D01*
X174039584Y-95518044D01*
X174037635Y-95514116D01*
X174004650Y-95444564D01*
X174002842Y-95440570D01*
X174000746Y-95435714D01*
X173999068Y-95431628D01*
X173870642Y-95102329D01*
X173729861Y-95243110D01*
X173377723Y-95243110D01*
X173022756Y-94888143D01*
X172667787Y-95243111D01*
X172315650Y-95243111D01*
X171960681Y-94888142D01*
X171605713Y-95243111D01*
X171253575Y-95243111D01*
X170898607Y-94888143D01*
X170543638Y-95243111D01*
X170191501Y-95243111D01*
X169836533Y-94888143D01*
X169481564Y-95243111D01*
X169129426Y-95243111D01*
X168774458Y-94888143D01*
X168419489Y-95243111D01*
X167473403Y-95243111D01*
X167489394Y-95219179D01*
X167536470Y-95105524D01*
X167580309Y-95051125D01*
X167646603Y-95029059D01*
X167675222Y-95031363D01*
X167721155Y-95040500D01*
X167721158Y-95040500D01*
X167878844Y-95040500D01*
X167878845Y-95040499D01*
X168033497Y-95009737D01*
X168176441Y-94950528D01*
X168179172Y-94949397D01*
X168179172Y-94949396D01*
X168179179Y-94949394D01*
X168310289Y-94861789D01*
X168421789Y-94750289D01*
X168447323Y-94712074D01*
X168950527Y-94712074D01*
X169305495Y-95067042D01*
X169565143Y-94807395D01*
X170107923Y-94807395D01*
X170367570Y-95067042D01*
X170625112Y-94809499D01*
X171172101Y-94809499D01*
X171429644Y-95067042D01*
X171687187Y-94809499D01*
X171172101Y-94809499D01*
X170625112Y-94809499D01*
X170138471Y-94809500D01*
X170135141Y-94809455D01*
X170134471Y-94809437D01*
X170131154Y-94809304D01*
X170123852Y-94808912D01*
X170120478Y-94808684D01*
X170119812Y-94808630D01*
X170116578Y-94808326D01*
X170107923Y-94807395D01*
X169565143Y-94807395D01*
X169591459Y-94781079D01*
X172205756Y-94781079D01*
X172491719Y-95067042D01*
X172846687Y-94712074D01*
X173198825Y-94712074D01*
X173553792Y-95067041D01*
X173783274Y-94837559D01*
X173723302Y-94624323D01*
X173722102Y-94619719D01*
X173711702Y-94576432D01*
X173710679Y-94571783D01*
X173696230Y-94499543D01*
X173553793Y-94357106D01*
X173198825Y-94712074D01*
X172846687Y-94712074D01*
X172619893Y-94485280D01*
X172560243Y-94564964D01*
X172554686Y-94571859D01*
X172553517Y-94573208D01*
X172547488Y-94579683D01*
X172533683Y-94593488D01*
X172527208Y-94599517D01*
X172525859Y-94600686D01*
X172518964Y-94606243D01*
X172388120Y-94704193D01*
X172380884Y-94709219D01*
X172379382Y-94710185D01*
X172371737Y-94714723D01*
X172354602Y-94724080D01*
X172346677Y-94728046D01*
X172345052Y-94728788D01*
X172336880Y-94732173D01*
X172205756Y-94781079D01*
X169591459Y-94781079D01*
X169660464Y-94712074D01*
X169305495Y-94357105D01*
X168950527Y-94712074D01*
X168447323Y-94712074D01*
X168509394Y-94619179D01*
X168520036Y-94593488D01*
X168536739Y-94553161D01*
X168569737Y-94473497D01*
X168600500Y-94318842D01*
X168600500Y-94161158D01*
X168600500Y-94161155D01*
X168600499Y-94161153D01*
X168598486Y-94151031D01*
X168569737Y-94006503D01*
X168549001Y-93956441D01*
X168509397Y-93860827D01*
X168509390Y-93860814D01*
X168504463Y-93853440D01*
X168801829Y-93853440D01*
X168824522Y-93908226D01*
X168826721Y-93913927D01*
X168827134Y-93915082D01*
X168829032Y-93920831D01*
X168832926Y-93933665D01*
X168834560Y-93939569D01*
X168834858Y-93940760D01*
X168836183Y-93946667D01*
X168869562Y-94114475D01*
X168870589Y-94120380D01*
X168870770Y-94121594D01*
X168871529Y-94127731D01*
X168872843Y-94141078D01*
X168873292Y-94147161D01*
X168873352Y-94148386D01*
X168873500Y-94154452D01*
X168873500Y-94325548D01*
X168873352Y-94331614D01*
X168873292Y-94332839D01*
X168872843Y-94338922D01*
X168871529Y-94352269D01*
X168870770Y-94358406D01*
X168870589Y-94359620D01*
X168869562Y-94365525D01*
X168850845Y-94459617D01*
X169129426Y-94181037D01*
X168801829Y-93853440D01*
X168504463Y-93853440D01*
X168421398Y-93729125D01*
X168400520Y-93662447D01*
X168400500Y-93660234D01*
X168400500Y-93650000D01*
X168950527Y-93650000D01*
X169305495Y-94004967D01*
X169416500Y-93893963D01*
X169416500Y-93406036D01*
X169305495Y-93295031D01*
X168950527Y-93650000D01*
X168400500Y-93650000D01*
X168400500Y-92864953D01*
X168673500Y-92864953D01*
X168673500Y-93372973D01*
X168774458Y-93473931D01*
X169129426Y-93118963D01*
X168774458Y-92763995D01*
X168673500Y-92864953D01*
X168400500Y-92864953D01*
X168400500Y-92587925D01*
X168950527Y-92587925D01*
X169305495Y-92942893D01*
X169416500Y-92831889D01*
X169416500Y-92343961D01*
X169305496Y-92232957D01*
X168950527Y-92587925D01*
X168400500Y-92587925D01*
X168400500Y-91802878D01*
X168673500Y-91802878D01*
X168673500Y-92310898D01*
X168774458Y-92411856D01*
X169129426Y-92056888D01*
X169060673Y-91988135D01*
X169689500Y-91988135D01*
X169689500Y-94083870D01*
X169689501Y-94083876D01*
X169695908Y-94143483D01*
X169746202Y-94278328D01*
X169746206Y-94278335D01*
X169832452Y-94393544D01*
X169832455Y-94393547D01*
X169947664Y-94479793D01*
X169947671Y-94479797D01*
X170082517Y-94530091D01*
X170082516Y-94530091D01*
X170089444Y-94530835D01*
X170142127Y-94536500D01*
X172037872Y-94536499D01*
X172097483Y-94530091D01*
X172232331Y-94479796D01*
X172347546Y-94393546D01*
X172433796Y-94278331D01*
X172444639Y-94249259D01*
X172736010Y-94249259D01*
X173022756Y-94536005D01*
X173377724Y-94181037D01*
X173022755Y-93826068D01*
X172763499Y-94085324D01*
X172763500Y-94087527D01*
X172763455Y-94090859D01*
X172763437Y-94091529D01*
X172763304Y-94094846D01*
X172762912Y-94102148D01*
X172762684Y-94105522D01*
X172762630Y-94106188D01*
X172762326Y-94109422D01*
X172754614Y-94181155D01*
X172753552Y-94188788D01*
X172753289Y-94190327D01*
X172751737Y-94197956D01*
X172747810Y-94214574D01*
X172745806Y-94222016D01*
X172745353Y-94223511D01*
X172742863Y-94230886D01*
X172736010Y-94249259D01*
X172444639Y-94249259D01*
X172484091Y-94143483D01*
X172490500Y-94083873D01*
X172490500Y-93650000D01*
X173198825Y-93650000D01*
X173553792Y-94004967D01*
X173626260Y-93932500D01*
X173626088Y-93928987D01*
X173626060Y-93928094D01*
X173626000Y-93923610D01*
X173626047Y-93913861D01*
X173626153Y-93909314D01*
X173626190Y-93908423D01*
X173626442Y-93904134D01*
X173631224Y-93841457D01*
X173630003Y-93836724D01*
X173629642Y-93835106D01*
X173628114Y-93826997D01*
X173625353Y-93809087D01*
X173624373Y-93800962D01*
X173624229Y-93799310D01*
X173623787Y-93791075D01*
X173620996Y-93654451D01*
X173620989Y-93653067D01*
X173894024Y-93653067D01*
X173896544Y-93776438D01*
X173896545Y-93776445D01*
X173900821Y-93791007D01*
X173905483Y-93835374D01*
X173899021Y-93920038D01*
X173899021Y-93920058D01*
X173909021Y-94069959D01*
X173911478Y-94094846D01*
X173912174Y-94101895D01*
X173942256Y-94331756D01*
X173942277Y-94331916D01*
X173947814Y-94365430D01*
X173972256Y-94487636D01*
X173977816Y-94515437D01*
X173979713Y-94523335D01*
X173986879Y-94553161D01*
X174061151Y-94817238D01*
X174073680Y-94861786D01*
X174076882Y-94873169D01*
X174076883Y-94873175D01*
X174092546Y-94919965D01*
X174252442Y-95329956D01*
X174252448Y-95329969D01*
X174252449Y-95329971D01*
X174283169Y-95394748D01*
X174343917Y-95502389D01*
X174502493Y-95783374D01*
X174503269Y-95784748D01*
X174553233Y-95857582D01*
X174553239Y-95857589D01*
X174553241Y-95857592D01*
X174826305Y-96189289D01*
X174833133Y-96197582D01*
X174865958Y-96233742D01*
X174865961Y-96233745D01*
X175225954Y-96593738D01*
X175225964Y-96593747D01*
X175241176Y-96606006D01*
X175310093Y-96661545D01*
X175730193Y-96931545D01*
X175730225Y-96931563D01*
X175777329Y-96958380D01*
X175777336Y-96958383D01*
X175777351Y-96958392D01*
X175997251Y-97068392D01*
X176000716Y-97069999D01*
X176024330Y-97080953D01*
X176304424Y-97200950D01*
X176304429Y-97200952D01*
X176304434Y-97200954D01*
X176370472Y-97223982D01*
X176920372Y-97373982D01*
X177001824Y-97389162D01*
X177391824Y-97429162D01*
X177391833Y-97429161D01*
X177391835Y-97429162D01*
X177515340Y-97426655D01*
X177531605Y-97421879D01*
X177539792Y-97419474D01*
X177584171Y-97414811D01*
X177676725Y-97421880D01*
X177826725Y-97411880D01*
X177858481Y-97408754D01*
X178088481Y-97378754D01*
X178104074Y-97376181D01*
X179049155Y-97376181D01*
X179395202Y-97722228D01*
X179750170Y-97367260D01*
X180102309Y-97367260D01*
X180457277Y-97722228D01*
X180812245Y-97367260D01*
X181164383Y-97367260D01*
X181420717Y-97623594D01*
X181435289Y-97512908D01*
X181435903Y-97508781D01*
X181436037Y-97507974D01*
X181436743Y-97504104D01*
X181438486Y-97495338D01*
X181439358Y-97491305D01*
X181439544Y-97490509D01*
X181440516Y-97486630D01*
X181503051Y-97253246D01*
X181504144Y-97249417D01*
X181504381Y-97248634D01*
X181505645Y-97244696D01*
X181508518Y-97236233D01*
X181509937Y-97232272D01*
X181510226Y-97231507D01*
X181511664Y-97227876D01*
X181577058Y-97069999D01*
X181519351Y-97012292D01*
X181164383Y-97367260D01*
X180812245Y-97367260D01*
X180457277Y-97012292D01*
X180102309Y-97367260D01*
X179750170Y-97367260D01*
X179523987Y-97141077D01*
X179283298Y-97276852D01*
X179279431Y-97278944D01*
X179274748Y-97281371D01*
X179270825Y-97283317D01*
X179201470Y-97316208D01*
X179197474Y-97318017D01*
X179192634Y-97320106D01*
X179188575Y-97321774D01*
X179049155Y-97376181D01*
X178104074Y-97376181D01*
X178122237Y-97373184D01*
X178272237Y-97343184D01*
X178309962Y-97334120D01*
X178629962Y-97244120D01*
X178676871Y-97228412D01*
X179086871Y-97068412D01*
X179151463Y-97037780D01*
X179201571Y-97009514D01*
X179744562Y-97009514D01*
X179926239Y-97191191D01*
X180281207Y-96836223D01*
X180633346Y-96836223D01*
X180988314Y-97191191D01*
X181343282Y-96836223D01*
X181695420Y-96836223D01*
X181697908Y-96838711D01*
X181704705Y-96826937D01*
X181695420Y-96836223D01*
X181343282Y-96836223D01*
X180988314Y-96481255D01*
X180633346Y-96836223D01*
X180281207Y-96836223D01*
X180136308Y-96691324D01*
X180134399Y-96693016D01*
X180131680Y-96695368D01*
X180129385Y-96697305D01*
X179785477Y-96980525D01*
X179781183Y-96983906D01*
X179775963Y-96987832D01*
X179771575Y-96990984D01*
X179744562Y-97009514D01*
X179201571Y-97009514D01*
X179541463Y-96817780D01*
X179614450Y-96767711D01*
X179918618Y-96517220D01*
X180314343Y-96517220D01*
X180457277Y-96660154D01*
X180812245Y-96305186D01*
X181164383Y-96305186D01*
X181519351Y-96660154D01*
X181614818Y-96564687D01*
X181966955Y-96564687D01*
X182074146Y-96557661D01*
X182113497Y-96563498D01*
X182110164Y-96541031D01*
X182050388Y-96481255D01*
X181966955Y-96564687D01*
X181614818Y-96564687D01*
X181874319Y-96305186D01*
X181723839Y-96154706D01*
X182376936Y-96154706D01*
X182530623Y-96065976D01*
X182534215Y-96063981D01*
X182534936Y-96063596D01*
X182538495Y-96061768D01*
X182546510Y-96057815D01*
X182550184Y-96056077D01*
X182550930Y-96055739D01*
X182554652Y-96054126D01*
X182647057Y-96015850D01*
X182581425Y-95950218D01*
X182376936Y-96154706D01*
X181723839Y-96154706D01*
X181519351Y-95950218D01*
X181164383Y-96305186D01*
X180812245Y-96305186D01*
X180654837Y-96147778D01*
X180645982Y-96161553D01*
X180644132Y-96164347D01*
X180643755Y-96164900D01*
X180641871Y-96167587D01*
X180637597Y-96173513D01*
X180635667Y-96176116D01*
X180635261Y-96176649D01*
X180633164Y-96179326D01*
X180560805Y-96269102D01*
X180558800Y-96271525D01*
X180558368Y-96272034D01*
X180556077Y-96274659D01*
X180551195Y-96280094D01*
X180548998Y-96282475D01*
X180548537Y-96282962D01*
X180546166Y-96285400D01*
X180314343Y-96517220D01*
X179918618Y-96517220D01*
X179954450Y-96487711D01*
X179990542Y-96454942D01*
X180350542Y-96094942D01*
X180418316Y-96010853D01*
X180468086Y-95933433D01*
X180792630Y-95933433D01*
X180988314Y-96129117D01*
X181343282Y-95774149D01*
X181695420Y-95774149D01*
X182050388Y-96129117D01*
X182405356Y-95774149D01*
X182757494Y-95774149D01*
X182908258Y-95924913D01*
X183036631Y-95890516D01*
X183040509Y-95889544D01*
X183041305Y-95889358D01*
X183045338Y-95888486D01*
X183054104Y-95886743D01*
X183057974Y-95886037D01*
X183058781Y-95885903D01*
X183062908Y-95885289D01*
X183302457Y-95853752D01*
X183306528Y-95853284D01*
X183307343Y-95853204D01*
X183311353Y-95852876D01*
X183320270Y-95852292D01*
X183324283Y-95852094D01*
X183325101Y-95852067D01*
X183329192Y-95852000D01*
X183389580Y-95852000D01*
X183467431Y-95774149D01*
X183819569Y-95774149D01*
X183962496Y-95917076D01*
X184096754Y-95953051D01*
X184100583Y-95954144D01*
X184101366Y-95954381D01*
X184105304Y-95955645D01*
X184113767Y-95958518D01*
X184117728Y-95959937D01*
X184118493Y-95960226D01*
X184122124Y-95961664D01*
X184277592Y-96026060D01*
X184529503Y-95774149D01*
X184881643Y-95774149D01*
X185236611Y-96129117D01*
X185591579Y-95774149D01*
X185943718Y-95774149D01*
X186298686Y-96129117D01*
X186653654Y-95774149D01*
X187005792Y-95774149D01*
X187360760Y-96129117D01*
X187715728Y-95774149D01*
X187360760Y-95419181D01*
X187005792Y-95774149D01*
X186653654Y-95774149D01*
X186298686Y-95419181D01*
X185943718Y-95774149D01*
X185591579Y-95774149D01*
X185236611Y-95419181D01*
X184881643Y-95774149D01*
X184529503Y-95774149D01*
X184529504Y-95774148D01*
X184174537Y-95419181D01*
X183819569Y-95774149D01*
X183467431Y-95774149D01*
X183112462Y-95419180D01*
X182757494Y-95774149D01*
X182405356Y-95774149D01*
X182050388Y-95419181D01*
X181695420Y-95774149D01*
X181343282Y-95774149D01*
X181051203Y-95482070D01*
X180958515Y-95667448D01*
X180956985Y-95670408D01*
X180955095Y-95673947D01*
X180953479Y-95676877D01*
X180924578Y-95727648D01*
X180922909Y-95730492D01*
X180920832Y-95733925D01*
X180919044Y-95736791D01*
X180792630Y-95933433D01*
X180468086Y-95933433D01*
X180688316Y-95590853D01*
X180715233Y-95543566D01*
X180825233Y-95323566D01*
X180837728Y-95296626D01*
X180860663Y-95243110D01*
X181164382Y-95243110D01*
X181519351Y-95598079D01*
X181874319Y-95243111D01*
X182226456Y-95243111D01*
X182581425Y-95598079D01*
X182936393Y-95243111D01*
X183288531Y-95243111D01*
X183643500Y-95598079D01*
X183998468Y-95243111D01*
X184350605Y-95243111D01*
X184705574Y-95598079D01*
X185060542Y-95243111D01*
X185412680Y-95243111D01*
X185767648Y-95598079D01*
X186122617Y-95243111D01*
X186474754Y-95243111D01*
X186829723Y-95598079D01*
X187184691Y-95243111D01*
X187536828Y-95243111D01*
X187876500Y-95582782D01*
X187876500Y-94903440D01*
X187536828Y-95243111D01*
X187184691Y-95243111D01*
X186829723Y-94888143D01*
X186474754Y-95243111D01*
X186122617Y-95243111D01*
X185767648Y-94888142D01*
X185412680Y-95243111D01*
X185060542Y-95243111D01*
X184705574Y-94888143D01*
X184350605Y-95243111D01*
X183998468Y-95243111D01*
X183643500Y-94888143D01*
X183288531Y-95243111D01*
X182936393Y-95243111D01*
X182581425Y-94888143D01*
X182226456Y-95243111D01*
X181874319Y-95243111D01*
X181519350Y-94888142D01*
X181164382Y-95243110D01*
X180860663Y-95243110D01*
X180957728Y-95016626D01*
X180980782Y-94950528D01*
X181045827Y-94712074D01*
X181695420Y-94712074D01*
X182050388Y-95067042D01*
X182405356Y-94712074D01*
X182757494Y-94712074D01*
X183112462Y-95067042D01*
X183467431Y-94712074D01*
X183819569Y-94712074D01*
X184174537Y-95067042D01*
X184529505Y-94712074D01*
X184881643Y-94712074D01*
X185236611Y-95067042D01*
X185591579Y-94712074D01*
X185943718Y-94712074D01*
X186298686Y-95067042D01*
X186653654Y-94712074D01*
X187005792Y-94712074D01*
X187360760Y-95067042D01*
X187715728Y-94712074D01*
X187360760Y-94357106D01*
X187005792Y-94712074D01*
X186653654Y-94712074D01*
X186298686Y-94357106D01*
X185943718Y-94712074D01*
X185591579Y-94712074D01*
X185236611Y-94357106D01*
X184881643Y-94712074D01*
X184529505Y-94712074D01*
X184174537Y-94357106D01*
X183819569Y-94712074D01*
X183467431Y-94712074D01*
X183112462Y-94357105D01*
X182757494Y-94712074D01*
X182405356Y-94712074D01*
X182050388Y-94357106D01*
X181695420Y-94712074D01*
X181045827Y-94712074D01*
X181125147Y-94421285D01*
X181404631Y-94421285D01*
X181519351Y-94536005D01*
X181874319Y-94181037D01*
X182226457Y-94181037D01*
X182581425Y-94536005D01*
X182936393Y-94181037D01*
X183288532Y-94181037D01*
X183643500Y-94536005D01*
X183998468Y-94181037D01*
X184350606Y-94181037D01*
X184705574Y-94536005D01*
X185060542Y-94181037D01*
X185412680Y-94181037D01*
X185767648Y-94536005D01*
X186122617Y-94181037D01*
X186474755Y-94181037D01*
X186829723Y-94536005D01*
X187184691Y-94181037D01*
X187536829Y-94181037D01*
X187876500Y-94520708D01*
X187876500Y-93841366D01*
X187536829Y-94181037D01*
X187184691Y-94181037D01*
X186829723Y-93826069D01*
X186474755Y-94181037D01*
X186122617Y-94181037D01*
X185767648Y-93826068D01*
X185412680Y-94181037D01*
X185060542Y-94181037D01*
X184705574Y-93826069D01*
X184350606Y-94181037D01*
X183998468Y-94181037D01*
X183643500Y-93826069D01*
X183288532Y-94181037D01*
X182936393Y-94181037D01*
X182581425Y-93826069D01*
X182226457Y-94181037D01*
X181874319Y-94181037D01*
X181519350Y-93826068D01*
X181458169Y-93887249D01*
X181458992Y-93927698D01*
X181459011Y-93931513D01*
X181459003Y-93932279D01*
X181458906Y-93936070D01*
X181458563Y-93944425D01*
X181458358Y-93948093D01*
X181458304Y-93948856D01*
X181457966Y-93952751D01*
X181417227Y-94350051D01*
X181416606Y-94355089D01*
X181415734Y-94361140D01*
X181414903Y-94366170D01*
X181404631Y-94421285D01*
X181125147Y-94421285D01*
X181130782Y-94400628D01*
X181142281Y-94338922D01*
X181145963Y-94319166D01*
X181145963Y-94319164D01*
X181185963Y-93929066D01*
X181185963Y-93929055D01*
X181183455Y-93805563D01*
X181183455Y-93805562D01*
X181183455Y-93805560D01*
X181171765Y-93765751D01*
X181167103Y-93721379D01*
X181167986Y-93709815D01*
X181172552Y-93650000D01*
X181695420Y-93650000D01*
X182050388Y-94004968D01*
X182405356Y-93650000D01*
X182757494Y-93650000D01*
X183112462Y-94004968D01*
X183467431Y-93650000D01*
X183819569Y-93650000D01*
X184174537Y-94004968D01*
X184529505Y-93650000D01*
X184881643Y-93650000D01*
X185236611Y-94004968D01*
X185591579Y-93650000D01*
X185943718Y-93650000D01*
X186298686Y-94004968D01*
X186653654Y-93650000D01*
X186653653Y-93649999D01*
X187005791Y-93649999D01*
X187360760Y-94004968D01*
X187715728Y-93650000D01*
X187638728Y-93573000D01*
X187484455Y-93573000D01*
X187479534Y-93572902D01*
X187478552Y-93572863D01*
X187473739Y-93572578D01*
X187463046Y-93571736D01*
X187458240Y-93571264D01*
X187457266Y-93571149D01*
X187452408Y-93570477D01*
X187224163Y-93534326D01*
X187219437Y-93533484D01*
X187218474Y-93533293D01*
X187213659Y-93532238D01*
X187203230Y-93529735D01*
X187198454Y-93528488D01*
X187197509Y-93528221D01*
X187192906Y-93526823D01*
X187144648Y-93511143D01*
X187005791Y-93649999D01*
X186653653Y-93649999D01*
X186298686Y-93295032D01*
X185943718Y-93650000D01*
X185591579Y-93650000D01*
X185236611Y-93295032D01*
X184881643Y-93650000D01*
X184529505Y-93650000D01*
X184174537Y-93295032D01*
X183819569Y-93650000D01*
X183467431Y-93650000D01*
X183112462Y-93295031D01*
X182757494Y-93650000D01*
X182405356Y-93650000D01*
X182050388Y-93295032D01*
X181695420Y-93650000D01*
X181172552Y-93650000D01*
X181173579Y-93636552D01*
X181163579Y-93486652D01*
X181160454Y-93454919D01*
X181130454Y-93224919D01*
X181124884Y-93191163D01*
X181094884Y-93041163D01*
X181085820Y-93003438D01*
X181066178Y-92933601D01*
X181349743Y-92933601D01*
X181350598Y-92936881D01*
X181360998Y-92980168D01*
X181362021Y-92984817D01*
X181393078Y-93140096D01*
X181393832Y-93144231D01*
X181400222Y-93182964D01*
X181400834Y-93187110D01*
X181426079Y-93380659D01*
X181519351Y-93473931D01*
X181874319Y-93118963D01*
X182226457Y-93118963D01*
X182581425Y-93473931D01*
X182936393Y-93118963D01*
X183288532Y-93118963D01*
X183643500Y-93473931D01*
X183998468Y-93118963D01*
X184350606Y-93118963D01*
X184705574Y-93473931D01*
X185060542Y-93118963D01*
X185412680Y-93118963D01*
X185767648Y-93473931D01*
X186122617Y-93118963D01*
X186474755Y-93118963D01*
X186829722Y-93473930D01*
X186888519Y-93415134D01*
X186737522Y-93338197D01*
X186733276Y-93335929D01*
X186732418Y-93335449D01*
X186728165Y-93332957D01*
X186719021Y-93327353D01*
X186714945Y-93324744D01*
X186714129Y-93324199D01*
X186710114Y-93321401D01*
X186591336Y-93235104D01*
X186556036Y-93195383D01*
X186550675Y-93185812D01*
X186535242Y-93134944D01*
X186529662Y-93064055D01*
X186474755Y-93118963D01*
X186122617Y-93118963D01*
X185767648Y-92763994D01*
X185412680Y-93118963D01*
X185060542Y-93118963D01*
X184705574Y-92763995D01*
X184350606Y-93118963D01*
X183998468Y-93118963D01*
X183643500Y-92763995D01*
X183288532Y-93118963D01*
X182936393Y-93118963D01*
X182581425Y-92763995D01*
X182226457Y-93118963D01*
X181874319Y-93118963D01*
X181519350Y-92763994D01*
X181349743Y-92933601D01*
X181066178Y-92933601D01*
X180995820Y-92683438D01*
X180980112Y-92636529D01*
X180904130Y-92441824D01*
X181197181Y-92441824D01*
X181235095Y-92538979D01*
X181236152Y-92541788D01*
X181237395Y-92545216D01*
X181238405Y-92548113D01*
X181255271Y-92598482D01*
X181256191Y-92601345D01*
X181257265Y-92604831D01*
X181258131Y-92607769D01*
X181272466Y-92658740D01*
X181343281Y-92587925D01*
X181695419Y-92587925D01*
X182050388Y-92942894D01*
X182405356Y-92587925D01*
X182757494Y-92587925D01*
X183112462Y-92942894D01*
X183467431Y-92587925D01*
X183819568Y-92587925D01*
X184174537Y-92942894D01*
X184529505Y-92587925D01*
X184881642Y-92587925D01*
X185236611Y-92942894D01*
X185591579Y-92587925D01*
X185943717Y-92587925D01*
X186298686Y-92942894D01*
X186300910Y-92940669D01*
X186264895Y-92908663D01*
X186178599Y-92789886D01*
X186175801Y-92785871D01*
X186175256Y-92785055D01*
X186172647Y-92780979D01*
X186167043Y-92771835D01*
X186164551Y-92767582D01*
X186164071Y-92766724D01*
X186161803Y-92762478D01*
X186056889Y-92556574D01*
X186054776Y-92552218D01*
X186054365Y-92551327D01*
X186052404Y-92546846D01*
X186048299Y-92536937D01*
X186046516Y-92532382D01*
X186046176Y-92531460D01*
X186044587Y-92526875D01*
X186034822Y-92496821D01*
X185943717Y-92587925D01*
X185591579Y-92587925D01*
X185236611Y-92232957D01*
X184881642Y-92587925D01*
X184529505Y-92587925D01*
X184174537Y-92232957D01*
X183819568Y-92587925D01*
X183467431Y-92587925D01*
X183112462Y-92232957D01*
X182757494Y-92587925D01*
X182405356Y-92587925D01*
X182050388Y-92232957D01*
X181695419Y-92587925D01*
X181343281Y-92587925D01*
X181197181Y-92441824D01*
X180904130Y-92441824D01*
X180820112Y-92226529D01*
X180789480Y-92161937D01*
X180730222Y-92056888D01*
X181164383Y-92056888D01*
X181519351Y-92411856D01*
X181874319Y-92056888D01*
X182226457Y-92056888D01*
X182581425Y-92411856D01*
X182936393Y-92056888D01*
X183288532Y-92056888D01*
X183643500Y-92411856D01*
X183998468Y-92056888D01*
X184350606Y-92056888D01*
X184705574Y-92411856D01*
X185060542Y-92056888D01*
X185412680Y-92056888D01*
X185767648Y-92411855D01*
X185957195Y-92222308D01*
X185929523Y-92047592D01*
X185928851Y-92042734D01*
X185928736Y-92041760D01*
X185928264Y-92036954D01*
X185927422Y-92026261D01*
X185927137Y-92021448D01*
X185927098Y-92020466D01*
X185927000Y-92015545D01*
X185927000Y-91861271D01*
X185767648Y-91701919D01*
X185412680Y-92056888D01*
X185060542Y-92056888D01*
X184705574Y-91701920D01*
X184350606Y-92056888D01*
X183998468Y-92056888D01*
X183643500Y-91701920D01*
X183288532Y-92056888D01*
X182936393Y-92056888D01*
X182581425Y-91701920D01*
X182226457Y-92056888D01*
X181874319Y-92056888D01*
X181519351Y-91701920D01*
X181164383Y-92056888D01*
X180730222Y-92056888D01*
X180569480Y-91771937D01*
X180519411Y-91698950D01*
X180332974Y-91472562D01*
X180686633Y-91472562D01*
X180732225Y-91527923D01*
X180735606Y-91532217D01*
X180739532Y-91537437D01*
X180742684Y-91541825D01*
X180796447Y-91620196D01*
X180799418Y-91624736D01*
X180802874Y-91630279D01*
X180805652Y-91634961D01*
X180887434Y-91779939D01*
X180988314Y-91880819D01*
X181343282Y-91525851D01*
X181343281Y-91525850D01*
X181695419Y-91525850D01*
X182050388Y-91880819D01*
X182405356Y-91525851D01*
X182405355Y-91525850D01*
X182757493Y-91525850D01*
X183112462Y-91880819D01*
X183467431Y-91525851D01*
X183819569Y-91525851D01*
X184174537Y-91880819D01*
X184529505Y-91525851D01*
X184881643Y-91525851D01*
X185236611Y-91880819D01*
X185591579Y-91525851D01*
X185236611Y-91170883D01*
X184881643Y-91525851D01*
X184529505Y-91525851D01*
X184174537Y-91170883D01*
X183819569Y-91525851D01*
X183467431Y-91525851D01*
X183173325Y-91231745D01*
X183169378Y-91234024D01*
X183165785Y-91236019D01*
X183165064Y-91236404D01*
X183161505Y-91238232D01*
X183153490Y-91242185D01*
X183149816Y-91243923D01*
X183149070Y-91244261D01*
X183145347Y-91245874D01*
X182961191Y-91322152D01*
X182757493Y-91525850D01*
X182405355Y-91525850D01*
X182327505Y-91448000D01*
X182129192Y-91448000D01*
X182125101Y-91447933D01*
X182124283Y-91447906D01*
X182120270Y-91447708D01*
X182111353Y-91447124D01*
X182107343Y-91446796D01*
X182106528Y-91446716D01*
X182102457Y-91446248D01*
X181862908Y-91414711D01*
X181858781Y-91414097D01*
X181857974Y-91413963D01*
X181854104Y-91413257D01*
X181845338Y-91411514D01*
X181841305Y-91410642D01*
X181840509Y-91410456D01*
X181836629Y-91409484D01*
X181817036Y-91404233D01*
X181695419Y-91525850D01*
X181343281Y-91525850D01*
X180988313Y-91170882D01*
X180686633Y-91472562D01*
X180332974Y-91472562D01*
X180239411Y-91358950D01*
X180206642Y-91322858D01*
X180028414Y-91144630D01*
X179846655Y-90962870D01*
X179846639Y-90962855D01*
X179785562Y-90913629D01*
X180183492Y-90913629D01*
X180400950Y-91131087D01*
X180403014Y-91133200D01*
X180405493Y-91135800D01*
X180407556Y-91138017D01*
X180442742Y-91176773D01*
X180444716Y-91179001D01*
X180447068Y-91181720D01*
X180449005Y-91184015D01*
X180527603Y-91279455D01*
X180812244Y-90994813D01*
X180554891Y-90737460D01*
X180907029Y-90737460D01*
X180912538Y-90742969D01*
X180913497Y-90736500D01*
X180907029Y-90737460D01*
X180554891Y-90737460D01*
X180457276Y-90639845D01*
X180183492Y-90913629D01*
X179785562Y-90913629D01*
X179762555Y-90895086D01*
X179762553Y-90895084D01*
X179425083Y-90678139D01*
X179342566Y-90625092D01*
X179342567Y-90625092D01*
X179295260Y-90598163D01*
X179295258Y-90598162D01*
X179075260Y-90488164D01*
X179048338Y-90475677D01*
X178997553Y-90453912D01*
X179581135Y-90453912D01*
X179913253Y-90667418D01*
X179916047Y-90669268D01*
X179916600Y-90669645D01*
X179919287Y-90671529D01*
X179925213Y-90675803D01*
X179927816Y-90677733D01*
X179928349Y-90678139D01*
X179931026Y-90680236D01*
X180005068Y-90739914D01*
X180281206Y-90463776D01*
X179926239Y-90108809D01*
X179581135Y-90453912D01*
X178997553Y-90453912D01*
X178768337Y-90355676D01*
X178762350Y-90353588D01*
X178702206Y-90332612D01*
X178152206Y-90182612D01*
X178152204Y-90182611D01*
X178152202Y-90182611D01*
X178122396Y-90177057D01*
X178070776Y-90167438D01*
X177680776Y-90127438D01*
X177680774Y-90127438D01*
X177680764Y-90127437D01*
X177557258Y-90129944D01*
X177465662Y-90156840D01*
X177421286Y-90161503D01*
X177403180Y-90160120D01*
X177403162Y-90160120D01*
X177253193Y-90170118D01*
X177221395Y-90173248D01*
X176991438Y-90203243D01*
X176991422Y-90203245D01*
X176991419Y-90203246D01*
X176986683Y-90204027D01*
X176957658Y-90208816D01*
X176807663Y-90238816D01*
X176769938Y-90247879D01*
X176449939Y-90337879D01*
X176403034Y-90353586D01*
X175993036Y-90513585D01*
X175993032Y-90513586D01*
X175993029Y-90513588D01*
X175962538Y-90528048D01*
X175928430Y-90544223D01*
X175538448Y-90764213D01*
X175538446Y-90764214D01*
X175538438Y-90764219D01*
X175538437Y-90764220D01*
X175465450Y-90814289D01*
X175465444Y-90814293D01*
X175465438Y-90814298D01*
X175125454Y-91094285D01*
X175089369Y-91127047D01*
X175089345Y-91127070D01*
X174729370Y-91487044D01*
X174729355Y-91487060D01*
X174661586Y-91571144D01*
X174391592Y-91991133D01*
X174364663Y-92038439D01*
X174364662Y-92038441D01*
X174254664Y-92258439D01*
X174242177Y-92285361D01*
X174122176Y-92565362D01*
X174099112Y-92631493D01*
X173949110Y-93181499D01*
X173933925Y-93263046D01*
X173933924Y-93263050D01*
X173894025Y-93653047D01*
X173894024Y-93653067D01*
X173620989Y-93653067D01*
X173620977Y-93650623D01*
X173620985Y-93649857D01*
X173621081Y-93646091D01*
X173621422Y-93637743D01*
X173621641Y-93633877D01*
X173621696Y-93633115D01*
X173622018Y-93629422D01*
X173646721Y-93387960D01*
X173553793Y-93295032D01*
X173198825Y-93650000D01*
X172490500Y-93650000D01*
X172490499Y-93023251D01*
X172763499Y-93023251D01*
X172763499Y-93214674D01*
X173022756Y-93473931D01*
X173377724Y-93118963D01*
X173022755Y-92763994D01*
X172763499Y-93023251D01*
X172490499Y-93023251D01*
X172490499Y-92587925D01*
X173198824Y-92587925D01*
X173553792Y-92942893D01*
X173797746Y-92698939D01*
X173836411Y-92557171D01*
X173837615Y-92553043D01*
X173839146Y-92548110D01*
X173840489Y-92544031D01*
X173846792Y-92525957D01*
X173553792Y-92232957D01*
X173198824Y-92587925D01*
X172490499Y-92587925D01*
X172490499Y-91988128D01*
X172487730Y-91962370D01*
X172762304Y-91962370D01*
X172762327Y-91962583D01*
X172762649Y-91966029D01*
X172762702Y-91966697D01*
X172762913Y-91969873D01*
X172763304Y-91977173D01*
X172763436Y-91980470D01*
X172763454Y-91981139D01*
X172763499Y-91984474D01*
X172763499Y-92152599D01*
X173022756Y-92411856D01*
X173377724Y-92056888D01*
X173729862Y-92056888D01*
X173949113Y-92276139D01*
X173992108Y-92175820D01*
X173993593Y-92172493D01*
X174007930Y-92141582D01*
X174009510Y-92138302D01*
X174121385Y-91914552D01*
X174122915Y-91911592D01*
X174124805Y-91908053D01*
X174126421Y-91905123D01*
X174155322Y-91854352D01*
X174156991Y-91851508D01*
X174159068Y-91848075D01*
X174160856Y-91845209D01*
X174187176Y-91804266D01*
X174084830Y-91701920D01*
X173729862Y-92056888D01*
X173377724Y-92056888D01*
X173022755Y-91701919D01*
X172762304Y-91962370D01*
X172487730Y-91962370D01*
X172484091Y-91928517D01*
X172481769Y-91922292D01*
X172433797Y-91793671D01*
X172433793Y-91793664D01*
X172347547Y-91678455D01*
X172347544Y-91678452D01*
X172232335Y-91592206D01*
X172232328Y-91592202D01*
X172097482Y-91541908D01*
X172097483Y-91541908D01*
X172037883Y-91535501D01*
X172037881Y-91535500D01*
X172037873Y-91535500D01*
X172037864Y-91535500D01*
X170142129Y-91535500D01*
X170142123Y-91535501D01*
X170082516Y-91541908D01*
X169947671Y-91592202D01*
X169947664Y-91592206D01*
X169832455Y-91678452D01*
X169832452Y-91678455D01*
X169746206Y-91793664D01*
X169746202Y-91793671D01*
X169695908Y-91928517D01*
X169689893Y-91984474D01*
X169689501Y-91988123D01*
X169689500Y-91988135D01*
X169060673Y-91988135D01*
X168783037Y-91710499D01*
X169135176Y-91710499D01*
X169305495Y-91880818D01*
X169475815Y-91710499D01*
X169135176Y-91710499D01*
X168783037Y-91710499D01*
X168765879Y-91710499D01*
X168673500Y-91802878D01*
X168400500Y-91802878D01*
X168400500Y-91557201D01*
X168420185Y-91490162D01*
X168472989Y-91444407D01*
X168511240Y-91433912D01*
X168526748Y-91432245D01*
X168553250Y-91432245D01*
X168602127Y-91437500D01*
X168977872Y-91437499D01*
X168977875Y-91437498D01*
X168977887Y-91437498D01*
X169004376Y-91434649D01*
X169026748Y-91432245D01*
X169053250Y-91432245D01*
X169102127Y-91437500D01*
X169477872Y-91437499D01*
X169537483Y-91431091D01*
X169672331Y-91380796D01*
X169732177Y-91335995D01*
X172326606Y-91335995D01*
X172336880Y-91339827D01*
X172345052Y-91343212D01*
X172346677Y-91343954D01*
X172354602Y-91347920D01*
X172371737Y-91357277D01*
X172379382Y-91361815D01*
X172380884Y-91362781D01*
X172388120Y-91367807D01*
X172518964Y-91465757D01*
X172525859Y-91471314D01*
X172527208Y-91472483D01*
X172533683Y-91478512D01*
X172547488Y-91492317D01*
X172553517Y-91498792D01*
X172554686Y-91500141D01*
X172560243Y-91507036D01*
X172658193Y-91637880D01*
X172663219Y-91645116D01*
X172664185Y-91646618D01*
X172668723Y-91654263D01*
X172678080Y-91671398D01*
X172682046Y-91679323D01*
X172682788Y-91680948D01*
X172685365Y-91687171D01*
X172846685Y-91525851D01*
X173198825Y-91525851D01*
X173553793Y-91880819D01*
X173908761Y-91525851D01*
X174260899Y-91525851D01*
X174324969Y-91589921D01*
X174433918Y-91420447D01*
X174435768Y-91417653D01*
X174436145Y-91417100D01*
X174438029Y-91414413D01*
X174442303Y-91408487D01*
X174444233Y-91405884D01*
X174444639Y-91405351D01*
X174446736Y-91402674D01*
X174519095Y-91312898D01*
X174521100Y-91310475D01*
X174521532Y-91309966D01*
X174523823Y-91307341D01*
X174528705Y-91301906D01*
X174530902Y-91299525D01*
X174531363Y-91299038D01*
X174533734Y-91296601D01*
X174637659Y-91192675D01*
X174615867Y-91170882D01*
X174260899Y-91525851D01*
X173908761Y-91525851D01*
X173553793Y-91170883D01*
X173198825Y-91525851D01*
X172846685Y-91525851D01*
X172846686Y-91525850D01*
X172491718Y-91170882D01*
X172326606Y-91335995D01*
X169732177Y-91335995D01*
X169787546Y-91294546D01*
X169873796Y-91179331D01*
X169924091Y-91044483D01*
X169929431Y-90994814D01*
X170543639Y-90994814D01*
X170811325Y-91262500D01*
X170985888Y-91262500D01*
X171253573Y-90994814D01*
X171605713Y-90994814D01*
X171873399Y-91262500D01*
X172041529Y-91262500D01*
X172044859Y-91262545D01*
X172045529Y-91262563D01*
X172047808Y-91262654D01*
X172315648Y-90994814D01*
X172667788Y-90994814D01*
X173022756Y-91349782D01*
X173377724Y-90994814D01*
X173729862Y-90994814D01*
X174084830Y-91349782D01*
X174439798Y-90994814D01*
X174791937Y-90994814D01*
X174813729Y-91016606D01*
X174897587Y-90932749D01*
X174899700Y-90930686D01*
X174902300Y-90928207D01*
X174904517Y-90926144D01*
X174943273Y-90890958D01*
X174945501Y-90888984D01*
X174948220Y-90886632D01*
X174950515Y-90884695D01*
X175192484Y-90685425D01*
X175146905Y-90639846D01*
X174791937Y-90994814D01*
X174439798Y-90994814D01*
X174084830Y-90639846D01*
X173729862Y-90994814D01*
X173377724Y-90994814D01*
X173022756Y-90639846D01*
X172667788Y-90994814D01*
X172315648Y-90994814D01*
X172315649Y-90994813D01*
X171960681Y-90639845D01*
X171605713Y-90994814D01*
X171253573Y-90994814D01*
X171253574Y-90994813D01*
X170898607Y-90639846D01*
X170543639Y-90994814D01*
X169929431Y-90994814D01*
X169930500Y-90984873D01*
X169930499Y-90272879D01*
X170203499Y-90272879D01*
X170203499Y-90654674D01*
X170367570Y-90818745D01*
X170722538Y-90463777D01*
X171074676Y-90463777D01*
X171429644Y-90818745D01*
X171784612Y-90463777D01*
X172136751Y-90463777D01*
X172491719Y-90818745D01*
X172846687Y-90463777D01*
X173198825Y-90463777D01*
X173553793Y-90818745D01*
X173908761Y-90463777D01*
X174260899Y-90463777D01*
X174615867Y-90818745D01*
X174970835Y-90463777D01*
X175322974Y-90463777D01*
X175392617Y-90533420D01*
X175396779Y-90530826D01*
X175401461Y-90528048D01*
X175796602Y-90305148D01*
X175800469Y-90303056D01*
X175805152Y-90300629D01*
X175809075Y-90298683D01*
X175848919Y-90279786D01*
X175677942Y-90108809D01*
X175322974Y-90463777D01*
X174970835Y-90463777D01*
X174615867Y-90108808D01*
X174260899Y-90463777D01*
X173908761Y-90463777D01*
X173553793Y-90108809D01*
X173198825Y-90463777D01*
X172846687Y-90463777D01*
X172491719Y-90108809D01*
X172136751Y-90463777D01*
X171784612Y-90463777D01*
X171429644Y-90108809D01*
X171074676Y-90463777D01*
X170722538Y-90463777D01*
X170367569Y-90108808D01*
X170203499Y-90272879D01*
X169930499Y-90272879D01*
X169930499Y-89932739D01*
X170543638Y-89932739D01*
X170898607Y-90287708D01*
X171253575Y-89932739D01*
X171605713Y-89932739D01*
X171960681Y-90287708D01*
X172315650Y-89932739D01*
X172667787Y-89932739D01*
X173022756Y-90287708D01*
X173377724Y-89932739D01*
X173729861Y-89932739D01*
X174084830Y-90287708D01*
X174439798Y-89932739D01*
X174791936Y-89932739D01*
X175146905Y-90287708D01*
X175501873Y-89932739D01*
X175854010Y-89932739D01*
X176100044Y-90178773D01*
X176305479Y-90098605D01*
X176308288Y-90097548D01*
X176311716Y-90096305D01*
X176314613Y-90095295D01*
X176364982Y-90078429D01*
X176367845Y-90077509D01*
X176371331Y-90076435D01*
X176374268Y-90075569D01*
X176439449Y-90057236D01*
X176563946Y-89932739D01*
X176916084Y-89932739D01*
X176921445Y-89938100D01*
X176949464Y-89933478D01*
X176953610Y-89932866D01*
X177188443Y-89902235D01*
X177192336Y-89901789D01*
X177228773Y-89898203D01*
X177232669Y-89897882D01*
X177379603Y-89888086D01*
X178022812Y-89888086D01*
X178101670Y-89896175D01*
X178106710Y-89896797D01*
X178112759Y-89897669D01*
X178117782Y-89898498D01*
X178205221Y-89914791D01*
X178210202Y-89915826D01*
X178216159Y-89917191D01*
X178221090Y-89918427D01*
X178599268Y-90021567D01*
X178688095Y-89932739D01*
X179040233Y-89932739D01*
X179395202Y-90287708D01*
X179750170Y-89932739D01*
X180102308Y-89932739D01*
X180361140Y-90191571D01*
X180311664Y-90072124D01*
X180310226Y-90068493D01*
X180309937Y-90067728D01*
X180308518Y-90063767D01*
X180305645Y-90055304D01*
X180304381Y-90051366D01*
X180304144Y-90050583D01*
X180303051Y-90046754D01*
X180240516Y-89813370D01*
X180239544Y-89809491D01*
X180239358Y-89808695D01*
X180238486Y-89804662D01*
X180237142Y-89797905D01*
X180102308Y-89932739D01*
X179750170Y-89932739D01*
X179395202Y-89577771D01*
X179040233Y-89932739D01*
X178688095Y-89932739D01*
X178333128Y-89577771D01*
X178022812Y-89888086D01*
X177379603Y-89888086D01*
X177389878Y-89887401D01*
X177394241Y-89887187D01*
X177395134Y-89887159D01*
X177399618Y-89887099D01*
X177409366Y-89887146D01*
X177413907Y-89887252D01*
X177414680Y-89887284D01*
X177489047Y-89865449D01*
X177496995Y-89863398D01*
X177498614Y-89863037D01*
X177506712Y-89861512D01*
X177524633Y-89858750D01*
X177532827Y-89857765D01*
X177534479Y-89857622D01*
X177542656Y-89857186D01*
X177550312Y-89857030D01*
X177271053Y-89577771D01*
X176916084Y-89932739D01*
X176563946Y-89932739D01*
X176208979Y-89577771D01*
X175854010Y-89932739D01*
X175501873Y-89932739D01*
X175146905Y-89577771D01*
X174791936Y-89932739D01*
X174439798Y-89932739D01*
X174084830Y-89577771D01*
X173729861Y-89932739D01*
X173377724Y-89932739D01*
X173022756Y-89577771D01*
X172667787Y-89932739D01*
X172315650Y-89932739D01*
X171960681Y-89577771D01*
X171605713Y-89932739D01*
X171253575Y-89932739D01*
X170898607Y-89577771D01*
X170543638Y-89932739D01*
X169930499Y-89932739D01*
X169930499Y-89639128D01*
X169924091Y-89579517D01*
X169923439Y-89577770D01*
X169873797Y-89444671D01*
X169873793Y-89444664D01*
X169857950Y-89423500D01*
X170157272Y-89423500D01*
X170182863Y-89492114D01*
X170185353Y-89499488D01*
X170185806Y-89500983D01*
X170187809Y-89508421D01*
X170191737Y-89525041D01*
X170193292Y-89532688D01*
X170193555Y-89534228D01*
X170194615Y-89541848D01*
X170199658Y-89588758D01*
X170367570Y-89756670D01*
X170700740Y-89423500D01*
X171096474Y-89423500D01*
X171429644Y-89756670D01*
X171762814Y-89423500D01*
X172158549Y-89423500D01*
X172491719Y-89756670D01*
X172824889Y-89423500D01*
X173220623Y-89423500D01*
X173553793Y-89756670D01*
X173886963Y-89423500D01*
X174282697Y-89423500D01*
X174615867Y-89756670D01*
X174949038Y-89423500D01*
X175344772Y-89423500D01*
X175677942Y-89756670D01*
X176011112Y-89423500D01*
X176406846Y-89423500D01*
X176740016Y-89756670D01*
X177073186Y-89423500D01*
X177468921Y-89423500D01*
X177802091Y-89756670D01*
X178135261Y-89423500D01*
X178530995Y-89423500D01*
X178864165Y-89756670D01*
X179197335Y-89423500D01*
X179593069Y-89423500D01*
X179926238Y-89756669D01*
X180202000Y-89480908D01*
X180202000Y-89423500D01*
X179593069Y-89423500D01*
X179197335Y-89423500D01*
X178530995Y-89423500D01*
X178135261Y-89423500D01*
X177468921Y-89423500D01*
X177073186Y-89423500D01*
X176406846Y-89423500D01*
X176011112Y-89423500D01*
X175344772Y-89423500D01*
X174949038Y-89423500D01*
X174282697Y-89423500D01*
X173886963Y-89423500D01*
X173220623Y-89423500D01*
X172824889Y-89423500D01*
X172158549Y-89423500D01*
X171762814Y-89423500D01*
X171096474Y-89423500D01*
X170700740Y-89423500D01*
X170157272Y-89423500D01*
X169857950Y-89423500D01*
X169802037Y-89348811D01*
X169777619Y-89283347D01*
X169792470Y-89215074D01*
X169841875Y-89165668D01*
X169901303Y-89150500D01*
X180351334Y-89150500D01*
X180418373Y-89170185D01*
G37*
%TD.AperFunction*%
%TA.AperFunction,Conductor*%
G36*
X137877941Y-89170185D02*
G01*
X137923696Y-89222989D01*
X137933640Y-89292147D01*
X137904615Y-89355703D01*
X137898583Y-89362181D01*
X137185563Y-90075201D01*
X137124240Y-90108686D01*
X137096362Y-90106692D01*
X137096362Y-90110000D01*
X136997155Y-90110000D01*
X136937627Y-90116401D01*
X136937620Y-90116403D01*
X136802913Y-90166645D01*
X136802906Y-90166649D01*
X136687812Y-90252809D01*
X136687809Y-90252812D01*
X136601649Y-90367906D01*
X136601645Y-90367913D01*
X136551403Y-90502620D01*
X136551401Y-90502627D01*
X136545000Y-90562155D01*
X136545000Y-91035000D01*
X136920501Y-91035000D01*
X136987540Y-91054685D01*
X137033295Y-91107489D01*
X137044501Y-91159000D01*
X137044501Y-91161000D01*
X137024816Y-91228039D01*
X136972012Y-91273794D01*
X136920501Y-91285000D01*
X136545000Y-91285000D01*
X136545000Y-91524402D01*
X136525315Y-91591441D01*
X136508681Y-91612083D01*
X136478480Y-91642284D01*
X136478478Y-91642286D01*
X136467630Y-91653134D01*
X136462010Y-91658754D01*
X136400685Y-91692237D01*
X136350139Y-91692687D01*
X136283844Y-91679500D01*
X136283842Y-91679500D01*
X136160752Y-91679500D01*
X136093713Y-91659815D01*
X136055213Y-91620596D01*
X136052968Y-91616956D01*
X136043339Y-91607327D01*
X136009854Y-91546004D01*
X136014838Y-91476312D01*
X136043345Y-91431959D01*
X136052573Y-91422731D01*
X136141542Y-91278492D01*
X136141547Y-91278481D01*
X136194855Y-91117606D01*
X136204999Y-91018322D01*
X136205000Y-91018309D01*
X136205000Y-90995000D01*
X134255001Y-90995000D01*
X134255001Y-91018322D01*
X134265144Y-91117607D01*
X134318452Y-91278481D01*
X134318457Y-91278492D01*
X134407424Y-91422728D01*
X134407427Y-91422732D01*
X134416660Y-91431965D01*
X134450145Y-91493288D01*
X134445161Y-91562980D01*
X134416663Y-91607324D01*
X134407033Y-91616953D01*
X134407029Y-91616959D01*
X134318001Y-91761294D01*
X134317996Y-91761305D01*
X134264651Y-91922290D01*
X134254500Y-92021647D01*
X134254500Y-92054528D01*
X134234815Y-92121567D01*
X134182011Y-92167322D01*
X134112853Y-92177266D01*
X134049297Y-92148241D01*
X134034646Y-92133192D01*
X134031786Y-92129707D01*
X133920292Y-92018213D01*
X133920288Y-92018210D01*
X133789185Y-91930609D01*
X133789172Y-91930602D01*
X133643501Y-91870264D01*
X133643491Y-91870261D01*
X133488149Y-91839361D01*
X133426238Y-91806976D01*
X133424660Y-91805425D01*
X133366590Y-91747355D01*
X133366588Y-91747352D01*
X133247717Y-91628481D01*
X133247716Y-91628480D01*
X133153727Y-91574216D01*
X133153726Y-91574215D01*
X133110783Y-91549422D01*
X133042351Y-91531086D01*
X132958057Y-91508499D01*
X132799943Y-91508499D01*
X132792347Y-91508499D01*
X132792331Y-91508500D01*
X131741942Y-91508500D01*
X131589214Y-91549423D01*
X131546273Y-91574216D01*
X131546272Y-91574216D01*
X131452287Y-91628477D01*
X131452282Y-91628481D01*
X131287583Y-91793181D01*
X131226260Y-91826666D01*
X131199902Y-91829500D01*
X130646798Y-91829500D01*
X130609932Y-91832401D01*
X130609926Y-91832402D01*
X130452106Y-91878254D01*
X130452103Y-91878255D01*
X130310637Y-91961917D01*
X130310629Y-91961923D01*
X130194423Y-92078129D01*
X130194417Y-92078137D01*
X130110755Y-92219603D01*
X130110754Y-92219606D01*
X130064902Y-92377426D01*
X130064901Y-92377432D01*
X130063517Y-92395029D01*
X130038633Y-92460317D01*
X129982402Y-92501788D01*
X129912677Y-92506275D01*
X129852218Y-92472981D01*
X129784397Y-92405160D01*
X129784374Y-92405139D01*
X129086390Y-91707155D01*
X129472470Y-91707155D01*
X129827438Y-92062123D01*
X129832673Y-92056887D01*
X129477705Y-91701919D01*
X129472470Y-91707155D01*
X129086390Y-91707155D01*
X128555353Y-91176118D01*
X128941433Y-91176118D01*
X129296401Y-91531086D01*
X129301635Y-91525851D01*
X129653775Y-91525851D01*
X130007199Y-91879275D01*
X130123667Y-91762807D01*
X130129320Y-91757497D01*
X130130499Y-91756457D01*
X130136522Y-91751472D01*
X130143509Y-91746051D01*
X130363709Y-91525851D01*
X130715850Y-91525851D01*
X130746499Y-91556500D01*
X131138183Y-91556500D01*
X131265570Y-91429114D01*
X131271478Y-91423580D01*
X131272708Y-91422501D01*
X131278991Y-91417344D01*
X131293186Y-91406451D01*
X131299806Y-91401708D01*
X131300907Y-91400972D01*
X131070818Y-91170883D01*
X130715850Y-91525851D01*
X130363709Y-91525851D01*
X130363710Y-91525850D01*
X130008743Y-91170883D01*
X129653775Y-91525851D01*
X129301635Y-91525851D01*
X129301636Y-91525850D01*
X128946668Y-91170882D01*
X128941433Y-91176118D01*
X128555353Y-91176118D01*
X128024316Y-90645081D01*
X128410396Y-90645081D01*
X128765364Y-91000049D01*
X128770598Y-90994814D01*
X129122738Y-90994814D01*
X129477706Y-91349782D01*
X129832674Y-90994814D01*
X130184812Y-90994814D01*
X130539780Y-91349782D01*
X130894748Y-90994814D01*
X131246887Y-90994814D01*
X131533732Y-91281659D01*
X131598469Y-91264313D01*
X133101535Y-91264313D01*
X133190085Y-91288041D01*
X133197816Y-91290385D01*
X133199367Y-91290911D01*
X133207003Y-91293785D01*
X133223532Y-91300633D01*
X133230888Y-91303964D01*
X133232355Y-91304687D01*
X133239538Y-91308526D01*
X133290227Y-91337791D01*
X133391963Y-91396528D01*
X133398833Y-91400799D01*
X133400194Y-91401708D01*
X133406814Y-91406451D01*
X133421009Y-91417344D01*
X133427292Y-91422501D01*
X133428522Y-91423580D01*
X133434430Y-91429114D01*
X133540551Y-91535234D01*
X133549934Y-91525850D01*
X133902072Y-91525850D01*
X134057062Y-91680840D01*
X134061355Y-91667886D01*
X134063819Y-91661117D01*
X134064356Y-91659765D01*
X134067216Y-91653134D01*
X134073935Y-91638725D01*
X134077147Y-91632325D01*
X134077837Y-91631044D01*
X134081469Y-91624751D01*
X134146374Y-91519523D01*
X134081925Y-91415036D01*
X134078293Y-91408743D01*
X134077603Y-91407462D01*
X134074391Y-91401062D01*
X134067672Y-91386653D01*
X134064812Y-91380022D01*
X134064275Y-91378670D01*
X134061811Y-91371901D01*
X134060370Y-91367553D01*
X133902072Y-91525850D01*
X133549934Y-91525850D01*
X133194966Y-91170882D01*
X133101535Y-91264313D01*
X131598469Y-91264313D01*
X131679925Y-91242487D01*
X131687846Y-91240641D01*
X131689451Y-91240322D01*
X131697435Y-91239004D01*
X131714937Y-91236699D01*
X131956823Y-90994814D01*
X132308961Y-90994814D01*
X132549647Y-91235500D01*
X132778211Y-91235500D01*
X133018897Y-90994814D01*
X133371036Y-90994814D01*
X133726003Y-91349781D01*
X133987706Y-91088078D01*
X133983061Y-91042601D01*
X133982772Y-91039346D01*
X133982724Y-91038711D01*
X133982532Y-91035681D01*
X133982178Y-91028741D01*
X133982056Y-91025543D01*
X133982040Y-91024907D01*
X133982001Y-91021788D01*
X133982001Y-90938665D01*
X133989106Y-90902948D01*
X133726004Y-90639846D01*
X133371036Y-90994814D01*
X133018897Y-90994814D01*
X132663929Y-90639846D01*
X132308961Y-90994814D01*
X131956823Y-90994814D01*
X131601855Y-90639846D01*
X131246887Y-90994814D01*
X130894748Y-90994814D01*
X130539780Y-90639845D01*
X130184812Y-90994814D01*
X129832674Y-90994814D01*
X129477706Y-90639846D01*
X129122738Y-90994814D01*
X128770598Y-90994814D01*
X128770599Y-90994813D01*
X128415631Y-90639845D01*
X128410396Y-90645081D01*
X128024316Y-90645081D01*
X127493279Y-90114044D01*
X127879359Y-90114044D01*
X128234327Y-90469012D01*
X128239561Y-90463777D01*
X128591701Y-90463777D01*
X128946669Y-90818745D01*
X129301637Y-90463777D01*
X129653775Y-90463777D01*
X130008743Y-90818745D01*
X130363711Y-90463777D01*
X130715850Y-90463777D01*
X131070818Y-90818745D01*
X131425786Y-90463777D01*
X131777924Y-90463777D01*
X132132892Y-90818745D01*
X132487860Y-90463777D01*
X132839998Y-90463777D01*
X133194966Y-90818745D01*
X133549934Y-90463777D01*
X133902073Y-90463777D01*
X133982000Y-90543704D01*
X133982000Y-90471677D01*
X134255000Y-90471677D01*
X134255000Y-90495000D01*
X134980000Y-90495000D01*
X135480000Y-90495000D01*
X136204999Y-90495000D01*
X136204999Y-90471692D01*
X136204998Y-90471677D01*
X136194855Y-90372392D01*
X136141547Y-90211518D01*
X136141542Y-90211507D01*
X136052575Y-90067271D01*
X136052572Y-90067267D01*
X135932732Y-89947427D01*
X135932728Y-89947424D01*
X135857459Y-89900997D01*
X136589000Y-89900997D01*
X136589000Y-89964481D01*
X136601169Y-89976650D01*
X136647122Y-89942250D01*
X136654358Y-89937224D01*
X136655860Y-89936258D01*
X136663505Y-89931720D01*
X136680640Y-89922363D01*
X136688565Y-89918397D01*
X136690190Y-89917655D01*
X136698362Y-89914270D01*
X136850222Y-89857630D01*
X136857524Y-89855162D01*
X136859019Y-89854708D01*
X136866541Y-89852680D01*
X136883160Y-89848754D01*
X136890781Y-89847204D01*
X136892320Y-89846941D01*
X136899951Y-89845880D01*
X136971623Y-89838173D01*
X136975072Y-89837850D01*
X136975740Y-89837797D01*
X136978916Y-89837586D01*
X136986216Y-89837195D01*
X136989513Y-89837063D01*
X136990182Y-89837045D01*
X136993517Y-89837000D01*
X137037684Y-89837000D01*
X137104569Y-89770114D01*
X136912226Y-89577771D01*
X136589000Y-89900997D01*
X135857459Y-89900997D01*
X135788492Y-89858457D01*
X135788481Y-89858452D01*
X135627606Y-89805144D01*
X135528322Y-89795000D01*
X135480000Y-89795000D01*
X135480000Y-90495000D01*
X134980000Y-90495000D01*
X134980000Y-89795000D01*
X134979999Y-89794999D01*
X134931693Y-89795000D01*
X134931675Y-89795001D01*
X134832392Y-89805144D01*
X134671518Y-89858452D01*
X134671507Y-89858457D01*
X134527271Y-89947424D01*
X134527267Y-89947427D01*
X134407427Y-90067267D01*
X134407424Y-90067271D01*
X134318457Y-90211507D01*
X134318452Y-90211518D01*
X134265144Y-90372393D01*
X134255000Y-90471677D01*
X133982000Y-90471677D01*
X133982000Y-90468210D01*
X133982039Y-90465091D01*
X133982055Y-90464455D01*
X133982177Y-90461257D01*
X133982531Y-90454317D01*
X133982723Y-90451287D01*
X133982771Y-90450652D01*
X133983060Y-90447396D01*
X133990411Y-90375438D01*
X133902073Y-90463777D01*
X133549934Y-90463777D01*
X133194966Y-90108808D01*
X132839998Y-90463777D01*
X132487860Y-90463777D01*
X132132892Y-90108809D01*
X131777924Y-90463777D01*
X131425786Y-90463777D01*
X131070818Y-90108809D01*
X130715850Y-90463777D01*
X130363711Y-90463777D01*
X130008743Y-90108809D01*
X129653775Y-90463777D01*
X129301637Y-90463777D01*
X128946669Y-90108809D01*
X128591701Y-90463777D01*
X128239561Y-90463777D01*
X128239562Y-90463776D01*
X127884594Y-90108808D01*
X127879359Y-90114044D01*
X127493279Y-90114044D01*
X126962241Y-89583006D01*
X127348321Y-89583006D01*
X127703290Y-89937975D01*
X127708525Y-89932739D01*
X128060663Y-89932739D01*
X128415632Y-90287708D01*
X128770600Y-89932739D01*
X129122737Y-89932739D01*
X129477706Y-90287708D01*
X129832674Y-89932739D01*
X130184811Y-89932739D01*
X130539780Y-90287708D01*
X130894748Y-89932739D01*
X131246886Y-89932739D01*
X131601855Y-90287708D01*
X131956823Y-89932739D01*
X132308960Y-89932739D01*
X132663929Y-90287708D01*
X133018897Y-89932739D01*
X133371035Y-89932739D01*
X133726004Y-90287708D01*
X134080972Y-89932739D01*
X133726004Y-89577771D01*
X133371035Y-89932739D01*
X133018897Y-89932739D01*
X132663929Y-89577771D01*
X132308960Y-89932739D01*
X131956823Y-89932739D01*
X131601855Y-89577771D01*
X131246886Y-89932739D01*
X130894748Y-89932739D01*
X130539780Y-89577771D01*
X130184811Y-89932739D01*
X129832674Y-89932739D01*
X129477706Y-89577771D01*
X129122737Y-89932739D01*
X128770600Y-89932739D01*
X128415632Y-89577771D01*
X128060663Y-89932739D01*
X127708525Y-89932739D01*
X127353556Y-89577770D01*
X127348321Y-89583006D01*
X126962241Y-89583006D01*
X126897590Y-89518355D01*
X126897588Y-89518352D01*
X126802736Y-89423500D01*
X127551424Y-89423500D01*
X127884594Y-89756670D01*
X128217765Y-89423500D01*
X128613499Y-89423500D01*
X128946669Y-89756670D01*
X129279839Y-89423500D01*
X129675573Y-89423500D01*
X130008743Y-89756670D01*
X130341913Y-89423500D01*
X130737648Y-89423500D01*
X131070818Y-89756670D01*
X131403988Y-89423500D01*
X131799722Y-89423500D01*
X132132892Y-89756670D01*
X132466062Y-89423500D01*
X132861796Y-89423500D01*
X133194966Y-89756670D01*
X133528137Y-89423500D01*
X133923871Y-89423500D01*
X134257041Y-89756670D01*
X134590211Y-89423500D01*
X134985945Y-89423500D01*
X135107181Y-89544736D01*
X135133203Y-89562123D01*
X135212875Y-89641794D01*
X135230000Y-89667423D01*
X135247125Y-89641796D01*
X135326796Y-89562125D01*
X135367022Y-89535246D01*
X135376210Y-89531440D01*
X135423665Y-89522000D01*
X135531790Y-89522000D01*
X135534909Y-89522039D01*
X135535545Y-89522055D01*
X135538743Y-89522177D01*
X135545683Y-89522531D01*
X135548713Y-89522723D01*
X135549348Y-89522771D01*
X135552604Y-89523060D01*
X135552713Y-89523071D01*
X135652285Y-89423500D01*
X136196249Y-89423500D01*
X136236137Y-89434188D01*
X136266045Y-89446576D01*
X136362957Y-89502529D01*
X136388637Y-89522235D01*
X136467765Y-89601363D01*
X136487471Y-89627043D01*
X136496016Y-89641843D01*
X136714360Y-89423500D01*
X137110094Y-89423500D01*
X137280639Y-89594045D01*
X137451184Y-89423500D01*
X137110094Y-89423500D01*
X136714360Y-89423500D01*
X136196249Y-89423500D01*
X135652285Y-89423500D01*
X134985945Y-89423500D01*
X134590211Y-89423500D01*
X133923871Y-89423500D01*
X133528137Y-89423500D01*
X132861796Y-89423500D01*
X132466062Y-89423500D01*
X131799722Y-89423500D01*
X131403988Y-89423500D01*
X130737648Y-89423500D01*
X130341913Y-89423500D01*
X129675573Y-89423500D01*
X129279839Y-89423500D01*
X128613499Y-89423500D01*
X128217765Y-89423500D01*
X127551424Y-89423500D01*
X126802736Y-89423500D01*
X126778717Y-89399481D01*
X126778716Y-89399480D01*
X126748244Y-89381887D01*
X126700029Y-89331321D01*
X126686805Y-89262714D01*
X126712773Y-89197849D01*
X126769687Y-89157320D01*
X126810244Y-89150500D01*
X137810902Y-89150500D01*
X137877941Y-89170185D01*
G37*
%TD.AperFunction*%
%TA.AperFunction,Conductor*%
G36*
X117618373Y-89170185D02*
G01*
X117664128Y-89222989D01*
X117674518Y-89279601D01*
X117675000Y-89279601D01*
X117675000Y-89282226D01*
X117675069Y-89282602D01*
X117675000Y-89283655D01*
X117675000Y-89516340D01*
X117705369Y-89747024D01*
X117765592Y-89971779D01*
X117854632Y-90186740D01*
X117854636Y-90186750D01*
X117970970Y-90388248D01*
X118030551Y-90465894D01*
X118695884Y-89800560D01*
X118696740Y-89802626D01*
X118789762Y-89941844D01*
X118908156Y-90060238D01*
X119047374Y-90153260D01*
X119049436Y-90154114D01*
X118384104Y-90819446D01*
X118384104Y-90819447D01*
X118461752Y-90879029D01*
X118663249Y-90995363D01*
X118663259Y-90995367D01*
X118821562Y-91060939D01*
X118875965Y-91104780D01*
X118898030Y-91171074D01*
X118880751Y-91238773D01*
X118829614Y-91286384D01*
X118774109Y-91299500D01*
X115624499Y-91299500D01*
X115557460Y-91279815D01*
X115511705Y-91227011D01*
X115500499Y-91175500D01*
X115500499Y-90952129D01*
X115500498Y-90952123D01*
X115499747Y-90945139D01*
X115495212Y-90902948D01*
X115494091Y-90892516D01*
X115443797Y-90757671D01*
X115443793Y-90757664D01*
X115380049Y-90672513D01*
X115703406Y-90672513D01*
X115752863Y-90805114D01*
X115755353Y-90812488D01*
X115755806Y-90813983D01*
X115757809Y-90821421D01*
X115761737Y-90838041D01*
X115763292Y-90845688D01*
X115763555Y-90847228D01*
X115764615Y-90854848D01*
X115772327Y-90926583D01*
X115772649Y-90930029D01*
X115772702Y-90930697D01*
X115772913Y-90933873D01*
X115773304Y-90941173D01*
X115773436Y-90944470D01*
X115773454Y-90945139D01*
X115773499Y-90948474D01*
X115773499Y-91026500D01*
X115994021Y-91026500D01*
X116025707Y-90994814D01*
X116377845Y-90994814D01*
X116409531Y-91026500D01*
X117056096Y-91026500D01*
X117087781Y-90994814D01*
X117439920Y-90994814D01*
X117471606Y-91026500D01*
X118118170Y-91026500D01*
X118149856Y-90994814D01*
X117794888Y-90639846D01*
X117439920Y-90994814D01*
X117087781Y-90994814D01*
X116732813Y-90639845D01*
X116377845Y-90994814D01*
X116025707Y-90994814D01*
X115703406Y-90672513D01*
X115380049Y-90672513D01*
X115357547Y-90642455D01*
X115357544Y-90642452D01*
X115242335Y-90556206D01*
X115242328Y-90556202D01*
X115107482Y-90505908D01*
X115107483Y-90505908D01*
X115047883Y-90499501D01*
X115047881Y-90499500D01*
X115047873Y-90499500D01*
X115047865Y-90499500D01*
X113674500Y-90499500D01*
X113607461Y-90479815D01*
X113593564Y-90463777D01*
X115846808Y-90463777D01*
X116201776Y-90818745D01*
X116556744Y-90463777D01*
X116908883Y-90463777D01*
X117263851Y-90818745D01*
X117618819Y-90463777D01*
X117263851Y-90108809D01*
X116908883Y-90463777D01*
X116556744Y-90463777D01*
X116201776Y-90108809D01*
X115846808Y-90463777D01*
X113593564Y-90463777D01*
X113561706Y-90427011D01*
X113550500Y-90375500D01*
X113550500Y-90226500D01*
X113959936Y-90226500D01*
X114195319Y-90226500D01*
X114077627Y-90108808D01*
X113959936Y-90226500D01*
X113550500Y-90226500D01*
X113550500Y-89932739D01*
X114253696Y-89932739D01*
X114547457Y-90226500D01*
X114669873Y-90226500D01*
X115022011Y-90226500D01*
X115051529Y-90226500D01*
X115054859Y-90226545D01*
X115055529Y-90226563D01*
X115058846Y-90226696D01*
X115066148Y-90227088D01*
X115069522Y-90227316D01*
X115070188Y-90227370D01*
X115073422Y-90227674D01*
X115145155Y-90235386D01*
X115152788Y-90236448D01*
X115154327Y-90236711D01*
X115161956Y-90238263D01*
X115178574Y-90242190D01*
X115186016Y-90244194D01*
X115187511Y-90244647D01*
X115194885Y-90247137D01*
X115327486Y-90296593D01*
X115139702Y-90108809D01*
X115022011Y-90226500D01*
X114669873Y-90226500D01*
X114963633Y-89932739D01*
X115315770Y-89932739D01*
X115670739Y-90287708D01*
X116025707Y-89932739D01*
X116377844Y-89932739D01*
X116732813Y-90287708D01*
X117087781Y-89932739D01*
X116732813Y-89577771D01*
X116377844Y-89932739D01*
X116025707Y-89932739D01*
X115670739Y-89577771D01*
X115315770Y-89932739D01*
X114963633Y-89932739D01*
X114608665Y-89577771D01*
X114253696Y-89932739D01*
X113550500Y-89932739D01*
X113550500Y-89502542D01*
X113823500Y-89502542D01*
X114077628Y-89756670D01*
X114410798Y-89423500D01*
X114806532Y-89423500D01*
X115139702Y-89756670D01*
X115472872Y-89423500D01*
X115868606Y-89423500D01*
X116201776Y-89756670D01*
X116534946Y-89423500D01*
X116930681Y-89423500D01*
X117263850Y-89756669D01*
X117411805Y-89608714D01*
X117403752Y-89547543D01*
X117403284Y-89543472D01*
X117403204Y-89542657D01*
X117402876Y-89538647D01*
X117402292Y-89529730D01*
X117402094Y-89525717D01*
X117402067Y-89524899D01*
X117402000Y-89520808D01*
X117402000Y-89423500D01*
X116930681Y-89423500D01*
X116534946Y-89423500D01*
X115868606Y-89423500D01*
X115472872Y-89423500D01*
X114806532Y-89423500D01*
X114410798Y-89423500D01*
X113823500Y-89423500D01*
X113823500Y-89502542D01*
X113550500Y-89502542D01*
X113550500Y-89274500D01*
X113570185Y-89207461D01*
X113622989Y-89161706D01*
X113674500Y-89150500D01*
X117551334Y-89150500D01*
X117618373Y-89170185D01*
G37*
%TD.AperFunction*%
%TD*%
M02*
