%TF.GenerationSoftware,KiCad,Pcbnew,9.0.1*%
%TF.CreationDate,2026-07-06T00:36:51-05:00*%
%TF.ProjectId,VikFader4530x4,56696b46-6164-4657-9234-35333078342e,rev?*%
%TF.SameCoordinates,Original*%
%TF.FileFunction,Legend,Top*%
%TF.FilePolarity,Positive*%
%FSLAX46Y46*%
G04 Gerber Fmt 4.6, Leading zero omitted, Abs format (unit mm)*
G04 Created by KiCad (PCBNEW 9.0.1) date 2026-07-06 00:36:51*
%MOMM*%
%LPD*%
G01*
G04 APERTURE LIST*
G04 Aperture macros list*
%AMRoundRect*
0 Rectangle with rounded corners*
0 $1 Rounding radius*
0 $2 $3 $4 $5 $6 $7 $8 $9 X,Y pos of 4 corners*
0 Add a 4 corners polygon primitive as box body*
4,1,4,$2,$3,$4,$5,$6,$7,$8,$9,$2,$3,0*
0 Add four circle primitives for the rounded corners*
1,1,$1+$1,$2,$3*
1,1,$1+$1,$4,$5*
1,1,$1+$1,$6,$7*
1,1,$1+$1,$8,$9*
0 Add four rect primitives between the rounded corners*
20,1,$1+$1,$2,$3,$4,$5,0*
20,1,$1+$1,$4,$5,$6,$7,0*
20,1,$1+$1,$6,$7,$8,$9,0*
20,1,$1+$1,$8,$9,$2,$3,0*%
G04 Aperture macros list end*
%ADD10C,0.150000*%
%ADD11C,0.127000*%
%ADD12C,0.200000*%
%ADD13R,1.350000X1.350000*%
%ADD14C,1.350000*%
%ADD15RoundRect,0.102000X-0.900000X0.900000X-0.900000X-0.900000X0.900000X-0.900000X0.900000X0.900000X0*%
%ADD16C,2.004000*%
%ADD17C,2.754000*%
%ADD18C,4.250000*%
G04 APERTURE END LIST*
D10*
X248259819Y-48380357D02*
X247783628Y-48713690D01*
X248259819Y-48951785D02*
X247259819Y-48951785D01*
X247259819Y-48951785D02*
X247259819Y-48570833D01*
X247259819Y-48570833D02*
X247307438Y-48475595D01*
X247307438Y-48475595D02*
X247355057Y-48427976D01*
X247355057Y-48427976D02*
X247450295Y-48380357D01*
X247450295Y-48380357D02*
X247593152Y-48380357D01*
X247593152Y-48380357D02*
X247688390Y-48427976D01*
X247688390Y-48427976D02*
X247736009Y-48475595D01*
X247736009Y-48475595D02*
X247783628Y-48570833D01*
X247783628Y-48570833D02*
X247783628Y-48951785D01*
X248259819Y-47427976D02*
X248259819Y-47999404D01*
X248259819Y-47713690D02*
X247259819Y-47713690D01*
X247259819Y-47713690D02*
X247402676Y-47808928D01*
X247402676Y-47808928D02*
X247497914Y-47904166D01*
X247497914Y-47904166D02*
X247545533Y-47999404D01*
X247259819Y-46808928D02*
X247259819Y-46713690D01*
X247259819Y-46713690D02*
X247307438Y-46618452D01*
X247307438Y-46618452D02*
X247355057Y-46570833D01*
X247355057Y-46570833D02*
X247450295Y-46523214D01*
X247450295Y-46523214D02*
X247640771Y-46475595D01*
X247640771Y-46475595D02*
X247878866Y-46475595D01*
X247878866Y-46475595D02*
X248069342Y-46523214D01*
X248069342Y-46523214D02*
X248164580Y-46570833D01*
X248164580Y-46570833D02*
X248212200Y-46618452D01*
X248212200Y-46618452D02*
X248259819Y-46713690D01*
X248259819Y-46713690D02*
X248259819Y-46808928D01*
X248259819Y-46808928D02*
X248212200Y-46904166D01*
X248212200Y-46904166D02*
X248164580Y-46951785D01*
X248164580Y-46951785D02*
X248069342Y-46999404D01*
X248069342Y-46999404D02*
X247878866Y-47047023D01*
X247878866Y-47047023D02*
X247640771Y-47047023D01*
X247640771Y-47047023D02*
X247450295Y-46999404D01*
X247450295Y-46999404D02*
X247355057Y-46951785D01*
X247355057Y-46951785D02*
X247307438Y-46904166D01*
X247307438Y-46904166D02*
X247259819Y-46808928D01*
D11*
%TO.C,R8*%
X221580000Y-44562500D02*
X223110000Y-44562500D01*
X221580000Y-47867500D02*
X221580000Y-44562500D01*
X221580000Y-51057500D02*
X221580000Y-83067500D01*
X221580000Y-89562500D02*
X221580000Y-86257500D01*
X221580000Y-89562500D02*
X226610000Y-89562500D01*
X229050000Y-44562500D02*
X230580000Y-44562500D01*
X230580000Y-44562500D02*
X230580000Y-49067500D01*
X230580000Y-52257500D02*
X230580000Y-81867500D01*
X230580000Y-85057500D02*
X230580000Y-89562500D01*
X230580000Y-89562500D02*
X229050000Y-89562500D01*
D12*
X227930000Y-43812500D02*
G75*
G02*
X227730000Y-43812500I-100000J0D01*
G01*
X227730000Y-43812500D02*
G75*
G02*
X227930000Y-43812500I100000J0D01*
G01*
D11*
%TO.C,R10*%
X236670000Y-44562500D02*
X238200000Y-44562500D01*
X236670000Y-47867500D02*
X236670000Y-44562500D01*
X236670000Y-51057500D02*
X236670000Y-83067500D01*
X236670000Y-89562500D02*
X236670000Y-86257500D01*
X236670000Y-89562500D02*
X241700000Y-89562500D01*
X244140000Y-44562500D02*
X245670000Y-44562500D01*
X245670000Y-44562500D02*
X245670000Y-49067500D01*
X245670000Y-52257500D02*
X245670000Y-81867500D01*
X245670000Y-85057500D02*
X245670000Y-89562500D01*
X245670000Y-89562500D02*
X244140000Y-89562500D01*
D12*
X243020000Y-43812500D02*
G75*
G02*
X242820000Y-43812500I-100000J0D01*
G01*
X242820000Y-43812500D02*
G75*
G02*
X243020000Y-43812500I100000J0D01*
G01*
D11*
%TO.C,R1*%
X206490000Y-44562500D02*
X208020000Y-44562500D01*
X206490000Y-47867500D02*
X206490000Y-44562500D01*
X206490000Y-51057500D02*
X206490000Y-83067500D01*
X206490000Y-89562500D02*
X206490000Y-86257500D01*
X206490000Y-89562500D02*
X211520000Y-89562500D01*
X213960000Y-44562500D02*
X215490000Y-44562500D01*
X215490000Y-44562500D02*
X215490000Y-49067500D01*
X215490000Y-52257500D02*
X215490000Y-81867500D01*
X215490000Y-85057500D02*
X215490000Y-89562500D01*
X215490000Y-89562500D02*
X213960000Y-89562500D01*
D12*
X212840000Y-43812500D02*
G75*
G02*
X212640000Y-43812500I-100000J0D01*
G01*
X212640000Y-43812500D02*
G75*
G02*
X212840000Y-43812500I100000J0D01*
G01*
D11*
%TO.C,R5*%
X191400000Y-44562500D02*
X192930000Y-44562500D01*
X191400000Y-47867500D02*
X191400000Y-44562500D01*
X191400000Y-51057500D02*
X191400000Y-83067500D01*
X191400000Y-89562500D02*
X191400000Y-86257500D01*
X191400000Y-89562500D02*
X196430000Y-89562500D01*
X198870000Y-44562500D02*
X200400000Y-44562500D01*
X200400000Y-44562500D02*
X200400000Y-49067500D01*
X200400000Y-52257500D02*
X200400000Y-81867500D01*
X200400000Y-85057500D02*
X200400000Y-89562500D01*
X200400000Y-89562500D02*
X198870000Y-89562500D01*
D12*
X197750000Y-43812500D02*
G75*
G02*
X197550000Y-43812500I-100000J0D01*
G01*
X197550000Y-43812500D02*
G75*
G02*
X197750000Y-43812500I100000J0D01*
G01*
%TD*%
%LPC*%
D13*
%TO.C,J3*%
X218670000Y-68060000D03*
D14*
X218670000Y-70060000D03*
X218670000Y-72060000D03*
X218670000Y-74060000D03*
%TD*%
D15*
%TO.C,R8*%
X227830000Y-45312500D03*
D16*
X224330000Y-45312500D03*
D17*
X221830000Y-49462500D03*
X230330000Y-50662500D03*
X230330000Y-83462500D03*
X221830000Y-84662500D03*
D16*
X227830000Y-88812500D03*
%TD*%
D15*
%TO.C,R10*%
X242920000Y-45312500D03*
D16*
X239420000Y-45312500D03*
D17*
X236920000Y-49462500D03*
X245420000Y-50662500D03*
X245420000Y-83462500D03*
X236920000Y-84662500D03*
D16*
X242920000Y-88812500D03*
%TD*%
D15*
%TO.C,R1*%
X212740000Y-45312500D03*
D16*
X209240000Y-45312500D03*
D17*
X206740000Y-49462500D03*
X215240000Y-50662500D03*
X215240000Y-83462500D03*
X206740000Y-84662500D03*
D16*
X212740000Y-88812500D03*
%TD*%
D15*
%TO.C,R5*%
X197650000Y-45312500D03*
D16*
X194150000Y-45312500D03*
D17*
X191650000Y-49462500D03*
X200150000Y-50662500D03*
X200150000Y-83462500D03*
X191650000Y-84662500D03*
D16*
X197650000Y-88812500D03*
%TD*%
D18*
%TO.C,H3*%
X241160000Y-80421700D03*
%TD*%
%TO.C,H1*%
X195090800Y-53744200D03*
%TD*%
%TO.C,H4*%
X195100800Y-80424200D03*
%TD*%
%TO.C,H2*%
X241070000Y-53744200D03*
%TD*%
%LPD*%
M02*
