M48
; DRILL file {KiCad 9.0.1} date 2026-07-06T00:36:51-0500
; FORMAT={-:-/ absolute / inch / decimal}
; #@! TF.CreationDate,2026-07-06T00:36:51-05:00
; #@! TF.GenerationSoftware,Kicad,Pcbnew,9.0.1
; #@! TF.FileFunction,Plated,1,2,PTH
FMAT,2
INCH
; #@! TA.AperFunction,Plated,PTH,ViaDrill
T1C0.0118
; #@! TA.AperFunction,Plated,PTH,ComponentDrill
T2C0.0315
; #@! TA.AperFunction,Plated,PTH,ComponentDrill
T3C0.0472
; #@! TA.AperFunction,Plated,PTH,ComponentDrill
T4C0.0669
%
G90
G05
T1
X7.6535Y-2.4854
X7.6994Y-2.6693
X7.7218Y-1.9048
X7.7267Y-2.6851
X7.7362Y-2.3894
X7.7378Y-2.4343
X7.9753Y-2.5158
X8.0099Y-2.5146
X8.0143Y-2.577
X8.0374Y-2.5555
X8.0488Y-1.9945
X8.0539Y-2.5217
X8.3098Y-2.5453
X8.6059Y-2.3917
X8.6071Y-2.4945
X8.6472Y-2.565
X8.6555Y-2.6122
X8.9197Y-2.5177
X8.9224Y-2.3488
X9.4958Y-1.9097
T2
X8.6091Y-2.6795
X8.6091Y-2.7583
X8.6091Y-2.837
X8.6091Y-2.9157
T3
X7.6437Y-1.784
X7.7815Y-1.784
X7.7815Y-3.4966
X8.2378Y-1.784
X8.3756Y-1.784
X8.3756Y-3.4966
X8.8319Y-1.784
X8.9697Y-1.784
X8.9697Y-3.4966
X9.426Y-1.784
X9.5638Y-1.784
X9.5638Y-3.4966
T4
X7.5453Y-1.9473
X7.5453Y-3.3332
X7.8799Y-1.9946
X7.8799Y-3.2859
X8.1394Y-1.9473
X8.1394Y-3.3332
X8.474Y-1.9946
X8.474Y-3.2859
X8.7335Y-1.9473
X8.7335Y-3.3332
X9.0681Y-1.9946
X9.0681Y-3.2859
X9.3276Y-1.9473
X9.3276Y-3.3332
X9.6622Y-1.9946
X9.6622Y-3.2859
M30
