%TF.GenerationSoftware,KiCad,Pcbnew,9.0.1*%
%TF.CreationDate,2026-07-11T17:25:02-05:00*%
%TF.ProjectId,VikFader4530x4,56696b46-6164-4657-9234-35333078342e,rev?*%
%TF.SameCoordinates,Original*%
%TF.FileFunction,Legend,Bot*%
%TF.FilePolarity,Positive*%
%FSLAX46Y46*%
G04 Gerber Fmt 4.6, Leading zero omitted, Abs format (unit mm)*
G04 Created by KiCad (PCBNEW 9.0.1) date 2026-07-11 17:25:02*
%MOMM*%
%LPD*%
G01*
G04 APERTURE LIST*
G04 Aperture macros list*
%AMRoundRect*
0 Rectangle with rounded corners*
0 $1 Rounding radius*
0 $2 $3 $4 $5 $6 $7 $8 $9 X,Y pos of 4 corners*
0 Add a 4 corners polygon primitive as box body*
4,1,4,$2,$3,$4,$5,$6,$7,$8,$9,$2,$3,0*
0 Add four circle primitives for the rounded corners*
1,1,$1+$1,$2,$3*
1,1,$1+$1,$4,$5*
1,1,$1+$1,$6,$7*
1,1,$1+$1,$8,$9*
0 Add four rect primitives between the rounded corners*
20,1,$1+$1,$2,$3,$4,$5,0*
20,1,$1+$1,$4,$5,$6,$7,0*
20,1,$1+$1,$6,$7,$8,$9,0*
20,1,$1+$1,$8,$9,$2,$3,0*%
%AMFreePoly0*
4,1,23,0.500000,-0.750000,0.000000,-0.750000,0.000000,-0.745722,-0.065263,-0.745722,-0.191342,-0.711940,-0.304381,-0.646677,-0.396677,-0.554381,-0.461940,-0.441342,-0.495722,-0.315263,-0.495722,-0.250000,-0.500000,-0.250000,-0.500000,0.250000,-0.495722,0.250000,-0.495722,0.315263,-0.461940,0.441342,-0.396677,0.554381,-0.304381,0.646677,-0.191342,0.711940,-0.065263,0.745722,0.000000,0.745722,
0.000000,0.750000,0.500000,0.750000,0.500000,-0.750000,0.500000,-0.750000,$1*%
%AMFreePoly1*
4,1,23,0.000000,0.745722,0.065263,0.745722,0.191342,0.711940,0.304381,0.646677,0.396677,0.554381,0.461940,0.441342,0.495722,0.315263,0.495722,0.250000,0.500000,0.250000,0.500000,-0.250000,0.495722,-0.250000,0.495722,-0.315263,0.461940,-0.441342,0.396677,-0.554381,0.304381,-0.646677,0.191342,-0.711940,0.065263,-0.745722,0.000000,-0.745722,0.000000,-0.750000,-0.500000,-0.750000,
-0.500000,0.750000,0.000000,0.750000,0.000000,0.745722,0.000000,0.745722,$1*%
%AMFreePoly2*
4,1,47,1.555255,2.102555,1.569900,2.067200,1.569640,2.062111,1.529740,1.672111,1.528238,1.664044,1.378238,1.114044,1.375957,1.107504,1.255957,0.827504,1.254721,0.824839,1.144721,0.604839,1.142059,0.600162,0.872059,0.180162,0.865355,0.171845,0.505355,-0.188155,0.501785,-0.191397,0.161785,-0.471397,0.154566,-0.476349,-0.235434,-0.696349,-0.241823,-0.699379,-0.651823,-0.859379,
-0.656463,-0.860933,-0.976463,-0.950933,-0.980194,-0.951829,-1.130194,-0.981829,-1.133533,-0.982380,-1.363533,-1.012380,-1.366674,-1.012689,-1.516674,-1.022689,-1.552925,-1.010429,-1.569889,-0.976126,-1.570000,-0.972800,-1.570000,-0.172800,-1.555355,-0.137445,-1.524975,-0.123048,-1.229758,-0.093526,-0.837751,0.024075,-0.583722,0.141319,-0.171905,0.396254,0.140480,0.728164,0.357960,1.064269,
0.493729,1.277620,0.620989,1.747504,0.670462,2.074676,0.690228,2.107444,0.719900,2.117200,1.519900,2.117200,1.555255,2.102555,1.555255,2.102555,$1*%
%AMFreePoly3*
4,1,47,-1.514899,1.026039,-1.124899,0.986039,-1.116842,0.984538,-0.566942,0.834538,-0.560410,0.832260,-0.280310,0.712260,-0.277631,0.711017,-0.057731,0.601017,-0.053067,0.598362,0.367033,0.328362,0.375355,0.321655,0.735355,-0.038345,0.738602,-0.041921,1.018502,-0.381921,1.023444,-0.389125,1.243544,-0.779125,1.246583,-0.785533,1.406483,-1.195533,1.408033,-1.200163,1.498033,-1.520163,
1.498929,-1.523894,1.528929,-1.673894,1.529477,-1.677212,1.559577,-1.907212,1.559889,-1.910372,1.569889,-2.060272,1.557630,-2.096524,1.523328,-2.113489,1.520000,-2.113600,0.719900,-2.113600,0.684545,-2.098955,0.670148,-2.068575,0.640626,-1.773355,0.523122,-1.381351,0.405787,-1.127434,0.150845,-0.715605,-0.181069,-0.403214,-0.517000,-0.185783,-0.730420,-0.049970,-1.200310,0.077291,
-1.527490,0.126864,-1.560253,0.146640,-1.570000,0.176300,-1.570000,0.976300,-1.555355,1.011655,-1.520000,1.026300,-1.514899,1.026039,-1.514899,1.026039,$1*%
%AMFreePoly4*
4,1,47,1.553025,1.010229,1.569989,0.975926,1.570100,0.972600,1.570100,0.172600,1.555455,0.137245,1.525075,0.122848,1.229855,0.093326,0.837846,-0.024178,0.583832,-0.141513,0.172005,-0.396454,-0.140380,-0.728364,-0.357860,-1.064469,-0.493629,-1.277820,-0.620891,-1.747710,-0.670464,-2.074890,-0.690240,-2.107653,-0.719900,-2.117400,-1.519900,-2.117400,-1.555255,-2.102755,-1.569900,-2.067400,
-1.569639,-2.062300,-1.529639,-1.672200,-1.528138,-1.664142,-1.378138,-1.114242,-1.375857,-1.107704,-1.255857,-0.827704,-1.254621,-0.825039,-1.144621,-0.605039,-1.141959,-0.600362,-0.871959,-0.180362,-0.865255,-0.172045,-0.505255,0.187955,-0.501685,0.191197,-0.161685,0.471197,-0.154466,0.476149,0.235534,0.696149,0.241923,0.699179,0.651923,0.859179,0.656563,0.860733,0.976563,0.950733,
0.980294,0.951629,1.130294,0.981629,1.133633,0.982180,1.363633,1.012180,1.366774,1.012489,1.516774,1.022489,1.553025,1.010229,1.553025,1.010229,$1*%
%AMFreePoly5*
4,1,47,-0.684645,2.098955,-0.670248,2.068575,-0.640726,1.773358,-0.523125,1.381356,-0.405881,1.127423,-0.150945,0.715605,0.180964,0.403219,0.517069,0.185739,0.730420,0.049970,1.200310,-0.077291,1.527490,-0.126864,1.560253,-0.146640,1.570000,-0.176300,1.570000,-0.976300,1.555355,-1.011655,1.520000,-1.026300,1.514899,-1.026039,1.124899,-0.986039,1.116844,-0.984538,0.566844,-0.834538,
0.560304,-0.832257,0.280304,-0.712257,0.277639,-0.711021,0.057639,-0.601021,0.052962,-0.598359,-0.367038,-0.328359,-0.375355,-0.321655,-0.735355,0.038345,-0.738597,0.041915,-1.018597,0.381915,-1.023549,0.389134,-1.243549,0.779134,-1.246579,0.785523,-1.406579,1.195523,-1.408133,1.200163,-1.498133,1.520163,-1.499029,1.523894,-1.529029,1.673894,-1.529580,1.677233,-1.559580,1.907233,
-1.559889,1.910372,-1.569889,2.060272,-1.557630,2.096524,-1.523328,2.113489,-1.520000,2.113600,-0.720000,2.113600,-0.684645,2.098955,-0.684645,2.098955,$1*%
G04 Aperture macros list end*
%ADD10C,0.120000*%
%ADD11C,0.150000*%
%ADD12C,0.254000*%
%ADD13C,0.128000*%
%ADD14RoundRect,0.102000X-0.900000X0.900000X-0.900000X-0.900000X0.900000X-0.900000X0.900000X0.900000X0*%
%ADD15C,2.004000*%
%ADD16C,2.754000*%
%ADD17RoundRect,0.225000X0.225000X0.250000X-0.225000X0.250000X-0.225000X-0.250000X0.225000X-0.250000X0*%
%ADD18RoundRect,0.250000X-0.262500X-0.450000X0.262500X-0.450000X0.262500X0.450000X-0.262500X0.450000X0*%
%ADD19R,1.250000X0.280000*%
%ADD20R,2.000000X1.800000*%
%ADD21FreePoly0,90.000000*%
%ADD22FreePoly1,90.000000*%
%ADD23RoundRect,0.225000X-0.225000X-0.250000X0.225000X-0.250000X0.225000X0.250000X-0.225000X0.250000X0*%
%ADD24RoundRect,0.225000X0.250000X-0.225000X0.250000X0.225000X-0.250000X0.225000X-0.250000X-0.225000X0*%
%ADD25R,1.700000X1.700000*%
%ADD26C,1.700000*%
%ADD27C,4.250000*%
%ADD28FreePoly2,180.000000*%
%ADD29FreePoly3,180.000000*%
%ADD30FreePoly4,180.000000*%
%ADD31FreePoly5,180.000000*%
%ADD32RoundRect,0.150000X0.150000X-0.587500X0.150000X0.587500X-0.150000X0.587500X-0.150000X-0.587500X0*%
%ADD33FreePoly0,270.000000*%
%ADD34FreePoly1,270.000000*%
%ADD35RoundRect,0.200000X-0.275000X0.200000X-0.275000X-0.200000X0.275000X-0.200000X0.275000X0.200000X0*%
%ADD36R,0.250000X1.100000*%
G04 APERTURE END LIST*
D10*
X221802005Y-60572093D02*
X221421053Y-60572093D01*
X221611529Y-60762569D02*
X221611529Y-60381617D01*
X221230576Y-60262569D02*
X220921052Y-60262569D01*
X220921052Y-60262569D02*
X221087719Y-60453045D01*
X221087719Y-60453045D02*
X221016290Y-60453045D01*
X221016290Y-60453045D02*
X220968671Y-60476855D01*
X220968671Y-60476855D02*
X220944862Y-60500664D01*
X220944862Y-60500664D02*
X220921052Y-60548283D01*
X220921052Y-60548283D02*
X220921052Y-60667331D01*
X220921052Y-60667331D02*
X220944862Y-60714950D01*
X220944862Y-60714950D02*
X220968671Y-60738760D01*
X220968671Y-60738760D02*
X221016290Y-60762569D01*
X221016290Y-60762569D02*
X221159147Y-60762569D01*
X221159147Y-60762569D02*
X221206766Y-60738760D01*
X221206766Y-60738760D02*
X221230576Y-60714950D01*
X220754386Y-60429236D02*
X220635338Y-60762569D01*
X220635338Y-60762569D02*
X220516291Y-60429236D01*
X220373434Y-60262569D02*
X220063910Y-60262569D01*
X220063910Y-60262569D02*
X220230577Y-60453045D01*
X220230577Y-60453045D02*
X220159148Y-60453045D01*
X220159148Y-60453045D02*
X220111529Y-60476855D01*
X220111529Y-60476855D02*
X220087720Y-60500664D01*
X220087720Y-60500664D02*
X220063910Y-60548283D01*
X220063910Y-60548283D02*
X220063910Y-60667331D01*
X220063910Y-60667331D02*
X220087720Y-60714950D01*
X220087720Y-60714950D02*
X220111529Y-60738760D01*
X220111529Y-60738760D02*
X220159148Y-60762569D01*
X220159148Y-60762569D02*
X220302005Y-60762569D01*
X220302005Y-60762569D02*
X220349624Y-60738760D01*
X220349624Y-60738760D02*
X220373434Y-60714950D01*
X221090100Y-62816379D02*
X221137719Y-62792569D01*
X221137719Y-62792569D02*
X221209148Y-62792569D01*
X221209148Y-62792569D02*
X221280576Y-62816379D01*
X221280576Y-62816379D02*
X221328195Y-62863998D01*
X221328195Y-62863998D02*
X221352005Y-62911617D01*
X221352005Y-62911617D02*
X221375814Y-63006855D01*
X221375814Y-63006855D02*
X221375814Y-63078283D01*
X221375814Y-63078283D02*
X221352005Y-63173521D01*
X221352005Y-63173521D02*
X221328195Y-63221140D01*
X221328195Y-63221140D02*
X221280576Y-63268760D01*
X221280576Y-63268760D02*
X221209148Y-63292569D01*
X221209148Y-63292569D02*
X221161529Y-63292569D01*
X221161529Y-63292569D02*
X221090100Y-63268760D01*
X221090100Y-63268760D02*
X221066291Y-63244950D01*
X221066291Y-63244950D02*
X221066291Y-63078283D01*
X221066291Y-63078283D02*
X221161529Y-63078283D01*
X220852005Y-63292569D02*
X220852005Y-62792569D01*
X220852005Y-62792569D02*
X220566291Y-63292569D01*
X220566291Y-63292569D02*
X220566291Y-62792569D01*
X220328195Y-63292569D02*
X220328195Y-62792569D01*
X220328195Y-62792569D02*
X220209147Y-62792569D01*
X220209147Y-62792569D02*
X220137719Y-62816379D01*
X220137719Y-62816379D02*
X220090100Y-62863998D01*
X220090100Y-62863998D02*
X220066290Y-62911617D01*
X220066290Y-62911617D02*
X220042481Y-63006855D01*
X220042481Y-63006855D02*
X220042481Y-63078283D01*
X220042481Y-63078283D02*
X220066290Y-63173521D01*
X220066290Y-63173521D02*
X220090100Y-63221140D01*
X220090100Y-63221140D02*
X220137719Y-63268760D01*
X220137719Y-63268760D02*
X220209147Y-63292569D01*
X220209147Y-63292569D02*
X220328195Y-63292569D01*
X221295814Y-68318760D02*
X221224386Y-68342569D01*
X221224386Y-68342569D02*
X221105338Y-68342569D01*
X221105338Y-68342569D02*
X221057719Y-68318760D01*
X221057719Y-68318760D02*
X221033910Y-68294950D01*
X221033910Y-68294950D02*
X221010100Y-68247331D01*
X221010100Y-68247331D02*
X221010100Y-68199712D01*
X221010100Y-68199712D02*
X221033910Y-68152093D01*
X221033910Y-68152093D02*
X221057719Y-68128283D01*
X221057719Y-68128283D02*
X221105338Y-68104474D01*
X221105338Y-68104474D02*
X221200576Y-68080664D01*
X221200576Y-68080664D02*
X221248195Y-68056855D01*
X221248195Y-68056855D02*
X221272005Y-68033045D01*
X221272005Y-68033045D02*
X221295814Y-67985426D01*
X221295814Y-67985426D02*
X221295814Y-67937807D01*
X221295814Y-67937807D02*
X221272005Y-67890188D01*
X221272005Y-67890188D02*
X221248195Y-67866379D01*
X221248195Y-67866379D02*
X221200576Y-67842569D01*
X221200576Y-67842569D02*
X221081529Y-67842569D01*
X221081529Y-67842569D02*
X221010100Y-67866379D01*
X220510101Y-68294950D02*
X220533910Y-68318760D01*
X220533910Y-68318760D02*
X220605339Y-68342569D01*
X220605339Y-68342569D02*
X220652958Y-68342569D01*
X220652958Y-68342569D02*
X220724386Y-68318760D01*
X220724386Y-68318760D02*
X220772005Y-68271140D01*
X220772005Y-68271140D02*
X220795815Y-68223521D01*
X220795815Y-68223521D02*
X220819624Y-68128283D01*
X220819624Y-68128283D02*
X220819624Y-68056855D01*
X220819624Y-68056855D02*
X220795815Y-67961617D01*
X220795815Y-67961617D02*
X220772005Y-67913998D01*
X220772005Y-67913998D02*
X220724386Y-67866379D01*
X220724386Y-67866379D02*
X220652958Y-67842569D01*
X220652958Y-67842569D02*
X220605339Y-67842569D01*
X220605339Y-67842569D02*
X220533910Y-67866379D01*
X220533910Y-67866379D02*
X220510101Y-67890188D01*
X220057720Y-68342569D02*
X220295815Y-68342569D01*
X220295815Y-68342569D02*
X220295815Y-67842569D01*
X221005338Y-73210664D02*
X221172005Y-73210664D01*
X221172005Y-73472569D02*
X221172005Y-72972569D01*
X221172005Y-72972569D02*
X220933910Y-72972569D01*
X220743434Y-73210664D02*
X220576767Y-73210664D01*
X220505339Y-73472569D02*
X220743434Y-73472569D01*
X220743434Y-73472569D02*
X220743434Y-72972569D01*
X220743434Y-72972569D02*
X220505339Y-72972569D01*
X220362481Y-72972569D02*
X220076767Y-72972569D01*
X220219624Y-73472569D02*
X220219624Y-72972569D01*
X221016291Y-70842569D02*
X221182957Y-70604474D01*
X221302005Y-70842569D02*
X221302005Y-70342569D01*
X221302005Y-70342569D02*
X221111529Y-70342569D01*
X221111529Y-70342569D02*
X221063910Y-70366379D01*
X221063910Y-70366379D02*
X221040100Y-70390188D01*
X221040100Y-70390188D02*
X221016291Y-70437807D01*
X221016291Y-70437807D02*
X221016291Y-70509236D01*
X221016291Y-70509236D02*
X221040100Y-70556855D01*
X221040100Y-70556855D02*
X221063910Y-70580664D01*
X221063910Y-70580664D02*
X221111529Y-70604474D01*
X221111529Y-70604474D02*
X221302005Y-70604474D01*
X220802005Y-70842569D02*
X220802005Y-70342569D01*
X220802005Y-70342569D02*
X220682957Y-70342569D01*
X220682957Y-70342569D02*
X220611529Y-70366379D01*
X220611529Y-70366379D02*
X220563910Y-70413998D01*
X220563910Y-70413998D02*
X220540100Y-70461617D01*
X220540100Y-70461617D02*
X220516291Y-70556855D01*
X220516291Y-70556855D02*
X220516291Y-70628283D01*
X220516291Y-70628283D02*
X220540100Y-70723521D01*
X220540100Y-70723521D02*
X220563910Y-70771140D01*
X220563910Y-70771140D02*
X220611529Y-70818760D01*
X220611529Y-70818760D02*
X220682957Y-70842569D01*
X220682957Y-70842569D02*
X220802005Y-70842569D01*
X220206767Y-70604474D02*
X220206767Y-70842569D01*
X220373433Y-70342569D02*
X220206767Y-70604474D01*
X220206767Y-70604474D02*
X220040100Y-70342569D01*
X221305814Y-65718760D02*
X221234386Y-65742569D01*
X221234386Y-65742569D02*
X221115338Y-65742569D01*
X221115338Y-65742569D02*
X221067719Y-65718760D01*
X221067719Y-65718760D02*
X221043910Y-65694950D01*
X221043910Y-65694950D02*
X221020100Y-65647331D01*
X221020100Y-65647331D02*
X221020100Y-65599712D01*
X221020100Y-65599712D02*
X221043910Y-65552093D01*
X221043910Y-65552093D02*
X221067719Y-65528283D01*
X221067719Y-65528283D02*
X221115338Y-65504474D01*
X221115338Y-65504474D02*
X221210576Y-65480664D01*
X221210576Y-65480664D02*
X221258195Y-65456855D01*
X221258195Y-65456855D02*
X221282005Y-65433045D01*
X221282005Y-65433045D02*
X221305814Y-65385426D01*
X221305814Y-65385426D02*
X221305814Y-65337807D01*
X221305814Y-65337807D02*
X221282005Y-65290188D01*
X221282005Y-65290188D02*
X221258195Y-65266379D01*
X221258195Y-65266379D02*
X221210576Y-65242569D01*
X221210576Y-65242569D02*
X221091529Y-65242569D01*
X221091529Y-65242569D02*
X221020100Y-65266379D01*
X220805815Y-65742569D02*
X220805815Y-65242569D01*
X220805815Y-65242569D02*
X220686767Y-65242569D01*
X220686767Y-65242569D02*
X220615339Y-65266379D01*
X220615339Y-65266379D02*
X220567720Y-65313998D01*
X220567720Y-65313998D02*
X220543910Y-65361617D01*
X220543910Y-65361617D02*
X220520101Y-65456855D01*
X220520101Y-65456855D02*
X220520101Y-65528283D01*
X220520101Y-65528283D02*
X220543910Y-65623521D01*
X220543910Y-65623521D02*
X220567720Y-65671140D01*
X220567720Y-65671140D02*
X220615339Y-65718760D01*
X220615339Y-65718760D02*
X220686767Y-65742569D01*
X220686767Y-65742569D02*
X220805815Y-65742569D01*
X220329624Y-65599712D02*
X220091529Y-65599712D01*
X220377243Y-65742569D02*
X220210577Y-65242569D01*
X220210577Y-65242569D02*
X220043910Y-65742569D01*
D11*
X198515000Y-49387735D02*
X198550714Y-49423450D01*
X198550714Y-49423450D02*
X198657857Y-49459164D01*
X198657857Y-49459164D02*
X198729285Y-49459164D01*
X198729285Y-49459164D02*
X198836428Y-49423450D01*
X198836428Y-49423450D02*
X198907857Y-49352021D01*
X198907857Y-49352021D02*
X198943571Y-49280592D01*
X198943571Y-49280592D02*
X198979285Y-49137735D01*
X198979285Y-49137735D02*
X198979285Y-49030592D01*
X198979285Y-49030592D02*
X198943571Y-48887735D01*
X198943571Y-48887735D02*
X198907857Y-48816307D01*
X198907857Y-48816307D02*
X198836428Y-48744878D01*
X198836428Y-48744878D02*
X198729285Y-48709164D01*
X198729285Y-48709164D02*
X198657857Y-48709164D01*
X198657857Y-48709164D02*
X198550714Y-48744878D01*
X198550714Y-48744878D02*
X198515000Y-48780592D01*
X197800714Y-49459164D02*
X198229285Y-49459164D01*
X198015000Y-49459164D02*
X198015000Y-48709164D01*
X198015000Y-48709164D02*
X198086428Y-48816307D01*
X198086428Y-48816307D02*
X198157857Y-48887735D01*
X198157857Y-48887735D02*
X198229285Y-48923450D01*
X211416666Y-66074819D02*
X211749999Y-65598628D01*
X211988094Y-66074819D02*
X211988094Y-65074819D01*
X211988094Y-65074819D02*
X211607142Y-65074819D01*
X211607142Y-65074819D02*
X211511904Y-65122438D01*
X211511904Y-65122438D02*
X211464285Y-65170057D01*
X211464285Y-65170057D02*
X211416666Y-65265295D01*
X211416666Y-65265295D02*
X211416666Y-65408152D01*
X211416666Y-65408152D02*
X211464285Y-65503390D01*
X211464285Y-65503390D02*
X211511904Y-65551009D01*
X211511904Y-65551009D02*
X211607142Y-65598628D01*
X211607142Y-65598628D02*
X211988094Y-65598628D01*
X211035713Y-65170057D02*
X210988094Y-65122438D01*
X210988094Y-65122438D02*
X210892856Y-65074819D01*
X210892856Y-65074819D02*
X210654761Y-65074819D01*
X210654761Y-65074819D02*
X210559523Y-65122438D01*
X210559523Y-65122438D02*
X210511904Y-65170057D01*
X210511904Y-65170057D02*
X210464285Y-65265295D01*
X210464285Y-65265295D02*
X210464285Y-65360533D01*
X210464285Y-65360533D02*
X210511904Y-65503390D01*
X210511904Y-65503390D02*
X211083332Y-66074819D01*
X211083332Y-66074819D02*
X210464285Y-66074819D01*
X234037585Y-63463173D02*
X234037585Y-62998887D01*
X234037585Y-62998887D02*
X233751871Y-63248887D01*
X233751871Y-63248887D02*
X233751871Y-63141744D01*
X233751871Y-63141744D02*
X233716157Y-63070316D01*
X233716157Y-63070316D02*
X233680442Y-63034601D01*
X233680442Y-63034601D02*
X233609014Y-62998887D01*
X233609014Y-62998887D02*
X233430442Y-62998887D01*
X233430442Y-62998887D02*
X233359014Y-63034601D01*
X233359014Y-63034601D02*
X233323300Y-63070316D01*
X233323300Y-63070316D02*
X233287585Y-63141744D01*
X233287585Y-63141744D02*
X233287585Y-63356030D01*
X233287585Y-63356030D02*
X233323300Y-63427458D01*
X233323300Y-63427458D02*
X233359014Y-63463173D01*
X233787585Y-62748887D02*
X233287585Y-62570315D01*
X233287585Y-62570315D02*
X233787585Y-62391744D01*
X234037585Y-62177458D02*
X234037585Y-61713172D01*
X234037585Y-61713172D02*
X233751871Y-61963172D01*
X233751871Y-61963172D02*
X233751871Y-61856029D01*
X233751871Y-61856029D02*
X233716157Y-61784601D01*
X233716157Y-61784601D02*
X233680442Y-61748886D01*
X233680442Y-61748886D02*
X233609014Y-61713172D01*
X233609014Y-61713172D02*
X233430442Y-61713172D01*
X233430442Y-61713172D02*
X233359014Y-61748886D01*
X233359014Y-61748886D02*
X233323300Y-61784601D01*
X233323300Y-61784601D02*
X233287585Y-61856029D01*
X233287585Y-61856029D02*
X233287585Y-62070315D01*
X233287585Y-62070315D02*
X233323300Y-62141743D01*
X233323300Y-62141743D02*
X233359014Y-62177458D01*
G36*
X226185819Y-69315746D02*
G01*
X224813891Y-69315746D01*
X224813891Y-68563446D01*
X224925002Y-68563446D01*
X224926260Y-68568058D01*
X224926260Y-68572839D01*
X224930077Y-68582054D01*
X224932702Y-68591678D01*
X224935629Y-68595458D01*
X224937459Y-68599875D01*
X224944509Y-68606925D01*
X224950619Y-68614815D01*
X224956751Y-68619167D01*
X224958151Y-68620567D01*
X224959525Y-68621136D01*
X224962609Y-68623325D01*
X225717402Y-69054635D01*
X224999819Y-69054635D01*
X224985187Y-69056076D01*
X224958151Y-69067275D01*
X224937459Y-69087967D01*
X224926260Y-69115003D01*
X224926260Y-69144267D01*
X224937459Y-69171303D01*
X224958151Y-69191995D01*
X224985187Y-69203194D01*
X224999819Y-69204635D01*
X225999819Y-69204635D01*
X226003582Y-69204264D01*
X226005058Y-69204452D01*
X226006968Y-69203930D01*
X226014451Y-69203194D01*
X226023666Y-69199376D01*
X226033290Y-69196752D01*
X226037070Y-69193824D01*
X226041487Y-69191995D01*
X226048537Y-69184944D01*
X226056427Y-69178835D01*
X226058800Y-69174681D01*
X226062179Y-69171303D01*
X226065995Y-69162090D01*
X226070946Y-69153426D01*
X226071548Y-69148682D01*
X226073378Y-69144267D01*
X226073378Y-69134292D01*
X226074636Y-69124396D01*
X226073378Y-69119783D01*
X226073378Y-69115003D01*
X226069560Y-69105786D01*
X226066936Y-69096165D01*
X226064009Y-69092385D01*
X226062179Y-69087967D01*
X226055127Y-69080915D01*
X226049019Y-69073027D01*
X226042884Y-69068672D01*
X226041487Y-69067275D01*
X226040114Y-69066706D01*
X226037030Y-69064517D01*
X225282236Y-68633207D01*
X225999819Y-68633207D01*
X226014451Y-68631766D01*
X226041487Y-68620567D01*
X226062179Y-68599875D01*
X226073378Y-68572839D01*
X226073378Y-68543575D01*
X226062179Y-68516539D01*
X226041487Y-68495847D01*
X226014451Y-68484648D01*
X225999819Y-68483207D01*
X224999819Y-68483207D01*
X224996055Y-68483577D01*
X224994580Y-68483390D01*
X224992669Y-68483911D01*
X224985187Y-68484648D01*
X224975971Y-68488465D01*
X224966348Y-68491090D01*
X224962567Y-68494017D01*
X224958151Y-68495847D01*
X224951100Y-68502897D01*
X224943211Y-68509007D01*
X224940837Y-68513160D01*
X224937459Y-68516539D01*
X224933642Y-68525751D01*
X224928692Y-68534416D01*
X224928089Y-68539159D01*
X224926260Y-68543575D01*
X224926260Y-68553549D01*
X224925002Y-68563446D01*
X224813891Y-68563446D01*
X224813891Y-68067385D01*
X224926260Y-68067385D01*
X224926260Y-68096649D01*
X224937459Y-68123685D01*
X224958151Y-68144377D01*
X224985187Y-68155576D01*
X224999819Y-68157017D01*
X225999819Y-68157017D01*
X226014451Y-68155576D01*
X226041487Y-68144377D01*
X226062179Y-68123685D01*
X226073378Y-68096649D01*
X226073378Y-68067385D01*
X226062179Y-68040349D01*
X226041487Y-68019657D01*
X226014451Y-68008458D01*
X225999819Y-68007017D01*
X224999819Y-68007017D01*
X224985187Y-68008458D01*
X224958151Y-68019657D01*
X224937459Y-68040349D01*
X224926260Y-68067385D01*
X224813891Y-68067385D01*
X224813891Y-66305480D01*
X224926260Y-66305480D01*
X224926260Y-66334744D01*
X224937459Y-66361780D01*
X224958151Y-66382472D01*
X224985187Y-66393671D01*
X224999819Y-66395112D01*
X225390181Y-66395112D01*
X224946786Y-66838507D01*
X224937459Y-66849872D01*
X224926260Y-66876909D01*
X224926260Y-66906171D01*
X224937459Y-66933208D01*
X224958151Y-66953900D01*
X224985188Y-66965099D01*
X225014450Y-66965099D01*
X225041487Y-66953900D01*
X225052852Y-66944573D01*
X225435427Y-66561997D01*
X225954819Y-66951540D01*
X225967389Y-66959167D01*
X225995738Y-66966429D01*
X226024706Y-66962290D01*
X226049887Y-66947381D01*
X226067446Y-66923970D01*
X226074708Y-66895622D01*
X226070570Y-66866653D01*
X226055660Y-66841472D01*
X226044819Y-66831540D01*
X225542570Y-66454854D01*
X225602313Y-66395112D01*
X225999819Y-66395112D01*
X226014451Y-66393671D01*
X226041487Y-66382472D01*
X226062179Y-66361780D01*
X226073378Y-66334744D01*
X226073378Y-66305480D01*
X226062179Y-66278444D01*
X226041487Y-66257752D01*
X226014451Y-66246553D01*
X225999819Y-66245112D01*
X224999819Y-66245112D01*
X224985187Y-66246553D01*
X224958151Y-66257752D01*
X224937459Y-66278444D01*
X224926260Y-66305480D01*
X224813891Y-66305480D01*
X224813891Y-65829290D01*
X224926260Y-65829290D01*
X224926260Y-65858554D01*
X224937459Y-65885590D01*
X224958151Y-65906282D01*
X224985187Y-65917481D01*
X224999819Y-65918922D01*
X225999819Y-65918922D01*
X226014451Y-65917481D01*
X226041487Y-65906282D01*
X226062179Y-65885590D01*
X226073378Y-65858554D01*
X226073378Y-65829290D01*
X226062179Y-65802254D01*
X226041487Y-65781562D01*
X226014451Y-65770363D01*
X225999819Y-65768922D01*
X224999819Y-65768922D01*
X224985187Y-65770363D01*
X224958151Y-65781562D01*
X224937459Y-65802254D01*
X224926260Y-65829290D01*
X224813891Y-65829290D01*
X224813891Y-64834542D01*
X224925408Y-64834542D01*
X224927483Y-64863732D01*
X224940569Y-64889905D01*
X224962676Y-64909079D01*
X224976102Y-64915073D01*
X225762648Y-65177255D01*
X224976102Y-65439437D01*
X224962676Y-65445431D01*
X224940569Y-65464605D01*
X224927483Y-65490778D01*
X224925408Y-65519968D01*
X224934662Y-65547731D01*
X224953836Y-65569838D01*
X224980009Y-65582924D01*
X225009199Y-65584999D01*
X225023536Y-65581739D01*
X226023536Y-65248406D01*
X226036961Y-65242412D01*
X226041008Y-65238901D01*
X226045802Y-65236505D01*
X226051966Y-65229397D01*
X226059068Y-65223238D01*
X226061463Y-65218446D01*
X226064976Y-65214397D01*
X226067950Y-65205474D01*
X226072155Y-65197065D01*
X226072534Y-65191720D01*
X226074230Y-65186635D01*
X226073563Y-65177255D01*
X226074230Y-65167875D01*
X226072534Y-65162789D01*
X226072155Y-65157445D01*
X226067950Y-65149035D01*
X226064976Y-65140113D01*
X226061463Y-65136063D01*
X226059068Y-65131272D01*
X226051966Y-65125112D01*
X226045802Y-65118005D01*
X226041008Y-65115608D01*
X226036961Y-65112098D01*
X226023536Y-65106104D01*
X225023536Y-64772771D01*
X225009199Y-64769511D01*
X224980009Y-64771586D01*
X224953836Y-64784672D01*
X224934662Y-64806779D01*
X224925408Y-64834542D01*
X224813891Y-64834542D01*
X224813891Y-64658400D01*
X226185819Y-64658400D01*
X226185819Y-69315746D01*
G37*
X211422857Y-71094819D02*
X211756190Y-70618628D01*
X211994285Y-71094819D02*
X211994285Y-70094819D01*
X211994285Y-70094819D02*
X211613333Y-70094819D01*
X211613333Y-70094819D02*
X211518095Y-70142438D01*
X211518095Y-70142438D02*
X211470476Y-70190057D01*
X211470476Y-70190057D02*
X211422857Y-70285295D01*
X211422857Y-70285295D02*
X211422857Y-70428152D01*
X211422857Y-70428152D02*
X211470476Y-70523390D01*
X211470476Y-70523390D02*
X211518095Y-70571009D01*
X211518095Y-70571009D02*
X211613333Y-70618628D01*
X211613333Y-70618628D02*
X211994285Y-70618628D01*
X210470476Y-71094819D02*
X211041904Y-71094819D01*
X210756190Y-71094819D02*
X210756190Y-70094819D01*
X210756190Y-70094819D02*
X210851428Y-70237676D01*
X210851428Y-70237676D02*
X210946666Y-70332914D01*
X210946666Y-70332914D02*
X211041904Y-70380533D01*
X210137142Y-70094819D02*
X209518095Y-70094819D01*
X209518095Y-70094819D02*
X209851428Y-70475771D01*
X209851428Y-70475771D02*
X209708571Y-70475771D01*
X209708571Y-70475771D02*
X209613333Y-70523390D01*
X209613333Y-70523390D02*
X209565714Y-70571009D01*
X209565714Y-70571009D02*
X209518095Y-70666247D01*
X209518095Y-70666247D02*
X209518095Y-70904342D01*
X209518095Y-70904342D02*
X209565714Y-70999580D01*
X209565714Y-70999580D02*
X209613333Y-71047200D01*
X209613333Y-71047200D02*
X209708571Y-71094819D01*
X209708571Y-71094819D02*
X209994285Y-71094819D01*
X209994285Y-71094819D02*
X210089523Y-71047200D01*
X210089523Y-71047200D02*
X210137142Y-70999580D01*
X199834819Y-73445238D02*
X199834819Y-73540476D01*
X199834819Y-73540476D02*
X199882438Y-73635714D01*
X199882438Y-73635714D02*
X199930057Y-73683333D01*
X199930057Y-73683333D02*
X200025295Y-73730952D01*
X200025295Y-73730952D02*
X200215771Y-73778571D01*
X200215771Y-73778571D02*
X200453866Y-73778571D01*
X200453866Y-73778571D02*
X200644342Y-73730952D01*
X200644342Y-73730952D02*
X200739580Y-73683333D01*
X200739580Y-73683333D02*
X200787200Y-73635714D01*
X200787200Y-73635714D02*
X200834819Y-73540476D01*
X200834819Y-73540476D02*
X200834819Y-73445238D01*
X200834819Y-73445238D02*
X200787200Y-73350000D01*
X200787200Y-73350000D02*
X200739580Y-73302381D01*
X200739580Y-73302381D02*
X200644342Y-73254762D01*
X200644342Y-73254762D02*
X200453866Y-73207143D01*
X200453866Y-73207143D02*
X200215771Y-73207143D01*
X200215771Y-73207143D02*
X200025295Y-73254762D01*
X200025295Y-73254762D02*
X199930057Y-73302381D01*
X199930057Y-73302381D02*
X199882438Y-73350000D01*
X199882438Y-73350000D02*
X199834819Y-73445238D01*
X200834819Y-74111905D02*
X200168152Y-74635714D01*
X200168152Y-74111905D02*
X200834819Y-74635714D01*
X200168152Y-75445238D02*
X200834819Y-75445238D01*
X199787200Y-75207143D02*
X200501485Y-74969048D01*
X200501485Y-74969048D02*
X200501485Y-75588095D01*
X200263390Y-76111905D02*
X200215771Y-76016667D01*
X200215771Y-76016667D02*
X200168152Y-75969048D01*
X200168152Y-75969048D02*
X200072914Y-75921429D01*
X200072914Y-75921429D02*
X200025295Y-75921429D01*
X200025295Y-75921429D02*
X199930057Y-75969048D01*
X199930057Y-75969048D02*
X199882438Y-76016667D01*
X199882438Y-76016667D02*
X199834819Y-76111905D01*
X199834819Y-76111905D02*
X199834819Y-76302381D01*
X199834819Y-76302381D02*
X199882438Y-76397619D01*
X199882438Y-76397619D02*
X199930057Y-76445238D01*
X199930057Y-76445238D02*
X200025295Y-76492857D01*
X200025295Y-76492857D02*
X200072914Y-76492857D01*
X200072914Y-76492857D02*
X200168152Y-76445238D01*
X200168152Y-76445238D02*
X200215771Y-76397619D01*
X200215771Y-76397619D02*
X200263390Y-76302381D01*
X200263390Y-76302381D02*
X200263390Y-76111905D01*
X200263390Y-76111905D02*
X200311009Y-76016667D01*
X200311009Y-76016667D02*
X200358628Y-75969048D01*
X200358628Y-75969048D02*
X200453866Y-75921429D01*
X200453866Y-75921429D02*
X200644342Y-75921429D01*
X200644342Y-75921429D02*
X200739580Y-75969048D01*
X200739580Y-75969048D02*
X200787200Y-76016667D01*
X200787200Y-76016667D02*
X200834819Y-76111905D01*
X200834819Y-76111905D02*
X200834819Y-76302381D01*
X200834819Y-76302381D02*
X200787200Y-76397619D01*
X200787200Y-76397619D02*
X200739580Y-76445238D01*
X200739580Y-76445238D02*
X200644342Y-76492857D01*
X200644342Y-76492857D02*
X200453866Y-76492857D01*
X200453866Y-76492857D02*
X200358628Y-76445238D01*
X200358628Y-76445238D02*
X200311009Y-76397619D01*
X200311009Y-76397619D02*
X200263390Y-76302381D01*
X243585000Y-49597735D02*
X243620714Y-49633450D01*
X243620714Y-49633450D02*
X243727857Y-49669164D01*
X243727857Y-49669164D02*
X243799285Y-49669164D01*
X243799285Y-49669164D02*
X243906428Y-49633450D01*
X243906428Y-49633450D02*
X243977857Y-49562021D01*
X243977857Y-49562021D02*
X244013571Y-49490592D01*
X244013571Y-49490592D02*
X244049285Y-49347735D01*
X244049285Y-49347735D02*
X244049285Y-49240592D01*
X244049285Y-49240592D02*
X244013571Y-49097735D01*
X244013571Y-49097735D02*
X243977857Y-49026307D01*
X243977857Y-49026307D02*
X243906428Y-48954878D01*
X243906428Y-48954878D02*
X243799285Y-48919164D01*
X243799285Y-48919164D02*
X243727857Y-48919164D01*
X243727857Y-48919164D02*
X243620714Y-48954878D01*
X243620714Y-48954878D02*
X243585000Y-48990592D01*
X242906428Y-48919164D02*
X243263571Y-48919164D01*
X243263571Y-48919164D02*
X243299285Y-49276307D01*
X243299285Y-49276307D02*
X243263571Y-49240592D01*
X243263571Y-49240592D02*
X243192143Y-49204878D01*
X243192143Y-49204878D02*
X243013571Y-49204878D01*
X243013571Y-49204878D02*
X242942143Y-49240592D01*
X242942143Y-49240592D02*
X242906428Y-49276307D01*
X242906428Y-49276307D02*
X242870714Y-49347735D01*
X242870714Y-49347735D02*
X242870714Y-49526307D01*
X242870714Y-49526307D02*
X242906428Y-49597735D01*
X242906428Y-49597735D02*
X242942143Y-49633450D01*
X242942143Y-49633450D02*
X243013571Y-49669164D01*
X243013571Y-49669164D02*
X243192143Y-49669164D01*
X243192143Y-49669164D02*
X243263571Y-49633450D01*
X243263571Y-49633450D02*
X243299285Y-49597735D01*
X211434166Y-68564819D02*
X211767499Y-68088628D01*
X212005594Y-68564819D02*
X212005594Y-67564819D01*
X212005594Y-67564819D02*
X211624642Y-67564819D01*
X211624642Y-67564819D02*
X211529404Y-67612438D01*
X211529404Y-67612438D02*
X211481785Y-67660057D01*
X211481785Y-67660057D02*
X211434166Y-67755295D01*
X211434166Y-67755295D02*
X211434166Y-67898152D01*
X211434166Y-67898152D02*
X211481785Y-67993390D01*
X211481785Y-67993390D02*
X211529404Y-68041009D01*
X211529404Y-68041009D02*
X211624642Y-68088628D01*
X211624642Y-68088628D02*
X212005594Y-68088628D01*
X211100832Y-67564819D02*
X210481785Y-67564819D01*
X210481785Y-67564819D02*
X210815118Y-67945771D01*
X210815118Y-67945771D02*
X210672261Y-67945771D01*
X210672261Y-67945771D02*
X210577023Y-67993390D01*
X210577023Y-67993390D02*
X210529404Y-68041009D01*
X210529404Y-68041009D02*
X210481785Y-68136247D01*
X210481785Y-68136247D02*
X210481785Y-68374342D01*
X210481785Y-68374342D02*
X210529404Y-68469580D01*
X210529404Y-68469580D02*
X210577023Y-68517200D01*
X210577023Y-68517200D02*
X210672261Y-68564819D01*
X210672261Y-68564819D02*
X210957975Y-68564819D01*
X210957975Y-68564819D02*
X211053213Y-68517200D01*
X211053213Y-68517200D02*
X211100832Y-68469580D01*
X198525000Y-47929164D02*
X198775000Y-47572021D01*
X198953571Y-47929164D02*
X198953571Y-47179164D01*
X198953571Y-47179164D02*
X198667857Y-47179164D01*
X198667857Y-47179164D02*
X198596428Y-47214878D01*
X198596428Y-47214878D02*
X198560714Y-47250592D01*
X198560714Y-47250592D02*
X198525000Y-47322021D01*
X198525000Y-47322021D02*
X198525000Y-47429164D01*
X198525000Y-47429164D02*
X198560714Y-47500592D01*
X198560714Y-47500592D02*
X198596428Y-47536307D01*
X198596428Y-47536307D02*
X198667857Y-47572021D01*
X198667857Y-47572021D02*
X198953571Y-47572021D01*
X197882143Y-47429164D02*
X197882143Y-47929164D01*
X198060714Y-47143450D02*
X198239285Y-47679164D01*
X198239285Y-47679164D02*
X197775000Y-47679164D01*
X199834819Y-69602857D02*
X199834819Y-69698095D01*
X199834819Y-69698095D02*
X199882438Y-69793333D01*
X199882438Y-69793333D02*
X199930057Y-69840952D01*
X199930057Y-69840952D02*
X200025295Y-69888571D01*
X200025295Y-69888571D02*
X200215771Y-69936190D01*
X200215771Y-69936190D02*
X200453866Y-69936190D01*
X200453866Y-69936190D02*
X200644342Y-69888571D01*
X200644342Y-69888571D02*
X200739580Y-69840952D01*
X200739580Y-69840952D02*
X200787200Y-69793333D01*
X200787200Y-69793333D02*
X200834819Y-69698095D01*
X200834819Y-69698095D02*
X200834819Y-69602857D01*
X200834819Y-69602857D02*
X200787200Y-69507619D01*
X200787200Y-69507619D02*
X200739580Y-69460000D01*
X200739580Y-69460000D02*
X200644342Y-69412381D01*
X200644342Y-69412381D02*
X200453866Y-69364762D01*
X200453866Y-69364762D02*
X200215771Y-69364762D01*
X200215771Y-69364762D02*
X200025295Y-69412381D01*
X200025295Y-69412381D02*
X199930057Y-69460000D01*
X199930057Y-69460000D02*
X199882438Y-69507619D01*
X199882438Y-69507619D02*
X199834819Y-69602857D01*
X200834819Y-70269524D02*
X200168152Y-70793333D01*
X200168152Y-70269524D02*
X200834819Y-70793333D01*
X200168152Y-71602857D02*
X200834819Y-71602857D01*
X199787200Y-71364762D02*
X200501485Y-71126667D01*
X200501485Y-71126667D02*
X200501485Y-71745714D01*
X200549104Y-72079048D02*
X200549104Y-72555238D01*
X200834819Y-71983810D02*
X199834819Y-72317143D01*
X199834819Y-72317143D02*
X200834819Y-72650476D01*
X193637735Y-69024999D02*
X193673450Y-68989285D01*
X193673450Y-68989285D02*
X193709164Y-68882142D01*
X193709164Y-68882142D02*
X193709164Y-68810714D01*
X193709164Y-68810714D02*
X193673450Y-68703571D01*
X193673450Y-68703571D02*
X193602021Y-68632142D01*
X193602021Y-68632142D02*
X193530592Y-68596428D01*
X193530592Y-68596428D02*
X193387735Y-68560714D01*
X193387735Y-68560714D02*
X193280592Y-68560714D01*
X193280592Y-68560714D02*
X193137735Y-68596428D01*
X193137735Y-68596428D02*
X193066307Y-68632142D01*
X193066307Y-68632142D02*
X192994878Y-68703571D01*
X192994878Y-68703571D02*
X192959164Y-68810714D01*
X192959164Y-68810714D02*
X192959164Y-68882142D01*
X192959164Y-68882142D02*
X192994878Y-68989285D01*
X192994878Y-68989285D02*
X193030592Y-69024999D01*
X193030592Y-69310714D02*
X192994878Y-69346428D01*
X192994878Y-69346428D02*
X192959164Y-69417857D01*
X192959164Y-69417857D02*
X192959164Y-69596428D01*
X192959164Y-69596428D02*
X192994878Y-69667857D01*
X192994878Y-69667857D02*
X193030592Y-69703571D01*
X193030592Y-69703571D02*
X193102021Y-69739285D01*
X193102021Y-69739285D02*
X193173450Y-69739285D01*
X193173450Y-69739285D02*
X193280592Y-69703571D01*
X193280592Y-69703571D02*
X193709164Y-69274999D01*
X193709164Y-69274999D02*
X193709164Y-69739285D01*
X228535000Y-49527735D02*
X228570714Y-49563450D01*
X228570714Y-49563450D02*
X228677857Y-49599164D01*
X228677857Y-49599164D02*
X228749285Y-49599164D01*
X228749285Y-49599164D02*
X228856428Y-49563450D01*
X228856428Y-49563450D02*
X228927857Y-49492021D01*
X228927857Y-49492021D02*
X228963571Y-49420592D01*
X228963571Y-49420592D02*
X228999285Y-49277735D01*
X228999285Y-49277735D02*
X228999285Y-49170592D01*
X228999285Y-49170592D02*
X228963571Y-49027735D01*
X228963571Y-49027735D02*
X228927857Y-48956307D01*
X228927857Y-48956307D02*
X228856428Y-48884878D01*
X228856428Y-48884878D02*
X228749285Y-48849164D01*
X228749285Y-48849164D02*
X228677857Y-48849164D01*
X228677857Y-48849164D02*
X228570714Y-48884878D01*
X228570714Y-48884878D02*
X228535000Y-48920592D01*
X227892143Y-49099164D02*
X227892143Y-49599164D01*
X228070714Y-48813450D02*
X228249285Y-49349164D01*
X228249285Y-49349164D02*
X227785000Y-49349164D01*
X217960057Y-52524761D02*
X217912438Y-52429523D01*
X217912438Y-52429523D02*
X217817200Y-52334285D01*
X217817200Y-52334285D02*
X217674342Y-52191428D01*
X217674342Y-52191428D02*
X217626723Y-52096190D01*
X217626723Y-52096190D02*
X217626723Y-52000952D01*
X217864819Y-52048571D02*
X217817200Y-51953333D01*
X217817200Y-51953333D02*
X217721961Y-51858095D01*
X217721961Y-51858095D02*
X217531485Y-51810476D01*
X217531485Y-51810476D02*
X217198152Y-51810476D01*
X217198152Y-51810476D02*
X217007676Y-51858095D01*
X217007676Y-51858095D02*
X216912438Y-51953333D01*
X216912438Y-51953333D02*
X216864819Y-52048571D01*
X216864819Y-52048571D02*
X216864819Y-52239047D01*
X216864819Y-52239047D02*
X216912438Y-52334285D01*
X216912438Y-52334285D02*
X217007676Y-52429523D01*
X217007676Y-52429523D02*
X217198152Y-52477142D01*
X217198152Y-52477142D02*
X217531485Y-52477142D01*
X217531485Y-52477142D02*
X217721961Y-52429523D01*
X217721961Y-52429523D02*
X217817200Y-52334285D01*
X217817200Y-52334285D02*
X217864819Y-52239047D01*
X217864819Y-52239047D02*
X217864819Y-52048571D01*
X217864819Y-53429523D02*
X217864819Y-52858095D01*
X217864819Y-53143809D02*
X216864819Y-53143809D01*
X216864819Y-53143809D02*
X217007676Y-53048571D01*
X217007676Y-53048571D02*
X217102914Y-52953333D01*
X217102914Y-52953333D02*
X217150533Y-52858095D01*
X206314819Y-73625238D02*
X206314819Y-73720476D01*
X206314819Y-73720476D02*
X206362438Y-73815714D01*
X206362438Y-73815714D02*
X206410057Y-73863333D01*
X206410057Y-73863333D02*
X206505295Y-73910952D01*
X206505295Y-73910952D02*
X206695771Y-73958571D01*
X206695771Y-73958571D02*
X206933866Y-73958571D01*
X206933866Y-73958571D02*
X207124342Y-73910952D01*
X207124342Y-73910952D02*
X207219580Y-73863333D01*
X207219580Y-73863333D02*
X207267200Y-73815714D01*
X207267200Y-73815714D02*
X207314819Y-73720476D01*
X207314819Y-73720476D02*
X207314819Y-73625238D01*
X207314819Y-73625238D02*
X207267200Y-73530000D01*
X207267200Y-73530000D02*
X207219580Y-73482381D01*
X207219580Y-73482381D02*
X207124342Y-73434762D01*
X207124342Y-73434762D02*
X206933866Y-73387143D01*
X206933866Y-73387143D02*
X206695771Y-73387143D01*
X206695771Y-73387143D02*
X206505295Y-73434762D01*
X206505295Y-73434762D02*
X206410057Y-73482381D01*
X206410057Y-73482381D02*
X206362438Y-73530000D01*
X206362438Y-73530000D02*
X206314819Y-73625238D01*
X207314819Y-74291905D02*
X206648152Y-74815714D01*
X206648152Y-74291905D02*
X207314819Y-74815714D01*
X206648152Y-75625238D02*
X207314819Y-75625238D01*
X206267200Y-75387143D02*
X206981485Y-75149048D01*
X206981485Y-75149048D02*
X206981485Y-75768095D01*
X207314819Y-76196667D02*
X207314819Y-76387143D01*
X207314819Y-76387143D02*
X207267200Y-76482381D01*
X207267200Y-76482381D02*
X207219580Y-76530000D01*
X207219580Y-76530000D02*
X207076723Y-76625238D01*
X207076723Y-76625238D02*
X206886247Y-76672857D01*
X206886247Y-76672857D02*
X206505295Y-76672857D01*
X206505295Y-76672857D02*
X206410057Y-76625238D01*
X206410057Y-76625238D02*
X206362438Y-76577619D01*
X206362438Y-76577619D02*
X206314819Y-76482381D01*
X206314819Y-76482381D02*
X206314819Y-76291905D01*
X206314819Y-76291905D02*
X206362438Y-76196667D01*
X206362438Y-76196667D02*
X206410057Y-76149048D01*
X206410057Y-76149048D02*
X206505295Y-76101429D01*
X206505295Y-76101429D02*
X206743390Y-76101429D01*
X206743390Y-76101429D02*
X206838628Y-76149048D01*
X206838628Y-76149048D02*
X206886247Y-76196667D01*
X206886247Y-76196667D02*
X206933866Y-76291905D01*
X206933866Y-76291905D02*
X206933866Y-76482381D01*
X206933866Y-76482381D02*
X206886247Y-76577619D01*
X206886247Y-76577619D02*
X206838628Y-76625238D01*
X206838628Y-76625238D02*
X206743390Y-76672857D01*
X222944819Y-56977142D02*
X222468628Y-56643809D01*
X222944819Y-56405714D02*
X221944819Y-56405714D01*
X221944819Y-56405714D02*
X221944819Y-56786666D01*
X221944819Y-56786666D02*
X221992438Y-56881904D01*
X221992438Y-56881904D02*
X222040057Y-56929523D01*
X222040057Y-56929523D02*
X222135295Y-56977142D01*
X222135295Y-56977142D02*
X222278152Y-56977142D01*
X222278152Y-56977142D02*
X222373390Y-56929523D01*
X222373390Y-56929523D02*
X222421009Y-56881904D01*
X222421009Y-56881904D02*
X222468628Y-56786666D01*
X222468628Y-56786666D02*
X222468628Y-56405714D01*
X222944819Y-57929523D02*
X222944819Y-57358095D01*
X222944819Y-57643809D02*
X221944819Y-57643809D01*
X221944819Y-57643809D02*
X222087676Y-57548571D01*
X222087676Y-57548571D02*
X222182914Y-57453333D01*
X222182914Y-57453333D02*
X222230533Y-57358095D01*
X222040057Y-58310476D02*
X221992438Y-58358095D01*
X221992438Y-58358095D02*
X221944819Y-58453333D01*
X221944819Y-58453333D02*
X221944819Y-58691428D01*
X221944819Y-58691428D02*
X221992438Y-58786666D01*
X221992438Y-58786666D02*
X222040057Y-58834285D01*
X222040057Y-58834285D02*
X222135295Y-58881904D01*
X222135295Y-58881904D02*
X222230533Y-58881904D01*
X222230533Y-58881904D02*
X222373390Y-58834285D01*
X222373390Y-58834285D02*
X222944819Y-58262857D01*
X222944819Y-58262857D02*
X222944819Y-58881904D01*
X213335000Y-48079164D02*
X213585000Y-47722021D01*
X213763571Y-48079164D02*
X213763571Y-47329164D01*
X213763571Y-47329164D02*
X213477857Y-47329164D01*
X213477857Y-47329164D02*
X213406428Y-47364878D01*
X213406428Y-47364878D02*
X213370714Y-47400592D01*
X213370714Y-47400592D02*
X213335000Y-47472021D01*
X213335000Y-47472021D02*
X213335000Y-47579164D01*
X213335000Y-47579164D02*
X213370714Y-47650592D01*
X213370714Y-47650592D02*
X213406428Y-47686307D01*
X213406428Y-47686307D02*
X213477857Y-47722021D01*
X213477857Y-47722021D02*
X213763571Y-47722021D01*
X212692143Y-47329164D02*
X212835000Y-47329164D01*
X212835000Y-47329164D02*
X212906428Y-47364878D01*
X212906428Y-47364878D02*
X212942143Y-47400592D01*
X212942143Y-47400592D02*
X213013571Y-47507735D01*
X213013571Y-47507735D02*
X213049285Y-47650592D01*
X213049285Y-47650592D02*
X213049285Y-47936307D01*
X213049285Y-47936307D02*
X213013571Y-48007735D01*
X213013571Y-48007735D02*
X212977857Y-48043450D01*
X212977857Y-48043450D02*
X212906428Y-48079164D01*
X212906428Y-48079164D02*
X212763571Y-48079164D01*
X212763571Y-48079164D02*
X212692143Y-48043450D01*
X212692143Y-48043450D02*
X212656428Y-48007735D01*
X212656428Y-48007735D02*
X212620714Y-47936307D01*
X212620714Y-47936307D02*
X212620714Y-47757735D01*
X212620714Y-47757735D02*
X212656428Y-47686307D01*
X212656428Y-47686307D02*
X212692143Y-47650592D01*
X212692143Y-47650592D02*
X212763571Y-47614878D01*
X212763571Y-47614878D02*
X212906428Y-47614878D01*
X212906428Y-47614878D02*
X212977857Y-47650592D01*
X212977857Y-47650592D02*
X213013571Y-47686307D01*
X213013571Y-47686307D02*
X213049285Y-47757735D01*
X228470000Y-48039164D02*
X228720000Y-47682021D01*
X228898571Y-48039164D02*
X228898571Y-47289164D01*
X228898571Y-47289164D02*
X228612857Y-47289164D01*
X228612857Y-47289164D02*
X228541428Y-47324878D01*
X228541428Y-47324878D02*
X228505714Y-47360592D01*
X228505714Y-47360592D02*
X228470000Y-47432021D01*
X228470000Y-47432021D02*
X228470000Y-47539164D01*
X228470000Y-47539164D02*
X228505714Y-47610592D01*
X228505714Y-47610592D02*
X228541428Y-47646307D01*
X228541428Y-47646307D02*
X228612857Y-47682021D01*
X228612857Y-47682021D02*
X228898571Y-47682021D01*
X228220000Y-47289164D02*
X227720000Y-47289164D01*
X227720000Y-47289164D02*
X228041428Y-48039164D01*
X221504819Y-57037142D02*
X221028628Y-56703809D01*
X221504819Y-56465714D02*
X220504819Y-56465714D01*
X220504819Y-56465714D02*
X220504819Y-56846666D01*
X220504819Y-56846666D02*
X220552438Y-56941904D01*
X220552438Y-56941904D02*
X220600057Y-56989523D01*
X220600057Y-56989523D02*
X220695295Y-57037142D01*
X220695295Y-57037142D02*
X220838152Y-57037142D01*
X220838152Y-57037142D02*
X220933390Y-56989523D01*
X220933390Y-56989523D02*
X220981009Y-56941904D01*
X220981009Y-56941904D02*
X221028628Y-56846666D01*
X221028628Y-56846666D02*
X221028628Y-56465714D01*
X221504819Y-57989523D02*
X221504819Y-57418095D01*
X221504819Y-57703809D02*
X220504819Y-57703809D01*
X220504819Y-57703809D02*
X220647676Y-57608571D01*
X220647676Y-57608571D02*
X220742914Y-57513333D01*
X220742914Y-57513333D02*
X220790533Y-57418095D01*
X221504819Y-58941904D02*
X221504819Y-58370476D01*
X221504819Y-58656190D02*
X220504819Y-58656190D01*
X220504819Y-58656190D02*
X220647676Y-58560952D01*
X220647676Y-58560952D02*
X220742914Y-58465714D01*
X220742914Y-58465714D02*
X220790533Y-58370476D01*
X206354819Y-69681428D02*
X206354819Y-69776666D01*
X206354819Y-69776666D02*
X206402438Y-69871904D01*
X206402438Y-69871904D02*
X206450057Y-69919523D01*
X206450057Y-69919523D02*
X206545295Y-69967142D01*
X206545295Y-69967142D02*
X206735771Y-70014761D01*
X206735771Y-70014761D02*
X206973866Y-70014761D01*
X206973866Y-70014761D02*
X207164342Y-69967142D01*
X207164342Y-69967142D02*
X207259580Y-69919523D01*
X207259580Y-69919523D02*
X207307200Y-69871904D01*
X207307200Y-69871904D02*
X207354819Y-69776666D01*
X207354819Y-69776666D02*
X207354819Y-69681428D01*
X207354819Y-69681428D02*
X207307200Y-69586190D01*
X207307200Y-69586190D02*
X207259580Y-69538571D01*
X207259580Y-69538571D02*
X207164342Y-69490952D01*
X207164342Y-69490952D02*
X206973866Y-69443333D01*
X206973866Y-69443333D02*
X206735771Y-69443333D01*
X206735771Y-69443333D02*
X206545295Y-69490952D01*
X206545295Y-69490952D02*
X206450057Y-69538571D01*
X206450057Y-69538571D02*
X206402438Y-69586190D01*
X206402438Y-69586190D02*
X206354819Y-69681428D01*
X207354819Y-70348095D02*
X206688152Y-70871904D01*
X206688152Y-70348095D02*
X207354819Y-70871904D01*
X206688152Y-71681428D02*
X207354819Y-71681428D01*
X206307200Y-71443333D02*
X207021485Y-71205238D01*
X207021485Y-71205238D02*
X207021485Y-71824285D01*
X206831009Y-72538571D02*
X206878628Y-72681428D01*
X206878628Y-72681428D02*
X206926247Y-72729047D01*
X206926247Y-72729047D02*
X207021485Y-72776666D01*
X207021485Y-72776666D02*
X207164342Y-72776666D01*
X207164342Y-72776666D02*
X207259580Y-72729047D01*
X207259580Y-72729047D02*
X207307200Y-72681428D01*
X207307200Y-72681428D02*
X207354819Y-72586190D01*
X207354819Y-72586190D02*
X207354819Y-72205238D01*
X207354819Y-72205238D02*
X206354819Y-72205238D01*
X206354819Y-72205238D02*
X206354819Y-72538571D01*
X206354819Y-72538571D02*
X206402438Y-72633809D01*
X206402438Y-72633809D02*
X206450057Y-72681428D01*
X206450057Y-72681428D02*
X206545295Y-72729047D01*
X206545295Y-72729047D02*
X206640533Y-72729047D01*
X206640533Y-72729047D02*
X206735771Y-72681428D01*
X206735771Y-72681428D02*
X206783390Y-72633809D01*
X206783390Y-72633809D02*
X206831009Y-72538571D01*
X206831009Y-72538571D02*
X206831009Y-72205238D01*
X195281428Y-63431664D02*
X195281428Y-64038807D01*
X195281428Y-64038807D02*
X195245714Y-64110235D01*
X195245714Y-64110235D02*
X195210000Y-64145950D01*
X195210000Y-64145950D02*
X195138571Y-64181664D01*
X195138571Y-64181664D02*
X194995714Y-64181664D01*
X194995714Y-64181664D02*
X194924285Y-64145950D01*
X194924285Y-64145950D02*
X194888571Y-64110235D01*
X194888571Y-64110235D02*
X194852857Y-64038807D01*
X194852857Y-64038807D02*
X194852857Y-63431664D01*
X194102857Y-64181664D02*
X194531428Y-64181664D01*
X194317143Y-64181664D02*
X194317143Y-63431664D01*
X194317143Y-63431664D02*
X194388571Y-63538807D01*
X194388571Y-63538807D02*
X194460000Y-63610235D01*
X194460000Y-63610235D02*
X194531428Y-63645950D01*
X213385000Y-49567735D02*
X213420714Y-49603450D01*
X213420714Y-49603450D02*
X213527857Y-49639164D01*
X213527857Y-49639164D02*
X213599285Y-49639164D01*
X213599285Y-49639164D02*
X213706428Y-49603450D01*
X213706428Y-49603450D02*
X213777857Y-49532021D01*
X213777857Y-49532021D02*
X213813571Y-49460592D01*
X213813571Y-49460592D02*
X213849285Y-49317735D01*
X213849285Y-49317735D02*
X213849285Y-49210592D01*
X213849285Y-49210592D02*
X213813571Y-49067735D01*
X213813571Y-49067735D02*
X213777857Y-48996307D01*
X213777857Y-48996307D02*
X213706428Y-48924878D01*
X213706428Y-48924878D02*
X213599285Y-48889164D01*
X213599285Y-48889164D02*
X213527857Y-48889164D01*
X213527857Y-48889164D02*
X213420714Y-48924878D01*
X213420714Y-48924878D02*
X213385000Y-48960592D01*
X213135000Y-48889164D02*
X212670714Y-48889164D01*
X212670714Y-48889164D02*
X212920714Y-49174878D01*
X212920714Y-49174878D02*
X212813571Y-49174878D01*
X212813571Y-49174878D02*
X212742143Y-49210592D01*
X212742143Y-49210592D02*
X212706428Y-49246307D01*
X212706428Y-49246307D02*
X212670714Y-49317735D01*
X212670714Y-49317735D02*
X212670714Y-49496307D01*
X212670714Y-49496307D02*
X212706428Y-49567735D01*
X212706428Y-49567735D02*
X212742143Y-49603450D01*
X212742143Y-49603450D02*
X212813571Y-49639164D01*
X212813571Y-49639164D02*
X213027857Y-49639164D01*
X213027857Y-49639164D02*
X213099285Y-49603450D01*
X213099285Y-49603450D02*
X213135000Y-49567735D01*
X243585000Y-48099164D02*
X243835000Y-47742021D01*
X244013571Y-48099164D02*
X244013571Y-47349164D01*
X244013571Y-47349164D02*
X243727857Y-47349164D01*
X243727857Y-47349164D02*
X243656428Y-47384878D01*
X243656428Y-47384878D02*
X243620714Y-47420592D01*
X243620714Y-47420592D02*
X243585000Y-47492021D01*
X243585000Y-47492021D02*
X243585000Y-47599164D01*
X243585000Y-47599164D02*
X243620714Y-47670592D01*
X243620714Y-47670592D02*
X243656428Y-47706307D01*
X243656428Y-47706307D02*
X243727857Y-47742021D01*
X243727857Y-47742021D02*
X244013571Y-47742021D01*
X243227857Y-48099164D02*
X243085000Y-48099164D01*
X243085000Y-48099164D02*
X243013571Y-48063450D01*
X243013571Y-48063450D02*
X242977857Y-48027735D01*
X242977857Y-48027735D02*
X242906428Y-47920592D01*
X242906428Y-47920592D02*
X242870714Y-47777735D01*
X242870714Y-47777735D02*
X242870714Y-47492021D01*
X242870714Y-47492021D02*
X242906428Y-47420592D01*
X242906428Y-47420592D02*
X242942143Y-47384878D01*
X242942143Y-47384878D02*
X243013571Y-47349164D01*
X243013571Y-47349164D02*
X243156428Y-47349164D01*
X243156428Y-47349164D02*
X243227857Y-47384878D01*
X243227857Y-47384878D02*
X243263571Y-47420592D01*
X243263571Y-47420592D02*
X243299285Y-47492021D01*
X243299285Y-47492021D02*
X243299285Y-47670592D01*
X243299285Y-47670592D02*
X243263571Y-47742021D01*
X243263571Y-47742021D02*
X243227857Y-47777735D01*
X243227857Y-47777735D02*
X243156428Y-47813450D01*
X243156428Y-47813450D02*
X243013571Y-47813450D01*
X243013571Y-47813450D02*
X242942143Y-47777735D01*
X242942143Y-47777735D02*
X242906428Y-47742021D01*
X242906428Y-47742021D02*
X242870714Y-47670592D01*
D10*
%TO.C,C1*%
X196275580Y-48600000D02*
X195994420Y-48600000D01*
X196275580Y-49620000D02*
X195994420Y-49620000D01*
%TO.C,R2*%
X213492936Y-64825000D02*
X213947064Y-64825000D01*
X213492936Y-66295000D02*
X213947064Y-66295000D01*
D12*
%TO.C,J1*%
X226505000Y-61300000D02*
X226505000Y-72300000D01*
X226505000Y-61300000D02*
X228888000Y-61300000D01*
X226505000Y-72300000D02*
X228888000Y-72300000D01*
X231339000Y-61300000D02*
X233000000Y-61300000D01*
X231339000Y-72300000D02*
X233000000Y-72300000D01*
X233000000Y-61300000D02*
X233000000Y-63669000D01*
X233000000Y-72300000D02*
X233000000Y-69931000D01*
X233635000Y-70229000D02*
G75*
G02*
X233381000Y-70229000I-127000J0D01*
G01*
X233381000Y-70229000D02*
G75*
G02*
X233635000Y-70229000I127000J0D01*
G01*
D10*
%TO.C,R13*%
X213490436Y-69865000D02*
X213944564Y-69865000D01*
X213490436Y-71335000D02*
X213944564Y-71335000D01*
%TO.C,JP1*%
X201300000Y-73800000D02*
X201300000Y-75200000D01*
X202000000Y-75900000D02*
X202600000Y-75900000D01*
X202600000Y-73100000D02*
X202000000Y-73100000D01*
X203300000Y-75200000D02*
X203300000Y-73800000D01*
X201300000Y-73800000D02*
G75*
G02*
X202000000Y-73100000I700000J0D01*
G01*
X202000000Y-75900000D02*
G75*
G02*
X201300000Y-75200000I-1J699999D01*
G01*
X202600000Y-73100000D02*
G75*
G02*
X203300000Y-73800000I0J-700000D01*
G01*
X203300000Y-75200000D02*
G75*
G02*
X202600000Y-75900000I-699999J-1D01*
G01*
%TO.C,C5*%
X241320580Y-48740000D02*
X241039420Y-48740000D01*
X241320580Y-49760000D02*
X241039420Y-49760000D01*
%TO.C,R3*%
X213510436Y-67335000D02*
X213964564Y-67335000D01*
X213510436Y-68805000D02*
X213964564Y-68805000D01*
%TO.C,R4*%
X195999420Y-47080000D02*
X196280580Y-47080000D01*
X195999420Y-48100000D02*
X196280580Y-48100000D01*
%TO.C,JP3*%
X201300000Y-70480000D02*
X201300000Y-71880000D01*
X202000000Y-72580000D02*
X202600000Y-72580000D01*
X202600000Y-69780000D02*
X202000000Y-69780000D01*
X203300000Y-71880000D02*
X203300000Y-70480000D01*
X201300000Y-70480000D02*
G75*
G02*
X202000000Y-69780000I700000J0D01*
G01*
X202000000Y-72580000D02*
G75*
G02*
X201300000Y-71880000I-1J699999D01*
G01*
X202600000Y-69780000D02*
G75*
G02*
X203300000Y-70480000I0J-700000D01*
G01*
X203300000Y-71880000D02*
G75*
G02*
X202600000Y-72580000I-699999J-1D01*
G01*
%TO.C,C2*%
X192820000Y-67200580D02*
X192820000Y-66919420D01*
X193840000Y-67200580D02*
X193840000Y-66919420D01*
%TO.C,C4*%
X226210580Y-48690000D02*
X225929420Y-48690000D01*
X226210580Y-49710000D02*
X225929420Y-49710000D01*
%TO.C,J2*%
X217150000Y-61720000D02*
X217150000Y-74530000D01*
X219910000Y-59070000D02*
X218530000Y-59070000D01*
X219910000Y-60450000D02*
X219910000Y-59070000D01*
X219910000Y-61720000D02*
X217150000Y-61720000D01*
X219910000Y-61720000D02*
X219910000Y-74530000D01*
X219910000Y-74530000D02*
X217150000Y-74530000D01*
D13*
%TO.C,H3*%
X244409900Y-80421700D02*
G75*
G02*
X237910100Y-80421700I-3249900J0D01*
G01*
X237910100Y-80421700D02*
G75*
G02*
X244409900Y-80421700I3249900J0D01*
G01*
%TO.C,H1*%
X198340700Y-53744200D02*
G75*
G02*
X191840900Y-53744200I-3249900J0D01*
G01*
X191840900Y-53744200D02*
G75*
G02*
X198340700Y-53744200I3249900J0D01*
G01*
D10*
%TO.C,Q1*%
X216940000Y-54330000D02*
X216940000Y-53680000D01*
X216940000Y-54330000D02*
X216940000Y-54980000D01*
X220060000Y-54330000D02*
X220060000Y-53680000D01*
X220060000Y-54330000D02*
X220060000Y-54980000D01*
X220340000Y-55732500D02*
X220010000Y-55492500D01*
X220340000Y-55252500D01*
X220340000Y-55732500D01*
G36*
X220340000Y-55732500D02*
G01*
X220010000Y-55492500D01*
X220340000Y-55252500D01*
X220340000Y-55732500D01*
G37*
%TO.C,JP2*%
X203820000Y-73800000D02*
X203820000Y-75200000D01*
X204520000Y-75900000D02*
X205120000Y-75900000D01*
X205120000Y-73100000D02*
X204520000Y-73100000D01*
X205820000Y-75200000D02*
X205820000Y-73800000D01*
X203820000Y-73800000D02*
G75*
G02*
X204520000Y-73100000I699999J1D01*
G01*
X204520000Y-75900000D02*
G75*
G02*
X203820000Y-75200000I0J700000D01*
G01*
X205120000Y-73100000D02*
G75*
G02*
X205820000Y-73800000I1J-699999D01*
G01*
X205820000Y-75200000D02*
G75*
G02*
X205120000Y-75900000I-700000J0D01*
G01*
%TO.C,R12*%
X221987500Y-54532742D02*
X221987500Y-55007258D01*
X223032500Y-54532742D02*
X223032500Y-55007258D01*
%TO.C,R6*%
X210779420Y-47160000D02*
X211060580Y-47160000D01*
X210779420Y-48180000D02*
X211060580Y-48180000D01*
%TO.C,R7*%
X225924420Y-47120000D02*
X226205580Y-47120000D01*
X225924420Y-48140000D02*
X226205580Y-48140000D01*
%TO.C,R11*%
X220457500Y-54532742D02*
X220457500Y-55007258D01*
X221502500Y-54532742D02*
X221502500Y-55007258D01*
%TO.C,JP4*%
X203800000Y-70500000D02*
X203800000Y-71900000D01*
X204500000Y-72600000D02*
X205100000Y-72600000D01*
X205100000Y-69800000D02*
X204500000Y-69800000D01*
X205800000Y-71900000D02*
X205800000Y-70500000D01*
X203800000Y-70500000D02*
G75*
G02*
X204500000Y-69800000I700000J0D01*
G01*
X204500000Y-72600000D02*
G75*
G02*
X203800000Y-71900000I-1J699999D01*
G01*
X205100000Y-69800000D02*
G75*
G02*
X205800000Y-70500000I0J-700000D01*
G01*
X205800000Y-71900000D02*
G75*
G02*
X205100000Y-72600000I-699999J-1D01*
G01*
D13*
%TO.C,H4*%
X198350700Y-80424200D02*
G75*
G02*
X191850900Y-80424200I-3249900J0D01*
G01*
X191850900Y-80424200D02*
G75*
G02*
X198350700Y-80424200I3249900J0D01*
G01*
D11*
%TO.C,U1*%
X194275000Y-65437500D02*
X194275000Y-68687500D01*
X194275000Y-65437500D02*
X194500000Y-65437500D01*
X194275000Y-68687500D02*
X194500000Y-68687500D01*
X197525000Y-65437500D02*
X197300000Y-65437500D01*
X197525000Y-65437500D02*
X197525000Y-68687500D01*
X197525000Y-68687500D02*
X197300000Y-68687500D01*
D10*
X194500000Y-64962500D02*
X194170000Y-65202500D01*
X194170000Y-64722500D01*
X194500000Y-64962500D01*
G36*
X194500000Y-64962500D02*
G01*
X194170000Y-65202500D01*
X194170000Y-64722500D01*
X194500000Y-64962500D01*
G37*
%TO.C,C3*%
X211065580Y-48740000D02*
X210784420Y-48740000D01*
X211065580Y-49760000D02*
X210784420Y-49760000D01*
%TO.C,R9*%
X241039420Y-47170000D02*
X241320580Y-47170000D01*
X241039420Y-48190000D02*
X241320580Y-48190000D01*
D13*
%TO.C,H2*%
X244319900Y-53744200D02*
G75*
G02*
X237820100Y-53744200I-3249900J0D01*
G01*
X237820100Y-53744200D02*
G75*
G02*
X244319900Y-53744200I3249900J0D01*
G01*
%TD*%
%LPC*%
%TO.C,JP1*%
G36*
X203050000Y-74650000D02*
G01*
X201550000Y-74650000D01*
X201550000Y-74350000D01*
X203050000Y-74350000D01*
X203050000Y-74650000D01*
G37*
%TO.C,JP3*%
G36*
X203050000Y-71330000D02*
G01*
X201550000Y-71330000D01*
X201550000Y-71030000D01*
X203050000Y-71030000D01*
X203050000Y-71330000D01*
G37*
%TO.C,JP2*%
G36*
X204070000Y-74350000D02*
G01*
X205570000Y-74350000D01*
X205570000Y-74650000D01*
X204070000Y-74650000D01*
X204070000Y-74350000D01*
G37*
%TO.C,JP4*%
G36*
X205550000Y-71350000D02*
G01*
X204050000Y-71350000D01*
X204050000Y-71050000D01*
X205550000Y-71050000D01*
X205550000Y-71350000D01*
G37*
%TD*%
D14*
%TO.C,R8*%
X227830000Y-45312500D03*
D15*
X224330000Y-45312500D03*
D16*
X221830000Y-49462500D03*
X230330000Y-50662500D03*
X230330000Y-83462500D03*
X221830000Y-84662500D03*
D15*
X227830000Y-88812500D03*
%TD*%
D14*
%TO.C,R10*%
X242920000Y-45312500D03*
D15*
X239420000Y-45312500D03*
D16*
X236920000Y-49462500D03*
X245420000Y-50662500D03*
X245420000Y-83462500D03*
X236920000Y-84662500D03*
D15*
X242920000Y-88812500D03*
%TD*%
D14*
%TO.C,R1*%
X212740000Y-45312500D03*
D15*
X209240000Y-45312500D03*
D16*
X206740000Y-49462500D03*
X215240000Y-50662500D03*
X215240000Y-83462500D03*
X206740000Y-84662500D03*
D15*
X212740000Y-88812500D03*
%TD*%
D14*
%TO.C,R5*%
X197650000Y-45312500D03*
D15*
X194150000Y-45312500D03*
D16*
X191650000Y-49462500D03*
X200150000Y-50662500D03*
X200150000Y-83462500D03*
X191650000Y-84662500D03*
D15*
X197650000Y-88812500D03*
%TD*%
D17*
%TO.C,C1*%
X196910000Y-49110000D03*
X195360000Y-49110000D03*
%TD*%
D18*
%TO.C,R2*%
X212807500Y-65560000D03*
X214632500Y-65560000D03*
%TD*%
D19*
%TO.C,J1*%
X232838000Y-69550000D03*
X232838000Y-69050000D03*
X232838000Y-68550000D03*
X232838000Y-68050000D03*
X232838000Y-67550000D03*
X232838000Y-67050000D03*
X232838000Y-66550000D03*
X232838000Y-66050000D03*
X232838000Y-65550000D03*
X232838000Y-65050000D03*
X232838000Y-64550000D03*
X232838000Y-64050000D03*
D20*
X230114000Y-62250000D03*
X230114000Y-71350000D03*
%TD*%
D18*
%TO.C,R13*%
X212805000Y-70600000D03*
X214630000Y-70600000D03*
%TD*%
D21*
%TO.C,JP1*%
X202300000Y-75150000D03*
D22*
X202300000Y-73850000D03*
%TD*%
D17*
%TO.C,C5*%
X241955000Y-49250000D03*
X240405000Y-49250000D03*
%TD*%
D18*
%TO.C,R3*%
X212825000Y-68070000D03*
X214650000Y-68070000D03*
%TD*%
D23*
%TO.C,R4*%
X195365000Y-47590000D03*
X196915000Y-47590000D03*
%TD*%
D21*
%TO.C,JP3*%
X202300000Y-71830000D03*
D22*
X202300000Y-70530000D03*
%TD*%
D24*
%TO.C,C2*%
X193330000Y-67835000D03*
X193330000Y-66285000D03*
%TD*%
D17*
%TO.C,C4*%
X226845000Y-49200000D03*
X225295000Y-49200000D03*
%TD*%
D25*
%TO.C,J2*%
X218530000Y-60450000D03*
D26*
X218530000Y-62990000D03*
X218530000Y-65530000D03*
X218530000Y-68070000D03*
X218530000Y-70610000D03*
X218530000Y-73150000D03*
%TD*%
D27*
%TO.C,H3*%
X241160000Y-80421700D03*
D28*
X239546800Y-78278200D03*
D29*
X239553400Y-82590900D03*
D30*
X242793200Y-82585800D03*
D31*
X242779200Y-78247500D03*
%TD*%
D27*
%TO.C,H1*%
X195090800Y-53744200D03*
D28*
X193477600Y-51600700D03*
D29*
X193484200Y-55913400D03*
D30*
X196724000Y-55908300D03*
D31*
X196710000Y-51570000D03*
%TD*%
D32*
%TO.C,Q1*%
X219450000Y-55267500D03*
X217550000Y-55267500D03*
X218500000Y-53392500D03*
%TD*%
D33*
%TO.C,JP2*%
X204820000Y-73850000D03*
D34*
X204820000Y-75150000D03*
%TD*%
D35*
%TO.C,R12*%
X222510000Y-53945000D03*
X222510000Y-55595000D03*
%TD*%
D23*
%TO.C,R6*%
X210145000Y-47670000D03*
X211695000Y-47670000D03*
%TD*%
%TO.C,R7*%
X225290000Y-47630000D03*
X226840000Y-47630000D03*
%TD*%
D35*
%TO.C,R11*%
X220980000Y-53945000D03*
X220980000Y-55595000D03*
%TD*%
D21*
%TO.C,JP4*%
X204800000Y-71850000D03*
D22*
X204800000Y-70550000D03*
%TD*%
D27*
%TO.C,H4*%
X195100800Y-80424200D03*
D28*
X193487600Y-78280700D03*
D29*
X193494200Y-82593400D03*
D30*
X196734000Y-82588300D03*
D31*
X196720000Y-78250000D03*
%TD*%
D36*
%TO.C,U1*%
X194900000Y-64912500D03*
X195400000Y-64912500D03*
X195900000Y-64912500D03*
X196400000Y-64912500D03*
X196900000Y-64912500D03*
X196900000Y-69212500D03*
X196400000Y-69212500D03*
X195900000Y-69212500D03*
X195400000Y-69212500D03*
X194900000Y-69212500D03*
%TD*%
D17*
%TO.C,C3*%
X211700000Y-49250000D03*
X210150000Y-49250000D03*
%TD*%
D23*
%TO.C,R9*%
X240405000Y-47680000D03*
X241955000Y-47680000D03*
%TD*%
D27*
%TO.C,H2*%
X241070000Y-53744200D03*
D28*
X239456800Y-51600700D03*
D29*
X239463400Y-55913400D03*
D30*
X242703200Y-55908300D03*
D31*
X242689200Y-51570000D03*
%TD*%
%LPD*%
M02*
