M48
; DRILL file {KiCad 9.0.1} date 2026-07-11T17:25:02-0500
; FORMAT={-:-/ absolute / inch / decimal}
; #@! TF.CreationDate,2026-07-11T17:25:02-05:00
; #@! TF.GenerationSoftware,Kicad,Pcbnew,9.0.1
; #@! TF.FileFunction,Plated,1,2,PTH
FMAT,2
INCH
; #@! TA.AperFunction,Plated,PTH,ViaDrill
T1C0.0118
; #@! TA.AperFunction,Plated,PTH,ComponentDrill
T2C0.0394
; #@! TA.AperFunction,Plated,PTH,ComponentDrill
T3C0.0472
; #@! TA.AperFunction,Plated,PTH,ComponentDrill
T4C0.0669
%
G90
G05
T1
X7.611Y-2.5484
X7.6291Y-1.8953
X7.6488Y-2.6876
X7.6768Y-2.6555
X7.7126Y-2.4988
X7.7177Y-2.7913
X7.7283Y-2.6654
X7.7445Y-2.7677
X7.7531Y-2.6358
X7.8268Y-2.898
X7.922Y-2.5673
X7.9512Y-2.5374
X8.013Y-2.8681
X8.0138Y-2.5657
X8.0957Y-2.6303
X8.1035Y-2.743
X8.228Y-1.9386
X8.2437Y-2.5531
X8.2516Y-2.7476
X8.3169Y-2.5819
X8.3177Y-2.6807
X8.3177Y-2.7823
X8.3193Y-2.3799
X8.4354Y-2.1724
X8.6988Y-2.2476
X8.8083Y-2.6791
X8.8268Y-1.9256
X8.9699Y-2.534
X9.4181Y-1.928
T2
X8.6035Y-2.3799
X8.6035Y-2.4799
X8.6035Y-2.5799
X8.6035Y-2.6799
X8.6035Y-2.7799
X8.6035Y-2.8799
T3
X7.6437Y-1.784
X7.7815Y-1.784
X7.7815Y-3.4966
X8.2378Y-1.784
X8.3756Y-1.784
X8.3756Y-3.4966
X8.8319Y-1.784
X8.9697Y-1.784
X8.9697Y-3.4966
X9.426Y-1.784
X9.5638Y-1.784
X9.5638Y-3.4966
T4
X7.5453Y-1.9473
X7.5453Y-3.3332
X7.8799Y-1.9946
X7.8799Y-3.2859
X8.1394Y-1.9473
X8.1394Y-3.3332
X8.474Y-1.9946
X8.474Y-3.2859
X8.7335Y-1.9473
X8.7335Y-3.3332
X9.0681Y-1.9946
X9.0681Y-3.2859
X9.3276Y-1.9473
X9.3276Y-3.3332
X9.6622Y-1.9946
X9.6622Y-3.2859
M30
